/* XPM */
static char *out[] = {
/* columns rows colors chars-per-pixel */
"64 64 122 2 ",
"   c #0A0709",
".  c #120404",
"X  c #14050B",
"o  c #0E0C10",
"O  c #1A0C12",
"+  c #121316",
"@  c #141619",
"#  c #1A1B1F",
"$  c #2B0805",
"%  c #360B0B",
"&  c #240B14",
"*  c #270F19",
"=  c #290E19",
"-  c #3B0915",
";  c #1B1E22",
":  c #2A1621",
">  c #261D25",
",  c #2B1E20",
"<  c #3E1023",
"1  c #1F2327",
"2  c #23272C",
"3  c #2C262E",
"4  c #26292F",
"5  c #3A2425",
"6  c #31252F",
"7  c #39292C",
"8  c #272B31",
"9  c #2A2E34",
"0  c #322731",
"q  c #3C2533",
"w  c #342A34",
"e  c #2C3037",
"r  c #2E333A",
"t  c #490C06",
"y  c #44120E",
"u  c #5F0F10",
"i  c #431815",
"p  c #541A15",
"a  c #601007",
"s  c #77150A",
"d  c #7A190F",
"f  c #570D28",
"g  c #5F0E2B",
"h  c #411425",
"j  c #401729",
"k  c #491B2F",
"l  c #521028",
"z  c #4F1F34",
"x  c #531E34",
"c  c #5A1B34",
"v  c #6E1334",
"b  c #6D1939",
"n  c #711133",
"m  c #7B173C",
"M  c #373741",
"N  c #353B42",
"B  c #3A3D45",
"V  c #3C424B",
"C  c #414751",
"Z  c #454B55",
"A  c #474D59",
"S  c #484F5A",
"D  c #4C545F",
"F  c #4D5560",
"G  c #505763",
"H  c #515964",
"J  c #555D68",
"K  c #88190E",
"L  c #9F1A0C",
"P  c #B61E0E",
"I  c #BA1F0E",
"U  c #A81C10",
"Y  c #931720",
"T  c #81163C",
"R  c #9D1839",
"E  c #A2192E",
"W  c #C42111",
"Q  c #CC2211",
"!  c #C2201C",
"~  c #D32312",
"^  c #DB2429",
"/  c #DE2330",
"(  c #E42432",
")  c #841A41",
"_  c #931946",
"`  c #A5184B",
"'  c #AA194D",
"]  c #AD1B50",
"[  c #BC1C55",
"{  c #892447",
"}  c #98234B",
"|  c #893851",
" . c #C61E5B",
".. c #EA2C46",
"X. c #E3244C",
"o. c #ED2457",
"O. c #F42559",
"+. c #D41F60",
"@. c #D62061",
"#. c #D82062",
"$. c #E22166",
"%. c #ED236B",
"&. c #F53967",
"*. c #F63669",
"=. c #EC2F72",
"-. c #F62470",
";. c #FE2674",
":. c #FE2B76",
">. c #EA3E77",
",. c #FF317A",
"<. c #99475F",
"1. c #C84E74",
"2. c #FF3D80",
"3. c #FF4C88",
"4. c #EA5E8A",
"5. c #F55589",
"6. c #FF558D",
"7. c #FF6193",
"8. c #FF6C99",
"9. c #ED7497",
"0. c #F5759B",
"q. c #FE779F",
/* pixels */
"F J S A F F J H D F D F J H D A F F F F F H F F D F F Z S F F F F D G H F F J F F H F F A A S V F A S F F F F F D V D J F F F J ",
"F G D D F G F D D H D D F F D D D F F F F H F F F D D D D D D D F D D S H F F F H J F F F F F S F F D F F F F D F F A F F A A F ",
"D F F D D G D D D D D D S D D D A D F F F F A D F F D F F D F F A D S S G F F F F F F F F F F F F F D F F F D D F F S D F D A G ",
"D F F F D F D F D A D D S A D D Z F F F F F A D F D F F F F D F A D D F F G F F F F A F F F S F F F D S F D D D F F D D F F F F ",
"F D F F F D D F G F D D F H D D F F F F D D F F F D F F F F D D F F F F F F H F F S V F F F F F F F A A D D D D G H F D F H H F ",
"F D H H D C D G H D F D D D F G F F F F F F F F F D F F F A Z F F F G H F F F F F F H F F F S F A S D F D D A S D D D D D F F H ",
"A D G H D D D F D D D C D D D F F Z A F F F F Z Z D F F F D D D F F F F F D F F F S F S F F F S D D D D F F D S A F F D D F H G ",
"D F G G G D D H H D D D D D F G F S D D F F F S D F F F S D F D F F D D D A F F F F F F F F F F F F D D A F D S D D D A D F G H ",
"D H H D D H D H F D H D D D D H F D F F F F F D S F F F A S F F F F F D S A F F F F F F F F F F G F F D A F F F D D H D D D D G ",
"F D D D D J D D F F G F D D D D D D F F F G F F F D F F F F F S F F F D F F F S F F S F F F F A F F F D F F H F D F J H F D D F ",
"D H F D H D D H H D F D D A A H F F S Z F F F Z Z F Z F G H F F F F F D F F A S F G F F F F F F H F D D F F F F D F F F D D D F ",
"D J F D D J D D D D D D D D D D F F F S F H F D S F S F F F F F F F D F F S F F F F S F F F F F F D F D F H F F D D D H F D D F ",
"H H D S A H D D D D G D H F D F H F F F F G F F F F F F F F F F D F F F F G F A A F F F F S A F D F F D A F F F D A D F F F F G ",
"F D D D S D S D F H H H D F D H G G F F F F A D F F F F F F F F F F F S F F F S A F F F F F A S D F F D A F F F D A F D F F F F ",
"D F H H D D A D D F D J H F D H F G F F F D Z D F F F F G F F G F F S A F F F F F F S S S F F F F D D D F F F F D D F D F F F F ",
"F H H D D D D D S A F D D D D D F F G F D F F F F S Z F F F F F F G G F F F F F F F F F A S F F H F D F F H F F F D F F F F D D ",
"H D H F H F D D S F D F F H H D F F F F D H F F F S V B Z F F V B V D G F H A A D D H D D D F F G F F D A D D H H F H F D F D Z ",
"H D D H H D A D F F F F F F F F H F F D D V F A S V r 1 N Z C e 2 M A G F G D D F H F H H F F D F D D D D D F F F F F D D F D D ",
"D D D F H D D D F D F F S F F F H F F F F F F V Z B : O 3 B M > O 3 B D D F D D D F F F F F F D F D D D D F F F F F F A D D D D ",
"D D D F F D D D D D S D F F D D F F F F F F F V r q c v z 0 q c b x M M B F D D D D F D D F H D D D F F D F F D F F F A D F D A ",
"F A F H F F H F F D V D F F D D S F F F F H F r @ h _  .) = h _  .m * ; M F A D D F F F D F F D D D F F F F F F F F F D D D D Z ",
"F D F D D F H F D D H F F F D D Z S F S V V B w h n [ %.' g n [ %.' g < M B Z A F D Z D D F H F Z D D D F H H F F F J F D D D D ",
"D F F D F F D D F D V D D D F D F F F F Z e > c _ [ +.-.+.[ [ $.-.+.[ ) k 1 r A D D Z D H H F D D D F D F F F F F F H F D F D F ",
"D H F F F D D D F F F D F D F F F F F A V 1 X v +.;.;.;.;.;.;.:.;.2.-.[ j o 8 C D D D D H H F D D F F D F F D D D D H F F F D D ",
"D F H F H D D D D D D D D D D F F F S S B ; X n #.:.;.;.:.;.,.2.3.2.;.[ f   2 Z F D F F F F D D D F F D F H A D D F F F F F F F ",
"F D H H D D A D D D F F S S D F F F F F V ; X n #.:.;.;.;.;.2.6.8.3.;.[ f   2 A H F F D D F F F F D D F F H A D D D F D F D D D ",
"D A S D D D D F F D F D D F D F F F F F B ; X v +.;.;.;.;.;.2.7.q.6.2.[ f   2 Z D D D D D F H D F F F D F F D D D F H D D D D Z ",
"D D F F H D H F F F H F D D F H F F F F V ; X v +.;.;.;.;.;.2.7.q.6.2.[ f   4 Z D D Z D H F F F H D D F H D D F F H F Z D D D D ",
"D F F F H F H F F F F D D D F F F F F F V 1 O v  .-.-.;.;.;.2.7.q.5.=.] l o 8 V F D D H H F H D D D D F F F H H F F D F D D F F ",
"D H F F H H H F D S D D F F D D F S F F V N 8 z m ` +.;.;.;.2.7.0.1.} b k 4 B F F F D H D D F F H D D D D F H F D D D H D F F F ",
"D F F D D H F D S S F F F F D F F V F F F A V w * f ] -.;.;.2.7.9.<.< : N V S F D D D D D F D D H F A A F D F D D F F D F F H F ",
"F D F F H F J H F H F F F F F H F F H H F H F 9 o - R o.O.O.*.3.4.| O ; N G F F H D F H F F F D D D D D F H F D D F F F D D D F ",
"F D F H F F D D D F F D D S S H F H F D F H S e o % Y / ( ( ..&.>.{ & + M H F F D D D D D D D D D D D D D D A S D D F D D D D F ",
"F D D D F F F F F D F F H D D F D F F D D D D r @ % d W Q ~ ^ X.@.T O ; N F F F D A D D D H D A D H H D D D D D D D D H H F D F ",
"F D D S D D F F D D D F H F D D D D S D D D D V 9 5 p s L W ! E T c 6 M V D F D D S D D D D H D D H D D D H D D F D F H H F D F ",
"F D S S D F D D D D D D D D D H F F S S H D D S Z M , $ s I U a * 6 B S F D F F D D D D D D D D D D D D D H D D D F F D D D D F ",
"F D H H F D F S S F D A D F H J H F F F H F F F D V # . a P L t   2 Z H G F H G D A D D H H D D J D D D D D H D D H D D D D D F ",
"D D F F F H F D D F D D F D D F F F D D D D D H H V ; . a P L t   2 Z F F F F F D D D D D D H D H D H D D D D D D D A D D D F F ",
"F F F D D F F D D D D D D S A D F D S S F D F F H N # . a P L t   2 Z F F F F F H D D D D D D H D D D H D D D D D D D D D F F F ",
"F F D D D F H F D H D D F D S F F F D D D D D D F V # . a P L t   2 C S Z F F F D D H D D D D D H D D D D H D H F D D H F D F F ",
"F D F D S H H F F F D D F F D F H H F D D D F D H V ;   u U L t   2 C D S D D D D D H D D D D H F D D D D D D F F F F H F D F F ",
"D F F S V H F F D F F F F F F F D D F F F D H F H V 9 # p K d i # e A D D D D D H D D D D D D D D D D D V D F D F D F D D H H F ",
"V H F D D D D D F F H F D H H H F D F F D F J F D A V N 5 y i 7 N V D D H D D D H D D D D H D D F D F F F H D H H D D D D D F J ",
"F F F F F F H F F F H F D F F H F D F F D F F D D D D A e + # N D D H G D H D H H D J D S D D H F F F D F F D D D D F H F D D H ",
"F D F F D F F D D F H D A S F F D D D D D D A A A D D D V 9 r V D D H D D D D D H D H D D D D D D F D D F D D S D H F F D F H F ",
"F F H F D A D F S S D F S D D D S D D H F H S A D F H D A Z A D A D D G H D D D D D H D D D D D F F F D F F F D S F D D D F H F ",
"F S F F H V D D S A D D D F F D A D H H D J F D D F H F D D F F Z D G H D D A A D D J D D D D D D F F D F F D F F D F D D D D D ",
"F F S F F F F D S A F H D H H F D F D D D D D D D F F H D H H F D D D D D D A D H H D D H H D D V D F F F F D F F H D D D D D A ",
"H F V F F H F F F S F F F F H F F F F F D F F D F F D F D F F J F F F F F F D D F F F F F F F F F F H H F F D F F F F F F F D D ",
"F F F F F F F F F F F H F F F F D F F F F F F D D Z D D D F F F D F F F F F F F F F D H F F F H F F F F F F F D D D F F H F D F ",
"F F F F F S F F F F F F F F V H D D F F F F D A D A D F F F F F F D F F D F D D D F D F F D D F D D D F F F F F D D F D F F D F ",
"F H F F F F F F F F F D H F H H D D F F H F A D D F F H F F F F D F F D D D D F F D D D D D D D F F F D D F F F D F F F F D D F ",
"F F F F F F F F H F F D F F F D A D F F F D D F F D D F D D F F F F F F D V F F D D D D F D V F F H F F F D H F D F F D F F F F ",
"F F F F F F F F D V D F F F F F H F F F F F D F F F D F D F D F D F F D F D F F D F D D H V D F F F F F F F J F D F F F D F H F ",
"F F F F S S F F D D F H F F H F H F D D F F F D H H F D D D F D V D D F J D F H H H F H F D D F F D D F F F F F F F J F D F F F ",
"F F F F F V F H F F H F H F H D F F F F F F F D F F F F F F D D F D D F F F F F F F F F F D D F D D F D F F F F F F F D D D D F ",
"F F F F F F D H H F F F F F F F D D D D D F D D D D F D F F D D F F D F F F D D F V H F F F F D D F F F F F F F F F D F D F D F ",
"F D H H F V F H F F F F F D D D D A A F F H F F A A D F F F F D D F F F H F S D F F H F F F F V D D F F D H F F F F F F F D D F ",
"H F F D F F H F D F H F D F D V D F D F D D D F F D F J F F H F F F F F F D A S F F H F F F F D F D F F D F H J H D F F D D D F ",
"F F H J H F F F D F H F D F F F D F D F F F F F F D D F F F F F F S F S V F F F F F F F H H F F D D F D D D V D F F D H F D F J ",
"F F F F H V H H F D F F D F H F D D D F F D D F F F H F D D F D D F F F F D D D D F F F F F F H F D D D D F D D D F D H F F H F ",
"F F F F H V F F F F D F F F F H F D F F F D D D F F H D D F F D D D F F F F D D D F F F F F F H F F F D F F D D F F F H H H F F ",
"F F H H D D D F F D F F H H F F F D H H F D F D D D D D F F F F F F D D D D D D D D F F F V H F F F D F F J F D F H F D H H F F ",
"F F H F F F F H F F F H F F H F J F F D D A H F F H F F F F H F F H H F F D A S F F F F H H V F F F F D F F F F H J F F F H J J "
};
