/* XPM */
static char *out[] = {
/* columns rows colors chars-per-pixel */
"64 64 127 2 ",
"   c #0A0B0C",
".  c #18040B",
"X  c #1B0A09",
"o  c #110F12",
"O  c #1D0C14",
"+  c #121215",
"@  c #131518",
"#  c #191B1F",
"$  c #34080F",
"%  c #2D0715",
"&  c #2B0815",
"*  c #370819",
"=  c #23171C",
"-  c #3B1716",
";  c #1B1D21",
":  c #261B23",
">  c #2A1A24",
",  c #1E2126",
"<  c #202025",
"1  c #2B262A",
"2  c #25282E",
"3  c #3D2222",
"4  c #382C2F",
"5  c #2E2730",
"6  c #272B31",
"7  c #2A2D33",
"8  c #3E2433",
"9  c #322B34",
"0  c #3B2E31",
"q  c #2C3137",
"w  c #2E323A",
"e  c #34353D",
"r  c #530E07",
"t  c #45100B",
"y  c #440A1F",
"u  c #550D13",
"i  c #411917",
"p  c #4A1D1B",
"a  c #591812",
"s  c #64140B",
"d  c #69150D",
"f  c #72180F",
"g  c #7D1410",
"h  c #711910",
"j  c #420F23",
"k  c #5B0E2A",
"l  c #431024",
"z  c #4D1026",
"x  c #411B2C",
"c  c #481D2F",
"v  c #511129",
"b  c #4B1C30",
"n  c #531E35",
"m  c #5E1A35",
"M  c #630F2D",
"N  c #6E1536",
"B  c #691938",
"V  c #721537",
"C  c #7B1339",
"Z  c #7D1A3F",
"A  c #432333",
"S  c #363B43",
"D  c #393D46",
"F  c #3C424A",
"G  c #40444E",
"H  c #414750",
"J  c #454B56",
"K  c #474D59",
"L  c #484F5A",
"P  c #4C545F",
"I  c #4D5560",
"U  c #505763",
"Y  c #515964",
"T  c #555D68",
"R  c #8C170B",
"E  c #9C1A0C",
"W  c #A11B0D",
"Q  c #AF1E0E",
"!  c #B71F0E",
"~  c #A01A19",
"^  c #85143D",
"/  c #901539",
"(  c #AF1C27",
")  c #C6210F",
"_  c #C32110",
"`  c #CD2212",
"'  c #D12311",
"]  c #DA241D",
"[  c #DF2427",
"{  c #E52437",
"}  c #E3243B",
"|  c #8F1541",
" . c #821A41",
".. c #921643",
"X. c #9E1747",
"o. c #A31840",
"O. c #A5194B",
"+. c #AA194D",
"@. c #B61B53",
"#. c #BB1C55",
"$. c #CC1F43",
"%. c #C41E59",
"&. c #CD1E5D",
"*. c #EB2545",
"=. c #F12553",
"-. c #F5255B",
";. c #D51F61",
":. c #DD2164",
">. c #E32266",
",. c #E72269",
"<. c #EC236B",
"1. c #F92666",
"2. c #F4246E",
"3. c #FB266C",
"4. c #F62570",
"5. c #FE2674",
"6. c #FE2A75",
"7. c #FF2E78",
"8. c #FF3D80",
"9. c #FF4484",
"0. c #FF4C88",
"q. c #FF528C",
"w. c #FF5C91",
"e. c #FF6897",
"r. c #FF6C99",
"t. c #FF779F",
"y. c #FF7FA3",
/* pixels */
"I T L K I I T U I I P P Y T P J U I I I I T I I P I I F L I I I I P Y T I I Y U I Y I I K K P F I K P P I I I I K K P T I P I T ",
"I U P P I U I P I I P P I I P P P P P P I U I I I P I I I L I I I L L L Y I I U Y Y U I I I P P I I P P I I I P P K K I P P K I ",
"P I I P P U P P P P P P P K P P L P I I I I L P I I I U P I I U L I P L U I I I I U I I I I P P I P P P I I P P P P K P P P P P ",
"P I I I P P I P P P P P K P P P K I I I P P K P I P I U I I I U K L P I I I U I P P P I I P P P I P P P I P P P I I I I I I P I ",
"I P I I I P P U U P P P P U P P P U I P P P P U I P I I I I U I I I I I I I U U P P J K I I P P I P K K P I P P I Y I P I Y Y I ",
"I P Y Y P J P U U P P P P P I U P P I I I P I P I P I U I L F I U I U U I I I I P I I I I I P I J P P I P P K K I P P P P I I Y ",
"K P U Y P P P P P P P J P P I I P L L I I U I K K I I I I P P P I I I I I I I I P P P P I I P P P P P P I I P K K P I P I Y Y I ",
"P U U I I P P U U P P P P P P U P P P P P I I L L I I I K P P P I I I I L J I I I I I I P P P P I P P P K I P P P I P K P I I Y ",
"P Y P P P Y P Y U P I I P P I U I P I P I U I P P I U I L L P I U P P I I K P P P I I I I I I I Y I P P K I I I P P I P I P P Y ",
"P Y P P P T P P I I Y P P P P I P P I I I Y P P P I P I I I P I I I I P P P P P P I I P I I I P I I I I I I Y I P P T Y I P P I ",
"P Y Y P P Y P Y U I I P P P K I P I K K I I I K K L F I Y U I P I I I P I P K K I I I I P I I P I I P P I I I I P I I I P P P I ",
"P T P P P T P P P P P P P P P I P P P P I Y I P P I P I I I I I I P P I P I P I P I P P P P I I I I P I I Y I P I P P Y I P P I ",
"Y Y P P K P P P P P T P P I P I Y I I I I Y I P I I I I I I I I P I P I I U P K K I I I I K K I P I I P K I I I P K I I I I I Y ",
"P P P P K P P P I Y I I P I P U U Y I P I I L L I I I U I I P I I I P P I I I P K I I I I P K P P I I P K I I I P K P P P I I I ",
"P P Y P P P K P P I I T I I I U I Y I I P I K P I Y L Y U I I U I I K K I P I I I P P P K I I P I I I P I I I I P P I P I I I I ",
"P T Y P P P P P P K I P I I P P P I U U P P I I I I F I P I I I I U Y I I I I P I I P I K K I I Y I P P I Y I I P I I I I I P P ",
"T P Y Y Y P P P P P P Y P Y Y I I Y I I P I P P P P P I I U Y I I I I I I Y L L I I U I P P I I I I P P K P P Y Y I Y I P I P K ",
"P P P Y Y P L P P P P I I P P I Y I I P P K P L L P I U I I I I I I Y I I I P P I U I U U I I P I I P P P P I I I I I P P P P P ",
"Y P P P Y P P P P P P P P P P I Y I I I P P P J J J H J L J J P I L L L L L J J K I P I U I I P I P P P P I I I I I I K K P P P ",
"P P P P P P P P P P P P I P I P P P I I P P P F w 5 2 5 6 6 S D I D q 6 7 7 2 5 S F I I P I U I P P I I P I P I I I I K P P P P ",
"P P P Y Y P Y Y P P J P Y I P P P P I P P I P q o           : S K 7 +           , S P P I I I P P P I I I I I I I P I I P P P K ",
"P P P P P P Y P P P P P P P P P J P P P J F S 0 j j j j j j l S S 8 j j j j j j 8 S S H P U Y P K P P P I Y Y I I I T I P P P P ",
"P P P P Y P P P P P J P P P P P L I P I H q : m X.O.+.O.+.+.^ x : m X.+.+.O.+.+.Z x ; S U Y I P P P P P I I I I I I Y I P I P I ",
"P Y Y P I P P P P P P P I P P I I U L J S : & ^ ;.5.5.5.5.5.#.M % | >.5.6.5.5.4.@.k O 5 F P P U P I I P I I P P P I Y I I I P P ",
"P Y I Y Y P P P P P I I P P P P P P D 7 8 m ^ #.<.5.5.5.5.5.;.X.^ @.2.7.9.0.8.6.;.X.V b 9 S F U I I I P I Y K P P I I P I I I I ",
"Y P P Y P P J P P P I I P P P P I K e @ j ..;.<.5.5.5.5.5.5.4.,.>.<.5.8.w.r.0.6.2.,.%.V O < D I I P P I I Y K P P P I P I I P P ",
"P J P P P P P P I P I P P P P P I K 7   y +.5.5.5.5.5.5.8.5.5.5.5.8.8.q.e.y.q.7.5.5.:.C . ; D I I P I P I I I P P I Y P P P P J ",
"P P P P Y P I Y I I Y I P I I Y I K 7   j +.5.5.5.5.5.5.5.5.5.5.6.9.q.e.t.y.q.7.5.5.,.C . ; D I I I I I I I I I I Y I J K P P P ",
"P Y P P T P Y P P I I P P P I I I L q   y +.5.5.5.5.5.5.5.5.5.5.6.q.t.y.y.t.0.6.5.5.:.C o # D P I I I I I I Y I P I P I I I P I ",
"P Y Y P Y Y Y Y P P P P Y I P I P J 7   y +.5.5.5.5.5.5.5.5.5.5.6.0.y.y.y.t.q.7.5.5.,.C o # D I I I P K I I Y I P P I Y I I I I ",
"P Y P P P Y P P P L P I P I P P P F 7   y +.5.5.5.5.5.5.5.5.5.5.8.0.y.y.y.y.q.7.8.5.,.C . ; D I I I K P I I I P I I I P I I Y I ",
"P P P Y Y P T Y P Y P P I P I Y P L S , 3  .#.;.4.5.5.5.5.5.5.5.6.8.w.e.e.w.0.6.,.&.O.m : 2 D P I P P P I I I P P I I I P P P I ",
"I P I I I I P P I P P P P P L Y P Y F F A c M +.,.5.5.5.5.5.5.5.6.8.8.9.9.8.8.5.&.^ v A e F K P I I P P P I J L I P I P P I I I ",
"I P P P I P Y P I P I Y Y P P I P P P P F < O V &.2.2.3.3.3.3.5.5.5.5.5.6.5.4.<.O.z + 7 K I P J P I I P P I P P P P P T I I P I ",
"I P P K P P P P P P P P I I P P P P L L J w 5 n C o.$.*.*.*.=.1.5.5.5.5.5.2.%...B x 6 S K I I P P I I I I I P P I P I I I I P I ",
"I P L P P I P P P P P P P P I P Y I P L P K F 5 = u ~ ] ] ] { =.5.5.5.5.5.,...* > e J P P I P P I I P P I I I I I I I P I P P P ",
"I P T Y I P I P P P P J P I T T Y I I I U I P e ; - h W ! ' [ *.-.1.5.<.&.+.B : 2 S P P I I I P T I I I P P P P I I P P P P P I ",
"P P P P I Y I P P P P P P P P P P P P P I P P J D 4 i r R ) ] [ { =.3.&. .v x S F K P P I I I I I P I I P P I I I P J P I P I I ",
"P Y I P P I P P P P P I P L K P P P P J P P P I I D ; X s Q ` ' ] } >.O.v o 7 K I I P P P I I I I I I I I I P I P I P P P I I I ",
"P I P P P P Y Y P Y P P P P P I I Y P P I P P I I G e 1 p d R ! ` ( / N 8 6 D L I I I I P P I P I I P P P I P I I P I I I I I I ",
"I P P P P P Y P I I P P I I P I Y Y I P I P Y P I P K F 6 O r E _ g $ > e H L P P P U I P I P I I I P P K I I I I I I Y I I I I ",
"P I P P J P P P P P I I I I I I P P P P P P Y I I Y I K S ; - f R a = 2 F I I I P P P P I I P P I P I L J P P I I P I P P I T I ",
"J I I P P P P P I I Y P P Y T Y P P I Y P P Y Y I I I P F S 9 - t 3 e D K P I I I I P I I I P P P P I I I I I I I I P I P P I T ",
"P P P P I P Y Y P I T I P I I I I P I I P I I P P I I I I I F , o 7 L U I I I Y Y I Y I K P P I I I I P P I I I I I I I I P P I ",
"P P I P P P P P P P I I L L P I I P P P P P K K K P P I P P F S 7 S L I I P I I I I U I P P P P I I P P I P P L L I I I P I Y I ",
"I P Y Y P P P P P L P I L P P P P P I I I Y L L P I I I P P P K G K I U I I L P I I I P P P P I P I I I I I I L P I I P I I I I ",
"P P I P P J P P L J P I P P P P J P Y Y P T P P P I T I I I I I K P U U I P J L I I T I I I I P P I I P I I I I I I P P P P I P ",
"I I P P P P I P P J I Y P Y T P I P P P P P P P P I I I I I Y I P P I I P P J P I I I P U U P P J L P I I I I I I I I I I P P J ",
"Y P P J P Y I P P P I I P I Y P I I I I I I I P I P I I I P I T I I I P I I P P I I I I I I I I P P U Y I I I I I I I I I I P P ",
"I P P P P Y Y P P P Y Y I I I P P I I P I I I P P J P P P I I I P I I Y I I I P I I I Y I P I Y I P I I I I I P P P I I Y I P I ",
"I Y P P P P I I P P Y I I P P I P P I I I I P K P K P I I I I I I P I I P I I P P I P I I P I Y P P I I P I I I P P I P I I P I ",
"P Y I I I P P I Y P P P Y Y I P P P P Y Y I K P P I I Y I I I I P I I I I L P I P P P P P P L I I I I P P I I I P I I I I P P I ",
"P Y I I Y P P Y I P P P P I Y P K P P I I P P I I P P I P P I I I I I I P F I I I P P P I F L I I Y I I I P T I P I I P I I I I ",
"P P I Y I P P P P J I I P P P P Y I I I I I P I I I P I P I P I P I P P I I I I P I P P I L L I I I I I I I Y I P I I I P I Y I ",
"Y I P I P J P P P P I Y I I Y I Y I P P I I I P Y Y I P P I P P K L I I Y I I Y Y Y I Y I L L I I P P I I I I I I I T I P I I I ",
"I P I P P P P P I P I I Y Y Y I I I I I I I I P I I I I I I P P P P P I I I I I I I I I I I I I P P P I I I I I I P I P P P P I ",
"I I I I P P P Y Y P Y P I I Y P P P P P I I P P P P I P I I P P P P P I I I P P L I I L I I I I P P I I I I I I Y P I I P I P I ",
"I P Y Y P J P I I I I P P P P P P K K I I I I I K K P I I I I P P I P I Y I P P I I I I I I I F P I I I I U I I I I I I I P P I ",
"Y I I P I I Y Y P I Y I P I P F P I P I I P I P I P I T I I Y I P I I I I I F I I I T I I I I I I P I I P I Y T Y P I I P P P I ",
"P Y Y Y T P I P P I T P P I I I P I P I I I I I I P P I I I I I I P P L F I I I I I I I I Y I I P P P I P P F P I I I I I P I T ",
"I I I I I L P I I P I P I I I Y P P P I I I P I I I Y I P P I P P I I I I P I P L I I I I I I Y I P P I I I P P I I I Y I I Y Y ",
"I P I I P K P P I P I I I I I I I P I I P P P P I I Y P P I I P P P I I I I P P I I I I I I I Y I I P P I Y P P I I I I I Y I I ",
"P P Y Y P P I I I P I Y Y Y I I I I I Y I P I P P P P P I I I I I I P P P P P P I I I I I I I I I I P I I Y I I I Y I P Y Y I I ",
"I I Y Y P I I Y I I I Y I I Y I T I I I P K Y I I Y I I I I Y I I Y Y I I P K K I I I Y Y F F I I I I P I I I I I T I I I Y T T "
};
