/* XPM */
static char *out[] = {
/* columns rows colors chars-per-pixel */
"64 64 136 2 ",
"   c #1C0402",
".  c #17040B",
"X  c #1F0908",
"o  c #180F15",
"O  c #0F1012",
"+  c #121215",
"@  c #141619",
"#  c #1E131A",
"$  c #17191D",
"%  c #191B1E",
"&  c #21050F",
"*  c #280B0B",
"=  c #3B0A04",
"-  c #250611",
";  c #200E16",
":  c #290B17",
">  c #2F0918",
",  c #340A1A",
"<  c #3A0D1E",
"1  c #22151D",
"2  c #321716",
"3  c #1A1C20",
"4  c #2E1F2A",
"5  c #361B28",
"6  c #3F1E2E",
"7  c #2E2426",
"8  c #22252A",
"9  c #25292E",
"0  c #302427",
"q  c #31242E",
"w  c #262A30",
"e  c #2B2D34",
"r  c #3A2230",
"t  c #322C35",
"y  c #3C2C35",
"u  c #322F38",
"i  c #2C3036",
"p  c #2E333A",
"a  c #383237",
"s  c #32343C",
"d  c #3A333E",
"f  c #33383F",
"g  c #4A0C0F",
"h  c #45100B",
"j  c #4F1B18",
"k  c #6C140B",
"l  c #72140B",
"z  c #621811",
"x  c #6A1911",
"c  c #4B0E24",
"v  c #560D27",
"b  c #4E182E",
"n  c #55122C",
"m  c #59132D",
"M  c #5A1A34",
"N  c #6B1028",
"B  c #641533",
"V  c #691736",
"C  c #621A36",
"Z  c #6A1B3A",
"A  c #761236",
"S  c #791237",
"D  c #7C1238",
"F  c #70193A",
"G  c #402120",
"H  c #442434",
"J  c #4A2235",
"K  c #363740",
"L  c #3A3640",
"P  c #353A42",
"I  c #393D46",
"U  c #3A3F48",
"Y  c #3D434B",
"T  c #414751",
"R  c #454B56",
"E  c #474D59",
"W  c #484F5A",
"Q  c #4C545F",
"!  c #4D5561",
"~  c #505763",
"^  c #515964",
"/  c #555D68",
"(  c #85160A",
")  c #8E190D",
"_  c #921810",
"`  c #AB1C0D",
"'  c #B71F10",
"]  c #85153D",
"[  c #8A153F",
"{  c #991833",
"}  c #A51A2D",
"|  c #B91E21",
" . c #C52111",
".. c #CD2212",
"X. c #D62315",
"o. c #DC2432",
"O. c #E42432",
"+. c #8B1540",
"@. c #921642",
"#. c #9A1746",
"$. c #921945",
"%. c #9B1B49",
"&. c #A11A4A",
"*. c #A91B4E",
"=. c #AE1C51",
"-. c #B31B52",
";. c #BA1C55",
":. c #C41D55",
">. c #CB1E5C",
",. c #DB2157",
"<. c #E52457",
"1. c #F3255A",
"2. c #ED3050",
"3. c #D51F61",
"4. c #DD2164",
"5. c #E12166",
"6. c #E42268",
"7. c #EB236B",
"8. c #F2246E",
"9. c #FF2674",
"0. c #FE2976",
"q. c #FF2E78",
"w. c #F83E71",
"e. c #FF347C",
"r. c #FF3E81",
"t. c #FF4383",
"y. c #FF4886",
"u. c #FF4E89",
"i. c #FF538B",
"p. c #FE598C",
"a. c #FF5D91",
"s. c #FF6596",
"d. c #FF6C99",
"f. c #FF739D",
"g. c #FF7BA2",
"h. c #FF80A4",
/* pixels */
"! / W E ! ! / ~ ! ! Q Q / ~ Q E ^ Q Q ~ Q / Q Q Q Q ! E Q Q Q Q ! Q ~ ^ Q Q / ~ ! ^ ! ! E W W R Q E W ! ! ! ! ! E Y ! / ~ ! ! / ",
"! ~ Q Q ! ~ ! Q ! ! Q Q Q ! Q Q Q Q Q Q Q ^ Q Q ^ Q Q Q Q Q Q Q ! Q E Q / Q Q Q ^ / ! ! ! ! Q Q Q Q W Q ! ! ! ! ! ! Y ! ! W E ~ ",
"Q ! ! Q Q ~ Q Q Q Q Q Q Q W Q Q W Q Q ~ Q ^ Q Q Q Q Q Q Q Q Q Q Q Q Q E ^ Q ~ Q ! ! ! Q ! ! Q Q ! ! ! ! ! ! ! W ! ! E ! ! W ! ! ",
"Q ! ! ! Q Q ! Q Q Q Q Q E Q Q Q W Q Q ^ Q Q E Q ! Q Q ^ ^ ! Q ! E Q Q Q Q ^ ^ Q Q Q Q Q Q Q Q ! ~ ! W Q ! ! ! ! ! ! ! ! ! ! ! ! ",
"! Q ! ! ! Q Q ~ ~ Q Q Q Q ~ Q Q Q ^ Q Q Q Q Q ~ ^ Q Q Q ^ ^ Q Q ! Q ! Q Q ^ ^ ^ Q Q R Q Q Q Q ! ! Q E Y ! ! ! ! ! ~ ! ! ! ~ ^ ! ",
"! Q ^ ^ Q R Q ~ ~ Q Q Q Q Q Q ^ Q Q Q Q ~ Q Q Q Q Q Q / Q E R Q / Q ^ / ! Q Q Q Q ! ! Q ^ ^ Q Q Y Q Q ! ! ! E E ! ! ! ! ! ! ! ^ ",
"E Q ~ ^ Q Q Q Q Q Q Q R Q Q ! Q Q W W ~ Q ^ Q W Q Q Q Q Q Q Q Q Q Q ! Q Q Q ^ Q Q Q Q Q Q ! Q Q ! ! ! Q ! ! ! E Y ^ ! ! ! ~ ^ ! ",
"Q ~ ~ ! ! Q Q ~ ~ Q Q Q Q Q ! ~ Q Q Q Q Q Q Q Q Q Q Q Q Q Q Q Q ^ Q Q Q Q W Q Q Q Q ^ ! Q Q Q Q ~ ! ! ! E ! ! E ! ! ! Y ! ! ! ^ ",
"Q / Q ^ Q ^ Q ^ ~ Q ! ! Q Q ! ^ ! Q ! ~ Q ~ Q Q Q ! ! Q Q Q Q ! ! Q Q ! Q W Q Q Q Q ^ Q ! ! Q ! ! ! ! E E ! ! ! ! ! ^ ! ! ! W ! ",
"Q Q Q Q Q / Q Q ! ! ^ Q Q Q Q Q Q Q ! Q ~ ^ Q Q Q Q Q Q Q ! Q Q Q Q ! Q Q Q Q Q Q ! Q Q ! ^ ! Q ! ! ! ! ! ! ^ ! ! ! ^ ^ ! ! ! ! ",
"Q / Q Q Q Q Q ^ ~ ! ! Q Q W E ^ Q ! E E Q Q Q E Q Q R Q ~ ~ ! Q ! ^ ^ Q Q Q E W ! ^ ! Q Q ! ! ! ^ ! Q Q ! ! ! ! ! ! ! ! W ! ! ! ",
"Q ^ ^ Q Q / Q Q Q Q Q Q Q Q Q Q Q Q Q Q Q / ~ Q Q Q Q Q Q ! ! ! Q Q Q Q Q Q Q Q Q ! Q Q Q Q ! Q ! ! ! ! ! ^ ! ! W ! ! ! ! ! ! ! ",
"^ ^ Q Q E Q Q Q Q ! ^ Q ! ! Q ! ^ ~ Q Q ! ^ Q Q Q ~ Q Q Q ! ! Q Q ! Q Q ! ^ Q Q W Q ~ ! Q Q W Q ! ! ! Q E ! ! ! ! Y ! ! ! ! ! ! ",
"Q Q Q Q E Q Q Q ! ! ^ ^ ! ! Q ^ ~ ^ ~ Q Q Q E Q Q ! Q ~ ! ! Q ~ Q ^ Q Q ! ! ! Q Q Q ! Q Q Q W Q ! ! ! Q E ! ! ! ! E ! E ! ! ! ! ",
"Q Q ^ Q Q Q E Q Q ! ! / ! ! Q ^ ! ^ ~ ! ! Q Q Q Q Q Q ~ ^ ! Q ~ Q Q Q W Q Q ^ Q Q Q Q ! Q Q Q Q ! Q Q Q ! ! ! ! ! ! ! ! ! ! ! ! ",
"Q / / Q Q Q Q Q Q E Q ! ! Q Q Q Q Q ~ ! ! Q Q Q Q Q E Q Q ! ! Q Q / ! Q ! ! Q Q Q Q Q Q E W Q Q ! ! ! Q ! ^ ! ! ! ! ! ! ! ! ! ! ",
"/ Q Q / Q Q Q Q Q Q Q ^ Q ^ / Q Q ! ! ! Q Q Q Q Q Q Q Q Q ~ / Q ! ! ! ! ! ^ R E ! ! ~ ! Q Q ! ! ! ! ! Q Y ^ ! ^ ^ ! ! ! ! ! E E ",
"Q Q Q ^ / Q W Q ! Q Q ! ! Q ! ! / ^ ! ! Q E Q W E Q Q ~ Q ~ ! Q ! ! ~ ! ! ! ! Q ! ~ ! ~ ~ ! ! Q ! ! Q ! Q Q ! ^ ! ! ! ! ! ! Q Q ",
"Q Q Q Q ^ Q W Q Q Q ! Q Q Q Q ! Q Q ! ! Q W Q Q Q Q W ! ! Q W Q ! ! ! ! ! ! ! Q ! ! Q ! ~ ! ! Q ! Q Q Q Q ! ! ! ! ! ! E Q Q Q ! ",
"Q Q Q ^ ^ Q Q Q Q Q Q Q ! Q ! Q Q Q ! ! Q Q Q Q Q Q E Q Q Q E Q ! ! ! ! ! ! Q ! Q Q ! Q ! ! ~ ! Q Q ! ! Q ! Q ! ! ! ! E E ! Q E ",
"Q E Q / ^ Q ^ Q Q Q Y Q ! ^ Q Q Q Q Q Q Q Q ! Q Q Q Q Q ~ Q Q Q ! ! ! ! ! ! E W Q ! ! ! Q ! ! Q Q Q ! ! ! ! ! ! ! Q ! ! ! Q Q Y ",
"Q Q Q Q Q Q ^ ! Q Q ! ! Q Q Q Q R Q Q Q ! Q W Y U U Y P U Y R Q R U P U U U U U R Q Y Q ! ~ ^ Q E E Q Q ! ^ ^ ! ! ! / ! ! Q ! ! ",
"! ! Q Q Q ^ Q Q Q Q E Q Q Q Q Q Q Q Q Q ~ Q Y 9 $ $ % @ $ 8 I ~ I 9 3 3 3 3 3 8 U Q E Q ^ ^ ! Q Q ! Q Q ! ! ! ! ! ! ^ ! Q ! ! ! ",
"Q ^ ! Q ^ Q Q Q Q Q Q Q Q Q Q ! Q ~ Q E Q E s % . . . . . # t R u 3 . . . . . # u Y E Q ~ ~ ! Q ! ! ! Q ! ! Q Q Q ! ^ ! ! ! ! ! ",
"Q ^ ^ ! ^ Q Q Q Q Q Q Q Q W Q ^ Q ~ Q R U e H V A A A A S V J t J V S S S S S V J e I E ~ ~ Q Q Q ! ! Q ! ^ E Q Q ! ^ ! ! ! ! ! ",
"! Q ^ ^ Q Q E Q Q Q Q ^ Q Q Q Q Q ! Q T w o n *.4.4.4.4.4.;.B ; n =.5.3.3.5.4.-.B o 8 U Q ! ! Q ! Q Q ! ! ^ E Q Q Q ! ! ! ! Q Q ",
"Q E W Q Q Q Q Q ! Q ! Q Q Q Q Q Q Q Y d r c ] >.9.9.0.9.9.4.@.v +.3.9.9.9.9.0.3.@.c 6 L U E ~ ! ! ! ! Q ! ! Q Q Q ! ^ ! Q Q Q R ",
"Q Q Q Q ^ Q ^ ! ! Q ^ ! Q ! Q ^ Q T w 0 Z &.>.7.9.9.9.9.9.8.>.=.>.7.9.9.9.9.0.8.>.*.F 5 w U Q ! ^ Q Q ! ^ Q ! Q ! ^ Q Y Q Q Q Q ",
"Q ^ Q ^ ^ Q / Q ! Q ! Q Q Q Q ^ Q Y @ - [ 7.9.9.9.9.9.9.9.9.9.9.9.q.q.q.q.q.9.9.9.7.#., O p Q Q Q ! Q ! ! ! ^ ^ ! ! ! ! Q Q Q ! ",
"Q ^ ! Q ^ ^ ^ ! Q Q Q Q ^ ! Q Q Q f @ - [ 7.9.9.9.9.9.9.9.9.9.9.e.y.u.u.u.r.q.9.9.8.#., O P Q Q ! ! Q Q Q ! ^ ! Q Q Q ^ Q ! ! ! ",
"Q ^ Q Q Q ^ Q Q W E Q ! ! ! Q Q Q f + - [ 7.9.9.9.9.9.9.9.9.9.9.t.a.g.f.d.i.r.9.9.8.$.> O p Q Q ^ Q E E Q ! ! Q Q ! Q Q ! ! ^ ! ",
"Q Q Q ^ ^ ! / ^ ! / Q Q Q Q ^ ^ Q Y @ & [ 7.9.9.9.9.9.9.9.9.9.q.y.d.h.h.g.a.e.9.9.8.%.: O p Q Q Q Q Q Q ! ^ ! Q Q ! ! ! ! Q Q ! ",
"! Q ! ! ! ! Q Q ! ! ! ! Q W E ^ ! Y @ - [ 8.9.9.9.9.9.9.9.9.9.0.y.d.h.h.g.a.r.9.9.8.#., O p W ! ! ! ! ! ! ! Y E ! ! ! ! ! ! ! ! ",
"! ! ! Q ! ! ! ! Q Q ! ! ^ ! Q ! ! U 3 : ] 3.7.9.9.9.9.9.9.9.9.0.y.d.g.g.g.p.e.9.8.3.$., @ K ! R ! ! ! ! ! ! ! ! ! ! ! ^ ! ! ! ! ",
"Q Q Q W Q ! ! ! Q Q Q ! ! ! Q Q Q Y p q M +.-.5.9.9.9.9.9.9.9.0.y.d.g.s.i.t.q.6.;.+.C r e Y ! E ! ! ! W ! ! ! E ! ! ! ! ! ! ! ! ",
"! Q W W Q ! Q Q Q ! Q Q Q ! ! ! ! Q Y I q : V >.9.9.9.9.9.9.9.0.y.d.f.i.r.q.9.3.D > 4 I R W ! ! ! ! ! ! ! ! ! ! ! ! ! E ! ! E ! ",
"! Q ^ ^ ! Q ! E E ! Q R Q ! ^ / ~ ! ! R f 3 b $.:.,.1.1.1.1.1.1.w.p.a.r.9.6.>.%.m 3 e R ! ! ! ! ^ ! ! ! ! ! ! ! ~ ^ ! ! ! ! ! ! ",
"! Q ! ! ! ^ ! Q Q Q Q Q Q Q ! ! ! ! ! W Y K H b N } o.O.O.O.O.O.2.w.r.e.8.;.S n y P U W ! ! ! ! ! ! ! ! W ! ! ! ! ! Y ! ! E ! ! ",
"! ! ! Q Q ! ! Q ! ! ! ! Q W E ! ! ! W E Q W P 3 * l '  . . ...X.o.<.7.7.5.$.< @ p E W ! ! ! ! ! ! ! ! ! ! ! ! ! ! ! Y ^ ! ! ! ! ",
"! ! Q Q ! ! ! ! ! ! Q Q ! Q W ! ! ~ ! W Q Q Y p 7 j k l l ( ` ..| { ] ] ] C r i Y ! ! ! ! W ! W ! ! W ! ! ! W ! ! ! ! ! ! ! ! ! ",
"! Q ! Q E ! ^ ^ ! ! Q Q ! ! ! ! ! ^ ! Q ! Q W E Y 8 O     = (  ._ g X - o 4 L E W ! ! ! ! ! ! ! ! ! ! Q E Q ! ! ! ! ! ~ ! ! ! ! ",
"Q ! ! W Y ^ ! ! ! ! ! ! ! ! ! ! ! ! ! ! Q Q ~ ! E p 3 @ @ 1 z ) x 2 @ @ $ e Y ! ! ! ! ! ! ! ! ! ! Q Q E Y Q Q ! ! ! ! E ! ! ^ ! ",
"Y ! ! ! Q ! ! Q ! ! ~ ! Q ! / ^ ! Q ! ! Q Q ^ ^ E Y Y P f a G h j t P P P Y E ! ! ! Q Q ! ! ! W Q Q ! ! ^ ~ ! ! ! ! ! ! ! ! ! / ",
"! ! ! ! ! ! ! ! ! ! ^ Q Q ! ! ! ! Q ! ! ! ! ! ! Q Q Q Q Q Y 9 + 8 Y ! ! ! ! ! ^ ~ ! ~ ! E E ! ! ! ! ! ! ! ! ! ! ! ! ! ! ! ! ! ! ",
"! ! ! ! Q ! ! Q ! ! ! ! E W ! ! Q ! ! ! Q ! E R Q Q Q Q Q Y Y w P Y ! ! ! ! ! ! ! ! ! ! W ! Q ! ! ! Q Q ! ! Q E E ! ! ! ! ! ^ ! ",
"! ! ! ! ! E Q Q Q W ! ! W W Q ! W Q ! ! ! ! W W Q ! ! Q ! Q E E Y ! ! ! ! ! E ! ! ! ! ! ! ! Q ! ! ! ! Q ! ! ! E ! ! ! ! E ! ~ ! ",
"! W ! Q ! Y Q Q W E ! ! ! ! ! Q E Q ! ^ Q / ! ! Q ! ^ ! Q ! ! ! E ! ! ! ! ! Y E ! ! / ! ! ! ! ! E ! ! Q Q ! ! ! ! ! ! E ! ! ! ! ",
"! ! ! ! ! ! ! ! ! Y ! ^ ! ! ^ Q ! ! Q Q Q Q Q Q Q ! ! ^ Q ^ ^ Q ! ! ! ! ! ! E ! ! ! ! ! ! ! ! ! Y Q ! ! ! ! ! ! ! ~ ! ! ! ! ! Y ",
"^ ! Y ! ! ! ! ! ! ! ! ! ! ! ! ! ! ! ! ! ! ^ Q Q Q Q Q Q ! Q ! / Q Q Q Q Q Q Q Q Q Q Q Q ! ! Q Q ^ ! ! ^ ! ! ! ! ! ! Q ^ ! Q Q Q ",
"! ! ! ! ! ! ! ! ! ! ! ^ ! ! ! ! Q ! ! Q Q Q Q Q Q E Q Q Q ! ^ ! Q Q ^ ^ ! ^ Q Q ! ^ ! ^ ! Q ! ^ ~ ! ! ! ! ! Q Q Q Q ! ! ^ ! Q ! ",
"! ! ! W ! E ! ! ! ! ! ! ! ! ! ! Q Q Q ! ! ! Q Q Q Q Q ^ ! ! ! ! Q Q Q ^ Q ^ Q Q Q ! Q ^ ! Q Q ^ Q Q ! ! Q ! ! ! Q Q ! Q ! ! Q ! ",
"! ^ ! ! ! ! ! ! ! W ! ! ! ! ! ! Q Q Q ^ ^ ! E Q Q Q Q ^ ! Q Q ^ Q ! Q Q Q Q Q Q Q Q Q Q Q Q Q Q ! ! ! ! ! Q ! ! Q ! ! ! ! Q Q ! ",
"! ! ! ! ^ ! ! ! ^ ! ! ! ! ! ! ! E Q Q ! ! Q Q Q Q Q Q ! Q Q Q ! ! ^ ! ! Q E Q Q Q Q Q Q Q E E Q ! ^ ! ! ! Q ^ ^ Q ! ^ ! ! ! ! ! ",
"! ! ! ! ! ! ! ! ! Y ! ! ! ! ! ! / ! ! ! Q ! Q ^ ! Q Q Q Q ! Q ! Q Q Q Q ! Q Q Q ! ! Q Q Q Q Y ^ ! ! ! ! ! ! ^ ~ Q Q Q ! Q ! ^ Q ",
"! ! ! ! ! Y ! ! ! Y ! ^ ! ^ ! ! ^ ! Q Q ! ^ ! Q ^ ^ ! ! Q Q ! ! E Q Q ^ ^ Q Q ^ ^ ^ ! / Q Q Q Q ! Q Q ! ! ! ! ! Q ! ^ ! Q ! ! ! ",
"! ! ! ! E E ! / ^ ^ ! ^ ! ! ! ! ! ! ! Q Q ! ! Q Q ! ! ! ! ! Q Q Q Q Q Q ^ ! Q ! ^ ! Q ! Q Q Q Q Q Q Q Q ! ! ! ! ! ! ^ Q Q ! Q ! ",
"! ! ! ! ! ! ! ^ ^ ! ! ! ! ! ! ! Q Q Q Q Q Q Q Q Q Q Q Q ! ! Q Q Q Q Q Q ^ Q Q Q Q Q Q Q ! Q Q Q Q Q Q ! Q ! Q ^ ^ Q Q ! Q Q Q ! ",
"! ! ^ ^ ! Y Q ~ ! ! ! ! ! ! Q ! Q E Q Q Q ^ ! Q Q E Q ! ! ! ! Q Q Q Q ^ ^ Q Q Q Q Q ! Q ! ! Q E Q Q ! ^ Q ^ Q Q ! Q Q ^ ! Q Q ! ",
"^ ! ! ! ! ! ^ ! ! ! ^ ! ! ! Y E ! ! Q ! Q Q Q Q Q Q ! / ! ^ ^ ! Q Q Q Q ! Q E E Q ^ / ! ^ ^ Q Q ! Q ! ! Q ! Q ^ ^ Q ! Q Q Q Q ! ",
"! ~ ^ ^ ^ ! ! ! ! ! ^ ! ! ! ! ~ Q Q Q ! ^ Q Q ^ ! Q Q ! Q ! ! ! Q Q Q Q E ! Q Q Q ! ! ! ^ ^ Q Q ! Q Q Q Q Q E Q ! ! ! ^ ! Q ! / ",
"! ! ! ! ^ Y ^ ~ ! ! ! ! ! ! ! ! Q Q Q Q ! Q Q Q Q ! ^ ! Q Q ! Q Q ! ! ! Q Q Q Q Q ! ^ Q ! ! ! ^ ! Q Q Q Q Q Q Q Q Q Q / ^ Q ^ ^ ",
"! Q ! ! ~ Y ! ~ ! ! ! ! ! ! ! ! Q Q ^ ! ! ! Q Q Q ! ^ Q Q ! ! Q Q Q ! ! Q Q Q Q Q ! ! Q Q Q Q ^ ! ! ! Q Q ^ Q Q Q ^ Q ^ ^ ^ ! Q ",
"! ! ^ ^ Q Q ! ! ! Q ! ! ^ ^ ! ! ! Q ^ ^ ! Q ! Q Q Q Q Q ! ! ! ! ! ! Q Q Q Q Q Q Q Q Q Q ! Q Q Q ^ Q Q ! ^ ^ Q Q ^ ^ ! Q ^ ^ Q ^ ",
"! ! ! ^ ! ! ! ! ! ! ! ^ ! ~ ^ ! / ! Q Q Q E ^ ! ! ^ ! ! ! ! ^ ! ! ^ ^ ! ! Q E E Q ! Q Q Q Q E Q ! ! ! Q ^ Q Q Q ^ / Q Q Q ^ / / "
};
