/* XPM */
static char *out[] = {
/* columns rows colors chars-per-pixel */
"64 64 123 2 ",
"   c #0A070A",
".  c #0A0B0C",
"X  c #1C0402",
"o  c #16040B",
"O  c #0E0F11",
"+  c #100F11",
"@  c #1B0C13",
"#  c #111215",
"$  c #141619",
"%  c #21050F",
"&  c #3E0E0C",
"*  c #2D0715",
"=  c #230C15",
"-  c #360819",
";  c #221618",
":  c #3B1715",
">  c #1B1D21",
",  c #261A22",
"<  c #291C25",
"1  c #1F2125",
"2  c #1F2328",
"3  c #23262B",
"4  c #2D262E",
"5  c #24282D",
"6  c #3B2222",
"7  c #272B31",
"8  c #292D33",
"9  c #322731",
"0  c #3E2433",
"q  c #302B34",
"w  c #3B2E31",
"e  c #3C2D3A",
"r  c #2C3036",
"t  c #33363C",
"y  c #530E0A",
"u  c #45100B",
"i  c #440A1F",
"p  c #411917",
"a  c #591913",
"s  c #721309",
"d  c #72180F",
"f  c #450D22",
"g  c #540C26",
"h  c #5D0E2B",
"j  c #421B2C",
"k  c #491B2F",
"l  c #511129",
"z  c #4C1F33",
"x  c #531E35",
"c  c #5F1A35",
"v  c #650F2E",
"b  c #7C1329",
"n  c #6C1535",
"m  c #641A37",
"M  c #681A38",
"N  c #741236",
"B  c #7B163B",
"V  c #432333",
"C  c #393640",
"Z  c #343A42",
"A  c #393C45",
"S  c #3C424B",
"D  c #40454E",
"F  c #404750",
"G  c #454B56",
"H  c #474D59",
"J  c #484F5A",
"K  c #4C545F",
"L  c #4D5560",
"P  c #505763",
"I  c #515964",
"U  c #555D68",
"Y  c #8C190E",
"T  c #95181A",
"R  c #86143D",
"E  c #92163E",
"W  c #B61C2E",
"Q  c #C42111",
"!  c #C8211C",
"~  c #C61F32",
"^  c #D4222B",
"/  c #E32432",
"(  c #8D1540",
")  c #821A41",
"_  c #921642",
"`  c #9B1746",
"'  c #9A1A49",
"]  c #A1194A",
"[  c #AA194D",
"{  c #BA1C41",
"}  c #AF1A50",
"|  c #B61B53",
" . c #B91C55",
".. c #CA1E56",
"X. c #C11D58",
"o. c #CB1F5D",
"O. c #E12344",
"+. c #EB2545",
"@. c #EB2450",
"#. c #E12258",
"$. c #F4255B",
"%. c #D52061",
"&. c #DC2164",
"*. c #E12166",
"=. c #E62269",
"-. c #EC236B",
";. c #F3246E",
":. c #FA266B",
">. c #F72570",
",. c #FE2674",
"<. c #FD2B76",
"1. c #FF2E78",
"2. c #FF327A",
"3. c #FF3D80",
"4. c #FF4383",
"5. c #FF4987",
"6. c #FF4F8A",
"7. c #FF528B",
"8. c #FF5C90",
"9. c #FF6897",
"0. c #FF6B98",
"q. c #FF749E",
"w. c #FF7BA1",
/* pixels */
"L U J H K L U P L L K K U I K H L L L L L I L L L L L S H L L L L L U U L L U L L I L L H J J G L G H L L L L L K G L U L L L U ",
"L P K K L P L K L L K K L K K K L L L L L L L L L L L L L H L L L H H H I L L L L U L L L L L J K K K L L L L K L H G L L H H L ",
"K L L K L P K K K K K K J J K K L L L L L L H H L L L L L L L L H L H H L L L L L L L L L L K K L L K L L L K K K L H K L H K L ",
"K L L L K K K L K K K K J K K K S L L L L L H L L L L P L L L P H L L L L P L L L L J L L L K L L L K J L K L K L L L K L L L L ",
"L K L L L K K L P K K K L P K K L L L L L L L L L L L L L L L L L L L L L L I L K J H J L L K K L K H H L K K K L I L K L I I L ",
"L K I I K G K P P K K K K K L P L L L L L L L L H L L L L H S L P L P I L L L L K L L L L L K K G K K L K K G H L K K K L L L I ",
"H K P I K K K L K K K G K K L K L H H L L L L H H L L L L L L L L L L L P P L L K K K K L L K L K K K K L L K H H L L K L L I L ",
"K P P L L K K P P K K K K K L P L J L H L L L H L L L L H H L L L L L L L S L L K L L L L K L L L K K K H L K K H L K H K L I I ",
"K I I K K I K I P K K K K K L L L L L L L L L J L L P L H H L L L L L L L S P L L L L L L L L L L L L K H L L L L L I H L L K L ",
"K K K K K U K K L L U K K K K L L L L H L I L L J L L L L L L L L L L H H L L L L L L L L L L J L L L K L L I L L L U I L L L L ",
"K I I K K I K I P L L K K K H I L L H H L L L H H J S P P I L J L L L L L L H H L L L L L L L L I L K K K L L L K L L L K K L L ",
"K U K K K U K K K K K K K K K K J L L L L I L L L L J L L P L L L L L L L L L L L L L H L J L L L L K L L I L K K K K I L K K L ",
"I K K K H K K K K L U K K L K L I L L L L I L L L L L L L L L L L L L L L I L H H L L L L H H L K L L K H L L L H H K L L L L L ",
"I K K K H K K K K L I L L K K P L I L L L L H L L P L L L L L L L L H L L L L H H L L L L L H L K L L K H L L L L H K L K L L I ",
"K K I K K K H K K L L U L L L P L P L L L L S L L I J I P L L P L L H H L L L L L L L L H L L J L K K K L L L L L L L K L L K L ",
"I U I K K K K K K H K L L L K K L L L L L L L L L L S L L L L L L L L L L L L L L L H L H H L L I L L K L I L L L L L L L L K K ",
"I K I I I K K K K K K L L L L L L L L L K I L L L J L L L L I L L L P L L P H H L L P L K K L L L L K K H K K I I L I L L L K H ",
"K K K I I K J K L K K L L L L L I L L L K S I S J L L P L L L L P L L L L L K K L P L P P L L K L L K K K K L I K L L L K K K K ",
"I K K K I K J K L K L K L K K L I L L L I S L L J L J L L J J L L L L L L P L K L L K L L P L K L K K K K L L L L L L H K K K K ",
"K K K K I K L K L K J L L L L K L L L L L L L L L J H J L H J L L L L L L L K L K K L K L L P K K K L L K L K K L L K H K K K H ",
"K H K U L L I L L K S L L L K K S L L L L L L L K L K L L L L L L K K L L L H H L L L L K L L L K K L L L L K L L K L K K K K H ",
"L K K K K K I K L K L L L K L K H L L L L L L L K L L L L L L L L K K L L P L L K K S K P P I K H K K K K U I I I L U L K K K K ",
"L K K K L L K K L K S K K L K K L L L L L L L L H H L H J L I U L L L L L L L K K K H K I I P K K K K K K L L L K K I L K L K K ",
"K I L K I L K K L L L K K K K I L I L S L L L S H H H S H H J I L K L S K S H H H H G K P P K K K L L K K L K K K L I L L L K K ",
"L I I L I K K K K K L L K J K L L L L S G Z 8 8 8 8 8 8 8 8 Z S H A r 7 8 8 8 r q 8 Z A K P K K K L L K K L K K K L L K L L L L ",
"K K I I K K G K K K L L J K K L L L L I A > O     O .       , S S Z # . . . . . O   O 8 H K K P L K K L L I H K K K L K L K K K ",
"K G J K L K K K L K L K K K K L L L S S C j f f f f f - f i 0 e A e - f f f - f - f f 0 Z A J P L L L K L L K K K L I L K K K H ",
"L K K L I K I L L K I L K L L I L L Z 7 j B ] [ [ [ [ } [ [ B k < c ] } [ [ } } [ [ ` c < Z A I I L K L I K L K L I L G K K K K ",
"K I L L U K I L L L L K K K I K H S q @ g } >.,.>.,.,.>.,.>.| h * ) *.>.>.<.<.1.,.>.*.) * < A S K K K L L I I L L L L L K K K L ",
"K I L L I I I L K J K K L L I S Z r z n ' %.,.,.,.,.,.,.,.,.&.] )  .>.2.3.7.6.7.3.3.-. .) c 0 Z S K K K K L I L K K K I K L L K ",
"K I K K K I L K J J K L L L K S 3 # n X.=.>.,.,.,.,.,.,.,.,.>.=.*.-.>.3.8.0.w.q.8.3.,.-.*.' j $ Z L H H K L L K K L K K L L I L ",
"K K K L I K U I L U L K L L L S > o N *.,.,.,.,.,.,.,.,.,.,.,.,.,.1.3.6.0.w.w.9.6.3.,.,.,.[ - . 7 K K K L I L K K L L L L K K L ",
"L L L L L L K K L L L L K J J S > o N &.,.,.,.,.,.,.,.,.,.,.,.,.<.3.7.0.w.w.8.5.3.1.,.,.,.[ f   7 L L L K L G J L L L L L L L L ",
"L L L K L L L L L K L L I L K S > o N o.-.>.,.,.,.,.<.,.,.,.,.,.1.7.w.w.w.0.5.3.,.,.,.>.=.] f O 8 P L K K L J L J L L P L L K K ",
"K K J K K K L L K K K L L L L F Z 4 x B [ &.,.,.<.,.,.,.,.,.,.,.1.7.w.q.8.5.3.,.,.,.;.X._ M V 7 A L L K L L K K L L L L L L K L ",
"L K J J K L K K K K K K K L L L H D 9 = h | ,.,.,.,.<.,.,.,.,.,.1.7.w.9.5.3.,.<.,.,.=.( - < C G H L L K L L L L L L L L L K K L ",
"L K P U L L L J J L K G J L I I P J Z > 0 R |  . ...#.$.$.$.$.:.<.4.8.6.3.,.&. . . .[ m , 7 S L U L L L K K K K P P K K K L L L ",
"L K K K L P K K K K K K K L L L L K F Z e z g g g b W / / / +.$.<.3.3.3.1.-.[ v g g l V t S G L L L L L K K L L L L S L L J L L ",
"L L L K K L L L K L L L L J H L L L J H A 3       & Y Q Q Q ^ @.:.;.-.=.-.%.B =     # 8 G K K L L L L L L L K L L L J L K L L L ",
"L L K K L L L L L L K K L K J L L P L J S Z 5 5 2 6 a s s s T ~ O.{ E ) ( B x 4 5 5 8 A J L L K L L K K K L K L L L L P L L L L ",
"L K L K H L L L L L L K L L L L L I L J J H G S G Z > o o X y T ! Y * @ % = 9 S F F H J K L L L L L L I S K L L L L L L L L L L ",
"K L L J G L L L L L L L L L L L L L L L L L I L I S 7 $ $ $ : d Y a ; # $ > Z J L L K K L L K K L L L S L L L L L L L L L L I L ",
"G L L K K L K L L L L L K L I P L L L L L L U L K H S Z Z Z w p u 6 e Z Z Z S L L L L K L L K K L J L L L L L L L J L L J L L U ",
"J L L L L L L L L L I L K L L I L L L L L L L L K L K K K K A 1 + 8 J L L L L L I L I L J J K L L I L L L L L I L L L P L L L L ",
"L L L L K L L K L L L L H J L L K L L L L L H H H K K L K K S Z 8 A K L L K K L L L L L K K K L L L J L L L L L L L L L L L P L ",
"K L L L K J L K K J L L H H K L H L L L L L H H K L L L L K K H S H L L L L K L L L L L K L K L L L L L L L L S S L J L L L L L ",
"L K L L L S K K J G L L L L L L H K L L L P L L K L I L L L L L H J P I L K G J L L I L L L L K L L L K L L L L I I L L L L L L ",
"L L L L L L L K H H L I L L L L L L L L L L L J L L L I L L I L L L L L K K G J L L L L P L L K S H L L L L L L L I L L L L L S ",
"P K H H K P L L L K L L L L L L L L L L L I K K K K K K L L L U L L L K L K K K L L L L L L K L I L I L L L L L L K L L L L L L ",
"L L J K L L L L K L I I L L L L K L L L K K K K K H K K K L L L K L L I L I L K L L K I L L L I L L L I L L L K K K K L L L L L ",
"L P L L K K L L K L L L L L K L K K K K L L K K K K K I L L L L K K L L K L K K K L K L L K K L L L L J K L L L K K L K L L K L ",
"L I L L L K L L L K L K L L L K K K K I I L H K K K K I L K K I K L K K K K K K K K K K K K K K L L L L K L L L L L L L L K K L ",
"L L L L I L L P I L K L L L L K H K K L I K K L K K K L K K L L L L L L K G K K L K K K K K G K L I L L L K U L K L L L K L L L ",
"L L L L L L L L J S K L L L L L I L I L K L K L L K L K K L K L L K K L L K K K K L L K L H G K L L L L L L I L K L L L K L I L ",
"P L K L K S L L L L L I L L P L I L K K L I L K I I L K K K L K H K K L U K L I I L L I K K K K K K K L L L L L K L U L K L L L ",
"L L L K K H L P L L I L I L I L L L L K K L L K K L L L L L K K H K K L L L L L I L L L K K K K K K L K L L L L L L L K K K K L ",
"L L L L L L L I I L L L L L I L K K K K K K K K K K L K L L L K L K K L L L K K K K K K K K K K K K K L K L K I I K K L L K K L ",
"L L I I L S L L L L L L J L L J K H K K K I L K K H K L L L L K K L K L I L K K L L L L L L K H K K L I K I K K L K K I L K K L ",
"I L L L L L I L L L I L L L J S K L K L K K K L K K L U L I I L L L K K L K H H K L U L L I K K L K L L K L I U I K L L K K K L ",
"L L I I I L L L L L I L L L L I K K K L I K L L L K K L K K L L L K K K G L L K K L K L I I L K L K K K K K S K L L L L L K L U ",
"L L L L I J L L L L L L L L L L K K L L L K K K K L I L L K K K K K L L H K K K K L I K I L K I L K K K K L K K K L L I L L I I ",
"L L L L L S L L L L L L L L L L K L L L L K K K K K I L K L L K L K L L K L K K K L L L K K L I L L K K L L K K L L K I I L L L ",
"L L I I L L L L L J L I I I L L L K I I L K K K K K K K K L I K L L K K K K K K K K K K K K K K I L K I L U L K L I L K I I L L ",
"L L I L L L L L L L L I L L I L U L K K K H I I L I L L K L I L L I I L L K G K L K K K K K H L K K K K L L L L I U L L L I U U "
};
