/* XPM */
static char *out[] = {
/* columns rows colors chars-per-pixel */
"64 64 122 2 ",
"   c #0A0709",
".  c #0A0B0C",
"X  c #1C040D",
"o  c #0E0F11",
"O  c #1E0B13",
"+  c #141517",
"@  c #141619",
"#  c #1D1618",
"$  c #17191C",
"%  c #191B1F",
"&  c #21050F",
"*  c #380E0A",
"=  c #240611",
"-  c #2E0710",
";  c #240B15",
":  c #2D0815",
">  c #37091A",
",  c #291C1E",
"<  c #1B1D21",
"1  c #251F26",
"2  c #281B24",
"3  c #2E1F29",
"4  c #381020",
"5  c #1D2024",
"6  c #202327",
"7  c #2E2427",
"8  c #23272C",
"9  c #25292E",
"0  c #3A2425",
"q  c #30242E",
"w  c #39232F",
"e  c #272A30",
"r  c #292C33",
"t  c #3C2734",
"y  c #322A33",
"u  c #3D2835",
"i  c #3E2E3B",
"p  c #2C3037",
"a  c #2E3339",
"s  c #31363D",
"d  c #33383F",
"f  c #470C05",
"g  c #44130F",
"h  c #440A1F",
"j  c #4F1813",
"k  c #4E1C19",
"l  c #6A150C",
"z  c #70160E",
"x  c #721215",
"c  c #540C26",
"v  c #421225",
"b  c #4B1A2E",
"n  c #541C34",
"m  c #5A1C35",
"M  c #66102F",
"N  c #691028",
"B  c #621B37",
"V  c #741337",
"C  c #7D143B",
"Z  c #353A42",
"A  c #3A3D46",
"S  c #3D434C",
"D  c #3F4650",
"F  c #404750",
"G  c #444B55",
"H  c #474D59",
"J  c #484F5A",
"K  c #4C545F",
"L  c #4D5560",
"P  c #505763",
"I  c #515964",
"U  c #555D68",
"Y  c #85190E",
"T  c #9C1A0C",
"R  c #B21E10",
"E  c #B21D1F",
"W  c #BD1F1B",
"Q  c #86143D",
"!  c #8C153E",
"~  c #A21A2C",
"^  c #DB241E",
"/  c #D4222F",
"(  c #D5213E",
")  c #E42433",
"_  c #841A41",
"`  c #8E1944",
"'  c #931946",
"]  c #9E1748",
"[  c #A4194B",
"{  c #AA194D",
"}  c #B31A51",
"|  c #BA1C55",
" . c #C21D59",
".. c #CA1F5C",
"X. c #DB2244",
"o. c #D92157",
"O. c #EC2546",
"+. c #ED2457",
"@. c #F12554",
"#. c #D31F60",
"$. c #D62062",
"%. c #DC2164",
"&. c #E02166",
"*. c #E72269",
"=. c #E9236A",
"-. c #F82564",
";. c #F3246E",
":. c #FB266B",
">. c #F62570",
",. c #FE2674",
"<. c #FC2C75",
"1. c #FF2E78",
"2. c #FF347B",
"3. c #FF3B7E",
"4. c #FF4383",
"5. c #FF4886",
"6. c #FF508A",
"7. c #FF598F",
"8. c #FF6495",
"9. c #FF6897",
"0. c #FF6D99",
"q. c #FF749D",
/* pixels */
"L U J H K L U P L L K K U I K H L L L L L I L L K L L G K K K L L K I U K L U L L I L L H H J D L G J L L L L L J G L I L K L U ",
"L P K K L P L K L L K K L K K K K L L L L I L L L L K K K K K K L K J J I L L L I U L L L L L J L L K L L L L L L J G L L K H L ",
"K L L K L P K K K K K K K H K K H K L L L L H K L K K L K K L L H K J K P L L L L L L L L L L L L L L L L L K K L K H K K K K L ",
"K L L L K K K L K K K K H K K K G L L L L K H K L K L L L L L L H K K K L P L L L L H L L L J L L L J J L K K L L L L L K L L L ",
"L K L L L K K L P K K K K P K K L L L L L K L L L L L L L L K K L K L L L L I L K J D L L L J L L L H G L K K K L I L K L I I L ",
"L K I I K G K P P K K K K K L P L L L L K L L L K K L P L H G L I L I I L L L L K L L L L L L L G K K L L K H J L K K L L L L I ",
"H K P I K K K L K K K G K K L K L G J L L L L G H K L L L K K K L K L L L K L L K K L J L L H L K K K K L L K H H L L K L L I L ",
"K L P P L K K P P K K K K K L P L J K K L L L J K K L L J K K K L L K K K H K L L L L L L L L L L L L K G L K J K K K H K L L I ",
"K I K K K I K I P K L L K K L P L K L L L L L K L L L L J J L L L K K L L H J L J L L L L L L L I L K K H L L L K K L K K K K I ",
"K I K K K U K K L L I K K K K L K K L K L I L K J L J L L L L J L L L K L L L L L L L L L L L L L L L K L L I L K K U I L L K L ",
"K I I K K I K I P L L K K K H P L L G G L L L G J L F L P P L L L P L K L J H J L L L J J L L L L L L K L L L L K L L L K K K L ",
"K U K K K U K K K K K K K K K K L L L L L I L K J L L L L L L L L K K L L L L L L L L L L L L L L L K L L I L L L K K I L K K L ",
"I I K K H K K K K L I K K P K K I L L L L I L L L L L L L L L L K L L L L P L J H L L L L J H L K L L K H L L L K H K L L L L L ",
"K K K K H K K K L L I I K L K I P P L L L L H K L L L L L L L L L L L J L L P J H L L L L L H L K L L K H K L L K H L K L L L L ",
"K K I K K K H K K L K U L L K I L P L L L K G J L L K L P L L L L L J J L L L L L J L J J L L L L L L K L L L K K K L K L L L L ",
"K U I K K K K K K H L L L K K K L L P L K K L K L L G L L L L L L P P L L L L J L L L L H J J L I L K K K U L L L K L L L L K L ",
"U K I I I K K K K K K I K I U K K I I K K K K K L J L L L P P L L L L L L I H H L L P L K K L L L L K K H K K P I L I L K L K H ",
"I K K I I K J K K K K K K K K K I I K K K H K K H L L P L L L L L L P L L L L H L P L L P L L L L L K K K K P P L K L K K K K K ",
"K K K K I K J K K K K K K K K I K K I K K J K K J K H L L J J L L L L L L L L L L L L L L L L L L K K K K L L L L L L H K K K K ",
"K K K K K K I K K K K K I K K K K K K I K K K K L L H J K J J L L L L L L L L L L J L K L L L K K K L L K L K K L P K H J K K J ",
"K J K U I K I L K K G K I K K K K K K K K K K K K L K L L K K K L L J L L L H J L L L L L L L K K K L P K L L L L K L K K K K H ",
"K K K K K K I K K K K K K K K K G K K K K K I L K K L L L P P P L L L L L L L L L J D L L P P L G K K K L U P P L L U L K L K K ",
"L L K K L L L K K K H K K K K K K J H H H H J H G F G F G H K I J J G H H H H H G H D H K L L K K K K K K L L L L L I L K K K K ",
"K I L K I K K K K K K K K K K I K F a 9 p r r r r e r 9 e Z D K D a r r r r r r r r e r Z G K K K L L K K L K K K L I L P P K L ",
"K I I L I K K K K K K L K K K K H s @ . . . . . . o . . o < A H a @ . . . . . . . . o   < A L L L L L K K I J K K L L K P L L L ",
"L K I I K K H K K K L L H K H D S w v h h h h h h h h h v 4 i A u 4 h h h h h h h h 4 h v Z A D K K K L L I H K K K L K L K K K ",
"K H J K K K K K L K L K K K D p 6 n ' { { { { { { { [ { { ` b 2 m ] { { { { { { { { { { _ b < Z H K L K L L K K L L I K K K K G ",
"K K K K I K I K K L I L K H S 7 : V $.:.>.,.,.,.,.>.>.,.>. .M : C #.,.<.<.<.<.<.<.<.<.,.| M O y D K K L L L K L L P L G K K K K ",
"K I K I I K I I L L L K K a t m C { =.,.,.,.,.,.,.,.,.,.,.%.{ _ | =.1.4.6.6.6.6.6.5.4.,.#.] V n Z Z D K L L I I K L K L K K K L ",
"K I L K I I I K K H K K K % 4 ` %.=.>.,.,.,.,.,.,.,.,.,.,.>.=.&.=.>.3.7.q.q.q.q.q.9.6.1.>.*...V o < Z K K L I L L K L I K L L L ",
"K I K K K I L K K J L L K o > ] ;.,.,.,.,.,.,.,.,.,.,.,.,.,.,.,.,.,.2.6.9.0.0.9.9.8.5.1.,.,.*._ X @ Z H K L L K K L L K L L I L ",
"K K K I I L U I L I L K H o > ' ;.,.,.,.,.,.,.,.,.,.,.,.,.,.,.,.,.,.<.3.4.4.4.4.5.4.2.,.,.,.*.C X < Z K L I L K K L L L K K K L ",
"L L L L L L K K K L L L J + > ' &.=.=.=.=.;.;.:.:.:.:.:.:.:.:.,.,.,.,.,.,.,.1.>.=.=.=.=.=.=.$.C O 5 Z K K K H J K K L K K K K L ",
"L L L L L L L L L K L L L r t B Q Q Q Q Q ' ~ X.O.O.O.O.O.@.-.,.,.,.,.,.,.,.,.&.} ! ! Q ! Q C n q d G K K K K K K K K I I L K L ",
"L K J J K K L L K K L L L H A 3 = X = = & - x W ^ ^ ^ ^ ^ ) @.,.,.,.,.,.,.,.,. .M & & & X & ; q S H J K K I K K K K L I I L K L ",
"L L J J K L L K K K K K L L F r $ @ + + + # j Y T T T T T E ( +.o. .| | | | | ' b $ @ @ $ @ % a H L K K K I K I L K L K K K K L ",
"L K L I L L L H H L K G J L L D A Z s Z d s 0 g f f f f f z E / ~ N c c c c c b u a d d d d S F I K K I K K K K K L K K K K K L ",
"K K L L L L L K L K K K L L L L L K L J K H s +           * Y R x =     .     < d K K K K K J K K K K I K K K I K K H K K K L L ",
"L L L L K L L K L L L L L J G L L L H H K K S p 9 8 1 8 8 3 k l k 7 8 8 9 8 8 Z D K K K K K L L I K I K K I K K K K K K K L L L ",
"L L K L L L L L L L K K L L J L L L L J K K H G G F F F G Z , o 7 S G G A F F G K K I L K K L K K K K K K K K K I K K I L L L L ",
"L K L J J L I L L L L K L L L L L I L L J L L K L I L L K D 9 % p G K K K K K K K K P K K L K L L K K K K K K L L K L I L K L L ",
"J L L J H L L L L L L L L L L L L L L L L L L L L I L L K H S Z S K K K L K K K K K K K K L K K K K K K H K K L L K K K K I U L ",
"G L L L J L J L L L L L K L I I L L L L L L I L K L L L L L I L L K K L I K K L P L K K L L K K K K K L K K K I I K K K K K L U ",
"L L J L L L I L L L I L K L L L L L L L L L L L K L L L L K L I K K P I L L K P I K U L J K K L L I L K K K K K K L L I L K K L ",
"L L L L L L L L L L L L G J L L K L L L L L G G H K K L L K K L K K L L K K K K L L L K K K K K K L K K K K L H K I L L K L I L ",
"L L L L L H J L K K L L J J K L J L L L L L J H K K L L L K K L K K L P L L K K K K P L K K K L K L L K K L L K J L L K K L I L ",
"L J L L L D L L J F L L L L L L G L L L L P L L L L I L L K L L G K P I L K H H L L U K L K L K K L L K L I K L K L L K K K K K ",
"L L L J L L L K L G L L L L L L L L L K L L L L L L L I L L I L K K K K K K H K L I K K U L K K G K L L L L K K L I K K K K K H ",
"I L H H L I L L L J L L L L L L L L L L L L L L K I L L L L L U L L L L L L K K L L L L L L L L K K I I K L L L K L L I K K K K ",
"L L L J L L L L L L I I L L L L K L L K L L K K J D L L K L L L K L L L L L K L L L K I L L L I K K K L K I L K K K K L I I K K ",
"L L L L L J L L L L L L L L L L L L L L L L H K K H K L L L L L L K L L K L K K K L K L L L L L K L K K L L K K K K L K I I K L ",
"L I L L L L L L L L L J L L L L J K L I I L H K L L L I L L L L K L L K K K K L L K K K K K K L L L L K K K L L K L I K K K K L ",
"L L L L I L L I L L L L L L L K D L L L L K L L K K K L K K K L L L L L L D L K K K K K L K D L L I I K L K U L K L I K K K K L ",
"L L L L L L J L K D L L L L L L I L I L L L K L L L K L K L K L K K K L L L L L K L K L I D D I L L L L I L I I K K L K K L U L ",
"I L J L L D L L L K L I L I L L I L K L L L L K I I L K K K L K D K L L I L L I I I L L L K K K K L K L K L L K K L U K K L K K ",
"L L L L J J L I L L L I L L L L L L L K L L L K L L L L L L K K K K K L L L L L L L L L L K K K K K K K K L L I I L I K K K K L ",
"L L L L L L K I L L L L L L L L L L K L K L K K L L L L L L L L L L K L L L L K K K K K L K L K L K L L L L L L I K K I K K K L ",
"L L I I J D L I L L L L L L K L L D J L L L L K J D L L L L L L K K K L I L K K L L L K L L L D K L L L K L L L K K K I K K K L ",
"I L I L L L I L L L L L L L D D K L L L L K L L L K L I L L I L L K L K L L D J K L U L L L L K K K L L L L L U I K L K K K K L ",
"L L I I I L L K L L I L L L L I K K K L L L L L L L L L L L L I L K K K D L L L K K L L I I L L L K K K K K D K L K L I L K L U ",
"L L L L L H L L L K L L L L L L K K K L L K K L L L I L L L L L L L L L K K L K K L L L L L L I L K K K L K K K K K K I L L I I ",
"L L L L L D L L L L L L L L L I L K L L L K L L K L L L L L L D D L L L L L K K K L L L L L L I L L K K L L K K L I K I I I I K ",
"L L L I L K L L L K L I I I L L L L I I L K L J K K L K L L I L I L L L L L K J K K L L L K L L L K L L L U L K L I L K I I K L ",
"L L I I L L L L L L L I L L I L U L L L L D I L L I L L L L I L L I I L L I D J L L L I I D D L L L L K L L L L I U L L K I U U "
};
