/* XPM */
static char *out[] = {
/* columns rows colors chars-per-pixel */
"64 64 201 2 ",
"   c #25243E",
".  c #362A36",
"X  c #5C333B",
"o  c #282947",
"O  c #32344D",
"+  c #383848",
"@  c #393C49",
"#  c #2B2E56",
"$  c #2F3156",
"%  c #2D3159",
"&  c #363952",
"*  c #3B3D5C",
"=  c #383F74",
"-  c #4A3A47",
";  c #573B48",
":  c #433A55",
">  c #423F5C",
",  c #5A3E52",
"<  c #643B46",
"1  c #423F62",
"2  c #3F434F",
"3  c #3D4253",
"4  c #3C415C",
"5  c #3D4264",
"6  c #3C436B",
"7  c #3C4274",
"8  c #3D437A",
"9  c #49434D",
"0  c #5A434E",
"q  c #414653",
"w  c #4C4457",
"e  c #454B56",
"r  c #4C4A55",
"t  c #464D59",
"y  c #494E5A",
"u  c #544354",
"i  c #534A54",
"p  c #5C4D54",
"a  c #57485A",
"s  c #524E5A",
"d  c #4C535F",
"f  c #56545E",
"g  c #674347",
"h  c #64464D",
"j  c #624D53",
"k  c #684B56",
"l  c #6D5255",
"z  c #735355",
"x  c #7C5554",
"c  c #79515C",
"v  c #434666",
"b  c #454967",
"n  c #494C66",
"m  c #464A69",
"M  c #494D6C",
"N  c #514C67",
"B  c #4D5561",
"V  c #4D526C",
"C  c #515763",
"Z  c #515964",
"A  c #545369",
"S  c #555D69",
"D  c #4C5171",
"F  c #4D5179",
"G  c #5B597B",
"H  c #6A566C",
"J  c #676378",
"K  c #786D79",
"L  c #874C54",
"P  c #8D5A56",
"I  c #865558",
"U  c #8A5D5A",
"Y  c #945559",
"T  c #A45B5C",
"R  c #8D635E",
"E  c #91625D",
"W  c #AC655F",
"Q  c #865E64",
"!  c #896368",
"~  c #936361",
"^  c #986A64",
"/  c #967067",
"(  c #9C777C",
")  c #A66B64",
"_  c #B66A67",
"`  c #B66E66",
"'  c #A5746A",
"]  c #A97468",
"[  c #AB756B",
"{  c #B27165",
"}  c #B9766B",
"|  c #B57B6E",
" . c #C3746E",
".. c #C8786F",
"X. c #C77A72",
"o. c #BD8374",
"O. c #BA8876",
"+. c #BE9079",
"@. c #C28272",
"#. c #CA8475",
"$. c #C48C78",
"%. c #D68778",
"&. c #D38A79",
"*. c #C4937B",
"=. c #CE907C",
"-. c #D2957E",
";. c #DE967E",
":. c #E28C7E",
">. c #424A84",
",. c #444D8C",
"<. c #51578C",
"1. c #454E91",
"2. c #465094",
"3. c #495396",
"4. c #4A549B",
"5. c #4F589C",
"6. c #5F638A",
"7. c #64668C",
"8. c #6F7795",
"9. c #4E59A5",
"0. c #515BA6",
"q. c #515DAB",
"w. c #5560AE",
"e. c #5662B3",
"r. c #5965B9",
"t. c #5966BB",
"y. c #5D6BC4",
"u. c #5F6DC9",
"i. c #616FCA",
"p. c #6271CF",
"a. c #9E7F8D",
"s. c #7B87B4",
"d. c #978686",
"f. c #8B8A9B",
"g. c #9E9297",
"h. c #A6828C",
"j. c #BD9489",
"k. c #A3989C",
"l. c #B39395",
"z. c #BEAB95",
"x. c #8B8BAA",
"c. c #9697B1",
"v. c #A29AA6",
"b. c #A39FBB",
"n. c #9AA1BD",
"m. c #A3A1AC",
"M. c #BFAFA3",
"N. c #AAA5B7",
"B. c #C59285",
"V. c #DC9D83",
"C. c #D49588",
"Z. c #E49381",
"A. c #E49C85",
"S. c #EA9D86",
"D. c #F19F86",
"F. c #DBA487",
"G. c #C9B79E",
"H. c #DABD9D",
"J. c #E3A489",
"K. c #E5A88B",
"L. c #EAAC8E",
"P. c #F1A187",
"I. c #F4A488",
"U. c #E3B091",
"Y. c #EDB593",
"T. c #E7B995",
"R. c #F4B694",
"E. c #F5BB96",
"W. c #F8BB96",
"Q. c #F6BE98",
"!. c #F8BE98",
"~. c #CABAA3",
"^. c #EDC69F",
"/. c #F6C19B",
"(. c #FAC29B",
"). c #DFC8A4",
"_. c #ECCCA4",
"`. c #F7CDA3",
"'. c #FACDA3",
"]. c #F3D5A8",
"[. c #F4DBAE",
"{. c #FBDCAF",
"}. c #EBDCB0",
"|. c #F5DFB0",
" X c #FCE1B1",
".X c #9AA4CB",
"XX c #97A1D1",
"oX c #B1B4CC",
"OX c #A4ACD7",
"+X c #B1B8E5",
"@X c #C1BDC7",
"#X c #BCC2D6",
"$X c #C1C2CC",
"%X c #C3C9DB",
"&X c #C7CDED",
"*X c #D6DAE8",
"=X c #D6D9F0",
"-X c #DBE0EE",
";X c #E8EAEF",
":X c #E8EBF5",
">X c #F6F6FA",
/* pixels */
"B Z d e B d S Z B d d B S Z d t B B d B B S B d d B B t B B B B B B Z S d d S Z d Z d d d d d e d t d d Z d d Z d e d S d d d S ",
"B C B d d Z B d B Z d d B d d d d d d d B Z d d B B d d t t t t d t y d Z d d d Z S Z d d d d d d d d d d d d d d d t d d d d Z ",
"d B B d B C d d d d d d t d d d t d B B d B d d B B d t 3 3 3 3 & 3 3 d Z d Z d d Z d d d d d d d d d d d Z d d d d d d d d t d ",
"d d C B d d d d d t d d t d d d d d B B d d t d B 4 3 6 3.e.e.e.w.3.6 4 t Z Z d d d d d d d d d d d d d d d d d d d d d d Z d d ",
"B d B B B d d B d d d d d Z d d d B B d d B d d d 5 3.t.i.i.i.i.i.i.t.3.4 t Z B d d t d d d d B d d d t d d d d Z Z Z d Z Z S d ",
"B d Z Z d q d C Z d d d d d d Z B B B B d d d t 4 e.i.i.i.i.i.i.i.i.i.i.w.4 d d d Z d d Z Z d d t d d Z d d e d d d d d d d d Z ",
"e d Z Z d d d C d d d e d d d Z d t d B B B d 3 3.i.i.i.i.i.i.i.i.i.i.i.i.,.3 Z d d d d d B d d d d d d d d d t t d d d d Z Z Z ",
"d C C C C d d C Z d d d d d d Z d t d d B B t 6 t.i.i.i.i.i.i.i.i.i.i.i.i.e.6 d d d Z B d d d d d d d d t d d d d d d t d d d Z ",
"d Z Z d d Z d Z Z d Z d d d d Z B d B B d d 3 2.i.i.i.i.p.i.i.i.i.i.i.i.i.i.>.2 t d d d B d d d d Z d d d d Z d d d Z d d d d Z ",
"B d d d d S d d d d Z d d d d d d d d B 2 & $ q.i.i.i.i.i.i.i.i.i.i.i.i.i.i.0.O O t d d d B Z d d d Z d d d Z Z d d S Z d d d d ",
"B Z B d B d d Z Z Z d d d y t Z B d t t 3 & 7 t.i.i.p.i.i.i.i.i.i.i.i.p.i.i.e.8 4 d d d d Z B d Z d d d d d d d d d Z d d d d d ",
"B Z Z d d S d d d d d d d d d d d d d d d t 5 y.i.i.i.i.i.i.i.i.i.i.i.i.i.i.t.5 2 B d d d d d d Z d d d d S Z d d d d S Z d d d ",
"Z B d d t d d d d d S d d Z d d S B B B B 4 7 r.i.i.i.i.i.i.i.i.i.p.i.i.i.i.e.7 3 d Z d d d t d d d Z d y d d d d t d Z d d Z Z ",
"Z d d d d d d d Z d Z Z Z d d Z B B B B d 2 2.q.y.u.u.i.i.i.p.i.i.i.i.i.i.y.0.,.& d d d d d d d d Z d d d d Z d d d d d d Z d d ",
"d Z Z B d d t y d d Z Z Z d d Z B B B B d 3 5.9.r.i.i.i.i.i.i.i.i.i.i.i.i.e.0.3.3 y d d d d d d Z d d d d d Z d d d d d d d d Z ",
"d Z Z d d d d d d t d d d d d d B B B B d & 5.9.0.r.y.u.u.i.i.p.i.i.i.t.e.0.9.3.& t d d t y d d Z d d d d S d d d d d d Z Z d d ",
"Z d Z Z B d d d d d d B B Z Z d B B B d d 3 1.9.9.9.q.w.e.y.y.t.y.e.q.q.9.9.9.3.3 d Z d d d d B Z d d d t d d Z Z B Z d d B d t ",
"Z d d Z S d t d B d d d B B B B Z B B d d 2 4.9.9.9.9.5.9.9.0.9.9.9.9.9.9.9.9.3.& d d Z Z B B B d d d d d d B B B B d d d d d d ",
"d d d d Z d d d d d B d d d d B Z B B B 4 4 4.9.0.9.9.9.9.9.9.9.9.9.9.9.9.9.9.3.4 d d B B B B d B d d d d B B B B B B d d d d d ",
"B d d B d d d d d d d d B B d d B B B B 2 7 9.9.9.9.9.0.9.9.9.9.9.9.9.9.9.9.9.5.6 2 Z d d B B d d d d Z d B d d B B B t y d d d ",
"B y B Z B B Z B d d 2 B B B d d d d d d 2 8 9.9.9.9.0.9.9.9.9.9.9.9.9.9.9.9.9.9.7 3 B d d B d d d d Z B d d B B B B B d d d d 2 ",
"B d d d B B Z d B d B B B d d d 2 d B d 2 8 9.9.5.9.9.9.9.9.9.9.9.9.9.9.9.9.9.9.7 2 e d B B S d t d B d B S Z Z B B S B d d B B ",
"B d B d B B d d d d 2 d B d d B d B Z Z 2 >.q.9.9.9.9.9.9.9.9.9.9.9.9.9.9.9.9.0.7 2 e d Z Z B d d d d d d B B B B B Z B B B B B ",
"d Z B B B d B d B B d d d B B B d Z 3 3 2 >.q.2.3.9.9.2.5.9.9.9.9.3.3.9.9.2.4.9.7 3 d d Z Z B d d d B d d B d d d B Z B B B d B ",
"B B Z B Z d d d d d B B y d B B d Z d 3 @ >.9.2.2.q.9.>.4.9.9.9.9.2.,.9.9.,.4.q.7 3 C B C B d d d B B d B Z y d d B B B B B B B ",
"B d B Z d d e d d d B B y d d B B B B Z @ >.9.>.1.9.4.7 4.9.9.9.9.2.8 4.9.,.,.9.7 e d d d d B d B B d B B S 2 d d d B B B B d d ",
"B e d d B d d B B d B d d d d d Z B B B @ >.9.7 1.q.1.# 2.9.q.q.9.2.% 4.q.>.7 q.8 e d d d B Z B B B B d B B d d d B Z B d B d 2 ",
"B d d B Z B B B d B Z B d B B Z d B B B 2 4.e.# 4.u.9.o >.e.u.u.e.,.O w.p.1.% r.e.5 3 d C C d B B B d B Z B d d B Z B 2 d B B B ",
"d B B B Z B Z B B B B d d d B B B d d r . <.q.  >.p.q.  % e.i.i.t.8   3.p.,.N >.r.>.@ C B B B d B B B B Z B Z Z B B d B d d d B ",
"B Z B B Z B Z B d y d d Z B d d d d y r / J B +.J 9.2.+ 8.>.t.u.q.G v.6.y.= G.K y 2 e C B B B B B B y d d B Z B d d d Z B B B B ",
"d B B B B Z B d y y B B d B d d d 2 d p H.[.].^.K 1 # s..X6.F 4.8 f.;X$XD O H.].].U d B B B d d B B 2 d d B B d d B B d B B Z B ",
"B d d B Z B S Z Z Z B d B d Z Z d d Z O.]. X{.+.z $.O.c.f.s.8.6 D m.oXN.J R ^. X X*.i B B B B B B d B B B Z B d d B B B d d d B ",
"Z d d d Z d d d Z d d d d d d S B C l J./.`.Y.x ' `.}.}.T.a.l.l.B.H.z.).( H V.'.(.Y.E r B d B B d B d B d C e t d d B d d d d B ",
"d d d d d d Z d d d d Z d d d d B i [ !.!.E.o., j.|. X X{.E.T _ Q.|.}.~.f.G ~ E./.E.*.j d B B t d B B d d d d d d d d Z Z C d d ",
"d d d y d d d d d d d d d d d d y k F.!.!.K.I 6.c.k.).G.{._._ U.~.g.b.n.*XOXH &./.W.Y.U y B B t B B B d B C d d B d d Z Z B d B ",
"Z d d d d d d d d d d d d Z d Z i ] E.E.!.o.w .X-X#XoXx.v.d.! k.c.%X-X:X#Xv.a ~ Y.W.W.+.j B d d B B d d d C B B B B B d d d d B ",
"d d S Z d d Z d d d d y d d Z d l F.E.!.L.x A b.:X>X>X:X=X+XoX=X;X>X:X@XM._./ h -././.R.E d d d Z B d B d d B d d Z B d d d d B ",
"d d d d d S d d d d d d d f d i [ E.Q.Q.| 0 P h.n.%X:X>X:X+X&X>X>X>X@XG. X XO.- ~ Y.E./.=.j d d B B B C d B B B d d e d d d B B ",
"d Z Z d d d d d d d d d d y 9 / T.Q.!.U.z i I S.C.h.x..X+XOXXX&X-XoX~.{.{.'.@.- h -./.W.E.+.p y B d B B d B B d d d d d d B B B ",
"d d d d d d Z Z d Z d d d i E ;.A.E.K.' a w L } X.V.C.h.8.XXx.XXx.B.R.W.R.;.} 9 r E J.R.J.J.| p d B d d d B d B Z d d Z B d B B ",
"d d d d d d Z d B Z d d t z -.%.%.} T < y r L ;.X._ _ ] E G 7.7.Q { { { { ` { - d X P ` &.&.;.E d d d d d d d B B d B Z B d B B ",
"d Z d d e d d d d B d d t l P R g L Y 0 d r I D.I.Z.#.X.@.o.< ^ C.$.j.*.*.J.| 9 d i L L g I P x d d d d t d d d B d B d d Z Z B ",
"e d Z d d d d d d B Z C d f i s q < u d d d j &.I.I.I.I.I.I.W &./././.!./.E.x d B d r ; 9 i 9 d d d d d d d d B Z d d d d d Z S ",
"d d d d d d Z Z d C Z d d d d d d y d d d d r ` P.I.P.I.I.I.%.I./.W.!.!.(.F.j Z Z f Z d y y d d d d Z d d d d d d d B Z B d d d ",
"d d d Z d d d d d d Z d t t d B B d d d d d 9 x A.P.P.I.I.I.:.K.(.!.(.W./.] y f B B C d d d d d d d d d d d d d d Z B B d B Z d ",
"d d Z d d d d d d t d C t d d d d d B C d C e k X.P.P.P.D.D...J.(.W./.W./.^ 9 d d B C B d d d B d d d d B B B d d B d d d Z Z B ",
"Z d d d d t d d t e d B d C C d e d C Z B Z d 9 Y  .%.;.:.%.T J.(.W.(.W.E.R e d B B Z B B B B d d Z Z d d Z B B d d B d d d d d ",
"d d d d d d Z d d e B C d C Z d B d d d B d B d h #.E.!.!.R.} ;.(.W.W./.-.j e y B C B d C C d d e d d d B B d d d Z d d d d d t ",
"Z d y y B Z B d B d B B B B Z B B C B B B C B B u V.!.W./.E.W -.(.W.W.W.O.i d d B B d B B B d B d d Z Z d d B B d B B Z d B d d ",
"Z d d d B B B B d B Z Z B B B d d d B d B B V M , ;.W./.(.U.X *.(.W./.Y.! n M V B B B Z B B B Z f d d d d Z B d d d B B Z B d B ",
"d Z d d d d Z d d B B B B B d B d d B V D M 6 m w #.W.'.'.^.x *.(./.(.J.k b m M M Z B B d d B Z d d d d d Z d d d d B d B B d B ",
"d Z B d d d d B B d B d Z B d d n B V M M m v m b c Q.!.W./.] *.(.W.(.O.: v v m 6 M M V B d t B Z d Z d d d B d B B B B B d d B ",
"d Z B B Z d d Z Z d d B d B B d t D M m m m M v m a #.E.!.!.) $.(.!.(.O.: v v m m m m D Z t e B d S Z d d d Z Z d B B B B B B B ",
"d d B Z B d d d y e d B d B B B V M m M m m m M m b Q L.Q.Y.L *.(.(.E.) 5 m b m m m m m V t e B d d d Z Z d S Z d B B B d B Z B ",
"Z d d B d e d d d d B Z B B Z B V M m m m M m m m M w ] F.*.X *.(.W.U.k m m m M M m m M M B d d d d Z d B d Z d d B S B d B B B ",
"Z d B d d d d B Z d B Z B Z Z B n v m m m m m m m m M > w u + o./.W.J.; m m m m m m m m 6 B d d d d d d d B d Z B B B B d d d B ",
"B d B B B d d Z Z d Z d B Z B d B v m m m m m v v v m m m m : U Q.^.[ - M m m m n M n b M d d d B d d B d d d Z Z d d B d B d B ",
"B B Z Z B 2 d Z B d B d d d d d V 6 v m m M m m m v m m m m m r R ~ p v M M m m M 6 6 M V B B 3 d d B Z d Z d Z B B d Z B d d B ",
"Z B Z d B B Z Z d d Z d B d d 2 B D m m m m m m m b m M m M M v 4 * v m m m v v V M D D Z Z B B B d B B d B d Z Z d B B d d d B ",
"B Z Z Z Z B B d d Z Z Z d d B B B Z D m m m m m m m m m m m m m m M m m v m v m 6 V 6 Z Z Z B B d d d B d d e d B B B B B d B S ",
"B B B B B e d B B d Z d d d B Z d d B V m m m m m m M m m m m m m m m m v m m m 6 S Z B B B B Z B d d d d d d d d d B Z B B Z Z ",
"d d B B d t d B B d d d Z Z B B d B B Z B V m m m m m m m m m m m m m m m M m M B B B B B B B Z B B d B d Z d d B Z d Z Z Z B d ",
"B d Z Z d B d d d d d Z Z Z B d d d C Z C d B V n B V m m M m m m m M n n V B y d d d d B d B B Z B d B Z Z d d Z Z d d Z Z B B ",
"B B Z Z B B B Z Z B d Z B Z Z B S C B B d e Z B B Z V B n B Z B B Z Z B B B t y B d B B B y 2 B d B B d d Z d Z Z Z B B d Z S S "
};
