/* XPM */
static char *out[] = {
/* columns rows colors chars-per-pixel */
"64 64 146 2 ",
"   c None",
".  c #212034",
"X  c #222034",
"o  c #66353E",
"O  c #262642",
"+  c #362E4E",
"@  c #2A2D50",
"#  c #2E335E",
"$  c #313154",
"%  c #31355E",
"&  c #30345F",
"*  c #333762",
"=  c #373965",
"-  c #373C6C",
";  c #383C6B",
":  c #383D6C",
">  c #353C70",
",  c #383E70",
"<  c #432B44",
"1  c #413258",
"2  c #5E3851",
"3  c #593B55",
"4  c #60394D",
"5  c #7A3F47",
"6  c #3D4276",
"7  c #3C4379",
"8  c #3C437A",
"9  c #3C447E",
"0  c #5F4147",
"q  c #7F4C4B",
"w  c #664658",
"e  c #67455E",
"r  c #764B52",
"t  c #60505B",
"y  c #595766",
"u  c #5F5965",
"i  c #41477F",
"p  c #604463",
"a  c #78617D",
"s  c #854C4D",
"d  c #884950",
"f  c #925555",
"g  c #995656",
"h  c #9A5957",
"j  c #9D625B",
"k  c #9E695F",
"l  c #855C6C",
"z  c #A95D61",
"x  c #9F7063",
"c  c #876A7B",
"v  c #B16C64",
"b  c #BA6A67",
"n  c #A07869",
"m  c #B27368",
"M  c #B37A6C",
"N  c #B37B6E",
"B  c #C87470",
"V  c #D57D78",
"C  c #908072",
"Z  c #C78475",
"A  c #D28075",
"S  c #D38779",
"D  c #D48E7D",
"F  c #DD8D7B",
"G  c #E08A7E",
"H  c #414A88",
"J  c #434B88",
"K  c #434C8C",
"L  c #454E8D",
"P  c #454F90",
"I  c #454F92",
"U  c #485091",
"Y  c #4A549A",
"T  c #4C569B",
"R  c #4C579F",
"E  c #79799C",
"W  c #4C57A0",
"Q  c #4E59A4",
"!  c #4F5AA5",
"~  c #535FAE",
"^  c #5764B7",
"/  c #5864B8",
"(  c #6A75A0",
")  c #7A7EA2",
"_  c #5C69C1",
"`  c #616FCB",
"'  c #9C7385",
"]  c #897590",
"[  c #887A95",
"{  c #7D8ABB",
"}  c #80809A",
"|  c #898A99",
" . c #8A899F",
".. c #A2918E",
"X. c #AB9E9E",
"o. c #868EA7",
"O. c #8487AD",
"+. c #848CAF",
"@. c #9B93A1",
"#. c #838CB2",
"$. c #8290BD",
"%. c #A298A2",
"&. c #BBA7A9",
"*. c #A4A1B1",
"=. c #C98B81",
"-. c #CA9581",
";. c #DF9B83",
":. c #C89390",
">. c #EA9783",
",. c #E29886",
"<. c #CCA18F",
"1. c #C7B091",
"2. c #CFB099",
"3. c #D0B89F",
"4. c #E0A389",
"5. c #E2AB8F",
"6. c #F5A489",
"7. c #F6AA8D",
"8. c #EFB597",
"9. c #F7B191",
"0. c #F8B895",
"q. c #F9BF99",
"w. c #F9C09B",
"e. c #FBC8A1",
"r. c #FCCFA5",
"t. c #FCD1A7",
"y. c #FFE0B1",
"u. c #8C98C8",
"i. c #919DCB",
"p. c #98A4C5",
"a. c #A2A8C3",
"s. c #A4A8C5",
"d. c #ABAEC5",
"f. c #BABBD2",
"g. c #A6AEE1",
"h. c #B4BDE8",
"j. c #B9C0D7",
"k. c #C7C7CC",
"l. c #CAD2E9",
"z. c #CBD1EF",
"x. c #D2D8E9",
"c. c #D6DDEC",
"v. c #D2D6F0",
"b. c #E1E5F7",
"n. c #F7F9FE",
"m. c white",
/* pixels */
"                                                                                                                                ",
"                                                                                                                                ",
"                                                                                                                                ",
"                                                                                                                                ",
"                                                                                                                                ",
"                                                                                                                                ",
"                                                                                                                                ",
"                                                                                                                                ",
"                                                                                                                                ",
"                                                          7 ^ ` ` ` R &                                                         ",
"                                                      = ^ ` ` ` ` ` ` ` U                                                       ",
"                                                      ^ ` ` ` ` ` ` ` ` ` 7                                                     ",
"                                                    7 ` ` ` ` ` ` ` ` ` ` ^                                                     ",
"                                                    ^ ` ` ` ` ` ` ` ` ` ` ` ;                                                   ",
"                                                O % ` ` ` ` ` ` ` ` ` ` ` ` L 6                                                 ",
"                                                  : ` ` ` ` ` ` ` ` ` ` ` ` / .                                                 ",
"                                                  8 _ ` ` ` ` ` ` ` ` ` ` ` ~                                                   ",
"                                                  Y ~ ` ` ` ` ` ` ` ` ` ` _ ! *                                                 ",
"                                                  ! ! _ ` ` ` ` ` ` ` ` ` ~ ! :                                                 ",
"                                                  ! ! ! ~ / _ ` ` ` / / ! ! ! :                                                 ",
"                                                  ! ! ! ! ! ! ! ! ! ! ! ! ! ! :                                                 ",
"                                                  ! ! ! ! ! ! ! ! ! ! ! ! ! ! 8                                                 ",
"                                                * ! ! ! ! ! ! ! ! ! ! ! ! ! ! Y                                                 ",
"                                                : ! ! ! ! ! ! ! ! ! ! ! ! ! ! !                                                 ",
"                                                : ! ! ! ! ! ! ! ! ! ! ! ! ! ! !                                                 ",
"                                                : ! P ! ! P ! ! ! ! P ! ! P ! !                                                 ",
"                                                : ! K ! ! 9 ! ! ! ! H Y ! K ! !                                                 ",
"                                                : ! > ! ! # ! ! ! ! H 8 ! H K !                                                 ",
"                                                i / @ _ _ X Y _ ` ~ 8 6 ` I : ` -                                               ",
"                                                6 Q X _ ` X , ` ` / * % ` L u Q Q                                               ",
"                                              h 1.C t.+ W y +.J / Q | k.T % y.C 0                                               ",
"                                              5.y.y.N c t o.( a.* $ l.x.} 0 y.y.5.                                              ",
"                                            h q.r.w.w 4.y.y.<.' &.:.2.3.N a w.r.q.h                                             ",
"                                            ;.q.q.m p y.y.y.y.S g e.y.3. .E m q.q.;.                                            ",
"                                          h q.q.0.4 p.#.X...y.-.8.X.) j.n.f.3 0.q.q.h                                           ",
"                                          ;.q.q.m   z.m.m.c.d.O.s.c.m.m.*.3.  m q.q.;.                                          ",
"                                        h q.q.0.  j ] j.m.m.b.g.m.m.m.%.y.y.j   0.q.q.h                                         ",
"                                      q q.q.q.m   f 6.=.[ u.g.i.h.v.@.y.y.e.j   m q.q.q.q                                       ",
"                                    q 6.G 9.M     d b b >.=.[ { $.] 6.6.6.B j     M 9.G 6.q                                     ",
"                                    j v j 5 z     f 6.>.v j j l e m x x x D j     z 5 j v j                                     ",
"                                          o         6.6.6.6.6.F v q.q.q.q.q.        o                                           ",
"                                                    A 6.6.6.6.6.,.q.q.q.q.;.                                                    ",
"                                                    f 6.6.6.6.6.,.q.q.q.q.x                                                     ",
"                                                      V A G G B Z q.q.q.q.k                                                     ",
"                                                      g q.q.q.;.Z q.q.q.q.                                                      ",
"                                                      j q.q.q.;.M q.q.q.;.                                                      ",
"                                                      j 7.r.r.n x q.q.q.k                                                       ",
"                                                      2 e.q.q.w.x q.q.q.2                                                       ",
"                                                        m q.q.9.x q.q.q.<                                                       ",
"                                                        2 0.q.D x q.q.;.1                                                       ",
"                                                          r x r x q.q.x                                                         ",
"                                                                s q.q.s                                                         ",
"                                                                1 x x 1                                                         ",
"                                                                                                                                ",
"                                                                                                                                ",
"                                                                                                                                ",
"                                                                                                                                ",
"                                                                                                                                ",
"                                                                                                                                ",
"                                                                                                                                ",
"                                                                                                                                ",
"                                                                                                                                ",
"                                                                                                                                ",
"                                                                                                                                "
};
