/* XPM */
static char *out[] = {
/* columns rows colors chars-per-pixel */
"64 64 159 2 ",
"   c None",
".  c #2D2031",
"X  c #332030",
"o  c #44202C",
"O  c #66353E",
"+  c #272847",
"@  c #2A2D50",
"#  c #2D2E50",
"$  c #313359",
"%  c #31355E",
"&  c #30345F",
"*  c #36375E",
"=  c #3A355C",
"-  c #313662",
";  c #333864",
":  c #373965",
">  c #383C6B",
",  c #383D6C",
"<  c #353C70",
"1  c #383E70",
"2  c #432B44",
"3  c #492C45",
"4  c #593345",
"5  c #4A3B50",
"6  c #413258",
"7  c #5E3851",
"8  c #713B44",
"9  c #7A3F47",
"0  c #3C447E",
"q  c #57474D",
"w  c #714144",
"e  c #7F4C4B",
"r  c #6D465E",
"t  c #714A53",
"y  c #775356",
"u  c #504269",
"i  c #595766",
"p  c #41477F",
"a  c #4E527B",
"s  c #624965",
"d  c #624F65",
"f  c #635669",
"g  c #884950",
"h  c #8C4950",
"j  c #8D565C",
"k  c #925555",
"l  c #9A5957",
"z  c #9C5359",
"x  c #9D625B",
"c  c #9E695F",
"v  c #A6605E",
"b  c #88596F",
"n  c #845D77",
"m  c #A95D61",
"M  c #B05D62",
"N  c #9F7063",
"B  c #9F7165",
"V  c #B16C64",
"C  c #BA6A67",
"Z  c #BD676A",
"A  c #A07869",
"S  c #B37A6C",
"D  c #A97778",
"F  c #BD7971",
"G  c #C5776D",
"H  c #CB7173",
"J  c #C87470",
"K  c #D57D78",
"L  c #908072",
"P  c #B48272",
"I  c #C78475",
"U  c #C98372",
"Y  c #CA8A76",
"T  c #C88C7B",
"R  c #D28075",
"E  c #D48E7D",
"W  c #DD8D7B",
"Q  c #CB907A",
"!  c #E08A7E",
"~  c #414A88",
"^  c #434B88",
"/  c #434C8C",
"(  c #454E8D",
")  c #454F90",
"_  c #485092",
"`  c #4A549A",
"'  c #4C579F",
"]  c #5D6182",
"[  c #666289",
"{  c #7B6E87",
"}  c #7F688B",
"|  c #4E59A3",
" . c #4F5AA5",
".. c #515BA5",
"X. c #535FAD",
"o. c #535FAE",
"O. c #5764B7",
"+. c #5864B8",
"@. c #7579A0",
"#. c #747DAB",
"$. c #5C69C1",
"%. c #616FCB",
"&. c #817C8F",
"*. c #8A818F",
"=. c #8A899F",
"-. c #A2918E",
";. c #A88E92",
":. c #AB9E9E",
">. c #8487AD",
",. c #8C8CAE",
"<. c #9592AA",
"1. c #9396B4",
"2. c #9BA0B7",
"3. c #A2A0B5",
"4. c #B9B1B0",
"5. c #BDB6B3",
"6. c #CB9A8B",
"7. c #DF9B83",
"8. c #EA9783",
"9. c #E29886",
"0. c #C5A187",
"q. c #CFA88A",
"w. c #CDA893",
"e. c #D0B090",
"r. c #D0B89F",
"t. c #ECA48B",
"y. c #E2AB8F",
"u. c #F5A489",
"i. c #F6AA8D",
"p. c #E3B293",
"a. c #F7B191",
"s. c #F8B895",
"d. c #F8B997",
"f. c #F9BF99",
"g. c #F9C09B",
"h. c #FAC79F",
"j. c #F2C4A1",
"k. c #FBC8A1",
"l. c #FCCFA5",
"z. c #FCD1A7",
"x. c #FDD7AB",
"c. c #FFE0B1",
"v. c #8893C6",
"b. c #919DCB",
"n. c #9BA5D6",
"m. c #A4A8C5",
"M. c #ABB1D1",
"N. c #B1BBD7",
"B. c #A6AEE1",
"V. c #B4BDE8",
"C. c #B9C0D7",
"Z. c #BCC3E2",
"A. c #C3C9E2",
"S. c #CBD1EF",
"D. c #D6DDEC",
"F. c #DEE2EC",
"G. c #D9E0F6",
"H. c #F7F9FE",
"J. c white",
/* pixels */
"                                                                                                                                ",
"                                                                                                                                ",
"                                                                                                                                ",
"                                                                                                                                ",
"                                                                                                                                ",
"                                                                                                                                ",
"                                                                                                                                ",
"                                                                                                                                ",
"                                                          & p p p >                                                             ",
"                                                      : ' %.%.%.%.%.O.(                                                         ",
"                                                    : %.%.%.%.%.%.%.%.%...                                                      ",
"                                                    ' %.%.%.%.%.%.%.%.%.%.&                                                     ",
"                                                  & %.%.%.%.%.%.%.%.%.%.%.'                                                     ",
"                                                  p %.%.%.%.%.%.%.%.%.%.%.%.                                                    ",
"                                                % p %.%.%.%.%.%.%.%.%.%.%.%.$ #                                                 ",
"                                                + ' %.%.%.%.%.%.%.%.%.%.%.%.-                                                   ",
"                                                .  .%.%.%.%.%.%.%.%.%.%.%.+.,                                                   ",
"                                                X  .+.%.%.%.%.%.%.%.%.%.%. .,                                                   ",
"                                                =  . .+.%.%.%.%.%.%.%.$.o. ./                                                   ",
"                                                ,  . . . . .+.+.+.o. . . . . .                                                  ",
"                                                ,  . . . . . . . . . . . . . .                                                  ",
"                                                ,  . . . . . . . . . . . . . .                                                  ",
"                                                )  . . . . . . . . . . . . . .;                                                 ",
"                                                 . . . . . . . . . . . . . . .,                                                 ",
"                                                 . . . . . . . . . . . . . . .,                                                 ",
"                                                 . .)  . .)  . . . .)  . .)  .,                                                 ",
"                                                 . .)  . .)  . . . .)  . .)  .,                                                 ",
"                                                ) o.~ +. .~  .$.o. .~ o.o.~ o.;                                                 ",
"                                                u | 1 %.+.0 +.%.%.` ~ %.X.- X.                                                  ",
"                                                0.% L _ X.< o.%.$./ 0 $.f q d                                                   ",
"                                                c.c.c.5 % i ^ o. .a @ * a.f.f.                                                  ",
"                                              B c.c.y.[ J.J.2., ] 1.F.@.Q f.f.c                                                 ",
"                                              y.c.x.c h.4.5.{ N.N.&.:.c.P f.f.7.                                                ",
"                                              f.f.f.P c.c.c.c.F c.c.-.=.>.;.f.f.l                                               ",
"                                            l f.f.7.*.r.c.c.z.D =.m.D.J.J.>.f.s.W                                               ",
"                                            S f.f.c S.C.3.3.,.N.H.J.H.A.3.6.c u.u.l                                             ",
"                                            s.f.f.s V.H.J.H.V.G.H.Z.<.r.c.d.9 u.a.s.l                                           ",
"                                          q.c.c.p.z } B.B.B.b.B.M.w.l.l.g.u.o R 9.f.f.Y                                         ",
"                                        e.c.c.j.A K M n #.n.v.#.t G G G M 8.  e v C W s.c                                       ",
"                                        x.c.T k.e R u.J g b r 4 I t.f.f.f.i.      8 O e e                                       ",
"                                        x x w     k u.u.u.! Z 9 f.f.f.f.f.S                                                     ",
"                                                  h 8.u.u.u.! c f.f.f.f.f.l                                                     ",
"                                                    H ! ! ! H N f.f.f.f.s.                                                      ",
"                                                    Z H H H m E f.f.f.f.S                                                       ",
"                                                    9 W u.W 9 s.f.f.f.f.l                                                       ",
"                                                    x u.u.u.x s.f.f.f.s.3                                                       ",
"                                                    7 u.u.u.U E f.f.f.S                                                         ",
"                                                    2 u.u.u.u.N f.f.f.N                                                         ",
"                                                      V i.a.i.N f.f.f.j                                                         ",
"                                                      j f.f.f.N f.f.f.2                                                         ",
"                                                      2 f.f.f.N f.f.f.2                                                         ",
"                                                        y N y c f.f.s.2                                                         ",
"                                                              7 f.f.S                                                           ",
"                                                                2 2 6                                                           ",
"                                                                                                                                ",
"                                                                                                                                ",
"                                                                                                                                ",
"                                                                                                                                ",
"                                                                                                                                ",
"                                                                                                                                ",
"                                                                                                                                ",
"                                                                                                                                ",
"                                                                                                                                ",
"                                                                                                                                "
};
