/* XPM */
static char *out[] = {
/* columns rows colors chars-per-pixel */
"64 64 205 2 ",
"   c #3A2839",
".  c #382B43",
"X  c #34344C",
"o  c #383949",
"O  c #292C53",
"+  c #353656",
"@  c #373A5E",
"#  c #3A3F5B",
"$  c #363A62",
"%  c #33396B",
"&  c #473D48",
"*  c #543943",
"=  c #723E46",
"-  c #3C404F",
";  c #3E4353",
":  c #3D425A",
">  c #3E4263",
",  c #3D426C",
"<  c #3C4276",
"1  c #3C447C",
"2  c #48424D",
"3  c #59434D",
"4  c #434653",
"5  c #4B4456",
"6  c #454B56",
"7  c #4B4A55",
"8  c #43425E",
"9  c #464D59",
"0  c #494E5A",
"q  c #554855",
"w  c #5C4B54",
"e  c #4C545F",
"r  c #58505C",
"t  c #66444B",
"y  c #6A4A4E",
"u  c #74444A",
"i  c #644257",
"p  c #644B55",
"a  c #6C4D51",
"s  c #764C55",
"d  c #6A5155",
"f  c #755556",
"g  c #7F5D5C",
"h  c #7F665E",
"j  c #434563",
"k  c #484561",
"l  c #454967",
"z  c #494E64",
"x  c #464A69",
"c  c #494D6B",
"v  c #5B4A6A",
"b  c #4D5561",
"n  c #4D536B",
"m  c #505762",
"M  c #515964",
"N  c #555D69",
"B  c #444875",
"V  c #4D5272",
"C  c #4E527D",
"Z  c #545373",
"A  c #7A556A",
"S  c #796560",
"D  c #61627E",
"F  c #7A667A",
"G  c #8C4C51",
"H  c #8C5153",
"J  c #825C59",
"K  c #8D5B5A",
"L  c #985C5E",
"P  c #8D615E",
"I  c #95635C",
"U  c #99635C",
"Y  c #976A5F",
"T  c #A1685E",
"R  c #875A6B",
"E  c #A35D63",
"W  c #AA5F62",
"Q  c #8B6461",
"!  c #966662",
"~  c #936C64",
"^  c #8A756D",
"/  c #9E766C",
"(  c #856776",
")  c #A86862",
"_  c #B36165",
"`  c #B36C65",
"'  c #BD6E6A",
"]  c #A7766A",
"[  c #B9766B",
"{  c #B27D6E",
"}  c #C4736D",
"|  c #C96F72",
" . c #CA7773",
".. c #D37B77",
"X. c #D57D78",
"o. c #928277",
"O. c #BA8473",
"+. c #B58A78",
"@. c #C68977",
"#. c #CA8D7A",
"$. c #D68779",
"%. c #C6907D",
"&. c #D7937E",
"*. c #E18B7E",
"=. c #E3947F",
"-. c #3E4682",
";. c #3F4885",
":. c #414984",
">. c #434C8C",
",. c #4F5487",
"<. c #444E91",
"1. c #475194",
"2. c #485295",
"3. c #4A559B",
"4. c #505A9F",
"5. c #65668A",
"6. c #78798F",
"7. c #656C97",
"8. c #4E59A4",
"9. c #505BA7",
"0. c #525DAB",
"q. c #5460AF",
"w. c #5662B4",
"e. c #5965BA",
"r. c #5967BD",
"t. c #5D6AC3",
"y. c #5F6DC8",
"u. c #616FCA",
"i. c #6270CD",
"p. c #867698",
"a. c #7C82A4",
"s. c #978996",
"d. c #B38D8F",
"f. c #B69185",
"g. c #B8AB9E",
"h. c #8A89A0",
"j. c #968FA7",
"k. c #9D97A9",
"l. c #828ABA",
"z. c #969AB8",
"x. c #A39BA7",
"c. c #9BA1BC",
"v. c #BAB1AD",
"b. c #A6A7BE",
"n. c #C49986",
"m. c #D09C83",
"M. c #DC9E84",
"N. c #E69481",
"B. c #E59A84",
"V. c #EC9D85",
"C. c #F19D87",
"Z. c #DCA689",
"A. c #C5B39C",
"S. c #C8BB9D",
"D. c #D9BC9A",
"F. c #E7A187",
"G. c #E3A789",
"H. c #E1AA8A",
"J. c #EAAB8D",
"K. c #F2A187",
"L. c #F4A388",
"P. c #F5AA8C",
"I. c #E0B08F",
"U. c #F1AF90",
"Y. c #E2B393",
"T. c #EEB492",
"R. c #ECB894",
"E. c #F1B392",
"W. c #F5BB96",
"Q. c #F6BE98",
"!. c #F9BE98",
"~. c #CCB8A6",
"^. c #E8C29E",
"/. c #F6C39B",
"(. c #FAC19A",
"). c #DAC7A5",
"_. c #D4C4B0",
"`. c #E5CBA5",
"'. c #EFCFA6",
"]. c #F7C8A0",
"[. c #ECD6AB",
"{. c #F7D4A8",
"}. c #F3DBAE",
"|. c #FBDEAF",
" X c #F9DFB0",
".X c #FAE0AF",
"XX c #FBE1B2",
"oX c #8B96C6",
"OX c #959BCB",
"+X c #9BA5D7",
"@X c #A6AAC4",
"#X c #BBB9C6",
"$X c #A0A8D5",
"%X c #A9B1E1",
"&X c #BEC4E5",
"*X c #C2C6D8",
"=X c #C4CAEC",
"-X c #CFD5E5",
";X c #CCD2EB",
":X c #D3D9E9",
">X c #DFE4EF",
",X c #E4E8F4",
"<X c #EFF1F7",
"1X c #F3F5FA",
"2X c #FEFEFE",
/* pixels */
"b N e 6 e b N M e b e e N M e 9 e e M e M N M e e e M 6 e e e e e e M N e e N M e M b e 9 0 e 6 e 6 0 e b e b b 0 6 e N b e b N ",
"b m e e e M b e b M e e b b e e e e e e e M e e e e e e e e 9 9 9 9 4 e M e e e N N b b b b e e e e e e b M b e e e 6 b e e 0 b ",
"e b e e e M e e e e e e 0 0 e e 9 e e M e e e e b b e e 6 : > , , , # : 9 b e b b b b e b b e b b b e b b b e e e e e e e e e b ",
"e e m b e b e b e 0 e e 9 e e e e e e M e e 0 e e e 0 : 1 8.y.i.i.i.r.3., 9 e b e e e e e e e e b b e 0 b e e e e b e e e b b e ",
"b e b b b e e b M e e e M e e e e M e e e e e e b 9 , w.t.i.u.t.u.t.u.u.t.8.l e e e 6 e e b b e e b 0 9 e e e e b M b e b M M b ",
"b e m m e 6 e m M e e e e e e N e e e e e e b e e , e.u.u.u.u.u.u.u.u.u.y.i.8.; e e e e m m e e ; e e b e e 6 9 b e e e b b b M ",
"9 e m N e e e e e e e 6 e e e e e 9 e e M M e 9 - ;.i.u.u.u.i.i.u.u.u.u.u.u.e., 9 e e e b e e e e e e e e b e 0 0 e b e e M M b ",
"e b m m e e e M M e e e e e e M e e e e e e e 9 : 9.u.u.u.i.u.u.u.u.u.u.u.u.u.1.; e M b e e e e M b e e 0 b e e e e e 9 e b b M ",
"e M M e e M e M e e e e e e M M b e b e b b e ; B t.u.y.i.u.u.u.i.u.u.i.u.y.u.e.: 0 b e e b e b M b b e 9 e M e e e M e e e e M ",
"e e e e e N e e e M N e e e e e e e b b b m o X B t.u.u.u.u.i.i.u.u.u.u.u.u.u.r.@ o ; e b m b e e b M e e e N M e b M N e e e e ",
"M M e e M e e M M e e e e e 9 e b b 9 9 b e X $ <.i.y.u.u.u.u.u.u.u.u.u.u.u.u.t.< , o b e b m e M e e e e e b b e b b e e e e b ",
"e M M e e N e e e e e e e e e e e e e e b M 6 + 3.y.u.u.u.i.i.u.i.u.u.i.u.u.u.t.-.: e e e e e e e e e e e N b e e e e N b e e b ",
"M e e e 9 e e e e e N e e e e e M b b b b N 9 X 3.y.u.u.i.i.y.u.u.u.u.u.i.u.y.e.-.o b b e e 0 e e M e e 9 e e e e 9 e b b b M M ",
"M e e e 0 e e e M e M e M e e N b M b b b b & . 3.w.y.u.u.u.i.i.u.u.i.u.u.u.y.q.:.  0 b e e e e e M e e e e b b e 0 e e e b e b ",
"e e M M e e 9 e e e M N M e e M b m b b b 0 & + 3.9.t.u.i.y.u.u.u.u.u.i.u.u.e.8.>.. 0 e 0 e e e e e e e e b M e e e b e e e e b ",
"b M M e e e e e e 9 e e e e e e b b b b b b 4 < 9.8.9.w.r.t.y.i.i.i.t.r.r.q.9.4.3.+ 0 e 0 0 e e M M e e e N b b e e b e M M e e ",
"M e M M M e e e e e e b b M M e b M b b e e ; < 8.8.8.8.8.8.w.w.w.w.q.8.8.8.8.8.8.$ e b e e b b M M e e ; b b M M b b b b b e ; ",
"M e e M M e 9 e e e e b b b b b M b b b e 6 ; 1 8.8.8.8.8.8.8.8.8.8.8.8.8.8.8.8.8.$ 9 M b b b e e e e e e e b M b b b e e e b b ",
"e e e e M e e e e e e e e e e b b b b b e e ; 1 8.8.8.8.8.8.8.8.8.8.8.8.8.8.8.8.8.$ 9 b b b b b b e e e e b b b b b b e e e e b ",
"b e e b e e e e e e e e b b e e b b b b e b : ,.8.8.8.8.8.9.8.8.8.8.8.8.8.8.8.8.8.1 e b b b b e e e e e e b e b e b b 9 e e e e ",
"e e b M M b M b e e 6 e b b e e e e e e e e - ;.8.8.8.8.9.8.8.8.8.8.8.8.8.8.8.8.8.;.: e b b b e e e b b b b b b b b b b e e e ; ",
"e e e e e e M e e e e e b e b e ; e e e e e , q.8.8.8.8.8.8.8.8.8.8.8.8.8.8.8.8.8.3.X e b b M b ; e b e b N M b b b N b e e e b ",
"e b b e b b e e e e 6 e e e e e e e e e M e : 8.8.8.8.8.8.8.8.8.8.8.8.8.8.8.8.8.8.1.X e M M b e b b e e e b b b e b M b e b e b ",
"e M b b b e b e e e e e e b b b e M e e e : % 8.8.1.8.8.3.3.8.8.8.8.8.2.8.8.8.3.8.1.X e M b b e M b b e e b e e e b M b b b e b ",
"e M M b b b e e e e b b e e e b e M e 0 e 0 $ 8.8.1.8.8.3.>.8.8.8.8.8.;.8.8.8.;.8.3.o b b b e e b b b e e M e e b b M e b b b b ",
"b e b M e e 6 e e e b b 0 e e e b b e e e 0 @ 8.3.;.8.8.3.<.8.8.8.8.8.;.8.8.3.1.9.2.X b b b b b b e e b b M 6 e e e b b b e e e ",
"e 6 e e b e e e b e b e e e e b M b b b e e : 2.0.-.q.w.3.;.8.w.t.q.8.;.9.r.8.;.q.:.6 e e b M b b b b e b b e e e b M b e e e ; ",
"b e e e M b b b b b M b e b e M e b b b N e 9 ,.8., w.u.8.-.0.t.u.t.3.-.e.i.3.% 0.> 6 e b b b b b e b b b b e b b M b ; e b e b ",
"e b b b M b M M b e b e e b b b b e e b b M f F 1 + ,.t.8.< 8.y.y.t.>.< e.t.x X 0 r 0 e M b b e b b b b b M M b e b e M e e e b ",
"b M b b M M M b e 9 e e b b e b e e e b e e h `.o.S.^ 1 -.O <.w.t.q.1 % ;.Z n.+.o.f e M b b b b b b e e e b M b e e e M e b M b ",
"e b b e e M b e e 0 b b b b e e e 6 e b e 7 +..X}.}./ 5.n a.6.3.8.;.7.D Z ( E.Q./.O.e e e b e e b b 9 9 b b b b e b b e e M M e ",
"b e b b M b N M b M b e b e b M e b b M M 3 I..X.X^.Q @X>X,Xb.V C 5.z.-X@X( m.(.].=.t M b b b e b e e e e M b e e b e b e e e e ",
"b e b b b b e e b b e e e e 0 M e N b e 7 R '.XX|.&.^ _.v.#Xj.p.@Xc.h.v.g.S.{ E.Q.T.I 4 e e b b e e e b e b 9 0 e e b e e e e b ",
"b b b b b b b b b e e M M e e e e e e e 2 { ].]./.{ D.}.XX X`.d.d._.).)._.s.F f./.Q.%.w e m b 9 e m b e b e e e e e e M M b e b ",
"b e 0 0 b e b b e e e b b b e e e e 0 0 2 O.Q.!.U.~ }..XXXXX|.#.).~.g.h.b.*X&Xj.R./.J.K 7 e b 0 b b b e b b e e b e b M M b e b ",
"b e 9 e e b e e e e e e e e e M M e 9 6 f H.Q.!.@.h.k.g.~.~.H.p.s.c.*X>X2X2X<Xj.+.E.P.@.w b e e b b e e b b b b e b b e e e e b ",
"b e M M b b b 0 e e e 6 e e M N M b e e Q R.Q.!.U c.:X*X#X#X@X$X-X1X2X1X;X@Xk.f.T V.K.F.I 0 e e N b b b e e e e e M e e e e e b ",
"e e b b b M e e e e e e e e e e e e e w %.W.Q.H.A $X,X<X<X<X;X=X1X1X;X@Xk.).`.R.H $.L.E.G.P q e e e b b e e b b e e 6 e e e e b ",
"b b b e e b b e e e e b e e 0 e e e 7 ~ ].{.{.m.s p.%X=X=X=X+X+X=X*Xx.A.|.|.].G.u T =.J.(.U.{ d e e e b b b e b e e e e e M M e ",
"b b e e e e M b b M e e e e e b M 7 ^ `. X|.}.{ _ E p.oX+X%X+XoXOXs.G.E.U.J.$.&.y y $.$.M.U.W.@.d e e e e b e b M e e M e b e b ",
"b e e e e b M b b b e e b b e e 0 S `..X[.D.`.I @. .E R 5.l.l.7.v u ' } } [  .&.y 7 y H W ' @.Y.f e e e e e e b e b e N e e b e ",
"e b e e ; b e b e b b e b b b e 9 P '.'.&.Z.%.y } K.N.W K R A = u $.F.E.W.Q.Q.Z.y 0 0 2 t u * J w e e e 9 e e e e e b e e M M M ",
"; b b e e e e b b b M b e M N M 9 f O.O.H J w 7 I C.K.C.C.N.| = [ /.(.!.W.W.Q.O.w e e e 0 4 e 4 e e e e e e e b M e e e e e b N ",
"e e b b b b M b b b M b e b e M e e 2 7 2 7 e 7 H N.L.L.C.C.N.u &.(.!.!.Q.Q.W.] 5 b M b 0 e e e e e b e e e e e e b b M b e e b ",
"b e b b e b b e e e b b 6 0 b e e e e e e e 7 6 * ' V.C.K.K.*.G Z.(.!.!.Q.!.Z.y e e m e e e e e e e e e e e b e e M b b e e N e ",
"b b b b e 0 e e e 0 b e 0 e e e 0 e M M b M 0 9 * W ......X. .H H.(.!.!.!.(.@.3 e e m b e e e b e M e e e b b e e b e e e M M e ",
"b e b e e 6 e e 0 6 e e b b M e 9 e M M e N e e 7 L | .. .| _ W E.!.!.!.Q.!.K 0 e m N e b e b e e e e e b M b b e e e e e e e e ",
"e b e e e b b e e 6 b M e M M e b e e e e e e e e = } =.=.$.H ` !.Q.!.!.!.J.a 0 b m e e m M e e 9 e e M e b e e e M e e e e e 9 ",
"M e e 6 e M b e e e b b e b M b b b b b e b b b b y =.K.K.L.` O.!.Q.!.!.Q.O.r e e b e e b e e e e e M N e e M e M e b M e e e e ",
"b e e e e M M e e b M M b b b e b b b b b b b b z w =.K.L.L.O.` W.Q.!.Q.W.! z z n M b M b e e N e e e e e M e e e e e e M M e e ",
"b M e e e e b b e b M b b b e b b b b b b n c c c 8 ) L.K.L.=.` J.(.Q.Q.Z.p x x x n n M b e b M e e e e e e e e e e e e b M e M ",
"e M b b b e e b b e e e b b b e 9 b b n V c > x x 5 U L.L.K.P.U H.(.!./.Z.w l l c , c n n e 0 e e M e e e e M e e M M e e e e e ",
"e b b b M e e M M e e e b b b e 9 0 n V x x x x x x s B.P.P.P.U H.!.!.Q.m.* x x x x x x V l 9 e M M M e e e M M e b M b e e e e ",
"b e b M b e e e 0 6 e b b b b b N b n c x x x c x x 5 $.W.Q.Q.Y H.(.Q.W./ k B x l x x x x c 9 e e e e M N e N M e e e e e M N b ",
"M e e b e ; e e e e b M b b M b M n x x x x x l x c k / W.(.(.Y Z.!.Q.W.~ : c c c c x c c c n e e e e e e e M e b b N e e b e e ",
"M e b e e e e M M e M b M b M b b z x x x x x x x c j g Z.Q.R.K H./.W.W.~ : x l c x l x z , z b e e M e e e e M b b M e b e e b ",
"b e b b e e e M M e M e b M M e b z x x x x x l x x x 8 g ~ h * M.Q.W.T.Q 8 x x l c l c c x z e e e b b e b b b M e e b e e b b ",
"b b M M e 6 e M M e b e e e e e e b x x x x x x j j x x j k j 8 ] /./.Z.i x l x l c c > , c z 9 e b b b e M b b b e e M b e e b ",
"M b M e e e M M e e M e e e e 6 e e V c x x x x x x x c x c c x q J J f j x j j z c n c n V b e b e b b e b e M M e b e e e e b ",
"b M M M M b b e e b M M e e e e e e n V c x x x c x x x x x x x x $ > > > x x x , n , , V N b e b e e b e e 6 e b b b M b e b N ",
"b b b b b 6 b b b e M e e e b M e e b M n c x x x l c x x x x x x x x c l x x x , z V n b b b M b e e e e e e e e e b M b b M M ",
"b e b b e 6 e b b e e e e M b b e e b b b b n x x x c x x x x x x x x x x x x x c b N b e e b M b b b e b M e e e M e M M b b b ",
"b b M M e b e e e e e M M M e e e e b M b b b b n c z c x x c l x x x c c l z n e b e e e e e b b b e b M M b e M M b e M M b b ",
"b b b M b b b M M b b M b b M M N b n b b 6 M b b M b b n z b n z n b z n b 9 0 e b b e e e 6 b b b b e b b e e M N e b b M N N "
};
