/* XPM */
static char *out[] = {
/* columns rows colors chars-per-pixel */
"64 64 207 2 ",
"   c #57323C",
".  c #352D47",
"X  c #33344C",
"o  c #36394C",
"O  c #3A3D4C",
"+  c #2D315C",
"@  c #333554",
"#  c #363952",
"$  c #373959",
"%  c #363B5D",
"&  c #3B3C5A",
"*  c #2F3565",
"=  c #3B3E64",
"-  c #383D68",
";  c #393F73",
":  c #483E4A",
">  c #563D49",
",  c #463C54",
"<  c #563F54",
"1  c #783F4F",
"2  c #3D414C",
"3  c #3D4256",
"4  c #3C4164",
"5  c #3C416D",
"6  c #3A4174",
"7  c #3C447C",
"8  c #46414D",
"9  c #5A474D",
"0  c #424654",
"q  c #4A4453",
"w  c #454B56",
"e  c #4C4C55",
"r  c #42455D",
"t  c #4B425E",
"y  c #464D59",
"u  c #494F5A",
"i  c #544255",
"p  c #544B54",
"a  c #5C4A52",
"s  c #574958",
"d  c #4C545F",
"f  c #52505A",
"g  c #67414A",
"h  c #71424D",
"j  c #7D464F",
"k  c #644756",
"l  c #624B52",
"z  c #7B4E54",
"x  c #695157",
"c  c #775659",
"v  c #7C605B",
"b  c #434563",
"n  c #454966",
"m  c #494F65",
"M  c #43466A",
"N  c #464A69",
"B  c #494D6C",
"V  c #4D5561",
"C  c #4D536B",
"Z  c #505764",
"A  c #515964",
"S  c #555D69",
"D  c #4A4E71",
"F  c #424678",
"G  c #4F5473",
"H  c #73576C",
"J  c #635576",
"K  c #75606D",
"L  c #82444C",
"P  c #834A4F",
"I  c #864D58",
"U  c #835553",
"Y  c #8B5955",
"T  c #875759",
"R  c #955759",
"E  c #9D555A",
"W  c #A5565B",
"Q  c #94625B",
"!  c #A2655E",
"~  c #A95D62",
"^  c #A55F69",
"/  c #8E6C6B",
"(  c #986863",
")  c #9E736C",
"_  c #AC6466",
"`  c #AD6964",
"'  c #B46D67",
"]  c #BB666A",
"[  c #A7776C",
"{  c #B9726A",
"}  c #A17073",
"|  c #B37D76",
" . c #C26A6E",
".. c #C3756C",
"X. c #C76E71",
"o. c #C86F71",
"O. c #CB7173",
"+. c #C57F71",
"@. c #D57778",
"#. c #95867E",
"$. c #AD8373",
"%. c #AD897C",
"&. c #B68876",
"*. c #B3957E",
"=. c #C48373",
"-. c #C68F78",
";. c #D78A7A",
":. c #CB947C",
">. c #3F4783",
",. c #3F4885",
"<. c #3F4989",
"1. c #484D83",
"2. c #434D8C",
"3. c #4D5288",
"4. c #464F90",
"5. c #475194",
"6. c #4A5396",
"7. c #4B559C",
"8. c #645D82",
"9. c #686C89",
"0. c #6C6F93",
"q. c #76759B",
"w. c #4C57A1",
"e. c #4E59A4",
"r. c #505BA6",
"t. c #525DAB",
"y. c #5662B4",
"u. c #5764B7",
"i. c #5866BA",
"p. c #5B68BF",
"a. c #7E7DAB",
"s. c #5D6BC4",
"d. c #5F6DC8",
"f. c #616FCA",
"g. c #6170CD",
"h. c #6573D3",
"j. c #857788",
"k. c #81749C",
"l. c #9F9387",
"z. c #B78986",
"x. c #AB9B97",
"c. c #BDAB9A",
"v. c #8882A7",
"b. c #978DA5",
"n. c #9C96AD",
"m. c #888CB3",
"M. c #9B9CBA",
"N. c #AA9CB0",
"B. c #A8A0A6",
"V. c #BDABA7",
"C. c #AAA8BC",
"Z. c #B7ADB4",
"A. c #C88E82",
"S. c #D59683",
"D. c #D99A86",
"F. c #E08D81",
"G. c #E99A84",
"H. c #C8A588",
"J. c #D8A588",
"K. c #C2A293",
"L. c #DCB593",
"P. c #E9A78A",
"I. c #F4A489",
"U. c #F3AA8D",
"Y. c #ECB592",
"T. c #E6B997",
"R. c #F4B392",
"E. c #F6BC97",
"W. c #F9BA96",
"Q. c #F6BE98",
"!. c #F8BE98",
"~. c #C6B6A5",
"^. c #D6BEA4",
"/. c #CCBFB2",
"(. c #DEC19B",
"). c #ECC29F",
"_. c #F5C09A",
"`. c #FBC29A",
"'. c #DFC9A1",
"]. c #E3CAA3",
"[. c #F5CCA3",
"{. c #F9CDA3",
"}. c #EED4A9",
"|. c #FAD1A7",
" X c #F8D7AA",
".X c #F4DAAD",
"XX c #FBDCAE",
"oX c #F7DFB0",
"OX c #FCDFB0",
"+X c #F5E1B1",
"@X c #FDE1B2",
"#X c #8F99CD",
"$X c #9CA6D6",
"%X c #AAACC4",
"&X c #A2AAD7",
"*X c #AEB3D7",
"=X c #B0B8E5",
"-X c #BAC1D9",
";X c #C8CBDC",
":X c #D8D6DF",
">X c #CBD0E4",
",X c #D3D9E8",
"<X c #DADEF2",
"1X c #E2E3EA",
"2X c #E6E9F6",
"3X c #EEF0F7",
"4X c #FBFBFD",
/* pixels */
"V A d w d d S A d d d d S A d w A d d V A S V d d d d y u V V V V u A A d d S A d A d d d w d w d w d d d V d d d w d S A d V S ",
"V Z d d d A d A d A d d d A d d d d d d d A d d A d d d u V V V V V u d S d d d A S A d A d d d d d d d d A A d d u w d d d u V ",
"d Z V V d A d d d d d d u u d d w d d Z d A u d d d d V V d u 0 2 2 2 2 u V d d d A d d d d d d d d d d A d d d d d d d d u u V ",
"d d d Z d d d d d u d d u d d d d d V V d d u d d d d A u y 3 F ,.2.1.7 4 y u A d d d d d d d d A d d d d d d d d V d d V A d V ",
"d d d V d d d A A d d d d A d d d A Z d d d d V A d V u 4 2.t.g.h.h.h.g.i.5.5 y d d w d d d d d d d u w d d d d A A V d A A A A ",
"V d A A d w d Z A d d d d d d A d d d d V d V d d d u N u.d.g.d.d.f.f.d.g.d.s.1.y d d d A A d V y d d A d d w d d d d d d d V A ",
"w d Z A d d d d d d d w d d d A d w d V V Z d y u u 3 t.d.d.g.d.f.f.f.f.f.f.f.p.5 u d d d V d d d d d d d d d w u d V d d A A V ",
"d Z Z Z Z d d A A d d d d d d d d d d d d d d d d u 6 s.d.g.g.g.f.f.f.f.f.f.d.d.4.r V V d d d d d d d d d d d d d d d y u V V A ",
"d A V V A A d A A d d d d d A A Z d d d V Z d d V 3 7.g.f.g.f.g.g.g.f.g.f.f.f.f.u.3 V V V V d V A d d d d d A d d d A d d d d A ",
"V V d d d S d d d d A d d d d d d d Z d d A d 0 O @ s.f.f.f.f.f.g.f.g.f.f.g.f.f.f.5 r V V V V d d V A d d d A A d d S A d d d d ",
"V A d d d d d d A d A d d u w A d d y y Z A d o % ; d.f.f.f.g.f.f.f.d.g.f.f.f.f.g.7 y y d d V d A d d d d d d d d V V d d d d d ",
"V A A d d S d d d d d d d d d d d d d d d A d 2 + 2.f.f.f.f.f.f.g.f.g.g.f.f.g.f.g.5.+ 3 d d d d A d d d d S A d d V d S A d d V ",
"A A d d w A d d d d S d A A d d A V d d V A V d o 4.f.f.g.g.f.f.f.f.f.f.g.f.f.d.g.e.X o y d u d d A d d u d d d d y d A d V A A ",
"V d d d d d d d A d A A d d d A Z A Z d V V y w $ 6.y.f.d.d.f.g.g.f.f.f.f.f.f.f.s.w.. q d d d d d d d d d d A d d u d d d V d V ",
"V V V A d d y d d d d A A d d A V A V V d V w 0 % 7.t.s.g.d.d.d.f.d.f.f.f.f.f.f.y.w.. : d d d d d d d d d d A d d d V d V d d d ",
"V A A d d d d d u u A d d d d d d d Z Z d d d 3 ; 6.w.y.s.g.g.d.f.f.f.f.g.f.s.i.e.7.X 8 w y d d A A d d d S V d d d d d A A d d ",
"A d A A V V d d d d d V V A A V V V V V d A d 2 6 ,.e.e.r.i.i.s.d.g.f.d.i.i.t.r.e.7.# d d d V V A A d d 3 A d A A d A d d V d 2 ",
"V d V V A V w d V d d V V V d V A V V V d 2 3 2 6 <.e.e.e.e.r.r.t.t.t.r.e.e.e.e.e.7.# V V V V d d d d d d d A A d d A d d d d A ",
"V d d V A d d d d d V d d d d V A V V V V d 3 4 5.5.w.e.e.e.e.e.e.e.e.e.e.e.e.e.e.7.# V V V V V V d d d d V V V d d V u d d V V ",
"V d d V V d d d d d d d V V d d V d V V d S 3 7 e.e.e.e.e.e.e.e.e.e.e.e.e.e.e.e.e.7.# V V V V V d d V d d V d V V A d w u d d d ",
"V y d A V V A V V d 2 V V V d d d d V d d d 3 <.e.e.w.e.e.e.e.e.e.e.r.e.e.e.e.e.e.7.# V V V d d d d V V V V V V V d V d d d d 2 ",
"V d V V V V V V V d V V V d V d 3 d V d d d 4 t.e.e.e.e.e.e.e.e.e.r.e.e.e.w.e.e.e.7.@ y V V A V 3 d d d V S A V V V S V d d V A ",
"V d V d V V V V d d 2 d d V d d V d V V V 2 ,.e.e.w.5.e.e.e.e.e.e.e.e.e.e.e.e.w.w.7.X y A A V d V V V d d V V V V V A V d d V V ",
"d A V V V d d d V V V d d d d A V A V 4 V 2 <.e.e.7.4.r.e.7.7.e.e.e.e.e.e.e.e.5.6.7.$ V A V V V V A V d d V V d d V A V V A d V ",
"V V A V A d d d d d V V d d d V d V d u d 2 <.e.e.,.<.r.e.2.5.e.e.e.e.7.5.r.w.7 6.7 d V V V d d d A V d d A d d d V V V V V V V ",
"V d V A d d w d d d V V u u d V V V d d d 3 5.e.e.,.7.e.7.7 7.e.r.e.e.2.<.e.7.,.7.* u d d V V V d d d V V S 3 d d d V V V d d d ",
"V w d d V d d d V d V d d d d d A V V V V 3 5 t.t.<.t.y.w.2.e.t.s.r.e.,.7.y.e.<.y.4 w d d V A V V d d d d V d V d V A A d d d 2 ",
"V d d V A V V V d V A V d V d A d V V V S A 3 4.e.6 t.g.e.,.t.s.d.s.w.,.y.f.w.6 y.4 2 d V V V V A V d V A V d V V A V 2 d d V A ",
"d V V V A V A A V V d d d d V A V d V V V V w 2 <.3 1.d.t.6 w.d.f.s.4.7 y.d.F . G 0 w A A V A d d V d V V A A V d V d V d d V V ",
"V A V V A V A V d u d d d A d d V u d V V V e 2 K c.l.3.<.* 2.u.s.y.>.+ <.G %.$.( Q f A d d V V V V d d d V A V d V d A d V V V ",
"d V V V V A V V u y V A A d d d d 2 V V V V d v '.+X.X#.3 9.9.2.t.>.= $ n j.T.Q.{.;.f d d V d d A d u y V d V d V V V d d A A V ",
"V d d V A V A A A A d d d d A A V V A S V A e $.+X.X.X[ q.-X-XB - 9.q.m.1XM.z.R.;.:.c V V V V d d d d d V A V d d V V d d d d V ",
"V d d A V V V d V V V d d u d A d A d d d A f *.@XOX].( K.V.C.8.9.>Xa.0.,X%X/ S.I.I._ : V V V V V V V d d V w u d V V V d V V V ",
"V d d d V V V V V d V V A d d V d A d d d f x ).@X@XJ.-.[.|.).} H b.q.x./.~.^.K S.I.=.9 V V V w d V V d d d d d d d V A V V d V ",
"V d u u d d V V d d d V V V d d d d u u d d v @XOX+X%.H.OXOX@XD._ '.~.c.B.b.%XM.z.G.G.T 0 d V y d V V d V V d d V d V V V V d V ",
"V d u d d V d d d d d d d V d A d A d u d f ) @XXX.X[ H.OXOX@XG.A.V.M.%X>X4X4X2Xb.S.P.T w V d V V V V d V V V V V V d d V d d V ",
"V d A A V V V y y V d w d d A S A A d A Z > D.+X@XL.K B.x.x.x.j.b.;X2X4X3X>X%XC.q.%.I.{ p d d d A V V V d d V d V V V d d d V V ",
"V d d A d A d d V d d d d d d d d d d d d z P. XOXJ.j.<X:X:X;X&X<X4X2X*Xn.x.^.^.$.' I.;.l d A d V V V V V d V V d d w d d d d V ",
"d A d d d V V d d V V V d d y d d d u w q | Q.!.`.| v.2X4X4X,X$X2X1XZ.c.}. XXX|.-.{ I.G.Y e d A V V V V d V V d d d d d d V V V ",
"d V d d d V A V V V d d d d d V d A d u c Y.[.`.!.T k.=X<X<X=X#X*XN.D.R.U.U.R.R.-.! ;.I.! e d d V V d d d V d V V V V V V V V V ",
"d d d d u A A V d A d d A V d V A A d f $. XOXXX:.E I q.&X=X&X#Xk.+.O.....;.G.U.=.! ..U.! f d d A d d d u V d V V V V A V d V V ",
"d A d d 2 A d d d d d d V d V d d d d c (.@XXX}.U ~ ~ I J a.k.0.k { P.Y.R.R.R.Y.Y R @.I.R e d d d d d d y d d d V d V d d A A V ",
"2 A V d d d d V d A A d d A S A d d d Q oX+XXXH.  ~ @.X.~ ^ I 1 P W.`.Q.E.!._.Y.U L ' ` l d d d d d d d d d V A V d d d d d A S ",
"A d d d V d A V d d S A d V d A d d d x H.'.:.l q R X.o.o.O.O.W Y `.Q.!._.E._.S.x 9 9 f u d d Z V V A d d d d V V V V A V d d d ",
"V d V V d d V V d d d d u u d d d d d f 9 l 9 8 y g X.o.o.O.O. .' `.Q.!.!.!._.$.8 d Z d d d d d d d d d d d V u d V d A d V A d ",
"V V V V V u d V d d d d u d d d d d d A d V w w m a _ o.o.O.O. .{ `.!.!.!.Q.E.[ 8 d Z d d d d d d A V d d V V u u A d d d A A V ",
"V d V d V 2 d d u w d d d d A d w d A A d S d d V f I o.O.O.o. .{ `.!.!.!.!.P.x d V A V d d Z d d d V d V A V V d V V d d d d d ",
"V V V V V V V d d y d A d A A d d d d d d d d d V u a ~ ] o. .] ' `.Q.`.!.!.J.9 V Z V d A Z d d y d V V d V d d V A d V d d d w ",
"V V 3 d d A V d d d V V d V A V V V V V V Z V d V d u h ~ o.o.W Y `.!.!.!.`.&.p V V V V V V d V d d A A d d V V V V V A d d d d ",
"V V d d V V V V d V A A V V V d d V V d d d d V V n B i _ o.O.] =.`.!.!.!.`.T B m Z V A V V V A d d d d d A V d d d V V A A d d ",
"V A V d d d V V d V V V V V d V d d d V Z V C N N b B , E o.O.E J.!.!.!.!.W.c b B B C A V V V A d d d d d V d d d d V d A V d V ",
"d A V V V V d V V V d V A V V d d d d A S D n N N N M b R o.O.P J.`.!.!.Q.:.s N N N 5 B C V u d A d A d d d A d d V V V d d d V ",
"V V V V A V d A A d V d d V A d y d V G D N N N N N N N >  .O.P J.|.XX|.{.&.t N N N N 5 C C y d d S A d A d A A d V V V d d V V ",
"V d V V V d V d d w d d d d V d A V V D N N N N N N N N < ~ O.P T.OX@XOX.X) t N n N N m 5 N N V d d d d A d S A V V V d d A A d ",
"A V d V d 2 V V d d d A V V A d A V C N N B N m N B N N b L @.P (.@XXXOX].x n B B B N B N N N C d d d A d A d d d V S d d V V V ",
"V V V d d u V A d d A V A A A V V V N N N N N N N B N N M < h > L.@XXX@XL.a n N N N N N N N N V d d d d d d d A V V A d d V d V ",
"d d A V d d d A A d V V V V A d V y N N N N N N n N N N N N b , =.|.{.[.| t M N N n N N N N n u d d V V d V V A V V d V d V d V ",
"V d A A d u d V V V V d V d d d d y C N N N N N N b n N N N N b U G.A.F.Q , N N N N N N C 4 C 4 d V V V d A V V V V V A V d d V ",
"A V V V d d A A d V A d d d d w d V V C N N N N N n N B N N B M < P j j k b M M N N G m N C C V V d V V d V A A A d V V d V d V ",
"V A A A A V d d d V S V d d d d V V V C D N N N N N N N N N N N M r b , & N N N N N N 5 D G Z V d d d V d d 2 d V V V V V d V S ",
"V V V A V u d V V d V d d V V A d d V V C D N N N N B N N N n N N N N N M N N N 4 C m C A V V A V d d V d d d d d d d A V V A A ",
"d d V V d u d d V d V V V V V V d d V A V V V B N N B N n N N N N N N N n N n M m 7 C C d V V A V V d d V A d d V A d A V A V V ",
"d d A A d d V V V d V A A A V V V d Z A V d d V C C N m n N N n N N N N B N n B V V V V d d V V V V d V A A V d V A V d A A V V ",
"V d A A d V V V A V V A V V A V S V V V d w Z V d Z V V C C C C m C C m C V w d d V V d d d 3 V V V V d V V V d A S V V V A S S "
};
