/* XPM */
static char *out[] = {
/* columns rows colors chars-per-pixel */
"64 64 145 2 ",
"   c None",
".  c #44202C",
"X  c #66353E",
"o  c #6D353F",
"O  c #262642",
"+  c #2D2E50",
"@  c #2F3258",
"#  c #303359",
"$  c #31355E",
"%  c #30345F",
"&  c #36375E",
"*  c #313662",
"=  c #333762",
"-  c #333866",
";  c #373965",
":  c #383C60",
">  c #353B6C",
",  c #373C6C",
"<  c #383C6B",
"1  c #383D6C",
"2  c #353C70",
"3  c #373F74",
"4  c #432B44",
"5  c #4E3F5C",
"6  c #5E3851",
"7  c #6B3C4B",
"8  c #3A4074",
"9  c #394178",
"0  c #3A427A",
"q  c #3C4379",
"w  c #3C437A",
"e  c #3C447C",
"r  c #3C447E",
"t  c #57474D",
"y  c #714144",
"u  c #4E476C",
"i  c #5D5E74",
"p  c #624965",
"a  c #624F65",
"s  c #635669",
"d  c #824755",
"f  c #884950",
"g  c #8C4950",
"h  c #8E4950",
"j  c #8D565C",
"k  c #925555",
"l  c #9A5957",
"z  c #9C5359",
"x  c #9E555B",
"c  c #A25359",
"v  c #9D625B",
"b  c #9E695F",
"n  c #A6605E",
"m  c #B05D62",
"M  c #9F7063",
"N  c #9F7165",
"B  c #9D737A",
"V  c #9E797E",
"C  c #B16C64",
"Z  c #BA6A67",
"A  c #BD676A",
"S  c #A07869",
"D  c #B37A6C",
"F  c #C5776D",
"G  c #CB7173",
"H  c #C87470",
"J  c #A2806F",
"K  c #A2887E",
"L  c #B68A78",
"P  c #C98372",
"I  c #D28075",
"U  c #D6847C",
"Y  c #3E4782",
"T  c #404986",
"R  c #414A88",
"E  c #434C8C",
"W  c #454E8D",
"Q  c #5E5D89",
"!  c #585D8C",
"~  c #454F90",
"^  c #485092",
"/  c #485296",
"(  c #4A549A",
")  c #4C579F",
"_  c #666289",
"`  c #7F688B",
"'  c #4E59A3",
"]  c #4F5AA5",
"[  c #515BA5",
"{  c #515CA9",
"}  c #535FAD",
"|  c #535FAE",
" . c #5764B7",
".. c #5864B8",
"X. c #7678A6",
"o. c #5C69C1",
"O. c #616FCB",
"+. c #88769B",
"@. c #948680",
"#. c #A2918E",
"$. c #A98697",
"%. c #AB9E9E",
"&. c #9592AA",
"*. c #838CB2",
"=. c #A2A0B5",
"-. c #C98B81",
";. c #CC9980",
":. c #CB9A8B",
">. c #DF9B83",
",. c #C19690",
"<. c #EA9783",
"1. c #C7B091",
"2. c #D0B89F",
"3. c #E2AB8F",
"4. c #F5A489",
"5. c #F7B191",
"6. c #F8B895",
"7. c #F9BF99",
"8. c #D9B2A0",
"9. c #F9C09B",
"0. c #FAC29D",
"q. c #FAC79F",
"w. c #FBC8A1",
"e. c #FCCFA5",
"r. c #FCD1A7",
"t. c #FDD7AB",
"y. c #FFE0B1",
"u. c #8893C6",
"i. c #96A2CD",
"p. c #97A0D3",
"a. c #AAADC4",
"s. c #ABAEC5",
"d. c #B1BBD7",
"f. c #A6AEE1",
"g. c #B4BDE8",
"h. c #C9CAD9",
"j. c #C3C9E2",
"k. c #C0C9E4",
"l. c #CBD1EF",
"z. c #D6DDEC",
"x. c #D9DDEA",
"c. c #E1E5F7",
"v. c #E8EAF7",
"b. c #F7F9FE",
"n. c white",
/* pixels */
"                                                                                                                                ",
"                                                                                                                                ",
"                                                                                                                                ",
"                                                                                                                                ",
"                                                                                                                                ",
"                                                                                                                                ",
"                                                                                                                                ",
"                                                                                                                                ",
"                                                                                                                                ",
"                                                          % ) O.O.O. .q                                                         ",
"                                                        [ O.O.O.O.O.O.O.O.;                                                     ",
"                                                      W O.O.O.O.O.O.O.O.O.O.                                                    ",
"                                                       .O.O.O.O.O.O.O.O.O.O.q                                                   ",
"                                                    < O.O.O.O.O.O.O.O.O.O.O. .                                                  ",
"                                                  $ W O.O.O.O.O.O.O.O.O.O.O.O.                                                  ",
"                                                  + } O.O.O.O.O.O.O.O.O.O.O.O.* #                                               ",
"                                                    | O.O.O.O.O.O.O.O.O.O.O.o.1                                                 ",
"                                                  @ ] o.O.O.O.O.O.O.O.O.O.O.| 1                                                 ",
"                                                  9 ] | O.O.O.O.O.O.O.O.O.o.] 1                                                 ",
"                                                  e ~ ] ] ....O.O.O.o...| ] ] 1                                                 ",
"                                                  T ~ ] ] ] ] ] ] ] ] ] ] ] ] 1                                                 ",
"                                                = ] ] ] ] ] ] ] ] ] ] ] ] ] ] 1                                                 ",
"                                                E ] ] ] ] ] ] ] ] ] ] ] ] ] ] 1                                                 ",
"                                                ] ] ] ] ] ] ] ] ] ] ] ] ] ] ] 1                                                 ",
"                                              = ] ] ~ ] ] ] ] ] ] ] ] ] ] ( ] 1                                                 ",
"                                              1 ] ] Y ] ] ~ ] ] ] ] ( ] ] Y ] ,                                                 ",
"                                              1 ] ] Y ] ] 3 ] ] ] ] Y ] ] Y ]                                                   ",
"                                                ] | R ..] ~ ] o.| ] Y | | R |                                                   ",
"                                                8 ' > O...r ..O.O.( R O.{ - }                                                   ",
"                                                  $ @.^ } 2 | O.o.E 0 o.s t a                                                   ",
"                                                  y.y.1.$ i w | / & O : 7.7.5.l                                                 ",
"                                                N y.y.3._ k.a.$ i X.j.c.V 5.4.C                                                 ",
"                                                L y.y.N 7.8.$.! k.X.*.d.K P 4.<.                                                ",
"                                                r.y.y.D t.y.t.h ,.%.y.#.%.Q 4.4.l                                               ",
"                                                y.y.r.M y.y.y.H 2.&.s.v.n.b.B 4.v                                               ",
"                                              b y.y.L &.#.#.#.+.j.n.n.v.s.=.Q 4.I                                               ",
"                                              >.q.e.b c.n.n.z.l.n.x.&.#.y.y.v 4.4.                                              ",
"                                            l 7.7.7.p g.b.n.i.g.h.:.0.0.0.9.v 4.4.k                                             ",
"                                            3.y.t.>.f ` f.f.u.p.-.F F I <.4.v Z 4.v                                             ",
"                                          l y.y.y.y G z 5 X.X.u n 6.7.7.7.7.X C 4.k                                             ",
"                                          b y.y.;.. G G G G c o 6.7.7.7.7.7.X f x                                               ",
"                                            S S     z G G G G h 7.7.7.7.7.D                                                     ",
"                                                    g G G G G m 7.7.7.7.7.M                                                     ",
"                                                      A G G G m 7.7.7.7.7.                                                      ",
"                                                      g m G A h 7.7.7.7.7.                                                      ",
"                                                        m G G h 7.7.7.7.D                                                       ",
"                                                        f G G D 7.7.7.7.M                                                       ",
"                                                        d G G M 7.7.7.7.6                                                       ",
"                                                        4 G G M t.y.y.9.4                                                       ",
"                                                          z G J y.y.y.L                                                         ",
"                                                          7 f S y.y.y.b                                                         ",
"                                                              j w.e.w.6                                                         ",
"                                                              4 U G U 4                                                         ",
"                                                                4 4 4                                                           ",
"                                                                                                                                ",
"                                                                                                                                ",
"                                                                                                                                ",
"                                                                                                                                ",
"                                                                                                                                ",
"                                                                                                                                ",
"                                                                                                                                ",
"                                                                                                                                ",
"                                                                                                                                ",
"                                                                                                                                "
};
