/* XPM */
static char *out[] = {
/* columns rows colors chars-per-pixel */
"64 64 171 2 ",
"   c None",
".  c #212034",
"X  c #44202C",
"o  c #442537",
"O  c #44273A",
"+  c #5F2F38",
"@  c #6D353F",
"#  c #262642",
"$  c #2A2D50",
"%  c #2D2E50",
"&  c #2E335E",
"*  c #343150",
"=  c #313359",
"-  c #31355E",
";  c #30345F",
":  c #333762",
">  c #333866",
",  c #373965",
"<  c #333A6C",
"1  c #353B6C",
"2  c #383C6B",
"3  c #383D6C",
"4  c #353C70",
"5  c #373F74",
"6  c #432B44",
"7  c #5B3041",
"8  c #413258",
"9  c #4E3F5C",
"0  c #5E3851",
"q  c #7A3F47",
"w  c #3A4074",
"e  c #394178",
"r  c #3C437A",
"t  c #3C447C",
"y  c #3C447E",
"u  c #53445E",
"i  c #714144",
"p  c #7F4C4B",
"a  c #714A53",
"s  c #764B52",
"d  c #625051",
"f  c #4C4C6D",
"g  c #41477F",
"h  c #4E527B",
"j  c #605771",
"k  c #7E616D",
"l  c #813F48",
"z  c #854C4D",
"x  c #884950",
"c  c #954A51",
"v  c #85545C",
"b  c #925555",
"n  c #995656",
"m  c #9A5957",
"M  c #9C5359",
"N  c #8B625E",
"B  c #9D625B",
"V  c #9E695F",
"C  c #A6605E",
"Z  c #865B60",
"A  c #B05D62",
"S  c #8E616C",
"D  c #9B6560",
"F  c #92676F",
"G  c #9F7063",
"H  c #9F7165",
"J  c #926B70",
"K  c #91677F",
"L  c #9D737A",
"P  c #B16C64",
"I  c #BA6A67",
"U  c #BD676A",
"Y  c #B27368",
"T  c #B37A6C",
"R  c #B37B6E",
"E  c #C5776D",
"W  c #CB7173",
"Q  c #A2806F",
"!  c #B68A78",
"~  c #D28075",
"^  c #D58F7F",
"/  c #DD8D7B",
"(  c #CB927C",
")  c #3E4782",
"_  c #3E4783",
"`  c #414A88",
"'  c #434B88",
"]  c #434C8C",
"[  c #454E8D",
"{  c #585D8C",
"}  c #454F90",
"|  c #485092",
" . c #485296",
".. c #4A549A",
"X. c #4A549B",
"o. c #4C579F",
"O. c #5C628E",
"+. c #5D6597",
"@. c #676A99",
"#. c #6B6F9B",
"$. c #4E59A3",
"%. c #4E59A4",
"&. c #4F5AA5",
"*. c #515BA5",
"=. c #535FAD",
"-. c #535FAE",
";. c #5764B7",
":. c #5864B8",
">. c #6E7DAE",
",. c #5C69C1",
"<. c #616FCB",
"1. c #8E7792",
"2. c #7382B0",
"3. c #8A899F",
"4. c #908F99",
"5. c #A08284",
"6. c #A2918E",
"7. c #A08291",
"8. c #9283A0",
"9. c #9B9BB5",
"0. c #9599BE",
"q. c #9B9EBD",
"w. c #B0A3A0",
"e. c #B6A0A4",
"r. c #A2A0B5",
"t. c #B9B1B0",
"y. c #BDB6B3",
"u. c #C98B81",
"i. c #CA9581",
"p. c #CC9980",
"a. c #DF9B83",
"s. c #D79E89",
"d. c #CA9B96",
"f. c #E19182",
"g. c #E29886",
"h. c #CEA186",
"j. c #CEA995",
"k. c #C7B091",
"l. c #CFB099",
"z. c #D0B89F",
"x. c #E2AB8F",
"c. c #F5A489",
"v. c #F8B895",
"b. c #F8B997",
"n. c #F9BF99",
"m. c #FAC29D",
"M. c #FAC79F",
"N. c #FBC8A1",
"B. c #FCCFA5",
"V. c #FCD1A7",
"C. c #FDD7AB",
"Z. c #FFE0B1",
"A. c #8F97C4",
"S. c #9BA5D6",
"D. c #ABAEC5",
"F. c #A4A7CB",
"G. c #B1BBD7",
"H. c #A6AEE1",
"J. c #B4BDE8",
"K. c #B9C0D7",
"L. c #B6C0D9",
"P. c #BDC6DA",
"I. c #B9C3E4",
"U. c #C0C2CB",
"Y. c #C3C9E2",
"T. c #CAD2E9",
"R. c #D2D6F0",
"E. c #E1E5F7",
"W. c #F0F4FE",
"Q. c #F7F9FE",
"!. c white",
/* pixels */
"                                                                                                                                ",
"                                                                                                                                ",
"                                                                                                                                ",
"                                                                                                                                ",
"                                                                                                                                ",
"                                                                                                                                ",
"                                                                                                                                ",
"                                                                                                                                ",
"                                                                                                                                ",
"                                                            ; g g g 2                                                           ",
"                                                        , o.<.<.<.<.<.;.[                                                       ",
"                                                      , <.<.<.<.<.<.<.<.<.*.                                                    ",
"                                                      o.<.<.<.<.<.<.<.<.<.<.;                                                   ",
"                                                    ; <.<.<.<.<.<.<.<.<.<.<.o.                                                  ",
"                                                    g <.<.<.<.<.<.<.<.<.<.<.<.                                                  ",
"                                                  - [ <.<.<.<.<.<.<.<.<.<.<.<.= %                                               ",
"                                                  . =.<.<.<.<.<.<.<.<.<.<.<.<.$                                                 ",
"                                                  ; &.<.<.<.<.<.<.<.<.<.<.<.:.:                                                 ",
"                                                  > &.:.<.<.<.<.<.<.<.<.<.<.&.3                                                 ",
"                                                  t &.&.:.<.<.<.<.<.<.<.,.-.&.3                                                 ",
"                                                > t &.&.&.&.&.:.:.:.-.&.&.&.&.3                                                 ",
"                                                t ..&.&.&.&.&.&.&.&.&.&.&.&.&.3                                                 ",
"                                              : ..&.&.&.&.&.&.&.&.&.&.&.&.&.&.3                                                 ",
"                                              ] &.&.&.&.&.&.&.&.&.&.&.&.&.&.&.3                                                 ",
"                                            ; &.&.&.) &.&.&.&.&.&.&.&.&.&.&.&.:                                                 ",
"                                            3 &.&...y &.&.&.&.&.&.&.&.&.&.&.&.                                                  ",
"                                            ; &.&.5 ..&.&.) &.&.&. .} &...&.&.                                                  ",
"                                              &.%.< &.&.&.e &.-.&.} ] &.] &...                                                  ",
"                                              w $.$ ..<.%.` ,.<.-.] -.<.` =.r                                                   ",
"                                                - k r <.X.} <.<.:.5 :.,.# ' J                                                   ",
"                                              +.A.Q k.| 4 r -.,.&.& _ h L N c.                                                  ",
"                                              { 2.! Z.k.d q.1 &.r 4.f I.L c.c.m                                                 ",
"                                                9 V.Z.Z.S R.T.* U.!.@.e.Y c.c.B                                                 ",
"                                                  Z.Z.Z.a y.d.v 7.t.z.6.5.a c.B                                                 ",
"                                                H Z.Z.x.p.Z.Z.I j.3.G.Q.Q.F.u./                                                 ",
"                                                Q Z.Z.Q B.Z.Z.1.K.Q.E.D.r.9.L c.                                                ",
"                                                x.Z.C.F 9.r.0.P.!.F.w.Z.Z.Z.B c.                                                ",
"                                                n.B.n.j J.W.J.L.Y.l.m.m.m.b.B c.B                                               ",
"                                              h.C.Z.M.u S.H.S.>.8.~ f.g.v.n.P E /                                               ",
"                                            R Z.Z.V.i.q K #.#.O.Z v.n.n.n.n.i P c.                                              ",
"                                            ^ Z.Z.s.b W A M x c G n.n.n.n.a.X B p                                               ",
"                                            X m.( p + W W W W A G n.n.n.n.G                                                     ",
"                                                      U W W W W z v.n.n.n.V                                                     ",
"                                                      x W W W W D i.i.N.n.                                                      ",
"                                                        W W W x V.Z.Z.Z.N.                                                      ",
"                                                      O W W W x Z.Z.Z.Z.n                                                       ",
"                                                        M W W C n.n.C.b.0                                                       ",
"                                                        @ A A G n.n.v.s                                                         ",
"                                                        0 c c G n.n.T                                                           ",
"                                                        6 c c z n.n.s                                                           ",
"                                                          l c c o 6                                                             ",
"                                                          7 @ @ 8                                                               ",
"                                                                                                                                ",
"                                                                                                                                ",
"                                                                                                                                ",
"                                                                                                                                ",
"                                                                                                                                ",
"                                                                                                                                ",
"                                                                                                                                ",
"                                                                                                                                ",
"                                                                                                                                ",
"                                                                                                                                ",
"                                                                                                                                ",
"                                                                                                                                "
};
