/* XPM */
static char *out[] = {
/* columns rows colors chars-per-pixel */
"64 64 198 2 ",
"   c #392839",
".  c #4D303B",
"X  c #5F303D",
"o  c #2C2E4A",
"O  c #2F314F",
"+  c #3A3A4A",
"@  c #2C3057",
"#  c #373657",
"$  c #373A54",
"%  c #383C56",
"&  c #363B64",
"*  c #363B69",
"=  c #363E72",
"-  c #483B4A",
";  c #553A49",
":  c #4A3C53",
">  c #423E5E",
",  c #573D51",
"<  c #653642",
"1  c #6A3E46",
"2  c #733D45",
"3  c #733F4B",
"4  c #3C404F",
"5  c #3E4253",
"6  c #3E435B",
"7  c #3D4465",
"8  c #3D436D",
"9  c #3B4277",
"0  c #3C447C",
"q  c #48434D",
"w  c #56424C",
"e  c #59444B",
"r  c #414554",
"t  c #454A56",
"y  c #4A4A57",
"u  c #42445C",
"i  c #4D435E",
"p  c #464D59",
"a  c #494F5A",
"s  c #524A53",
"d  c #5C4D53",
"f  c #52485B",
"g  c #4C545F",
"h  c #54515B",
"j  c #78444A",
"k  c #634E52",
"l  c #6C4C52",
"z  c #7A5454",
"x  c #444664",
"c  c #4D4662",
"v  c #454967",
"b  c #494E65",
"n  c #464A69",
"m  c #494D6C",
"M  c #5A4763",
"N  c #4D5561",
"B  c #4D536C",
"V  c #515763",
"C  c #515964",
"Z  c #505768",
"A  c #5E536D",
"S  c #555D68",
"D  c #454A74",
"F  c #4D5171",
"G  c #525576",
"H  c #70596D",
"J  c #6D6779",
"K  c #82454B",
"L  c #8B444C",
"P  c #91484F",
"I  c #864A54",
"U  c #944A51",
"Y  c #885856",
"T  c #865C5B",
"R  c #955759",
"E  c #9C5B5A",
"W  c #A6585E",
"Q  c #A4645E",
"!  c #A85D65",
"~  c #B45F63",
"^  c #8A6564",
"/  c #976966",
"(  c #91736D",
")  c #AA6463",
"_  c #A66E66",
"`  c #AD6C63",
"'  c #B86467",
"]  c #A97568",
"[  c #B2776B",
"{  c #BB7B6C",
"}  c #AA7C75",
"|  c #B87C73",
" . c #C36B6E",
".. c #C0736A",
"X. c #C86F71",
"o. c #CB7173",
"O. c #C17F74",
"+. c #A68070",
"@. c #B68475",
"#. c #BA8574",
"$. c #C68674",
"%. c #CC8D7B",
"&. c #D48979",
"*. c #CA927F",
"=. c #D0907F",
"-. c #3E4782",
";. c #3F4883",
":. c #424984",
">. c #444D8C",
",. c #4A528F",
"<. c #454F92",
"1. c #465195",
"2. c #4B559C",
"3. c #605F88",
"4. c #5E6388",
"5. c #646587",
"6. c #746984",
"7. c #746E92",
"8. c #797498",
"9. c #4C57A1",
"0. c #4E59A4",
"q. c #515CA7",
"w. c #525DAA",
"e. c #5460AF",
"r. c #5662B4",
"t. c #5A66BB",
"y. c #5C69BF",
"u. c #7079A6",
"i. c #5E6BC4",
"p. c #5F6DC8",
"a. c #616FCB",
"s. c #6371CF",
"d. c #816D8E",
"f. c #7482B2",
"g. c #89879B",
"h. c #9D8C9B",
"j. c #BB9889",
"k. c #A28C98",
"l. c #B89A94",
"z. c #8889A4",
"x. c #9A95A7",
"c. c #9895A8",
"v. c #A996A5",
"b. c #BDABA0",
"n. c #CC9B83",
"m. c #D79781",
"M. c #E18F81",
"N. c #E59783",
"B. c #E89E85",
"V. c #C7AC8E",
"C. c #CFAB8D",
"Z. c #DBA185",
"A. c #DBAC8F",
"S. c #CCB393",
"D. c #D7B49A",
"F. c #EAA68A",
"G. c #E5AD8C",
"H. c #F3A489",
"J. c #F6A488",
"K. c #EFAF91",
"L. c #E7B996",
"P. c #F4B392",
"I. c #F6BC96",
"U. c #F5BF98",
"Y. c #F9BE98",
"T. c #C3B2A4",
"R. c #E7C49F",
"E. c #F6C49D",
"W. c #FAC49C",
"Q. c #D8C2A7",
"!. c #E3CBA4",
"~. c #E7CAA6",
"^. c #F3CCA4",
"/. c #FACDA4",
"(. c #FBD2A6",
"). c #F3D5A9",
"_. c #FBD6AA",
"`. c #F5DBAD",
"'. c #FCDCAE",
"]. c #FCDFB0",
"[. c #FDE2B2",
"{. c #8E9CC9",
"}. c #929ECF",
"|. c #95A0D0",
" X c #A8ACC7",
".X c #ADB1C8",
"XX c #B6B9C6",
"oX c #A3ACDD",
"OX c #A8B4D7",
"+X c #B8BDD6",
"@X c #B6BCE8",
"#X c #D6D6DA",
"$X c #CCD3E8",
"%X c #CED4E9",
"&X c #DDE0EC",
"*X c #E8EBF5",
"=X c #EDF0F8",
"-X c #F8FAFE",
/* pixels */
"N C g t N N S C g N g g C C g p C g N N N S N g g N N 6 g g g N N g C C N N S C g C g g p a g t g p a g g N g g g t g S C g N S ",
"N V g g g C g N g C g g V g g g g g g g N C N N N g g g g g g g g g a g C g g N C S C g g g g g g g g g g C C g g a p N g a a C ",
"g N N N g C g g g g g g p g g g a g N N g N a g C g g C g a a g t p p a C g N N C C g g g C g g g g g g C g g g g g a g g g a g ",
"g g V N g g g g g g g g a g g g a g N N g g a g g g g g p 6 4 6 $ 5 $ 6 a C C g g g g g g g g g C g g g g g g g g C g g g N N N ",
"N g N N N g g V C g g g g g g g g C N g g g N N C g g 6 7 2.r.t.t.t.e.>.6 5 C N N g 6 g g N N g g g a p g g g g N S N g N S C N ",
"N g C C g t g V g g g g g g g S g g g N g g N g g g 6 e.t.p.a.a.a.a.p.i.t.<.6 g g N g g N N g g p g g C g g p a g g g g g N g S ",
"t g V C g g g g g g g p g g g g g a a N N C g a a 6 e.a.p.a.a.a.a.a.a.a.a.a.,.t g g g g N N N g g g g g g g g p a g g g g N C g ",
"g V V N g g g C C g g g g g g C g g g g g N g a 5 0 s.a.a.a.a.a.a.a.a.a.p.i.t.7 p N N N g N g g g g g g a g g g g g g a g N N C ",
"g C C g g C g S C g C g g g g C N g N N g N g g 6 0.a.p.a.a.p.s.a.a.a.a.a.a.p.>.t g N N N N g N C N N g a g C g g g N g g g g C ",
"g g g g g S g g g g C g g g g g g g N N N C g 5 8 i.a.a.s.p.s.p.a.a.a.a.a.p.a.e.5 a g g N N N g g N C g g g C C g g S S g g g g ",
"g S C g g C g g C C g g g a a C N N p t N N t + :.a.a.a.p.a.p.s.a.a.s.a.a.a.p.i.7 5 p g N N N g C g N g g C g g g N N g g g g N ",
"g S g g g S g g g g g g g g g g g g g g N N o # 1.s.p.p.s.a.s.p.a.a.a.a.a.a.p.y.* * + g g g N N g g g g g C C g g g g S C g g N ",
"g C g g a g g g g g S g g g g C C N N N N C 5 O 0.a.a.a.p.s.p.s.a.s.a.a.a.a.a.y.* % a N N a p N g N N g a g g g a p g C g g C C ",
"C g g g a g g g g C g C C g g C N C N N N N p 7 0.i.a.a.s.p.s.p.a.a.a.a.a.a.a.t.= 5 N h N N p g g C g g a g C g g g g g g N g N ",
"g g g C g g a g g C C C C g g g N C N N g g 4 * 2.t.a.a.s.p.p.s.a.a.a.a.a.a.p.r.0   g g a N N g g g g g g C C g g g N g N g g N ",
"g S C g g g g g a p g g g g C g N N N N N g 6 0 9.e.i.a.p.s.p.p.a.a.a.a.a.a.y.0.:.  y g a a g N C C g g g C C g g g g g C C g g ",
"S g C C C g g g g g g C N C C g N C N N g 5 6 ;.9.0.w.t.p.p.p.p.a.a.p.p.i.r.w.0.0 4 N g g g N N C N N g 5 C N C C g C N g N g 5 ",
"g g g C S g p g N g g g g g N N C C N g g 4 9 ;.9.0.0.0.q.w.r.i.y.y.e.q.q.0.0.q.0 5 g C C N N g g g g g g g C C N N N g g g N N ",
"g g g g C g a g g g N g g g g N N N N g 6 7 0 1.0.0.0.0.0.0.0.0.0.0.0.0.0.0.0.0.0 5 g N N N N g N g g g g N C N g N g a g g N N ",
"C g g g g g g g g g g g N N g g g g N g 5 9 1.0.0.0.0.0.0.0.0.0.0.0.0.0.q.0.0.0.,.5 N g g N C g g g N N g g g g N C g p a g g g ",
"g a g C C g C C g g 5 g N N g g g N N g 7 1.0.0.0.0.0.9.q.0.0.0.0.0.0.q.0.0.0.q.0 5 C C g N g g g g C C g g N g N g N g g g g 5 ",
"g g g g g g C g N g N g N g g g 5 g N 6 0 9.0.0.0.0.0.0.0.0.q.0.0.0.0.0.0.0.0.0.D 6 5 g N N C N 6 g g N g S C C N N S N g N N N ",
"C g g g g C g g g g 5 g N g g N N N 6 6 1.0.0.9.;.9.0.0.0.0.0.0.0.0.0.0.0.0.0.0.0 4 5 C C C N g g g g g g C g g N N C N g N N N ",
"g C C g C g g g N N N g g g g C N N 6 7 0.0.0.1.0 2.0.0.0.0.0.0.0.0.0.0.0.0.0.0.7 p g g C C N g C g g g g g g g g N C N N N N N ",
"g C C C C g a g N g N N a g g N N N 5 6 0.0.2.0 ;.0.0.0.1.0.0.0.0.2.0.0.0.0.0.2.4 a N N N N g g g N N g g C a g g N C g C N g N ",
"g g g C g g 6 g N g g C a g g N N N N 7 1.0.1.9 9.0.0.1.-.9.0.0.0.;.;.0.0.1.0.2.4 p N g g N N g N g g N N C a g g g N g g g g g ",
"g t a g g g g g N g g g g g g g C N N 6 1.e.-.9 9.w.0.;.-.0.r.0.0.;.1.w.2.>.0.1.4 g g g N N C N N N N g N N g g g N C C g N g 5 ",
"g g g C C g C g g N C N g N N C g N N N 8 w.8 & 2.i.i.;.1.t.p.t.0.;.w.i.e.0 r.:.5 g t g N C g N C g N N N N g N N C g 5 a N N N ",
"g C g C C g C C C g g g g g N N g N g g 4 9 8 N ;.i.i.0 2.a.p.p.9.0 r.a.1.@ 9.A k t a C C N C g N N g N N N C C N N g N N g g N ",
"g C C g C C C C g a g g g C g g C 6 g N C 4.S +.J w.r.8 1.i.a.t.1.= w.0.6 w u } z t g N g g N N N g g g g N C N g g g C N N N N ",
"g C g g g C g g a a g g C g N g N 5 N N G f.7.*.Q.J 9 x :.9.t.q.>.o * 4.7.%.=.N.l t g g g N g g N g a a N g N g g N N g N N C N ",
"g g g C C g S C C C C g g g C C N N C C G f.5.V.[.!.J J z.F 2.;.5.g.G  X8.=.J.B.+.g g C N N N g N g g g N C N g g N N N g g g N ",
"C g g g g g g g g g g g g g a S N C N g B G ^ ).].[.C.d.&X+Xm 5.#X*Xu.v.l...H.H.{ s h g g g g g g g g g g C p a g g g g g g g N ",
"g g g g g g S g S g g S C g g g N g g g g g ^ [.].`.+.8. Xv./ 8. XXXb.D.D./ $.H.{ q g g g g g p g C C g g g g g g g g S C g g g ",
"g g g a g g g g g g g g g g g g g g p g g s *.`.].).] C.).^.! ) D.T.x.c.c.z.H B.$.d g g g g C g g C g g C g g g g g N C C N g C ",
"C g a g g C g g g g g g g g g g N N g a g e R.[.[.D.[ ).[.).O.j.x.c.%X-X-X-X X} J.z h g g g g g g g g g g C g g g g N g g g g g ",
"g g S S g g g g a g g p g g S S C g N N N e R.].[.S./ ^.~.Q.k.+X%X=X%XOXx.c.z.( J.Y a g N C g N S g g g g g C g g C g g g g g N ",
"g g g g g S g g g g g g g g g g N N g g t ^ ).].].#.6.x.c.c. X=X*X.Xv.D.).~.Q.` $.E h g g N N N C g g C g g g g g g t g g g C g ",
"g C g g g g g g g g g g g a a C N g g t - @.^._.U.^ OX=X=X$XOX*X.Xl.)._._._./.` $.&.d g g N N g g g g C g g g g g g g g g C C g ",
"g g g g g g S C g C g g g g g g N C g t l Z.(./.U.H }.@X$XoX{.@Xh.K.M.M.H.P.P.` { =.l N g g N g C g g g g C g C C g g C N g g g ",
"C g g g g g C C C g g g g C g g V C h k S._.].].L.l 8.}.oX|.u.u.} &.F.K.P.Y.G.` ..J.` q g N g N C N g g a g g C g g g C g g C g ",
"g g g g t g g g g g g C g g g g g g h +.`.[.'.(.#.2 ! 6.7.5.3.M m.I.Y.Y.Y.Y.Z.1 Q =._ q g g N g g g g a t g g g C g C g g C C C ",
"p g g g g g g g g g S g g C S C N g k *.R.'.`.m.E ~ ' ~ 3 3 I 2 G.Y.Y.Y.I.W.$.. Y ] k g g N g g g g g g g C g C C g g g g g g S ",
"g g g g C g C g g g S C g C g C g g w j S.).n.z 2  .X.X.o.o.~ 3 G.Y.Y.Y.I.W.T h d s g g a g N N g C C g g g g C g g g C g g g C ",
"N g C N g g C g g g g g t g C g g g g h T / e - - ! X.o.o.o. .K m./.I.I.I.Y.z g N g N g g g g g g N g g g g N 6 a C N N g g C g ",
"N g g N g a g g g a g g a g g g a g g g r r p t y U X.X.o.o.o.j ) B.F.P.Y.K.l a g N V N g g g N g N N g g N N g g N N g g C C C ",
"g g g g g p g g a t g g g g g g p g C C N C h g N l o.X.o.o...E n.A.A.E./.@.s g N N S N N N g g g N N g N C N g g g N g g g g g ",
"N N g g g N g g g p g C g C C g g g N g g g g g N d W o.o.o.Q @.].].].].`.] q a N N g g C V g g 5 g N N N N g N N C g N g C g 5 ",
"C g a p g C N g N g N N g N C N N N N N N N N g N y P o.X.o.W *.[.].].].L.T g g g N N N N N g g N g C C g g N N N N N C g g g g ",
"C g a g N N N N g N C C N N N g b N N g N N N B m x z X.X.o.W *.(./.'.).| i b B N N N C N g N C N N N N g C g g g g N g C C g g ",
"g C N g g N N N g N N N N N g N N N N N Z B n n v x , ' o.X.E G.W.I./.K.Y x n n m B N Z g g g C g g N g g C N g g g N g N C g N ",
"g C C N N g g N N g N g C N N g a N N F F n 7 n n v : U W W Y L.I.Y.K.^ u x v n n n m B N g g g N N N g g g N N g N C g g g g N ",
"g C N N C g N C C g g g g N C g p N F n n n n n n n x 3 U L Y P.I.W.| i n 7 m n n n 8 m F g t g N C N N N g C C g N C N g g g N ",
"g g C N N g g g a t g g g g N g S B m n n n n n n n x < U P I G.E.U.T u n v v n n n n b n b t g N N N N C N C C g g g g g C C g ",
"C g g N g t g g g g g C g C C g Z m n n n m n v n m x 1 U P L R _ ^ f n m n n m m m n m m B g g N g g N g N N N g N C C g N C g ",
"C g N g g a g N C g C N C C C N N v n n v n n n n n D : K P U X $ > n n m n n n n n n n 7 v g g g g N g g N N N C N C g g g g N ",
"g g g C g a g C C g C g g C N g N m v n n n v n v v n i ; < < : b m v n n n n n b 7 b n 8 B g g N g N N N N g N C g g N g N g N ",
"C g C C g p g N C g C g g g g g N m x n n m n n x x n n c x > x n n v n m n v n B 7 m n n B a p g g N N N N N N g g g C N g g N ",
"C g C g g g S C g g C g N g g 5 g B m n n n n n n n n m n n m n n v n n v v x v m m B B F Z N N g g N N g N N C C g N g N N g N ",
"g C C C C C g g g N C C g g N N g N F D m n n n n n n n n n n n n v n v x v v v 7 B 7 0 S Z N g N g N g g g t g N N N C N N N C ",
"g g C g N p g N N g N g g N C N g g N N m n v n n n m n n n n n n n m n v n n n 7 B Z N N N g C N g g g N N g g g N N C N N C C ",
"C g g C g a g g N g N g N N N C N g N C B N B n n n m n n n n n n n n n n n n v N C C N g g N C N N g g N C g g N N N C N C N N ",
"g g C C g g g g N g N C C C N g N g C C N g B N B b m n n n n n n n n m b v m N g g g g N g g g N N N N N C N N N C N N C C N N ",
"C g C C N g N C C N N C N N C N S N N g g t N N N V N B N N B b N B N B N N t b N g N N N a a N N g N g N N N N C C N N N C C S "
};
