/* XPM */
static char *out[] = {
/* columns rows colors chars-per-pixel */
"64 64 203 2 ",
"   c #24243D",
".  c #42343F",
"X  c #282A4B",
"o  c #332E49",
"O  c #33354D",
"+  c #373A4C",
"@  c #2C2D53",
"#  c #363952",
"$  c #31345E",
"%  c #363A5E",
"&  c #363B63",
"*  c #363C6B",
"=  c #373E73",
"-  c #453B4B",
";  c #553C47",
":  c #463D56",
">  c #593E56",
",  c #693B44",
"<  c #3C414E",
"1  c #3E4353",
"2  c #3B415B",
"3  c #3C4165",
"4  c #3C426C",
"5  c #3E4474",
"6  c #3D447B",
"7  c #4A434E",
"8  c #56454D",
"9  c #59444C",
"0  c #434552",
"q  c #4C4751",
"w  c #454B56",
"e  c #4C4C56",
"r  c #48475C",
"t  c #474D59",
"y  c #494F5A",
"u  c #534553",
"i  c #5C4654",
"p  c #544A52",
"a  c #5D4B54",
"s  c #564A5B",
"d  c #4C535F",
"f  c #585159",
"g  c #6D4246",
"h  c #63454E",
"j  c #6B4B4F",
"k  c #7B474B",
"l  c #684A53",
"z  c #744E54",
"x  c #6D5357",
"c  c #785658",
"v  c #444564",
"b  c #464A66",
"n  c #494F65",
"m  c #464A69",
"M  c #494D6C",
"N  c #524D6D",
"B  c #4D5561",
"V  c #4D546B",
"C  c #515663",
"Z  c #515964",
"A  c #54576B",
"S  c #555D69",
"D  c #4A4E71",
"F  c #44497A",
"G  c #4D5272",
"H  c #555675",
"J  c #635163",
"K  c #745160",
"L  c #5D617F",
"P  c #7E6479",
"I  c #91504F",
"U  c #8C4E53",
"Y  c #865859",
"T  c #8A595B",
"R  c #9D5B5D",
"E  c #A45D5E",
"W  c #86625E",
"Q  c #8D615E",
"!  c #94645E",
"~  c #98665F",
"^  c #A4695F",
"/  c #8A6C69",
"(  c #9B6B65",
")  c #9A6967",
"_  c #8F6D72",
"`  c #A56B63",
"'  c #B56766",
"]  c #BD6D6B",
"[  c #A5746A",
"{  c #A9796B",
"}  c #B47169",
"|  c #B77D6E",
" . c #B17A74",
".. c #C27B6E",
"X. c #CB7C71",
"o. c #D07F74",
"O. c #BA8976",
"+. c #C48373",
"@. c #C78977",
"#. c #D48779",
"$. c #DD8C7D",
"%. c #C9927C",
"&. c #D2957F",
"*. c #DE937D",
"=. c #E08D7F",
"-. c #E3947E",
";. c #3E4784",
":. c #3F4885",
">. c #444A87",
",. c #444C8B",
"<. c #555983",
"1. c #474F91",
"2. c #475195",
"3. c #495193",
"4. c #465098",
"5. c #4A549B",
"6. c #686985",
"7. c #6B6A90",
"8. c #79779A",
"9. c #4C56A0",
"0. c #4E59A5",
"q. c #505BA6",
"w. c #515DAA",
"e. c #525FB0",
"r. c #5662B4",
"t. c #5864B5",
"y. c #5966BA",
"u. c #5B68BF",
"i. c #6F78A4",
"p. c #5E6BC5",
"a. c #5F6DC9",
"s. c #616FCA",
"d. c #6270CD",
"f. c #6372D0",
"g. c #93798D",
"h. c #928B9B",
"j. c #A78788",
"k. c #B4958E",
"l. c #B8A69C",
"z. c #8685A4",
"x. c #8D8EAF",
"c. c #9696AC",
"v. c #999AB7",
"b. c #A298A2",
"n. c #ACA3A4",
"m. c #B7A9A4",
"M. c #A9A8B8",
"N. c #CE9582",
"B. c #D99482",
"V. c #DC9C83",
"C. c #E79A83",
"Z. c #C8A588",
"A. c #DFA68A",
"S. c #C4A492",
"D. c #C8B49B",
"F. c #D9BB99",
"G. c #E6A589",
"H. c #E6AD8D",
"J. c #ECAC8E",
"K. c #F3A287",
"L. c #F4A388",
"P. c #F8AC8E",
"I. c #E8B18F",
"U. c #ECB492",
"Y. c #EEBB96",
"T. c #E2B998",
"R. c #F2B493",
"E. c #F6BC97",
"W. c #F9B894",
"Q. c #F7BE98",
"!. c #F9BF98",
"~. c #C9B9A2",
"^. c #F6C49D",
"/. c #F9C39C",
"(. c #DAC7A8",
"). c #F3C9A2",
"_. c #FBCBA2",
"`. c #E9D8AD",
"'. c #F8D3A7",
"]. c #F6DBAD",
"[. c #FBDDAE",
"{. c #F0E0B0",
"}. c #FCE2B2",
"|. c #8B98C6",
" X c #939DCD",
".X c #99A3D4",
"XX c #A2A5C2",
"oX c #AFB7CF",
"OX c #BAB7C4",
"+X c #B2B9D5",
"@X c #ACB5E3",
"#X c #B3BBE2",
"$X c #BCC4E5",
"%X c #C3C6D6",
"&X c #C4CBE1",
"*X c #CBD1E2",
"=X c #DADBE2",
"-X c #DBDFF2",
";X c #E3E7F4",
":X c #E5E9F3",
">X c #EAEBF3",
",X c #F3F3F7",
"<X c #F9FAFC",
/* pixels */
"B Z d w d B S Z d d d d Z Z d t B B B B B S B d B B B 1 d d d B B d Z Z B B S B d Z d d y t d 1 d t y d B d B B d w d S Z d B S ",
"B Z d d d Z d B B Z d d Z d d d d d B d B Z B B B d B d d d d d B d y y S d B B Z S Z d B B d d d d d d d B B d d d t d d y t Z ",
"d C B B B Z d d d d d d d y d d t d B B d B y d d d B B d y < < < < < y d B B d B Z B d B B d B B d d B B Z d d d d d d d d d d ",
"d d B B d d d d d d d d t d d d y d B B d d t d B d d d 1 4 ,.3.1.3.6 3 1 d B B d d d d d d d d Z d d d d d d d d d d d d B d d ",
"B d B B B d d B Z d d d d d d d d B B B d B B B B d 1 5 5.u.s.f.f.d.d.t.3.2 d B B d 1 d d B d d d d d t d d d d d S d d Z Z S d ",
"B d Z Z d 0 d Z Z d d d d d d S d B B B d d B d d 1 6 u.s.d.s.s.d.s.a.a.a.t.4 1 d B B B B B B d 1 d d B d d t y d d d d d d d Z ",
"t d Z Z d d d d d d d w d d d d B t y B B B B t w 4 t.d.s.s.s.s.s.s.s.s.s.d.0.2 d d d d B B d B d d d d d d d t d d d d d Z S d ",
"d B Z d Z d d Z Z d d d d d d Z B y d d B B B y < 2.d.a.d.s.s.s.d.s.s.s.s.s.p.5 1 B B B d B d d Z d d d y d d d d d d t d d Z Z ",
"d Z d Z Z Z d Z d d d d d d Z Z B d B d B B d w & t.s.s.d.s.s.s.s.s.d.s.s.a.s.q.1 d d d B B B B Z B B d d d Z d d d Z d d d d Z ",
"Z d d d d S d d d Z S d d d d d d d B B B Z < O >.s.s.s.s.s.d.s.s.s.s.s.d.s.a.u.% + 1 d B B B d B B B d d d Z Z d d S S d d d d ",
"d Z d d d d d d Z d d d d d t d d B t t B d o $ 5.s.s.s.s.d.s.s.s.d.d.s.s.a.a.p.>.4 + d d B B B Z d B d d d B B d d d d d d d d ",
"d Z Z d d S d d d d d d d d d d d d d d B Z w # e.s.s.s.s.s.s.s.s.s.s.s.d.a.d.a.2.+ d d d d B B B d d d B Z B d d d d S B d d Z ",
"Z Z d d t Z d d d d S d d d d d Z B B d B Z d 2 w.s.s.s.s.s.s.s.s.d.s.s.s.s.s.p.,.2 B B d y t B d B B d t B d d d t d B d B Z Z ",
"Z d d d y d d d d Z d Z Z d d Z C Z B B B B 1 4 0.u.s.s.s.s.f.s.s.s.s.s.s.s.a.t.5.2 d d B d t B d B B d d d B B d d d d d B d B ",
"d Z d Z d d t d d Z d S Z d d Z B Z B B B d + 6 q.w.s.s.s.a.s.a.s.s.s.s.s.d.p.q.0.& t B y B B B B B B d d B Z d d d B d B d d B ",
"d Z Z d d d d d y y d d d Z d d B B B B d d 1 F q.q.t.u.s.s.s.s.s.s.s.d.s.u.e.0.0.& y B t y y B Z B d d d Z Z d d d d d Z Z d d ",
"Z d Z Z B d d d d d d Z d Z Z d B Z B B d d < 5 0.0.0.e.r.r.p.p.a.s.u.r.r.0.0.0.q.& B B d d d B B B B d t B d Z Z B Z B d B d t ",
"Z d d Z S d t d d d d B B d B B Z B B B d w 1 5 0.0.0.0.0.0.w.w.w.w.0.0.0.0.0.0.q.& t Z Z B B B B B d d d d B B B B B d d d d d ",
"d d d d Z d d d d d d d d d d B B B B B d d 1 6 0.0.0.0.0.0.0.0.0.0.0.0.0.0.0.0.q.* y B B B B B B d d d d B B B B B B t d d d d ",
"d d d Z d d d d d d d d B B d d B B B B d Z 1 5.0.0.0.0.0.0.0.0.0.0.0.0.0.0.0.0.0.;.1 d d B B d d d d B d B d d B B B t t d d d ",
"d t d S B B Z B d d w d B B d d d d B d d d 2 5.0.0.0.0.0.0.0.0.0.0.0.0.0.0.0.0.0.2.# d B B B d d d B Z d B d B B B B d d d d t ",
"B d d d d d Z B d d d d B d B d 1 d d d d d 2 0.0.0.0.0.0.0.0.0.0.0.0.0.0.0.0.0.0.3.O d B B Z B t d d d B Z Z Z B B S B d d d d ",
"B B d d B B d d d d t d B d d d d B d d Z d & 0.0.0.0.0.0.0.0.0.0.0.0.0.0.0.0.0.0.5.O d Z Z B d d d d d B B B B B B Z B d B d d ",
"d Z B d Z B d d d d d d d d B B d Z d y B 3 $ w.0.1.0.0.9.4.0.0.0.0.0.3.0.0.9.2.0.4.O d Z B B d d B B d d B d d d B Z B B B d B ",
"d B Z B Z d d d d d d d d d d B B B d d d t & q.0.:.w.q.4.,.0.0.0.0.9.:.q.w.5.:.0.5.+ B B B d d d B B d d Z d d d B B d B B B B ",
"B d Z Z d d t d d d d Z t d d d B B d d B t % q.5.:.0.q.>.;.0.0.0.0.9.6 4.q.9.:.0.5.O B B B B B B d d B B Z w d d d B d B B d d ",
"B w d d d d B d B d B d d B d d Z B d d B d % w.;.6 q.q.* ;.q.0.0.0.0.4 6 w.5.5 5.5.+ d d B Z B B B B d B d B d d B Z d d d d 1 ",
"B d d d Z d Z B B d Z B d B B Z B B B B Z t ,.p.= 4 y.p.$ 5 w.y.p.r.5.@ 6 p.w.$ 3.t.O d B B B B B B d B Z B d d B Z B w d B B B ",
"d B B B Z B Z B B B B d d d B B B d d B w 3 t.e.3 6 d.p.@ $ e.s.d.s.;.  ;.f.e.X 3.y.+ e Z B B d B B d B B Z Z B d B B B d d d B ",
"B B B B Z B Z B d d d d Z B d d d d d d 1 < 4 3 k.A p.4.6.L 5.s.s.w.<.O 6 a.H P 1 3 x f B B B B B B d d d B Z B B d d Z d B B B ",
"B B B d B Z B d y d d d d B B d d t y B d 8 O.F.`.f 6 z.=XM.5 w.5.G x.c.@ = C F.F.F.F.c d d d d B d y y d B B d d B d d d Z Z B ",
"B d B B Z B S Z B Z d d d d Z Z d B Z Z t ( `.}.}./ e M.=X%XA * G v.i.M.N / P [ }.}.}.O.f d B d B d d d B Z B d d B B B d d d B ",
"Z d d Z d d d d Z d d d d y y S d Z d d l &./.'./.[ g.S.n.l.k.g.b.g.k.(.`.'. .K A.'._.H.c d B B d d d B B B t y d d B d B d d B ",
"d d d d d d Z Z d d d Z Z d d Z d d d e / U.E./.@.J L ~.`.]._.+.) B.'.}.{.}.T.l [ Y.E.E.| f d t d C B d d d d d d d d Z Z B d B ",
"d d t t d Z d d d d d d d d d d d d d a %.E.E.U.T g.&Xx.n.l.(.U.' A.}.].`.~.m.6.x V.Q.Q.P.c n y d B B d B B d d d d B Z Z B d B ",
"Z d d d d d d d d d d d d Z d d Z d y ! R.W.E.%.> z.*X;X*XXXc.m. .j.~.h.b.v.+XoXN [ R.Q.!.+.u d B B d d B B B B B B d d d d d B ",
"d d S Z Z d d d d d d w d d S S Z d a &./.E.U.Q i S.m.OX,X<X;X%XM. X%X&X:X,X<X&XH l A.!.E.H.Y y S B d B d B B d d Z d d d d d B ",
"d d d d d Z d d d d d d d d d d d f ~ E.E.!.@.9 / ).].~.OX>X<X<X-X@X;X<X<X:X%Xx.) 8 ` !.E.E.O.p d d B B d d B B d d w d d d B d ",
"d Z d d d d Z d d d d d d y t d d c G.^.^.R.! - ( ).[.}.D.OX:X;X#X.X@X$XoXc.g.B.| p x V.!.E.U.( p d B B d d B d d d d d d Z Z d ",
"d B d B d d Z d Z Z d d d d y d c *.J.W.Q.@.i 0 ~ C./._.).S.c.@X|. X.Xg.j.B.=.o.E p f ( U.!.J.G.( p d d B B d B Z d d Z d B d B ",
"B d d d d d Z B d Z d d Z Z d j -.-.-.#.} g e 7 ! ] +.+.+.+.( 8.i.7._ [ +...' o.' 7 d 9 R @.C.$.*.Q 0 d d B d B d B d Z Z d Z d ",
"d B d d w d d d d d d d d d d j ..^ T k R 9 d 0 ! *.O.^ [ [ | ( > _ E ) ` o.C.K.' q y 8 R U U ~ ` ! 0 d t d d d B d d d d B Z B ",
"t d B d d d d d d Z Z d d Z S f ; 8 7 g j d S d j G./././././.-.U C.P.P.P.L.L.C.T s d d p k . p 8 8 d d d d d B Z d d d d d Z S ",
"d d d d B B Z B d d S Z d d d Z y d d q s d d d - +././.^././.I.o.L.L.L.L.L.L.$.h y Z d y q e d y d d d d d d d d d Z Z B d d d ",
"B d B B d d d d d d d d t d d d d d d d d d t t e Q /.W./.W.W.E.B.L.K.K.K.K.L.} p d Z d d d d d d d d d d d d d d Z B B d d Z d ",
"B B B B d d d B d y d d t d d d d d B Z d Z d t y x /././.E./.R.o.K.K.K.K.K.C.I 0 d Z d d d d B d d d d d B B d y B B d d Z Z B ",
"B d B d d w d d y w d d d d Z d t d Z Z d Z d d d z R.W.E.W./.R.' X.#.B.B.o.] > d C Z B d d d d d Z Z d B Z d B d d B d d d d d ",
"B B d d d B B d d t d Z d Z Z d d d d d d d d d d f +./.E./.W.R.' C.P.R.P.B.U r B C B d Z Z d d w d d d B B d B B Z d d d d d t ",
"Z d y y d Z B d d d d d d B Z B B B B B d B B d B w ( /.E.W./.U.} R.!.E.W.W.z n B B B B B B B B d d Z S d B B B B B B B B B B d ",
"B d d d B B Z d d B Z Z B B d d d B B B B B B B b b x H.E././.I., %././.!.P.z m n Z B Z B B B Z d d d d d Z d d d d B B Z B d B ",
"B Z d d d B B B d B Z Z B d d B d d d B B V n M m v u %.E.E./.I.k Z.'._./.K.z v M M V Z B B B B d d d d d B d d d d B d B B d B ",
"d Z B d B d d B B d d d Z Z B d d d d Z H V b b m M v ) E.W./.H.! ^.E.E.^.O.s m m m 4 M D B y B d Z d d d d Z B B B B B B d d B ",
"d B B Z Z d d Z B d d d d B B d t d B G D m m m m m v W Y.Q.W.I.! W.E.E.J.K b b m m m m M D t d d S Z d d d Z B d d Z B d B B B ",
"B B B B B d d d d w B B d B B B Z B V M m m m m M m 3 Y U.Q./.H.I J.E.E.+.r M M m m 3 m n 3 m B d d d Z Z Z S Z d d B B B B Z B ",
"Z B d B d w d d d d B Z B B Z B Z B V m m m M b M M v > N./.!.I.g @.Y.&.x v b M M M M D M m M B Z d d d d d Z d d B Z B d B B B ",
"B B B d d y d B B d B Z B Z Z B B B m m m m m m v M m - O./.!.J.; a z l v m b M b m m b m M 3 n d d d d d d d Z B B Z d d d d B ",
"B d Z B d d d Z Z B B B B B Z d d d b m m m m m b b m : ~ ^.^.@.; v v v M m m m m m m m m m M d d d B B d B d Z Z d d B d d d B ",
"B d Z Z d w d Z B B B B d d d d d y n m m M m m m 3 m v i { O.z v m m m M m b m m m m m m m D t d B B B d Z d B B B d Z B d d B ",
"Z B B B d d Z Z d B Z B d B d 1 d B B G m m m m m b M M b : r v m m m m m m 3 b m m V M m D V B B d B B d B d Z Z d B d d d d B ",
"B Z Z Z Z B B d B B Z B d d d d d B B V G m m m m m m m m M D m m m b v v m b m m m m 4 D V B B d B d d B d w d B B B Z B d B S ",
"B B B B B w d B B d B d d B Z B d B d B V V m m m m M m m m m v m m m m v m m m n n M V Z B B Z B d d d d d d d d d d Z Z d Z Z ",
"B d B B d y d d B B d d Z B B B d d B B d B V M m m M m m m m m m m m m m m m m 4 V V V d d d Z B B B d B Z B d B Z d Z Z Z Z d ",
"B B Z Z d B d d B d d Z Z Z B d B B B Z B d B B B V b b m m M m m m b b m M b M Z d d d d d d B Z d d B Z Z B d Z Z d d Z Z d d ",
"B B B Z B B B Z Z B B Z B Z Z B S B B d d w Z B B Z B B V B V n B V V n V B t y B d B d d d w d B B B d B d B d Z S d Z d Z S S "
};
