/* XPM */
static char *out[] = {
/* columns rows colors chars-per-pixel */
"64 64 147 2 ",
"   c None",
".  c #212034",
"X  c #222034",
"o  c #66353E",
"O  c #362E4E",
"+  c #2A2D50",
"@  c #2D2E50",
"#  c #2E335E",
"$  c #313154",
"%  c #31355E",
"&  c #30345F",
"*  c #333762",
"=  c #373965",
"-  c #363A67",
";  c #373C6C",
":  c #383C6B",
">  c #383D6C",
",  c #353C70",
"<  c #383E70",
"1  c #432B44",
"2  c #413258",
"3  c #5E3851",
"4  c #593B55",
"5  c #60394D",
"6  c #7A3F47",
"7  c #3D4276",
"8  c #3C4379",
"9  c #3C437A",
"0  c #3C447E",
"q  c #5F4147",
"w  c #7F4C4B",
"e  c #664658",
"r  c #67455E",
"t  c #764B52",
"y  c #60505B",
"u  c #595766",
"i  c #5F5965",
"p  c #41477F",
"a  c #604463",
"s  c #78617D",
"d  c #854C4D",
"f  c #884950",
"g  c #925555",
"h  c #995656",
"j  c #9A5957",
"k  c #9D625B",
"l  c #9E695F",
"z  c #855C6C",
"x  c #A95D61",
"c  c #9F7063",
"v  c #876A7B",
"b  c #B16C64",
"n  c #BA6A67",
"m  c #A07869",
"M  c #B27368",
"N  c #B37A6C",
"B  c #B37B6E",
"V  c #C87470",
"C  c #D57D78",
"Z  c #908072",
"A  c #C78475",
"S  c #D28075",
"D  c #D38779",
"F  c #D48E7D",
"G  c #DD8D7B",
"H  c #E08A7E",
"J  c #414A88",
"K  c #434B88",
"L  c #434C8C",
"P  c #454E8D",
"I  c #454F90",
"U  c #454F92",
"Y  c #485091",
"T  c #4A549A",
"R  c #4C569B",
"E  c #4C579F",
"W  c #79799C",
"Q  c #4C57A0",
"!  c #4E59A4",
"~  c #4F5AA5",
"^  c #535FAE",
"/  c #5764B7",
"(  c #5864B8",
")  c #6A75A0",
"_  c #7A7EA2",
"`  c #5C69C1",
"'  c #616FCB",
"]  c #9C7385",
"[  c #897590",
"{  c #887A95",
"}  c #7D8ABB",
"|  c #80809A",
" . c #898A99",
".. c #8A899F",
"X. c #A2918E",
"o. c #AB9E9E",
"O. c #868EA7",
"+. c #8487AD",
"@. c #848CAF",
"#. c #9B93A1",
"$. c #838CB2",
"%. c #8290BD",
"&. c #A298A2",
"*. c #BBA7A9",
"=. c #A4A1B1",
"-. c #C98B81",
";. c #CA9581",
":. c #DF9B83",
">. c #C89390",
",. c #EA9783",
"<. c #E29886",
"1. c #CCA18F",
"2. c #C7B091",
"3. c #CFB099",
"4. c #D0B89F",
"5. c #E0A389",
"6. c #E2AB8F",
"7. c #F5A489",
"8. c #F6AA8D",
"9. c #EFB597",
"0. c #F7B191",
"q. c #F8B895",
"w. c #F9BF99",
"e. c #F9C09B",
"r. c #FBC8A1",
"t. c #FCCFA5",
"y. c #FCD1A7",
"u. c #FFE0B1",
"i. c #8C98C8",
"p. c #919DCB",
"a. c #98A4C5",
"s. c #A2A8C3",
"d. c #A4A8C5",
"f. c #ABAEC5",
"g. c #BABBD2",
"h. c #A6AEE1",
"j. c #B4BDE8",
"k. c #B9C0D7",
"l. c #C7C7CC",
"z. c #CAD2E9",
"x. c #CBD1EF",
"c. c #D2D8E9",
"v. c #D6DDEC",
"b. c #D2D6F0",
"n. c #E1E5F7",
"m. c #F7F9FE",
"M. c white",
/* pixels */
"                                                                                                                                ",
"                                                                                                                                ",
"                                                                                                                                ",
"                                                                                                                                ",
"                                                                                                                                ",
"                                                                                                                                ",
"                                                                                                                                ",
"                                                                                                                                ",
"                                                                                                                                ",
"                                                        & E ' ' ' / 8                                                           ",
"                                                      Y ' ' ' ' ' ' ' / =                                                       ",
"                                                    8 ' ' ' ' ' ' ' ' ' /                                                       ",
"                                                    / ' ' ' ' ' ' ' ' ' ' 8                                                     ",
"                                                  : ' ' ' ' ' ' ' ' ' ' ' /                                                     ",
"                                                % P ' ' ' ' ' ' ' ' ' ' ' ' - @                                                 ",
"                                                . ( ' ' ' ' ' ' ' ' ' ' ' ' >                                                   ",
"                                                  ^ ' ' ' ' ' ' ' ' ' ' ' ` 9                                                   ",
"                                                * ~ ` ' ' ' ' ' ' ' ' ' ' ^ T                                                   ",
"                                                > ~ ^ ' ' ' ' ' ' ' ' ' ` ~ ~                                                   ",
"                                                > ~ ~ ~ ( ( ' ' ' ` ( ^ ~ ~ ~                                                   ",
"                                                > ~ ~ ~ ~ ~ ~ ~ ~ ~ ~ ~ ~ ~ ~                                                   ",
"                                                9 ~ ~ ~ ~ ~ ~ ~ ~ ~ ~ ~ ~ ~ ~                                                   ",
"                                                T ~ ~ ~ ~ ~ ~ ~ ~ ~ ~ ~ ~ ~ ~ *                                                 ",
"                                                ~ ~ ~ ~ ~ ~ ~ ~ ~ ~ ~ ~ ~ ~ ~ >                                                 ",
"                                                ~ ~ ~ ~ ~ ~ ~ ~ ~ ~ ~ ~ ~ ~ ~ >                                                 ",
"                                                ~ ~ I ~ ~ I ~ ~ ~ ~ I ~ ~ I ~ >                                                 ",
"                                                ~ ~ L ~ T J ~ ~ ~ ~ 0 ~ ~ L ~ >                                                 ",
"                                                ~ L J ~ 9 J ~ ~ ~ ~ # ~ ~ , ~ >                                                 ",
"                                              ; ' > U ' 7 9 ^ ' ` T X ` ` + ( p                                                 ",
"                                              ! ! i P ' % * ( ' ' < X ' ` X ! 7                                                 ",
"                                              q Z u.% R l. .! ( K @.u Q O y.Z 2.j                                               ",
"                                              6.u.u.q | c.z.$ * s.) O.y v B u.u.6.                                              ",
"                                            j w.t.e.s B 4.3.>.*.] 1.u.u.5.e e.t.w.j                                             ",
"                                            :.w.w.M W ..4.u.r.h D u.u.u.u.a M w.w.:.                                            ",
"                                          j w.w.q.4 g.m.k._ o.9.;.u.X.o.$.a.5 q.w.w.j                                           ",
"                                          :.w.w.M   4.=.M.M.v.d.+.f.v.M.M.x.  M w.w.:.                                          ",
"                                        j w.w.q.  k u.u.&.M.M.M.h.n.M.M.k.[ k   q.w.w.j                                         ",
"                                      w w.w.w.M   k r.u.u.#.b.j.p.h.i.{ -.7.g   M w.w.w.w                                       ",
"                                    w 7.H 0.N     k V 7.7.7.[ %.} { -.,.n n f     N 0.H 7.w                                     ",
"                                    k b k 6 x     k F c c c M r z k k b ,.7.g     x 6 k b k                                     ",
"                                          o         w.w.w.w.w.b G 7.7.7.7.7.        o                                           ",
"                                                    :.w.w.w.w.<.7.7.7.7.7.S                                                     ",
"                                                    c w.w.w.w.<.7.7.7.7.7.g                                                     ",
"                                                    l w.w.w.w.A V H H S C                                                       ",
"                                                      w.w.w.w.A :.w.w.w.h                                                       ",
"                                                      :.w.w.w.N :.w.w.w.k                                                       ",
"                                                      l w.w.w.c m t.t.8.k                                                       ",
"                                                      3 w.w.w.c e.w.w.r.3                                                       ",
"                                                      1 w.w.w.c 0.w.w.M                                                         ",
"                                                      2 :.w.w.c F w.q.3                                                         ",
"                                                        c w.w.c t c t                                                           ",
"                                                        d w.w.d                                                                 ",
"                                                        2 c c 2                                                                 ",
"                                                                                                                                ",
"                                                                                                                                ",
"                                                                                                                                ",
"                                                                                                                                ",
"                                                                                                                                ",
"                                                                                                                                ",
"                                                                                                                                ",
"                                                                                                                                ",
"                                                                                                                                ",
"                                                                                                                                ",
"                                                                                                                                "
};
