/* XPM */
static char *out[] = {
/* columns rows colors chars-per-pixel */
"64 64 196 2 ",
"   c #34283A",
".  c #55303A",
"X  c #312E44",
"o  c #333547",
"O  c #35384B",
"+  c #333554",
"@  c #363A5B",
"#  c #3A3D5D",
"$  c #303667",
"%  c #343A69",
"&  c #393E69",
"*  c #483849",
"=  c #483E57",
"-  c #5F3F50",
";  c #723E4D",
":  c #3E424C",
">  c #3F4354",
",  c #3D415B",
"<  c #3D4364",
"1  c #3E426C",
"2  c #3C4274",
"3  c #3C447B",
"4  c #42444F",
"5  c #4E424D",
"6  c #52414D",
"7  c #5A454E",
"8  c #424453",
"9  c #4C4557",
"0  c #454A56",
"q  c #4A4B55",
"w  c #464D59",
"e  c #494E5A",
"r  c #524757",
"t  c #5C4355",
"y  c #544A53",
"u  c #5C4A52",
"i  c #4C545F",
"p  c #565159",
"a  c #73444D",
"s  c #7B474C",
"d  c #674455",
"f  c #644A52",
"g  c #6B4B52",
"h  c #7C4B50",
"j  c #734B58",
"k  c #605057",
"l  c #7B5455",
"z  c #434665",
"x  c #464564",
"c  c #454967",
"v  c #494E65",
"b  c #464A69",
"n  c #494D6D",
"m  c #4D5561",
"M  c #4D536B",
"N  c #505763",
"B  c #515964",
"V  c #555D68",
"C  c #434974",
"Z  c #4E5370",
"A  c #4E5279",
"S  c #575678",
"D  c #745E78",
"F  c #756A6F",
"G  c #81464F",
"H  c #884B55",
"J  c #934D53",
"K  c #895353",
"L  c #875859",
"P  c #96585A",
"I  c #A2585C",
"U  c #88635E",
"Y  c #97655E",
"T  c #A5645F",
"R  c #A55B61",
"E  c #A05E6B",
"W  c #8C6464",
"Q  c #8D606D",
"!  c #966B65",
"~  c #937268",
"^  c #81797E",
"/  c #AA6766",
"(  c #A56B61",
")  c #B46366",
"_  c #BA6669",
"`  c #B86968",
"'  c #A5786B",
"]  c #BC736B",
"[  c #B6796D",
"{  c #A17072",
"}  c #C26A6D",
"|  c #C2756B",
" . c #C67C6F",
".. c #CB7173",
"X. c #CB7A71",
"o. c #D07375",
"O. c #AE8A77",
"+. c #B9927C",
"@. c #C78676",
"#. c #D8897A",
"$. c #C4927C",
"%. c #DB947E",
"&. c #E08F7D",
"*. c #3E4682",
"=. c #424A84",
"-. c #444D8D",
";. c #454E92",
":. c #475093",
">. c #485296",
",. c #4B559C",
"<. c #665F85",
"1. c #73718D",
"2. c #686A96",
"3. c #757897",
"4. c #4C57A0",
"5. c #4E59A4",
"6. c #505AA5",
"7. c #535EAD",
"8. c #5561B2",
"9. c #5864B5",
"0. c #5966BA",
"q. c #5B68BF",
"w. c #5E6CC5",
"e. c #5F6DC9",
"r. c #616FCA",
"t. c #6270CD",
"y. c #6473D3",
"u. c #907687",
"i. c #7E80AF",
"p. c #968394",
"a. c #A88995",
"s. c #B7A598",
"d. c #8587AA",
"f. c #948FAE",
"g. c #9B95A6",
"h. c #8685B2",
"j. c #9999B9",
"k. c #B3A5A7",
"l. c #B1A8A8",
"z. c #A6A7BB",
"x. c #C98D83",
"c. c #C79885",
"v. c #D59D84",
"b. c #E69583",
"n. c #E59C84",
"m. c #C9A48A",
"M. c #DCAB8B",
"N. c #C2AB9D",
"B. c #CAB495",
"V. c #D6B694",
"C. c #E8A88B",
"Z. c #F3A288",
"A. c #F2A388",
"S. c #F3AA8D",
"D. c #FAA98C",
"F. c #EBB18F",
"G. c #EDB593",
"H. c #ECB998",
"J. c #F4B492",
"K. c #F8B695",
"L. c #F4BC96",
"P. c #F6BE98",
"I. c #F8BE98",
"U. c #CABBAD",
"Y. c #D3BBA2",
"T. c #E2C29C",
"R. c #F7C09A",
"E. c #F9C19A",
"W. c #DECDAC",
"Q. c #ECCCA3",
"!. c #F3CCA3",
"~. c #FACEA4",
"^. c #EAD5AA",
"/. c #F8D1A6",
"(. c #FCD5A9",
"). c #F5DAAD",
"_. c #FBDDAE",
"`. c #FCDFB0",
"'. c #FDE1B1",
"]. c #979DC6",
"[. c #929BCF",
"{. c #97A0D2",
"}. c #A9ABC6",
"|. c #B3B5CE",
" X c #A6AFD8",
".X c #ABB2E5",
"XX c #B9C1DA",
"oX c #D4D2DC",
"OX c #C6CCE5",
"+X c #D7D9E6",
"@X c #DCE0EC",
"#X c #DDE0F4",
"$X c #E6E8F5",
"%X c #EEF1FB",
"&X c #F5F5F9",
"*X c #FAFBFD",
/* pixels */
"m B i 0 i N V B i N i i V B i w N m i m m V m i m m m 0 i i i i B i B V i i V B B B i i w w i > i e e i i m m m i > i V B i m V ",
"m N i i i B i i i B i i N i i i i i i i m B i i m i i i i i i i i i e i V i i i B B B i B i i i i i i i i B i i m i w i i e w B ",
"i N N i i B i i i i i i e i i i e i m m i m i i m i i e > : : : : e i e B B i B B B i i i i i i B i i B i m i i i i i i i e e i ",
"i i m m i i i i i e i i e e i i w m m m i i w i m i > < C =.=.A 2 < > e i i B i i i i i i i i i B i i e B m i m m m i i i B i B ",
"m i i N i i i N B i i i i B i i i N m i i i m m e < =.8.t.y.y.y.r.9.=.< w i B B i i > i i i i i i i e > B m i i m B m m B B V i ",
"m i B B i 0 i B i i i i i i i B m m i m m i i w 2 9.e.r.e.e.e.e.e.t.r.q.2 w i i i m B i B B i m > e i m i m > e m i i m i i m B ",
"0 i N B i i i i i i i e i i i B m w e m m N e < 9.e.e.r.e.t.e.e.r.r.e.r.0.c i i i i i i i m i i B i i i i m i w e m m m i B B m ",
"i N N N i i i B B i i e i i i B m e i i i i 0 2 w.e.r.r.t.r.t.t.r.r.t.e.w.*.w i i i B m i i i i B i i i e m i i i i B > e i B B ",
"i B m m B B i B B i B i i i i B i i N N i N , 5.r.r.r.r.r.t.r.r.r.r.r.r.e.7., w m m B m i m i m m m i i e i B m i i B i i i i B ",
"m m m i i B m i i i B i i i i i i i i i i N < e.r.r.t.r.r.r.r.t.r.r.r.r.t.w.% > : > m m m m m i m B m m i m B m i i V B m i i i ",
"m B m i m i i B B B i i i e w B i i i 0 i : % t.r.r.r.t.r.r.r.r.r.r.r.r.t.t.*.*.1 > i i i B B i B m i i i m m m i m m m i i i m ",
"i B B i m B i i i i i i i i i i i i i i 0 X *.t.r.r.r.r.r.t.r.r.t.r.t.r.t.t.,.+ , w i i i i i m m i i m m B m i m i i B m i i m ",
"B B m e w B i i i i V i i B i i B N i i e o ;.r.r.r.r.r.t.r.r.t.r.r.r.r.r.e.4.O > m m m m i w m i m m i > B m i i > i m m i m B ",
"m i m i e i e i B i B B B i i B N B N i r X ;.0.r.r.r.r.r.r.r.r.r.r.e.r.r.q.4.< > m m i i i w i i m m i i i B m i e m i m m m m ",
"m m m B i i e e i i B B B i i B m B N i 5   ;.7.w.r.r.r.r.r.r.r.r.r.r.r.e.7.4.1 > i i i e m i i m i i i i i B m m i m i m m m m ",
"i B B m B i i i e w i i i i i i i i N N q   ;.5.0.w.r.r.e.r.r.r.r.r.r.e.0.6.,.3 , e m i w w m m B m i i i V m m m m m m m m i i ",
"B m B B m m i i i i i B i B V i i B m i i o -.5.5.7.0.0.w.e.r.r.e.0.0.7.5.7.*.3 : > m m i i m m B m i i w i i B B i B i i m i 0 ",
"m i m m B m > i i i i B i i i i B m i i i o -.5.5.5.5.5.7.7.8.7.7.5.5.5.5.8.*.*., i m B B m m i m i i i i i B m m m m i i i i i ",
"m i i i B m i i i i i i i i i B B i m m i o :.5.5.5.5.5.4.5.5.5.4.5.5.5.5.5.*.4.3 > m m m m m m m i i i m m m m i m i e i i i m ",
"m i i m m i m m i i i i i m i i i i m B i : :.5.5.5.5.5.5.5.5.5.5.5.5.5.5.5.5.5.*., i i i m m i i i m m i m i i m B i e e i i i ",
"B > m B B i B m i i : i B B i i i i i i i o *.5.5.5.5.5.6.6.5.5.5.5.7.5.5.5.5.5.5., > B m m m i i i B B i i i m m i m m i i i w ",
"B i i m i i B m i i B i i i i i > i i i i : :.5.5.5.5.5.5.6.5.5.5.5.4.5.7.8.5.5.7.2 > m m m B m 0 i i i i V B B m m V m i i i i ",
"m m i i m m i i i i 0 i i i i i m i i i > : :.5.4.5.5.5.5.5.5.5.5.7.5.5.5.*.*.5.0.*.: < B B m i i i i i i m m m m m B m i m i m ",
"i B m i B i i i i i i i i i i m i B i i m : :.4.;.5.5.5.5.5.5.5.5.7.*.5.5.4.5.5.7.*.: m B m m i i B i i i i i i i m B m m m i i ",
"m m B m B i i m i m m m i i i m i B i > i w 2 4.3 ,.5.>.,.4.5.5.5.4.*.7.7.*.*.7.6.4.: m m m i i i m m i i m i i i m m i m m m m ",
"m i B B i i > m m i m m e i i i m m i B i i @ 5.*.,.5.:.=.4.5.5.5.4.*.*.5.5.*.5.6.4.: < m m m m m i i m m B w i i i m i m i i i ",
"B > e m i i i i m i m i i i i m B i B i i i @ 7.*.,.9.4.*.4.6.0.8.4.*.4.7.7.*.5.7.3 e i i m B i m m m i m i i m i m B i i i i 0 ",
"m i i m B i B i m m B m i m i B i i i B B i , 8.*.:.e.0.=.,.0.r.e.8.*.5.e.q.3 ,.7.> : i m B m m m m i m B m i i m B m 0 i i i i ",
"i m m m B m B B i m m i m i m m B i i m m m 4 A + < 0.q.C -.q.r.e.8.2 ,.e.,., 3 < 0 i B m m m i m m m m m m V B m m m m i i m m ",
"i B m m B B B m i e i i m m i m i i i i m m s ( ~ +.S :.$ & 8.w.0.,.$ *.5.^ s.F : 0 i B m m m m m m i i i m m m i i i B i m m m ",
"i B m i i B i i i e m m m m m i i > i m i q O.E.H.H.p.c @ # 3 6.>.A 1.> F ^.'.^.O.0 i m m m i i m m w w i m m i i m i i m m B m ",
"m i i m B m V B m B i i m i m B i i V B i u %.&.K.v.d.@X].2.3.C 1 z.OXd.W ^.'.).+.e i B m m m m m i i i m B m i i m m m i i i m ",
"i i i i B i i i i i i i i i i V m B N i 9 L b.Z.%.( j.@Xi.2.+X3.A z.k.N.{ B._._.V.p i i i i i i i i i i i i i e i i i i i i i m ",
"i i i i i i B i B i i V i i i i m i i i y [ Z.n.Q s.Y.U.l.3.j.D Q H.!.~.v.$.).`.Q.L i i i i i i i i V i i i i i i i i V B m i m ",
"i i i i i i i i i i i i i i i i i i e 0 f %.A.c.f.}.g.g.N.s.W./ @.'.`.`.T.' ^.'.'.~ p i i i i i i i i i i B i i i i i B B m i m ",
"B i i i i i i i i i i i i i B i N m i 8 g n.A.u.+X&X&X@X}.z.k.c.x.'.`.`.T.! Q.`.'.O.p i i i i i V i i i i B B i i i i i i i i m ",
"i i V B i i B i i i i 0 i i i V N i i y Y Z.@.1.z.|.OX$X*X%XOXj.a.s.s.s.s.u.m.'.'.H.u i m m m m V i i i i i i i m m i i i i i m ",
"i i i i i V i i i i i i i i i i i m i y [ D.@.W Y.T.l.g.}.$X*X$X XXXoXoX+Xg.+.)./.R.U q i i B m i i i V i i i i i i 0 i i i m m ",
"i B i i i i i i i i i i i i i i i i e g &.D.@.( (._.^.^.N.l.+X*X X|.*X*X%X].{ K.R.R.$.7 i i m i i i i i i i i i i i i m i m m m ",
"i B i i i i B B i B i i i i i i N N e K D.&.` ( J.J.S.S.J.C.a..X{.{.#X#XOXh.j C.R.R.R.Y e i i i B i i i B i i V m m i B m m m m ",
"i i i i i i B m i B i i B i i B N B e K D.X./ ( A.Z.#.| | | @.u.[.{..X.Xh.L J x./.`.).m.u i i i m i i i e m m m m m m B m m m m ",
"i m i i 0 i i i i i i i B i i i i i i l A.#.T G M.L.L.J.G.C. .g 2.3.h.<.j I ) h H.`.`.Q.U p i i m i i i 0 i i m m i m i i m V m ",
"e i i i i i i i i B V i i B V B i i N u T ] J a M.L.I.I.I.I.K.P ; H E E _ o._ . O._.`.).' q i i i i i m m m i m B i i i i i m V ",
"i i i i i i B B i i B B i i i B i i i i q 6 7 7 $.L.I.R.I.I.E.Y J } o.......R r k a.Q.V.U q i B m m m i i m i m i m m B m i i m ",
"m i m m i i i i i i i i 0 i i i i i i i i i i 4 Y L.R.L.I.I.E.[ _ ..........s p i 7 g u q i i i m m m i m m i e i m m m m m B m ",
"m m m i i i i m i e i i e i i i i i V i i i q 4 U G.R.R.I.E.E. .} ........_ f i i i i i i i i i i m m i m m m i i m m i i m m m ",
"m i i i i e i i e 0 i i i i i i 0 i i V i V i i u m.I.I.E.I.E.@.} ........P 9 e i i V i i i i i i i m i i m m m i i i i i i m i ",
"i m i i i m m i i e i B i B V i i i i i i i i i . $.E.I.I.I.E.[ ) } .._ ) d 8 e i i i i B B i i 0 i m m m m m m m m m i i i i e ",
"V i e e i B B i i i B i i B B i m m m m m m i i q ' I.E.I.I.E.Y J } ..) s e i m m m m m m m m m i i m B i i m B i i i B m i i i ",
"i i i i i m m i i m m m B i i i i m m m m m m M b g L.I.E.I.E.@.) ....} d b M m M m m B m i m B i i m m i B i i i i m i B B i i ",
"i m i i i i i B i i B B m i i m m m m m M M b b z f F.I.I.I.E.J.P ....R * n b b M v m m m i m B i i m i i m i i i i i i i B i B ",
"i V m i B i i m B i i i B B m i e m m Z M b z b b 9 [ E.P.R.E.G.K o...R = b c b < b n M m i e m m m m m i i B m i B B i i i i i ",
"i B m m B i i B B m i i i m B i w m Z n b b b b n z ! ~.(.(.(.L.K ....a c < b b b b b n M e w m m B B i m i V m i i B i i i i m ",
"B i m B i B i i i > i i i i i i V M n b b b b b b z L Q.'.'.`.Q.K .._ d b b b b b n n < n v > B m m m m B m B B i i m i i B B m ",
"m m i m i 0 i i i i i B i B B m B M b b b b b b b n t V.'.`.'.).P o.J x M < b n b M b n n M i i i m i m i m m i i B B m i B B i ",
"m i m i i e i m B i B m B B B i m b b b b b b b b n = c.).'.'.~.a s - x n b c b b b b b b < m i i i i i i m m B B i B i i i i i ",
"i i m m i i i B B i B i m B m i m c b c b b b b b b x ! !.~.~.v.t < z b b b c b < M < n b b m i i i m m i m m m B i i B i i i m ",
"B i B B i : i B m i m i i i i i m v c b b b b b z z z j #.#.b.Y x b b b n b c c v M M < b M m > i m m m i B m i i i i B i i i i ",
"B i i i B i V B i i B i i i e > i M n b b b c b b b b t G G G t x b b b b c z c M 1 V < Z M m i m i m m i m B V B i i i i i i B ",
"i B V B V i i i i B B B i i i B i M Z n b b b b b b b b = x z b c c c c z b c c 1 M 1 2 Z V m m i i m i i i > i i B i B m i i V ",
"m m m B B > m i m i B i i i B B m i m M M b b b b b n b b b b b c b b b c c b c < V Z M m m i B m m i i i i i i i i i V B m B B ",
"m i m m i e i B i i i i B B m i i i m m M v b b b b b b c b b b c b b b b c b c 1 B B B i i i B m m i i m m i i m m i B B m B i ",
"m i B B i i i i m i i B B B i i m i m B m i M m M b b n c b b c b b c b c c n M i i i i m i i i m m i m B V m i B B m i B B i m ",
"m m m B m m i B B m i B i B B B V N m m i w N m m B N M v v M M v M M M m m w e m i m i i i e m m m m i i m i i B V i m i B V V "
};
