/* XPM */
static char *out[] = {
/* columns rows colors chars-per-pixel */
"64 64 167 2 ",
"   c None",
".  c #222034",
"X  c #44202C",
"o  c #45212D",
"O  c #5F2F38",
"+  c #66353E",
"@  c #6D353F",
"#  c #262642",
"$  c #2A2D50",
"%  c #352F52",
"&  c #2F3258",
"*  c #2E335E",
"=  c #3C3650",
"-  c #303359",
";  c #30345F",
":  c #333762",
">  c #373965",
",  c #3D3E60",
"<  c #3A3F64",
"1  c #333A6C",
"2  c #383C6B",
"3  c #383D6C",
"4  c #432B44",
"5  c #4E364C",
"6  c #413258",
"7  c #5E3851",
"8  c #643749",
"9  c #394178",
"0  c #3A427A",
"q  c #3C447C",
"w  c #3C447E",
"e  c #5F4147",
"r  c #595053",
"t  c #714144",
"y  c #7F4C4B",
"u  c #734B50",
"i  c #714A53",
"p  c #775356",
"a  c #494968",
"s  c #494C71",
"d  c #41477F",
"f  c #53547E",
"g  c #604463",
"h  c #635669",
"j  c #76536E",
"k  c #675677",
"l  c #7A5F73",
"z  c #5F6078",
"x  c #824755",
"c  c #884950",
"v  c #8C4950",
"b  c #954A51",
"n  c #925555",
"m  c #9A5957",
"M  c #9C5359",
"N  c #9D625B",
"B  c #9E695F",
"V  c #B05D62",
"C  c #8D6F66",
"Z  c #9F7063",
"A  c #9F7165",
"S  c #8E6A7C",
"D  c #9A6C74",
"F  c #9D737A",
"G  c #A6686E",
"H  c #B46967",
"J  c #B16C64",
"K  c #BA6A67",
"L  c #BD676A",
"P  c #A07869",
"I  c #B47276",
"U  c #C5776D",
"Y  c #CB7173",
"T  c #C87470",
"R  c #D57D78",
"E  c #908072",
"W  c #998070",
"Q  c #A2806F",
"!  c #B68A78",
"~  c #C08474",
"^  c #C98372",
"/  c #D28075",
"(  c #D38779",
")  c #D58F7F",
"_  c #DD8D7B",
"`  c #CB927C",
"'  c #DE947F",
"]  c #E08A7E",
"[  c #3E4782",
"{  c #414A88",
"}  c #434B88",
"|  c #434C8C",
" . c #454E8D",
".. c #454F90",
"X. c #475196",
"o. c #4A549A",
"O. c #4C579F",
"+. c #6C6C90",
"@. c #6B6F9B",
"#. c #727691",
"$. c #4E59A4",
"%. c #4F5AA5",
"&. c #515BA5",
"*. c #535FAD",
"=. c #535FAE",
"-. c #5764B7",
";. c #5864B8",
":. c #7678A6",
">. c #7A7EA2",
",. c #5C69C1",
"<. c #616FCB",
"1. c #887A95",
"2. c #7F85B6",
"3. c #8A899F",
"4. c #908F99",
"5. c #A2918E",
"6. c #AB9E9E",
"7. c #8184A3",
"8. c #9592AA",
"9. c #8D94BD",
"0. c #9396B4",
"q. c #B6A2A6",
"w. c #A2A0B5",
"e. c #B9B1B0",
"r. c #CB9A8B",
"t. c #D79E89",
"y. c #EA9783",
"u. c #EB9E87",
"i. c #CEA186",
"p. c #C7B091",
"a. c #CFB099",
"s. c #D0B090",
"d. c #D0B89F",
"f. c #E0A389",
"g. c #E2AB8F",
"h. c #F5A489",
"j. c #E4BA99",
"k. c #F7B191",
"l. c #F8B895",
"z. c #F8B997",
"x. c #F9BF99",
"c. c #F9C09B",
"v. c #FAC29D",
"b. c #FAC79F",
"n. c #F2C4A1",
"m. c #FBC8A1",
"M. c #FCD1A7",
"N. c #FDD7AB",
"B. c #FFE0B1",
"V. c #8893C6",
"C. c #8C98C8",
"Z. c #9CA2CA",
"A. c #9BA5D6",
"S. c #9FACD2",
"D. c #A4A8C5",
"F. c #ABAEC5",
"G. c #B1B3C4",
"H. c #B3B6D2",
"J. c #A6AEE1",
"K. c #B9C0D7",
"L. c #BDC6DA",
"P. c #BCC3E2",
"I. c #D6DDEC",
"U. c #E1E5F7",
"Y. c #F0F4FE",
"T. c #F7F9FE",
"R. c white",
/* pixels */
"                                                                                                                                ",
"                                                                                                                                ",
"                                                                                                                                ",
"                                                                                                                                ",
"                                                                                                                                ",
"                                                                                                                                ",
"                                                                                                                                ",
"                                                                                                                                ",
"                                                                                                                                ",
"                                                          ; d d d 2                                                             ",
"                                                      > O.<.<.<.<.<.-. .                                                        ",
"                                                    > <.<.<.<.<.<.<.<.<.&.                                                      ",
"                                                    O.<.<.<.<.<.<.<.<.<.<.;                                                     ",
"                                                  ; <.<.<.<.<.<.<.<.<.<.<.O.                                                    ",
"                                                   .<.<.<.<.<.<.<.<.<.<.<.<.;                                                   ",
"                                                # *.<.<.<.<.<.<.<.<.<.<.<.<.3 -                                                 ",
"                                                  ;.<.<.<.<.<.<.<.<.<.<.<.<.|                                                   ",
"                                                ; %.<.<.<.<.<.<.<.<.<.<.<.;.%.                                                  ",
"                                                3 %.;.<.<.<.<.<.<.<.<.<.<.%.%.                                                  ",
"                                                3 %.%.;.<.<.<.<.<.<.<.,.=.%.%.&                                                 ",
"                                                3 %.%.%.%.%.;.;.;.=.%.%.%.%.%.&                                                 ",
"                                                3 %.%.%.%.%.%.%.%.%.%.%.%.%.%.&                                                 ",
"                                                3 %.%.%.%.%.%.%.%.%.%.%.%.%...9                                                 ",
"                                                3 %.%.%.%.%.%.%.%.%.%.%.%.%.o.q                                                 ",
"                                                3 %.%.%.%.%.%.%.%.%.%.%.%.%.%.o.                                                ",
"                                                3 %.%.%.%.%.%.%.%.%.%.%.%.%.%.%.:                                               ",
"                                                3 %.%...%.%...%.%.%...%.%...%.%.3                                               ",
"                                                % =.=.| %.%.{ %.%.%.| %.%.w %.%.3                                               ",
"                                                u ;.;.0 =.=.w =.<.=.0 =.=.1 ;.<.X.                                              ",
"                                                C | =.* ;.;.1 ;.<.;.* ;.;.r } ;.;.:                                             ",
"                                              B x.h [ . $.,.$ } <.;.. } =.& p.E e                                               ",
"                                              ' x.l.= 7.< 3 s z $.$.4.G.a W B.B.!                                               ",
"                                              h.h._ O c.a.e.:.T.#., L.9.l D B.B.M.                                              ",
"                                            n h.h.U f 6.5.B.d.q.S M.B.B.f.5 M.B.B.m                                             ",
"                                            N h.h.F U.R.I.D.3.d.t.B.B.B.a.g ! B.B.!                                             ",
"                                            n h.h.+.w.F.U.R.T.K.3.5.6.>.K.0.m B.B.c.                                            ",
"                                              h.h.N m.B.5.8.P.Y.S.R.R.R.R.1.o M.N.x.m                                           ",
"                                              h.h.N h.z.v.v.r.Z.V.U.R.T.H.I   ! B.g.g.                                          ",
"                                            c h.U N ( R ] / U i C.J.A.2.G L O i.B.! j.m                                         ",
"                                            v h.K N x.x.x.x.x.B k @.j V L Y @ _ ) ` s.Q                                         ",
"                                              H H + l.x.x.x.x.Z b L Y Y Y Y X N J ^ t                                           ",
"                                                    ~ x.x.x.x.B V Y Y Y Y M     y y                                             ",
"                                                    n k.v.v.u.c Y Y Y Y Y                                                       ",
"                                                      n.B.B.B.A Y Y Y Y L                                                       ",
"                                                      B.B.B.B.Q Y Y Y Y c                                                       ",
"                                                      Q b.x.x.P T h.h.y.8                                                       ",
"                                                      4 x.x.x.Z U h.h.h.x                                                       ",
"                                                        Z x.x.Z U h.h.h.n                                                       ",
"                                                        p x.x.p J h.h.h.7                                                       ",
"                                                          4 4   N h.h./ 6                                                       ",
"                                                                B x.x.n                                                         ",
"                                                                Z x.x.7                                                         ",
"                                                                6 4 4                                                           ",
"                                                                                                                                ",
"                                                                                                                                ",
"                                                                                                                                ",
"                                                                                                                                ",
"                                                                                                                                ",
"                                                                                                                                ",
"                                                                                                                                ",
"                                                                                                                                ",
"                                                                                                                                ",
"                                                                                                                                ",
"                                                                                                                                "
};
