/* XPM */
static char *out[] = {
/* columns rows colors chars-per-pixel */
"64 64 209 2 ",
"   c #66343E",
".  c #282947",
"X  c #2F3148",
"o  c #363449",
"O  c #3A3D4A",
"+  c #2F3358",
"@  c #333654",
"#  c #3A3D53",
"$  c #363A58",
"%  c #36395D",
"&  c #353A66",
"*  c #393E6B",
"=  c #393F74",
"-  c #473844",
";  c #5B3B45",
":  c #443D59",
">  c #673B44",
",  c #3D414F",
"<  c #3E4354",
"1  c #3D425B",
"2  c #3C4267",
"3  c #3B4173",
"4  c #3C447A",
"5  c #43434F",
"6  c #4D434C",
"7  c #52434D",
"8  c #5A444D",
"9  c #424554",
"0  c #4C4652",
"q  c #454B56",
"w  c #494659",
"e  c #4B435D",
"r  c #464D59",
"t  c #494E5A",
"y  c #534A53",
"u  c #584857",
"i  c #4C545F",
"p  c #565159",
"a  c #694146",
"s  c #66444D",
"d  c #79494D",
"f  c #644C54",
"g  c #694955",
"h  c #7A4F51",
"j  c #724E58",
"k  c #6E5755",
"l  c #765454",
"z  c #79585A",
"x  c #434563",
"c  c #454967",
"v  c #484E63",
"b  c #43466F",
"n  c #464A69",
"m  c #494D6C",
"M  c #534A66",
"N  c #4D5561",
"B  c #4D536A",
"V  c #505763",
"C  c #515964",
"Z  c #555D69",
"A  c #4A4D71",
"S  c #434A7D",
"D  c #504D72",
"F  c #4D5272",
"G  c #4A507F",
"H  c #565976",
"J  c #654D69",
"K  c #765D77",
"L  c #706975",
"P  c #85464D",
"I  c #864E58",
"U  c #914951",
"Y  c #8A5251",
"T  c #875857",
"R  c #85515A",
"E  c #8D5C5D",
"W  c #935255",
"Q  c #9A5D5C",
"!  c #A2575D",
"~  c #A55E5C",
"^  c #8A625F",
"/  c #91635B",
"(  c #9F645B",
")  c #8E5A6C",
"_  c #AA5D63",
"`  c #886762",
"'  c #966762",
"]  c #9B6D64",
"[  c #957568",
"{  c #917979",
"}  c #AC6563",
"|  c #A86864",
" . c #B56367",
".. c #B86868",
"X. c #A7786C",
"o. c #B87168",
"O. c #BC7D6E",
"+. c #A57E72",
"@. c #B87D7B",
"#. c #C46B6D",
"$. c #C96F71",
"%. c #CB7173",
"&. c #CB7B72",
"*. c #AC8F7C",
"=. c #C88878",
"-. c #D7887A",
";. c #DB8A7C",
":. c #C8947D",
">. c #D7947E",
",. c #E38E7F",
"<. c #3E4783",
"1. c #424A83",
"2. c #434C8B",
"3. c #454E90",
"4. c #475094",
"5. c #495397",
"6. c #4B559C",
"7. c #766B8F",
"8. c #716F8E",
"9. c #4C57A1",
"0. c #4E59A4",
"q. c #4F5BA8",
"w. c #505BA6",
"e. c #515DAA",
"r. c #5561B2",
"t. c #5764B9",
"y. c #5A66BB",
"u. c #5966BC",
"i. c #7377A3",
"p. c #5D6AC4",
"a. c #5F6EC9",
"s. c #616FCB",
"d. c #6270CD",
"f. c #907F89",
"g. c #857E9B",
"h. c #918B9C",
"j. c #B1998D",
"k. c #ABA09E",
"l. c #B4A19B",
"z. c #BDAC9D",
"x. c #8F8DA5",
"c. c #8F8EAC",
"v. c #8F91AD",
"b. c #9891A8",
"n. c #838FBF",
"m. c #9899B8",
"M. c #A49CA4",
"N. c #A29FB7",
"B. c #ACA3A3",
"V. c #A5A4B5",
"C. c #C18C80",
"Z. c #CB9886",
"A. c #D79782",
"S. c #E49682",
"D. c #E59A82",
"F. c #EC9D85",
"G. c #C7A98C",
"H. c #D7A78C",
"J. c #D3AB93",
"K. c #CEBB99",
"L. c #DBBB9D",
"P. c #EEA187",
"I. c #EAAE8F",
"U. c #F2A187",
"Y. c #F3A388",
"T. c #F9A78A",
"R. c #F2AA8D",
"E. c #F9AA8C",
"W. c #E7AF92",
"Q. c #F4AF90",
"!. c #EBB995",
"~. c #F5B593",
"^. c #F5BB96",
"/. c #F6BE98",
"(. c #F8BD98",
"). c #CBB7A9",
"_. c #F5C39E",
"`. c #F9C19B",
"'. c #D4C5A7",
"]. c #D1C3B4",
"[. c #E6CBA3",
"{. c #EACBA5",
"}. c #F2CAA3",
"|. c #FACBA2",
" X c #EDD5AA",
".X c #FAD2A7",
"XX c #FAD4A9",
"oX c #F4DAAD",
"OX c #FBDCAE",
"+X c #F3DDB0",
"@X c #FBDFB0",
"#X c #FDE2B2",
"$X c #8E99C8",
"%X c #9DA0C1",
"&X c #9FAADC",
"*X c #A7ADC8",
"=X c #ADB1CD",
"-X c #B6BCD1",
";X c #ADB5E4",
":X c #BCC5E4",
">X c #C8CBD4",
",X c #C4CBE0",
"<X c #CDD3EB",
"1X c #D7DAE7",
"2X c #D6DAF2",
"3X c #E0E2EB",
"4X c #E9EBF5",
"5X c #EDF1F7",
"6X c #FBFCFD",
/* pixels */
"N Z i q V i Z C V i i i C C i r V N N N N Z N i N N N q t N i N N i C Z N N Z C i C i i t t i q i q t i N N i N i q i Z N i N Z ",
"N V i i i C i i i C i i V i i i i i i i N C N N N i i i i i i i i i t t C N N N C Z C i N i i i i i i i N N N i i t r N i i t N ",
"i N i i i C i i i i i i r i i i r i N N i N t i N i N N N i i i q t t t V N N N V C N i i N i i N i i N N N i i i i i i i i t N ",
"i i V N i i i i i i i i t i i i r i N N i i r i N i i i q # # < # # < t N N N N i i i i i i N i N i i i N i i i i N i i i N N N ",
"N i i i i i i V C i i i i i i i t C N N i i N N N i t 1 4 6.r.r.r.e.2.2 1 t Z V i i < i i N i i N i t r i i i i C C N i N C C N ",
"N i V Z i q i V C i i i i i i Z N N N N i N N N N < S r.p.a.s.d.d.s.s.t.q.1 t N i N N N N N N i < i i N i i r t i i i i N N N C ",
"r i V C i i i i i i i q i i i i N r t N N N i q , S p.a.a.s.s.s.s.s.s.a.s.e.2 i i N i i N N N i i i i i i N i t t i N i i N C N ",
"i V V N V i i V C i i i i i i C N t i i N N N t 1 r.a.a.s.s.s.s.s.s.s.s.a.d.1.r i N N N i N i i C N i i t i i i i i i r i N C C ",
"i C C i i C i C i i i i i i C C N N N i N N N q S p.s.s.s.s.d.s.s.s.d.s.s.s.w.1 i i i i N N N N C N i i i i C i i i C i i i i C ",
"i i i i i Z i i i C C C i i i i N t N N N N t # w.s.s.s.d.s.s.s.d.s.s.s.s.s.p.S < i i i N N N i i N C i i i C C i i C Z i i i i ",
"C C i i C i i C C i i i i i r i N N q q N # X % p.s.s.s.s.s.s.s.d.s.d.s.s.s.s.w.@ o i i i N N i C i i i i i i i i N N i i i i N ",
"i C C i i Z i i i i i i i i i i N N N i N < X 3 p.a.s.d.s.s.s.s.s.s.d.s.s.s.s.r.+ # i i i i N N N i i i i Z C i i i i Z C i i N ",
"C i i i q i i i i i Z i i i i i C N N N N C # 4 s.s.s.s.s.s.s.s.s.s.s.s.s.s.s.r.3 r V N i t r N i C N i r i N i i r i i i N C C ",
"C i i i i i i i i i C C i C i Z C C N N N N 9 2.u.s.s.s.s.s.s.s.s.d.s.s.s.s.s.r.4 < i i i i t i i N i i i i N N i i i i i N i N ",
"i i C C i i t i i C i Z C i i i N C N N N t @ 6.r.p.s.a.s.s.s.s.s.s.s.s.s.s.t.w.2.< i N i i i i N N i i i N C i i i C i i i i N ",
"C C C i i i i i t t i i i C i i N N N N N t % 0.0.u.s.s.s.a.s.a.s.s.s.s.s.s.r.6.4.1 i i t t i N C N i i i Z i i i i i i C C i i ",
"C i C C C i i i i i i C N N C i N C C i i i < w.w.w.t.a.a.s.a.s.a.a.a.a.p.e.0.0.<.@ i N N i N N C N N i < C i C C N C i i N i q ",
"C i i C Z i r i N i i i N N N N C N N i i < 1 w.9.0.0.w.e.r.p.p.p.p.e.e.q.9.0.0.q.@ t C N N N i i i i i i i C N i N i i i i i i ",
"i i i i C i i i i i N i i i i N C N N N C 1 1 0.9.w.0.0.q.0.0.0.0.0.0.0.0.0.0.0.9.+ < C N N N N N i i i i N N N N i N i i i i i ",
"i i i i i i i i i i i i N N i i i i N N N 1 1 0.0.0.0.0.0.0.0.0.0.0.0.0.0.0.0.0.<.2 t N N N N i i i N N i N i N N C i q i i i i ",
"N q i Z C i C i N i < i C N N i i i N N N N 1 q.0.0.w.w.0.0.0.0.0.0.0.0.0.0.0.0.<.4 < N i N N N i i N N N N N N N i N i i i i < ",
"N i i i i i C i N i N N i i i i < i N N N 1 1 q.0.0.0.0.0.w.0.0.0.0.0.0.0.0.0.0.<.<.X N N C C i < i N i N C C N C N Z N i i i N ",
"N N i i i C N i i i < i i i i i i N N N C N 1 q.0.0.0.0.w.0.0.0.0.0.0.0.0.0.0.0.q.<.@ i C C N i N N N i N N N N i i C i i i i C ",
"i C N i C i i i N i i i i i i N N N N 1 N 1 % q.0.0.0.0.0.0.0.0.0.0.0.0.0.0.0.q.q.9.2 < N N N N N N N N N N i i i N C i C C i i ",
"i C C N C i i i i i i N i t N C N N i t i t % q.0.9.6.9.0.9.9.0.0.0.q.0.0.0.6.0.0.w.4 , i N i i i N N i i C t i i N N i C N N N ",
"N i C C i i r i i i N N t i i i N N i N N t % 0.0.6.3.0.q.3.3.w.0.q.<.6.q.0.<.9.w.q.4 , i i i N N i i N N C t i N i N N i i i i ",
"i q i i N i i N N i N i i i i i N N N N i i o 5.t.6.2.0.q.3.3.0.0.0.<.6.0.0.<.5.w.q.4 , i N C N N N N i N N N i i N C N i i i < ",
"i i i i C N N N N N C N i N i C N N N N C p g <.a.9.<.q.e.3.3.e.p.r.<.5.e.e.<.<.y.p.6.1 N N N N C N i N C i i i N C N < i i i N ",
"i N N N C N C N i N N i i i N C N N N i C 8 ] & u.6.* q.a.3.= t.a.a.<.= t.p.& 4 y.a.y.4 < i N i i N i N N C C N i N i C i i i i ",
"i C N N C C C N i t i i N N i i i t i i q ^ :.w 9.2.. w.p.3.& r.a.a.4 + t.p.c L N 2 4 2 < i N C N N i i N N C N i i i C i C C N ",
"i C N i i C N i t t N N N N i i i < i i 6 *.I.*.D & o 1.t.6.. S p.a.2 9 G 3.3 *.K.z.[ O C i i i C i t q N i N i i N N i i C C i ",
"N i i N C N Z C C C N i N i C C N N C C k :.~.`.[ $ g.H = = H H 3.e.& >XV.2 t L.#X#X:.y i N i i i i i i N C N i i N N N i i i i ",
"N N i N N i i i N N i i i i t Z N C i i j F.R.U./ j J.l.f.8.%X>X8.& 8.,X*X7.K I.#X#X[.T t i i i i i i i i i t i i i i i i i i i ",
"N i i i N N C i N i i C C i i i i i i 0 | U.Y.S.j K [.'. X'.x.*Xc.f.).].).*.K +.#X@XoX[ t i i t i C i i i i i i i i i C C C i i ",
"i i q i i i i i i i i N i N i i i i t 6 O.U.U.S.K m.V.h.B.z.'.L.@.}.@X@X@X}.R z _.#X@XG.y i i t i C i i i C i i i i C C C i i C ",
"N i i i i N i i i i i i i i i C V N t 6 O.U.U.Z.V.5X6X5X,Xm.c.z.Z.#X@XOX'.G.7.u G.@X#X[.z i i i i C i i i C i i i i i i i i i i ",
"N i C Z N N i i i i i r i i C Z V i i 7 o.Y.P.{ c.N.=X<X5X6X1X-Xh.k.j.M.v.-X-XM *. XXX.X] i i i Z i i i i i C i i C i i i i i C ",
"N i i i N C N i i i i i i i i i V i i i E F.P.' C.L.'.h.N.=X4X5X&X<X1X3X4X6X=Xf h [.XX_.=.k i i i i i Z i i i i i i q i i i i i ",
"i C N i i N N N i i i i i i r i i i t 5 g D.P.( >.(..XOX{.l.m.:X$X<X6X6X6X4Xb.E ; H.oX_._./ i i C i i i i i i i i i i i i C C i ",
"i N i i i i C N i C i i i i i i V V i 0 ( F.F.( ;.;.F.Y.R.I.>.h.n.;X2X3X<XN.f.W - *.+X>. XG.8 i C i i i i C i C C i i C i i i C ",
"N i i i i i C N N C i i C i i C V C i 7 } F.o.Y >.>.;.;.;.&.o.a i.;X&Xn.i._  .W d A. XL.] H./ q C N i i i i i N i i i C C i C i ",
"i N i i < N i i i i i i C i i i i i i p | S...W >.(.`.^.~.!.~.T J i.7.) _  .$.W W =.=.!.] K.[ 5 i i i i r N i i C i C i i i C C ",
"q N N N i i i N C i C i i C Z C i i C i f =.o.  X.~.^.`.(.^.`./ P U  .#.#.%.%.W   *.} >.T l f i i i i i i i i N C i i i i i i Z ",
"i i i i N i C N i i Z i i i i C i i i i t s d   Y I.`.`.`.`.`./ U #.$.$.%.$.#.I p 7 l -.T 7 i i i C N i i i i i i i i C i i i C ",
"N i C i i i i i i i N C t t C i i i i i i p 5 0 - :.(.(.~.~.~.Y ! %.%.%.%.%.} u i i p 8 0 i i i i i i i i i i i i C N N i N C i ",
"N i i C N i i i i t i i t t i i t i V V i i r r 6 | E.`.|.`.D.Y  .%.%.%.%.%.P t i i C i i i i i i C i i i C i i i N N i i C C N ",
"i i N i i q i i t r i i i N i i r i C C i Z i i i g _.@X#X@XXX/  .%.%.%.$.#.> t i i Z i i i i i i N N i i C i i i i N i i i i i ",
"N N i i i i N i t r N C i C Z i i i i i i i i i i k oX@X@X@X#X[  .%.%.$.%.! : t V C i i C C i i q i N N i C i i i C i i i i i r ",
"C i i q i C C i i i i i i i C i N N N N N N N N N p G.XX_..X.X[  .;.,.S.&.R t i N N N N N N i i i i C C N N N N N N N N N i i i ",
"C i i i i i C i i i C C C i N i i N N i N N N N v x z _.^.^.`./ ~ T.Y.Y.F.j A B B N N C N i N C i i i N N N i i i i N N C C i i ",
"i C i i i i i i i i C C C i i N N N N N N N m n c c 0 :.`.^.`./ ~ T.Y.Y.U.~ e c n F N C N i i C i i i i N N i N i i N i C N i N ",
"i C N i C i i C C i i i N C N i t N N C F F 2 m n n 2 ^ ~.(.`./ ~ T.Y.U.U.| : m n n m B B i i i i C N N i N N N i N N N i i i N ",
"i C i N C i i C C N i i i N C i r i B F n n n n c m 2 k W.^.!.z Q T.U.Y.F.R x c 2 n n n F v 1 i i Z C i N i Z N i N C i i i i N ",
"i i C C i i i i i < N i i N i i C C B b n n n n c n c r z ` z e P T.U.Y.-.s b c m n n n n m i i i i N N C N C C i i N i i C C N ",
"C i i N i q i i i i i C N N C N C B m n n m n n m m n n x x x 2 h E.R.Q.X.: n m m m n m n m B i N N i N i N N N i C Z i i N N N ",
"C i N i i i i i N i C N C C C N N N 2 n n n n n n m n n c m c x z (./.I.T 1 n n n n n n n 2 v i i i i i i N N N C i C i i i i N ",
"N N N N i i i C C i N i C N C i N v 2 n n n n n c c c c c m c 2 z !.W.:.f n n n n n n n n n N i i i i N i N i C C i i C i i i C ",
"N N C C i q i C N N C i i i i i N N n n n n n n c x m c c c m c e g g u c n c n n B n n n n B 1 i i N C i C N C i i i C i i i i ",
"C N N N N i C N i i C i i i t < i N B m n m n n c n c A m m A c c c c c n c x x B 2 F F m F N N N i N N i N C C C i i i i i i i ",
"N N C C C N N N i C Z i i N N N i i B F m n n n m c c m c c c n c c n c x n n n 2 B 2 2 F Z N N i i i i i i < t i C i C i i C Z ",
"N N N N N q i N N N N i N N N N N N N v B m n c n n b m n n n n c c c m c n n n B 2 B B C i i C N i i N i i i i i i i C C i C C ",
"N N N N i t i N N i i N N C N C N N N N N N m n c n b c c c n n m c c c n n c n 2 N Z C i i C C N N i i N C N i i C N C C C C i ",
"N N C C i i i N N i N C C C N i N N N N N N N N B m n B c c m c n n c c m c n m i i i N i i C i C N i N C C N i C C N i C C i i ",
"N N N C N N N C N N N C N N C N Z N N N N r V V N C i C B B N c B B B B B i t t N N N N N t < N i N N i N N N N C C N i N C Z Z "
};
