/* XPM */
static char *out[] = {
/* columns rows colors chars-per-pixel */
"64 64 172 2 ",
"   c None",
".  c black",
"X  c #321C1C",
"o  c #191827",
"O  c #332030",
"+  c #3D2D35",
"@  c #472A39",
"#  c #6D353F",
"$  c #282946",
"%  c #2B2C4C",
"&  c #312944",
"*  c #3A2942",
"=  c #2B2F55",
"-  c #2F3258",
";  c #303359",
":  c #333762",
">  c #383A66",
",  c #353B6A",
"<  c #383D6C",
"1  c #393F71",
"2  c #432B44",
"3  c #45334D",
"4  c #4E334B",
"5  c #553442",
"6  c #413258",
"7  c #5E3851",
"8  c #793C44",
"9  c #3A4074",
"0  c #3D4276",
"q  c #3C447C",
"w  c #3F467E",
"e  c #5D4A5B",
"r  c #684145",
"t  c #714144",
"y  c #67455E",
"u  c #734B50",
"i  c #764853",
"p  c #764B52",
"a  c #73595D",
"s  c #4A4C70",
"d  c #41477F",
"f  c #5E4B72",
"g  c #635669",
"h  c #7D6862",
"j  c #854C4D",
"k  c #824755",
"l  c #8C4950",
"z  c #865251",
"x  c #925555",
"c  c #905657",
"v  c #965E57",
"b  c #9A5957",
"n  c #9D625B",
"m  c #9E695F",
"M  c #A6605E",
"N  c #8E7168",
"B  c #8F776C",
"V  c #8E6A7C",
"C  c #B46967",
"Z  c #B16C64",
"A  c #BA6A67",
"S  c #B27368",
"D  c #B37A6C",
"F  c #B37B6E",
"G  c #A96571",
"H  c #BF7D70",
"J  c #C5776D",
"K  c #CB7173",
"L  c #908072",
"P  c #A2806F",
"I  c #A08078",
"U  c #B48272",
"Y  c #B68A78",
"T  c #C78677",
"R  c #C98372",
"E  c #C88C7B",
"W  c #D28075",
"Q  c #D38779",
"!  c #404986",
"~  c #434B88",
"^  c #585B84",
"/  c #5E5D89",
"(  c #454F90",
")  c #485091",
"_  c #4A549A",
"`  c #4C569B",
"'  c #715F82",
"]  c #5C628E",
"[  c #756787",
"{  c #7F688B",
"}  c #767084",
"|  c #616790",
" . c #646C9A",
".. c #6B6F9B",
"X. c #4E59A3",
"o. c #4E59A4",
"O. c #4F5AA5",
"+. c #535FAD",
"@. c #535FAE",
"#. c #5864B8",
"$. c #747DAB",
"%. c #5C69C1",
"&. c #616FCB",
"*. c #97778C",
"=. c #9D7A89",
"-. c #897190",
";. c #7982AD",
":. c #7382B0",
">. c #7F85B6",
",. c #898199",
"<. c #AA9698",
"1. c #AB9E9E",
"2. c #8487AD",
"3. c #838AB8",
"4. c #A596A9",
"5. c #A59FBE",
"6. c #B6A2AE",
"7. c #CA9581",
"8. c #C29988",
"9. c #E19182",
"0. c #EA9783",
"q. c #EB9E87",
"w. c #E29988",
"e. c #C6A78B",
"r. c #D0B89F",
"t. c #E0A389",
"y. c #ECA48B",
"u. c #E1AA8D",
"i. c #E2AB8F",
"p. c #F5A489",
"a. c #F6AA8D",
"s. c #EEAD91",
"d. c #E3B293",
"f. c #EFB597",
"g. c #E4BA99",
"h. c #F7B191",
"j. c #F8B895",
"k. c #F8B997",
"l. c #F9C09B",
"z. c #FAC29D",
"x. c #FBC8A1",
"c. c #FCCFA5",
"v. c #FCD1A7",
"b. c #FDD7AB",
"n. c #FFE0B1",
"m. c #8893C6",
"M. c #8C99C2",
"N. c #8C98C8",
"B. c #9CA3C4",
"V. c #9CA9C7",
"C. c #9BA5D6",
"Z. c #9FACD2",
"A. c #ABAEC5",
"S. c #B0B3C7",
"D. c #AAB6D6",
"F. c #BABBD2",
"G. c #A6AEE1",
"H. c #B4BDE8",
"J. c #BDC6DA",
"K. c #BCC3E2",
"L. c #D0CFDA",
"P. c #C0C9E4",
"I. c #C8CEE5",
"U. c #C3CCEF",
"Y. c #CBD1EF",
"T. c #CFD8EB",
"R. c #D6DDEC",
"E. c #D2D6F0",
"W. c #E1E5F7",
"Q. c #F0F4FE",
"!. c #F7F9FE",
"~. c white",
/* pixels */
"                                                                                                                                ",
"                                                                                                                                ",
"                                                                                                                                ",
"                                                                                                                                ",
"                                                                                                                                ",
"                                                                                                                                ",
"                                                                                                                                ",
"                                                                                                                                ",
"                                                          0 d d d 1                                                             ",
"                                                      ~ %.&.&.&.&.&.+.;                                                         ",
"                                                    ` &.&.&.&.&.&.#.o.9 -                                                       ",
"                                                  1 &.&.&.&.&.&.#.%.%.o.#.+.%                                                   ",
"                                                  +.&.&.&.&.&.) %.%.&.o.&.&.~                                                   ",
"                                                  &.&.&.&.&.&.~ _ &.&.+.&.&.#.                                                  ",
"                                                  &.&.&.&.&.d #.~ &.&.X.&.&.#.                                                  ",
"                                                < %.&.&.&.%.: @.0 &.@.: &.%.O.                                                  ",
"                                                < @.&.&.%.! - ~ o.O.O.+ o.@.w                                                   ",
"                                                < O.O.O.3 @ $ < _ ! e j.g =                                                     ",
"                                                < O.O.w U f.u O.< o . X m                                                       ",
"                                                _ O.O.w F h.e._ O.@ } h v                                                       ",
"                                                O.O.O.( 4 y.x.< O.N 5.4.b.q.                                                    ",
"                                              1 O.O.O.( , r z f O.L x.b.b.S                                                     ",
"                                              < O.O.O.q q O K 5 O.B c.d.H                                                       ",
"                                              w O.O.O.q & y G K i c D m                                                         ",
"                                              O.O.O.( > | m.$.{ K G ]                                                           ",
"                                              O.O.O.( s <.n.r.F.' f.8.M. .                                                      ",
"                                              O._ O.< I n.n.n.1.P.,.=.S.~.L.                                                    ",
"                                              O.( O.< Y n.n.n.w.B.!.~.W.!.W.A.                                                  ",
"                                              w ( O.* v.n.n.n.Q A.~.~.~.W.I.I.^                                                 ",
"                                              ; w ~ O n.n.n.f.V R.~.~.~.~.J.H...                                                ",
"                                                    O n.n.n.T ;.Y.~.~.~.~.~.]                                                   ",
"                                                    b n.n.n.-.N.E.W.~.~.!.I...                                                  ",
"                                                    n n.n.n.[ C.!.G.H.E.T.U.|                                                   ",
"                                                    n n.n.v.-.Y.Q.3.G.G.D.;.                                                    ",
"                                                    n b.n.x.x K.Q.3.:./ C.                                                      ",
"                                                    # z.n.n.t.*.V.Z.>.^                                                         ",
"                                                    # z.n.n.n.i.6.2.a                                                           ",
"                                                      E n.n.n.n.F n.i.                                                          ",
"                                                      j x.9.n.n.x.P b.                                                          ",
"                                                        U W a.z.a.P n.                                                          ",
"                                                        p.A Z 0.M n.n.                                                          ",
"                                                        8 n z.7.g.n.n.                                                          ",
"                                                        l n z.n.n.n.n.                                                          ",
"                                                        p.t W l.n.n.n.                                                          ",
"                                                      x n x.n.n.n.n.u.                                                          ",
"                                                      p Z z.n.n.b.k.p                                                           ",
"                                                    6 k p.a.z.s.M 7                                                             ",
"                                                    Z p.p.0.M j                                                                 ",
"                                                  2 p.p.C Z p.W 6                                                               ",
"                                                  2 p.p.J p.p.p.R 6                                                             ",
"                                                  6 R R t Z 0.p.R 6                                                             ",
"                                                    6 6   6 2 2 6                                                               ",
"                                                                                                                                ",
"                                                                                                                                ",
"                                                                                                                                ",
"                                                                                                                                ",
"                                                                                                                                ",
"                                                                                                                                ",
"                                                                                                                                ",
"                                                                                                                                ",
"                                                                                                                                ",
"                                                                                                                                ",
"                                                                                                                                ",
"                                                                                                                                "
};
