/* XPM */
static char *out[] = {
/* columns rows colors chars-per-pixel */
"64 64 201 2 ",
"   c #181111",
".  c #19192B",
"X  c #35302F",
"o  c #3A2837",
"O  c #4C2F30",
"+  c #2C2F4D",
"@  c #342A46",
"#  c #3C3540",
"$  c #34354C",
"%  c #36394C",
"&  c #2D2F53",
"*  c #373957",
"=  c #3A3E54",
"-  c #2E3661",
";  c #373A64",
":  c #353B6C",
">  c #3A3E6B",
",  c #383E72",
"<  c #4A3B46",
"1  c #533B47",
"2  c #593C4B",
"3  c #453B56",
"4  c #693B44",
"5  c #3E424D",
"6  c #3D4153",
"7  c #3E435C",
"8  c #3D4264",
"9  c #3C426E",
"0  c #3C4376",
"q  c #3D447B",
"w  c #48424E",
"e  c #564648",
"r  c #434653",
"t  c #484455",
"y  c #454B56",
"u  c #4A4955",
"i  c #4B445D",
"p  c #464D59",
"a  c #484F5A",
"s  c #534B55",
"d  c #5A4857",
"f  c #5A455A",
"g  c #4C545F",
"h  c #53515C",
"j  c #67494F",
"k  c #74474C",
"l  c #70524F",
"z  c #654553",
"x  c #674756",
"c  c #634B55",
"v  c #734A53",
"b  c #6C5554",
"n  c #7C5253",
"m  c #715159",
"M  c #434665",
"N  c #474667",
"B  c #464A67",
"V  c #4A4F64",
"C  c #464A69",
"Z  c #494D6C",
"A  c #524868",
"S  c #4D5561",
"D  c #4C526B",
"F  c #505763",
"G  c #5C5364",
"H  c #515964",
"J  c #555D68",
"K  c #434878",
"L  c #4E5370",
"P  c #565979",
"I  c #6A4B62",
"U  c #635164",
"Y  c #615A7C",
"T  c #76657F",
"R  c #86504E",
"E  c #855557",
"W  c #8B5B5C",
"Q  c #945C57",
"!  c #96645E",
"~  c #9F685E",
"^  c #A8625E",
"/  c #8D5563",
"(  c #996465",
")  c #976D6F",
"_  c #A76463",
"`  c #AD6C64",
"'  c #B36365",
"]  c #B76A68",
"[  c #AB796C",
"{  c #B77569",
"}  c #A26773",
"|  c #B77876",
" . c #C16B6E",
".. c #C2796E",
"X. c #C97B71",
"o. c #AE897A",
"O. c #BD8372",
"+. c #AA957F",
"@. c #C58373",
"#. c #CD8475",
"$. c #C68C79",
"%. c #D68879",
"&. c #D5927E",
"*. c #E1947E",
"=. c #3F4989",
"-. c #444B83",
";. c #464C86",
":. c #444C8B",
">. c #50588C",
",. c #495295",
"<. c #495395",
"1. c #4B559C",
"2. c #5E6489",
"3. c #68688B",
"4. c #776E8E",
"5. c #6C739B",
"6. c #4D59A4",
"7. c #4E59A4",
"8. c #505BA5",
"9. c #525EAB",
"0. c #5460AF",
"q. c #5662B3",
"w. c #5864B8",
"e. c #5965BA",
"r. c #5B68BE",
"t. c #747BA5",
"y. c #5E6BC5",
"u. c #5F6DC8",
"i. c #606ECA",
"p. c #6170CD",
"a. c #856C89",
"s. c #987687",
"d. c #887997",
"f. c #7A84B2",
"g. c #938A98",
"h. c #968899",
"j. c #AF9589",
"k. c #878BAA",
"l. c #938EA8",
"z. c #8A90B4",
"x. c #9A9BBC",
"c. c #A098B0",
"v. c #A8A6BB",
"b. c #B2A5B7",
"n. c #C89B8C",
"m. c #D39A83",
"M. c #DD9882",
"N. c #EA9783",
"B. c #E19A82",
"V. c #EC9B84",
"C. c #CDAA8D",
"Z. c #D8A58B",
"A. c #D7AC8C",
"S. c #DBB394",
"D. c #D6B996",
"F. c #E8A68B",
"G. c #F2A187",
"H. c #F3A589",
"J. c #F9A98C",
"K. c #E6B696",
"L. c #EEB295",
"P. c #F6B997",
"I. c #C1B4A4",
"U. c #D0BCA4",
"Y. c #DFC09A",
"T. c #E9C19B",
"R. c #F4C39E",
"E. c #F4CCA4",
"W. c #FACCA3",
"Q. c #EADAAF",
"!. c #F3D1A7",
"~. c #F6D3A8",
"^. c #FBD5AA",
"/. c #F6DAAC",
"(. c #FCDBAE",
"). c #FDDFB0",
"_. c #FEE1B2",
"`. c #8C96C5",
"'. c #909BC8",
"]. c #A6AAC7",
"[. c #A7B0CE",
"{. c #A3AED5",
"}. c #A2ABDE",
"|. c #A7B0D9",
" X c #A9B3DF",
".X c #B2BBD8",
"XX c #B1B9E2",
"oX c #BFC4D6",
"OX c #BBC3DA",
"+X c #BAC1E7",
"@X c #C3CBE6",
"#X c #CCD4EB",
"$X c #D6DAE9",
"%X c #DCE2F4",
"&X c #E3E5EE",
"*X c #E4E7F7",
"=X c #E9ECF3",
"-X c #EAEDF9",
";X c #EFF1FA",
":X c #F3F5FA",
">X c #FDFDFE",
/* pixels */
"S H g y g g J J g g g g J H g p F S g S S J S g g S S 7 g g g g F g H H S S J F g H g g a a g y g y a g g S S S g p g J H g H J ",
"S F g g g H g g g H g g H g g g g g g g S H S S S g g y 5 6 6 6 6 p p g H S S S H J H g g g g g g g g g g H g g g a p g g a p H ",
"g F F g g H g g g a g g a p g g a g S S g S a g g p 7 -.1.0.0.0.7.-.7 y g F S g H H g g F g g g F g g S H g g g g g a g g g a g ",
"g g S S H g g g g g g g a g g g a g S S g g a a 5 8 0.u.i.u.y.i.u.u.0.K y g F S g g g g g g g g F g g g g g g g g H g g g S S g ",
"g g g g F g g g H g g g g H g g g H S g g a 6 = + =.9.r.u.u.i.i.u.i.i.u.;.y H F g g p g g g g g g g a a g g g g g J S g H J H g ",
"F g H H g y g H g g g g g g g J S g g S g 5 0 ,.,.0.e.w.w.u.p.i.i.i.u.u.r.9 a g g g g g H H g g p a g S g g p a g g g g g g g J ",
"y g F H g g g g g g g y g g g g g a a g 6 9 w.i.9.1.i.w.r.0.q.i.i.p.i.i.u.1.V g g g g g g g g g g g g g g S g p a g g g g H H S ",
"g F F F g g g H H g g g g g g H g a g g p 1.u.i.y.9.i.u.w.7.1.i.i.u.i.i.i.r.8 g g g H H g g g g S g g g a g g g g g g p g g S H ",
"g H H g g g g J H g g g g g g H g g g a 6 q.i.i.i.8.i.i.6.9.:.y.i.i.i.i.i.i.> p g S F g g g g H S S g g g g H g g g g g g g g H ",
"g g g g g J g g g g J g g g g g g g g g 6 q.i.i.i.6.i.i.8.,.1.,.p.u.i.i.i.i.K g g g g g F H g g S H S g g g H H g g J J g g g g ",
"H H g g H g g H H g H g g a a H g g p r * 7.y.i.w.q w.i.q., 1.K y.i.i.i.i.i.<.= g F S g g g F g H g g g g g S S g H g g g g g H ",
"g J H g g J g g g g g g g g g g g g g a 7 <.q.u.:.& 6.w.6.-.:.- 1.u.i.i.i.r.,.$ g F g g g g g g S g g g g J S g g g g J H g g g ",
"g H g g a g g g g g J g g g g g H F g g p 9 6.9.I c :.6.0.,., : 9 =.e.y.e.0.,.$ g g F g g g a g g S S g a g g g a a g H g S H H ",
"H g g g a g g g H g H g H g g J H H F g g 6 + M j.$.f , :., : @ 2 < K 6.6.6.,.$ g g F g g g a g g H g g g g S S g a g g g g g S ",
"g g g H g g a a g g H J H g g H g H F g g g w e [ O   . & , =.k Z.A.x ,.6.8.,.% g g g g g g g g g g g g g g H S g g S g g g g S ",
"g J H g g g g g g p g g g g g g g g F g g g s l O X # o K 7.:.j.F.K.1 :.8.6.1.9 y g g g y g g g H H g g g J S S g g g g H H g g ",
"J g H H H g g g g g g S S S H g S S S S g w E $.A.g.l.) q 6.2.Z.F.O.p <.7.7.9.0 5 S H S g g S S H H g g y g S H H S H g g S g y ",
"g g g H H g a g S g g S S S S S H H S S g 5 #.~.!.x.b.+.q 6.G S.Z.W : 1.7.8.8.q 5 S S S S S S g g g g g g g S S S S S g g S g g ",
"g g g g H g a g g g S g S g g S S S S S g a W T.).^.!.+.-.<.z W R + q <.7.7.7.<.7 S S S S S S S H g g g S S S S S S S a g g g g ",
"g g g H g g g g g g g g S S g g S S S S g g s ! Z.R.^.j.;.-.k ' O - 0 =.7.7.8.1.7 7 S S S S S S g g g g g S g g S S g p p g g g ",
"g a g H H H H g S g 5 S S S g g g g S g g S g s W m.Z.[ 3 I  .| v @ , q 7.8.7.1.7 S H S S S S g g g S H g S S S S S S g g S g y ",
"g g g g g g H g g g S S S S g g y g g g g g H g s 1 I / '  .} a.5.A & q 1.9.7.7.q 7 5 S S S H S 7 g g g S H H S S S J S g g g g ",
"H g g g g H g g S g 5 g g g S g g g g g H g g g Z P 3.|  .} k.k.v.t.>.0 =.9.7.9.=.5 5 S H H S g g S g S S S S S g S H S g S g S ",
"g H H g H g g g S S g g S g S S g H g a g g J Y k.k.n.H.s.'.v.U.Q.U.h.N =.8.7.9.=.5 S S H S S g S S S g g S g S g S H S S S g S ",
"g H H H H g a g g g g S g g g S g H g a g F l.&X=Xl.j.j.].].I.).^.).E.U 9 6.1.6.=.6 H S S S g g g S S g g H a g g S S S H S g S ",
"g g g H g g a g g g g H a a g S g g g g a k.=X:X=X@X.XOX#Xd.S.).).)._.m : 9.:.6.>.5 g S g S S S S g g S g H a g g g g g g g g g ",
"g y g g g g g g S g g g g g g S H g g g D oX%XOX-X>X>X>X$Xs.V.).).).).[ ; 6.:.6.=.7 g g S S H S S S S g S S g g g S H g g g g 5 ",
"g g g g H g H H S S H S g S S H g g g H t.#X$X#X>X>X>X>X=Xl.@.Q.).)._.S.@ ,.:.<.7 g 5 g S S S S H S g S H g S g S H S y g S S H ",
"g H g H H g H g g S S g S g S S g H g S f. X.X>X>X>X>X>X:Xx.} P._._._.D.o 0 ; -.5 g g S H H H g g S g g S S H H S S g S g g g S ",
"g H H g H H H H g a g g S S g S g a g g P 5.$X>X>X>X>X>X:X|.a.m.(._._.D.o % % = g g g H g S g S S S g g g S H S g g g H g S S S ",
"g H g g g H g g g a g g H S g S g a g g p 3.$X:X>X>X>X:X-X X`.} E._._.D.j a g g g g g S g g g g H g a a g S S S g S S g S S H S ",
"g g g H H g J H H H g g g g S H g g H J V 5.{.%X;X:X*X@X%XXX'.4.K._._.!.! u g h H g S H g g g g g g g g S H S g g S S S S g g S ",
"H g S H S S g g g g g g g g a H S H S S V 2.{.%XXX+X X}.%X%X}.T Y._._.!.! u F g g g g g g g g g g g g g g g a a g g g g g g g H ",
"g g g g g g H S H g g H H g g H S S S g g V 5..X'.}.}.z.OX:XXXs.K._.(./.! 6 g g g y g g g H g p g J g g g g g g g g g J H g g g ",
"g g a a g g g g g g g H g g g g g g g a g g J `.t.t.f.t.@X-Xx.} L._.).E.! r g g g a g g g g H g g J g g g H g g g g g H H g g g ",
"S g a g S S g g g g g g g g g H S S a a S g F P >.2.`. X#X[.s.$.^._._.F.k u g g g g g g g g g g g g g g g H g H g H g g g g g H ",
"S g H H g g g a a g g y g g H J H S S S H g g g V V Y `.oXc.O.W.)._.(.F.4 u H h g p g g g H g g J g g g g g g g g J g g g g g g ",
"S g g S H H H g g g g g g g g g S g g g g g g J H h ) h.4.n.!.).).(.).&.4 u g F g g g g g H g H g g g J g g g g g g 5 g g g g H ",
"g H S g g g g g g g H g g a a g S g a a g g g J g c A.Q.[ T._.).(.(./.! < g g g H g g g g g g g g g g g g H g g g g g g g g H g ",
"g S g S g g H H g H g g g g g H S H S a g g g g g j !.C.$.(._.(.L.K.F.k u g g H g g H H g g H g J g g g g g g H H g g H H H g g ",
"S g g g a S H S S S g g H g g g S H S g g S S g S b /.j.O.R.W.R.&.L.R w a g g g g g H g g g g g S g g g a g S S H g g H H g g g ",
"g S g g 5 H S S g S S S S g S g g S S S g g J S F b /.D.O.H.H.@.' B.( h g g g H g g g g H g g g g g g g y S g S g g g g g H H H ",
"5 H S S g g g g g g J S g H J H S g S S g g J g g b /._.o...#.@.{ { | h H g g g J g g g g g g g g g S S g S g S H g g g g g H J ",
"S S g g S S H S g g J g g S g H S g S S g g S g S b /.).!.A.A.P...4 b H g H g H H g J g a g g H S S S g g S g g g g H H g g g g ",
"S S S S g S S g g g S S a a g S g g g g g g a p p b /.)._.)._.L.! ` s g g g g g g g g g g g g g S S g S S g g a g S S S g S H g ",
"S S S S g a S g g a g g a g g g g g S S S H a p p b /.).).).W.B.R &.W h g g a g g g H g g g g g g S S g S S S g g S S g g H H S ",
"S g S g S 5 g g a p g g g g g g p g H H g J g g S b E.(.).(.P.m.[ ` ..c h g p g H g J g g g g g g S S g S S S S g g g g S g g g ",
"S g S S S g S g a p g J S S J g g g g g g g g S S 2 $.(.).).).).!.$.` l g g p a g J g g J H g g y g g S g S S S S S S S g S S 7 ",
"H g 7 g g H g g g g g g g S H g S S S S S D D D V Z m Z.R./.)._.W.*.Q d D S S S S S g S S S g g g g H H S S S g S S S S S g g g ",
"S g g g g H H g g g H H H g S g V S S S D Z C C M 8 i z _ M.R.W.P.G.` f N Z Z S S S g H S S S H g g S S S S S g g g S S H H g g ",
"S S g g g g H g g g H H S g g S S S D Z Z B C C C C M B i x ^ #.G.G.V.#.E M C Z D H g S S g g H S g g g S S S S g g S g H S g S ",
"g H H g g g g S H g g g H H S g D L C C Z B 8 C C C B Z C d ] { ' %.G.H.@.f C C 9 L H g g g g g S S S g g g S S g S S S g g g S ",
"g H S S H g g H H S S S g S H S Z C C C C C B B C C C C i W N.H.%.` %.G.*.j M B 8 8 L D S g 5 S S H H S g g J S g S H g g g g S ",
"g g S H S g g g 7 5 g S g g g H Z C C Z C C C C C C C 8 W N.G.G.J.*.X.G.&.j B C D B B L H 7 a S S S S S H S H H g g g g g H H S ",
"H g g S g y g g H S S H S H H 8 D C C C C C C C C C C t ( H.H.V.#.~ R *.$.d B Z Z Z B L S g g g g S g S S g S S g H H H g S S S ",
"H g S g g a g H H S S H S H H H C C C C C C C C C C C C i n n v 2 3 3 l d B B Z 9 Z B B g g g g g g g g g S S S H g H g g g g S ",
"S g S g S S g H H g S S S H S S C C B C C C C C B B C C C M 8 8 B Z C M C C C C D 8 D L D g g g g g S S S S S S H g g H g g g g ",
"S S S J S 5 g S S S S g g g 7 S Z 8 C C C C C C M M C C C Z Z C Z N C C Z C N C 8 D 8 J S g g 7 g S S S g H S S g g g H g g g H ",
"J g g g S S J S g S H g g g H 7 D Z B C C C C C C C C Z C Z Z C B B C Z C C M M 9 D J H S H g S S g S S g S S H H g S g g g g g ",
"S S S J J S S S g S J S g S S H D L Z B C C C C C C C C C C B C B C C M 8 C C N D 0 H S H H S g g g g S g g y a g S S H H g H H ",
"S S S S S 5 H S S g S g g S S H g g D V Z C C C C C Z C B B B C C C C C C C C Z H g S g S g S H S g g S g g g g g g S H g S H H ",
"S g S S g a S S S g g S H S S S g S S F D V Z C C C Z C B B C C C C C C C Z D D S S S S g g S H S S g g S H S g S H g H H H H g ",
"S g J S g g g S S g S H H H S S S S S H H g S g S D B B B Z Z B C Z V S S S g g g g g g S g g S S S g S H H S g S H S g H H g S ",
"S S H H S S S H S S S H S S H S J S S S g y F D S H S g g S F S S J H S S S y a S g S S S a y S S S S g S S S g H J g S g H J J "
};
