/* XPM */
static char *out[] = {
/* columns rows colors chars-per-pixel */
"64 64 207 2 ",
"   c #090709",
".  c #382123",
"X  c #352737",
"o  c #2A2A46",
"O  c #352E4A",
"+  c #353849",
"@  c #34345C",
"#  c #363A5B",
"$  c #393D5D",
"%  c #363965",
"&  c #363A64",
"*  c #493A49",
"=  c #563F48",
"-  c #443B59",
";  c #533C54",
":  c #633F4A",
">  c #423E67",
",  c #3C404B",
"<  c #3D4152",
"1  c #3C405A",
"2  c #3E4363",
"3  c #3E446A",
"4  c #3B4175",
"5  c #3D447C",
"6  c #49444E",
"7  c #5A4249",
"8  c #424554",
"9  c #4E4455",
"0  c #454B56",
"q  c #4B4B54",
"w  c #41455B",
"e  c #4B425A",
"r  c #464D59",
"t  c #484F5A",
"y  c #534B54",
"u  c #5C4B52",
"i  c #514359",
"p  c #584758",
"a  c #4C545F",
"s  c #50525C",
"d  c #6F4145",
"f  c #77474B",
"g  c #664853",
"h  c #664954",
"j  c #754B59",
"k  c #6B5458",
"l  c #7D5453",
"z  c #434565",
"x  c #4A4461",
"c  c #454967",
"v  c #494D63",
"b  c #42466A",
"n  c #464A69",
"m  c #494D6C",
"M  c #4D5561",
"N  c #4D536B",
"B  c #515762",
"V  c #515964",
"C  c #555D69",
"Z  c #464C75",
"A  c #4D5271",
"S  c #555877",
"D  c #665966",
"F  c #745C67",
"G  c #72516B",
"H  c #5C617C",
"J  c #686277",
"K  c #804E57",
"L  c #8B5454",
"P  c #865A58",
"I  c #9A5A57",
"U  c #945F5A",
"Y  c #88625E",
"T  c #96635C",
"R  c #A3645E",
"E  c #8A5C67",
"W  c #905D6B",
"Q  c #8C6466",
"!  c #986661",
"~  c #8D6575",
"^  c #AA6D65",
"/  c #BE696D",
"(  c #AD7166",
")  c #A8766A",
"_  c #B17266",
"`  c #B2766A",
"'  c #B8786B",
"]  c #BA6B72",
"[  c #AD777A",
"{  c #BC7E73",
"}  c #C2726E",
"|  c #CC7772",
" . c #A88A74",
".. c #B28A75",
"X. c #B88876",
"o. c #C58779",
"O. c #D38C7A",
"+. c #D88A79",
"@. c #DB937D",
"#. c #E1957E",
"$. c #3F4782",
"%. c #414984",
"&. c #444D8C",
"*. c #49528E",
"=. c #595D85",
"-. c #454E91",
";. c #465093",
":. c #495295",
">. c #4A549C",
",. c #4B559C",
"<. c #5F6391",
"1. c #63678A",
"2. c #75698B",
"3. c #686894",
"4. c #767897",
"5. c #4D57A0",
"6. c #4E59A4",
"7. c #505BA5",
"8. c #515DAA",
"9. c #5662B3",
"0. c #5865B8",
"q. c #5966BB",
"w. c #5B68BF",
"e. c #797FAF",
"r. c #5D6AC2",
"t. c #5F6DC8",
"y. c #606ECA",
"u. c #6270CD",
"i. c #8C7487",
"p. c #98798A",
"a. c #7B82AE",
"s. c #7982B3",
"d. c #9F8891",
"f. c #A9858C",
"g. c #A49294",
"h. c #BDA488",
"j. c #8885A7",
"k. c #958EA9",
"l. c #8890AE",
"z. c #838AB5",
"x. c #969BB9",
"c. c #A299A6",
"v. c #B399A0",
"b. c #A8A5B8",
"n. c #BBA7B8",
"m. c #D48B80",
"M. c #C79A85",
"N. c #DB9882",
"B. c #E29680",
"V. c #E39B83",
"C. c #EC9D84",
"Z. c #DCA78A",
"A. c #CDA296",
"S. c #D5A892",
"D. c #CBB89C",
"F. c #DAB495",
"G. c #D4B99A",
"H. c #EFA187",
"J. c #E8A289",
"K. c #F1A187",
"L. c #F4A388",
"P. c #F5AA8D",
"I. c #F9AA8D",
"U. c #F0AC90",
"Y. c #E5B594",
"T. c #F4BB9A",
"R. c #C5B3AB",
"E. c #D9C49D",
"W. c #EAC79F",
"Q. c #F6C29D",
"!. c #FAC49D",
"~. c #DBC4A1",
"^. c #E8CAA3",
"/. c #F9C6A0",
"(. c #F5CAA2",
"). c #FACDA4",
"_. c #EAD1A7",
"`. c #F7D6A9",
"'. c #F2D6AC",
"]. c #FCD6A9",
"[. c #FCDDAE",
"{. c #FDDFB0",
"}. c #F7E5B3",
"|. c #FCE1B1",
" X c #8994C3",
".X c #959CC6",
"XX c #9AA3C8",
"oX c #9EA6D9",
"OX c #A8AAC5",
"+X c #B7B7CC",
"@X c #A4ADD2",
"#X c #ABB3D6",
"$X c #B1BCDC",
"%X c #A9B1E1",
"&X c #B5BDE4",
"*X c #BEC8DF",
"=X c #BAC1E5",
"-X c #C7CCE3",
";X c #CDD2E2",
":X c #D6DAE8",
">X c #D3DAF3",
",X c #DDE5F5",
"<X c #E2E5EE",
"1X c #E7EAF6",
"2X c #EFF2FC",
"3X c #F3F5FA",
"4X c #FDFDFD",
/* pixels */
"M C a 0 a M C V a M M M C V a r V a a M V C M a a M M r a a a a M a V C a a C V M V M a t r a 0 a 0 t a M M a M a 0 a C M M M C ",
"M B a a a V M a M V a a M M a a a a a a a V a M M M a a a t t t t a t a C a a a V V V a M M a a a a a a M V M a a t r M a t t V ",
"a B a a a V a a a t a a a t a a t a M M a M t a M M a t 1 1 & 2 1 1 1 < V a a a V V M a a M a a M a a M M M a a a a a a a a t a ",
"a a M M a M a a a t a a t t a a t a M M a a t a M M < 3 ;.0.r.r.r.r.8.$.1 t V a a a a a a a M a M a a a M a a a a M a a a M M M ",
"M a M a B a a a V a a a a V a a a V V a a a a M a < 1 8.t.t.t.t.t.t.u.t.8.2 a V a a < a M M a a a a t r a a a t M V M a M V V M ",
"M a B B a 8 a V a a a a a a a V a a a a a a M t # 2 $.8.0.q.t.y.t.u.t.t.u.9.2 a a M M M M M a M r a a M a a r t M a a a M M M V ",
"r a B C a a a a a a a r a a a V a r t M M V a 3 6.8.6.q.0.r.0.t.t.u.u.t.t.u.:.< a a a a M M a a a a a a a M a t t a a a a M V V ",
"a M B B B a a V V a a t a a a V a a a a a M 1 6.u.r.>.q.r.r.8.6.u.t.t.u.t.u.w.3 t M M M M a a a M a a a t a a a a a a t a M M V ",
"a V a V V V a V V a V a a a a V M a M M M M Z t.t.t.0.r.t.9.8.8.t.t.t.u.y.y.y.&.+ a B M M M M M V M a a a a V a a a V a a a a V ",
"V a a a a C a a a a V a a a a a a a M a a a ,.t.t.t.8.q.u.9.>.%.9.u.y.y.y.y.y.*.* M a a M M M a a M V a a a V V a M V C a a a a ",
"a V a a a a a a V V a a a t t V a M r r M + >.t.y.u.8.0.y.r.-.-.6.t.t.u.y.y.y.6.1 B M a a M M M V a a a a a a a a M M a a a a M ",
"a V V a a C a a a a a a a a a a a a a a M + &.0.t.r.% -.r.9.% 6.2 9.t.t.y.y.y.8.1 t a a a M a a a a a a a C V a a a a C V a a M ",
"V V a t 0 V a a a a V a a a a a V M M M M < $.8.r.6.o -.9.6.&.>.@ $.9.y.y.y.r.6.# r M M M t r M a V a a t a a a a 0 a M a a V V ",
"V a a a a a a a a V V V a V a V M V M M a M 1 $.5.% p S $.6.&.% @ & @ :.9.q.8.5.1 r M a a a r a a V a a a a M M a a a a a M a M ",
"a a V V a a 0 a a a a C a V a V M V M M a a 6 X o k { f O O @ $.O k Y p >.6.6.6.# r a a t M M a a a a a a a V M a a M a M a a M ",
"V V V a a a a a a t a V a a a a a M V M a a a a 6 Y .   . & 6.5.p N./.P > 8.6.6.1 r a M r t M M V V a a a C M a a a a a V V a a ",
"V a M V V M a a a a a V a V V a M V M M a V a q l L k J k # 8.;.D T.T.P 5 6.6.6.1 < M M a a a M V V a a < V M V V M V M a M a < ",
"V a a V V a < a a a a a M a M M V V a a a < q P N.W.v.z.A.z 8.>.D U.X.9 $.6.6.6.1 t M V V M M M a a a a a a V V M M M M a a M M ",
"a a a a V a M M a a V a a a a M V a a V a t q T W.[.R.n.Y.n 8.-.F F.l 3 $.9.6.6.3 a a M M M M M V a a a a M M M a M M a a a M M ",
"a t M V M M M M a a a a M M a a a a M M a a t u o.`.|.[.W.c 8.& f d o 5 $.6.6.6.*.< M a a M M a a a a a a M a a M M M < t a a a ",
"V < M V M M M M a a , a V V a a a a M a M M a a h ` Z.).Y.> -.j } : O > $.>.6.6.*.1 M M M M M a a a V M a M a M a a M a a a a < ",
"M a a a M M V M V a V a a a a a 0 a a a a a V a a g ) X.{ : j } / E * % $.$.6.6.$.1 < M M M V M < a a a a C V V V V C M a a a V ",
"M M M a M M M a a a < a a a a a a a a a V a a a t 0 ; > G / | ~ 2.e.3.> 1 $.6.6.:.2 < V V V M a V a a a a M M M a a V a a a M M ",
"M V M M M a M a a M a a a a a M a V a t M a a a a v S 1.| } W OXj.R.x.3.2 4 ,.7.7.2 r M V M M a a V a a a M a M a a V M M V a M ",
"M M M M M M a a a a a M a a a a a V a t a M a a M H .Xp.S.g.x.n.F.{.'.~.f.- ;.6.6.3 2 M M M a a a M M a M V a a a M V a V M a a ",
"M a V V a a 0 a a a a V a a a a M a a a a a a a 4.4.OXp.d.OX#Xf.'.{.{.{.^.j %.>.>.$.2 M M M M M M a a M M C < a a a a a a a a a ",
"M 0 a a M M M M M a a a a a a a V M a M a a 0 H ;X.X$X:X:X1Xk.] ).{.{.{._.u % -.6.6.< M M M V M M M M a M a a a a a V M a a a , ",
"a a a M V M M M M M V M a a a V a a a V V a V x.1X-X1X4X4X1Xc.m.U.{.{.{.'.P % -.$.>., 2 M M M M V a a M V M a a V V a 0 a a V V ",
"a M M M V M V M a M M a a a M V M M a a V a 1.*X*X1X4X4X4X3XOXM.O.|.{.{.[.X.$ &.:.*., V V M V a M a a M M V V V a M a V a a a a ",
"M M M M V M V M a a a a M M a a a t a a M M l.<X$X1X4X4X4X4X;Xp.X.|.{.{.|.h.X # 4 < < V a a M M M M a a a V V a a a a V a M V V ",
"M M M M M V M M t t M M M M M M a 0 a V M v XX*X:X4X4X4X4X4X1Xz.E ).{.{.}.M.6 0 , t a a a M a a M a t t M a M a a M M a a V V a ",
"M a M M V M V V M V M a M a M V M a V V M M .XXX<X4X4X4X4X4X1X XF M.|.{.|.F.k s V a a V M M M a M a a a M V M a a M a a a a a a ",
"M a M a M M a a a V a a a a t V M V B a B v a.s.;X4X4X4X4X2X,X@Xz. .}.[.{.).K q a a V a a a a M M a a a a M 0 a a a M a a a a M ",
"M a a a M a V a a a a V V a a a a M M a a a S =.x.,X4X2X>X=X>X=Xj. .|.{.|.).T s t r a a a V a t a V M a a a a a a a a V V M a M ",
"M a 0 a a a a a a a a a V a a a a a t t a a M m s.=X@X&X%XXX;X@Xa.~ ^.|.|.].O.= t t a a a V a t a M M a M M a a a a M V V M a M ",
"M a a a a M a a a a a a a a a V M M a t M M a M <.s. XoX Xs.:XOXp.U E.|.{.[.Z.= a a a B a a a a M M a a a V M M a M M a a a a M ",
"M a V V M a M a a a a 0 a a V C V M M M B B a a v =.1.<.=.s.@Xc.S.Q E.|.{.|.Z.7 t r a a M M M a C M a M a a M a a V a a a a a M ",
"M a a M M V M a a a a a a a a a M M a a a a B C V S x.XXx.#X#XOXOXi.Z.].[.|.Z.= M a a a M M M M M a M V a a a a a V < a a a a M ",
"a V M a a M a a a a a M a a 0 V a a a r a a a B a F g.l.c.b.+X-X+X[ K.I.!.!.@.= M a a a a M M M M a a M a M M a a a a a a a V a ",
"a M M a a a V V a V a a a a a a B M a a a a a a 6 X.}.E.D.D.R.J Q #.).].).I.@.= M a V M a a M a V a a a a M a V V a a V V V a M ",
"M a a a a M V M a V a a V V a a B B M a a M B a h F.[.|.|.}.}...+.T.|.|.{.].O.= a a M M M M a M V a a a t a M M V a a V V a V a ",
"a M a a < M M M a a a a a a V a a a M a a a B r Q _.}.[.[.{.G.( O./.].|.[.[.) a a a a M M M a a a a a a < a a M a a a a a M V M ",
"0 M M a a a a a a V V a a V C V a a M V a a B y ..[.[.{.|.|.E.^ ' V.(.[.Q.).Y s M M a M M M a a a a a a V V M V V a a a a a M C ",
"a a a a M M V M a a C V a a a V B a M a a a a u F.|.|.{.[.[.[.T L +.J.!.N.O.l s V M V M t r M M a M V a a a M V a a V V a a a V ",
"M a M M a a M M a a a a t t V a a a a a a a q Y _.[.[.{.[.}.O.' R I ^ ' R : y a M M B a t a a a a a a a M a M < t M M M a M V a ",
"M M M M M t a a a t a a t a a a a a V a a V 6 ) [.[.{.[.Q.X.) C.#._ _ ' L 6 t a a M M M M M a M a V M a M M M t t M M a a V V M ",
"M a M a t 0 a a t 0 a a a a a a t a V V a V q  .}.[.{.{.].Y.' +.L.I.I.P.o.u 0 t M M V M M M M a a V M a M M M M M M M a M M a a ",
"M M M a M M M a a t a V a V V a a a a a a a t ! `.{.{.{.}.!.#.} K.K.K.K.C.U 8 a M B M M V M M a , a a M M M M M M V M M a M M < ",
"M M 0 t a V M a a a M M M M V M M M M M M B a u  .T.].].T.I.K.^ @.L.L.L.L.` y a M M M M M M a a V a V V a a a M M M M V a a a a ",
"M M a a M M M M a M V V M M a a a M M a a M M a p ( P.P.L.L.L.I +.L.L.L.L.' y a M M a V M a M V a a a V a V M a a a a M V V a a ",
"M M a a a M M M a M M M M M a M M M M M V M m n n i ^ K.L.L.L._ R P.K.K.H.! t N M M M M a a a V a a a a a V a a a a M a M V a M ",
"M V M M M a a M M M a a V M M a t a M V A m c c n c i ( K.L.L.m.L ( C.L.B.g b n N N M M a a a a a a V a a a a V a M V a a a a M ",
"M M M M V M a V V V a M a M M a r a N m m n n n n n n i ` C.K.K.+.' _ H.m.g b n 3 m N N M t < a V V V a a a V V a M V M a a M M ",
"M M M M M M M a a , a M a M M M C A Z n n n n n n n n n i ( K.L.P.O.R J.( e n n n n 3 A V 2 a a a a a V V V V V a a M M a V V a ",
"V M a M a 0 M M a a M V M V V M N N c c n m n n n m n n n p | L.H.' O.L.! - n m m n n m A M a a V a a a a a V a a M V M a M M M ",
"M M M a a 0 a M M a M V M M V M N n m n n n n c n n n n n x U C.H.R O.#.Y 2 n n n m n n N M a a a a a a a a a V M M V a a M a M ",
"M a M M V a a V V M V a M V M a t c c n n n n n c c n c m n h @.H.T P g - n n n 3 N 2 v 3 a a a a a M M a M a V V a M M a a a M ",
"M a V V a , a V M M M a a a a a N b b c n n n n c z c n n n e ^ ( 7 w n m n c c N 3 N 3 N M M < a M M M a V M M M a a V M a a M ",
"V M a a a M C M a M V M a a a , N n c n n n n n n n n N n m m e e b n n n n z z N N A 3 A V M a M a M M a M a V V a M M M a a M ",
"a V V C C M a a a M C a M a M M M A m n m c n n m c n n n n n n n n n c z n c n 3 N 3 3 A V M a a a a a a a 0 a M M M M M a M C ",
"M M M V M 0 a V V a V a a a V M M N N n n n n n n n m c c n c n c n n n c n n n N 3 V A M M a V M a a a a a a a a a a V M M V M ",
"M a M a a t a a a a a a V V M M M M M N N n n n c n m n n n n n n n n n n c z n 3 N V V M a M V M M a M M V a a a V M V V V V M ",
"a a V V a a a a a a a V V V a a M M M V M N m n n n n n n n m n n n n b c n n m M M a a a a a a V M a M V V V a V V M a V V a M ",
"V a V V V a M V V a a V a V V V C M M M M 0 M N N N N n c m m c m m A m v N r a a M M a a a t a a M M a M a a M V V a M a V C C "
};
