/* XPM */
static char *out[] = {
/* columns rows colors chars-per-pixel */
"64 64 171 2 ",
"   c None",
".  c black",
"X  c #321C1C",
"o  c #222034",
"O  c #332030",
"+  c #432C36",
"@  c #472A39",
"#  c #282946",
"$  c #312944",
"%  c #2D2E50",
"&  c #2B2F55",
"*  c #2F3258",
"=  c #313154",
"-  c #303359",
";  c #333762",
":  c #353B6A",
">  c #383D6C",
",  c #393F71",
"<  c #432B44",
"1  c #45334D",
"2  c #4E334B",
"3  c #403254",
"4  c #413258",
"5  c #5E3851",
"6  c #5B3D54",
"7  c #3A4074",
"8  c #3D4276",
"9  c #3C447C",
"0  c #3F467E",
"q  c #5D4A5B",
"w  c #684145",
"e  c #714144",
"r  c #7C4B4E",
"t  c #67455E",
"y  c #734B50",
"u  c #764853",
"i  c #764B52",
"p  c #41477F",
"a  c #4F4F7C",
"s  c #53547E",
"d  c #714E63",
"f  c #7D6862",
"g  c #854C4D",
"h  c #824755",
"j  c #8C4950",
"k  c #865251",
"l  c #8D565C",
"z  c #925555",
"x  c #905657",
"c  c #965E57",
"v  c #9A5957",
"b  c #9D625B",
"n  c #9E695F",
"m  c #A6605E",
"M  c #8E7168",
"N  c #8F776C",
"B  c #9F7165",
"V  c #866370",
"C  c #896571",
"Z  c #936675",
"A  c #946D79",
"S  c #B16C64",
"D  c #BA6A67",
"F  c #B27368",
"G  c #B37A6C",
"H  c #B37B6E",
"J  c #A96571",
"K  c #BF7D70",
"L  c #C5776D",
"P  c #CB7173",
"I  c #C67D71",
"U  c #908072",
"Y  c #A2806F",
"T  c #B48272",
"R  c #B68A78",
"E  c #C98372",
"W  c #D28075",
"Q  c #D58F7F",
"!  c #DD8D7B",
"~  c #C2907B",
"^  c #CB927C",
"/  c #404986",
"(  c #434B88",
")  c #515482",
"_  c #585B84",
"`  c #454F90",
"'  c #485091",
"]  c #4A549A",
"[  c #4C569B",
"{  c #715F82",
"}  c #756787",
"|  c #7F688B",
" . c #767084",
".. c #616790",
"X. c #6C6C90",
"o. c #6B6F9B",
"O. c #4E59A3",
"+. c #4E59A4",
"@. c #4F5AA5",
"#. c #535FAD",
"$. c #535FAE",
"%. c #5864B8",
"&. c #7678A6",
"*. c #747DAB",
"=. c #5C69C1",
"-. c #616FCB",
";. c #8A7C94",
":. c #7982AD",
">. c #7F85B6",
",. c #9E828F",
"<. c #A6808A",
"1. c #A2918E",
"2. c #AB9E9E",
"3. c #8382A9",
"4. c #8487AD",
"5. c #8D94BD",
"6. c #9396B4",
"7. c #A298A2",
"8. c #A596A9",
"9. c #A59FBE",
"0. c #CA9581",
"q. c #D79E89",
"w. c #EA9783",
"e. c #EB9E87",
"r. c #CDA893",
"t. c #D7A598",
"y. c #ECA48B",
"u. c #EDA68D",
"i. c #E2AB8F",
"p. c #F5A489",
"a. c #F6AA8D",
"s. c #EEAD91",
"d. c #E3B293",
"f. c #EFB597",
"g. c #F7B191",
"h. c #F8B997",
"j. c #F9C09B",
"k. c #FAC29D",
"l. c #FBC8A1",
"z. c #FCCFA5",
"x. c #FCD1A7",
"c. c #FDD7AB",
"v. c #FFE0B1",
"b. c #8893C6",
"n. c #919DCB",
"m. c #96A2CD",
"M. c #A4A8C5",
"N. c #ABAEC5",
"B. c #B0B3C7",
"V. c #ABB1D1",
"C. c #AEBBD9",
"Z. c #B1BBD7",
"A. c #BABBD2",
"S. c #B1BADD",
"D. c #A6AEE1",
"F. c #B4BEE1",
"G. c #B9C0D7",
"H. c #BCC3E2",
"J. c #B9C3E4",
"K. c #C3C9E2",
"L. c #C0C9E4",
"P. c #C8CEE5",
"I. c #CBD1EF",
"U. c #D2D6F0",
"Y. c #D2DBF6",
"T. c #DEE2EC",
"R. c #D9E0F6",
"E. c #E8EAF7",
"W. c #F0F4FE",
"Q. c #F7F9FE",
"!. c white",
/* pixels */
"                                                                                                                                ",
"                                                                                                                                ",
"                                                                                                                                ",
"                                                                                                                                ",
"                                                                                                                                ",
"                                                                                                                                ",
"                                                                                                                                ",
"                                                                                                                                ",
"                                                          , p p p 8                                                             ",
"                                                      - #.-.-.-.-.-.=.(                                                         ",
"                                                    * 7 +.%.-.-.-.-.-.-.[                                                       ",
"                                                  [ %.+.=.=.%.-.-.-.-.-.-.,                                                     ",
"                                                , -.-.+.-.=.=.' -.-.-.-.-.#.                                                    ",
"                                                #.-.-.#.-.-.] [ -.-.-.-.-.-.                                                    ",
"                                                %.-.-.O.-.-.( ' =.-.-.-.-.-.                                                    ",
"                                                @.=.-.; $.=.> $.; =.-.-.-.=.>                                                   ",
"                                                ` $.+.o @.@.+.( * / =.-.-.$.>                                                   ",
"                                                  & ; ~ q ; > > # @ 1 @.@.@.>                                                   ",
"                                                    n X . + @.@.y f.T 0 @.@.>                                                   ",
"                                                    c f  .@ @.@.U g.H 0 @.@.>                                                   ",
"                                                  e.c.8.9.M @.@.M y.2 ` @.@.>                                                   ",
"                                                  F c.c.l.U @.0 k w : / @.@.]                                                   ",
"                                                    K d.z.N @.6 P O 9 9 @.@.@.                                                  ",
"                                                      n G x u P J t $ 9 ] @.@.                                                  ",
"                                                        s J P | *.b...= ` @.@.,                                                 ",
"                                                      5.Z f.{ A.r.v.2.V : @.@.>                                                 ",
"                                                    X.V.A ;.L.,.v.v.v.x.3 ] ] 0                                                 ",
"                                                  M.G.S.!.!.M.P v.v.v.v.O ` ` @.                                                ",
"                                                  R.E.Q.!.!.N.s.f.v.v.v.r ` ` @.                                                ",
"                                                M.G.R.!.!.!.T.<.0.v.v.v.Y % ` 7                                                 ",
"                                                L.Z.!.!.!.!.!.:.H v.v.v.Y                                                       ",
"                                                D.G.!.!.!.!.W.b.d v.v.v.q.                                                      ",
"                                                :.4.Q.!.!.Q.Y.C.} v.v.v.k.                                                      ",
"                                                  ..J.P.I.D.L.C.3.i.v.v.l.j                                                     ",
"                                                  ) >.n.D.*.K.B.<.Y v.v.v.b                                                     ",
"                                                    _ a a o.m.7.t.Y v.v.v.b                                                     ",
"                                                      6.F.P.U.P.H.S h.c.c.b                                                     ",
"                                                    v v.1.1.2.&.C u.k.j.a.b                                                     ",
"                                                    R v.v.v.v.R w.c.v.v.l.z                                                     ",
"                                                    x.v.v.v.v.b q.l.v.c.v.                                                      ",
"                                                  v v.v.v.v.v.B I Q c.f.k.                                                      ",
"                                                  R v.v.v.v.c.n b L p.L b                                                       ",
"                                                  l.v.v.c.i.n p.E b b g                                                         ",
"                                                  c.v.v.v.c.^ E p.p.p.!                                                         ",
"                                                  ^ c.v.v.x.a.D p.p.p.p.v                                                       ",
"                                                    E h.h.p.p.b p.p.p.p.b                                                       ",
"                                                    4 E p.p.p.S E p.p.p.l                                                       ",
"                                                      4 E p.p.w.g E p.p.<                                                       ",
"                                                        4 E p.p.p.b p.! 4                                                       ",
"                                                          4 W p.p.m p.b                                                         ",
"                                                            h p.p.b p.b                                                         ",
"                                                            < p.p.e 5 4                                                         ",
"                                                              i i                                                               ",
"                                                                                                                                ",
"                                                                                                                                ",
"                                                                                                                                ",
"                                                                                                                                ",
"                                                                                                                                ",
"                                                                                                                                ",
"                                                                                                                                ",
"                                                                                                                                ",
"                                                                                                                                ",
"                                                                                                                                ",
"                                                                                                                                "
};
