/* XPM */
static char *out[] = {
/* columns rows colors chars-per-pixel */
"64 64 175 2 ",
"   c None",
".  c black",
"X  c #221825",
"o  c #272127",
"O  c #212034",
"+  c #332030",
"@  c #3E2A3B",
"#  c #45312F",
"$  c #472A39",
"%  c #282946",
"&  c #2B2C4C",
"*  c #3A2942",
"=  c #3C314E",
"-  c #2F3258",
";  c #373256",
":  c #303359",
">  c #3D395E",
",  c #333762",
"<  c #3C3760",
"1  c #373965",
"2  c #353B6A",
"3  c #383D6C",
"4  c #393F71",
"5  c #432B44",
"6  c #4C3443",
"7  c #5D3440",
"8  c #413258",
"9  c #4B3C5F",
"0  c #5E3851",
"q  c #593B55",
"w  c #713B44",
"e  c #3D4276",
"r  c #3C447C",
"t  c #3F467E",
"y  c #57474D",
"u  c #60484B",
"i  c #734341",
"p  c #7F4C4B",
"a  c #7C4B4E",
"s  c #734B50",
"d  c #764B52",
"f  c #45416C",
"g  c #41477F",
"h  c #74616D",
"j  c #854C4D",
"k  c #884950",
"l  c #8C4950",
"z  c #925555",
"x  c #995656",
"c  c #915C5B",
"v  c #9D625B",
"b  c #A6605E",
"n  c #8E5160",
"m  c #9C5B68",
"M  c #A05C63",
"N  c #8C6862",
"B  c #8E7168",
"V  c #9F7165",
"C  c #B16C64",
"Z  c #AE7565",
"A  c #A07869",
"S  c #B37B6E",
"D  c #A96571",
"F  c #B5787A",
"G  c #C5776D",
"H  c #CB7173",
"J  c #D57D78",
"K  c #908072",
"L  c #A2806F",
"P  c #AB8273",
"I  c #B68A78",
"U  c #C98372",
"Y  c #CA8A76",
"T  c #C88C7B",
"R  c #D28075",
"E  c #D6847C",
"W  c #D58F7F",
"Q  c #404986",
"!  c #434B88",
"~  c #515482",
"^  c #585B84",
"/  c #454F90",
"(  c #485092",
")  c #4A549A",
"_  c #5C628E",
"`  c #756787",
"'  c #7F6D85",
"]  c #7F688B",
"[  c #6B6F9B",
"{  c #79799C",
"}  c #4E59A3",
"|  c #4E59A4",
" . c #4F5AA5",
".. c #515BA5",
"X. c #535FAD",
"o. c #535FAE",
"O. c #5864B8",
"+. c #6A75A0",
"@. c #7579A0",
"#. c #7678A6",
"$. c #747DAB",
"%. c #5C69C1",
"&. c #616FCB",
"*. c #887A95",
"=. c #7F85B6",
"-. c #898199",
";. c #A2918E",
":. c #8487AD",
">. c #9997AC",
",. c #868CB2",
"<. c #9396B4",
"1. c #9F9FB9",
"2. c #A19CB6",
"3. c #B4ACAE",
"4. c #A2A0B5",
"5. c #ABA6B2",
"6. c #CA9581",
"7. c #CD9F84",
"8. c #CB9A8B",
"9. c #DF9B83",
"0. c #D79E89",
"q. c #EA9783",
"w. c #EB9E87",
"e. c #E29988",
"r. c #CFB099",
"t. c #E0A389",
"y. c #ECA48B",
"u. c #E2AB8F",
"i. c #F5A489",
"p. c #F6AA8D",
"a. c #EFB395",
"s. c #EFB597",
"d. c #F7B393",
"f. c #F8B997",
"g. c #F9BF99",
"h. c #CBA8A5",
"j. c #D1A8AA",
"k. c #D5BEB8",
"l. c #F9C09B",
"z. c #FAC29D",
"x. c #FBC8A1",
"c. c #FCD1A7",
"v. c #FDD7AB",
"b. c #FFE0B1",
"n. c #8893C6",
"m. c #8C98C8",
"M. c #919DCB",
"N. c #9BA7CF",
"B. c #9BA5D6",
"V. c #A4A8C5",
"C. c #ABAEC5",
"Z. c #A8AEC7",
"A. c #A4A7CB",
"S. c #B2AEC2",
"D. c #B0B3C7",
"F. c #ABB1D1",
"G. c #AAB6D6",
"H. c #AAB4DD",
"J. c #AEBBD9",
"K. c #BABBD2",
"L. c #A6AEE1",
"P. c #B4BDE8",
"I. c #B9C0D7",
"U. c #B6C0D9",
"Y. c #C3C9E2",
"T. c #C8CEE5",
"R. c #C3CCEF",
"E. c #CAD2E9",
"W. c #CBD1EF",
"Q. c #CFD8EB",
"!. c #D2D6F0",
"~. c #E1E5F7",
"^. c #E8EFFD",
"/. c #F7F9FE",
"(. c white",
/* pixels */
"                                                                                                                                ",
"                                                                                                                                ",
"                                                                                                                                ",
"                                                                                                                                ",
"                                                                                                                                ",
"                                                                                                                                ",
"                                                                                                                                ",
"                                                                                                                                ",
"                                                                                                                                ",
"                                                          ! %.&.&.&.X.4                                                         ",
"                                                      1 %.&.&.&.&.&.&.X.,                                                       ",
"                                                      %.&.&.&.&.&.%.O.O.| / :                                                   ",
"                                                    ! &.&.&.&.&...%.O.&./ &.&.                                                  ",
"                                                    %.&.&.&.&.&.X.X.&.&.O.&.&.!                                                 ",
"                                                    &.&.&.&.&.&.g / &.&.} &.&.O.                                                ",
"                                                  4 &.&.&.&.&.( X.e &.%.! &.&.o.                                                ",
"                                                  3 O.&.&.&.| -  .t o. .% %.O.)                                                 ",
"                                                  3  .O.O.! - - 3 o.) t y / ) ,                                                 ",
"                                                  3  . .) c I @ ! 3 6 # Z u                                                     ",
"                                                  3  . .3 L w.B  . .X o . i                                                     ",
"                                                  3  . ./ a y.B  . .s 1.h.a.b                                                   ",
"                                                  t  . ./ 9 Y P )  .K j.k.b.9.                                                  ",
"                                                   . . .r r + k <  .K b.b.l.p                                                   ",
"                                                   . . .r 2 7 H M 3 N g.9.w                                                     ",
"                                                   . ./ 2 = #.] D H n q                                                         ",
"                                                3  . .Q > +.3.-.A.m J ' ~                                                       ",
"                                                3  . .; t.b.b.v.5.A.r.F F.f                                                     ",
"                                                ) / / * b.b.b.b.D G.K.4.H.V.{                                                   ",
"                                                 ./ / $ b.b.b.c.E 4.(.(.~.T.E.                                                  ",
"                                                ) / t V b.b.b.0.8.I.(.(.(.~.Y.,.                                                ",
"                                                & , O L b.b.b.6.*.(.(.(.(./.I.I.                                                ",
"                                                      I b.b.b.j m./.(.(.(.(.U.P.                                                ",
"                                                      s.b.b.b.` N.^.(.(.(.(.V.B.                                                ",
"                                                      z.b.b.c.` J.R.W./.(.Q.[ ^                                                 ",
"                                                    z v.b.b.I $.Z.I.B.L.M.P._                                                   ",
"                                                    v b.b.b.L i.D.W.$.=.$._                                                     ",
"                                                    v b.b.v.V 2.>.n.[ @.<.                                                      ",
"                                                    v l.l.i.R S.!.C.4.:.;.                                                      ",
"                                                    v p.v.b.x.U h b.b.b.b.V                                                     ",
"                                                    l b.b.b.v.e.S b.b.b.b.u.                                                    ",
"                                                      b.x.b.s.T v b.b.b.b.b.                                                    ",
"                                                      i.W f.G C A b.b.b.b.b.V                                                   ",
"                                                        x v j v U 7.b.b.b.b.u.                                                  ",
"                                                        C i.i.i.i.v t.v.b.b.v.                                                  ",
"                                                        i.i.i.i.C f.b.b.b.b.x.                                                  ",
"                                                      v i.i.i.i.b i.d.v.v.f.p                                                   ",
"                                                      v i.i.i.i.v i.i.i.i.d                                                     ",
"                                                      0 i.i.i.v R i.i.i.d                                                       ",
"                                                      5 i.i.v C i.i.i.d                                                         ",
"                                                        C i.z i.i.q.d                                                           ",
"                                                        v i.C i.i.b                                                             ",
"                                                        d C v i.i.0                                                             ",
"                                                            5 U U 8                                                             ",
"                                                              8 8                                                               ",
"                                                                                                                                ",
"                                                                                                                                ",
"                                                                                                                                ",
"                                                                                                                                ",
"                                                                                                                                ",
"                                                                                                                                ",
"                                                                                                                                ",
"                                                                                                                                ",
"                                                                                                                                ",
"                                                                                                                                "
};
