/* XPM */
static char *out[] = {
/* columns rows colors chars-per-pixel */
"64 64 173 2 ",
"   c None",
".  c black",
"X  c #321C1C",
"o  c #171523",
"O  c #221825",
"+  c #3E2A3B",
"@  c #472A39",
"#  c #5F2F38",
"$  c #282946",
"%  c #2B2C4C",
"&  c #312944",
"*  c #3A2942",
"=  c #362E4E",
"-  c #2D2E50",
";  c #2F3258",
":  c #313154",
">  c #303359",
",  c #333762",
"<  c #353B6A",
"1  c #383D6C",
"2  c #393F71",
"3  c #432B44",
"4  c #45314C",
"5  c #4E334B",
"6  c #593345",
"7  c #483C52",
"8  c #413258",
"9  c #5E3851",
"0  c #593B55",
"q  c #713B44",
"w  c #7A3F47",
"e  c #713F49",
"r  c #3D4276",
"t  c #3C447C",
"y  c #3F467E",
"u  c #4F4F5C",
"i  c #53445E",
"p  c #7F4C4B",
"a  c #7B5848",
"s  c #764B52",
"d  c #41477F",
"f  c #53547E",
"g  c #674D6D",
"h  c #675677",
"j  c #7B5870",
"k  c #824755",
"l  c #884950",
"z  c #925555",
"x  c #995656",
"c  c #9A5957",
"v  c #A7575C",
"b  c #9D625B",
"n  c #9E695F",
"m  c #A6605E",
"M  c #88596F",
"N  c #A95D61",
"B  c #B05D62",
"V  c #836463",
"C  c #8C6862",
"Z  c #9F7063",
"A  c #9F7165",
"S  c #886B76",
"D  c #9D737A",
"F  c #B16C64",
"G  c #AE7565",
"H  c #A07869",
"J  c #B27368",
"K  c #BE766C",
"L  c #B37B6E",
"P  c #A96571",
"I  c #B5787A",
"U  c #C5776D",
"Y  c #CB7173",
"T  c #C67D71",
"R  c #A2806F",
"E  c #B68A78",
"W  c #C98372",
"Q  c #D28075",
"!  c #D58F7F",
"~  c #DD8D7B",
"^  c #E08A7E",
"/  c #404986",
"(  c #434B88",
")  c #5E5D89",
"_  c #454F90",
"`  c #485091",
"'  c #4A549A",
"]  c #6B6781",
"[  c #666289",
"{  c #746080",
"}  c #616790",
"|  c #656F9E",
" . c #6B6F9B",
".. c #4E59A3",
"X. c #4E59A4",
"o. c #4F5AA5",
"O. c #535FAD",
"+. c #535FAE",
"@. c #5864B8",
"#. c #516DB9",
"$. c #6A75A0",
"%. c #747DAB",
"&. c #5C69C1",
"*. c #616FCB",
"=. c #84768E",
"-. c #9D7B87",
";. c #A17F8B",
":. c #7982AD",
">. c #7E87B0",
",. c #7F85B6",
"<. c #7D8ABB",
"1. c #8C8999",
"2. c #998B9B",
"3. c #A6808A",
"4. c #A7878E",
"5. c #A38891",
"6. c #A78F9E",
"7. c #AB9E9E",
"8. c #8C8CAE",
"9. c #9997AC",
"0. c #838CB2",
"q. c #838AB8",
"w. c #8D94BD",
"e. c #9B9BB5",
"r. c #9299BF",
"t. c #9599BE",
"y. c #B0A3A0",
"u. c #D69683",
"i. c #D79E89",
"p. c #EA9783",
"a. c #EB9E87",
"s. c #F5A489",
"d. c #EEAD91",
"f. c #EFB597",
"g. c #F7B191",
"h. c #F8B997",
"j. c #F0BC9B",
"k. c #F9BF99",
"l. c #F9C09B",
"z. c #FAC29D",
"x. c #FBC8A1",
"c. c #FCCFA5",
"v. c #FCD1A7",
"b. c #FDD7AB",
"n. c #FAC9B0",
"m. c #FFE0B1",
"M. c #8893C6",
"N. c #8C98C8",
"B. c #999FC0",
"V. c #9CA3C4",
"C. c #96A2CD",
"Z. c #9BA5D6",
"A. c #A4A8C5",
"S. c #ABAEC5",
"D. c #A4A7CB",
"F. c #ABB1D1",
"G. c #AAB4DD",
"H. c #B4BBD5",
"J. c #A6AEE1",
"K. c #B4BDE8",
"L. c #B9C0D7",
"P. c #B9C3E4",
"I. c #C0C9E4",
"U. c #C8CEE5",
"Y. c #C3CCEF",
"T. c #CBD1EF",
"R. c #D2D6F0",
"E. c #E1E5F7",
"W. c #E8EAF7",
"Q. c #E8EFFD",
"!. c #F0F4FE",
"~. c #F7F9FE",
"^. c white",
/* pixels */
"                                                                                                                                ",
"                                                                                                                                ",
"                                                                                                                                ",
"                                                                                                                                ",
"                                                                                                                                ",
"                                                                                                                                ",
"                                                                                                                                ",
"                                                                                                                                ",
"                                                                                                                                ",
"                                                            2 d d d r                                                           ",
"                                                        > O.*.*.*.*.*.&.(                                                       ",
"                                                      > *.*.*.*.*.*.&.@._ ; ; %                                                 ",
"                                                      O.*.*.*.*.*.&.&.@.&.X.@.X.                                                ",
"                                                    2 *.*.*.*.*.*.` O.*.O.&.*.&.,                                               ",
"                                                    d *.*.*.*.*.` ' &.*.O.*.*.*.'                                               ",
"                                                    ` *.*.*.*.*.y y *.*...*.*.*.'                                               ",
"                                                    +.*.*.*.*.r o.y +.&.1 O.*.+.1                                               ",
"                                                    o.&.*.*.X.; 1 @.o.o.7 7 @.o.                                                ",
"                                                  % o.o.o.y @ + o.1 - C g.k.O o                                                 ",
"                                                  1 o.o.o.5 x.V o.o.1 X . G                                                     ",
"                                                  y o.o.o.5 l.z.y o.1 -.u a v                                                   ",
"                                                  o.o.o.' < J d.] o.1 n.#.c.l.z                                                 ",
"                                                , o.o.o./ t & n e ' 1 b.x.m.l.                                                  ",
"                                                y o.o.' t t $ l N = - c.c.u.p                                                   ",
"                                                o.o.o./ t : 0 M Y N B T Z p                                                     ",
"                                                o.o.' t : | M.G.8.P Y g                                                         ",
"                                                o.o./ < J b.b.4.B.D.I j.1.w.                                                    ",
"                                                o.' t 5 v.m.m.b.5.Q.F.h { W.E.A.                                                ",
"                                                y _ < A m.m.m.! ;.~.^.^.~.E.E.^.A.                                              ",
"                                                , / ; E m.m.m.Q t.^.^.^.^.W.0.^.I.                                              ",
"                                                  t * v.m.m.v.j U.^.^.^.^.^.e.T.J.}                                             ",
"                                                      m.m.m.E N.!.^.^.~.Q.~.e.Z.Z.                                              ",
"                                                    z m.m.m.A ,.Y.E.^.P.E.G. .%.$.                                              ",
"                                                    b m.m.m.6 M.P.Z.J.~.T.%.q.%.                                                ",
"                                                    b m.m.m.4 <.V.N.K.^.!.r. .f                                                 ",
"                                                    F m.m.m.i 3.2.>.Y.^.!.:.D F                                                 ",
"                                                    p.m.m.l.=.E.L.R.S.H.C.) s.s.p                                               ",
"                                                    s.x.l.s.6.^.E.L.e.9.7.S ^ p.F                                               ",
"                                                  c l.m.m.m.K [ y.m.m.m.m.v.w ~ Q                                               ",
"                                                  H b.m.m.m.d.F m.m.m.m.m.m.F U Q                                               ",
"                                                  R f.m.m.x.i.p.H m.m.m.m.m.E b q                                               ",
"                                                  b U s.h.! L b z l.m.m.m.m.v.                                                  ",
"                                                      F s.x b s.# p l.m.m.m.m.                                                  ",
"                                                      c b W s.Q     p l.m.m.m.n                                                 ",
"                                                      p.s.s.s.z       F a.b.b.n                                                 ",
"                                                    z s.s.s.s.      F s.s.s.s.                                                  ",
"                                                    b s.s.s.Q 8   3 p.s.s.s.Q                                                   ",
"                                                    z s.s.s.z     8 Q s.s.s.z                                                   ",
"                                                    9 s.s.s.9       b s.s.s.9                                                   ",
"                                                    3 s.s.s.k       z s.s.s.3                                                   ",
"                                                    3 s.s.s.s.s     9 s.s.s.k                                                   ",
"                                                    8 b Q s.s.s     3 s.s.s.s.s                                                 ",
"                                                        3 3 3         9 m p.s.s                                                 ",
"                                                                          3 3                                                   ",
"                                                                                                                                ",
"                                                                                                                                ",
"                                                                                                                                ",
"                                                                                                                                ",
"                                                                                                                                ",
"                                                                                                                                ",
"                                                                                                                                ",
"                                                                                                                                ",
"                                                                                                                                ",
"                                                                                                                                "
};
