/* XPM */
static char *out[] = {
/* columns rows colors chars-per-pixel */
"64 64 177 2 ",
"   c None",
".  c black",
"X  c #2D151D",
"o  c #3D2922",
"O  c #39202F",
"+  c #212034",
"@  c #332030",
"#  c #382933",
"$  c #44202C",
"%  c #44273A",
"&  c #472A39",
"*  c #5F2F38",
"=  c #66353E",
"-  c #282946",
";  c #2B2C4C",
":  c #2F3258",
">  c #373256",
",  c #333762",
"<  c #333864",
"1  c #353B6A",
"2  c #383D6C",
"3  c #393F71",
"4  c #432B44",
"5  c #45314C",
"6  c #5D3440",
"7  c #413258",
"8  c #4B3C5F",
"9  c #5E3851",
"0  c #693E4B",
"q  c #713B44",
"w  c #7A3F47",
"e  c #3A4074",
"r  c #3D4276",
"t  c #3C447C",
"y  c #3F467E",
"u  c #7F4C4B",
"i  c #7C4B4E",
"p  c #7A5244",
"a  c #684955",
"s  c #6D465E",
"d  c #714A53",
"f  c #765A5A",
"g  c #504269",
"h  c #4A4C70",
"j  c #41477F",
"k  c #53547E",
"l  c #715263",
"z  c #6B5F7C",
"x  c #7C636C",
"c  c #854C4D",
"v  c #824755",
"b  c #884950",
"n  c #8C4950",
"m  c #925555",
"M  c #995656",
"N  c #9A5957",
"B  c #9D625B",
"V  c #9E695F",
"C  c #A6605E",
"Z  c #88596F",
"A  c #995E65",
"S  c #A95D61",
"D  c #9F7063",
"F  c #9F7165",
"G  c #957A7D",
"H  c #B46967",
"J  c #B16C64",
"K  c #BD676A",
"L  c #AE7565",
"P  c #A87D68",
"I  c #B27368",
"U  c #BE766C",
"Y  c #A1717B",
"T  c #B5787A",
"R  c #C5776D",
"E  c #CB7173",
"W  c #A2806F",
"Q  c #B48272",
"!  c #B88578",
"~  c #C98372",
"^  c #CA8A76",
"/  c #D28075",
"(  c #D38779",
")  c #D58F7F",
"_  c #DD8D7B",
"`  c #CB907A",
"'  c #434B88",
"]  c #5E5D89",
"[  c #454F90",
"{  c #4A549A",
"}  c #4C569B",
"|  c #7F688B",
" . c #616790",
".. c #6F6F96",
"X. c #646C9A",
"o. c #6B6F9B",
"O. c #79799C",
"+. c #4E59A3",
"@. c #4F5AA5",
"#. c #515BA5",
"$. c #535FAD",
"%. c #535FAE",
"&. c #5864B8",
"*. c #7678A6",
"=. c #747DAB",
"-. c #5C69C1",
";. c #616FCB",
":. c #8A7C94",
">. c #7F85B6",
",. c #898199",
"<. c #938595",
"1. c #A2918E",
"2. c #B69387",
"3. c #AF8E9A",
"4. c #8C84A7",
"5. c #8487AD",
"6. c #988FA6",
"7. c #9997AC",
"8. c #838CB2",
"9. c #838AB8",
"0. c #8290BD",
"q. c #8D94BD",
"w. c #9396B4",
"e. c #9299BF",
"r. c #B3A3A8",
"t. c #A2A0B5",
"y. c #B9B1B0",
"u. c #CA9581",
"i. c #EA9783",
"p. c #D0B090",
"a. c #D0B89F",
"s. c #E0A389",
"d. c #EDA68D",
"f. c #E2AB8F",
"g. c #EDAB8F",
"h. c #F5A489",
"j. c #F6AA8D",
"k. c #E5A892",
"l. c #EFB597",
"z. c #F8B895",
"x. c #F8B997",
"c. c #F0BC9B",
"v. c #F9BF99",
"b. c #E2BBB6",
"n. c #F9C09B",
"m. c #FAC29D",
"M. c #FBC8A1",
"N. c #FCCFA5",
"B. c #FDD7AB",
"V. c #FFE0B1",
"C. c #8893C6",
"Z. c #8C98C8",
"A. c #9BA7CF",
"S. c #9FACD2",
"D. c #A8AEC7",
"F. c #ADA6C8",
"G. c #B0B3C7",
"H. c #A2ACD0",
"J. c #AAB6D6",
"K. c #ADB6D5",
"L. c #B4BBD5",
"P. c #A6AEE1",
"I. c #B4BDE8",
"U. c #B9C0D7",
"Y. c #C3C9E2",
"T. c #C8CEE5",
"R. c #C3CCEF",
"E. c #CBD1EF",
"W. c #CFD8EB",
"Q. c #D2D6F0",
"!. c #D9E0F6",
"~. c #E1E5F7",
"^. c #E8EAF7",
"/. c #E8EFFD",
"(. c #F0F4FE",
"). c #F7F9FE",
"_. c white",
/* pixels */
"                                                                                                                                ",
"                                                                                                                                ",
"                                                                                                                                ",
"                                                                                                                                ",
"                                                                                                                                ",
"                                                                                                                                ",
"                                                                                                                                ",
"                                                                                                                                ",
"                                                                                                                                ",
"                                                          ' -.;.;.;.$.3                                                         ",
"                                                      + { -.;.;.;.;.;.;.}                                                       ",
"                                                  e [ [ &.&.&.;.;.;.;.;.;.'                                                     ",
"                                                ; &.;.$.$.-.-.} ;.;.;.;.;.-.                                                    ",
"                                                y ;.;.;.&.;.$.{ #.;.;.;.;.;.r                                                   ",
"                                                @.;.;.;.+.;.;.{ ' ;.;.;.;.;.j                                                   ",
"                                                y -.;.-.' ;.-.2 { #.;.;.;.;.$.                                                  ",
"                                                3 @.;.' 2 %.@.$.' , -.;.;.;.@.                                                  ",
"                                                  2 2 P P 2 2 2 ' - , $.&.%.@.                                                  ",
"                                                    X g.p L 2 @.@.f Q g @.@.@.,                                                 ",
"                                                      o . # 2 @.{ ! M.@ @.@.@.2                                                 ",
"                                                  q ( n...b.2 @.2 d.` 8 @.@.@.{                                                 ",
"                                                  N N.B.F.M.2 @.x n.i t [ @.@.@.;                                               ",
"                                                    ^ B.V.V.2 y b = : t t @.@.@.2                                               ",
"                                                      C v.z.0 6 E S & 1 t [ @.@.{                                               ",
"                                                          s K E Z *.*.h 1 t @.@.@.                                              ",
"                                                        ] T E | T.8.r.r.a t [ @.@.                                              ",
"                                                    q.~.G 2.:.~.7.M.V.V.s.> t @.@.                                              ",
"                                                O.).).E.D.G.(./.Z c.V.V.V.i t [ {                                               ",
"                                                U._.H.^._._._._.6./ V.V.V.W : [ 2                                               ",
"                                              X.I.).w._._._._._.U.A V.V.V.f.> t <                                               ",
"                                              X.P.P.t._.(._._._.~.4.f.V.V.V.O :                                                 ",
"                                                0.Z.5.!.(.!._._.!.>.W V.V.V.n                                                   ",
"                                                X.=.o.Z.E.W.Q.I.R.C.c V.V.V.B                                                   ",
"                                                   .9.o.~._.P.Z.J.Z.5 V.V.V.B                                                   ",
"                                                  l k S.(._.R.A.w.3.5 V.V.V.B                                                   ",
"                                                  _ h.k K.L.q.>.,.q.z B.V.V./                                                   ",
"                                                B h.h.] q.T.)._._._.<.j.B.V.h.                                                  ",
"                                                R / S f.V.a.1.y.e.Y.Y m.M.M.j.                                                  ",
"                                                / h.M V.V.V.V.V.V.d j.V.V.V.B.V                                                 ",
"                                                H R F V.V.V.V.V.p./ k.B.V.V.M.W                                                 ",
"                                                  $ f.V.V.V.V.B.V B u.l.B.m.) F                                                 ",
"                                                    V.V.V.V.B.^ w h.B R h.h.c u                                                 ",
"                                                  N V.V.V.B.^     i.~ c B *                                                     ",
"                                                  D V.V.c.I       J h.h.h./                                                     ",
"                                                  N x.x.h.h.u     n h.h.h.h.n                                                   ",
"                                                    i.h.h.h./     % i.h.h.h.B                                                   ",
"                                                    J h.h.h.i.4     J h.h.h.B                                                   ",
"                                                    v h.h.h.J       v h.h.h.v                                                   ",
"                                                    4 h.h.h.B       9 h.h.h.4                                                   ",
"                                                    9 h.h.h.v     7 U h.h.h.4                                                   ",
"                                                  7 U h.h.h.4     B h.h.h.h.4                                                   ",
"                                                  B h.h.i.J 7     7 B B w 4                                                     ",
"                                                  7 B m 9                                                                       ",
"                                                                                                                                ",
"                                                                                                                                ",
"                                                                                                                                ",
"                                                                                                                                ",
"                                                                                                                                ",
"                                                                                                                                ",
"                                                                                                                                ",
"                                                                                                                                ",
"                                                                                                                                ",
"                                                                                                                                ",
"                                                                                                                                "
};
