/* XPM */
static char *out[] = {
/* columns rows colors chars-per-pixel */
"64 64 202 2 ",
"   c #161315",
".  c #1C1E2F",
"X  c #372639",
"o  c #4D332C",
"O  c #41313F",
"+  c #37394D",
"@  c #303156",
"#  c #3A3956",
"$  c #3B3C5D",
"%  c #353964",
"&  c #3B3C60",
"*  c #353B6B",
"=  c #383D6D",
"-  c #373E73",
";  c #4B384A",
":  c #553B46",
">  c #443D5A",
",  c #4A3D5B",
"<  c #683E49",
"1  c #4D3C60",
"2  c #3C404D",
"3  c #3E4352",
"4  c #3E435D",
"5  c #3D4264",
"6  c #3E446C",
"7  c #3B4273",
"8  c #3C447C",
"9  c #48414D",
"0  c #5A474D",
"q  c #424552",
"w  c #4D4453",
"e  c #454B56",
"r  c #44435B",
"t  c #4A445A",
"y  c #464D59",
"u  c #494F5A",
"i  c #594655",
"p  c #524A53",
"a  c #4C545F",
"s  c #50505B",
"d  c #64474C",
"f  c #6B4A4D",
"g  c #75474B",
"h  c #654955",
"j  c #6A4C52",
"k  c #734C53",
"l  c #7C4E57",
"z  c #775458",
"x  c #444564",
"c  c #494463",
"v  c #454A66",
"b  c #494C65",
"n  c #464A69",
"m  c #494D6C",
"M  c #4D5561",
"N  c #4D536B",
"B  c #515663",
"V  c #515964",
"C  c #555D6A",
"Z  c #434A76",
"A  c #4C5171",
"S  c #57587B",
"D  c #68637F",
"F  c #854C4F",
"G  c #845355",
"H  c #8A5859",
"J  c #945959",
"K  c #89665E",
"L  c #98625C",
"P  c #A7625E",
"I  c #995B68",
"U  c #896A69",
"Y  c #976763",
"T  c #8C6874",
"R  c #986A7E",
"E  c #907674",
"W  c #A36562",
"Q  c #A56B63",
"!  c #AC6864",
"~  c #BB6C6A",
"^  c #AA766A",
"/  c #B7766C",
"(  c #B9726B",
")  c #AF6771",
"_  c #A77A74",
"`  c #B87E70",
"'  c #C46D6F",
"]  c #C37C6F",
"[  c #C86F71",
"{  c #C97E73",
"}  c #A98A79",
"|  c #BB8875",
" . c #CB8273",
".. c #C88977",
"X. c #C28C7A",
"o. c #D7887A",
"O. c #D7927D",
"+. c #DB937F",
"@. c #E1907D",
"#. c #3E4685",
"$. c #3F4885",
"%. c #434B85",
"&. c #484E85",
"*. c #444D8B",
"=. c #545789",
"-. c #464F91",
";. c #465093",
":. c #4A5294",
">. c #4B559B",
",. c #5D6586",
"<. c #656589",
"1. c #796E8E",
"2. c #696B96",
"3. c #6B719C",
"4. c #787497",
"5. c #4C57A1",
"6. c #4E59A3",
"7. c #505BA6",
"8. c #525DAB",
"9. c #5560AE",
"0. c #5662B4",
"q. c #5966BB",
"w. c #5B68BF",
"e. c #6F75A3",
"r. c #737BA8",
"t. c #5D6BC4",
"y. c #5F6DC8",
"u. c #606ECA",
"i. c #6371CE",
"p. c #876B87",
"a. c #86778F",
"s. c #967485",
"d. c #7B82AE",
"f. c #898299",
"g. c #BC9B83",
"h. c #B8AC9E",
"j. c #8889AA",
"k. c #9893AA",
"l. c #8B92BA",
"z. c #9899B8",
"x. c #A49AAF",
"c. c #B5A9AC",
"v. c #A4A3B8",
"b. c #C78A81",
"n. c #DA9683",
"m. c #E49681",
"M. c #E49C84",
"N. c #EC9E85",
"B. c #CCA289",
"V. c #D6A589",
"C. c #C8A492",
"Z. c #DBAF90",
"A. c #DAB694",
"S. c #E7A589",
"D. c #F2A287",
"F. c #F4A388",
"G. c #F6AB8D",
"H. c #EAB28F",
"J. c #E2BC99",
"K. c #EABC9A",
"L. c #F6BB98",
"P. c #D3B3B4",
"I. c #E9C59E",
"U. c #F5C49E",
"Y. c #DFCCAA",
"T. c #E6CAA6",
"R. c #F6CBA4",
"E. c #EBDAAD",
"W. c #F7D4A9",
"Q. c #FBD5A9",
"!. c #FCDCAE",
"~. c #F5DEB0",
"^. c #FDDFB0",
"/. c #F6E0B1",
"(. c #FDE1B2",
"). c #848EC3",
"_. c #8993C1",
"`. c #939BC6",
"'. c #9AA4CC",
"]. c #9BA5D3",
"[. c #A5AACA",
"{. c #AEB0CB",
"}. c #B6B6C7",
"|. c #A4ADDB",
" X c #AAB2D1",
".X c #B5BAD4",
"XX c #A5ACE0",
"oX c #B8C1DD",
"OX c #BFC7E8",
"+X c #CCCEDD",
"@X c #D4D5DF",
"#X c #C4CAE6",
"$X c #CBD1EA",
"%X c #D3D7E8",
"&X c #D8DEF4",
"*X c #DDE3EF",
"=X c #DAE1F1",
"-X c #E1E6F4",
";X c #E9ECF7",
":X c #EEF1FA",
">X c #F3F5FC",
",X c #FCFDFD",
/* pixels */
"M V a e a M C V a M a a V V a y a M a M V C M a a a a y a a a M M a V V a a C V M V M M u u a e a e u a M M M M a e a C M a M C ",
"M V a a a V a a M V a a V a a a a a a a a V a a V a a a a M a a M a y a C a a a V C M M a M a a a a a a M M M a a u e a a a u M ",
"a B M M a V a a a a a a u u a a u a M M a V u a a a a M a u 2 3 2 2 2 a a a a a M M M a M M a a M M a M M M a a a a a a a a a a ",
"a a M M a a a a a a a a u a a a a a M M a a u a M a a a 4 Z *.:.;.;.&.7 e a a V a a a a a a a M M M u a M a M a M M a a M M a M ",
"M a M M M a a V V a a a a V a a a V a a a a a M a a 3 7 7.t.i.i.i.i.i.q.>.5 a M a a e a a M a a a M u y a a a a M V M a M V V M ",
"M a V V a e a V V a a a a a a V a a a M a a a 4 + + @ #.9.w.y.u.u.u.u.u.u.q.6 y a a a a M M M a e a a M a a e u M a a a a M M V ",
"y a V V a a a a a a a e a a a V a y a M M V y $ $.;.;.0.q.q.q.y.u.u.u.u.u.u.8.5 a a a a M M a M a a a a a M a y u a a a M M V M ",
"a M B M a a a V V a a u a a a V a a a a a a + *.t.t.8.8.w.q.w.8.y.u.u.u.u.y.y.&.e a V M a M a a M M a a u a a a a a a u a M V V ",
"a V V a V V a V a a M a a a M V M a M M M y % 0.y.y.t.9.y.t.8.*.9.u.u.u.u.u.u.8.4 a M a M M M M V a V a u a V a a a V a a a a V ",
"V a a a a C a a a V V M a a a a a a M a M + %.w.y.y.t.9.y.y.8.>.;.u.u.u.u.y.u.t.& u a a M M M a a V a a a a V V a M V C a a a M ",
"a V a a a a a a V a a a a u u V a M u y M + ;.t.u.u.t.6.y.u.w.-.*.7.u.u.u.u.y.t.5 a a a a M M a V a a a a V a a a M M M a M a M ",
"a V V a a C a a a a a a a a a a a a a a M e = 0.y.u.0.%.t.y.0.= ;.*.t.u.u.u.y.t.*.y a a a a a a V a a a a V V a a a a V V a a a ",
"V V a a u a a a a a V a M V a a V M a a M M 5 >.q.u.%.% 8.0.8.:.%.= 6.y.y.y.y.w.%.q a M a a u a a V a a u a a a u y a V a M V V ",
"V a a a u a a a a V V V M a a V V V M M M M e Z 5.:.h j &.:.:.>.= % 7 6.t.y.t.9.%.3 a a a a a a a a a a a a V a a u a a a a a M ",
"V a a V a a y a a V V V V M a V M V V M M a e + . 0 H.S.U i @ - :.& ; w *.7.6.6.*.# a a a a a a a a a a a a V a a a M a a a a M ",
"a V V a a a a a u u a a a a a a a M M M a a M e 2 f X.o o h $.6.5.c | | , 5.6.6.6.% y a y y a a V V a a a C a V a a M a V V a a ",
"V a V V a V a a a a a M M V V a M M M M a M a a s g o   X X $.8.>.D S.B.+ ;.6.6.6.5 u M a a a a V V a a 3 V M V V M V a a M a 3 ",
"V a a V V a y a M a a M M M M M V V M a a y a 9 G  .B.1.c.z #.8.&.g.L.` , 5.6.6.6.$.+ M V V M a a a a a a a M V M M M a a a a V ",
"a a a a V a u a a a M M a a a M M M M M a u y 0 n.W.T.d.P.E #.6.D Z.M.k * -.6.6.6.5.2 a a M V a M a a a a M M M M M M y a a a a ",
"a a a V M a a a a a a a M M a a M M M M a a a p _ R.^.T.E.g.#.>.k L g & - #.>.6.6.5.6 2 a a V a a a a a a M a a M M a u a a a a ",
"M u M V V a V M M a 3 a V M a a a a M a a M M a h | K.R.~.} - > F I X % 8 8 ;.6.6.6.$.3 a a M a a a V V a a a M a a V a a a a 3 ",
"a a a a a a V M a a M M a a M a e a a a a a V a B 0 W V.H.( : < ' ~ < X * 8 #.>.6.6.>.6 u V V a 3 a a a a C V V V M C M a a a V ",
"M M a M M M a a M a 3 a a a a a a a a a V M a a u e 0 0 l I ' ' I p.a.<.5 * #.$.6.5.>.5 u V V a V a a a a M M M a a V a a a a a ",
"a V M a V a a a a M M a a a a M a V a u a a a a a a N A A ) [ R z.{.).l.4.r 7 #.5.5.5.4 u V a M M V a a a M a a a M V a V V a M ",
"a V M V M M a a a a a M a a a M a M a u a a a 4 V D d.f.B.n.R [..Xa.C.W.T.` 1 #.;.6.6.4 4 a a a a M M a M V u a a M V M M M M M ",
"M a M V a a y a a a M M u a a a M M a a M a M D `.OX@Xf.E a.{.=Xx.U.^.^.^.U.k * $.6.6.4 y a a M M a a M M V u u a a M M M a a a ",
"a y u M M M a a M a M a a a a a V M M M a M ,.+X;X:X%XoX}.%X:X=Xp.m.!.^.^.^.g.@ 8 $.:.5 a a V a M M M a M M a M M M V M a M a 3 ",
"M a a M V M M M a M V M a M M V a M M M C V z.>X$X+X;X>X,X,X,X:Xx.{ K.^.^.!.K.X 7 :.8 2 a V a a M M a M V M a a M V a 3 u M M M ",
"a M M M V M V V M M M a a M M M M a a a M D |.>Xv. X;X,X,X,X,X,X.X_ V.!.!.^.T.< 7 #.6 2 M M V a M M a M M V V M a M a M M M a M ",
"M V M M V V V M a u a a M M a M a u a a y 3.XXOXj.+X,X,X,X,X,X,X&X4...Q.^.^.W.^ + 6 % a M M M M M M u a a M V M a M a V M M M M ",
"a M M M a V M M u u M a M M M a a u u V a ,.].XXd.@X>X:X,X,X,X,X;X'.s.U.(.^.~.} 2 2 3 a a M a a M M u u M M M M M M M a M M V M ",
"M a a M V M V V V V M a M a M V M M V V M V d.d.3. X=X;X;X=X,X>X=X_.<.A.(.^.(.C.p a M V M M M a M a a a a V M a a a M M a a a M ",
"M a M V M M a a V a a a a a u C M M M a M N ,.r.r.d.].#X=XOX=XOX#X).D X.(.(.!.J.f e a a a a a a V a a a a V y u a a a a a a a a ",
"M a a a M a V a a a a V V a a a M M M a M M C 2.r.d.r.oX>X&XXX].OX).3.z (.(.^.J.f q a a a V a u a V a a a a a a a a a V V V a a ",
"M a u u a a V a a a a a a a a a M a u a M a V B S l.`.%X,X=X|.'. Xe.2.j (.(.(.A.f e a a a a a a a M a a a a a a a a V V V V a V ",
"M a u a a M a a a a a a a V a V M M a u M a a j T 4.'.=X,X>X[.'.z.s.1.z (.!.^.I.k u a a a a a a V V a a a V V a a a a a a a a a ",
"M a V V V a a u u a a u a a V C V a M M V a p ^ D.b.,.[.oX[.d.l.j.x.[.U Q.!.!.U.P 9 u a a V a a C a a a a a a a a V a a a a a a ",
"M a M M a V a a a a a a a a a a M M a a a s l @.F...=.`.oX@X@X*X-X;X-XT L.Q.(.U./ p a a a a V a a a a V a a V a a a e a a a a a ",
"a V M a a a a a a a a a a u u a M M u u M 9 J F.o.( s.h.h.k.x.oX#X;X@X_ G.L.U.L.| 0 a a a a a V a a a V a a a a a a a a a V V a ",
"a M a a a V V a V V a a a a a a M M a a a : ( @.' H Q.(.!.Y.Y.Y.h.k.T n.!.Q.!.Q.S.z V V a a a a V a a a a V a V V a a V a a a V ",
"M a a a u M M M a V a a V V a V M V M a a 0 / { ] / (.^.^.(.(.(.E._  .L.(.(.^.!.Q.K s M a a a V M a a a a a a M a a a C a a M M ",
"a M a a y a M M a a a a a a a a M a M M a w J ] F Z.(.^.(.^.(.(.A.^ o.R.Q.^.(.R.Q.U s a a a a a M a a a 3 a M a V a M a a V V M ",
"y a M a a a a a a V V M a V C V M a M M a a i d F I.(.(.^.^.^.(.| F ! J.L.R.W.S.K.K s a V a a a a a M M M M a V V a a a a a V C ",
"a a a a M M V M a a C M a a a V M a M M a a a 9 E W.!.!.^.^.Q.+.J ( H n.O.S.G. .] z B a u a a a a V M a M M a a a a a V M a a M ",
"M M M M a M M a a a a M y a M M a a M a a a y 9 } /.(.(.!.Q.V.z :  .| P P O. .G O p a a a a a a a M a a M a M y a M M M a M V M ",
"M M M M a u a M a u a a u a a a a a M M a V e d Z.^.!.(.Q.V.z u w L D. .L J g p M V V V a a a V M M M a M M M a a M M a a M V M ",
"M a M a M 3 a a a e a M a a M a y a V V M V u d I.^.!.U...z a a 9 k m.G.D.@.@.G p a C a a a a a a M M a M M M M a a M a a a a a ",
"M a a M M M M a u u a V a M V a a a a a M a a 0 +.U.U.F.@.^ i M a 0  .D.D.D.G.] 0 V a a V V a a 3 a M M M M a M M M a M a a a y ",
"V a u u a V M a M a M M a M V M M B M M M V M w W D.D.D.D.M.H B M t W F.F.D.D.n.d u a a a a a a M M M V M M M M M M a M M M M a ",
"M a a a M M M M a a V V M M M a a M a a a a M y l m.F.F.D.F.) w n x l m.F.D.D.M.j u a V V a V V M M M M M M a a a a M M V M a M ",
"M M a a a a M M a M M M M M a M a a a M V M m n ;  .F.F.F.F.! , n n ;  .F.F.D.m.j u a V a a a V a M M M M M M M a a M a M M M M ",
"M V M a M M a M M M a M M M M a a a M N C m n n > ! F.F.D.N.l n n n > ! F.F.F. .i N N M a a a a M M M a a a M M a M M M M a a a ",
"M M M M V M a V V V a a M M M a e a N N m n n n n k F.F.F.M.f x n n n l F.F.F.Q 4 n m N N u y a M V M M M a V V a M V M M M M M ",
"M M M M M M a M u 3 a M M M M M V N A m n n n n n k F.F.D.+.h v n n , ( F.D.F.Q $ n n n A u 3 V M M M M M M V V a a M M a M V M ",
"V M a M a e a a a a M V M M V M V N n n n n n n r ! F.D.F.( t n x t / D.F.F.F.Q > m n n n N a a M a a M M M M M a M V M a M M M ",
"M M M a a u a M V a M V V M V M N m n n n n n t Y @.D.D.F.Q # n x 0 ..D.N.m.o.K > m n n n m a a a a a a M M M M M M V a a a a M ",
"M a M M M M a V V a V a M V M a M x n n n n n i +.G.D.@.( z x n n x j L J g : t n 6 b n n b a u a M M M M M M M V a a M a a a M ",
"M M V V a 3 a V M M M a a a a a M m x n n n n x H ! W l t x n v n n x x v x n n n n n n 6 N a y a a M M a V M V M a a V M a a M ",
"V M M M M M V V a a V M a M a 3 a N n n n n n n c > > n m m m n n n n n n n x n b m N 6 N N M M M a M M a M M V V a M a a a a M ",
"M V V V V M M a a V V M a a M M a N A m n n n n m N m n n n n n n n n c x n x n 6 m m 6 A C M a a a a M a a 3 a M M M V V a V V ",
"M M M M M e a M M M M a a M M M a a M A m n n n n n n n v n n v n n n n x n n n M 6 N N M M M V M a a a a a a a a a M V a a V V ",
"M a M M a u a M M a a M M V M V M a M N N v n n n n m n n v n n n n n n n n n n 6 N C M M a M V M M M a M V a a M V a V V V V a ",
"M M V V a a a a M a M V V V M a M M M V V M A m m n n n n m m n n n n n v v n n M M a a M a a M V a a M V V M a V V M a V V a V ",
"M M M V M M a V V M M V M M V M C M M a a e V M N M N m v m m v n N m m M b v b a M M M M u e a M M M a M M M M V V a M M V C V "
};
