/* XPM */
static char *out[] = {
/* columns rows colors chars-per-pixel */
"64 64 186 2 ",
"   c None",
".  c black",
"X  c #321C1C",
"o  c #171523",
"O  c #221825",
"+  c #3E2A3B",
"@  c #44202C",
"#  c #44273A",
"$  c #472A39",
"%  c #282946",
"&  c #2B2C4C",
"*  c #312944",
"=  c #2D2E50",
"-  c #2F3258",
";  c #313154",
":  c #373256",
">  c #303359",
",  c #333762",
"<  c #3C3760",
"1  c #353B6A",
"2  c #383D6C",
"3  c #393F71",
"4  c #432B44",
"5  c #4E334B",
"6  c #5B3041",
"7  c #403254",
"8  c #413258",
"9  c #5E3851",
"0  c #593B55",
"q  c #713B44",
"w  c #3A4074",
"e  c #3D4276",
"r  c #3C447C",
"t  c #3F467E",
"y  c #4F4F5C",
"u  c #7F4C4B",
"i  c #7B5848",
"p  c #714A53",
"a  c #764B52",
"s  c #45416C",
"d  c #46476E",
"f  c #574C6C",
"g  c #41477F",
"h  c #4F4F7C",
"j  c #70536E",
"k  c #605771",
"l  c #824755",
"z  c #884950",
"x  c #8C4950",
"c  c #875B57",
"v  c #815559",
"b  c #88515F",
"n  c #925555",
"m  c #9A5957",
"M  c #9C5359",
"N  c #A7575C",
"B  c #8B625E",
"V  c #9D625B",
"C  c #9E695F",
"Z  c #A6605E",
"A  c #825460",
"S  c #88596F",
"D  c #A05C63",
"F  c #A95D61",
"G  c #B05D62",
"H  c #836463",
"J  c #8C6862",
"K  c #8F776C",
"L  c #9F7063",
"P  c #9F7165",
"I  c #9E716E",
"U  c #B16C64",
"Y  c #BA6A67",
"T  c #AE7565",
"R  c #A07869",
"E  c #B27368",
"W  c #BE766C",
"Q  c #B37B6E",
"!  c #B17573",
"~  c #B47276",
"^  c #C5776D",
"/  c #CB7173",
"(  c #C67D71",
")  c #908072",
"_  c #B48272",
"`  c #B68A78",
"'  c #B98C7C",
"]  c #C78677",
"[  c #C98372",
"{  c #CA8A76",
"}  c #D28075",
"|  c #CB927C",
" . c #E08A7E",
".. c #404986",
"X. c #434B88",
"o. c #585D8C",
"O. c #454F90",
"+. c #485091",
"@. c #4A549A",
"#. c #5C628E",
"$. c #7F6D85",
"%. c #6C6C90",
"&. c #676A99",
"*. c #79799C",
"=. c #4E59A3",
"-. c #4E59A4",
";. c #4F5AA5",
":. c #535FAD",
">. c #535FAE",
",. c #5864B8",
"<. c #516DB9",
"1. c #6A75A0",
"2. c #7678A6",
"3. c #7178A8",
"4. c #747DAB",
"5. c #5C69C1",
"6. c #616FCB",
"7. c #9D7B87",
"8. c #9D7A89",
"9. c #7382B0",
"0. c #7D8ABB",
"q. c #988097",
"w. c #A6808A",
"e. c #BF8580",
"r. c #A2918E",
"t. c #AA9B97",
"y. c #AB9E9E",
"u. c #8487AD",
"i. c #9997AC",
"p. c #8791B4",
"a. c #8290BD",
"s. c #9396B4",
"d. c #9B9BB5",
"f. c #9599BE",
"g. c #B9B1B0",
"h. c #C98B81",
"j. c #D69683",
"k. c #EA9783",
"l. c #EB9E87",
"z. c #D7A388",
"x. c #CFB099",
"c. c #E2AB8F",
"v. c #F5A489",
"b. c #EFB597",
"n. c #F7B191",
"m. c #F8B997",
"M. c #F0BC9B",
"N. c #F9BF99",
"B. c #F9C09B",
"V. c #FAC29D",
"C. c #F2C4A1",
"Z. c #FBC8A1",
"A. c #FCCFA5",
"S. c #FCD1A7",
"D. c #FDD7AB",
"F. c #FAC9B0",
"G. c #FFE0B1",
"H. c #8893C6",
"J. c #8C98C8",
"K. c #919DCB",
"L. c #95A4C7",
"P. c #9CA3C4",
"I. c #9BA7CF",
"U. c #9BA5D6",
"Y. c #9FACD2",
"T. c #A4A8C5",
"R. c #AAB6D6",
"E. c #B1BBD7",
"W. c #BABBD2",
"Q. c #A6AEE1",
"!. c #B9C0D7",
"~. c #B6C0D9",
"^. c #BDC6DA",
"/. c #B9C3E4",
"(. c #C3C9E2",
"). c #C8CEE5",
"_. c #C3CCEF",
"`. c #D2D8E9",
"'. c #D6DDEC",
"]. c #D2D6F0",
"[. c #D9E0F6",
"{. c #E1E5F7",
"}. c #E8EFFD",
"|. c #F0F4FE",
" X c #F7F9FE",
".X c white",
/* pixels */
"                                                                                                                                ",
"                                                                                                                                ",
"                                                                                                                                ",
"                                                                                                                                ",
"                                                                                                                                ",
"                                                                                                                                ",
"                                                                                                                                ",
"                                                                                                                                ",
"                                                                                                                                ",
"                                                          e g g g 3                                                             ",
"                                                      X.5.6.6.6.6.6.:.>                                                         ",
"                                                & - - O.,.5.6.6.6.6.6.6.>                                                       ",
"                                                -.,.-.5.,.5.5.6.6.6.6.6.:.                                                      ",
"                                              w 5.6.5.:.6.:.+.6.6.6.6.6.6.3                                                     ",
"                                              ;.6.6.6.:.6.5.@.+.6.6.6.6.6.g                                                     ",
"                                              ;.6.6.6.=.6.6.t t 6.6.6.6.6.+.                                                    ",
"                                              @.>.6.:.2 5.>.-.X.e 6.6.6.6.>.                                                    ",
"                                              & ;.,., % @.@., t - -.6.6.5.;.                                                    ",
"                                                o O N.n.J = @.;.+ $ t ;.;.;.3                                                   ",
"                                                    T . X , ;.;.H Z.5 ;.;.;.t                                                   ",
"                                                  N i y 7.v ;.;.B B.5 @.;.;.;.                                                  ",
"                                                n B.A.<.F.) ;.@.' E 1 ..;.;.;.3                                                 ",
"                                                  B.G.Z.D.) ;.< C * r r @.;.;.t                                                 ",
"                                                  u j.A.A.K 2 D z % r r ..;.;.;.                                                ",
"                                                    u L ( G F / S 0 ; 1 r @.;.;.3                                               ",
"                                                        b / ~ f.I.H.9.d 1 ..;.;.2                                               ",
"                                                  3.s.t.z.8.W.!.x.G.G.S.5 r ;.;.3                                               ",
"                                              *.`. X{.R.T.'.|.s.l.G.G.G.P r O.;.                                                ",
"                                              '..X/.{..X.X.X.X!.e.M.G.G.c.: O.t                                                 ",
"                                            #.Y. X).[.}..X.X.X.Xp.] G.G.G.7 O.                                                  ",
"                                              K.Q.H.J.{./. X.X{.U.0 G.G.G.A 1                                                   ",
"                                              4.K.U.Q.)./.Q.{._.0.k S.G.G.R                                                     ",
"                                              j K.K.1./.!.J.^.|.L.s ` G.G.`                                                     ",
"                                        u }  .h.J.K.o.0.{.9.~. Xu.w.P G.G.b.                                                    ",
"                                        Y  .v.v.!   h o.d.$.a.R.4.H.q.G.G.V.                                                    ",
"                                        Y } U V u   %.P.).).(. X.X[.f S.G.V.x                                                   ",
"                                          M q       2.g.r.y.i.E.].|.H.E G.m.U                                                   ",
"                                                  m G.G.G.G.G.G.y.i.&.c A.m.k.                                                  ",
"                                                  _ G.G.G.G.G.G.G.I p S.D.G.B.Z                                                 ",
"                                                  Z.G.G.G.G.G.D.{ [ U G.b.G.m.k.                                                ",
"                                                  G.G.G.G.G.S.U [ v.V { Q C.k.v.                                                ",
"                                                C G.G.G.G.S.u } v.v.[ [ @ | ^ V                                                 ",
"                                                ` G.G.G.S.u   n v.v.v.v.V                                                       ",
"                                                l.D.G.B.U       k.v.v.v.}                                                       ",
"                                                v.v.v.v.x       U v.v.v.v.[                                                     ",
"                                              x v.v.v.v.#         [ v.v.v.v.                                                    ",
"                                              V v.v.v.} 8         8 [ v.v.v.n                                                   ",
"                                              V v.v.v.l             8 [ v.v.U                                                   ",
"                                            8 } v.v.W 8               8 W v.k.6                                                 ",
"                                            l v.v.k.9                   9 v.v.n                                                 ",
"                                          8 } v.v.U                     V v.v.l                                                 ",
"                                          l v.v.v.a                     a V V 8                                                 ",
"                                          a V l 4                                                                               ",
"                                                                                                                                ",
"                                                                                                                                ",
"                                                                                                                                ",
"                                                                                                                                ",
"                                                                                                                                ",
"                                                                                                                                ",
"                                                                                                                                ",
"                                                                                                                                ",
"                                                                                                                                ",
"                                                                                                                                ",
"                                                                                                                                "
};
