/* XPM */
static char *out[] = {
/* columns rows colors chars-per-pixel */
"64 64 211 2 ",
"   c #1B1211",
".  c #201B25",
"X  c #3B2424",
"o  c #3B293C",
"O  c #583E37",
"+  c #3C2F48",
"@  c #383A4C",
"#  c #2E2E52",
"$  c #363954",
"%  c #32345C",
"&  c #393D5A",
"*  c #373B67",
"=  c #393E70",
"-  c #443F4B",
";  c #543E48",
":  c #453A57",
">  c #553D52",
",  c #643C41",
"<  c #403B64",
"1  c #3D414D",
"2  c #3F4453",
"3  c #3C4159",
"4  c #3E4462",
"5  c #3E426D",
"6  c #3D4272",
"7  c #3C437B",
"8  c #43424D",
"9  c #4E434E",
"0  c #53424C",
"q  c #5C444C",
"w  c #434553",
"e  c #4B4657",
"r  c #454B56",
"t  c #464D59",
"y  c #494F5A",
"u  c #544353",
"i  c #5A4657",
"p  c #534B54",
"a  c #534D5A",
"s  c #4C545F",
"d  c #58535B",
"f  c #69474D",
"g  c #77464B",
"h  c #684657",
"j  c #644A54",
"k  c #6C4B55",
"l  c #744C53",
"z  c #745256",
"x  c #7C5456",
"c  c #785458",
"v  c #444664",
"b  c #494562",
"n  c #454966",
"m  c #474B66",
"M  c #464A69",
"N  c #494D6C",
"B  c #524263",
"V  c #4D5561",
"C  c #4E546B",
"Z  c #505764",
"A  c #515964",
"S  c #50556D",
"D  c #555D69",
"F  c #434879",
"G  c #4C5170",
"H  c #59587B",
"J  c #6D5065",
"K  c #785D68",
"L  c #5A627C",
"P  c #726372",
"I  c #885151",
"U  c #8A5659",
"Y  c #88595A",
"T  c #9B575B",
"R  c #935B5D",
"E  c #A0565B",
"W  c #8B655D",
"Q  c #93635D",
"!  c #9D625A",
"~  c #A0655C",
"^  c #925969",
"/  c #AA5C61",
"(  c #866869",
")  c #986762",
"_  c #9C7366",
"`  c #83677D",
"'  c #956F7D",
"]  c #947878",
"[  c #AA6464",
"{  c #A56B63",
"}  c #A86866",
"|  c #B76B67",
" . c #A87669",
".. c #B67469",
"X. c #BD7C6E",
"o. c #A86875",
"O. c #AE7872",
"+. c #BB7C74",
"@. c #C87470",
"#. c #C87B73",
"$. c #AA8578",
"%. c #B48A76",
"&. c #CC8876",
"*. c #D18476",
"=. c #D38978",
"-. c #DC8D7B",
";. c #C5917B",
":. c #DC927D",
">. c #E08B7E",
",. c #3E4681",
"<. c #434B84",
"1. c #444D8D",
"2. c #4B508E",
"3. c #565B85",
"4. c #454E90",
"5. c #485297",
"6. c #4B559B",
"7. c #65698C",
"8. c #726F8B",
"9. c #6A729D",
"0. c #7B769C",
"q. c #4D59A5",
"w. c #4E59A4",
"e. c #505AA6",
"r. c #525DAB",
"t. c #5560AD",
"y. c #5562B3",
"u. c #5965B9",
"i. c #5966BB",
"p. c #6A74A1",
"a. c #737BA7",
"s. c #6777B0",
"d. c #5E6BC5",
"f. c #5F6DC8",
"g. c #606ECA",
"h. c #6270CC",
"j. c #877894",
"k. c #917E91",
"l. c #8B7FA3",
"z. c #7D80A6",
"x. c #7B83B3",
"c. c #938598",
"v. c #9E959B",
"b. c #B98786",
"n. c #8788A7",
"m. c #9692AC",
"M. c #8189B3",
"N. c #828DBB",
"B. c #8893BA",
"V. c #9495B3",
"C. c #BDB3A9",
"Z. c #ACA7B0",
"A. c #ABA8BA",
"S. c #D48A81",
"D. c #C89482",
"F. c #DA9883",
"G. c #E69982",
"H. c #EC9D84",
"J. c #F09E86",
"K. c #C7A288",
"L. c #D9A98D",
"P. c #D2AF99",
"I. c #C6B49C",
"U. c #D9BA96",
"Y. c #E8A48A",
"T. c #F2A287",
"R. c #F4A388",
"E. c #F6AA8D",
"W. c #E7B997",
"Q. c #F5B896",
"!. c #CFB3A7",
"~. c #EFC49D",
"^. c #FAC29C",
"/. c #ECC8A7",
"(. c #F6C9A2",
"). c #F4CCA4",
"_. c #ECD4AA",
"`. c #F4D4A9",
"'. c #F9D5A8",
"]. c #FAD4A9",
"[. c #FCDCAE",
"{. c #FDDFB0",
"}. c #FDE2B1",
"|. c #8995C4",
" X c #8E9ACA",
".X c #919ECA",
"XX c #98A4C8",
"oX c #9AA5D4",
"OX c #9EA8D7",
"+X c #A5ABC8",
"@X c #B0B0CA",
"#X c #B6B8CE",
"$X c #A2ADD3",
"%X c #A9B4D3",
"&X c #B9BED7",
"*X c #B3BCDB",
"=X c #B3BBE5",
"-X c #BCC4DA",
";X c #BAC3E4",
":X c #C5C8DC",
">X c #C3CBE3",
",X c #C5CDEA",
"<X c #CDD2E5",
"1X c #D5DAEB",
"2X c #DCE1ED",
"3X c #DEE5F5",
"4X c #E7EAF6",
"5X c #EEF2FB",
"6X c #F4F6FB",
"7X c #F7F9FE",
"8X c #FCFDFD",
/* pixels */
"V A s r s A D A s s s s D D s r V V V V V D V s V V V 2 s s s V V s D D s s D V V A V s s t s r s r s s V V s V s r s D V s V D ",
"V Z s s s A s s A A s s s s s s s s s V V V s s V s V s s V s s s s y y D s V s A D V V s s s s s s s s V V V s s s r s s s t A ",
"s Z Z s s A s s s s s s y y s s t s V V V V s s V s V V y 2 y y t 4 y s A V V s V V V s V V s s V s s s V V s s s s s s s s s s ",
"s s V V s s s s s y s s y s s s t V V V s s t s V s s s 3 3 3 3 1 3 2 s s V A V s s s s s s s s V s s s s s s s s s s s V V s s ",
"s s s s s s s A A s s s s A s s s V V s s V V V V t 4 ,.t.i.i.i.i.t.1.4 2 V D V s s t s V V s s s s s r s s s s V A V s V A A A ",
"V s A A s r s s s s s s s s s D V V V V s V t 1 2 $ 5.u.g.h.g.h.h.h.d.y.6 y V V s V s s V V s V t s s V s s r s V s s s s V V A ",
"r s Z D s s s s s s s y s s s s s t t V V y 3 * % 6 5.y.i.f.g.g.h.d.f.f.d.4 y V s s s s V V s s s s s s s s s r s s V s s A A V ",
"s Z Z s A s s A D s s s s s s s s s s V V @ ,.y.t.q.d.u.i.i.d.g.f.h.h.f.h.t.4 V s V V V V s s s V s s s s s s s s s s r s V V A ",
"V A V V V A s A s s s s s s A A V s V s t 4 t.g.g.w.r.f.u.u.6.g.g.f.h.f.h.d.7 t s V V V V V V V D s s s s s s s s s A s s s s A ",
"s V s s s D s s s s D s s s s s s s s s 4 5.d.g.g.i.u.g.i.6.1.y.h.f.f.h.f.h.w.1 V V s s V V V s s s D s s s A D s s A D s s s s ",
"V A V s V V s A D s s s s s y s V V r 1 & q.d.g.g.i.e.g.g.r.4.5.f.g.h.h.g.h.t.1 V V V s s V V s A s s s s s s s s s V s V s s V ",
"V A A s V A s s s s s s s s s s s s s t & q.d.g.g.y.w.g.g.y.,.,.y.h.f.f.h.h.y.4 s V s s s V s s s s s s s D A s s s s D A s s s ",
"A A s s r A s s s A A s s s s s A V V t 4 5.r.d.g.1.= d.i.e.4.<.7 h.g.g.g.g.i.6 1 s V V V s t s s D s s s s s s s r s A s V A A ",
"V s s s y s y s s s A A A s s D Z A V s 2 6 q.u.u.% % q.w.4.= 7 % w.d.g.g.d.t.6 1 s V s s s s s s s s s s s s s s s s s s s s A ",
"V V A V s s y s s s s D A s s A V A V V V 2 * = P ( K N 6 * = 4.# % 1.y.u.y.w.7 t V s V s s s s s s s s s s A s s s V s s s s s ",
"V A A s s s s s s y A s s s s s V V V V V V 1 . _ Y. . .i 4.w.5.9 W k 2.q.w.w.6.3 t s s r t s V A A s s s D s s s s s s A A s s ",
"A V A A V V V V s s s A s A A s A A A s s s s 1 Q ,   X + 1.e.5.J Q. .< q.q.q.6.6 2 A V s s s V A A s y t s s A A s A s s V s r ",
"V s V V A V t y s s s V V s s V A V s s s r y z l O - K U * r.5.j Q._ & w.q.q.q.<.2 s A A V V s s s s s s s V A V V V s s V s s ",
"V V s V A s y s s s V V s s s V A s s A s s f ;.Q.!.s.!.K.5 e.6.K Y.k 6 ,.r.q.q.6.4 A A V A V s V s s s V V V V V V s y s s s s ",
"V y s V V s V V s s s s V s s V s s A s s A x :.{./.A./.U.v e.F K. .t 7 7 w.q.q.r.4 2 s s s A s s s V V s V s s s A s y y s s s ",
"V r V A A V A V V s 2 s V V s s y s V s s s d $.^.[.`.[.U.< 6.> g o = 7 7 ,.r.q.w.7 s A s s V V s s A V s V V s V V V s s s s 2 ",
"V s s V s s A s V s V V V V s s r s V s s s V O } L.`.'.L.% > [ E o * 7 7 ,.q.q.q.6.1 s s A A s t s s s V D A A V V D V s s V V ",
"V V s s V V s s s s 2 s s s V s s s s V A s V y u Q +.S.| U / @.^ h + # 6 7 ,.q.w.q.6 2 A A V V s s s s s V V V s V A V s V V V ",
"s A V s A V s s s s s s V s V V s A y y V V s V s y B , / @.o.l.V.x.a.3.3 7 ,.6.w.q.7 1 A A s s s V V s s V s s s V A V V V V V ",
"s A A V A s s s s s V V s y s V s A s y s s s V C D 8.L.=.+.m.*XV.Z.Z.Z.k.: 7 1.q.q.7 1 A A s s s A V s s A y s s V V s A A s s ",
"V s A A s s 2 s V s s A y s s V V s s s s t L n.#X+Xc.O.k.@X4XA.P.[.{.}.~.x * 1.w.6.4 s s s V s s s s V s A y s s s V V s s s s ",
"V r t s s s s s V s V s s s V V A V V s s n.:X3X6X<X-X%X<X5X6Xm.F./.{.[.}.$.* F 6.5.1 s s V A V V V s s s V s s V s A A s s y 2 ",
"V s s V A s A V V s A V s V V V s V V V 7.1X6X1X1X5X8X6X8X8X8X+Xb.Y.[.{.}.L.> 7 6.7 2 s A V s V A V s V A V V s V A V 2 s s V A ",
"s V V V A V A A V s V s s s V V V V s V p.-X7X3X;X3X6X8X8X8X8X1Xn...`.}.}.[.c 7 5.4 s A A V V s s V s V V V A A s V V V s s s V ",
"V A V V A A A V s s s s V V V V s y s A x..X;X;XOX*X5X4X5X8X8X8X*X8.L.}.[.}.( 7 6 2 s A V V V V V V s s s V A V V s s A V V V V ",
"s A V s s A V V y s s s V V V V s r y V L .X$XoX X X1X;X,X5X7X,XoXH $.}.[.}.:.@ 1 2 V V s V s s V V y 2 V V V s s V V s s A A V ",
"s s s V A V A A V A V s V V V V V V A A 4 x..X.XOXOX,X>XOX=X4X;X|.7. .`.{.}.L.- s s V V V V V V V V V V s A V s s V V s s s s V ",
"s s A s s s s s s s s s s s y D V Z a - h P  X|.x.x.>X-Xx.OX2X3X.X3.h U.}.}.U.j s s V V s s V s V V s s V V r s s s V s s s s V ",
"s s s s A s A A s s s D s s s s s u U | #.' N. Xx.9.+X<X|.x.2X6X@X` > L.}.}./.Y 8 r s V s V s r s V V V s s s s s s s A A V s V ",
"A s y y s s s s s s s s A s s s e Q -.S.G.H.v.9.p.3.x.<XB.z.:X2XM.j.j.D.}.}.`.) 8 s s s s V V s s V V s s V s s s s V A V V s V ",
"s s s s s s s s s s s s s s s s q [ G.J.R.R.X.9 N N H z.z.n..X%X+XoXoX] }.}.`.{ 9 s s s V V s s V V s s s A V V s V V s s s s V ",
"s s A D s s s y s s s y s s A A ; T #.| U I z a G B.+X&X:X-X1X5X6X5XXXK (.}.`.&.q w s s s D s s D V s V s s V s s s s s V s V V ",
"A s s s s D A s s s s s s s s s s u g T 0 s s s 7.V.A.v.v.A.+X>X1X4X%Xn.&.[.).G.z a s s s s s D V s V Z s s V V s s r s s s V s ",
"s A s s s s s s s s s s s s y V s s 9 f ; r s d ] I.}.}.}.}.I.C.m.+Xx.0.I ~.Q.R.{ p s s s s s s V s V V s V V s s s s s s V V V ",
"s s s s s s D s s D s s s s s s Z Z s w s s r q ~.}.}.}.{.}.}.}._.I.H J L.[.].^.:.z s A s s s s V V s s s V s V A s s D V V V V ",
"A s s s s s A A s A s s A s s s Z Z A s s s s ) _.[.[.}.{.{.}.[.].%. .) [.'.[.[.Q.[ p s s s s A V s s s y V V V V s s D s s s s ",
"s s s y r s s s s A s s V s A s s s s s s s p %.{.{.}.{.{.{.[.~.=...:. .).W.[.(.E.*.q s s A s s V s s s t s s V V s s s s A D A ",
"t s A s s s s s s s A Z s A D s s s Z Z s s d K.}.[.{.}.{.[.U.X...Y.{ &.;.X.).Y.T.:.q s s s s s s s V s s V s V D s s s s s s D ",
"s s s s A s A s s s D s s A s A s s s s s s x ~.}.{.{.[.{.W.R *.T.R.:.! ! f %.W.#.#.q s y y s D V V V s s V s V s s s D A s s s ",
"V s V A s s V s s s s s t y V V s s s s s s W [.}.[.}.}.W.x 0 X.R.R.R.H.:.x q Q f 0 s s s s s s V V s s s s s y y V s A s s A s ",
"V s V V s y s V s s s s s s s s s s V Z s d $.}.[.[.[.Q.W w w R J.R.T.T.E...p 8 r s A s s s s s V V V s V V V s s A s s s A A s ",
"V s s s s r s s s w s s s s V s r s Z A V q =.^.[.].Q...e s V f *.R.R.R.R.-.f r s s D s s s s s s V V s s A V V s V s s s s s s ",
"V V s s s V V s s r V Z s V A V s s s s s O :.E.E.E.H.R s V D a ~ R.T.R.R.T.=.k p s s s D s s s 2 s V V V V s s V A V s s s s t ",
"A s y t s A V V s y s V s V A s V Z V V s x G.R.R.R.F.j s V V Z p X.T.T.R.T.R.{ w s V V V V s s V s A A V V V V s V V V V V V s ",
"V s s s V V V V V V A A V V V s s V s s - [ T.T.R.T.-.> M M M M M i X.J.T.R.R.#.p s s A V V V A V V V V V V V s s s V V A V s s ",
"V A s s s s V V s V V A V V s V s s V V -  .R.T.T.T.[ e n M M M M M u %.R.R.T.F.f s V V V s s A s s s s s V s V s s V s V V s V ",
"s A V V V s V V V V V s A V V s m V V G : ..R.R.R.>.h M N M M N M M M i X.T.T.H.Y s V s s s s s V V V V V s V V s V V V V s s V ",
"s V V V A V s A A V s s s V V s y G N M i *.R.R.H.{ : M M M M b M M M M u X.H.J...> N V s y 2 s V A V V V V A A s V A s V V V V ",
"V V V V V V s V y 2 s V s V V V S N N b R H.T.R...i M M M M M M M M M M v h =.R.G.g v G V y y s V V V V V V A A s s V V s V A s ",
"A V s V s r s V s s V A V A A A G M M h #.J.R.G.x N M M M M M M v M M M M k -.R.J.l v G C s s s V V s V V V V V s V A V s V V V ",
"V V V V s t y A A s V A V V A V M M v U J.R.R.&.> F M M N M M M n M M M v Y Y.J.*.h M N m V V s s s s s V V V V V V A s s V s V ",
"s s A s V s s A A s A s s A A s M M u *.E.H.-.) e M M M M M M m M n M M M j Y Y c m m 4 C s s s s s s V s V s A A s s V s s s V ",
"V s A A s 2 s V A V s s s s s s N v > { [ U i e 5 4 M M M M M M M M M M N b v v 4 C m N C s V 2 s s A A s A s V V s s A V s s V ",
"A s s s V V A A s s A A s s s 2 N M n & : v M M M M m C M N N M M M M M M M v v C 5 C 6 A A s V s s V V s V V A A s V s s s s V ",
"V A D A D V V s s s D s s s V V C G M N N M M M M M M M M m M M M M M v v M v M 4 C 5 G A A V s s s s s s s r y V V V A V s V D ",
"s s A V A y s V V s V s s V A V V C N N M M M M M M M M M M m M M M M N v M M M 4 C D V A V V A V s s s V V s s s V s A V V A A ",
"A s A s V 2 s V V s s V A V V A s V Z C M M M M M M N M M M M M M M M M M M M M A A A V s s V A A s s s V V V s V V V A A A V s ",
"V s A A s V s s V s s A A A s s V V A A C C M N M M M M M M N M M M M M M M M C s V s s s s s V A s s A A A V s V A V s A A V V ",
"V s V A s V V A A V s A V A A V D V V V y r C C V C C M m N N M M C C m V C r s s s s s s s r s V s s s V V V V A D V V V A D D "
};
