/* XPM */
static char *out[] = {
/* columns rows colors chars-per-pixel */
"64 64 196 2 ",
"   c #100D0E",
".  c #281E27",
"X  c #22243F",
"o  c #3A2938",
"O  c #513337",
"+  c #624037",
"@  c #2F304F",
"#  c #35374B",
"$  c #393D49",
"%  c #353756",
"&  c #333663",
"*  c #383D68",
"=  c #393F70",
"-  c #46364A",
";  c #4F394D",
":  c #563D44",
">  c #543A48",
",  c #463C56",
"<  c #513C5D",
"1  c #663C47",
"2  c #513E61",
"3  c #3E424E",
"4  c #3D4153",
"5  c #3D435E",
"6  c #3C4162",
"7  c #3F446B",
"8  c #3C4274",
"9  c #3C447B",
"0  c #45414D",
"q  c #54444D",
"w  c #59454A",
"e  c #474854",
"r  c #454B56",
"t  c #43445B",
"y  c #4A425B",
"u  c #464D59",
"i  c #484F5A",
"p  c #5A4754",
"a  c #524B56",
"s  c #4C545F",
"d  c #69474B",
"f  c #794E4F",
"g  c #654855",
"h  c #794B54",
"j  c #6E5353",
"k  c #685657",
"l  c #775355",
"z  c #434564",
"x  c #464A66",
"c  c #4A4D64",
"v  c #464A69",
"b  c #494D6C",
"n  c #524762",
"m  c #4D5561",
"M  c #4D536B",
"N  c #505763",
"B  c #515964",
"V  c #50556F",
"C  c #555D69",
"Z  c #444978",
"A  c #41487E",
"S  c #4C5171",
"D  c #4E537B",
"F  c #555877",
"G  c #685264",
"H  c #596079",
"J  c #7E6870",
"K  c #845254",
"L  c #885857",
"P  c #965657",
"I  c #9B5C5B",
"U  c #8D615D",
"Y  c #99635F",
"T  c #A4655E",
"R  c #9A5E62",
"E  c #AB5F64",
"W  c #9C6A61",
"Q  c #9C796B",
"!  c #866872",
"~  c #986578",
"^  c #A76965",
"/  c #B8696A",
"(  c #A6776B",
")  c #B7776B",
"_  c #A76B78",
"`  c #A67675",
"'  c #BB7E72",
"]  c #C97571",
"[  c #CA7E72",
"{  c #A88678",
"}  c #B58577",
"|  c #B88D76",
" . c #AE9278",
".. c #C78675",
"X. c #CC8A76",
"o. c #CD8D7A",
"O. c #D58779",
"+. c #D68D7A",
"@. c #DA8D7B",
"#. c #CC927C",
"$. c #DB917D",
"%. c #E3957F",
"&. c #3C4583",
"*. c #434A84",
"=. c #454D8A",
"-. c #525789",
";. c #454F90",
":. c #465092",
">. c #495194",
",. c #4B559C",
"<. c #6A6282",
"1. c #79718D",
"2. c #6A6D95",
"3. c #69719B",
"4. c #4C57A1",
"5. c #4E59A4",
"6. c #505BA7",
"7. c #525DAB",
"8. c #5460AF",
"9. c #5663B5",
"0. c #5864B6",
"q. c #5A66BC",
"w. c #5B68BF",
"e. c #757CA5",
"r. c #5D6BC4",
"t. c #5F6DC8",
"y. c #606ECA",
"u. c #6473D1",
"i. c #8E708B",
"p. c #817DA2",
"a. c #7C82A6",
"s. c #7F85B5",
"d. c #8B8B9F",
"f. c #A88985",
"g. c #BCA386",
"h. c #8884A9",
"j. c #9690A2",
"k. c #858DB8",
"l. c #9D9CBA",
"z. c #A69EAF",
"x. c #B6A7A8",
"c. c #AAA5B4",
"v. c #D29281",
"b. c #DA9D85",
"n. c #E89B85",
"m. c #F19E87",
"M. c #C8A88A",
"N. c #D9A78A",
"B. c #CAB59B",
"V. c #D3B999",
"C. c #E9A38A",
"Z. c #F3A287",
"A. c #F4A489",
"S. c #F6A98C",
"D. c #EAAD91",
"F. c #F3AE92",
"G. c #E9B795",
"H. c #F7B594",
"J. c #CBB4AD",
"K. c #DBC39D",
"L. c #EEC29E",
"P. c #F7C69F",
"I. c #D3C0A0",
"U. c #DECDA3",
"Y. c #E2CDA4",
"T. c #F4CBA4",
"R. c #E5D0A5",
"E. c #ECD3AC",
"W. c #F6D6AB",
"Q. c #FBD6AA",
"!. c #FBDDAE",
"~. c #FDDFB0",
"^. c #FCE2B2",
"/. c #8D98C6",
"(. c #949CC8",
"). c #97A2CB",
"_. c #9FA7D8",
"`. c #B4B4C7",
"'. c #A3ABDA",
"]. c #ABB4D0",
"[. c #B6BDD9",
"{. c #A7B0E2",
"}. c #B4BDE4",
"|. c #B9C0D8",
" X c #BAC4E4",
".X c #C5C9DA",
"XX c #C3CAE1",
"oX c #CDD4E8",
"OX c #D9DFEC",
"+X c #CDD4F1",
"@X c #D6DCF1",
"#X c #E8ECF7",
"$X c #EEF1F7",
"%X c #F4F6FB",
"&X c #F7F8FB",
"*X c #FCFDFE",
/* pixels */
"m B s r s B C B s s s s C C s r B s m m m C m s m m m r s s s s s s B C s s C B s B m s s u s r s r s s m m m m s r s C N s m C ",
"m N s s s B s s B B s s s s s s s s s s s B s s m s s s s s s s s s i i C s s s N C N s s s s s s s s s m m s s s s r s s s r N ",
"s N N s s B s s s s s s i i s s u s m m s B i s s s m m s s 3 3 3 3 3 u m m m m m N m s s m s m s s s s m m s s s s s s s s s s ",
"s s m m s s s s s i s s i s s s i m m m s s i s m s s m 5 Z =.=.*.=.D 7 5 s m m s s s s s s s s N s s s s s s s s s s s m m m s ",
"s s s m m s s s B s s s s B s s s B m s s s m m m s r 7 ,.w.u.u.u.u.u.q.>.6 s s s s r s s s s s s s s r s s s s s C m s N B B N ",
"m s B B s r s B B s s s s s s B s s s m m s m s 4 # @ 9 8.w.r.y.y.y.y.y.y.0.v r s s s s B N m s r s s m s s r s s s s s s s m B ",
"r s N B s s s s s s s r s s B s s u i m m m s 4 6 &.;.7.0.0.q.y.y.y.y.y.y.y.7.6 s s s s s m s m s s s s s s s r s s s s s m B m ",
"s N N N N s s B B s s i s s s B s s s m s m 4 * q.r.7.8.r.q.w.8.r.y.y.y.y.y.y.*.r s B m s s s s m s s s s s s s s s s i s s B B ",
"s B B m s B s B B s s s s s B B m s m m m m t ,.y.t.w.8.t.r.q.:.8.y.y.y.y.y.y.7.5 s m m m s s m B s B s s s B s s s B s s s s B ",
"s s s s s C s s s s C s s s s s s s m s m N 5 q.y.t.t.8.t.t.4.7.=.u.y.y.y.y.y.q.* i s s m N m s s B s s s s B B s s C C s s s s ",
"m B m s B s s B B s s s s i r B s m u u m s % w.y.y.r.4.t.t.4.7.>.5.y.y.y.y.y.r.z s s s s m N s B s s s s s s s s s s s s s s s ",
"m B m s s C s s s s s s s s s s s s s s s N * 9.t.y.q.=.w.y.5.>.=.9 y.y.y.y.y.r.=.e s m s s s s s s s s s B B s s s s C B s s s ",
"B m s s i s s s s s B s B B s s B m m m m B 6 5.0.t.;.& 7.w.>.=.*.& 7.y.y.y.y.r.=.4 m s s s u s s B s s i s s s s r s B s s B B ",
"B s s s i s s s s B B B s s s B m B m m s m t &.7.7.n y ,.5.5.*.9 % 9 5.r.y.r.8.=.4 s s s s s s s B s s s s B s s s s s s B s s ",
"m m B m s s i s s B B B B s s B m B m m s m r $ * Z { | z &.,.8 8 @ # - =.7.6.5.*.4 s s s s s s s s s s s s B s s s s s s s s s ",
"m B B s s s s s i i s s s s s s s m B m s s m r $ d #.+ . X @ 9 9 d #.| 2 ,.5.5.=.4 s s e i s s B B s s s C s s s s B s B B s s ",
"B m m B B m s s s s s m m B B s m B m m s m s s c d O   o X &.5.*.( F.N.# 5.6.5.:.5 B m m s m m B B s s i s s B B s B s s m s i ",
"m s s B B m r s s s s m m m m m B m m m s r s e K ' #.J c.j &.4.<.G.F.| y &.5.5.5.5 i B B m s s s s s s s s B s s B s s s s s s ",
"m s s s B s s s s s s s s s s m B m m m s i i w @.T.E.e.J.{ &.4.G P.C.h = ,.5.5.6.6 5 B m m m s B s s s s s B s s B s i s s s s ",
"m s s m m s s s s s s s m m s s s s m m s s i a ` T.~.Y.T.f.&.,.k W K % 9 =.5.5.8.&.5 s s m B s s s s s s s s s s B s i i s s s ",
"m u m B m m B m s s r s m m s s s s m s s m m s g ..L.W.^.f.&.2 h P o & 9 &.5.6.6.,.3 s s m m s s s B m s s s B m m m s s s s 4 ",
"m m s s m m B s s s s s m m s s r s s s s s m m m p ^ N.G.~ & < / ] > @ 9 9 &.8.5.,.# s m m B m r s s s s C B B m m C m s s m m ",
"s m m s m m s s s s r s s m m s s s s s B s m s i e p d ! L P ] E i.1.- % 9 &.5.4.4.8 5 B B m m s s s s s B s s m m B m m m m m ",
"s B m m m s m s s s s s s s s m s m s i m s s m m i N S <._ ] ~ p.e./.2.H 9 &.4.6.6.9 3 B m m s s B s s s m s s s m B m m m s m ",
"m m B m B s s s s s m m s s s m s m s i s s s s B H e.a.f.C.~ l.c.J.E.z.1.* A 6.5.6.9 3 s m s s m m m s m B s s s m B m m m m m ",
"s s m B s s r s s s m m i s s s m m m s m s s m j..XoXj.v.g.(.].J.~.~.!.B.y = ,.4.6.&.3 s m s m m s s m m B u i s s m m m s s s ",
"m r s s s s s s s s m s s s s s B m m m s s u d.#X&XOX[.`.|.XXi.D.~.~.!.Y.w & =.,.6.9 3 s m B m m s m s m s s s s m B m m m s 3 ",
"s s m m B s B s m m B m s m m B s m m m B s F |.oXOX$X&X&X&X.Xi.n.~.~.~.Y.: & =.&.5.9 3 m B s m m m m m m m m m m B m 3 i m m m ",
"s m m m B m B B m m s s s m m m m m m m m m e.oX.XoX*X*X*X*X.Xf.#.^.~.!.R.w % =.&.5.6 B B m m s m m s m m m B m s m s m m m s m ",
"m B m m B m B m s i s s m m s m s i s m s B /. X.X%X*X*X*X*X#Xp.' ^.~.~.R.: & 9 8 9 4 B m m m m m m i s m m B m s s m B m m m m ",
"s m m m m B m s s s s s m m m m s r i m s m 3.k.OX*X*X*X*X*X#X(.{ ^.~.!.R.w @ % 3 3 s s s m s s m m s 3 m m m s m m m s m m B m ",
"m s s m B m C B m B s s m s m B m m B B s B M 2.OX&X*X*X*X*X+X'._ !.~.!.Y.p # m s s s B m m m m m m m B m m m s s m s m m s s m ",
"s s s B B s s s B s s s s s r C m B m m m B M e. X#X*X*X*X#X}._.G N.^.!.U.k s s s s s s s s s s N s s s s s r i s s s s s s s s ",
"B s s s s s B s s s s B B s s s m m m m m m N 3. X@X[.+X%X#X{._.h. .^.!.U.k i s s r s s s N s r s B m s s s s s s s s B B B s s ",
"s s i i s s s s s s s s B s s s m s i i m m m S s. X/.{. X$X X{.h. .^.!.U.k i s s s s s s s s s s s s s s B s s B s B B B m s m ",
"s s s s s s s s s s s s s s s B m m i i m s m i -.).e.k./.#X%X Xh.} !.!.R.k i s s s s s s B s s B B s s s B B s s s s s s s s m ",
"B s B C s s B s s s s r s s B C m m m m m m m m m 2.-.3.(.@X@X).x.| R.!.W.Y a B s r s s m B s m C s s s s s s s s B s s s s s m ",
"s s s s s B s s s s s s s s s s m m s m m i m B B N s F k.].|.}.`.! K.^.!.{ O i s s s s s m m m s s s B s B s B s s r s s s m m ",
"s B s s s B s s s s s s s s s s m s u u m m m m m i > l a.l.c.c.z.J R.^.~.#.O s B s s s s m m s s s B s s s B s s s s s s B B s ",
"s B s s s s B B s B s s s s i s m B s s m m m m m i ; / ! B.V.V.I.Q K.~.~.P.f s m s B m s s m s B s s s s s s s B s s B m s m s ",
"s s s s s s B s s B s s B B s s m B m s s s m s s s w ^ K T.^.^.R.{ U.^.!.Q.^ : a s m s s s s m m m s s i s s m s s B B s s B s ",
"s s s s r s s s s s s s s s B s s m m m s m B m m s q / ^ b.^.^.g.W W.!.!.!.C.I j i s s m s s m s s s s i s m s B s s s s B B m ",
"i s B s s s s s B s B m s B C B m s m m s s B B s s w X.+.Q ^.^.M.T D.T.W.D.m.[ j i s s m m s s s m m s s m s B B s s s s s B C ",
"s s s s B s B s s s C m s s s B m s m m s m m m s s q o.@.W !.^.Y.^ ] @.F.$.@.O.f i B B i s m m m m m s s s s s s s s B m s s s ",
"s s m s s s s s s s N s r s m m s s s s s s i r i i w o.%./ V.~.!.K.) +.[ ) K w a s m s s s s s m m s s s s m i s m m m s m B s ",
"s s B B s s s s s r s s i s s s s s N N m N s i s i q o.S.) g.^.!.^.K.L d : 0 i s s N m s s s m s m m m s m m s s m m s s B B m ",
"s s s s s i s s s r s s s s m s r s N B s B s s s s w ..S...' W.^.!.Q.j e s e i s m C m m s m s i m m s m B m s s s m s s s s s ",
"s B s s s s m s s r m B s N B s s s m s s s s s s s i l $.%.Y G.Q.!.P.I q s r s s m s s B N s s 3 s m m m m s m s B m m s s i i ",
"B s s r s B m s s s s m s m B m m m m m m N m s m m m u j ^ P n.H.H.A.@.K e s i m m s m B s s s m m m B m m m m s m m m m m m s ",
"m s s s s B B s s m B B m m m s s m m s s s m m c u x M z < 1 O.m.Z.Z.Z./ 1 p m m m s B s s s B B m m m m m m s s s m m B m s m ",
"s B s s s s m m s m B B m m s m s s s s N m M v v v v b b v , ) A.Z.Z.Z.@.I I c M m m B s s s B s m m m s m i m s s m s m m s m ",
"s B B s m s s m m s s s m m m s s s m M C S z v v v v b v b % R m.Z.Z.Z...) ..; b b B s B s s s m m m s s m B B s m m m m s s m ",
"s B m m B s s B m s s m m m m m u s M M Z v x x v v v v v v z h %.A.Z.A.^ o.$.> 7 7 M M N u 5 s m B m m m m B B s m B s s m m m ",
"s s m B m s s s s r s s s m m m B M S b z v v b v v x v x v v ; @.A.Z.m.P o.o.; b b 7 v S i i s m m m m m m B m s s m m s m B m ",
"B m s m s r s s s s m B m m B m C M v v v v v v v b v v v v v p %.Z.A.@.1 W j x b b b b b M s m m s m m m m m m s m B m s m m m ",
"m s m s s s s s m s B m B B m m m b v v v v v v v v v v v v y R %.Z.A...- t z v v v v v 7 b m s s s s s m m m m m m B s s s s m ",
"m m m m s s s B B s B s m m B s m z v v v v v v x x v v v y U n.Z.Z.S.X.- b v v 7 c x 7 x x s i s s m m s m s B B s s m s s m m ",
"m m B B s r m m m m m s s s s s m v x x v v v v v z v v v < ( D.S.m...^ , v v v m 7 b b 7 M s u s m m m s B m B m s s B m s s s ",
"B m m m m s B B s m B m m s s 3 m M v v v v v v v x x M v v p L P f p , x v z z 7 M M 7 b V m s m s m m s m B B B s m s m s s m ",
"m B B B B m m s s m C s s s m m m m Z b v v v v v v v v v v x 6 t z b b z v v v b 7 M 7 V B m s m s m s s s 3 s m m m B m s m C ",
"s m m m m i s m m m m s s m m B s s M M b v v v v v v v v v x v v v v v x x v x M 7 M S B m m B m s s s s s s s s s m B m m B B ",
"m s m m m r s s m s s m m B m m m s m B M x v v v v b v v v v v v v v v x x v v 7 7 C m s m m B m m m s m B s s m B s B B B B s ",
"s s B B s s s m m s m B B B m m m m m B N m M v v x v v v v v v v v v v v v v v m m m s s s B m m m s m B B B s B B s s B B s m ",
"m m B B m m m B m m m B m m B m C m m m s r B m M M M b c b b b v b b b c c x c m m s m m i 3 m m m m s m s s m B B m s s B C C "
};
