/* XPM */
static char *out[] = {
/* columns rows colors chars-per-pixel */
"64 64 160 2 ",
"   c None",
".  c black",
"X  c #08080D",
"o  c #1F213B",
"O  c #332030",
"+  c #3C293E",
"@  c #472A39",
"#  c #5F2F38",
"$  c #2B2C4C",
"%  c #332840",
"&  c #312944",
"*  c #2D2E50",
"=  c #2F3258",
"-  c #303359",
";  c #333762",
":  c #383A66",
">  c #353B6A",
",  c #383C6B",
"<  c #383D6C",
"1  c #393F71",
"2  c #432B44",
"3  c #45334D",
"4  c #4E334B",
"5  c #5B3041",
"6  c #413258",
"7  c #5E3851",
"8  c #693E4B",
"9  c #713F49",
"0  c #3D4276",
"q  c #3C447C",
"w  c #3E457D",
"e  c #3F467E",
"r  c #4F4F5C",
"t  c #714144",
"y  c #7F4C4B",
"u  c #7B5848",
"i  c #4F4564",
"p  c #4A4C70",
"a  c #41477F",
"s  c #695F7B",
"d  c #6B5F7C",
"f  c #705B7D",
"g  c #854C4D",
"h  c #824755",
"j  c #884950",
"k  c #8C4950",
"l  c #925555",
"z  c #A7575C",
"x  c #9D625B",
"c  c #9E695F",
"v  c #A6605E",
"b  c #88596F",
"n  c #845D77",
"m  c #A05C63",
"M  c #A95D61",
"N  c #8F776C",
"B  c #9F7063",
"V  c #9F7165",
"C  c #91677F",
"Z  c #B16C64",
"A  c #AE7565",
"S  c #B27368",
"D  c #BE766C",
"F  c #A96571",
"G  c #A97778",
"H  c #C5776D",
"J  c #CB7173",
"K  c #C67D71",
"L  c #A2806F",
"P  c #A2887E",
"I  c #B68A78",
"U  c #C98372",
"Y  c #C18977",
"T  c #D28075",
"R  c #D58F7F",
"E  c #C3977F",
"W  c #E08A7E",
"Q  c #404986",
"!  c #434B88",
"~  c #585B84",
"^  c #454F90",
"/  c #485091",
"(  c #4A549A",
")  c #5C628E",
"_  c #756787",
"`  c #6B6F9B",
"'  c #7D6E90",
"]  c #4E59A3",
"[  c #4E59A4",
"{  c #4F5AA5",
"}  c #535FAD",
"|  c #535FAE",
" . c #5864B8",
".. c #516DB9",
"X. c #747DAB",
"o. c #5C69C1",
"O. c #616FCB",
"+. c #9D7B87",
"@. c #7982AD",
"#. c #7F85B6",
"$. c #83809C",
"%. c #898199",
"&. c #8A8E9E",
"*. c #938194",
"=. c #A6808A",
"-. c #A88E92",
";. c #838CB2",
":. c #8A91B3",
">. c #9B9BB5",
",. c #9299BF",
"<. c #A298A2",
"1. c #A2A0B5",
"2. c #B9B1B0",
"3. c #C39480",
"4. c #CA9581",
"5. c #D69683",
"6. c #D79E89",
"7. c #EA9783",
"8. c #D0B090",
"9. c #D0B89F",
"0. c #EDA68D",
"q. c #E1AA8D",
"w. c #E2AB8F",
"e. c #F5A489",
"r. c #F6AA8D",
"t. c #EEAD91",
"y. c #EFB597",
"u. c #F8B997",
"i. c #F0BC9B",
"p. c #F9C09B",
"a. c #FAC29D",
"s. c #FBC8A1",
"d. c #FCCFA5",
"f. c #FCD1A7",
"g. c #FDD7AB",
"h. c #FAC9B0",
"j. c #FFE0B1",
"k. c #8893C6",
"l. c #8C98C8",
"z. c #919DCB",
"x. c #9BA7CF",
"c. c #9BA5D6",
"v. c #9FACD2",
"b. c #ABAEC5",
"n. c #A4A7CB",
"m. c #A7B1D2",
"M. c #AAB6D6",
"N. c #AEBBD9",
"B. c #B1BADD",
"V. c #A6AEE1",
"C. c #B4BDE8",
"Z. c #B9C3E4",
"A. c #C0C9E4",
"S. c #C3CCEF",
"D. c #CBD1EF",
"F. c #D6DDEC",
"G. c #E1E5F7",
"H. c #E8EFFD",
"J. c #F7F9FE",
"K. c white",
/* pixels */
"                                                                                                                                ",
"                                                                                                                                ",
"                                                                                                                                ",
"                                                                                                                                ",
"                                                                                                                                ",
"                                                                                                                                ",
"                                                                                                                                ",
"                                                                                                                                ",
"                                                                                                                                ",
"                                                            1 a a a 0                                                           ",
"                                                        - } O.O.O.O.O.o.!                                                       ",
"                                                      - O.O.O.O.O.O.o. .^ = $                                                   ",
"                                                      } O.O.O.O.O.o.o. .o.[  .w                                                 ",
"                                                    1 O.O.O.O.O.O./  .O.} o.O.o.                                                ",
"                                                    a O.O.O.O.O./  .] O.} O.O.O.<                                               ",
"                                                    / O.O.O.O.O.< / o.O.] O.O.O.<                                               ",
"                                                    | O.O.O.O.[ < 0 o.o.< } O.| <                                               ",
"                                                    { o.O.O.[ q < ! { { < i  .{                                                 ",
"                                                    { { { e @ 3 < , ^ > Y E < o                                                 ",
"                                                    { { { 4 s.R < ! * X . A                                                     ",
"                                                  1 { { { 4 p.a.s { < +.r u z                                                   ",
"                                                  < { { { > S t.N { < h...d.p.l                                                 ",
"                                                  ( { { ^ q & c 9 ( < g.s.j.p.                                                  ",
"                                                  { { { Q q = j M < < d.d.5.y                                                   ",
"                                                  { { { q > + b J m 8 K B y                                                     ",
"                                                < { { ^ q p X.k.` F J f ~                                                       ",
"                                                < { { ^ : %.9.j.<.n.G q.&.;.                                                    ",
"                                                < { ( Q % g.j.j.g.:.,.-.' K.K.$.                                                ",
"                                                < { ^ q O j.j.j.y.C H.K.J.G.G.K.                                                ",
"                                                  { ^ q O j.j.j.6.=.K.K.K.J.B.K.@.                                              ",
"                                                  ! ; q O j.j.j.4.;.K.K.K.K.K.v.c.                                              ",
"                                                      $ O j.j.j.4.c.J.K.K.K.K.b.)                                               ",
"                                                          j.j.j.g V.D.K.K.K.G.m.                                                ",
"                                                          j.j.j.d c.C.K.G.A.H.z.                                                ",
"                                                          j.j.j._ V.F.F.V.l.Z.~                                                 ",
"                                                        # j.j.w.*.S.K.M.X.` #.                                                  ",
"                                                        x j.j.L 2.l.N.x.`                                                       ",
"                                                        S j.j.L >.1.1.,.n                                                       ",
"                                                        a.j.j.L j.j.j.P J                                                       ",
"                                                    y g g.j.j.3.8.j.j.V J                                                       ",
"                                                    x T i.j.g.0.L j.j.v 7.                                                      ",
"                                                    x 7.T a.W v 8.j.f.x e.                                                      ",
"                                                      # Z H U 8.j.j.I 7.e.                                                      ",
"                                                            L j.j.j.V e.e.                                                      ",
"                                                            S j.j.s.v e.D                                                       ",
"                                                          k 7.r.u.e.l v                                                         ",
"                                                        t T e.e.e.T 2                                                           ",
"                                                      h x 7.e.e.e.x                                                             ",
"                                                      x e.Z e.e.e.h                                                             ",
"                                                      x e.l e.e.e.2                                                             ",
"                                                      6 x 5 e.e.e.7                                                             ",
"                                                          2 e.e.e.D 6                                                           ",
"                                                          2 e.e.e.e.x                                                           ",
"                                                            2 h x x 6                                                           ",
"                                                                                                                                ",
"                                                                                                                                ",
"                                                                                                                                ",
"                                                                                                                                ",
"                                                                                                                                ",
"                                                                                                                                ",
"                                                                                                                                ",
"                                                                                                                                ",
"                                                                                                                                ",
"                                                                                                                                "
};
