/* XPM */
static char *out[] = {
/* columns rows colors chars-per-pixel */
"64 64 160 2 ",
"   c None",
".  c black",
"X  c #2D151D",
"o  c #3D2922",
"O  c #212034",
"+  c #332030",
"@  c #382933",
"#  c #502B37",
"$  c #66353E",
"%  c #282946",
"&  c #2B2C4C",
"*  c #332840",
"=  c #312944",
"-  c #3A2942",
";  c #2F3258",
":  c #303359",
">  c #333762",
",  c #3A3A62",
"<  c #353B6A",
"1  c #383D6C",
"2  c #393F71",
"3  c #432B44",
"4  c #472F4D",
"5  c #5D3440",
"6  c #453757",
"7  c #413258",
"8  c #4B3C5F",
"9  c #5E3851",
"0  c #663D4E",
"q  c #693E4B",
"w  c #713B44",
"e  c #7A3F47",
"r  c #3A4074",
"t  c #3D4276",
"y  c #3C447C",
"u  c #3F467E",
"i  c #53445E",
"p  c #5D4A5B",
"a  c #7F4C4B",
"s  c #7C4B4E",
"d  c #7A5244",
"f  c #764B52",
"g  c #7B4759",
"h  c #765A5A",
"j  c #504269",
"k  c #41477F",
"l  c #5D5479",
"z  c #674D6D",
"x  c #715263",
"c  c #675677",
"v  c #7C636C",
"b  c #824755",
"n  c #884950",
"m  c #8C4950",
"M  c #85545C",
"N  c #925555",
"B  c #9A5957",
"V  c #9D625B",
"C  c #9E695F",
"Z  c #A6605E",
"A  c #A95D61",
"S  c #876366",
"D  c #92676F",
"F  c #9D6A6A",
"G  c #9F7165",
"H  c #946D79",
"J  c #B16C64",
"K  c #BD676A",
"L  c #AE7565",
"P  c #A87D68",
"I  c #B5706B",
"U  c #B37B6E",
"Y  c #C5776D",
"T  c #CB7173",
"R  c #A2806F",
"E  c #B48272",
"W  c #B88578",
"Q  c #C78677",
"!  c #C98372",
"~  c #CA8A76",
"^  c #D28075",
"/  c #D38779",
"(  c #CB907A",
")  c #404986",
"_  c #434B88",
"`  c #585B84",
"'  c #454F90",
"]  c #4A549A",
"[  c #4C569B",
"{  c #7F688B",
"}  c #616790",
"|  c #6F6F96",
" . c #656F9E",
".. c #6B6F9B",
"X. c #4E59A3",
"o. c #4F5AA5",
"O. c #515BA5",
"+. c #535FAD",
"@. c #535FAE",
"#. c #5864B8",
"$. c #7678A6",
"%. c #7A7EA2",
"&. c #5C69C1",
"*. c #616FCB",
"=. c #84768E",
"-. c #9C7385",
";. c #917986",
":. c #AC7E81",
">. c #7982AD",
",. c #8A899F",
"<. c #A2918E",
"1. c #AB968E",
"2. c #AB9E9E",
"3. c #8184A3",
"4. c #9592AA",
"5. c #9997AC",
"6. c #838AB8",
"7. c #B4ACAE",
"8. c #B9B1B0",
"9. c #BDB6B3",
"0. c #CA9581",
"q. c #EA9783",
"w. c #D0B89F",
"e. c #EDA68D",
"r. c #E2AB8F",
"t. c #EDAB8F",
"y. c #F5A489",
"u. c #F6AA8D",
"i. c #EEAD91",
"p. c #F8B895",
"a. c #F9BF99",
"s. c #E2BBB6",
"d. c #F9C09B",
"f. c #FAC29D",
"g. c #FBC8A1",
"h. c #FCCFA5",
"j. c #FCD1A7",
"k. c #FDD7AB",
"l. c #FFE0B1",
"z. c #8C98C8",
"x. c #999FC0",
"c. c #9BA5D6",
"v. c #ABAEC5",
"b. c #ADA6C8",
"n. c #A7B1D2",
"m. c #AAB6D6",
"M. c #AAB4DD",
"N. c #AEBBD9",
"B. c #B4BDE8",
"V. c #C1BDC9",
"C. c #B9C0D7",
"Z. c #D0CFDA",
"A. c #C3C9E2",
"S. c #C7D2EB",
"D. c #D6DDEC",
"F. c #D2D6F0",
"G. c #E1E5F7",
"H. c #F0F4FE",
"J. c #F7F9FE",
"K. c white",
/* pixels */
"                                                                                                                                ",
"                                                                                                                                ",
"                                                                                                                                ",
"                                                                                                                                ",
"                                                                                                                                ",
"                                                                                                                                ",
"                                                                                                                                ",
"                                                                                                                                ",
"                                                                                                                                ",
"                                                        _ &.*.*.*.+.2                                                           ",
"                                                    O ] &.*.*.*.*.*.*.[                                                         ",
"                                                r ' ' #.#.#.*.*.*.*.*.*._                                                       ",
"                                              & #.*.+.+.&.&.[ *.*.*.*.*.&.                                                      ",
"                                              u *.*.*.#.*.+.] O.*.*.*.*.*.t                                                     ",
"                                              o.*.*.*.X.*.*.] _ *.*.*.*.*.k                                                     ",
"                                              u &.*.&._ *.&.1 ] O.*.*.*.*.+.                                                    ",
"                                              2 o.*._ 1 @.o.+._ > &.*.*.*.o.                                                    ",
"                                                1 1 P P 1 1 1 _ % > +.#.@.o.                                                    ",
"                                                  X t.d L 1 o.o.h E j o.o.o.>                                                   ",
"                                                    o . @ 1 o.] W g.+ o.o.o.1                                                   ",
"                                                w / d.| s.1 o.1 e.( 8 o.o.o.]                                                   ",
"                                                B h.k.b.g.1 o.v d.s y ' o.o.o.&                                                 ",
"                                                  ~ k.l.l.1 u n $ ; y y o.o.o.1                                                 ",
"                                                    Z a.p.q 5 T A = y y ' o.o.]                                                 ",
"                                                        g K { $.$.0 < y ) o.o.o.                                                ",
"                                                      H S { x.7.,.} , y y o.o.o.                                                ",
"                                                  ..>.;.%.Z.w.l.l.w.* y y o.o.o.                                                ",
"                                                ..n.D.H.S.-.l.l.l.r.- y y o.o.]                                                 ",
"                                                3.K.K.K.v.K l.l.l.G ; y ) ' ] 1                                                 ",
"                                              ` K.K.K.K.C.Q l.l.l.# y y ' r ' 2                                                 ",
"                                              M.K.K.K.K.K.0.l.l.j.+ p ; : & >                                                   ",
"                                              z.J.K.K.J.=.j.l.l.0.V y.                                                          ",
"                                              ..B.G.K.F.i l.l.l.G x y.                                                          ",
"                                                6.c.D.C.D l.l.l.S l.G m                                                         ",
"                                                   .N.V.r.l.l.r.1.9.4.c                                                         ",
"                                                  6 z M l.l.l.:.A.J.K.m.                                                        ",
"                                                    F r.l.l.r.l 8.<.2.5.                                                        ",
"                                                  V J y.d.l.U l.l.l.l.l.                                                        ",
"                                                  e d.l.l.j.R l.l.l.l.l.                                                        ",
"                                                  V l.l.k./ R l.l.l.l.l.                                                        ",
"                                                m V i.f.I e B l.l.l.l.l.                                                        ",
"                                                V n Y ^ ^ V   r.l.l.l.l.                                                        ",
"                                                m N n $ V a   G l.l.l.l.                                                        ",
"                                                  q.V ! y.^     l.l.l.l.                                                        ",
"                                                  J y.y.y.q.    r.l.l.k.Z                                                       ",
"                                                  m y.y.y.J     C k.g.u.q.                                                      ",
"                                                  4 y.y.y.V     9 y.y.y.y.N                                                     ",
"                                                  3 y.y.y.b     7 ^ y.y.y.V                                                     ",
"                                                  b y.y.y.3       N y.y.y.N                                                     ",
"                                                f y.y.y.y.3       9 y.y.y.9                                                     ",
"                                                f y.q.Z 9         b y.y.y.3                                                     ",
"                                                  3 3           f y.y.y.y.3                                                     ",
"                                                                f y.y.^ V 7                                                     ",
"                                                                  3 3 7                                                         ",
"                                                                                                                                ",
"                                                                                                                                ",
"                                                                                                                                ",
"                                                                                                                                ",
"                                                                                                                                ",
"                                                                                                                                ",
"                                                                                                                                ",
"                                                                                                                                ",
"                                                                                                                                ",
"                                                                                                                                "
};
