/* XPM */
static char *out[] = {
/* columns rows colors chars-per-pixel */
"64 64 215 2 ",
"   c #1C191D",
".  c #1C1B2E",
"X  c #35262F",
"o  c #382F38",
"O  c #4B3233",
"+  c #5D343E",
"@  c #61353B",
"#  c #6D463B",
"$  c #2F2843",
"%  c #352D4E",
"&  c #2F3148",
"*  c #33344C",
"=  c #3A3949",
"-  c #3B3D4D",
";  c #2F3257",
":  c #343451",
">  c #363A53",
",  c #393D54",
"<  c #36385A",
"1  c #363A67",
"2  c #393E6C",
"3  c #383E71",
"4  c #493442",
"5  c #4D3A4B",
"6  c #523545",
"7  c #523C4C",
"8  c #483C58",
"9  c #543E54",
"0  c #763E45",
"q  c #3E434F",
"w  c #3D4253",
"e  c #3D415D",
"r  c #3F4363",
"t  c #3F456D",
"y  c #3B4275",
"u  c #3C447B",
"i  c #56454D",
"p  c #424653",
"a  c #4F4652",
"s  c #454B56",
"d  c #4C4A55",
"f  c #42425D",
"g  c #4C435B",
"h  c #464D59",
"j  c #484F5A",
"k  c #564650",
"l  c #524A53",
"z  c #524B55",
"x  c #554C5D",
"c  c #5C4B5B",
"v  c #4C545F",
"b  c #68474D",
"n  c #7A444A",
"m  c #754B4C",
"M  c #7D4F4F",
"N  c #644B55",
"B  c #684853",
"V  c #744D53",
"C  c #794E51",
"Z  c #764D58",
"A  c #625553",
"S  c #6F5255",
"D  c #7E5459",
"F  c #7B5859",
"G  c #434665",
"H  c #444965",
"J  c #484862",
"K  c #464A69",
"L  c #494D6C",
"P  c #5E4D6D",
"I  c #4D5561",
"U  c #4D536B",
"Y  c #515563",
"T  c #515964",
"R  c #555469",
"E  c #555D69",
"W  c #474872",
"Q  c #41497C",
"!  c #4E5270",
"~  c #55587A",
"^  c #6D4E63",
"/  c #685D66",
"(  c #7B5567",
")  c #685B7A",
"_  c #736873",
"`  c #8A4951",
"'  c #825354",
"]  c #8B5255",
"[  c #96585A",
"{  c #A45D5D",
"}  c #85665D",
"|  c #9B645F",
" . c #A3645E",
".. c #905A69",
"X. c #A95E65",
"o. c #856465",
"O. c #986763",
"+. c #997367",
"@. c #976D78",
"#. c #AA6565",
"$. c #AB6C63",
"%. c #AA6966",
"&. c #B76969",
"*. c #A47569",
"=. c #B5766A",
"-. c #BC746D",
";. c #A17776",
":. c #C0796E",
">. c #A88378",
",. c #BA8877",
"<. c #C88977",
"1. c #D18776",
"2. c #D78979",
"3. c #D48C79",
"4. c #D9977E",
"5. c #3F4784",
"6. c #424A84",
"7. c #444D8C",
"8. c #484F8C",
"9. c #4A518C",
"0. c #525088",
"q. c #464F91",
"w. c #475193",
"e. c #495395",
"r. c #47539C",
"t. c #4A559B",
"y. c #5D6086",
"u. c #66688B",
"i. c #6A6F97",
"p. c #767192",
"a. c #4C56A0",
"s. c #4E59A4",
"d. c #505BA6",
"f. c #525DAA",
"g. c #5560AE",
"h. c #5662B4",
"j. c #5764B8",
"k. c #5966BB",
"l. c #5B68BE",
"z. c #6A76A1",
"x. c #787FAB",
"c. c #5D6BC4",
"v. c #5F6DC9",
"b. c #606ECA",
"n. c #6170CC",
"m. c #6472D1",
"M. c #867594",
"N. c #8A7F92",
"B. c #7D85AB",
"V. c #7B88B9",
"C. c #988A8D",
"Z. c #B48E87",
"A. c #B19892",
"S. c #968DA2",
"D. c #8A91B1",
"F. c #8991BB",
"G. c #969AB8",
"H. c #A89BA6",
"J. c #B498A1",
"K. c #B4A5A2",
"L. c #B1B0BB",
"P. c #C79985",
"I. c #D99C85",
"U. c #E69781",
"Y. c #EB9B84",
"T. c #C6A98A",
"R. c #D7A88D",
"E. c #DAAA91",
"W. c #C7B399",
"Q. c #DBB493",
"!. c #EBA78B",
"~. c #F3A287",
"^. c #F4A489",
"/. c #F6A98C",
"(. c #F8AA8D",
"). c #ECB18D",
"_. c #E7B393",
"`. c #F7B896",
"'. c #CEBAA2",
"]. c #DEBEAD",
"[. c #E6C39D",
"{. c #EAC49D",
"}. c #F9C39D",
"|. c #DDCDA4",
" X c #E9C8A4",
".X c #F3CDA4",
"XX c #F8CAA2",
"oX c #E6D2AA",
"OX c #F5D1A7",
"+X c #F4D6AB",
"@X c #FAD5A9",
"#X c #F4DBAE",
"$X c #FCDCAE",
"%X c #E6DCB2",
"&X c #FDDFB0",
"*X c #F6E1B1",
"=X c #FDE1B1",
"-X c #939BC9",
";X c #9BA6CA",
":X c #B3B5C8",
">X c #AFB8DC",
",X c #B8BED5",
"<X c #A9B3E2",
"1X c #BDC2D7",
"2X c #B9C1E8",
"3X c #C5C8D8",
"4X c #CAD4EB",
"5X c #D4D9EF",
"6X c #DEE2F1",
"7X c #EDECEF",
"8X c #E1E6F0",
"9X c #E8EBF5",
"0X c #F3F5FA",
"qX c #F7F8FC",
"wX c #FDFDFD",
/* pixels */
"I T v s v I E T v I v v T T v h I I v I I E I v v I I h v v v v v v T T I I E I I T I v h j j s v s j I v I I I v s v E I v I E ",
"I T v v v T I v v T v v T v v v v v v v v T v v I v v v v v v v I v j j E v I I T E I I I I v v v v v v I T I v v j h v v v j I ",
"v Y I I v T v v v v v v j j v v v v I I v I v v v v v v h q q q q w v v I I I I I T I v I I v I I I v I I I v v v v v v v v v v ",
"v v I I v v v v v v v v j v v v h v I I v I h v I v h r u 9.9.9.8.Q r h v T I v v I j v v v v v I I j v I v v v v I v v v I I v ",
"v v I I I v v T I v v v v I v v v T I v v v I v v w u g.b.n.m.m.n.n.h.8.e j T I v v s v I I v v I v v s v v v v I E I v I T T T ",
"I v T T v s v v T v v v v I I T I v v I v v w > & ; q.j.l.b.c.b.n.v.n.v.f.e v I v I I v I I v I w v v I v v s h v v v v v I I T ",
"h v T T v v v v v v v s v v I I v h v v I w t 5.q.e.j.j.k.l.n.b.v.n.n.v.v.w.h I v v v v I I v v I v v v v v v j j v v v v I T I ",
"v Y I I T v v T T v v v v v v T v h v v h > s.c.c.t.j.l.l.l.h.b.v.v.n.v.v.c.t I v I I I I v v v T v I v j v v v v v v j v v T T ",
"v T T v v T v T I I I I v v v T T v v v q t l.v.b.h.h.b.k.d.q.k.n.v.v.b.b.b.t.w I I I I I I I I T v v v v v I v v v v v v v v T ",
"v v v v v E v v I v T I v v v v v v v v w e.c.v.b.c.g.b.b.a.7.d.n.v.b.b.b.b.g.= I I v v I I I v v I T v v v T T v v E E v v v v ",
"v T T v T v v v T I v v I j j I v v j q < t.c.n.n.j.a.b.b.h.7.6.l.b.b.b.b.b.g.> I I I v v I I I T v v v v v v T v I I v v v v T ",
"v E v v v E v v v v v v v v v v v v v v q 5.k.v.b.f.7.b.b.d.3 7.e.b.b.b.b.b.l.W s I v v v v I v I v v v v E v v v v v E T v v v ",
"T T v v s T v v v v T I I I v I T T v v s u s.l.b.3 2 h.f.d.w.7.1 j.b.b.b.b.h.Q - I I I I v j v v T v v j v v v v h v T v v T T ",
"v v v v v v v v I T T T I I v T T T v v v r 5.s.9.b N q.r.a.7.u ; 5.g.c.b.j.f.3 - v I v I j j I v T v v v v v T v v v v v v v T ",
"v v T T v v s v v I I T I I v T v T T v v v o . } ).I.( 8 ; 3 w.* O 8 t.f.s.d.Q - v I v v v v v v v v v v v T v v v I v v v v v ",
"v T T v v v v v v s I v I I v v v v T v v v s o *.*.O # 5 t.d.r.c R.O.Q s.s.s.r., h v v h h v I T T v v v E v v v v v v T T v v ",
"E v T T T v v v v v v T v T T I I T I v v v v l 0 X   o $ t.f.e.>.).>.: s.s.s.a.e w T I v v I I T T v v h v v T T v T v v I v q ",
"T v v T T v j v v v v I I v v I T T v v v h i | P.P.p.J.9 t.f.W E.!.| t s.s.s.s.u q v I T I I v v v v v v v T T v v T v v v v T ",
"v v v v T v v v v v I v v v v I I I v T v h m ).$X].x.]./ t.r._ Q.3.s y r.s.s.s.5.w v v I I I I T v v v v v T I I v I j v v v I ",
"v v v v v v v v v v v v I v I v v v T v v v A <.$X#X XOX/ a.0.Z +.b r u 5.s.s.s.a.e v v v I I I v v v v v v v v I T v s j v v v ",
"v j v E T v T T v v q v T I v v v v v v v v v S P. X@X&X^ 5.9 ` ` X 3 5.5.r.s.s.d.t w T I I I v v v T T v v v I I I I I v v v q ",
"v v v v v v T v v v I I v v v v h v v v v v v h b =._.)...6 0 &.X.+ 1 u 5.5.s.s.s.w.w v I I T v w v v v T T T T I I E I v v I T ",
"v T v v T v v v v v s v v v I v v v v v T v v v s i N ' X.#.p.M.M.( % 3 u 5.s.s.s.s.q r T T I v T v v v v T v v I I T I v I I I ",
"v T v v T v v v v v v v I v v I v T v v v v v v I I P c ..M.F.-XF.i.1 3 5.5.5.s.s.5.q v T I I v v T v v v v v v v I T I I I v I ",
"v T T v T v v v v v v I v v v I v T v j v v v I ~ ) ,.@.N.,XK.oX'.M.y.: u u w.s.d.r.q v v I v v v I I v I T j v v I T v I I I I ",
"v v T T I v s v v v v T j v v v v v v v v v R i.F.D.S.G.3XJ.OX&X*X#Xo.$ 5.u r.s.d.s.q r v I I I I v v I I E q v v v I I I I v v ",
"v s v v v v v v I v I v v v v v T v v v v v y.;X1X8X8X4XM.!.&X&X$XOX' ; u u r.s.d.5.w v v I T v I I I v I I v I v I T T v v v q ",
"v v v v T v T v I v T I v I I T T v v T T L i.3XqXwXwX1XM.E.=X&X*XQ.O 2 u u r.7.s.t w v I T I I T v I I T I v v I I I q v I I I ",
"v T v v E v T T I I I v v I I I v v v v I ! :XwXwXwXwX1X.._.&X&X&X,.% 3 u 7.r.u t.r w T T I I v I v v I I I T T v I v I v v v I ",
"v T T v T T T I v j v v I I v I v v v v U B.0XwXwXwXwX8XZ.@X&X&X#X} % 1 y u u ; 9.r T T I I I I I I v v v I T I v v I T v I I I ",
"v T v v v T I v v j v I I I v I v j v I u.>X0XwXwXwXwX7XP.@X&X&X XM 5 o.* w > , q w I I v I v v I I q v I I I v I I I v I I T I ",
"v v v T T v E T I T I v I v I T v v T T ~ -X9XwXwXwX0XS.P.#X&X&XE.0 4.,.= I I I I v I I I I I v I v I I v T I v v I v I I v v I ",
"I v v T v T v v v I I v v j j T I T I I I x.2X6XqXqX5X) T.=X$X=XP.6 <.<.4 E I v v v v I v v v v v v v v v v h v v v v v v v v I ",
"I v v v v v T v I v I I T I v I I I I I J ~ -X<X4X0X,X) Q.=X=X@XO.C.,.-.N I I v j h v v v T v h v T T v v v v v v v v E T v v I ",
"v v v s v v v v v v v I I I I v I I j j I I y.B.V.6X3X;..X*X=X{.+.%XoXo.Z z v v v j v v v T v v v T v v v T v v v v v T T I v I ",
"T v j v v T v v v v v v v I I T I I j h I I J ~ z.:XJ.R.=X$X=X<.C.:XL.G.u.I I v v v v v v v v v T v v v v T v T v v I v v v v I ",
"v v E T v v I v v v v s v I T T I I I I T v I j ^ P o..X=X=X{.A.1X6X8X8X;XU T T v h v v T I v I E v v v v v v v v T v v v v v I ",
"v v v v v E v v v v v v v v v I I I I I v v I z O.( I.=X$X=X,.M.L.H.C.L.G.! v v I v v v v I I I v v v T v v I v v v s v v v T v ",
"v T v v v v v v v v v v v j j I I I s h v v j c <.$.).XX$X{.+.K.#X*X=X*XW.x v v I v v v v I I v v v v T v v v v v v v v v T T v ",
"v T v v v v T T I T v v v v v I I I v v v v j b { !.`.}.$XT.T.*X&X&X$X*X|.A v v I v T I v v I v T v v v v T v T T v v T I v v v ",
"v v v v v v T v I I v v I I v I I T I I v v h + <.@X&X&X@X=.T.*X&X=X&X&X|.A j I v v I I v I v I I v v v v I I I v v T T v v T v ",
"v v v v s v v v v I I v I I I v I I I I v v a @ _.&X=X@X_.] T.=X&X&X=X&X|.A j I v v v I I I v v I v v v q v I I T v v v v T T T ",
"s v T v v v v v I I T v v T T T I v I I v v N n I.`.}.I.{ + ,.*X&X&X&X&X|.A j I I I v I I I v v v v v I I I I I T v v v v v v E ",
"v v v v v v T T v I E I I I I T I v I I v v m | &.U.2.:.-.6 F  X&X&X&X&X|.A j T T I T I h v v I I I I I I I I T v v v T v v v T ",
"v v T v v v v v v v I I h v I v v v v v v v n [ `  . . .| i z P.&X&X=X=X|.A j I I I I I v v v v I I I v v v v q j T I I v v T v ",
"v v v T v v v v v j v I h v v v v v I T v T b  .] ` n $.$.i p *.+X&X$X=X|.A s v v I I I v v v I v I I v I I I v j I I v v T T I ",
"T v v v v j v v h s v v v v I v h v T T v T z $.<.$.1./.Y.' d B [.=X=X$XoXF p j I I E I I v I v v v I v I T I I I I I v v I v v ",
"v v v v v v v v v h v T v T T v v v v v v v v ' U.~.~.~.~.| p i P.=X$X=XOX$.a j I I I v T T v v q v I I v I v I I T I I v v T w ",
"E v v j v T I v v v I v v I T I I I I I I Y j k 2.^.^.^.U.D j Y O.@X$X@X`.2.V v v I v v I I v v I I T T v I v I I I v T I v v v ",
"v v v v v T T v v I T T I I I v v I I v v I I x %.^.^.^.3.9 L G Z ).`.(./.~.#.z I I v E I v I E I v I I v T I v v v I I T I v I ",
"v v v v v v I v v I I T I I v I I I I I T U H G O.~.^.^.1.5 L K g =.~.~.~.^.1.7 v I I I I v v I I v v v v I v v v v I v T I v I ",
"v E v v I v v I I v I v I I I v j I I ! ! L K , | ^.^.^.&.8 L G J ] ~.^.^.^.3.7 U I I v v v v v I I I v v v T I v I I I v v v I ",
"v T v I T v v T T v v v I I I v h U L K K K K g -.~.~.^.' G K K K N I.~.^.^.1.5 t L U I I h w I v T T v v v T T v I T v v v v I ",
"v v T T I v v v v s v v I I I I ! ! L K K K g | U.~.^.(.C G K K K 9 -.~.^.^.#.g L L L ! I h h I I I I I T I T T v v v v v T T I ",
"E v v I v s v v v v v T I I T I ! K K G K G V !.~.~.U.:.N G K K G G %.~.~./.C H L L t U T v v v I v v I v I I v I I E v v I I I ",
"I v I v v j v T I v T I T T E v L K K K K K x *.1.-.' 9 G W K K G B 2.~.~./.C H K K t L L I v I v v I v v I I T T I T v v v v I ",
"v v T v v v v T T v I I I I I v K K K K K K H 8 5 8 K K K K K K B 1.~.~.^.(.C G K H L t I v v h v v v v v v v T T v v I v I v I ",
"T v T T v q v T I v I v v I v v L r H K K K K K G H K J K H K G B I.(.^.2.:.b G t I H L U v v h v v T T v T v T v v v T I v v I ",
"T v T v T v T T v I T I v v v s L K L H K K H K H H H L K L L K J V ' ' B 8 f G U t U t I I I v v v I I v I T T T v I v v v v I ",
"v T T E T v T v v I E I v v v v U W K L L K K K K K K K K K K K G G r r G K K W t t U U E T I v v v I v v v q v I v I T I I I E ",
"v v v T T s v v T v T v v v v T I U L L K K K K K K K K K K K K K K L L K K K G t t E I T I v T T v v v v v v v I I I T I I T T ",
"T v v T v j v v v v v v T T v T v I T U K K K K K K L K K K K K K K K K K K G W T I T I v v I T v I v v I T v v I I I I T I I I ",
"v v T T v v v v v v v T T T v v I v T T R L K K K K K K K K K K K K L K K L K U I I v v v v v v T I v T T T I v I T I I T T I I ",
"I v T T v v T T T v v T v T T T E I I v v s U U I U U K K L L K K L U J I U j j v I I I v j h I v v v v I I I v T E I I I T E E "
};
