/* XPM */
static char *out[] = {
/* columns rows colors chars-per-pixel */
"64 64 167 2 ",
"   c None",
".  c black",
"X  c #221825",
"o  c #272127",
"O  c #332030",
"+  c #3E2A3B",
"@  c #45312F",
"#  c #282946",
"$  c #2B2C4C",
"%  c #3C314E",
"&  c #2D2E50",
"*  c #2F3258",
"=  c #303359",
"-  c #333762",
";  c #373965",
":  c #383A66",
">  c #353B6A",
",  c #383D6C",
"<  c #393F71",
"1  c #432B44",
"2  c #4C3443",
"3  c #5D3440",
"4  c #413258",
"5  c #4B3C5F",
"6  c #5E3851",
"7  c #5B3D54",
"8  c #60394D",
"9  c #6B3C4B",
"0  c #713B44",
"q  c #3A4074",
"w  c #3D4276",
"e  c #3C447C",
"r  c #3F467E",
"t  c #734341",
"y  c #714144",
"u  c #7F4C4B",
"i  c #7C4B4E",
"p  c #734B50",
"a  c #764B52",
"s  c #854C4D",
"d  c #824755",
"f  c #884950",
"g  c #8C4950",
"h  c #854C5D",
"j  c #85545C",
"k  c #925555",
"l  c #9A5957",
"z  c #915C5B",
"x  c #A7575C",
"c  c #9D625B",
"v  c #9E695F",
"b  c #A6605E",
"n  c #8E5160",
"m  c #995E65",
"M  c #A05C63",
"N  c #8C6862",
"B  c #9B6560",
"V  c #966F64",
"C  c #8E7168",
"Z  c #91677F",
"A  c #B16C64",
"S  c #AE7565",
"D  c #A87D68",
"F  c #C5776D",
"G  c #CB7173",
"H  c #908072",
"J  c #A2806F",
"K  c #A2887E",
"L  c #B48272",
"P  c #B68A78",
"I  c #C98372",
"U  c #CA8A76",
"Y  c #D28075",
"T  c #D38779",
"R  c #D6847C",
"E  c #DD8D7B",
"W  c #404986",
"Q  c #434B88",
"!  c #585B84",
"~  c #454F90",
"^  c #4A549A",
"/  c #5C628E",
"(  c #7F6985",
")  c #7F688B",
"_  c #676A99",
"`  c #656F9E",
"'  c #756F96",
"]  c #4E59A3",
"[  c #4E59A4",
"{  c #4F5AA5",
"}  c #515BA5",
"|  c #535FAD",
" . c #535FAE",
".. c #5864B8",
"X. c #7579A0",
"o. c #7678A6",
"O. c #7A7EA2",
"+. c #747DAB",
"@. c #5C69C1",
"#. c #616FCB",
"$. c #817C8F",
"%. c #917089",
"&. c #7982AD",
"*. c #7D8ABB",
"=. c #A2918E",
"-. c #AB9E9E",
";. c #9997AC",
":. c #8290BD",
">. c #9F9FB9",
",. c #A497A8",
"<. c #B59AA0",
"1. c #A69BB9",
"2. c #B3A3A8",
"3. c #B4ACAE",
"4. c #C39480",
"5. c #CA9581",
"6. c #DF9B83",
"7. c #D79E89",
"8. c #C39C90",
"9. c #EA9783",
"0. c #EB9E87",
"q. c #D0B090",
"w. c #E0A389",
"e. c #ECA48B",
"r. c #E2AB8F",
"t. c #F5A489",
"y. c #F6AA8D",
"u. c #E5A892",
"i. c #EEAD91",
"p. c #E3B293",
"a. c #EFB395",
"s. c #F7B393",
"d. c #F9BF99",
"f. c #CBA8A5",
"g. c #D1A8AA",
"h. c #D5BEB8",
"j. c #F9C09B",
"k. c #FAC29D",
"l. c #F2C4A1",
"z. c #FBC8A1",
"x. c #FDD7AB",
"c. c #FFE0B1",
"v. c #8E93C3",
"b. c #8893C6",
"n. c #919DCB",
"m. c #9BA5D6",
"M. c #A1A8C6",
"N. c #ABAEC5",
"B. c #BAB3C8",
"V. c #A2ACD0",
"C. c #A5AFDA",
"Z. c #A5B1D4",
"A. c #AAB6D6",
"S. c #AEBBD9",
"D. c #A6AEE1",
"F. c #BCC3E2",
"G. c #D0C7CA",
"H. c #C8CEE5",
"J. c #CFD8EB",
"K. c #D6DDEC",
"L. c #DEE2EC",
"P. c #D9E0F6",
"I. c #E8EAF7",
"U. c #E8EFFD",
"Y. c #F0F4FE",
"T. c #F7F9FE",
"R. c white",
/* pixels */
"                                                                                                                                ",
"                                                                                                                                ",
"                                                                                                                                ",
"                                                                                                                                ",
"                                                                                                                                ",
"                                                                                                                                ",
"                                                                                                                                ",
"                                                                                                                                ",
"                                                                                                                                ",
"                                                                                                                                ",
"                                                          Q @.#.#.#.| <                                                         ",
"                                                      ; @.#.#.#.#.#.#.| -                                                       ",
"                                                      @.#.#.#.#.#.@.....[ ~ -                                                   ",
"                                                    Q #.#.#.#.#.} @...#.~ #.#.-                                                 ",
"                                                    @.#.#.#.#.#.Q | #.#...#.#.|                                                 ",
"                                                    #.#.#.#.#.} | ~ #.#.] #.#...                                                ",
"                                                  < #.#.#.#.#.w ..w #.@.Q #.#. .                                                ",
"                                                  , ..#.#.#.[ * { r  .{ # @...^                                                 ",
"                                                  , { ....Q * * , | { r D r ^ =                                                 ",
"                                                  , { { ^ z P + ^ , 2 @ S V                                                     ",
"                                                  r { { , J 0.C { { X o . t                                                     ",
"                                                  { { { ~ i e.j.r { p >.f.a.b                                                   ",
"                                                  { { { ~ 5 U p., { H g.h.c.6.                                                  ",
"                                                , { { { e e O f 7 { H c.c.j.u                                                   ",
"                                                , { { { e > 3 G M , N d.6.0                                                     ",
"                                                ^ { { ~ e % o.o.) G n 8                                                         ",
"                                                { { { ~ : +.3.2.F.) R 8.X.O.                                                    ",
"                                              < { { { W O x.c.c.$.F.-.Z V.R.T.!                                                 ",
"                                              , { ~ { e O c.c.c.8.A.U.Y.Y.H.K.:.                                                ",
"                                              , { r q e O c.c.c.7.N.R.R.R.R.I.n.                                                ",
"                                              , { # * e O c.c.c.5.L.R.R.R.R.T._                                                 ",
"                                              & =     $ O c.c.c.P P.R.R.R.R.T.+.                                                ",
"                                                          z.c.c.z.( P.R.R.T.J.n.                                                ",
"                                                          L c.c.c.m M.Y.m.D.S.`                                                 ",
"                                                        u A c.c.c.w.1.Y.C.b.&./                                                 ",
"                                                        <.,.q.c.c.c.j B.Z.*./                                                   ",
"                                                      v.Y.R.G.q.c.z.y.%.' o.                                                    ",
"                                                      ;.-.=.=.K 4.c.z.k.7.B                                                     ",
"                                                      c.c.c.c.c.P c.c.l.c.c.g                                                   ",
"                                                      z.c.c.c.c.c.P 7.u.k.s.c                                                   ",
"                                                      L c.c.c.c.c.x.F F b 9.x                                                   ",
"                                                      l c.c.c.c.c.r.A A E A                                                     ",
"                                                        x.c.c.c.c.v t.t.t.t.                                                    ",
"                                                        r.c.c.c.x.A t.t.t.t.                                                    ",
"                                                        P c.c.c.r.I t.t.t.Y                                                     ",
"                                                      u i.c.c.x.s 9.t.t.t.c                                                     ",
"                                                      t.t.j.x.T 4 A t.t.t.c                                                     ",
"                                                    h t.t.t.t.a   d t.t.t.c                                                     ",
"                                                    A t.t.t.a     1 t.t.t.c                                                     ",
"                                                4 A 9.t.t.a       4 Y t.t.A 4                                                   ",
"                                                6 t.t.t.a           c t.t.9.9                                                   ",
"                                                k t.t.a             a A 9.t.c                                                   ",
"                                                y c a                   1 1 4                                                   ",
"                                                                                                                                ",
"                                                                                                                                ",
"                                                                                                                                ",
"                                                                                                                                ",
"                                                                                                                                ",
"                                                                                                                                ",
"                                                                                                                                ",
"                                                                                                                                ",
"                                                                                                                                ",
"                                                                                                                                ",
"                                                                                                                                "
};
