/* XPM */
static char *out[] = {
/* columns rows colors chars-per-pixel */
"64 64 204 2 ",
"   c #1A1313",
".  c #36211F",
"X  c #3D2D2E",
"o  c #302034",
"O  c #3B293B",
"+  c #2F2C47",
"@  c #342C49",
"#  c #32344A",
"$  c #37394D",
"%  c #3B3F4C",
"&  c #2F3157",
"*  c #333456",
"=  c #373A53",
"-  c #3A3E54",
";  c #32345A",
":  c #3A3D59",
">  c #343763",
",  c #353963",
"<  c #3A3C65",
"1  c #393B6A",
"2  c #373E71",
"3  c #393F72",
"4  c #47364B",
"5  c #493A4A",
"6  c #563B4D",
"7  c #4B3D53",
"8  c #543E55",
"9  c #693B47",
"0  c #403E64",
"q  c #3E434E",
"w  c #3E4253",
"e  c #3E435E",
"r  c #3E4464",
"t  c #3D426C",
"y  c #3B4175",
"u  c #3C447D",
"i  c #5B414E",
"p  c #434653",
"a  c #454B56",
"s  c #4D4854",
"d  c #42435E",
"f  c #49425D",
"g  c #464D59",
"h  c #494E5A",
"j  c #5D4553",
"k  c #554B55",
"l  c #564958",
"z  c #4C545F",
"x  c #664648",
"c  c #7A484D",
"v  c #644554",
"b  c #6A4D53",
"n  c #774D53",
"m  c #7C4E5D",
"M  c #675255",
"N  c #715256",
"B  c #7B5156",
"V  c #765858",
"C  c #444564",
"Z  c #494560",
"A  c #454967",
"S  c #4C4D62",
"D  c #42446A",
"F  c #464A69",
"G  c #494D6C",
"H  c #584463",
"J  c #4D5561",
"K  c #4D536B",
"L  c #505662",
"P  c #515964",
"I  c #51576B",
"U  c #555C69",
"Y  c #434977",
"T  c #42497C",
"R  c #4D5270",
"E  c #545675",
"W  c #714B63",
"Q  c #865759",
"!  c #8B5C5C",
"~  c #9D5A5A",
"^  c #99655D",
"/  c #A5695F",
"(  c #9B5C6A",
")  c #8B6961",
"_  c #996966",
"`  c #8D697F",
"'  c #967C77",
"]  c #A76665",
"[  c #B26F6D",
"{  c #B7776B",
"}  c #B16E73",
"|  c #C26B6D",
" . c #C37A6D",
".. c #A98676",
"X. c #B88979",
"o. c #BF917B",
"O. c #CC8574",
"+. c #C78A7A",
"@. c #D78A79",
"#. c #D78B7A",
"$. c #CA907F",
"%. c #D1977D",
"&. c #DB927D",
"*. c #E0977E",
"=. c #3E4781",
"-. c #444B86",
";. c #4F4F81",
":. c #444D8B",
">. c #505688",
",. c #474F92",
"<. c #465092",
"1. c #4A5395",
"2. c #4B559C",
"3. c #4C569D",
"4. c #5E6388",
"5. c #66668D",
"6. c #686C96",
"7. c #6B739B",
"8. c #75789B",
"9. c #4C57A1",
"0. c #4E59A4",
"q. c #4F5CA9",
"w. c #515BA7",
"e. c #525DAB",
"r. c #5763B5",
"t. c #5865B7",
"y. c #5966BB",
"u. c #5B68BF",
"i. c #737CAB",
"p. c #5D6AC3",
"a. c #5F6DC9",
"s. c #606ECA",
"d. c #6170CD",
"f. c #8A7795",
"g. c #A17A83",
"h. c #8A7EA3",
"j. c #7D86B3",
"k. c #9C8083",
"l. c #968297",
"z. c #B19286",
"x. c #AD9E91",
"c. c #B4A397",
"v. c #8683A4",
"b. c #958BA2",
"n. c #818AB6",
"m. c #8892BC",
"M. c #969BBB",
"N. c #A997A5",
"B. c #B5A9AB",
"V. c #ABA6B3",
"C. c #C79884",
"Z. c #DC9A84",
"A. c #E69883",
"S. c #E59A82",
"D. c #EB9B84",
"F. c #C8A68B",
"G. c #D8AB8E",
"H. c #CAA69C",
"J. c #D8AA91",
"K. c #CFB090",
"L. c #D3B191",
"P. c #DCB496",
"I. c #EDA187",
"U. c #EAA68B",
"Y. c #F3A287",
"T. c #F4A389",
"R. c #F4AC8E",
"E. c #ECAD92",
"W. c #E8BA98",
"Q. c #F5B896",
"!. c #C4A6B2",
"~. c #C7B2B9",
"^. c #DCC59E",
"/. c #EBC29C",
"(. c #EACEA6",
"). c #F3C7A0",
"_. c #F3CAA4",
"`. c #FACCA3",
"'. c #F4D3A8",
"]. c #FBD5A9",
"[. c #F4DCAE",
"{. c #FCDDAE",
"}. c #E6D4B0",
"|. c #FDDFB0",
" X c #F6E0B0",
".X c #FDE2B2",
"XX c #8993C5",
"oX c #9BA6D3",
"OX c #A6A8C3",
"+X c #A9AFD6",
"@X c #AAB4D7",
"#X c #C4BEC8",
"$X c #BBC3DC",
"%X c #BDC7E4",
"&X c #C3C5D5",
"*X c #C7CCE4",
"=X c #CDD2E7",
"-X c #D2D8E7",
";X c #D7DBF1",
":X c #DEE1EF",
">X c #E5EAF5",
",X c #F3F4FA",
"<X c #F7F9FC",
"1X c #FCFCFD",
/* pixels */
"J P z a J z U P z J z z U P z a P z J J L U L z z z J a z z z J J z P U J J P P z P z z z g z a z a g z J J J J z a z U P z z U ",
"J P z z z P J z J P z z P z z z z z z z z P z L L z z z z J z z z z h h P J J J P U P z z z z z z z z z J J z z z z a z z z g L ",
"z L J J z P z z z z z z g z z z g z J J z L g z z z z P z g g z a g g z L J J J z P P z z P z z P z z z J J z z z z z z z z z z ",
"z z J J z z J z z g z z g z z z g J J J z z g z z z z z S = - w = = g g J L J J z z z z z z z z J z z z z z z z z z z z z P z z ",
"J z J J J z z L P z z z z P z z z P J z z J J J J z g t <.e.t.t.t.t.0.y e g P P z z w z J J z J z z z a z z z z z U z z J P U z ",
"J z P P z p z L z z z z z z z P z J z J z z J z g q r w.p.d.d.d.s.s.s.u.0.e z z z J J J J J z z a z z J z z a z z z z z z J z P ",
"a z P P z z z J z z z g z z z z z g g J J J z $ * ; u q.t.u.s.s.s.s.s.s.d.0.e z J z z z J J z z z z z z z z z a z z z z z P U z ",
"z L L L L z z L P z z z z z z P z z z z z J w y 0.q.e.u.t.y.u.a.s.s.s.s.s.s.:.g z J J J z z z z J z z z z z z z z z z a z z P P ",
"J P J J P P z P P z P z z z z P J z J z J J < y.s.p.1.p.p.y.e.e.d.s.s.s.s.s.r.A z L L z J J J J P J z z h z P z z z P z z z z P ",
"J J z z z P z z z z P z z z z z z z J J J g 1.s.a.a.r.p.s.r.e.,.u.d.s.s.s.s.p.Y q z z z J J J z J J J J J z P P z z U U z z z z ",
"J P J z J z z P P P z z z h h P J J g a J # 0.d.s.a.e.p.s.e.w.,.e.d.s.s.s.s.d.-.q P J z z J J z P J z z z J z z z z z z z z z z ",
"z P P z J P z z z z z z z z z z z z z z J # 0.a.s.a.9.y.s.y.:.0.y d.s.s.s.s.d.2.g z z z J z J J J z z J J P P z z z z U P z z z ",
"P P z z h P z z z z P z z z z z P J J J z = 1.t.s.u.3 9.a.e.3 2.< t.s.s.s.s.a.q.w g J J z z g J z J J z h J z z z h z P z z P P ",
"J z z z h z h z z P P P P z z P J P J J z a -.e.p.1.@ ,.e.0.:.,.; :.t.s.s.a.p.9.: g J J z z g z z J J z h z J J z h z z z P z z ",
"J J J P z z g z z z z U z z z P J P J J z z : :.3.E ) ;.2.0.:.3 ; > 1 3.y.y.q.3.: g J z z z z z J z z z z P P z z z z z P z z z ",
"J P P z z z z z z h z z P P z z z J P J z z g # # X.%.x 4 ; 1 -.+ V Q H 9.0.0.3.: g z z g g z z P J J z z U z z z z z z P P z z ",
"P J P P J J J z z z z P z P P z P P P z z P J z 5 / .   X ; w.1.j Z.W.N u 0.0.3.e w J J z z J J J J J z h z z P P z P z z P z q ",
"J z J J P J a z z z z J J z z z P J J z z q z a Q x X M i , w.1.' Q.Q.b y q.0.9.u z J P P J J z J J z z z z P J J z J z z z z J ",
"J z z z P z h z z z J z z z z P P z z J z h a Q &./.N.XXz.< e.Y P.E.+.j =.e.0.0.=.q z J J J J J J z z z z J P z J J z h z z z P ",
"J z z J J z J J z z z z J J z z z z P z z z h / ).{.~.!.P.D e.0 z.U.V t 1.q.0.0.=.z J z z J J z z z J z z z z z z P z h z z z z ",
"z h J P J J J J z z q z P J z z z z J z z z z M C.].].].P.0 9.W Q 9 @ t =.0.0.9.e.r r J J J J J z z J P z J z J J z J z z z z q ",
"J z z J J J P J z z P z z z z z a z z z z z P h N +.W.{.P.1 =.9 | 9 * u u 9.0.q.e.r q z J J P z a z z z z U P P P J U J z z J J ",
"J J J z J J J z z z h z z z z z z z z z P z z z a x ] C.{ 8 m ( ( Q O ; u 1.0.0.e.u q J P P J z z z J z z J J J z J P J J z z J ",
"J J J J J z z z z z h z z z z P z P z h z z z z S S l 8 Q [ } h.i.n.5.D u =.q.0.q.=.w J P J J z z J J z z J z z z z P J J J z J ",
"J J P J J J z z z z z z h z z J z P z h z z J P 4.v.8...C.} h.$XV.V.XX6.> :.9.0.9.1.q J J J z z z J J z J P w z z J P z J P z J ",
"J z J P z z h z z z J J h z z z z z z z J J K M.-X>XOXg.C.N.@Xb.(.|.}.z.@ T 9.0.q.3.t e z J J J J z z J J P z z J z J z z z z z ",
"J a z z J z J J J z J z z J J J P J J J J J 7.=X=X*X%X@XOX$XXXc.|.|..XL.o 2 1.2.3.q.u q z J P J J J J z J J J z z J P P z J z q ",
"J z z J P J J J J J P J z J J J z z z P U I j.$X=X,X<X<X<X>Xb.P.|.|..XL.o 3 ,.,.1.q.u q P J J z P z z J P J z z J P J q z J J J ",
"z J J J P J P J z J J z z z J J J J z J J P j.=X,X1X1X1X1X>Xb.J..X|..XK.o 3 > 3 =.q.u q P J J z J z z J J J P P z J z J z z z J ",
"J P J J P J P J z h z z J J z J z h z z z L 6.=X1X1X1X1X1X1XB.J..X|..XK.o 3 & & r q.u q J J J J J J z z z J P J z J z P z J J J ",
"z J J J J P J J z z z z J J J J z a h P z P 6.;X1X1X1X1X1X<X~.J..X{..XK.o ; - - q y r q z J z z J J h w J J J z J J J z J J P J ",
"J z z J P J P P J P z z J z J P J J P P z U j.=X,X1X1X1X1X;Xl.G..X|.|.F.O p z L z q q h z J J J J z J P z P J z z J J J z J z J ",
"J z J P J J z z z z z z z z h P J J J J J G j.%X%X;X;X,X>Xm._ _.|.|.|.X.p U J z z z z z z z z z J z z z J J a h z z J z z z z J ",
"J z J J z z P J P z P z P z z P J J J J J J 4.+XoX+XoX>X-X5.C.{.{..X`.B k z z z z a z z z P z a z P P z z J z z z z z P P J z J ",
"J z h h z z J z z z z P z z z z J z h S J J >.m.n.XX+X>X&Xg.W..X{..XG.^ N z z z z h z J z P z z z P z z J J z z J z J P P J z J ",
"J z h h z P z z z z z z z z z P J J h h J J G 4.i.XX*X*Xf.#..X|.|.[.' H.X.k z L z z z z z z z z J z z z J J J J J z J z z z z J ",
"J z P P z z P h h z z h z z P U J J J J P z J J ;.XXi.j.X.Q..X|.[.c.#X:X&X8.I J z a z z J P z J P P z z z z J z z P z z z z z z ",
"J z z J z P z z z z z z z z z z J J z J z z J P S f.` [ I.Q.`.[...k.&X&X$XoX4.J z z z z z J J J z z J P z J J J z z a z z z J J ",
"J J J z z P z z z z z z z z h z J J g g z z z J V o.E.).`.].'.o.z.c.c.x.c.V.E L P z z z z J z J J z J J z J J z z z z z z P P z ",
"J J J z z z P P z P z z z z z z J J z z z z z i C. X.X_.'.|.F.z. X X.X.X.X[.V h J z P J z z z z P z z z z J z J P z z P z J J z ",
"J z z z h J J J P z z z z P z z J P J J z z z j Z.`.).E.).+.X.(..X.X.X.X{.].B z z z P z z J z P J z z z z z J J z z P P z z P z ",
"z J z z a J z J z z z P z z P z z J J J z z J b @.T.O.@.U.o. X|..X.X.X{.{.P.N z z z z z z z z z J z z z a z z J P z z z z P P J ",
"q J J z z J z J z z P z z P U P J z J J z z P M ~ { ~ ~ | { {..X.X{..X{.{...k J P J z z P z z z z z z J z z z J P z z z z z J U ",
"J J J J J J J J P z U z z z z P J z J J z z L p Q O.*.O.#.{ W. X{..X|.|.'.) z P P J P J h z z J z P J z z J z z z z z P z z z P ",
"J z J J z z J z z z z P g z z z z z z z z z g p ^ I.Y.Y.Y.{ $..X.X{.|.|.^.M h J J z J z z z z J z J z z z z z h z J J J z J P z ",
"J J J J z z z z z h z z g z z z z z P P L P a % ^ Y.Y.Y.Y.&.X.[.|.|..X XK.i a z z J P z z z z J z J J J J J J z z J J z z P P J ",
"z z J z z a z z h a z z z z z z a z P P z P z p ! I.Y.Y.Y.I.] /..X|.{.[...s a h J J P J J z z z z J J z J P J J z z J z z z z z ",
"J J z z z z J z z g z P z P U z z z z z z z z k x #.T.Y.Y.U.{ Z.{.{.{.{.X.k a h J P J J P P z z a z J z z J z z J P z J z z z a ",
"P z z a z P J z z z z J z J P J J J J J J J J J 4 O.T.T.T.Y.] Q W.|..X].U.^ l z J J J J J J z z z z P P z z J P z z J P z z z z ",
"J z z z z P P z z z P P J J J z z J J z J J J J 5 O.T.T.Y.D.Q 8  .`.].Q.Y.Y.n S J J J P J z J P z z z J z P z z z z J z P P z z ",
"J P z z z z P z z J J P J J z J J J J J J K K F 5 O.T.T.T.@.v C B U.R.T.Y.T.] S J J J J J z z P z z z z z P z z z z J z J P z J ",
"z P J z z z z J J J J z J J J z h J J I R G C F 4 O.T.T.T.[ d G C ! S.T.T.T. .7 G K J J z z z z z P J z z z z P J J P z z z z J ",
"z J J J P J z P P z z J J J J z a J R G G A F F 4 O.T.T.T.^ 7 D F Z ! S.T.T.A.Q C F G K z g a z J P P z J z P P z J P J z z z J ",
"J J J J J z z z h a z J J J J J I I G F F F F A 9 &.T.T.*.m D G F F C Q D.T.D.&._ f G G G z a z J J z z P J P P z z z J z P P J ",
"P J z J z a z z z z J P J J P J I Y F F F G A 7 ] D.T.T.@.6 A A C F F Z Q A.T.T.O.l F G R S z z z z J P z z J z z J P J z J J J ",
"J J J z z z z z J z J P J P P z G F F F F F A j Z.D.D.&.{ 7 A A C F F F C ! A.T.A.n C F G J z z z z z z z P z P J J P J z z z J ",
"z z P J P z z P P J P z J P J z S r F F F F F s ! ! Q v p F A F F F A F G d ! &.*.c g F F J z g z z J J z J J J P J z J J z z J ",
"z z P P z q z P J J J z z z z z K t A F F F F F C 7 Z F F F F F F F F F G F Z 6 i p Z F G J z g z J J J z P J J J z z P J z z J ",
"P J P z z z P P z J P J J z z q J G F F F F F F F F F G F G G F F A F F F F C A G G K J R J J z J z J J z J z P P z J J J J z J ",
"z P P P P P z z z J P P z z z z J R G F F F F F F F F F F F A F A F F A C F F F r G t u E P J z z z z z z z a z J J J J J J J P ",
"J J J P z h z z P z P z z z P J J J R G G F F F F F G F F F A A A F F F C F F F J r U R P z z P J z J z J z z z J J J P J J P P ",
"J z J J z z z z z z z z P P z P z z J K K F F F F F F F F F F F F F F F F F F F r P U J z z z P J J z z J P z z J J J J J P J J ",
"z z P P z J z z z z z P P P z z J z P P J K F G F F F F F F F A F F F F F G F F P J z z z z z z P J z J P P J J J P J z P P J J ",
"J z P P z J J P P z z P J J P P U J J J z a P K J K K G A F K K A K K G S K g z J J z z z z h J z J J z J J J J P P J J J J U U "
};
