/* XPM */
static char *out[] = {
/* columns rows colors chars-per-pixel */
"64 64 210 2 ",
"   c #3A1F1F",
".  c #37201E",
"X  c #3D221D",
"o  c #261526",
"O  c #291424",
"+  c #2D1A27",
"@  c #261629",
"#  c #281729",
"$  c #26192B",
"%  c #2A1C2D",
"&  c #361F29",
"*  c #2D1E30",
"=  c #3C2323",
"-  c #392726",
";  c #34242E",
":  c #39262D",
">  c #3D2B2D",
",  c #3E312E",
"<  c #2E2131",
"1  c #342532",
"2  c #3B2734",
"3  c #362A34",
"4  c #3A2D34",
"5  c #332B38",
"6  c #3E3234",
"7  c #3C3339",
"8  c #421F1D",
"9  c #44221C",
"0  c #43291C",
"q  c #5A2F18",
"w  c #5D321F",
"e  c #612E14",
"r  c #6B3B1D",
"t  c #723A1D",
"y  c #7F3919",
"u  c #7D3B1C",
"i  c #411E2B",
"p  c #422522",
"a  c #412A23",
"s  c #4D2C25",
"d  c #4D232A",
"f  c #422D2C",
"g  c #4C2C29",
"h  c #532B24",
"j  c #5A2C25",
"k  c #53262B",
"l  c #58262B",
"z  c #532C2A",
"x  c #5D2B2D",
"c  c #493326",
"v  c #45312C",
"b  c #4C332D",
"n  c #4D3C2E",
"m  c #5B3124",
"M  c #53332A",
"N  c #50362B",
"B  c #5B352C",
"V  c #5E392B",
"C  c #412E34",
"Z  c #4C2D31",
"A  c #412E38",
"S  c #5E2D31",
"D  c #433434",
"F  c #4A3334",
"G  c #453833",
"H  c #4B3B33",
"J  c #44343A",
"K  c #4C3539",
"L  c #533430",
"P  c #51363B",
"I  c #543A3A",
"U  c #5A3B3F",
"Y  c #612D27",
"T  c #612D2D",
"R  c #653924",
"E  c #6D3A24",
"W  c #63332D",
"Q  c #6B352C",
"!  c #653A2B",
"~  c #6C3A2D",
"^  c #713D24",
"/  c #7B3C25",
"(  c #71362B",
")  c #733B2C",
"_  c #7C3D2B",
"`  c #602D30",
"'  c #643330",
"]  c #6A3531",
"[  c #673C32",
"{  c #6C3931",
"}  c #723B32",
"|  c #783F31",
" . c #7E401D",
".. c #57403C",
"X. c #69442B",
"o. c #774527",
"O. c #72432C",
"+. c #7C422B",
"@. c #7D492B",
"#. c #764233",
"$. c #7C4433",
"%. c #7E4A34",
"&. c #7B4339",
"*. c #4F3F4A",
"=. c #553942",
"-. c #5D3D43",
";. c #5A3B46",
":. c #533E48",
">. c #603E45",
",. c #4E454D",
"<. c #5E4246",
"1. c #53464E",
"2. c #5B464D",
"3. c #5B484E",
"4. c #4C4550",
"5. c #454B57",
"6. c #464B57",
"7. c #4C4C55",
"8. c #4B4F59",
"9. c #534650",
"0. c #5C4651",
"q. c #564D55",
"w. c #5B4B53",
"e. c #504F58",
"r. c #5E4E58",
"t. c #4C545F",
"y. c #575057",
"u. c #585057",
"i. c #53525C",
"p. c #5C545A",
"a. c #634446",
"s. c #694847",
"d. c #63464B",
"f. c #68474A",
"g. c #64494C",
"h. c #6A4A4B",
"j. c #724E4C",
"k. c #6E514F",
"l. c #74524E",
"z. c #7A554C",
"x. c #7D594E",
"c. c #644D54",
"v. c #6C4E51",
"b. c #655057",
"n. c #6D5456",
"m. c #63545A",
"M. c #6B5458",
"N. c #63585C",
"B. c #725654",
"V. c #765654",
"C. c #775853",
"Z. c #7C5B51",
"A. c #4E5561",
"S. c #525762",
"D. c #515964",
"F. c #565E69",
"G. c #6B5C61",
"H. c #823B1B",
"J. c #823D26",
"K. c #833E28",
"L. c #88451D",
"P. c #8B4A1D",
"I. c #95451D",
"U. c #95481F",
"Y. c #9B4B1E",
"T. c #9E501D",
"R. c #A04E1F",
"E. c #B25E1E",
"W. c #854326",
"Q. c #8A4424",
"!. c #854B22",
"~. c #8B4B23",
"^. c #84442B",
"/. c #8B462A",
"(. c #86492D",
"). c #8C4C2D",
"_. c #954621",
"`. c #954A23",
"'. c #994C24",
"]. c #924E2C",
"[. c #994F2B",
"{. c #8E512D",
"}. c #9D5327",
"|. c #95522D",
" X c #9B542C",
".X c #9E592D",
"XX c #834633",
"oX c #884730",
"OX c #854A33",
"+X c #8B4C32",
"@X c #914E32",
"#X c #8E5134",
"$X c #925231",
"%X c #995430",
"&X c #A45725",
"*X c #A95424",
"=X c #A65926",
"-X c #AC5C25",
";X c #A1562A",
":X c #A4592A",
">X c #AC5C29",
",X c #B25E23",
"<X c #B15E29",
"1X c #AE6026",
"2X c #AF6129",
"3X c #B56124",
"4X c #B96226",
"5X c #B26029",
"6X c #815C4E",
"7X c #815C51",
/* pixels */
"A.D.t.4.1.<.2.3.g.b.n.v.2.c.d.d.3.2.d.d.d.3.d.d.d.d.d.d.d.v.n.v.c.d.d.f.d.d.d.d.d.d.g.s.g.h.k.k.k.l.V.l.s.f.f.h.s.f.f.>.r.A.A.F.",
"A.D.A.4.3.g.<.g.g.d.3.g.g.<.<.g.g.g.d.g.g.d.g.g.g.g.g.s.h.d.d.h.s.f.g.h.h.v.h.h.h.g.h.h.h.h.h.h.h.h.h.h.j.s.h.h.s.h.s.h.r.8.8.A.",
"t.A.A.7.<.3.d.3.3.g.3.g.g.d.<.3.g.g.g.d.g.g.g.g.g.g.g.s.g.h.g.h.g.h.g.g.g.h.h.h.h.h.h.h.h.h.d.-.>.[ f.h.h.h.j.h.h.s.h.f.e.8.A.A.",
"t.A.A.4.3.3.3.d.g.g.g.3.d.d.2.g.3.g.g.c.g.g.g.g.s.g.h.g.g.h.g.g.h.g.h.h.h.v.g.h.h.h.h.s.g.U P >.f.h.h.h.s.j.h.h.j.h.j.s.q.A.A.A.",
"A.t.t.7.2.3.d.d.0.d.0.d.d.3.d.g.d.c.d.g.g.d.d.d.g.h.d.h.d.h.d.f.g.h.d.h.g.c.f.h.h.h.h.g.>.d.h.s.h.h.s.j.s.j.j.h.h.h.h.f.q.D.D.A.",
"A.A.D.i.<.d.3.d.g.d.d.d.d.g.g.g.d.d.d.g.g.c.d.d.h.g.f.>.a.c.f.f.f.f.h.f.h.h.f.h.h.s.g.h.h.h.h.h.h.h.h.h.h.h.h.h.j.h.h.d.q.A.A.D.",
"5.t.A.D.1.=.:.=.:.=.=.=.=.=.=.*.=.=.=.=.=.=.=.=.:.=.=.P =.=.=.=.=.=.=.=.=.=.;.=.=.=.U =.;.;.=.=.;.=.U =.U U [ ;.>.[ -.<.S.D.D.A.",
"t.A.D.D.q.,.,.1.0.0.=.* o o o o o @ @ o o o O # o o o o o o o o O @ @ O O @ o o o o o o o O # # # O O O & =.;.;.d.v.v.d.8.A.A.D.",
"t.D.D.8.7.,.9.1.0.2.0.1 # * $ $ % $ $ $ $ $ $ $ $ # $ # $ $ # % * $ $ $ $ $ $ $ $ $ $ $ $ $ $ $ $ $ * % : d.g.g.f.h.h.h.q.A.A.A.",
"t.t.t.8.,.1.1.1.3.1.w.2 # * $ $ $ $ $ $ $ $ $ $ $ $ $ # $ $ $ % * @ $ $ $ # $ $ $ # $ $ # $ $ $ $ $ * $ 4 3.g.g.g.f.h.h.u.A.A.A.",
"t.D.t.8.,.1.1.3.w.2.3.2 # $ @ o O O O # O # # O o o O O o O o O O O o o O O O O O O O O O O O O O @ $ $ 4 d.3.h.h.v.f.f.q.t.A.A.",
"t.F.D.t.,.,.,.q.1.3.3.2 @ $ # & d d k k k d k d d d k k l i k k d l l i k k k i d d k k k d d d i @ # # 2 3.g.h.d.h.h.h.y.t.t.A.",
"D.t.t.8.,.9.9.1.3.2.0.2 $ $ @ i x x x S S S x x x S S S x l S x ` S x x S S x x x S S S S S x x i # % # 2 d.g.g.g.h.h.h.q.A.A.D.",
"D.t.D.8.,.4.9.3.3.0.0.2 $ $ # d W x ` T T T T T T T T ` T T x T ` ` T T T T T x x ` T T S S x T d O % $ 2 d.g.g.g.h.s.h.u.A.A.D.",
"t.A.D.8.4.1.1.1.w.0.0.2 $ $ # d T T l z k k k k l k k k l k k k l k k k k k l k z k l k l l x T d # % % 2 d.g.g.h.h.h.h.q.A.A.A.",
"A.D.D.8.4.9.9.9.w.3.9.2 $ * # d W x l W T T ' ' ' T ' ' W T T T ` ' ' ' ' ' ' ` ' ' ' T ` l x T d $ * $ 3 3.g.h.g.h.h.d.y.A.A.t.",
"D.A.D.S.q.,.,...:.:.=.& % * # k ' W x Q ' ' ] { Q Q ] Q ] ' Q Q W { ] ] ] ] ] Q Q { ' Q ] j ` ] k % * * & ;.-.a.-.a.>.d.e.S.8.5.",
"A.t.A.S.p.g.n.n.M.v.g.2 % * % z ] ] T ( ~ Q ~ } } { { } ' x { { } { W ' } } } Q } } ~ Q } T W ] d + % < : d.h.h.j.V.j.h.S.S.t.t.",
"A.t.t.i.m.M.M.n.B.B.V.A < < % x { { T | } ( ) } j j j j z p z x j z f g z x k j ( | ( } | Q ' L > 4 ; 1 J C.x.x.Z.z.6Xz.u.A.A.A.",
"A.t.t.8.m.M.M.n.B.V.V.J 1 5 ; B #.| ( OXOX^.XX#.h s h s F D g h h s F f s s s q } oX$.XXXX( } L 6 6 1 1 G C.C.Z.Z.l.6XZ.p.t.t.8.",
"A.5.S.i.n.m.n.n.M.B.B.K 1 5 ; W $.$.} +X+X^.OX$.m m p 0 f > p p p a J f X p m m #.+X(.+X+X) | L D 6 1 3 K C.C.Z.Z.z.x.x.m.A.t.5.",
"A.A.A.e.m.n.n.n.B.B.B.=.1 4 ; B %.&._ +X#X).OXX.c b > > D D 4 f > > D 6 , D F b ~ +X+X#X+X) | S J 6 1 3 F C.C.x.Z.7Xx.Z.m.A.t.A.",
"A.A.A.e.m.n.n.n.n.B.B.K 1 3 ; W &.XX) +X@X).OXL v D 6 D D D D D D D G F v D n b V +X+X{.+X) &.z 1 4 1 5 K C.C.Z.Z.7Xz.x.p.A.t.A.",
"A.A.A.e.m.n.n.n.B.B.B.K 5 3 1 W &.XX_ @X$X{.{.$.w m X X - >   & . . D -   X j m O.@X].$X)./ &.Z 5 4 < 4 J C.Z.Z.Z.7X6XC.m.A.t.A.",
"A.A.D.i.b.n.n.n.B.B.B.=.1 3 1 ' %.XX_ @X$X{.|.~.r E 9 X f v = X X X G f X 9 E t (.].|.|.`.) %.M : 1 1 3 K Z.C.C.z.Z.7XZ.m.A.A.A.",
"A.8.S.S.b.n.n.n.B.B.B.J 3 4 1 Q $.XX_  X|.|.].).^ E 9 8 a , = X X X J > X 9 r r (.|.|.|.]./ OX%.B 1 3 3 K C.C.l.Z.7X7XZ.m.A.t.A.",
"t.5.8.A.r.0.0.c.c.g.d.: 7 7 ; ~ XXXXK.%X.X%X|.+XE r 9 X > , . X X X v > 9 9 R ^ OX X X|.|./ XX+X] ; J 4 > a.s.v.j.j.j.k.S.A.8.5.",
"A.t.t.t.,.1.9.w.c.c.;.: 1 4 1 ~ OX$.K.%X}. X|.R b b 6 f D G G v D D G G J D n b ! |..X X XW.XXOX{ : 4 3 : U <.<.d.k.j.a.7.t.A.A.",
"t.S.A.6.1.1.1.2.2.2.0.A 1 4 1 ~ OX^.K..X}.;X|.X.M M 0 0 v 4 X , a - v f 0 a M M ~ |..X.X XW.OX+X{ : 4 5 A d.g.g.g.h.h.h.q.A.A.A.",
"A.S.A.7.,.1.9.2.3.1.2.A 4 5 ; ~ OX^.K.;X;X;X&X]. .L.e q M f q e e q b c e e  .L.`.&X;X;X XQ.OX+XQ 1 4 4 A d.g.g.g.h.h.h.q.A.A.A.",
"t.A.A.6.4.9.9.9.w.2.2.A 3 4 1 ~ +XoXJ.:X:X;X:X|.L.P.P.P.X.b @.P.P.~.n V ~.!.L. .[.&X;X=X:XQ.OX).Q 1 4 3 J 3.g.g.g.h.h.h.q.A.D.A.",
"A.t.A.6.4.4.9.9.3.2.3.7 3 4 : ~ +XoXW.:X:X:X=X}.u H.t y V g t u t u N M u u y  .[.=X=X=X:XQ.OX).Q 1 4 4 A g.g.g.g.h.s.n.r.A.A.A.",
"A.t.A.7.4.,.9.9.0.2.0.A 1 4 : ~ +X^.W.>X:X=X>X;X}.'.`.I.^.@.O.g s ^ @.!.`.[.'.'.:X>X-X>X>XW.+X).Q : 4 4 A c.d.h.h.g.h.h.u.t.t.t.",
"A.A.A.6.4.1.9.9.1.2.3.A 4 7 : ) $X).Q.-X>X>X>X>X>X-X:X-X>X.Xh 7 7 Z ;X-X:X>X>X:X>X>X*X>X>XQ.+X).~ 1 4 4 A d.d.d.g.h.h.g.y.t.t.t.",
"A.t.8.5.4.9.9.9.3.3.3.A 4 7 1 ) $XOXQ.-X-X-X,X>X>X-X-X>X,X#X> 1 1 : ].=X=X,X>X-X-X>X-X-X5X~.+X).( : 7 4 D d.g.g.h.g.h.s.u.A.t.D.",
"A.t.8.5.,.9.9.2.w.2.0.4 3 7 2 ) |.).Q.2X-X-X1X-X5X-X-X>X5XO.N c b M #.-X-X,X5X-X-X,X-X-X5X_.).@X~ 1 6 4 A d.g.c.g.h.h.h.y.t.t.t.",
"A.t.D.D.9.,.*.:.:.:.=.: 4 4 : ^ $X).Q.,X,X,X3X,X,X-X-X5X2XO.#X'.~.|.X.-X-X,X3X,X,X,X,X,X<X`.@X].) : 4 7 : P -.;.-.a.<.<.i.t.t.D.",
"t.t.A.i.r.w.c.c.c.v.n.f 4 6 : O.$X).I.<X-X5X5X5X5X,X,X3X5X!.%..X.X@.@.1X-X,X5X5X-X5X,X,X5X_.@X%X^ 4 D 4 f f.l.C.C.C.x.C.i.t.t.t.",
"A.A.A.7.c.n.n.B.B.V.V.P 4 6 > O.%X].Q.5X1X3X3X3X3XE.3X3X3X;XE b L R ;X3XE.3X3X3X,X3X3X,X5X'.].@X+.: D 4 K V.C.Z.Z.7XZ.Z.p.D.D.t.",
"A.A.A.7.c.n.n.n.n.k.B.K 4 D 2 ^ |.+XQ.'.`.'.'.'.`.'.U.'.'.`.Q.Y m Q.`.`._.'.'.'._.`.'._.'.Q.@X XO.> 6 4 K V.C.Z.Z.Z.6X6Xp.t.t.D.",
"A.t.t.7.c.M.M.n.B.n.k.K 4 6 : ~ %.#.! R W ! ! R ~ / J.K.K.J.J./ _ K.J.J.J.J.K.K.K.J.K.K.J.J.`.|.+.> 6 7 H C.Z.Z.x.7X6XZ.N.t.D.t.",
"t.A.A.7.b.M.n.n.B.n.n.F 6 6 > V v 6 D v F F F F c %. X X X|. X]. X%X|.|.|. X X%X%X|.|.%X%X$X@X X_ > 6 6 K C.C.Z.Z.7X6X7XN.t.F.A.",
"5.A.A.7.b.M.M.B.B.C.C.K 6 6 > ) @._ Q Q ( Q Q Q ( / (.^.^.^.W.^.^.^.W.W.^.^.^.^.^.^.^.W.W./.|.].) > G 6 K C.C.x.Z.7X6XZ.N.t.t.F.",
"t.t.t.7.b.M.n.n.n.C.B.K 4 D > +..X[./ ^./.oXOXoXOXoX^.^.OXoX^.oXoX^.^.oXoXXX^.^.^.XXoX^.oXK.%X X/ > 6 D K C.C.Z.Z.7X6X7XN.t.t.t.",
"A.8.A.e.b.M.M.n.n.C.B.K C J f +.%X]./ OX).#X{.$X).$X+X+X@X$X+X{.+X).+X$X|.).).).$X@X).).$X^.%X X+.> D 7 P C.C.Z.Z.7X6X7Xm.t.D.t.",
"A.A.A.7.c.M.M.B.n.C.B.K , D > +.;X XJ.|.|.|.$X].].|.|.|.$X|.].|.|.~.|.|.$X|.].].%X|.|.).$X/. X.X+.> J D K C.C.Z.Z.7X6XZ.N.t.D.A.",
"A.A.A.7.c.M.M.n.B.B.V.K D D > _ ;X X^.|.|.|.|.|.].|.|.%X X%X|.|.|.].|.%X|.|.|.].%X X%X|. XQ. X;X^.f D D H C.Z.Z.Z.7X6XZ.N.t.t.t.",
"A.A.A.7.b.M.M.B.n.C.B.K 6 D C +.;X[.W..X'. X X|.|. X X%X.X X|. X X X}..X.X X.X X X%X X|..X/. X.X+.4 D D F C.C.Z.Z.7X6Xx.m.t.t.6.",
"D.A.5.4.b.M.n.n.B.B.C.P D G 4 +.:X XQ.;X X;X}.}..X}..X}.;X:X X X}.}.;X;X;X X;X X;X;X;X X;XQ. X@.V v 6 D F h.Z.Z.Z.7X6X7XN.t.t.t.",
"A.A.t.6.b.M.n.n.n.B.B.K 6 G f +.:X'.Q.:X;X:X;X;X:X;X:X;X:X;X.X&X.X:X:X:X:X&X;X;X:X:X:X}.;X`.%XR J J 6 D K h.C.Z.Z.7X6XZ.N.D.t.t.",
"A.D.A.7.b.n.M.n.B.B.B.P D G f +.:X[.`.:X=X=X=X=X>X&X:X&X-X:X&X&X=X:X:X:X=X:X:X:X>X:X:X&X:X'..XV D D 6 D F l.Z.C.Z.7X7XZ.N.D.t.A.",
"A.D.S.7.c.M.n.B.B.B.B.=.D G > W.;X&XQ.>X>X=X=X>X>X&X>X>X>X>X:X&X-X&X>X>X>X*X>X-X>X>X>X>X>X`..XV 6 7 v D G B.Z.Z.Z.7X6X7Xm.t.t.A.",
"t.A.A.7.b.M.n.n.n.B.B.I D G , +.:X}.`.>X-X-X-X,X>X-X-X-X<X>X-X-X1X-X-X1X,X-X>X-X>X2X>X-X-X'.;X! 4 7 , D P C.Z.Z.Z.Z.6X7XN.t.A.A.",
"A.A.S.e.b.M.M.n.B.B.B.P v G v W.>X}.I.5X-X,X-X,X5X-X,X-X5X5X-X-X-X-X,X<X-X-X,X-X5X5X5X,X5X'.;XV 2 4 6 D P C.C.Z.Z.7X6XZ.m.A.F.t.",
"D.A.t.7.b.M.M.n.n.C.C.H D G v W.:X&XI.5X,X,XE.,X5X,X,X,X3X3X,XE.,X,X-X,X,X,X,X3X5X3X3X,X,XY.:XB 1 1 > G I C.C.x.7X7X6XZ.N.A.t.t.",
"A.A.A.7.b.M.M.B.n.B.l.P G G v W.>X&XY.3X,X3XE.3X3XE.3X,X4X3X3X-X,X3X,X,X,X3X,X3X3X4X3X,X3XR.:X).m : D G I x.C.x.Z.Z.6Xx.N.t.t.A.",
"A.t.D.e.b.B.h.n.n.C.C.I G G v !.1X&XY.3XE.E.3X3X4XE.3X3X4X4X,XE.,X4XE.E.4X4XE.4X4X4X4XE.4XT.-X>X).v H G I C.Z.Z.6X7X7Xx.N.t.t.t.",
"A.A.D.e.b.G.3.b.n.C.B.I J H v ^.1X*XY.3XE.4X,X4X4XE.4X,X4X,X,XE.3X4X4X4X4X4XE.4X4X4X4XE.4XR.>X<X~.g H H ..C.C.x.Z.Z.7X6XN.t.t.t.",
"D.A.A.e.b.M.n.n.B.B.B.H G H v W.5X&XU.1XE.,X,X4X3XE.E.E.4X4XE.-XE.4X3X4X3X4XE.,X,X4X,XE.4XY.-X-X).v G G I C.Z.C.Z.C.z.Z.N.t.t.D.",
"A.A.D.i.m.M.n.n.B.B.C...F G v ~.5X*XL.I.I.I.I.I.Y.I.I.I.Y.I.I.I.I.I.I.I.I.I.I.I.I.I.Y.H.Y.I.-X,X).v H G ..C.C.Z.x.z.6X7XN.t.t.F.",
"A.A.A.e.b.n.n.n.n.B.C...G H c /.5X-XI.I.I.I.I.I.I.I.I._._._.I.I.I.I._._.I._.U.I.I._.I.I.I.Y.>X,X`.b G H ..x.C.Z.Z.7X6X7XN.t.D.D.",
"A.A.A.e.m.n.n.n.B.C.n...H H c /.-X-X*X-X>X-X*X-X,X-X-X>X>X-X&X*X>X*X>X<X,X<X-X*X>X2X-X-X-X>X,X-X~.b H H I C.x.Z.Z.6XZ.Z.G.D.D.t.",
"A.A.D.D.m.0.0.c.b.v.g.v , ..v ! ^ E ^ ^ E ^ E ^ ^ ^ ^ ^ ^ ^ E ^ ^ E ^ ^ ^ o.^ ^ / ) ^ ^ ^ ^ o.o.! D H H F g.n.l.z.l.z.l.F.D.t.A.",
"A.A.S.S.4.,.2.1.2.2.<.G G ..G H L H H H H H H P n n n H n H L H H H n H H H n H n H n H n H n n H H H H b <.a.g.g.s.h.h.i.D.F.F."
};
