/* XPM */
static char *out[] = {
/* columns rows colors chars-per-pixel */
"64 64 138 2 ",
"   c #110611",
".  c #140A14",
"X  c #190E19",
"o  c #171015",
"O  c #1A1414",
"+  c #1D1A15",
"@  c #1D131C",
"#  c #1F191C",
"$  c #201E17",
"%  c #211B1C",
"&  c #222116",
"*  c #262917",
"=  c #292D17",
"-  c #26241B",
";  c #28271B",
":  c #2A2A1C",
">  c #2E3518",
",  c #31371A",
"<  c #31391A",
"1  c #261526",
"2  c #281525",
"3  c #221B22",
"4  c #261629",
"5  c #281729",
"6  c #26192B",
"7  c #2A1C2D",
"8  c #351F2D",
"9  c #2D1E30",
"0  c #252525",
"q  c #272827",
"w  c #292B20",
"e  c #2D212D",
"r  c #292A29",
"t  c #33212C",
"y  c #3A252D",
"u  c #35292E",
"i  c #3C2D2D",
"p  c #2C322C",
"a  c #343627",
"s  c #33332C",
"d  c #3F312F",
"f  c #393B2C",
"g  c #2E2131",
"h  c #332533",
"j  c #3B2734",
"k  c #362A34",
"l  c #3A2D34",
"z  c #313531",
"x  c #3D3235",
"c  c #363936",
"v  c #393639",
"b  c #3C3E3C",
"n  c #402E2D",
"m  c #41312D",
"M  c #49322F",
"N  c #4B382D",
"B  c #422E36",
"V  c #412E38",
"C  c #433434",
"Z  c #4A3334",
"A  c #453833",
"S  c #493A34",
"D  c #43343B",
"F  c #4C3539",
"G  c #51363B",
"H  c #543A3A",
"J  c #5A3B3F",
"K  c #3D403C",
"L  c #4C4038",
"P  c #57403C",
"I  c #62403F",
"U  c #4F3F4A",
"Y  c #543741",
"T  c #553942",
"R  c #5D3D43",
"E  c #533E48",
"W  c #5D3E48",
"Q  c #603E45",
"!  c #424242",
"~  c #474847",
"^  c #4D454D",
"/  c #4B4B4B",
"(  c #5E4246",
")  c #53464E",
"_  c #5B464D",
"`  c #514E4F",
"'  c #5B484E",
"]  c #474753",
"[  c #4C4550",
"{  c #454B57",
"}  c #4C4C55",
"|  c #464E59",
" . c #4B4F59",
".. c #534650",
"X. c #5C4651",
"o. c #554D54",
"O. c #5B4B53",
"+. c #504F58",
"@. c #5E4E58",
"#. c #4C545F",
"$. c #555355",
"%. c #585057",
"&. c #53525C",
"*. c #5A5659",
"=. c #5D5A5C",
"-. c #634446",
";. c #694746",
":. c #694847",
">. c #63464B",
",. c #68474A",
"<. c #64494C",
"1. c #6A4A4B",
"2. c #724E4C",
"3. c #6E514F",
"4. c #74524E",
"5. c #7A554C",
"6. c #7D594E",
"7. c #644D54",
"8. c #6C4E51",
"9. c #655057",
"0. c #6D5456",
"q. c #63545A",
"w. c #6B5458",
"e. c #63585C",
"r. c #725654",
"t. c #795752",
"y. c #775853",
"u. c #7C5B51",
"i. c #705458",
"p. c #4E5561",
"a. c #525762",
"s. c #515964",
"d. c #5B5C65",
"f. c #565E69",
"g. c #615E61",
"h. c #725B60",
"j. c #815C4E",
"k. c #815C51",
/* pixels */
"p.s.#.] ^ ( _ _ <.7.w.7.>.7.>._ ' >._ >.>.>.>.>.>.<.>.>.<.8.8.8.8.-.<.<.<.<.<.,.<.<.>.<.:.8.8.r.8.4.t.8.;.1.,.1.,.,.,.Q @.p.p.f.",
"p.s.p.^ _ <.<.>.<.<.<.<.<.( ( <.<.<.<.>.>.<.<.<.<.:.<.<.<.1.<.<.,.<.,.,.,.,.8.,.<.1.:.1.1.:.:.1.1.1.1.1.;.2.1.;.2.1.1.,.O.#.| p.",
"#.a.p.} _ _ ' <.' <.' ' >.>.( <.' <.>.7.<.<.<.<.<.1.:.<.<.<.1.<.1.<.1.7.8.<.<.,.1.1.1.:.1.,.-.Q I I ;.1.;.1.;.2.;.2.;.,.o.p. .p.",
"#.#.#.} _ <.' ' >.<.<.>._ <.>.' <.<.<.<.<.' <.<.<.<.:.<.1.<.<.1.<.1.<.1.<.,.8.1.1.1.1.:.<.R G W Q 2.1.1.2.1.1.2.1.1.2.;.o.p.p.p.",
"p.#.#.} _ <.<.<.>.<.>.>.<.>.<.<.<.>.<.<.<.<.<.,.<.:.<.,.<.,.<.<.,.,.1.1.,.<.,.,.1.1.<.<.Q >.1.:.2.1.1.2.2.;.;.1.;.1.1.,.o.s.s.p.",
"p.#.s.+.( ' X.>.X.' <.X.>.>.' <.>.7.<.' <.<.<.<.<.1.<.-.-.<.,.,.,.7.,.1.,.8.8.1.1.:.:.1.1.1.1.1.1.1.1.1.1.;.1.1.2.2.1.,.o.p.p.f.",
"| #.s.s.) T E T E T Y Y Y Y E Y Y Y Y Y E Y T T T Y Y Y T Y Y T T T Y Y Y Y T T T T T R R T R T J Y J J R J Q R Q Q Q W a.s.s.p.",
"#.p.p.a.o.^ E ) X.X.E 8 1 1 1 1 1 4 4 1 1 1 2 2 4 4 1 1 1 1 5 1 1 5 1 1 1 1 1 1 1 1 1 1 1 1 2 2 1 1 2 1 8 G R R -.1.7.>. .p.p.p.",
"p.s.p. .^ ^ ) ' X.' ' j 6 9 6 6 6 6 6 6 6 6 6 6 6 6 6 6 6 6 6 7 7 4 6 6 6 5 6 6 6 6 9 6 6 6 6 6 6 6 7 6 u -.<.<.,.1.1.1.%.p.#.p.",
"p.p.p. .^ o.) ) ) _ X.j 6 7 6 6 5 5 6 6 6 6 6 6 6 6 6 6 6 6 6 7 9 4 6 6 6 6 6 6 6 6 6 6 5 6 6 6 6 6 9 6 l ' <.<.:.:.1.,.%.p.p.p.",
"p.p.p. .[ ..o.) ' ' X.j 4 6 4 % : : : : w : w w : % - : : : : : : w : w : : w : : : : @ X : : : w 0 6 6 j <.<.<.<.1.8.1.o.#.p.p.",
"p.s.s. ./ ^ ) ..' ) ' j 4 6 3 * > , , , < < < < < * * < < < < < < < < < < , , , < < < O o , < < , = 6 6 j >.<.<.1.1.:.<.%.#.#.p.",
"s.p.p. .^ [ ..' ' _ X.j 4 6 4 O * = ; * = = ; ; & % % - = = = = = = ; ; = ; % : = = & + + - ; ; = $ 5 5 j >.<.<.1.:.1.,.o.p.p.s.",
"p.p.p. ./ ) ) ) ' X.' j 6 6 4 . + $ % $ & & @ X   @ @ @ $ & - & & - @ % $ % % X % +   + % @ @ @ $ O 6 7 j ' <.<.<.:.1.,.%.p.p.p.",
"p.p.p.#.^ ) ) ) X.O.X.j 6 6 7 & o O $ @ % @ . . @ @ % $ @ @ @ @ % % % $ @ X X . @ @   o @ @ % +   + 7 7 j <.<.<.1.1.1.1.o.p.p.p.",
"p.s.s.} ^ } ) o.X.' ) j 7 9 0 +   . % % @ @ X . . @ @ % 1 @ @ @ X @ @ % @ % X X . X . X @ @ % +   @ 7 7 j ' <.1.<.1.1.7.%.p.p.p.",
"s.#.s.s...^ U ^ E E F 8 7 9 7 @ . . X @ @ @ @ X   X @ @ @ @ @ @ @ @ @ @ @ @ @ X . . @ @ @ @ @ X   X 7 9 t T W ( W -.Q -.+.a. .{ ",
"a.#.#.&.q.7.8.r.i.8.7.y 7 9 e @ @ X . @ % @ @ X   X @ @ @ @ @ @ 1 @ @ @ @ @ X X X @ @ @ @ @ X . @ @ 8 g y -.1.2.2.4.2.1.a.a. .p.",
"p.#.#.#.q.w.w.0.r.r.r.F h g e - @ X   X @ @ @ X   X @ @ @ @ 1 X X X 1 X @ @ X   X @ @ @ @ @ .   @ % e h D y.u.6.u.j.5.t.%.p.p.p.",
"p.#.#.&.9.w.0.0.r.r.r.D h h u < % X   X @ @ @ X   X @ X @ @ X . . X @ @ @ @ X   X @ @ @ @ @ . . @ : h h S y.y.y.u.4.j.k.*.p.p. .",
"p.{ p.a.9.w.w.w.r.r.y.D h k u < 1 X                                   .                         @ w k h F t.u.6.u.5.6.6.*.p. .{ ",
"p.#.p.+.9.w.0.0.r.r.r.Y h l u < @ X                                                             @ : k h F t.y.u.u.k.5.u.q.p.p.p.",
"p.p.p.+.9.w.w.r.r.i.r.D h k u < % X                                                             @ : j h F t.u.u.k.k.5.6.*.p.p.p.",
"p.a.p.&.9.w.0.0.i.r.r.Y h k u < % X                                                             @ 0 h j Z r.y.u.u.u.k.u.q.p.#.p.",
"p.p.p.&.9.w.w.0.r.i.r.F h j k < % X                                                             X w h k F t.t.t.t.k.k.u.q.p.p.p.",
"p. .a.a.9.0.0.r.r.r.i.F h l u < % X                                                           . @ : k j F t.t.t.u.k.k.k.q.p.#.#.",
"p.]  .a.@.X.<.7.7.<.>.y l D u < @ X                                                             @ w D v i -.,.1.2.2.2.8.&.#.#.{ ",
"p.#.#.#...^ ) @.O.7.( y k l k < 3 .                                                             X w k l y J ( ( -.8.2.-.&.#.#.#.",
"p.p.p.} ^ [ ) ) ' _ X.V k k i < % X                                       .                     1 : k k V >.<.<.<.1.8.,.o.p.p.p.",
"p.p.p. .[ ..) ) ' _ _ V k l u < @ X                                                             X : x k V X.<.<.<.1.:.1.o.p.p.p.",
"p.p.p.] [ [ ..X..._ ' V k l l < % X                                                           . @ : k l x >.<.<.1.1.1.1.o.p.s.p.",
"p.#.p.} [ ) ....' ' X.x k l l < % X                                                           . @ q x k D >.<.<.1.<.1.r.%.#.p.p.",
"p.#.a. .[ ) o..._ _ ' V j l i < 3 X           . X @ X X . . X X . X @ X   X X X X X @ .         @ w l k V <.<.<.<.:.1.1.%.p.p.p.",
"p.p.p.| [ ^ ) X..._ X.V l l i < 3 .   .   . . o X @ @ @ X o X X @ @ @ X   X @ @ @ @ X . .     . @ q l l V >.<.<.<.1.1.1.%.a.#.p.",
"p.#. .] [ ..) ..' ' X.V k v l , @ X   X @ @ @ o   X @ @ @ X   o @ @ @ X   X @ @ @ X   o @ @ .   @ : v k C ' <.<.<.1.1.:.+.p.#.p.",
"p.#. .] ^ [ ) ) ) X.X.V l l i % @ o   .   . .       .   . .     . . .       . . . .   .   .     @ 2 l x B >.<.<.:.1.1.<.o.#.#.p.",
"p.#.s.s.[ ^ E E ) E Y y l l l % @ X . o o o . . X o o @ o o X @ o . o o X X @ X o X X O X . . . X @ l l y J W W Q Q J -.&.p.#.p.",
"#.#.p.&.@.7.7.7.1.0.8.n l x i < o . @ q p p 3 3 p p p p p p p p q @ q p p p p p p p p p r @ @ @ . X x x i -.r.r.t.u.u.r.&.p.p.p.",
"p.p.p.} 7.w.0.r.r.r.y.G i x i < @ 3 q p p p o o p p p p p p p 0 @ . 0 p p p p p p p p 0 3 r 3 X   X C B F y.t.u.u.k.u.u.*.p.a.p.",
"p.p.p.} 7.w.w.0.8.r.r.F l x d < @ @ q q q q @ o 0 q q q 0 0 0 @ X . 3 q q q q q q q 0 3 @ q @ X   @ l l F t.u.u.u.u.j.k.=.p.p.#.",
"p.#.p.} 7.w.w.w.r.3.0.F l x i < o o @ # @ @ @ @ . @ @ @ # X     . @ @ @ @ @ @ 3 @ @ 3 @ # @ X .   & x x S y.u.u.u.k.j.u.q.#.a.p.",
"#.p.p.} 7.w.0.0.r.r.3.Z x x n < z z v v h @ 0 p z c v v v z 0 k z q 3 3 q z v v v v v v c c r q z a C x G y.y.u.u.u.k.k.q.a.s.p.",
"{ p.p.} 7.w.w.0.r.r.r.G x x i < K ! ! ! v 3 p v ! ! ! ! ! b p b K z 6 0 p K ! ! ! ! ! ! ! ! z z ! f C x S r.y.6.k.k.j.k.=.#.a.f.",
" .p.p.} 9.w.0.0.r.r.r.F l C m < K ! ! ! b p b ! ! ! ! ! ! b p b ! ! z p ! ! ! ! ! ! ! ! ! K c z ! f x C G y.y.u.u.k.j.u.q.#.#.p.",
"p.p.p.o.9.w.w.r.r.r.r.G x C m < K / *.*.] p z c !  .*.$.~ K p K ! ! z p z K ! ! } &.$./ ! ! c p ! f C x G r.u.u.u.k.j.k.q.a.a.p.",
"p.p.p.+.9.w.w.0.r.r.r.S x S d = c ! $.$.! p p z K / $.$.! z p K b K z p p c K K / $.$.! b b z p b s D C G y.y.u.u.k.j.u.e.#.a.p.",
"p. .p.} 7.w.0.0.0.r.r.H B C d . q p p p p p p p p p p p p p p p p p p p p p p p p p p p p p p p p % C C S y.u.u.u.k.j.u.*.#.p.#.",
"p.p.p.} 9.w.0.0.r.r.r.F x C d z / ` $.` / K / / K K K K / ` $.$.| b / / K / $.` $.$.$.$.$.` $./ b v C C Z r.y.u.u.k.j.u.q.#.#.{ ",
"p.p.| ] 9.w.w.r.r.r.r.G C C C ! =.g.g.g.*./ =.*./ ! ! / =.g.g.g.=.~ *.*.~ *.g.g.g.g.g.g.g.g.g.=./ ! C C Z 1.u.u.u.k.j.k.e.#.#.#.",
"p.p.p.} 9.w.w.0.0.r.r.G C A d ! *.g.g.g.g.g.g.g.=./ / g.g.g.g.=.g.g.~ ~ g.g.g.g.g.g.g.g.g.g.g.g.d.) d C Z 1.y.u.u.k.j.u.e.s.#.#.",
"p.p.p.} 9.w.w.r.r.r.r.G C A m ! =.g.g.g.g.g.g.g.g./ / g.=.g.g.g.g.g./ ~ g.g.d.g.g.g.g.g.g.g.g.g.g./ x C F 4.u.u.u.k.k.u.e.a.#.a.",
"p.f.p.} 7.w.0.0.0.r.r.G C A i v *.g.g.g.g.g.g.=.$./ / *.d.g.g.g.g.g.~ ~ g.g.g.g.g.g.g.g.g.g.g.g.g.~ m C A r.y.y.u.k.j.k.e.#.#.#.",
"p.p.p.+.9.w.0.0.r.r.y.G C A i . ` g.g.d.g.g.g.$.~ *.$.! *.g.g.g.g.=./ / g.g.g.g.g.g.g.g.g.g.g.g.g.k d C G y.u.u.u.k.j.u.e.#.#.p.",
"p.p.a. .7.w.w.0.r.r.r.S m A i + ! ~ K K K K K K ! K K ! ! K K ! K K K ~ ~ K K K K K K K K K K K / u d C G t.u.y.u.k.j.u.q.a.s.#.",
"p.p.p.} 9.w.w.r.0.r.r.H M A n = K K p z p z p c ! c c ! z p z p z p K ! ! K z p p p p p p p p z K s l C H u.u.6.u.k.j.u.=.p.a.p.",
"p.p.p.} 9.w.w.0.r.r.r.H C S m ! ! ! ! ! ! ! ! ! ! ! ! ! ! ! ! ! ! ! ! ! ! ! ! ! ! K p K K p p p ! ! C S H y.r.6.u.k.j.6.e.#.#.p.",
"p.p.s.+.9.w.<.0.r.r.r.H A S M $.g.g.=.=.$.*.$.=.$.*.$.*.*.$.$.~ ! ! ! ~ $.$.$.*.=.$.$.$./ p K $.$.$.S A P y.y.u.u.j.k.u.e.#.#.#.",
"p.p.s.+.9.h.' 1.r.r.r.H m S A g.g.g.g.g.g.g.g.g.g.g.g.g.g.g.g./ ! ! ~ ` g.g.g.g.g.g.g.g.*.z  .g.e.=.S S H y.y.u.u.k.k.j.e.#.#.#.",
"s.p.p.} 9.w.w.0.r.r.y.H A S N g.g.g.g.g.g.g.g.g.g.g.g.g.g.g.d./ ! ! $.g.g.g.g.g.g.g.g.g.=.! $.g.g.e.S A P y.y.6.u.6.5.k.e.#.#.#.",
"p.p.f.&.q.w.0.0.0.r.r.P A S N g.g.g.g.g.g.g.g.g.g.g.g.g.g.g.g./ ! ! *.g.g.g.g.g.g.g.g.g.=.*.` ` g.=.S S H y.u.t.6.4.k.u.e.#.s.f.",
"p.p.p.+.9.w.w.0.r.r.y.J A S S e.g.g.g.g.g.g.g.g.g.g.g.g.g.g.g./ ! ! =.g.g.g.g.g.g.g.g.g.g.g.$./ =.=.N S H u.t.u.u.k.k.k.e.#.s.s.",
"p.p.p.+.7.w.w.0.r.r.r.H S S N g.g.g.g.g.g.g.g.g.g.g.g.g.g.g.g./ ! ! $.g.g.g.g.g.g.g.g.g.g.g.g.=.! $.L S P y.u.u.u.k.k.k.g.s.s.#.",
"p.p.s.s.7.@.7.7.7.7.<.M S L S g.g.g.g.g.g.g.g.g.g.g.g.g.g.g.g./ ! ! *.g.g.g.g.g.g.g.g.g.=.g.g.e.$.` S S M :.4.4.4.4.4.r.d.s.#.s.",
"p.p.s.&.) ^ ) _ _ _ _ S S S L g.g.g.g.g.g.g.g.g.g.g.g.g.g.g.g./ ! ! =.g.g.g.g.g.g.g.g.g.g.g.g.g.g.` S S Z ( >.>.<.:.:.:.$.s.f.f."
};
