/* XPM */
static char *out[] = {
/* columns rows colors chars-per-pixel */
"64 64 217 2 ",
"   c #151013",
".  c #251915",
"X  c #221F29",
"o  c #332B2F",
"O  c #4E3037",
"+  c #67353F",
"@  c #282B4B",
"#  c #38384C",
"$  c #2A2E54",
"%  c #2F3254",
"&  c #3A3D51",
"*  c #353758",
"=  c #2E386C",
"-  c #363A66",
";  c #33396B",
":  c #373E71",
">  c #4A3C4B",
",  c #533D48",
"<  c #443A57",
"1  c #553F52",
"2  c #673C45",
"3  c #433966",
"4  c #3C414D",
"5  c #3D4253",
"6  c #3E435B",
"7  c #3C4268",
"8  c #3D4274",
"9  c #3C447B",
"0  c #47424F",
"q  c #55444C",
"w  c #424652",
"e  c #4A4453",
"r  c #454B56",
"t  c #42445D",
"y  c #4C475A",
"u  c #464D59",
"i  c #494E5A",
"p  c #574956",
"a  c #5B4C55",
"s  c #4C545F",
"d  c #51525C",
"f  c #5D5359",
"g  c #62454D",
"h  c #6A474A",
"j  c #714343",
"k  c #664B55",
"l  c #784D56",
"z  c #695256",
"x  c #785757",
"c  c #7D625D",
"v  c #434666",
"b  c #444966",
"n  c #4A4E64",
"m  c #444569",
"M  c #464A69",
"N  c #494D6C",
"B  c #53496C",
"V  c #4D5561",
"C  c #4D536B",
"Z  c #505763",
"A  c #515964",
"S  c #50566D",
"D  c #555D69",
"F  c #484A79",
"G  c #5E4B77",
"H  c #4E5271",
"J  c #565479",
"K  c #67536B",
"L  c #7A5866",
"P  c #685170",
"I  c #7E616B",
"U  c #854D4F",
"Y  c #845C5D",
"T  c #8B5959",
"R  c #995958",
"E  c #8A625F",
"W  c #96655E",
"Q  c #A4655F",
"!  c #8C5E6A",
"~  c #8B6665",
"^  c #986A67",
"/  c #9E756B",
"(  c #836D72",
")  c #976971",
"_  c #937776",
"`  c #A86A62",
"'  c #B46866",
"]  c #A77569",
"[  c #B5756A",
"{  c #C6786E",
"}  c #C77871",
"|  c #D37D75",
" . c #9F817D",
".. c #AC8775",
"X. c #B68A78",
"o. c #BC917C",
"O. c #C78676",
"+. c #D78B7A",
"@. c #C8977E",
"#. c #D7937D",
"$. c #E2947F",
"%. c #3E4781",
"&. c #3B4584",
"*. c #404781",
"=. c #404984",
"-. c #434C8B",
";. c #52568F",
":. c #454F91",
">. c #485393",
",. c #4A559C",
"<. c #6F7094",
"1. c #6B729D",
"2. c #4C58A5",
"3. c #4E59A4",
"4. c #505BA5",
"5. c #525EAB",
"6. c #5460AF",
"7. c #5662B4",
"8. c #5966BC",
"9. c #5B68BF",
"0. c #6472A2",
"q. c #767BA6",
"w. c #5D6AC3",
"e. c #5F6DC8",
"r. c #606ECA",
"t. c #6270CD",
"y. c #8A758C",
"u. c #90778A",
"i. c #7E83AD",
"p. c #9B818A",
"a. c #9A8B96",
"s. c #9D9095",
"d. c #AD8689",
"f. c #B68C82",
"g. c #BC9886",
"h. c #A68B9A",
"j. c #A29597",
"k. c #AEA19E",
"l. c #BCA09E",
"z. c #8A88A4",
"x. c #9794A8",
"c. c #848AB7",
"v. c #8D91B6",
"b. c #9794B1",
"n. c #ACA6AD",
"m. c #B3A5A7",
"M. c #AAA7BA",
"N. c #B1AABA",
"B. c #DA8E83",
"V. c #C49481",
"C. c #C59B83",
"Z. c #C89C82",
"A. c #D79882",
"S. c #E59A85",
"D. c #EB9B84",
"F. c #CBA387",
"G. c #D9A68B",
"H. c #DAAA8D",
"J. c #D8AD94",
"K. c #CBB29B",
"L. c #D9B696",
"P. c #E5A78C",
"I. c #F3A287",
"U. c #F4A489",
"Y. c #F6AC8E",
"T. c #EEAD91",
"R. c #E8B797",
"E. c #F4B897",
"W. c #CFABA9",
"Q. c #C9B8A5",
"!. c #D1BDA5",
"~. c #E3C29C",
"^. c #F5C39C",
"/. c #F9C39C",
"(. c #D8C6AB",
"). c #EAC6A1",
"_. c #ECCAA2",
"`. c #F7C9A4",
"'. c #F3CCA4",
"]. c #ECD3AA",
"[. c #EBD6AB",
"{. c #F9D1A6",
"}. c #F4D5AA",
"|. c #FAD6AA",
" X c #F3DBAE",
".X c #FCDDAE",
"XX c #EDCFB5",
"oX c #F5DFB0",
"OX c #FDDFB0",
"+X c #FDE1B1",
"@X c #8C99CC",
"#X c #9AA6C9",
"$X c #9DA6D8",
"%X c #A7ABC8",
"&X c #B8B6CB",
"*X c #A4ACD7",
"=X c #ADB7D8",
"-X c #B5BBDA",
";X c #A9B2E3",
":X c #B2BCE2",
">X c #BCC1DD",
",X c #BBC4E9",
"<X c #C5C6D8",
"1X c #C4CBE8",
"2X c #CBD0E4",
"3X c #CDD4EB",
"4X c #D2D5E6",
"5X c #D5DAEB",
"6X c #CFD6F0",
"7X c #D7E0F2",
"8X c #DDE3F4",
"9X c #E3E3E9",
"0X c #EAEDF7",
"qX c #E4EAF9",
"wX c #EEF2FB",
"eX c #F2F5FC",
"rX c #FCFDFE",
/* pixels */
"V A s r s s D A s s s s D D s r Z V s V Z D V s s s s u s V s s V s A A Z Z A A Z A V V u i s 5 s i i s s s s s s r s D s s s D ",
"V Z s s s A A s s A s s s s s s s s s s s A s s A s s s 5 4 # 4 & 5 r s A s s Z A A V V V V s s s s s s s A A s s s u s s s i A ",
"s V Z s s A s s s s s s i i s s i s s Z s V s s s s 5 7 >.>.8 - :.>.8 5 s s s s V Z V s V V s s V s s V s A s s s s s s s s s s ",
"s s Z V s s s s s s s s i s s s i s s Z s s u s s 7 ;.9.e.8.5.3.8.w.9.4.7 s s Z s s s s s s s s A s s s s s s s s s s s s A s s ",
"V s s Z s s s Z s s s s s A s s s Z Z s s V V s 6 4.r.7.3.8 5.7.=.-.5.w.9.M V V s s r s V V s s s s u u s s s s s D s s s D A A ",
"V s A A s r s A A s s s s s s A V s s s s s s 5 >.7.>.4.3.:.e.r.5.=.3.>.4.4.* s s V V s V V s V 6 s s A s s u i s s s s s s s A ",
"r s Z A s s s s s s s r s s s A s u s V V Z u ; 7.>.7.9.9.5.t.r.w.,.9.w.,.7.%.6 s s s s V V s s s s s s s s s u s s s s s A A s ",
"s Z Z Z s s s A A s s s s s s A s i s s s V u -.,.4.9.8.w.7.t.r.r.3.9.t.6.,.,.7 s V V V V s s s s s s s s s s s s s s u s s A A ",
"s A A s s A s A A s A s s s s A V s V s V Z 6 3.&.7.8.w.e.7.r.e.e.,.7.e.w.=.4.8 w V V V V V V V A s s s s s A s s s A s s s s A ",
"s s s s s D s s s s A s s s s s s s V V s Z % -.-.w.8.w.w.5.e.e.t.,.9 8.r.,.-.- 4 V V s V V V s s A A s s s A A s s D D s s s s ",
"s A A s s A s A A s A s s i u A s V u u s r # : 3.e.>.8.9.9 3.e.e.7.% 2.r.8.: * # s s s s V V s A s s s s s s A s s s s s s s s ",
"s D s s s D s s s s s s s s s s s s s s w @ ; 4.e.5.; 5.2.C J 9.r.w.% ; 6.e.6.-.* 5 s s s V V s s s s s s A A s s s s D s A s s ",
"A s s s u s s s s s D s s s s A A V s s u # : 5.:.9 @ ; = _ ( &.7.2.K a = %.-.: * r V V s s i V s A s s u s s s s u s s A s A A ",
"A s s s s s s s s A s A A s s A Z A Z s V , z $ = t x % c T.H. .n * I o.a $ $ y g u V s s s u s s A s s s s s s s s s s s s s A ",
"s s A A s s u i s A A A A s s A V Z V V i > x $ % O .   j G.E./.A.U . . O < = k h u V s s s s s s s s s s A A s s s A s s s s s ",
"A A A s s s s s s u s s s s s s s V Z Z V # - %.F g O X o ^ |.|.Z.o   > O F 2.: & u s V u u s V A A s s s D s s s s s s A A s s ",
"A s A A A s s s s s s A s A A s V A V V s 4 9 2.5.g.W.0.1.b.+X+XQ.0.;.&XL ,.,.:.6 u A s s s s s A A s s r V s A A V A s s V s r ",
"A s s A A s u s s s s V V s V V A V V s s 4 9 %.4.d.`.&X@XXXOXoX[.#X*XXXa.2.9 >.7 s s A A s A s s s s s s s V A s V s s V s s s ",
"s s s s A s s s s s s s s s s V A V V V 5 7 9 7 : B O.E.'.OXOXOXOX.X`.A.K *.>.3.8 6 s A A s A s A s s s s V V V V V V s s s s s ",
"s s s s V s s s s s s s V s V s s s V V 5 8 ,.8 &.F < ] ).oX`.E.OX{.@.g - 9 ,.3.-.4 s s s s s s s s s s s V s s V V V r s s s s ",
"s s s A A s A V s s r s V V s s s s s s 5 7 5.;.L ) J L Q O.H.H.A.` l J k G ,.4.-.5 s s s s Z s s s V A s V s V V s V s s s s 5 ",
"s s V V s s A s s s s s V s V s w s s s r 8 ;.I ~.J.1.y.} ' U U R | y.y.p.F.P 3.-.4 r s s Z D s r s s s s D A A V V D V s s V V ",
"s s s s V V V s s s r s s s s s s s s s w 8 I ).+XQ.%Xp.B.A.A.B.D.B._ %Xn. XF.G :.4 w s A A Z s s s s V s V V V V V A V V s V V ",
"s A V s A s s s s s s s s V V V s Z s s 5 # g.+XoXa.5Xn.XX|.|.}.OX|.k.2XM.!.|.) 8 5 s s Z Z s s s V s s s V s V s s A V V V s V ",
"V A A V A s s s s s V V s s s V s Z s i 5 O ~.+X Xz.1X&XK.E.P.S.R.L.M.6Xv.(.oXg.3 6 V V V V s s V V V s s A s s s V A s V A s s ",
"s s A A s s r s s s V V u s s s s s s s w E }.+XQ.%X7X7Xn.J.A.O.J.l.2XqX=Xm.oXR.k 5 V s V V s Z V s s V V A r s V s V s s s s s ",
"s r s s V s V s V s V s s V s V Z Z s s e o. X[.x.5XrXrX9Xb.u.h.y.3XrXeXqXb.(.[.~ * s s s V Z s V V V V V V s s s V A s s V s r ",
"s s s s A V V V s V A V s s V A s d s s z L.oX(.%XwXrXrXrX5X-X1X,XrXrXrXrX%XK.+Xg.t 4 s Z Z s V V s V V V s s s V A s r s s s s ",
"s A V V D s A V V V V s V s V V s Z s i E ].oXs.<XrXrXrXrXrX3X1XeXrXrXrXrX6Xn.}.L.q 4 A A V V s V V V V V A A A V V s V s s s V ",
"s A V s A A A V s u s s V V s s s s s a o. X[.j.4XrXrXrXrXrXqXqXrXrXrXrXrXeXz.]. X/ d V V V V V V V s s s V A V s s s A s V A s ",
"s V A s s A V s s i V V V V s V s r i Y '..X Xs.,XrXrXrXrXrX8X6XrXrXrXrXrXwXz._.+X$.z s V V s s V V u u V s V s s V V s V V A s ",
"s s s V A V D A V A V s V s V A s s f @.+X.X[.p.*X0XwXwXwXqX1X1X0XrXrXrXrX1Xa.}..X X/ i s V V V V s s s V A V s s V V V s s s V ",
"s s s A s s s s s s s s s s i D V d E `.OX+XH.K c.:X8XwX,X;X#X=X1X0XeXwXqXv.^ '.+X+XH.g s s s s s s s s s s u s s s s s s s s s ",
"s s s s s s A A s s A A s s s s V a V.oXOX|.` < ;.i.#X:X;X@Xq.0.$X:XqXrX,XJ , V.+XoX}./ e s s r s A Z s s s s s s s s A A A s s ",
"A s s u s s s s s s s s A s s s y Y ).OXOXJ.a q.#Xc.1.i.i.x.! ! c.$X=X>Xi.;.B Y '..XoXJ.z s s s s s s s s A s s s s A A A A s A ",
"s s i s s A s s s A s s s s s d a @.oXOX|.^ f y.%X2X%Xz.<.m.f.V.s.1.q.1.b.1Xv.p o..X+X}.^ d s s A Z s s s A s A s s s s s s s s ",
"s s A D A s s s u s s u s s D d ~ ^. X.XJ.k x ~.j.n.%X3X5X>XN.N.<X2X9X4X>XN.a., E ).oX+XH.z s s D s s s s s s s s A s s s s s s ",
"A s s s s A s s s s s s s s i x G..XoX X/ p c +X X}.(.a.&XwX0X0X0X3XM.x.k.(.L.q p F.+XoX|.O.a s s s A A s s s s s s r s s s s s ",
"s A s s s s A s s s s s s r h +.S.Y.T.R.x r c +XOXOXoX_.d.b.:X-X=Xj.!. X X+X~.q 0 ] E.T.P.S.[ q s s s s s s s s s s s s s A A s ",
"s A s s s s A s s A A s s w U +.+.S.{ #.z i c +XOX+XOX+X{.d.1.1.j. X+X.X+XoX~.q 0 Q +.| $.O.O.g s s s s s A s A A s s A V s V V ",
"s s s s s s A s s A s s A s q Q ` ` S.] > i x {.+X+X.X+X.X}.~ _ [.+XoX+X+X+XG.q i g O.#.T [ T q V s s s s s s V s s A A s s A s ",
"s s s s r s s s s A s s s s e q q z W a s s f C.oX+X+X.X.X.XX.V.+XoXOXOX.X+X] d s i z W f q q i s s s s r s V s A s s s s A D s ",
"r A s s s s s s s s D s s A D A V u w s s s d /  X+X.X+X+X+XE.R.+XOXOXOXoX'.c s A s i 4 s s s s s s s V s s s V A s s s s s s D ",
"s s s s s s A A s s D s s s s A V s Z s s s d z )..X+X.X.X+X_.R..XOX+XOX+XF.f s A s D s i s s s s A V s s V s s s s s A V s s V ",
"V s V V s s s s s s s s u s s s s s s s d s r q F.oX+X+X.X.X).R.+XOX+XOX+Xg.a s Z s A s s s s s s s s s s s s s s A V V s V A s ",
"V s V A s s s V s i s A u s s s s s s A s Z i e ^ _..X.X+X.XR.R.+XOXOX.XoX..e s s s A s s s s Z s A V s V V V s s V V s s A A V ",
"V s s s s r s s i r s s s s s s u s A A s D s s g #./..X.X/.{ @.+XOXOXOX].c r s s s D s s s s s s V V s s A V s s s V s s s s s ",
"V V s s s V V s s u s A s A D s s s s s s s s s > } Y.Y.Y.U.R X.oX.X.XOXL.k w r A A s s A A s s r s V V V V s s s A s s s s s u ",
"A s s r s A V s s s V V V V A s V V V V V A C n < O.U.U.I.D.U X.+X.X.X X..y n C V s s s A s s s s s A A V V V V V V V V V s s s ",
"V s s s V V A s s V A A V V V s V V V n C N M M & [ U.U.I.D.2 ..+X.XOX'.~ 7 M M C S V D s s s A s s V V V V V s s s s V A A s V ",
"V V s s s s V s s V V V V V s V V V C C M M 7 M v l D.I.I.$.2 ` {..X|.A.1 N M M M N C S s s s A s s s s s V s V s s V s V V s V ",
"s A A s V V s V V V V s A V V s V H N M N N M M M y ' U.$.} + ` Y.E.Y.O.> M b M M M 7 H D s s s s A V s s V V V V V V V V s s V ",
"s A V V A s s A A s s s s V V s n M M M M M M n M v l S.D.+.2 Q Y.Y.Y.} < 7 n M M M M 7 C u 6 s V A A s V s D V s V A V V V V V ",
"s s A V V s s s s 5 V V s V V V S M M M M M M N M M < ^ #.#.2 ] {..X/.Y b b b M M M M N N n u s V V V V A V A A s s s s s V A V ",
"A s s V s r s s s s V A V V A V C M M M M M M M M N M n 1 g > .. X.X|.x N M b N N N M N M V s s V s s V s V V V s V D V s V V V ",
"A s V s s s s V V s A V A V A V V M M M M M M M M M M M N M < ^ _..XR.k M M b b N M M M M s s s s s V s s V V V V V V s s s s V ",
"s s V A s s s A A V V s V A V s C M M M M M M M b b M M M M b y ^ ..Y y m M b M C M 7 M N A s s V s s V s V V V A s s V s s s V ",
"V s A A s r s A V V V s V s s s n N M M M N M M b b M M n M M b t < v M N m b b 7 n C N C V s 6 s s V A s A V V V s s A V V s V ",
"A V A s s s A A s V A V s V s 4 s V H N M M M M M b M N M M N M n M M M M M v m 7 C S A A V V V s s V V s V V A A s V s s s s V ",
"V A A A A V s s s V D V V V V V V V V C H M 7 N M M M M M M M M n m M m v M b M 8 C V V A A V s V s s s s s r s V V V A V V V D ",
"s V A V V u s V V s V s s V V V s V s V C H M M M M M M M M b M M M M M b M M M V V V V V V V A V s s s s s s s V V V A V V A A ",
"V s A V s i s s V s V s V A V A s s V V V Z V n V M H M M M M M M M N N n C V V s A V V s s V A V V s s V A s s V V V V V A V V ",
"s s A A s s s V V s V A A A V V V s A A V s V V s V V V V n n V V n n V V V V n s s s s s s A s A A V V A A V s V A V V A A V V ",
"A s A V V V V V A V V A V V A V D V V s s u A V V S V V V V A V V A A s V s u i s V V s s s 5 s s s V s s V V V A D V V V A D D "
};
