/* XPM */
static char *out[] = {
/* columns rows colors chars-per-pixel */
"64 64 227 2 ",
"   c #19190C",
".  c #130F12",
"X  c #1D0C14",
"o  c #160E1C",
"O  c #1B0D1C",
"+  c #0F1016",
"@  c #141214",
"#  c #15131C",
"$  c #1A121B",
"%  c #181818",
"&  c #270A0F",
"*  c #32050E",
"=  c #3A080E",
"-  c #2E0613",
";  c #240B14",
":  c #2C0A15",
">  c #29071B",
",  c #230D1A",
"<  c #2B0D1C",
"1  c #330514",
"2  c #3D0512",
"3  c #340B15",
"4  c #3C0B15",
"5  c #350618",
"6  c #390718",
"7  c #330C1A",
"8  c #3B0C1B",
"9  c #2D1216",
"0  c #271915",
"q  c #22121B",
"w  c #2B131B",
"e  c #3B1213",
"r  c #36141B",
"t  c #33131D",
"y  c #3B111B",
"u  c #19230C",
"i  c #192A15",
"p  c #1F3419",
"a  c #26291F",
"s  c #3B2A1C",
"d  c #26381A",
"f  c #3B3717",
"g  c #160F22",
"h  c #1B0D22",
"j  c #161121",
"k  c #1A1222",
"l  c #1B1924",
"z  c #300D20",
"x  c #3D0D22",
"c  c #2A1424",
"v  c #231C25",
"b  c #2A1A23",
"n  c #281826",
"m  c #361724",
"M  c #3B1524",
"N  c #3B1A26",
"B  c #341E28",
"V  c #3D1D2A",
"C  c #2B1B34",
"Z  c #1D2127",
"A  c #272927",
"S  c #24242C",
"D  c #2B232D",
"F  c #3B2424",
"G  c #33222A",
"H  c #362429",
"J  c #2A322F",
"K  c #2A2733",
"L  c #362A35",
"P  c #3E2935",
"I  c #34343D",
"U  c #3A343E",
"Y  c #33383E",
"T  c #4F0C0F",
"R  c #460713",
"E  c #430B14",
"W  c #4C0D14",
"Q  c #440D1A",
"!  c #4C0C1A",
"~  c #520D1A",
"^  c #44131C",
"/  c #4B1719",
"(  c #4B131D",
")  c #42191F",
"_  c #53131D",
"`  c #58171D",
"'  c #64171F",
"]  c #45271D",
"[  c #47321A",
"{  c #4D0F20",
"}  c #441523",
"|  c #4B1422",
" . c #421A24",
".. c #4C1A24",
"X. c #451629",
"o. c #4B1629",
"O. c #441C29",
"+. c #4C1C2A",
"@. c #541523",
"#. c #5B1624",
"$. c #541C25",
"%. c #5C1C25",
"&. c #541729",
"*. c #5B162A",
"=. c #531C2B",
"-. c #5C1C2B",
";. c #481D32",
":. c #551B32",
">. c #5D1B32",
",. c #651724",
"<. c #6B1626",
"1. c #641B25",
"2. c #6A1A25",
"3. c #65162B",
"4. c #6A1729",
"5. c #631B2B",
"6. c #6A1A2A",
"7. c #711826",
"8. c #711929",
"9. c #661C33",
"0. c #45232C",
"q. c #48262A",
"w. c #5D2126",
"e. c #54222C",
"r. c #5B222C",
"t. c #56322B",
"y. c #432632",
"u. c #4B2332",
"i. c #442C34",
"p. c #4C2A35",
"a. c #432C39",
"s. c #4B2D39",
"d. c #522333",
"f. c #5A2433",
"g. c #512B34",
"h. c #5D2A39",
"j. c #43323A",
"k. c #4B323E",
"l. c #54323E",
"z. c #5B323C",
"x. c #652227",
"c. c #63212B",
"v. c #632836",
"b. c #284E14",
"n. c #304811",
"m. c #245817",
"M. c #365C15",
"N. c #30701F",
"B. c #2E5128",
"V. c #3C4435",
"C. c #326D25",
"Z. c #346A2B",
"A. c #386333",
"S. c #457334",
"D. c #362C40",
"F. c #333641",
"G. c #3B3743",
"H. c #353A43",
"J. c #3C3C46",
"K. c #463443",
"L. c #4B3642",
"P. c #463A44",
"I. c #4B3A45",
"U. c #443E49",
"Y. c #4B3D49",
"T. c #533642",
"R. c #583343",
"E. c #543944",
"W. c #533D49",
"Q. c #4B3D56",
"!. c #653A45",
"~. c #3E424B",
"^. c #474147",
"/. c #42434B",
"(. c #4B434C",
"). c #574345",
"_. c #53414C",
"`. c #485C42",
"'. c #454651",
"]. c #4B4651",
"[. c #454B56",
"{. c #4C4B55",
"}. c #474D59",
"|. c #4A4E5A",
" X c #534854",
".X c #4C545F",
"XX c #54525B",
"oX c #6B474B",
"OX c #77474D",
"+X c #6E5A5A",
"@X c #4B6040",
"#X c #5B7756",
"$X c #71655B",
"%X c #6A775F",
"&X c #4E5561",
"*X c #505762",
"=X c #515964",
"-X c #555D68",
";X c #665764",
":X c #755460",
">X c #5F646F",
",X c #716F62",
"<X c #6D766E",
"1X c #656872",
"2X c #4E933B",
"3X c #518C44",
"4X c #6CAB4F",
"5X c #72966A",
"6X c #847D91",
"7X c #9A949C",
"8X c #BA9498",
"9X c #9F99A3",
"0X c #A091A0",
"qX c #BC99A5",
"wX c #B2B1AC",
"eX c #B5A9B4",
"rX c #BCB5BA",
"tX c #C19CA9",
"yX c #C5B0B1",
"uX c #D9C1BB",
"iX c #C9B7C6",
"pX c #D9CCD0",
"aX c #EAD7DB",
"sX c #F2E1DC",
"dX c #ECDAE3",
"fX c #F1DDE3",
"gX c #F9E9EE",
/* pixels */
"&X-X|.}.&X&X-X*X&X&X&X&X=X=X.X}.&X&X&X&X&X=X&X&X&X&X&X'._._.W.W.W.W._. XXX&X-X*X.X>X}..X|.}..X[..X}.}..X.X.X=X.X.X[..X>X.X.X&X>X",
"&X*X.X.X&X*X&X.X&X&X.X.X*X&X.X.X&X&X&X&X&X*X&X&X&X&X{.L.e.-.-.5.9.5.-.f.W. X&X&X=X.X.X.X=X.X.X.X.X}..X.X.X=X.X.X.X}.}..X.X}.~..X",
".X&X&X&X.X*X.X.X.X.X.X.X}..X.X.X}.|.&X&X&X&X}.|..X{.l.r.,.5.4.2.#.*.@.$.d.W.|.&X.X>X.X.X.X.X.X=X.X.X.X=X=X.X.X.X.X.X.X.X&X.X&X&X",
"&X.X&X&X.X&X.X&X.X}..X.X}.}..X.X}.&X&X&X&X&X}.&X{.T.%.2.8.6.,.#.( } N V  .y.W.|..X.X.X.X.X.X.X.X=X.X.X.X=X.X.X.X=X.X.X.X&X=X&X&X",
"&X.X&X&X&X.X.X*X*X.X.X.X*X&X.X.X.X&X&X&X.X.X*X|.E.f.4.<.7.<.4.5.%.e.M m B 0.q._..X|.[..X.X.X.X.X.X.X}.}..X.X.X}.&X&X&X&X&X=X=X&X",
"&X.X=X=X.X[..X*X&X.X&X&X&X&X&X=X&X&X&X&X&X.X.XY.=.-.<.8.<.4.5.*.%.5.%.} t z $.e. X.X.X.X=X=X.X=X}..X.X=X.X.X}..X&X&X&X&X&X&X&X=X",
"}..X&X=X.X.X.X&X&X&X.X[..X&X&X&X&X}.|.&X&X*X&XL.| _ 6.2.6.5.@.R %.%.-.+.t p.e.r.(..X.X.X.X.X.X.X.X.X.X.X.X=X.X}.~.=X=X&X&X&X=X&X",
".X&X*X*X&X.X.X*X&X.X.X}..X.X&X&X&X|..X.X.X&X&XI.X.! ,.,.5.>.=.1 E =.0.z < j.l.g.]..X=X=X.X.X.X.X.X.X.X.X}..X.X}.&X&X&X~..X&X=X&X",
".X=X&X&X=X=X.X=X*X&X&X&X.X.X&X&X&X.X&X&X&X&X&XI.X.6 Q $.$.} < 5 6 +.z > , P W.g.]..X=X.X.X=X.X.X&X&X&X.X}.&X&X&X&X&X=X&X&X&X~.-X",
"&X&X.X.X.X=X.X.X&X&X=X.X.X.X.X&X.X.X&X.X&X=X&XL.M - < w w q ; ; 1 =.=.t ; q j.s.]..X.X.X.X=X.X.X&X&X&X.X&X&X=X&X&X&X=X=X&X&X&X&X",
"&X=X.X.X.X.X.X=X&X&X&X.X&X}.}.&X&X&X}.}.&X&X.XK.M , h O . . O ; 8 e.$...9 O P P ].-X.X.X.X.X=X.X=X&X.X.X.X&X&X&X&X&X&X&X}.&X&X&X",
".X=X=X.X=X=X=X.X&X&X.X.X.X.X.X&X.X.X.X.X&X=X].a.m c C l # S n , 7 | %.r.t O c G.|..X.X.X.X.X.X.X&X&X.X&X&X=X&X&X&X}.&X=X&X&X&X&X",
"=X&X&X}.}.=X.X.X&X&X=X&X&X&X&X&X=X&X&X&X&X=XK.m q ;XiX6X/.rX0Xc > y %.%.+.c # I '..X.X.X.X.X|..X.X&X&X.X}.&X&X&X&X&X&X&X&X&X&X=X",
"=X.X=X.X}..X}..X&X&X=X=X&X&X&X&X&X=X&X&X&X&XL.m , K Q.D.v ^.K.h O ; 3 =.:.7 o l ~..X.X.X.X.X.X.X.X&X&X.X}.&X&X&X}.~.&X&X&X&X&X&X",
".X&X&X=X.X.X}..X.X&X.X=X&X&X&X&X&X*X&X&X&X|.L.x O h h g @ O h h k O 3 :.:.x O + Y [..X.X.X.X.X.X&X&X.X.X&X&X&X&X&X&X&X}.&X&X&X&X",
"&X=X=X.X&X.X.X&X}.[.&X&X&X&X&X.X&X&X*X*X*X{.R.} X h h g o # O j # ; 3 =.:.z ; O I [..X.X|.|..X.X=X&X.X.X&X=X&X&X&X&X&X&X&X&X&X&X",
"=X&X&X=X=X&X.X.X.X.X.X.X.X>X>X.X.X.X.X.X.X).f.e.z O k o o $ k O X : } =.d.t ; ; b J..X&X.X.X&X&X&X&X.X.X}..X.X=X=X&X=X&X&X&X.X~.",
"&X.X.X=X=X.X~..X.X.X.X.X.X.X.X.X>X=X.X.X{.l.f.d. .> h h k $ O X 3 ( -.f.r q & & q H..X*X=X=X.X.X&X&X.X.X.X.X&X&X&X&X&X&X&X.X&X&X",
"&X&X.X&X&X&X&X&X.X.X.X.X.X.X.X.X.X.X.X.XP.p.-.-.&.x > O k o ; 5 ( 5.5.e.0 X r y t G /.&X.X&X.X.X&X.X.X.X&X&X&X&X&X&X&X.X.X.X&X&X",
"&X}.&X&X&X&X&X&X.X.X.X.X.X.X.X.X.X.X|.(.O.y +.-.9.*.x , o X z o.*.6.%.^ ; ; q.w.| O.^..X.X&X*X.X.X.X&X&X.X&X.X&X&X&X&X~.}..X.X.X",
"&X~.&X=X=X&X&X&X.X.X[..X.X.X.X.X.X.X^.g.| 4 E @.6.9.| < X , ;.>.3.4.o.5 : y %.1.1.>.l.]..X.X*X.X.X.X&X&X&X&X&X&X&X&X&X.X.X.X.X}.",
"&X.X.X&X&X&X&X&X.X.X.X.X.X.X.X.X'./.).v.5.| E R @.5.| 6 z z ;.9.9.*.5 - x %.5.' 6.6.r.l. X*X>X}.~..X&X.X&X=X=X&X&X&X-X&X&X.X.X.X",
"&X&X.X.X&X&X&X&X.X.X[..X.X.X.X}.U.G E.v.9.5._ 2 E $.{ Q +.} +.:.>.@.3 x $.#.1.1.2.2.2.r.W..X.X.X&X&X&X.X&X&X&X&X.X&X=X&X.X&X.X.X",
"&X=X&X&X&X&X&X&X.X.X|..X|.[.'./.G 9 = ! 5.5.%.` Q Q ! E ....4 =.Q 6 | =.%.R ~ 5.2.2.<.1.z.XX.X.X&X=X&X.X.X&X.X.X.X&X=X&X&X&X.X&X",
"&X&X=X&X&X&X~.&X&X.X=X1X<X;X'.I.V Q E 2 @.%.1.6.5...4 y ^ ..Q ..Q Q %.6.-.R = _ c.6.5.5.e.)..X.X.X&X&X.X.X=X}..X.X&X&X&X&X&X&X&X",
"&X&X&X=X&X&X&X&X&X.X>XeXaXrX;X:Xh.-.c.^ | %.2.4.6.c.r.e.) = ` E $.%.1.1.-.Q 1 } | =.#.#.%.T..X*X&X.X.X&X&X-X}..X.X.X.X.X&X.X.X.X",
"&X~.&X&X&X&X&X&X&X&X>XeXdXfXyX!.v.6.2.$.^ @.2.<.4.2.1.5.w.T 2.' T x.1.1.r...t : : 7 Q T %.z. X.X&X&X&X.X&X.X.X.X.X&X=X.X.X.X.X}.",
"&X.X&X&X&X&X&X&X&X&X>X9XaXaXiX:X!.9.4.-.4 ( ,.<.6.8.<.,.1.' 7.7.' 1.x.x.( 4 1 3 w M ) _ ` 5.W..X=X&X.X&X=X&X.X&X&X=X&X}.}..X.X.X",
"&X&X&X&X&X&X=X=X&X&X&X>X7X7X+XH z ,.6.9.R ( / _ ,.6.8.7.7.<.7.' 2.x.` / E R &.>.} 5 | 1.,.5.L.&X.X&X.X&X&X=X=X&X&X&X.X&X&X.X.X&X",
"&X=X&X&X&X&X&X&X=X~.&X&X-X.Xj.q , *.4.5.! | E W %.1.1.<.7.7.1.2.,.` E R E &.3.4.&.Q _ 5.1.r.I.&X&X&X.X}..X&X=X&X.X.X.X=X&X&X&X&X",
"&X&X&X&X&X=X&X&X&X}.&X&X.X{.i.% q $.4.6.~ ( / = / w.w.` <.6.2.x.%.! -.%.3.3.6.6.1.W _ 1.5.e.J.&X&X&X}.}.&X.X&X.X.X&X&X.X&X&X=X&X",
"&X&X&X&X=X&X-X=X=X=X&X&X.X{.i.% X $.6.3.*.r.$.E ^ ^ e c.2.1.%.c.e.f.v.-.5.6.4.<.1.1.1.1.$.0.H.&X&X.X&X&X&X=X&X.X.X&X&X&X.X.X.X&X",
"&X.X&X*X&X&X.X.X&X&X&X&X.X].i.$ q +.3.! &.>.! 2 ^ / E 5.6.6.OX8XqXtX8XOX! =.1.2.2.1.2.%.} w I .X&X.X.X&X.X&X[.}.&X&X&X.X&X&X&X&X",
"&X&X&X&X&X&X&X&X.X.X&X&X*X{.p.q , =.*.! $.=.Q 2 ^ / E w.5.OXuXsXfXdXwX+Xr +.x.' 1.2.%.| 7 q I }..X*X*X.X.X&X.X.X.X.X&X=X&X&X.X&X",
"&X.X}.}..X.X&X&X.X.X.X&X*X Xp.< , +.-.x X.d.| Q ( 2 W r.e.oXuXsXgXpX+X,XF  .w.1.,.%.{ 5 , v F.}..X*X.X.X&X&X.X.X&X.X&X&X&X&X.X&X",
"&X.X.X}..X&X&X.X.X&X.X.X&X{.i.w , +.| 5 V d.+.&.{ Q $.g.q.q.$XuXpXwXB.%XF e.w.1.1.| 5 > $ K [..X&X&X&X.X&X&X&X&X&X&X&X.X.X.X.X&X",
"&X.X=X=X&X&X&X}.}.&X.X[.|.{.s.q , O.8 : V p.+.o.} Q &.r 0 F t.OXE.V.p %Xs o.1.2.-.Q > , j Y .X&X-X&X&X&X.X.X.X.X&X=X.X&X&X.X&X&X",
".X.X&X&X&X=X.X.X.X&X.X.X.X.X^.G < O.3 : < t 3 } | Q | - q q.] ]   u @XV.9 o.5.5.{ < h O j F..X&X.X.X&X&X.X.X&X&X&X&X~..X.X.X.X&X",
"&X&X&X.X.X&X&X.X.X&X&X&X.X|./.i.7 O.8 : ; * E #.%.@...- 7 e./ ] d `.V.  3 +.e.| z h k # S ~..X&X&X.X&X&X&X&X.X&X&X&X.X.X.X&X&X&X",
"&X&X.X.X&X&X&X&X&X&X.X.X.X.X{.i.8 +.4 : r } @.5.,.x.) - ^ e.e.s p B.u & ) $.) ; O h g j F.&X&X.X*X&X.X.X.X&X.X&X&X&X&X&X&X&X&X&X",
"&X.X&X&X}.&X&X&X&X*X.X.X&X&X{.i.y +.} 9 r q.%.,.,.%.^ y Q e.[ n.b.A.  & +.e.9 X $ k g l ~..X.X&X&X&X&X&X}.&X&X&X&X&X&X&X&X&X&X&X",
".X&X&X}.[.&X&X&X.X&X.X&X&X.X|.s.0.p.d.w ; 3 $.5.-.( y O.4 ] [ n.m.3XS.0 O.X.: ; k k g K ~..X.X.X.X.X&X}.~.&X&X&X&X.X&X.X&X&X=X&X",
"~.&X&X&X&X&X&X.X&X.X=X*X.X*X.Xk.E.R.d.P w : X.r.$.8 r O.4 [ M.S.N.C.5XA b < ; X k h j F.&X=X.X.X&X.X&X&X=X&X&X&X&X&X.X&X&X&X&X-X",
"&X&X&X&X&X&X&X&X.X.X-X.X.X.X].k.W.W.K.(.L w N e.} 3 w y e [ M.4X2XN.5Xa # c X O h h k F.}.}..X&X&X&X&X&X&X&X&X&X&X&X&X&X&X&X&X&X",
"&X.X&X&X.X&X&X.X.X.X*X&X}.[./.P.{.{..X{.Y w F d.} 5 < - e f M.4X2XC.5Xp + o O q h h j F..X.X.X&X.X&X.X.X&X&X&X&X~.&X&X&X.X&X&X&X",
"&X&X&X&X.X}..X&X.X.X.X.X|.|..X.X|..X.X.X|.L 0.u.} x M 1 = f M.2XZ.C.5XA + g n $ g h j F..X.X.X&X&X&X&X&X&X&X&X~.&X&X&X.X.X&X=X&X",
"&X}.&X&X&X~..X.X}.'..X*X.X.X&X.X}.&X*X&X|.I V u.} 5 1 1 e f d m.C.S.<XA # k U C k j j F..X&X.X.X&X&X.X.X&X&X&X&X&X&X&X&X&X&X&X.X",
"&X&X&X&X&X&X&X.X.X}..X*X&X*X=X&X&X&X.X.X.XI c N  .} X.1 4 s u n.B.#Xi # o $ G.J.S j # F.*X*X.X.X~.}.&X&X&X&X&X&X&X=X&X&X&X&X&X~.",
"&X&X}.}..X&X&X&X&X.X&X&X&X&X&X&X&X&X&X&X}.J.n V X.X.X.1 8 0.; a u u @ O # # F.~.~.Z j H..X&X.X&X&X&X&X=X&X&X&X&X&X&X&X&X&X&X&X.X",
"&X&X&X&X&X&X&X&X&X&X=X&X&X&X&X&X&X&X&X&X&X.XP.y.u.;. .1 8 o.7 H % @ $ h l j F.~.~.Z j H.&X&X&X=X&X&X&X&X&X&X.X.X.X.X.X&X=X&X.X&X",
"&X&X&X.X&X&X&X&X}.&X&X&X&X&X&X&X&X&X&X&X&X&X~.D.V u.X.1 6 ;.x P O # k k I l ~.~.~.S + H..X&X.X&X&X&X&X&X.X&X&X&X.X.X&X.X&X&X.X&X",
"&X&X&X&X&X&X&X&X&X&X&X&X&X&X&X&X}.&X&X&X=X&X|.H.D V M - x ;.x ;., v H.L /.D ~.&X~.J Z ~..X.X.X.X&X&X&X&X&X&X&X&X.X&X&X&X&X.X.X&X",
"&X&X&X&X&X&X&X&X=X&X&X&X&X&X&X&X}.&X&X&X&X}.&X}.U G F 5 8 d.:.u., v '.}.~.~.&X~.~.J F.}..X}.}..X&X&X&X&X&X.X=X=X.X&X&X&X.X&X&X&X",
"&X&X&X&X&X&X&X&X&X~.&X&X&X&X&X&X=X&X&X&X&X&X&X&X/.D w < x h.h.0.n D [..X&X&X&X}.}.F.~.&X&X}.}..X&X&X&X&X&X&X=X&X.X&X&X&X.X&X=X&X",
"&X&X&X&X&X~.&X&X&X}.&X=X&X&X&X&X&X&X&X&X&X&X&X&X.X~.J D N =.d.p.j.D [.&X=X&X&X&XF.K ~.&X&X.X.X&X&X.X&X&X&X&X&X&X.X&X-X&X.X&X&X&X",
"&X&X&X&X&X}.&X&X&X&X&X=X&X&X&X&X&X&X&X&X&X&X&X&X.X.X'.U.L P u.s.Y.L }.&X&X&X&X&XF.H.}.&X&X.X.X.X&X.X.X.X&X&X&X&X&X&X&X.X.X.X.X&X",
"&X&X&X&X&X&X&X=X=X&X&X&X&X&X&X&X&X}.&X&X&X&X&X&X&X|.&X|.}.'.Y.s.L.'.|.&X&X.X&X.X}.}..X.X.X.X.X}..X.X&X&X.X&X&X&X&X&X.X&X.X&X.X&X",
"&X&X=X=X&X~.&X&X&X&X&X&X&X&X}.&X&X}.}.&X&X&X&X}.|.}.&X&X&X&X|.U.K.|.&X&X-X&X.X.X&X&X&X&X&X&X.X}..X&X&X&X.X=X&X&X&X&X&X=X&X.X.X&X",
"=X&X&X&X&X&X=X&X&X&X&X&X&X&X&X~.&X&X&X&X&X&X&X&X&X&X&X=X&X*X&XQ.].|.&X.X&X.X'.|.&X&X-X&X&X=X.X.X&X.X&X&X&X&X=X-X=X.X&X&X.X.X.X&X",
"&X&X=X=X=X&X&X&X&X&X-X&X&X&X&X&X}.&X&X&X&X&X&X&X&X&X&X&X&X&X.X}..X.X&X.X[.&X&X&X.X&X&X&X=X=X&X.X.X.X.X.X.X.X~..X&X&X.X&X&X.X&X-X",
"&X&X&X&X&X}.&X&X&X&X&X&X&X&X&X&X&X}.&X&X&X&X&X&X&X&X&X&X.X.X&X.X.X.X&X&X|..X&X.X.X&X=X.X&X&X.X=X&X.X.X.X&X&X.X.X.X&X.X-X&X&X=X=X",
"&X&X&X&X&X~.&X&X&X&X&X&X&X&X&X&X&X&X&X&X&X&X|.&X&X&X&X&X.X&X&X.X&X&X&X&X&X&X.X.X.X&X&X.X.X.X&X=X&X&X&X.X&X=X.X.X&X&X&X&X=X&X&X&X",
"&X&X=X=X&X.X&X&X&X&X&X=X=X&X&X&X&X&X=X=X&X&X&X&X&X&X&X&X&X&X&X&X&X.X&X&X&X&X.X.X.X.X.X.X.X.X.X.X=X.X.X&X&X=X&X&X&X=X&X.X=X=X&X&X",
"&X&X=X&X&X&X&X&X&X&X&X=X&X&X=X&X-X&X&X&X&X~.&X&X&X&X&X&X&X&X=X&X&X=X=X&X&X=X~.}..X&X&X.X.X.X}.&X.X&X&X.X&X&X&X&X&X-X&X&X&X=X-X-X"
};
