/* XPM */
static char *out[] = {
/* columns rows colors chars-per-pixel */
"64 64 208 2 ",
"   c #141316",
".  c #171623",
"X  c #36292B",
"o  c #412B32",
"O  c #2B2A46",
"+  c #342943",
"@  c #383949",
"#  c #2F3258",
"$  c #333653",
"%  c #3B3C54",
"&  c #33335A",
"*  c #3B3658",
"=  c #363A65",
"-  c #3B3C63",
";  c #363B6B",
":  c #3B3E71",
">  c #493947",
",  c #463E4A",
"<  c #543D46",
"1  c #543D4A",
"2  c #493B56",
"3  c #553951",
"4  c #713D44",
"5  c #453D66",
"6  c #3E4357",
"7  c #3E435A",
"8  c #3D4263",
"9  c #3F4568",
"0  c #3D4274",
"q  c #3D447C",
"w  c #43434E",
"e  c #53424C",
"r  c #454A56",
"t  c #4B4B57",
"y  c #44435C",
"u  c #4B425D",
"i  c #464D59",
"p  c #494F5A",
"a  c #554856",
"s  c #4C545F",
"d  c #58545F",
"f  c #63444E",
"g  c #63494D",
"h  c #75474B",
"j  c #664854",
"k  c #774D55",
"l  c #66515D",
"z  c #7A5757",
"x  c #434664",
"c  c #454966",
"v  c #494E65",
"b  c #464A69",
"n  c #494D6C",
"m  c #504C6D",
"M  c #4D5561",
"N  c #4D536B",
"B  c #515662",
"V  c #515964",
"C  c #50556C",
"Z  c #555C69",
"A  c #414575",
"S  c #464A78",
"D  c #4C5171",
"F  c #585776",
"G  c #665868",
"H  c #5B627F",
"J  c #6E6274",
"K  c #874E50",
"L  c #855759",
"P  c #975659",
"I  c #925C5B",
"U  c #A35D5E",
"Y  c #9A625B",
"T  c #A6635F",
"R  c #A6685F",
"E  c #A75F65",
"W  c #8A6767",
"Q  c #966566",
"!  c #9B6A64",
"~  c #A56865",
"^  c #B46C66",
"/  c #BA6D6C",
"(  c #A9796A",
")  c #B6746B",
"_  c #BD736A",
"`  c #AD7671",
"'  c #C3786E",
"]  c #C76E71",
"[  c #9A8572",
"{  c #B4806F",
"}  c #A98679",
"|  c #B88171",
" . c #B58679",
".. c #C38373",
"X. c #CC8279",
"o. c #CC8C7A",
"O. c #D78C79",
"+. c #CD997E",
"@. c #D5937E",
"#. c #DB927E",
"$. c #E38E7E",
"%. c #E0917D",
"&. c #414782",
"*. c #424A83",
"=. c #434C8A",
"-. c #48508B",
";. c #545382",
":. c #464F91",
">. c #475093",
",. c #485295",
"<. c #455199",
"1. c #4B569C",
"2. c #5D6184",
"3. c #5D628A",
"4. c #6A6E89",
"5. c #4D57A1",
"6. c #4E59A3",
"7. c #505BA6",
"8. c #525DAB",
"9. c #5460AF",
"0. c #5662B4",
"q. c #5864B7",
"w. c #5966BB",
"e. c #5B68BF",
"r. c #737BA4",
"t. c #5D6BC4",
"y. c #5F6DC9",
"u. c #606ECA",
"i. c #6271CF",
"p. c #886B88",
"a. c #8E768E",
"s. c #917D80",
"d. c #7680AE",
"f. c #7B84B6",
"g. c #8D818F",
"h. c #9D8B8F",
"j. c #A88885",
"k. c #AA928E",
"l. c #B69A82",
"z. c #BA9D83",
"x. c #8888AD",
"c. c #8289B3",
"v. c #868FBB",
"b. c #8E94BF",
"n. c #9595B1",
"m. c #B098A0",
"M. c #B3A3AC",
"N. c #ABAABB",
"B. c #CC9D87",
"V. c #D89883",
"C. c #E29984",
"Z. c #EC9C84",
"A. c #F09E86",
"S. c #DAA589",
"D. c #DAA58B",
"F. c #DBAA90",
"G. c #D3B392",
"H. c #E6A88C",
"J. c #F2A187",
"K. c #F4A489",
"L. c #F2AA8C",
"P. c #E4B08E",
"I. c #EBAD92",
"U. c #EDB492",
"Y. c #E2B896",
"T. c #F5B595",
"R. c #F2BD9C",
"E. c #CBB7AA",
"W. c #D7BAAA",
"Q. c #E1BAA6",
"!. c #F8C49E",
"~. c #DCC6A6",
"^. c #E5C8A3",
"/. c #F4CEA5",
"(. c #FACCA3",
"). c #E7D7AB",
"_. c #F6D2A9",
"`. c #FCD5A9",
"'. c #F5DBAD",
"]. c #FCDBAD",
"[. c #FEDFB0",
"{. c #FEE0AF",
"}. c #FDE1B1",
"|. c #8A94C4",
" X c #949CC9",
".X c #9AA4D4",
"XX c #ACACC7",
"oX c #A2ABCC",
"OX c #A2AAD1",
"+X c #AAB4D5",
"@X c #A5ADE1",
"#X c #ABB3E1",
"$X c #BDC4E8",
"%X c #C4CBE4",
"&X c #C5CBEA",
"*X c #CCD2E4",
"=X c #CCD4EB",
"-X c #DBDFEC",
";X c #D1D6F1",
":X c #D3D9F2",
">X c #DEE1EE",
",X c #DFE3F5",
"<X c #E0E3EB",
"1X c #E9ECF6",
"2X c #EEF1F8",
"3X c #F3F5FA",
"4X c #F4F6FA",
"5X c #FDFDFE",
/* pixels */
"M V s r s M Z V M s s s V V s i M M M M M Z M s s M M r s s s s M s V V M M Z V s V s s p s s r s i s s s s V s s r s Z s s V Z ",
"M V s s s V s s M V s s V s s s s s s s M V s s M s s s i i 6 i r p i s V M M M V Z V s s s s s s s s s s V s s s s i s s s s s ",
"s B M M s V s s s s s s p p s s p s M M s M s s M s r 9 q q *.S *.q 7 i M M M s s V s s s s s s s s s s V s s s s s s s s s s s ",
"s s M M s s s s s s s s p s s s p s M M s s p s s 7 S 8.y.i.i.i.i.t.8.S 6 s M M s s s s s s s s s s s s s s s s s s s s s s s s ",
"M s s M M s s V V s s s s V s s s M M M M s M M 7 1.t.u.u.u.u.u.y.t.q.>.# $ i s s s r s s s V s s s p i s s s s s Z s s V Z V s ",
"M s V V s r s M M s s s s s s V s M M M s s s 7 -.t.u.u.u.u.u.u.t.q.0.9.,.*.= 6 i s s s V V s s i s s V s s r p s s s s s s s Z ",
"i s V V s s s s s s s t s s s s s i p M M M s 8 q.u.u.u.u.u.u.q.q.t.e.e.6.w.e.=.6 s s s s s s s s s s s s s s i s s s s s Z V s ",
"s M V M B s s V V s s s s s s V s s s s s M r -.t.u.u.u.u.u.u.-.q.e.u.q.9.y.y.q.9 s V s s s s s s s s s s s s s s s s p s s s V ",
"s V s V V V s V M M V s s s s V M s M M s M 6 6.u.u.u.u.u.u.5.<.7.q.u.q.q.u.u.t.q i s s s s s s V M M s p M M M s s V s s s s V ",
"V s s s s Z s s M s V s s s s s s s M M M V y 7.u.u.u.u.u.t.*.9.>.e.u.0.9.u.u.u.q 6 s s s V V s M M M s M M V M s s Z Z s s s s ",
"s V s s s V s s V M s M s p i V M s i r s s 9 w.u.u.u.u.u.9.: 6.q i.u.6.1.t.t.t.q r s s s V s s V s s s s M M M s s s s s s s s ",
"s V V s s V s s s s s s s s s s M s s s M s = 0.y.u.u.u.t.*.; <.0 w.0.&.; t.t.6.q p s s s s s s M s M s M V M s s s s Z V s s V ",
"V V s s p s s s s s V s M s s s Z M M M M v = 8.t.y.y.0.&.; ; &.1.6.6.S , 1.9.>.7 s V s s s i s s V M s p M M s s p s M s s V V ",
"V s s s p s s s s V V V V s s V M V M s s p = 7.6.8.6.5 > $ ; = 1.<.q W +.F 9 6 6 s V s s s s s s M s s p s M M p p s s s s s V ",
"s V s V s s i s s s s Z V s s V M B B M s r = 7.6.6.&.Q B.Q - &.# O . X ( ! w r s s s s s s s s M s s s s V V M s s V s s s s s ",
"s V V s s s s s s p s s s V s s M M M M M p : 7.6.6.& ( T.V.m 5.,.O X   o 4 a p s s s s i i s s V M s s s V M M M s s s V V s s ",
"V s V V s V s s s s s M M V V s M V M M s 6 -.1.6.6.5 Q U.T.s.,.5.> m.2.} { I e s s V s s s s M V M s s r M s V V s V s s V s r ",
"V s s V V s i s M s s M M M M M V M M s s 6 1.6.6.7.=.3 o.R.[ &.5.G W.f.E.`.H.L 6 V s V V M M s M s s s s s V V M s s s s s s s ",
"s s s s V s p s M s M M s s s M V M M M p 0 6.6.6.6.=.= f ` z ;.5.J ^.Q.).'.+.k s s s V M V M s M s s s s s V M s M s s s s s s ",
"s s s V M s s s s s p s M s s s s s M M 6 q 7.6.6.<.q q + 4 P 3 <.G ).]./.P.L r s s M s s s V s s s M M s s s s M V s r s s s s ",
"M p M V V s V M M s 6 s V M s s s s M M @ q 8.7.6.<.q ; + E ] k 0 l H.Y...z w p s M M M s M M M s s V V s s s M M M M s s s s 6 ",
"M s s s s s V M M s M M s s s s 6 s s s 6 -.7.7.6.:.; + F p.E ] ~ P Q k g p s s s s i s s V V s r s s s M V V V M V V M s s s s ",
"s M M s M M s s s s 6 s s s s s s s s 6 8 1.6.7.5.q A 3.a.|.r.p./ / 4.F s s M M s s 6 s V V M s s s s s s s M M M M V M s s s M ",
"s V M M M s M s s s s s s s s V s V p 6 8 6.6.7.5.: 2.x.E.~.M.oXp.V.V.a.d.H Z s s s s s V M M M s V s s s V s s s M V M M V s M ",
"M V V M M M s s s s M M s p s M s V s 6 8 1.6.6.1.7 h./.[.}.~.XXOXh.B.j.+X*XN.F M M V M M M s s s M M s s V p s s M M s V M M M ",
"s s M V s s r s s s M M p s s V V s s 6 7 6.<.<.1.O +.}.[.[.}.k.XX#XN.XX*X4X3XN.Z M M s s M s M M s s M M V p s s s M M s s s s ",
"s i p M M s s M M s M s s s s s V M s p 9 6.>.1.,.1 G.'.[.[.R.V.n.4X4X4X2X2X*X<X4.V s s s M V M M M M s M M s s M M V s s s s 6 ",
"s M s M V M M M M M V M s s s V s M s M 6 -.<.1.0 z '.}.[.'.D. .XX4X5X5X5X1X#X1Xb.Z 6 s M V M s V s s M V s M s M M M r p M M M ",
"s M M M V M V V s M M s s s M V M M M M 6 7 q q # z }.}.{.{.#.a.%X5X5X5X5X5X>X+X@X2.7 V V M M s M s s M M M V V M M s M M s s M ",
"M V M M V V V M s r s s M M s s s s s s s p 6 6 O z }.{.}./.` c.;X5X5X5X5X5X3XoXd.V M V M M M M M M s s s M V M s s s V M M M M ",
"s M M s s V M M s p M M M M s s s p p s V s s s 6 W {.{.{.F.a. X&X5X5X5X5X5X2XN.M s s M s M s s M s p p s M M s s M M s M M V M ",
"M s M M V M V V V V M s M s V V s s V V s V s s e +.{.{.'.} v..X;X;X,X5X5X4X%X XV s M V s M M s M s s s M V M s s M M M s s s M ",
"V s s M M s s s M M M s s p p V s Z s s s V s s < D.}.[.'.} |.#X1X$X#X&X&X=X;Xv.N s s s s s s M s s s s s s i s s s s s s s s s ",
"s s s s M s V M M s M M V M s M s s s s s s Z V < D.}.[.'.}  X:X1XOX.X@X.X+X.X3.p i s M M M s i s V M s s s s s s s s V V V s s ",
"s s p p s s s s s s s M M M M s s s s p s s V s < D.[.[._.' a.-X1Xc.d.|.d..Xd.p s i s s s M s s M M M s s V s s s s s V V s s V ",
"V s s s s M s s s s s s s M M V V s p s V s s s < ' `.[.[.I.Q XX*X$X Xf.F r.F s s s s s M M s s M M s s s V s V s s V s s s s s ",
"s s V V M M s s p M s r s M V V V s V s V V s s > T (.].}.`.#.a.oX+Xf.F C M V V s i s s V V s V Z M s M s s s s s V s s s s s V ",
"s s s V M V M s s s s s M s s M s s s s s s s V < U (.}.].}.`.D.M.n.g.e s s s M s s s s s s s s s s s V s s M s s s r s s s s s ",
"s V s s s M M s s s M M s p p M s s s p s s s s a 4 F.}.}.}.].'.) l.^.Q t s M M V s s s s s s s M s M M s M s s s s s s s s V s ",
"s V s s s s V M s V s s M s p M s V s s s s s s s e | _.I._.}.}.Y.} ). ., s s M s s V V s s V s V s s s M M s V s s s V V s V s ",
"s s s s s M V M V s s s V s s s V V V s s s V s s d h F.C.L.`.].^.! ).z.o M M s s s V s s V s s V s s s s s s s V s s V V s s V ",
"s s s s 6 M M s s s M M M s M s s s s s s s Z s s Z a | #.^ L.T.#.{ ).z.w s M M M s s s s s s s s s s s i s s s s s s s s V V s ",
"r V s s s s s s M M V s s V V V s s V V s s Z s s s W #.' _ ' $.( G.}.z.e s s s V s s M s s s s s s s s s s s V V s s s s s V Z ",
"s s s s M M V M s V V s s M V V s s s s s s s s s s l K K K.S...B.'.}.z.w s V V V s Z M s s s s s V V s s s s s s V s V s s s s ",
"M s M M s M M s s s M V p s s s s s s s s s s t p s s g Y ..[.}.}.{.}.z.w s s s s s V s s s s s s M s s s s s p s s s V s V V s ",
"M M M M s p s M s p s s p s s s s s s V s Z p r p s a ) ' Y !.`.}.{.}.z.w s p s s M V s s s s V s s V s s s V s s V s s s V V s ",
"M s M s s 6 s s p r s s s s V s p s V V s Z s s s s L O.Y ! H.!.}.].{. .w s t p V s Z s s s s s s M s s s V s V s s s s s s s s ",
"M M s s M M M s p p V V s s V s s s s s s s s s s a Y R F.'.].[.}.}./.! w s t p s V s s V V s s r s M s V s s s s V s s s s s i ",
"M s p p s V M s s s s s s M V s M M M M s M M M M B h ^ T.[.}.}.].(.o.a b M N M M M M M M M s M s s V V M M M M M M s V s M s s ",
"M M s s s V V s s s V V V s M s s M M M M M M N b 5 j O.L.(.].!.V.~ j b b b b b v V M V M M M V s s M M M M M s s s M M V M s M ",
"M M s s s s M M s s V V M s s M s s M M V N n c u I X.J.J.J.#.T j 5 b b c b b b n D v C M s M M s s s s s M M M s s M s V M s M ",
"M V M M M s s M V s s s V V M s s M M D D b 9 9 k A.K.A.O.^ ^ h x b b b b c c c b 9 n D v s s s M M M s s M M M s M M M s s s M ",
"s M M M V s s V V s s s s M V s i M N D b b b * ^ K.A.^ _ O.J./ 2 b b b b 9 c c b b b 9 D v i M M V V s M s Z M s M V s s s s M ",
"M M V M M s s s s r M s s s s s V V n b b b b 2 ( K.%.' Z.J.K.Z.( a b b b c v v b b b b 9 v i M M M M M V M V V s s s s s V V M ",
"V M s M s r s s s s s V M M V M M N A b b N b % Y K.' ~ @.Z.A.K.V.f x b n c c n n n b n n n v M M M s M s M M M s V V V s M M M ",
"M M M s s p s M M s V M V V V M M v b b b b b c a ! k > f K ~ ~ L x b b n b c c n b b b n 9 v s s s s s s M M M V s V s s s s M ",
"s s M V s s s V V s M M M M M M s N c b b b b b c y x b c x 2 y 5 b b b b b v b n 9 n b 9 n v s M s s M s M s V V s s s s s s V ",
"V s V V s r s V M s M M M s s s s c b b b b b b c c b b b b b b b b b b n b x b n 9 v b n n M 7 s s M V s V s M s s s V M s s s ",
"V s V s s s V V M M V M s s s r s M D b b c b b c b b n b b b b b b b b b b x x N n C 9 n C M M M s M M s M V V V s s s s s s s ",
"s V V V V M s s s M V M s s s s M M V D D b b b b c b b b b b b b b b x x b b b 9 9 D 9 C Z M M s s s s M s 6 s s M V V M s V Z ",
"s s V s s p s M M s M s s M M M M s s M N D b b b b n b b b b b b b b b x b b c 9 9 Z V M M M V M s s s s s s s s s s V M M V V ",
"V s s V s p s s M M s s M V M V M M M M M M N b b b n b b b b b b b b b b b b b V M V M M s s V M M s M M V s s s V M V V V V s ",
"s s V V s s s s M s s V V V M s M M M V M M M M M N v n b b n b b b b n n v v M s s s s M s s s V M s M V V V s V V M s V V s M ",
"V s V V M M s V V M M V M V V M Z M M M M r B M M V M B N M M M M C M M B M i p s M s s s s i s s M M s M s s M V V M s s V Z Z "
};
