/* XPM */
static char *out[] = {
/* columns rows colors chars-per-pixel */
"64 64 166 2 ",
"   c None",
".  c black",
"X  c #221825",
"o  c #272127",
"O  c #332030",
"+  c #3E2A3B",
"@  c #45312F",
"#  c #542D3B",
"$  c #5F2F38",
"%  c #6D353F",
"&  c #282946",
"*  c #3C314E",
"=  c #2D2E50",
"-  c #2F3258",
";  c #303359",
":  c #333762",
">  c #3C3760",
",  c #373965",
"<  c #353B6A",
"1  c #383D6C",
"2  c #393F71",
"3  c #432B44",
"4  c #5B3041",
"5  c #5D3440",
"6  c #413258",
"7  c #4B3C5F",
"8  c #5E3851",
"9  c #5B3D54",
"0  c #713B44",
"q  c #3D4276",
"w  c #3C447C",
"e  c #3F467E",
"r  c #734341",
"t  c #7F4C4B",
"y  c #7C4B4E",
"u  c #734B50",
"i  c #764B52",
"p  c #4E476C",
"a  c #484C74",
"s  c #41477F",
"d  c #53547E",
"f  c #624965",
"g  c #726177",
"h  c #854C4D",
"j  c #884950",
"k  c #8C4950",
"l  c #85545C",
"z  c #925555",
"x  c #915C5B",
"c  c #9D625B",
"v  c #A6605E",
"b  c #8E5160",
"n  c #9C5B68",
"m  c #A05C63",
"M  c #8C6862",
"N  c #966F64",
"B  c #9A6569",
"V  c #8E7168",
"C  c #9F7165",
"Z  c #926274",
"A  c #A96F68",
"S  c #B16C64",
"D  c #BA6A67",
"F  c #AE7565",
"G  c #A87D68",
"H  c #B27368",
"J  c #BE766C",
"K  c #A96571",
"L  c #A26C75",
"P  c #C5776D",
"I  c #CB7173",
"U  c #D57D78",
"Y  c #908072",
"T  c #A2806F",
"R  c #B68A78",
"E  c #C98372",
"W  c #CA8A76",
"Q  c #D28075",
"!  c #DD8D7B",
"~  c #E08A7E",
"^  c #404986",
"/  c #434B88",
"(  c #585B84",
")  c #454F90",
"_  c #4A549A",
"`  c #756787",
"'  c #7F688B",
"]  c #616790",
"[  c #646C9A",
"{  c #6B6F9B",
"}  c #4E59A3",
"|  c #4E59A4",
" . c #4F5AA5",
".. c #515BA5",
"X. c #535FAD",
"o. c #535FAE",
"O. c #5864B8",
"+. c #6A75A0",
"@. c #7678A6",
"#. c #5C69C1",
"$. c #616FCB",
"%. c #807489",
"&. c #887A95",
"*. c #B17983",
"=. c #83809C",
"-. c #8A899F",
";. c #A2918E",
":. c #9B9BB5",
">. c #9F9FB9",
",. c #AA9FB7",
"<. c #B4ACAE",
"1. c #ABA6B2",
"2. c #DF9B83",
"3. c #DF9C85",
"4. c #D79E89",
"5. c #C39C90",
"6. c #EA9783",
"7. c #EB9E87",
"8. c #CFB099",
"9. c #D0B090",
"0. c #E3A58A",
"q. c #ECA48B",
"w. c #E2AB8F",
"e. c #F5A489",
"r. c #EEAD91",
"t. c #E3B293",
"y. c #EFB395",
"u. c #F7B393",
"i. c #F8B997",
"p. c #F0BC9B",
"a. c #F9BF99",
"s. c #CBA8A5",
"d. c #D1A8AA",
"f. c #D5BEB8",
"g. c #F9C09B",
"h. c #FAC29D",
"j. c #FBC8A1",
"k. c #FCD1A7",
"l. c #FDD7AB",
"z. c #FFE0B1",
"x. c #8E93C3",
"c. c #8C98C8",
"v. c #919DCB",
"b. c #9BA7CF",
"n. c #9FACD2",
"m. c #A4A8C5",
"M. c #ABAEC5",
"N. c #A4A7CB",
"B. c #AAB6D6",
"V. c #AAB4DD",
"C. c #AEBBD9",
"Z. c #B1BBD7",
"A. c #A6AEE1",
"S. c #B4BDE8",
"D. c #B9C0D7",
"F. c #BDC6DA",
"G. c #C0C9E4",
"H. c #C8CEE5",
"J. c #CBD1EF",
"K. c #D6DDEC",
"L. c #D2D6F0",
"P. c #DEE2EC",
"I. c #E1E5F7",
"U. c #F0F4FE",
"Y. c #F7F9FE",
"T. c white",
/* pixels */
"                                                                                                                                ",
"                                                                                                                                ",
"                                                                                                                                ",
"                                                                                                                                ",
"                                                                                                                                ",
"                                                                                                                                ",
"                                                                                                                                ",
"                                                                                                                                ",
"                                                      2 X.$.$.$.#./                                                             ",
"                                                    : X.$.$.$.$.$.$.#.,                                                         ",
"                                                : ) | O.O.#.$.$.$.$.$.#.                                                        ",
"                                              : $.$.) $.O.#...$.$.$.$.$./                                                       ",
"                                              X.$.$.O.$.$.X./ $.$.$.$.$.#.                                                      ",
"                                              O.$.$.} $.$.) X...$.$.$.$.$.                                                      ",
"                                              o.$.$./ #.$.s O.q $.$.$.$.$.2                                                     ",
"                                              _ O.#.&  .O.e  .- | $.$.$.O.1                                                     ",
"                                              ; _ e G e _ O.1 - - / O.O. .1                                                     ",
"                                                  N F @ - - / + R x _  . .1                                                     ",
"                                                  r . o X  . .V 7.T 1  . .e                                                     ",
"                                                v y.s.>.u  .e g.q.y )  . . .                                                    ",
"                                                2.z.f.d.Y  .1 t.W 7 )  . . .                                                    ",
"                                                t g.z.z.Y  .9 j O w ^  . . .1                                                   ",
"                                                  0 2.a.M 1 m I 5 < w  . . .1                                                   ",
"                                                      f b I K ' @.* < _  . ._                                                   ",
"                                                    [ %.U n N.-.<.+.a )  . . .                                                  ",
"                                                =.D.m.0.8.N.1.z.z.l.g e  . . .                                                  ",
"                                              =.Y.Y.G.M.Z.B.5.z.z.z.T 1  .)  .                                                  ",
"                                              D.H.I.T.T.T.:.~ z.z.z.w.>  .) _                                                   ",
"                                            { J.H.T.T.T.T.D.B k.z.z.z.O  .) 1                                                   ",
"                                            ( c.P.T.T.T.T.I.&.4.z.z.z.O ; =                                                     ",
"                                              d T.T.T.T.T.J.v.*.z.z.z.#                                                         ",
"                                              { V.U.T.I.S.I.c.` z.z.z.c                                                         ",
"                                              ( V.C.A.A.A.Y.S.` z.z.z.c                                                         ",
"                                                [ b.x.c.] U.L.Z h.z.z.c                                                         ",
"                                                  @.d c.S.K.,.H l.z.j.h                                                         ",
"                                                      p n.F.L k.z.z.h.%                                                         ",
"                                                      R ;.l z.z.z.z.w.$                                                         ",
"                                                      j.9.w.z.z.p.l.H                                                           ",
"                                                      z.T g.z.j.~ w.$                                                           ",
"                                                      z.9.! e.E D W                                                             ",
"                                                      z.z.A D 3.S P                                                             ",
"                                                      z.z.z.z.h.c                                                               ",
"                                                      z.z.z.l.u.c J                                                             ",
"                                                      l.z.z.j.4.C E k                                                           ",
"                                                      H l.z.z.z.j.c c                                                           ",
"                                                      6 S r.l.z.i.! 3                                                           ",
"                                                          8 v 6.e.e.Q i                                                         ",
"                                                            S S v 6.e.! 6                                                       ",
"                                                          i 6.e.e.v e.e.3                                                       ",
"                                                        3 e.e.e.e.S e.e.3                                                       ",
"                                                          i c z 4 3 i i                                                         ",
"                                                                                                                                ",
"                                                                                                                                ",
"                                                                                                                                ",
"                                                                                                                                ",
"                                                                                                                                ",
"                                                                                                                                ",
"                                                                                                                                ",
"                                                                                                                                ",
"                                                                                                                                ",
"                                                                                                                                ",
"                                                                                                                                ",
"                                                                                                                                ",
"                                                                                                                                "
};
