/* XPM */
static char *out[] = {
/* columns rows colors chars-per-pixel */
"64 64 200 2 ",
"   c #221816",
".  c #312731",
"X  c #4B3034",
"o  c #62343F",
"O  c #67433C",
"+  c #2E2E4F",
"@  c #332E48",
"#  c #34374E",
"$  c #353755",
"%  c #32345B",
"&  c #393B59",
"*  c #363965",
"=  c #3B3C64",
"-  c #3A3E6D",
";  c #383E73",
":  c #493947",
">  c #533D49",
",  c #583E54",
"<  c #413C67",
"1  c #3D414C",
"2  c #3D4253",
"3  c #3D425C",
"4  c #3F4562",
"5  c #3D416C",
"6  c #3B4175",
"7  c #3E447C",
"8  c #4B444E",
"9  c #594249",
"0  c #4A4756",
"q  c #454B56",
"w  c #464D5A",
"e  c #494F5A",
"r  c #564557",
"t  c #5D4554",
"y  c #504B54",
"u  c #4C545F",
"i  c #57525C",
"p  c #67494D",
"a  c #73494E",
"s  c #664855",
"d  c #6E4E58",
"f  c #774D54",
"g  c #6B5359",
"h  c #755358",
"j  c #7E615E",
"k  c #444665",
"l  c #454966",
"z  c #494E66",
"x  c #4A426A",
"c  c #464A69",
"v  c #494D6C",
"b  c #4D5561",
"n  c #4C526A",
"m  c #505763",
"M  c #515964",
"N  c #555C68",
"B  c #4C4F71",
"V  c #41487B",
"C  c #594F72",
"Z  c #4D5271",
"A  c #555875",
"S  c #6E5F66",
"D  c #675C74",
"F  c #5F637C",
"G  c #60667D",
"H  c #834D53",
"J  c #875655",
"K  c #945D59",
"L  c #A55A5F",
"P  c #8C615D",
"I  c #9C625B",
"U  c #91685E",
"Y  c #A3655E",
"T  c #AB5F64",
"R  c #866468",
"E  c #9C6963",
"W  c #9B7469",
"Q  c #816976",
"!  c #926D7A",
"~  c #A56A61",
"^  c #AC6F65",
"/  c #B56A69",
"(  c #A97368",
")  c #B8736A",
"_  c #A26573",
"`  c #A87978",
"'  c #C47B6E",
"]  c #C76F72",
"[  c #AD8574",
"{  c #B68575",
"}  c #AE927B",
"|  c #B5967C",
" . c #C88775",
".. c #D28978",
"X. c #CE927E",
"o. c #D4927C",
"O. c #DB937E",
"+. c #E2937E",
"@. c #3E4782",
"#. c #434B85",
"$. c #444D8B",
"%. c #4A518C",
"&. c #444E90",
"*. c #475195",
"=. c #495295",
"-. c #495499",
";. c #4B559B",
":. c #615F83",
">. c #5C6186",
",. c #676C95",
"<. c #73769C",
"1. c #7C7699",
"2. c #4D57A2",
"3. c #4E59A4",
"4. c #505AA5",
"5. c #525DAA",
"6. c #5460AF",
"7. c #5662B3",
"8. c #5764B8",
"9. c #5966BB",
"0. c #5B68BF",
"q. c #6F75A3",
"w. c #7677A3",
"e. c #5D6AC3",
"r. c #5F6DC8",
"t. c #606ECA",
"y. c #6270CD",
"u. c #907188",
"i. c #837DA0",
"p. c #7E84AD",
"a. c #9E8798",
"s. c #B18487",
"d. c #AB9696",
"f. c #BAA688",
"g. c #BDA89B",
"h. c #8487AB",
"j. c #928BAC",
"k. c #8991AB",
"l. c #838BB8",
"z. c #8892BA",
"x. c #9799B8",
"c. c #A49EAD",
"v. c #AF9EBB",
"b. c #9DA1BB",
"n. c #ACA2AA",
"m. c #AEA3B1",
"M. c #CA9B85",
"N. c #D99983",
"B. c #E59781",
"V. c #E59981",
"C. c #EB9E85",
"Z. c #D9A78A",
"A. c #CBA995",
"S. c #D7B493",
"D. c #D9B794",
"F. c #E9A58B",
"G. c #F2A287",
"H. c #F4A489",
"J. c #F6AD8E",
"K. c #EAAF91",
"L. c #F3AE91",
"P. c #E6B996",
"I. c #F4B897",
"U. c #FAC49E",
"Y. c #D5C3AE",
"T. c #EACCA4",
"R. c #F5CAA3",
"E. c #FBCDA3",
"W. c #E7D3A9",
"Q. c #F8D3A9",
"!. c #F6DBAE",
"~. c #FCDCAE",
"^. c #F7DFB0",
"/. c #FDDFB0",
"(. c #FDE1B1",
"). c #8B93C1",
"_. c #919DCD",
"`. c #9CA5C9",
"'. c #9EA6D4",
"]. c #A7ACCD",
"[. c #AFB2C8",
"{. c #A8B3D4",
"}. c #AAB5D7",
"|. c #B6BBD5",
" X c #ABB3E5",
".X c #BEC4DA",
"XX c #C3C3D2",
"oX c #C6CDE6",
"OX c #CCD2E4",
"+X c #CCD2EB",
"@X c #D6DCEC",
"#X c #CCD3F0",
"$X c #D8DFF4",
"%X c #DDE0EE",
"&X c #DDE2F8",
"*X c #E4E6ED",
"=X c #E9ECF5",
"-X c #EEF1F9",
";X c #F4F6FC",
":X c #FCFDFE",
/* pixels */
"b N u q u m N M u m u u N N u q M u u u M N u u u b b w u u u u u u m N u u N m u M u u u e u q u q e u u u b b u q u N u u u N ",
"b m u u u M u u u m u u m u u u u u u u u M u u b u u u u u u u u u e e N u u u M N u u u u u u u u u u u M b u u u w u u u e N ",
"u b u u u M u u u u u u e u u u e u u u u M u u u u u u u w 1 2 1 2 1 e u u m u M M u u u u u M u u u u M u u u u u u u u u e u ",
"u u b m u u u u u e u u e e u u e u M M u u w u u u u u 3 %.;.;.;.2.*.7 3 u m u u u u u u u u u M u u u u u u u u u u u u M u u ",
"b u u u m u u m m u u u u m u u u M u u u u u M b u 2 %.7.r.t.y.y.y.y.0.4.3 w b u u q u u u u b u u u w u u u u u N u u M M N u ",
"b u m N u q u M m u u u u u u N u u u u u u u u u 2 =.r.t.t.t.r.r.r.e.9.3.5 + 2 u u u u M M u u w u u u u u q e u u u u u u u N ",
"w u m m u u u u u u u q u u u u u e u u M M u e 2 7 t.t.t.t.t.t.y.e.8.8.9.5.-.@.4 u u u u b u u u u u u u u u w u u u u u M M u ",
"u m m m u u u m M u u u u u u M u u u u u u u u 3 6.y.t.t.t.t.t.7.5.0.0.e.-.0.y.;.4 b b u u u u u u u u u u u u u u u w u u M M ",
"b M b b b M b b m u u u u u M M b u b b u m u 2 V e.t.r.t.y.r.r.6.4.9.r.e.6.r.r.e.5 b b b b b b M b b u e b b b u u M u u u u M ",
"u b u u b M b b u u N u u u u u u u u b u N u 1 #.y.t.y.y.r.y.e.-.4.5.y.e.7.r.r.t.;.z u b b b u b b b u u b M b u u N N u u u u ",
"b M b u b b u b M m u u u e w M u u e e u u u 1 %.y.y.r.r.r.r.7.7 =.9.r.9.2.r.y.t.3.1 u u b b u b b u u b b b b u u u u u u u M ",
"b M M u b M u u u u u u u u u u u u u u b N u 3 5.t.r.t.t.t.e.6 ;.7 7.r.5.@.e.r.e.-.# u b u b u b b b u b M b u u u u N M u u u ",
"b b b u w b b u u u M u u u u M N u u u m m e & ;.e.y.t.y.0.=.% =.7 2.7.*.+ 4.r.5.$.# b u u w b u b b u e b b u u w u M u b M M ",
"M u u u e u u u u M M M M u u M m m m u u u q & ;.7.e.e.7.$.; % 7 $.5.-.%.@ 6 5.;.6 w u u e e u u b b u e u b b u e u u u u u b ",
"b b b M u u w u u b b N M u u M m m m u u u q $ ;.3.3.3.< o > + 6 % 5 & g { i * # 2 u u u u u u b b u u u M M b u u u u u u u b ",
"b M M u u u u u u w u u u u u u u u m m u u e & ;.3.5.@.h D.X., =.=.% X   o W X 2 u u u w e u b M b u u b M b u u u b u M M u u ",
"M u M M b b u u u u u b b b b b b b b b u b q 1 2.2.3.; s I.J.S -.3.* X . . O a e b M b u u b b M b u u q u b M M u M u u M u 2 ",
"b u b b M u e u b u u b b b b u M b b b u q 2 1 ;.3.3.&.s o.I.S -.5.* s.b.d.Z.' a u b b b b b u u u u u u u M M u u u u u u u u ",
"b u u b M u e u u u b u b u u b b b b b u u u 4 2.3.3.*.< K I.Q *.3.k S.v.m.!.U.( y u b b b b b b u u u u b u M b u b e u u u M ",
"b u u b b u b b u u u u b b u b M b b b u M 2 7 2.3.2.#.6 # J f ; 3.6 D.R.^.!.S.h u b b b b b b u u b b u b u u b M u e u u u u ",
"u e b M b b M b u u 1 u b b u u u u b u u u 2 7 4.3.2.7 ; % o L , 2.; D./.R.Z.P q u M u b b b u u u M M u u u u u u b u u u u 1 ",
"b u b u u b M b b u M b b b u u 2 u u u u u 2 @.4.2.-.@.- @ H ] / , : ..Z. .f 8 u u q u b M M u 2 u u u M M M M M M N b u u u b ",
"u b u u b b u u u u 1 u u u b u M u u b b u 4 %.2.2.&.- % C w.u._ ] T h s y y u u u q u M M b u M u u u u M u u u u M u u u u b ",
"u M b u M u u u b b b u u b b b u M u 4 b u 4 5.2.2.#.% :.h.x.w.i._ ] u.>.N u u u u u u b b b b u M u u u u u u u b M u M M u b ",
"u M M b M u u u b u M u u 2 M b u M u e b 4 3 3.3.2.4 S d.Y.!.A.[.j.u.J.` h.A b b u b b b b u u b b b b b b e u u b M u b M u u ",
"b u M M u u 2 u b u u M u u b b u M u u b u 5 3.@.2.r D./././.!.d.].v.u.! ].,.F u u b u u b b b b u u b b M q u u u b b u u u u ",
"M 2 e u b u u u u u u u u u u u M b u u 4 2 3.@.=.; 8 T./././.!.] j.%XXXXX}.z.XXG u u u u b M b b u b b b b b u u b M M b u u 2 ",
"b u u u M b b b u M M u u b u M u u u M M 2 2.3.*.- 9 T./././.R.B.i.*X:X:X$X|.=Xk.M 2 u b b b b b b b b b b b M b M b 2 u u b M ",
"b b b b M b M M b u b u u u b M b b u u M 1 @.3.=.= W !.~./.(.N.N.c.=X:X:X:X=X+X.XG u M M b M u b b b b b b M b b b b b u u u b ",
"b M b b M M M b u u u u u M u u u u u u u 1 5 @.; . } (././.(. .s.|.:X:X:X:X-X}.@Xp.b M u u b b b b u e b b b b u u b b u b b b ",
"u b b b u M b b u e u b M u u u u e u u u u 1 1 q @ } (./././.( 1.@X:X:X:X:X;XOXOX`.b u u b u u b u e e b b b b u b b u b b b M ",
"b u u b M b M M b M u u u u M M u u M M b M b u b S M.^.~./.P.h l.&X:X:X:X:X:X=X{.`.N M b b b u b u u u b b u u u b b b u b u b ",
"b u b b u M u u b b u u u e e M u N u u u M M u u a I.(./.(.| i.'.&X;X:X:X:X:X%X).).n u u u u u m u u u u b w e u u b u u u u b ",
"b u u u u u M u u u b M M b u u u u u u u u N u u J E.(./.(.| w.}.$X#X-X:X:X-X|.,.>.n u u m u w u m m u u u u u u u u M M b u b ",
"b u u e u u u b u u u b M b u u u u u e u u N u 8 ) E.(./.!.` p.].@X'. X#XoXoXp.Z w u u u u b u u u u u b b u u b u b M M b u b ",
"b u e u u b u u u b u u u u u M u m e e M u u u : X././.(.T.R a.b.%Xp._. X_._.p.m u u u b b u u m m u u u m b b u b b u u u u b ",
"b u M M u b b e e u u q u M M N N u M u M u u u > Z.^./.(.W.E N.n.#Xz.q.q.,.>.v u w u u M M b b N u u b u u b u b M u u u u u b ",
"b u u b b M b u u u u u u u u u u u M u u u u N > X.(./.~.P.S m.n.z.l.,.q.p.A b u u u u u u b b m u u m u u b u b u 2 u u u u b ",
"u M b u u b b u u u b b u e q b u u e e u u u u > o.E.E.L.C.` |.+XoX|.].`.x.D m M u u u u u b u u u b m u u b u u u u u u u M u ",
"u b u u u u M b b M u u u u u b M u u u u u u u > o.J.U.E.I.N.! <.n.g.g.A.W.[ 8 u u M b u u b u m u u u u m u m b b u M M M u b ",
"b u u u u b M b b b u u b b u b M M M u u u u u X X.U.~././.I. .W ^.(.^.^.(.S.9 u u m b u u u b M b u u u u b b b b b M b b b b ",
"u b u u 1 M u u u b b b b b b u u u b u u u M M 8 [ (././.~.U.O.) D.(.(././.U.U 2 b u u u u u b u u u e 2 u u b b u b u u b M b ",
"2 M u u u u u b u b M u u M M M u u M M u u N u u P ~.U./.!.I. .^ f.(.(././.^.[ y u u u u M u u u u u u b b b b b b u b u b b N ",
"M u u u b b M b b M M b u b b M u u u u u u M u u a K.F.E.K...L U W.^.(././.^.D.s e N b e u u M u M M u u b u u b b b b b u b M ",
"b b b b u u u u u u M b e e u M u u u u u u w w w p P ) +...) K I S.(.^.^.(.^.T.j e u u u u u u u u u u b b u e u b b b u b M b ",
"b b b b u u u b u e u u e e u u e u M M u N w w u u 1 f Y I K  .C.( M.U./.(./.~.[ y m u u u u u u M b u b b b u u b u u u b b b ",
"b u b u b 2 u u e q u u u b u u w u M M u N u u u u g { +.+.+.J.V.^ X.U./././.^.| y M u u u u u e M b u u b b b u u b u u u b u ",
"u b u b b b b u e w b M u M M M u u u u u u u u u y g +.+.J.H.J. . .Q.~./././.~.[ y u u N M u u 2 u u b b b b b b b b b u u u w ",
"b b q u u b M u u u u u u b M b b b b b b m b u b y Y H.G.H.H.+./ C.J.E./.~.E.Z.g u u u b b u b b b M M u u u b b u u M b u u u ",
"b b u u u M M u u u M M b b u u u b b u u b u u w q ~ J.H.H.H.+.K H.H.H.I.I.o.d e b u N b b b M b b b b u M b u u u u u M M u u ",
"b M u u u u M b u u M M b u u b u u u b b b u u n 0 E G.H.H.H.' Y H.G.G.H.o.d c b M b b b u u b u u u u u b u u u u u u b M u b ",
"u M b u u u u b M u u u M M b u u u u b M b w n n z s O.H.H.O.H ' H.G.G.o.d k c c v n n b u u u b b b u u u M b b M u M u u u b ",
"u b b b b b u M M u b u u b M u 3 u b b M n B c c c 9 O.H...I ) +.H.H.+.d 4 k c c c c v n b w b b M M u u u M M u b M b u u u b ",
"b b b b b b u u e q u u u u b u M b m N Z c c c c c x ) F.Y  .G.H.H...f k c c c c c c c 5 B c b b b u M M b M M u u u u u M M b ",
"b b b b u q b u u u u M b b M u M m b v c c c c c v k P G. .) G.G.N.f k v c c v v v c c c c c b b u u b u u M u u b M M u b b b ",
"b b b b u q u M b u M b M M M b b b m Z c c c l c v & K F.+.Y G.G./ r z c c c c c c c c c c c n b u u u u b u M M b M u u u u b ",
"b u b b u u u M M u M u b M b u u u z c c c c c k c k t J / I F.C.J k c c c c c c c c c c 4 c z u u b u u b u M b u u b u u b b ",
"b u M M u q u M b b b u u u u u u w e l c c c c c k c c k 0 p .. .t c c v c k c c n c c c v c 4 u u M M u M u M b b u M b u u b ",
"M b b b u b N b u b M u u u u q u b b Z c c c c c k c v c v c t s k c c c c k k z 4 n 5 c c c n b u b b u b M M M u b u b u u b ",
"b M M N M u b u u b N b u u u u u b b n v c c c c c c c c c c 4 k c c k k c c k n 5 n n Z c Z m u u u u u u 1 u b b b M b u b N ",
"b b b b b q u b b b b u u b M b u u u b Z v c c c c v c c c c c c c c c k c c c 4 n n 5 4 n M M b u u u b u u u u b b M b b M M ",
"b u b b u e u u b u u b b b b M u u m m n n n c c c c c c c c c c c c v c c c c n 4 5 n N b b M b b b u M M u u b b u M b M b b ",
"b b M M u b u b b u u M M M u u u u m N m u n n c c c c c c c c c c c c c c k c 4 n 4 b b u u b M u u b b M b b b M b u M M b b ",
"b b b M b b b b M b u M b M M b N m u u u q m M n n B v v v c c c v c c c c k c 7 M N b M 4 q u b b b u b b b b M M b b b M N N "
};
