/* XPM */
static char *out[] = {
/* columns rows colors chars-per-pixel */
"64 64 209 2 ",
"   c #291B17",
".  c #1C1623",
"X  c #332832",
"o  c #36333E",
"O  c #4E302C",
"+  c #6C463F",
"@  c #2D2B4B",
"#  c #332D4C",
"$  c #363849",
"%  c #35384B",
"&  c #363757",
"*  c #3A3C51",
"=  c #36395D",
"-  c #363A67",
";  c #393C63",
":  c #363C6C",
">  c #3B3E72",
",  c #463A46",
"<  c #463749",
"1  c #593747",
"2  c #443B56",
"3  c #4A3D59",
"4  c #533D56",
"5  c #6E3C46",
"6  c #3D4153",
"7  c #3C405A",
"8  c #3E4362",
"9  c #3E446C",
"0  c #3A4176",
"q  c #3D447C",
"w  c #49414C",
"e  c #54434C",
"r  c #5B454C",
"t  c #414753",
"y  c #454A56",
"u  c #48465A",
"i  c #474D59",
"p  c #494F5A",
"a  c #584257",
"s  c #544B54",
"d  c #5B4C54",
"f  c #524E5B",
"g  c #4C545F",
"h  c #55525A",
"j  c #65454E",
"k  c #68474A",
"l  c #754849",
"z  c #6B4952",
"x  c #694D57",
"c  c #744C54",
"v  c #7A4D57",
"b  c #6B5456",
"n  c #7A5558",
"m  c #444564",
"M  c #454966",
"N  c #4A4964",
"B  c #464A69",
"V  c #494D6C",
"C  c #5A4A6A",
"Z  c #4D5561",
"A  c #4D526B",
"S  c #515664",
"D  c #515964",
"F  c #56556A",
"G  c #555D69",
"H  c #454B76",
"J  c #584D72",
"K  c #4D5271",
"L  c #585876",
"P  c #725363",
"I  c #59607C",
"U  c #78637A",
"Y  c #874950",
"T  c #835455",
"R  c #87585A",
"E  c #975856",
"W  c #945C5B",
"Q  c #9A5C5A",
"!  c #8B645E",
"~  c #94635D",
"^  c #9B625C",
"/  c #926859",
"(  c #A5635F",
")  c #985864",
"_  c #AE5F63",
"`  c #936861",
"'  c #8A687B",
"]  c #947272",
"[  c #A36463",
"{  c #AB6864",
"}  c #A87369",
"|  c #BA756C",
" . c #BA7A6D",
".. c #AB6673",
"X. c #A2767A",
"o. c #B47773",
"O. c #C16E6D",
"+. c #C27B6F",
"@. c #C96F71",
"#. c #C67073",
"$. c #CB7D72",
"%. c #9C817E",
"&. c #B1836F",
"*. c #B98C78",
"=. c #C38272",
"-. c #C98173",
";. c #C78C7A",
":. c #D58978",
">. c #C8927D",
",. c #D3907F",
"<. c #E08F7E",
"1. c #E1937E",
"2. c #3E4781",
"3. c #3F4A88",
"4. c #404780",
"5. c #434983",
"6. c #454D8C",
"7. c #5C5D88",
"8. c #464F91",
"9. c #495395",
"0. c #4B559B",
"q. c #656B95",
"w. c #4C56A1",
"e. c #4E59A4",
"r. c #505BA5",
"t. c #535EAB",
"y. c #5460AC",
"u. c #5663B5",
"i. c #5966BB",
"p. c #5B68BE",
"a. c #6F77A1",
"s. c #7579A6",
"d. c #5D6BC3",
"f. c #5F6DC8",
"g. c #606ECA",
"h. c #6270CD",
"j. c #84758F",
"k. c #977E8D",
"l. c #7783AE",
"z. c #7C81AD",
"x. c #7B86B6",
"c. c #908796",
"v. c #B18A8B",
"b. c #B69784",
"n. c #A99298",
"m. c #ADA09E",
"M. c #8886A8",
"N. c #9593AD",
"B. c #848BB7",
"V. c #9798B6",
"C. c #9FA2B8",
"Z. c #B0A6AC",
"A. c #D89B85",
"S. c #E59781",
"D. c #E49B82",
"F. c #E59B86",
"G. c #EC9D84",
"H. c #D8A78A",
"J. c #D6AB99",
"K. c #CAB294",
"L. c #DBB896",
"P. c #EAA68B",
"I. c #F2A287",
"U. c #F4A389",
"Y. c #F2A98C",
"T. c #EDAE90",
"R. c #E8B997",
"E. c #F3BD9A",
"W. c #F7BC99",
"Q. c #CEB0AA",
"!. c #D8C49E",
"~. c #E5C39E",
"^. c #F6C59E",
"/. c #D8C6A8",
"(. c #E3C6A4",
"). c #F2CDA5",
"_. c #FACEA4",
"`. c #EBD4A8",
"'. c #F6D2A7",
"]. c #FBD5A9",
"[. c #F5DAAD",
"{. c #FCDDAE",
"}. c #FDDFB0",
"|. c #FEE0AE",
" X c #FCE2B2",
".X c #929DCE",
"XX c #9BA4C6",
"oX c #9DA6D5",
"OX c #A5A9C3",
"+X c #B0B3CE",
"@X c #ABB5D7",
"#X c #B3B9D7",
"$X c #B0B7E4",
"%X c #B7C1E0",
"&X c #C1C5DB",
"*X c #CFD1DE",
"=X c #C3CBE8",
"-X c #CDD3EB",
";X c #D2D5E4",
":X c #D5DAEC",
">X c #D2D9F0",
",X c #DBE0F4",
"<X c #E7E8ED",
"1X c #E4E7F5",
"2X c #ECEDF5",
"3X c #EDF1FA",
"4X c #F4F5FC",
"5X c #F6F9FE",
"6X c #FCFCFD",
/* pixels */
"Z D g y g Z G D Z g g g G G g i Z g g D g G g g g g g i g g g Z g g D D g g G g Z D g g p p g 6 g p g g Z Z Z Z g y g G D Z Z G ",
"Z D g g g D g g D D g g g g g g g g g g g D g g D g g g g g g g g g p i G g g D D D D g g Z g g g g g g g D g g g g y g g p p Z ",
"g S Z Z g D g g g g g g p g g g i g g S g D g g g g g Z g g g g g g g g D D g g D D Z g Z Z g g g g g g Z Z g g g g g g g g g g ",
"g g Z Z g g g g g i g g p p g g g g Z Z g g i g Z g g D g p 6 6 $ % * 6 g g D g g g g g g g g Z D g g g Z g g g g g g g g Z Z g ",
"g g Z Z Z g g D D g g g g g g g g D Z g g g g Z D g Z p M 9 0.y.t.t.t.0.B 7 D Z g g y g g Z Z g g g g y g g g g D D Z g D D D D ",
"Z g D D g y g D D g g g g g g G g g g Z g g Z g g g p 8 0.p.g.h.h.h.h.g.p.9.= 6 6 i g g Z Z g g y g g Z g g y p g g g g g g Z D ",
"i g D D g g g g g g g y g g g g g y g Z Z D g p p p 8 y.h.g.g.g.g.f.f.d.u.0.9 & & 6 i g Z Z Z g g g g g g Z g p p g g g g D D Z ",
"g S Z Z g g g D D g g g g g g D g g g g g Z g g g i 9.g.g.g.g.g.g.f.p.p.u.p.w.0.e.3.6 g g Z g g Z g g g p g g g g g g i g Z Z D ",
"g D D g D D g D g g g g g g g G Z g Z Z g Z Z g g 9 d.g.g.g.g.g.g.t.u.i.d.u.w.f.f.u.- t Z Z g Z D Z g g p g D g g g D g g g g D ",
"g g g g g D D g D g G g g g g g g g Z Z Z D Z g $ 9.g.g.g.g.g.g.i.6.0.u.f.d.u.f.f.f.6.% g Z Z g Z Z Z Z Z g D D g g D G g g g g ",
"D D g g g g g g D g g g g g p g Z Z p y Z Z Z y $ w.g.g.g.g.g.g.e.6.e.f.f.u.u.f.g.f.e.; y Z Z g D Z g g g Z g g g Z Z g g g g D ",
"g D D D g D g g g g g g g g g g g g g g Z D Z g t r.g.g.g.g.g.d.4.6.t.g.f.t.u.f.g.f.e.; 6 g Z Z Z g g Z Z D D g g g g G D g g g ",
"D g g g y D g g g g G g g G g g D Z Z Z Z D Z y 9 u.g.g.g.g.g.5.8.0 0.d.d.8.8.f.f.i.6.% p g i Z g Z Z g p Z g g g i g D g D D D ",
"D g g g g g g g g D D g g g g D Z D Z Z Z Z p t ; t.g.g.g.g.u.- H 6.t.t.t.q & t.d.e.H t Z g p g g Z Z g p g Z Z g i g g g g g g ",
"g g D D g g y g g g D G D g g g Z D Z Z Z g y t ; e.u.p.p.r.0 @ q > 8.5.5.P / F 6.q 7 g p Z Z g Z Z g g g D D g g g g g g g g g ",
"D D D g g g g g g p g g g g D g Z Z Z Z Z g g 6 H e.e.r.0.u j , 8.6.> * ` *.T.&.. o p Z i p g Z D Z g g g D D g g g D g D D g g ",
"D g D D Z Z g Z g g g D g D D g Z D Z Z g g g 6 9.e.e.e.> ` R.P 8.e.e.2 O   + } o p D g g g Z Z Z Z g g 6 D Z D D Z D Z g Z g 6 ",
"D g g D D g i g g g g Z Z g Z Z D Z Z Z g i 6 6 0.e.e.e.- ! E.H.7.e.e.# r X X l b g g D D Z g g Z Z g g g g D D Z g Z Z g g g D ",
"g g g g D g p g g g Z g g g g Z D Z Z Z g g 6 7 e.e.e.e.5.v F.T.F e.w.3 Q.z.J.R. .k g Z Z D Z g Z g g g g Z g D Z Z Z g g g Z Z ",
"g p g D Z g Z g g g g g Z Z g g g g Z Z g D 6 q e.e.w.0.2.3 { E.k.3.e.S (.V.Q.{.^.R g g g g D g g g Z Z g Z g g Z Z g 6 g g g g ",
"Z i Z D Z Z D Z Z g 6 g D Z g g g g Z Z g g 6 3.e.e.e.3.q > < R l J w.F `.'.{.'.>.d g g g Z Z g g g D D g g Z g Z g Z g g g g 6 ",
"Z g g g Z Z D g Z g Z Z g g g g 6 g g g g g 0 y.e.e.0.2.> > X Y _ 1 > d ).[.R.;.b i i g g D D Z 6 g g g D D D D D Z G g g g Z Z ",
"Z Z Z g Z Z g g g g i g g g Z g Z Z g Z Z 6 3.y.e.w.3.> > @ 1 ) @._ 5 ) 1.>.} j y p y g D D Z g D g g g g D g g g g D Z g Z g Z ",
"g D Z Z Z g Z g g g p g g g Z Z g D p p g 6 3.e.w.w.3.: - q.s.M.j...@._ P d s f g g g g D Z Z g g D g g g g g g g Z D g D Z g Z ",
"g Z D Z D g g g g g g g g p g Z g D g p g % 3.r.r.3.0 t j.N.N.XX+Xk...#.' L 7.S Z g Z Z Z Z g g g Z Z g g D g g g Z D g D Z g g ",
"Z g D D g g i g g g Z Z i g g Z Z Z g g g % 8.r.0.q - ` ).{.(.b.N.-Xk.v.T.n.XXM.I g g g g Z Z Z Z g g Z Z D y g g g Z Z g g g g ",
"Z y p g g g g g Z g Z g g Z g g D Z Z Z Z % 3.t.6.0 4 H.}.}.}.].n.+X>XV.U U +X1X&XN.G Z g Z D g Z Z Z g Z Z g g g Z D D g g g y ",
"Z g g Z D g D Z Z Z D Z g Z Z D g Z Z Z G i 2.t.4.- R '.}.}.}.P.o.+X5X2X;X*X>X,X3X2XC.8 Z D Z Z D Z g Z D g Z g Z D Z 6 g g g g ",
"g Z Z Z D Z D D Z g Z g g Z Z Z Z Z Z Z Z Z 7 3.2.@ %.|.|.|._.:.n.:X6X6X6X6X6X;X@X3X;XI Z Z D g g g g Z Z Z D D g Z g Z g g g g ",
"g D Z Z D D D Z g g g g Z Z g Z g p g g Z g 7 3.q < >. X|. XR.} N.5X6X6X6X6X5X;XN.<X-Xl.Z g Z Z Z Z g g g Z D Z g Z g D g D D Z ",
"g Z Z g g D Z Z g p g Z Z Z Z Z g 6 g D Z Z 6 7 - j ).|.|.|.H.j.@X6X6X6X6X5X6X<XV.%X@Xx.D g g Z Z g p p g Z Z g Z Z Z g g D D g ",
"Z g Z Z D Z D D g D g g Z g Z D Z Z D D Z D D 6 * n [.{.|.`.v.B.>X6X6X6X5X3X3X<Xx..XoXl.D g Z g Z g g g Z D Z g g Z Z Z g g g g ",
"Z g Z Z Z Z g g Z g g g g p y D g D Z g Z D Z g w } {. X{.`.' s.#X4X6X3X>X3X=X=Xs.l.l.L g g g g Z g Z g g D y p g Z Z g g g Z Z ",
"Z g g g Z Z Z Z Z g Z D D D g g Z Z g g g Z D Z < *.{.|. XR.P x.$X=X%X-X>X,X.XB.a.l.q.A g Z g i g Z Z g g g p g g g g D D Z g g ",
"Z g p p g g Z Z g g g Z D Z g g g g g p g g D g < ;. X|. Xb.C x..X@XoX$X5X1XB.l.l.q.L g g Z Z g g Z Z g D g g g Z g Z D D Z g Z ",
"Z g g g g Z g g g g g g g g g D Z Z p g Z Z g g , ;. X X X*.3 M.M.%XoX=X6X6XXXoX7.J Z g Z Z g g Z Z Z g g D g g Z Z g g g g g Z ",
"g g D D Z Z g i i Z g y g D D G D Z g Z Z Z Z g e >.{.{.}.b.C k.k.XXB.-X4X3XXXM.X.^ h g Z Z Z Z G Z g Z g g D g g D g g g g g Z ",
"Z g g D Z D Z g g Z g g g g g g Z Z Z g Z g Z g v F.{.}.}.*.M.#XV.XXV.XX+X@Xa.' U.1.n i Z Z Z Z g g g D g g g g g g y g g g Z Z ",
"g D g g g Z Z g g Z Z Z g p y g g g g i Z g g y W Y.{.].W. .Z.5X3X1X:X;X%XOXa.] U.U. ., g g Z Z Z g Z Z Z g g g g g g g g Z D g ",
"g Z g g g g D Z Z Z g g D g g g Z Z g g Z Z h y ~ Y.^.^.W.A.n.>X%XOXZ.c.m./.K.{ O.1.-.1 g g h g D g g g g D g D D g g D Z Z Z g ",
"Z g g g g g D Z D g g g g D g g D D Z g g g g d >.).{.{.{.^.o.U Z.(.[.[.{. X X*.E 1.:.Y y g g g D g g g g g g Z Z g g D D g g Z ",
"g Z g g y g g g g g g D g g D g g g g g Z g g r L.[.{. X}.].I.[ ~.|. X X}.{. XL.{ $.$.T i g g g g g g g 6 Z g g Z g g g g D D D ",
"i g Z g g g g g D g D g g D D D g g D D g g D d !.E.{. X_.'.A.$.}  X|.|.{. X{.`.^ ( ( e g g Z g g g g g Z Z g D D g g g g g g G ",
"g g g g Z Z D Z g g G D g D g D g g g Z g g g r H.,.W._.T.). .Q T ^.{. X X{.{.{.*.r s g p g g Z g D D g g Z g g g g D D g g g D ",
"Z Z Z Z g g g g g g g g y p D g g g g g g g p e ` ( I.Y.+.H.` =.Q ^ ^.{.|. X X XK.s g g g g g g g g g g g g g p p Z Z Z g g D g ",
"Z g Z Z g g g Z g g g g g g g g g g D g g g p y w e ~ :.( Q | S.l e ` ~.{.|.{. X~.b S Z g g g Z g Z D g Z Z Z g g D g g g D D D ",
"g g g g g i g g p y g g g g g g y g D D g G g g g h v Q Q :.I.$.e p s } R.[.{.{.]./ h Z g g g g g Z g g g D Z Z g Z Z g Z g g g ",
"Z Z g g g Z Z g g y g D g D G g g g g g g g g g g k :.U.U.U.U.Q f g g e { P._. X]./ g g D D g g 6 g g Z Z Z g g Z D Z Z g Z Z 6 ",
"D Z i i g D Z g g g Z Z g Z D Z Z D g Z Z D g g y ( I.I.U.I.S.n g g a ` F.I.T.E.T.n g Z g g g g Z Z D D g g Z Z Z Z g D Z g g g ",
"Z g g g Z Z Z Z g Z D D Z Z Z g g Z g g g g g g ,  .I.I.U.I.$.s p N z :.I.U.U.I.=.d g D D g D D Z Z Z Z g D g g g g Z Z D Z g Z ",
"Z D g g g g Z g g Z Z Z Z Z g Z g g g Z D g g g , =.U.U.I.I.[ u B m T G.U.U.I.I.[ f D Z g g g g g g Z g g D g g g Z Z g Z Z Z Z ",
"g D Z Z Z Z g Z Z Z g Z D Z Z g g g g Z D Z p g , | U.U.U.S.c B B m c <.U.U.I.D.c m A A Z g g g Z Z Z g g g Z D g Z Z Z Z g g Z ",
"g Z Z Z D Z g D Z g g g g Z Z g i g g Z Z Z A K N W I.I.U.-.4 V B V 4 =.U.U.U.$.a m B V V N p g Z D D g g g D D g Z Z Z g g Z Z ",
"Z Z Z Z Z g g g g i Z Z g Z Z Z D g Z D Z K M V B j G.I.U. .3 B B B < +.U.I.U.| 2 B M B B B V A Z Z g D D g D D g Z Z Z g D D g ",
"D Z g Z g y g g g g g D Z Z D Z A g Z Z K H B B B j G.U.U.S.R u m B 2 { U.I.U. .3 V B V B B B A Z g g g g g Z g g Z D Z g Z Z Z ",
"Z Z Z g g p g D Z g D Z D D D g Z Z Z Z V V B B 9 j G.U.U.U.S.v m B B c I.U.U.:.x m B B B B B V D g g g g D g D Z Z D g g g Z Z ",
"Z g Z Z g g g D D g Z Z Z Z Z Z g g g M V V B B m a } -.D.G.1.n m B B 1 F.U.U.I.:.x m B B B B B Z g Z Z g Z g D D g g Z Z g g Z ",
"Z Z D D g y g Z Z Z Z Z Z g g g g p p Z M V B B m m 3 1 z z z u B B B 3 R | G.U.P.n m B B B B m g Z Z Z g D Z Z Z g g D Z g g Z ",
"D Z Z Z Z Z D D g Z D Z g Z g 6 g Z g A M M B M B B B V m B B B B m B B B a v W R p A B B B B V Z Z Z Z g Z Z D D g Z Z g g g Z ",
"Z D D D D Z Z g g Z D Z Z Z Z Z g g g Z K M B V B B B B B B B B B B B B 8 V m 2 7 B B B V V B V Z Z Z g g g 6 g Z Z Z Z Z g Z G ",
"Z Z Z D Z y g Z Z g Z g g Z Z Z g g Z Z K V V B B B V B B B B B B m B B B B B B A M V B A 9 A G Z g g g Z g g g Z Z Z D Z Z D D ",
"g g Z Z g p g Z Z g g Z Z D Z D g g Z D D A V V B B V B B B B B B B B B B B B B 9 A M B A 9 D D Z Z g g Z D Z g Z Z g D D Z Z Z ",
"Z g D D g g Z Z Z g Z D D D Z g Z g D D Z g Z A V B B B M B V B B B B B B B B B A 9 9 9 D 8 D Z D Z Z Z Z D Z g Z D Z g D D Z Z ",
"Z Z Z D g Z Z Z D Z Z D Z Z D Z G Z g g g i S D D A V V B B V B B V V B B V 8 m 9 D D D D Z 6 Z g g Z g Z Z Z Z D G Z Z Z D G G "
};
