/* XPM */
static char *out[] = {
/* columns rows colors chars-per-pixel */
"64 64 207 2 ",
"   c #161010",
".  c #2F252F",
"X  c #482E3C",
"o  c #614339",
"O  c #302A4C",
"+  c #34364D",
"@  c #3A3E4E",
"#  c #332F52",
"$  c #2F3256",
"%  c #3A3D53",
"&  c #373758",
"*  c #353967",
"=  c #393D61",
"-  c #3A3E6D",
";  c #393E72",
":  c #473C47",
">  c #4B3C4A",
",  c #573D4A",
"<  c #453756",
"1  c #523C54",
"2  c #6D3E44",
"3  c #3E424E",
"4  c #3E4354",
"5  c #3D425B",
"6  c #3E4366",
"7  c #3C4275",
"8  c #3C437B",
"9  c #4B434E",
"0  c #55434B",
"q  c #5B424D",
"w  c #424654",
"e  c #4C4754",
"r  c #454B56",
"t  c #4B4B55",
"y  c #43425D",
"u  c #4C435C",
"i  c #464D59",
"p  c #494E5A",
"a  c #544453",
"s  c #534B54",
"d  c #5B4A53",
"f  c #56475A",
"g  c #4C545F",
"h  c #66464C",
"j  c #6F4A4E",
"k  c #774C4D",
"l  c #725C4E",
"z  c #674956",
"x  c #734D55",
"c  c #754C58",
"v  c #765556",
"b  c #7C625C",
"n  c #434564",
"m  c #454966",
"M  c #4A4E63",
"N  c #46466B",
"B  c #464A69",
"V  c #494D6D",
"C  c #4D5561",
"Z  c #4D536B",
"A  c #515662",
"S  c #515964",
"D  c #57566C",
"F  c #555D68",
"G  c #45487A",
"H  c #4C5171",
"J  c #585875",
"K  c #694D63",
"L  c #635268",
"P  c #785C74",
"I  c #844D53",
"U  c #865656",
"Y  c #8C555B",
"T  c #855A5A",
"R  c #8D5C5C",
"E  c #975859",
"W  c #935C5B",
"Q  c #A25A5D",
"!  c #8B6257",
"~  c #97635D",
"^  c #A6625E",
"/  c #856664",
"(  c #946762",
")  c #9D6462",
"_  c #9C6A63",
"`  c #99756C",
"'  c #966473",
"]  c #8C727A",
"[  c #A56A63",
"{  c #B36466",
"}  c #A97268",
"|  c #B4776A",
" . c #BD746C",
".. c #A77477",
"X. c #C27B6E",
"o. c #CA7374",
"O. c #C47B71",
"+. c #C97B71",
"@. c #A78576",
"#. c #BA8776",
"$. c #C88876",
"%. c #D88A7A",
"&. c #C0977F",
"*. c #DB937E",
"=. c #E18E7E",
"-. c #E3927E",
";. c #404780",
":. c #424A84",
">. c #444D8C",
",. c #49528E",
"<. c #575A86",
"1. c #464F90",
"2. c #475092",
"3. c #495396",
"4. c #4B559B",
"5. c #4E589F",
"6. c #5F658E",
"7. c #66678B",
"8. c #796788",
"9. c #656B96",
"0. c #69729B",
"q. c #4D57A0",
"w. c #4E59A4",
"e. c #515BA6",
"r. c #525DAC",
"t. c #5461AF",
"y. c #5662B4",
"u. c #5865B7",
"i. c #5966BB",
"p. c #5B68BF",
"a. c #787CA6",
"s. c #6676B3",
"d. c #5D6BC4",
"f. c #606ECA",
"g. c #987B88",
"h. c #877A92",
"j. c #7A86B4",
"k. c #B68482",
"l. c #B0908D",
"z. c #A99D99",
"x. c #8C89A8",
"c. c #9793A2",
"v. c #8A8DB0",
"b. c #858CBC",
"n. c #999AB6",
"m. c #B2ADB0",
"M. c #BAB4B1",
"N. c #C89B84",
"B. c #DA9684",
"V. c #E59582",
"C. c #E19C83",
"Z. c #EB9D85",
"A. c #CDAA8C",
"S. c #D8A98C",
"D. c #C6A695",
"F. c #DDB292",
"G. c #EDA187",
"H. c #F3A287",
"J. c #F4A388",
"K. c #F6AA8C",
"L. c #E0AC90",
"P. c #E7B896",
"I. c #F6B895",
"U. c #D1B7B3",
"Y. c #D8C59D",
"T. c #E6C29D",
"R. c #F5C49D",
"E. c #D7C4A5",
"W. c #E5C8A2",
"Q. c #F4C6A0",
"!. c #F5CCA3",
"~. c #FACCA3",
"^. c #E8D1A9",
"/. c #F5D5AA",
"(. c #F8D7AB",
"). c #FBDCAE",
"_. c #F7DFB0",
"`. c #FDDFB0",
"'. c #FCE1B1",
"]. c #FDE9B5",
"[. c #8B97C5",
"{. c #929ECB",
"}. c #99A1C8",
"|. c #9BA5D6",
" X c #9EA7DA",
".X c #ABAFC8",
"XX c #B3B6CD",
"oX c #A3AED8",
"OX c #A9B5D6",
"+X c #B6BCD4",
"@X c #B2BBDB",
"#X c #B2BBE0",
"$X c #BBC2D9",
"%X c #BBC4E5",
"&X c #C6C9DB",
"*X c #C4CAE2",
"=X c #CCD2EA",
"-X c #D4DAEC",
";X c #D9DCEB",
":X c #CCD3F1",
">X c #D5DCF1",
",X c #DDE2F3",
"<X c #E2E6F5",
"1X c #EAEDF6",
"2X c #EEF1F9",
"3X c #F2F4FA",
"4X c #FCFDFE",
/* pixels */
"C S g r g C F S g C g g F S g r C C C C C F C g g C C r g g g g g g S S g g F S g S g g i g g 4 g i g g g g g g g r g F g g g F ",
"C S g g g S C g C S g g C C g g g g g g C S g g C C g g g g g g S g p i F g g g S F S g g g g g g g g g g S S g g g r g g g p S ",
"g A C C C S g g g g g g p g g g p g C C g C g g C g g C g g C C p g g g S g g S g S S g g g g S g g g g g S g g g g g g g g g g ",
"g g C C g g g g g i g g r g g g i C C C g g p g C g C C g g 5 C 4 i i g g S S g g g g g g g g g S g g g S g g g g g g g g S g g ",
"C g C C C g g C S g g g S C g g g C C g g g C C C C C g m & 6 & 6 & 6 i g g S S g g 4 g g g C g g g g r g g g g S F g g g F S g ",
"C g S S g w g S S g g g g g g S C g C C g g C g g g 4 H 5.p.d.d.d.p.y.2.m i g g g C S g S S g g r g g g g g 4 g g g g g g g g F ",
"r g S S g g g g g g g w g g C C g r g C C S g r r 5 ,.p.f.f.f.f.d.f.f.u.>.+ 3 3 4 S g g g C g g g g g g g g g r i g g g g S S S ",
"g C S C S g g S S g g g g g g S g g g g g g g g 4 :.f.f.f.f.f.f.f.d.u.y.4.8 * 7 5 4 S C g g g g S g g g g g g g g g g i g g g S ",
"g S S g g S g S S g C C g g C S C g C C C C C g 6 p.f.f.f.f.f.f.d.i.i.p.p.q.u.u.:.4 g C g C g C S C C g p g S g g g S g g g g S ",
"S g g g g F g g g g S g g g g g g g g C C S g 5 3.d.f.f.f.f.f.f.2.p.i.d.r.r.f.f.t.* i g C S C g C C C g g g S S g g S F g g g g ",
"g S g g g g g S S C g C g p i S g C i i C g g @ y.f.f.f.f.f.d.4.2.q.d.d.i.d.f.f.d.4.5 C g C S g C C g g C C g g g S g g g g g g ",
"g S S g g F g g g g g g g g g g g g g g C S g % u.f.f.f.f.f.d.>.3.y.f.f.r.u.f.f.p.5.$ g g g g g C C C g C S S g g g g F S g g S ",
"S S g g i g g g g C S g g C g g S C C C C S g N p.f.f.f.f.f.r.2.8 i.d.f.q.y.f.f.p.5.% C g i p g g C C g p C C g g r g g g g S S ",
"S g g g p g g g g C S S S g g S C S C C g C 4 7 p.f.f.f.d.p.; G 3.e.i.i.7 >.f.d.r.2.5 g C g p g g C C g p g C C g g g g g g g S ",
"S g g S g g i g g C C F S g g S C S C C C g % 7 y.d.f.f.p.2.* * ; 1.q.3.$ $ u.u.3.5 i g g g g g C g g g g g S g g g S g g g g g ",
"g S S g g g g g g i C g g C g g g C S C g g i >.w.t.y.e.- O $ 2.8 * = L ` @.D $ & 5 C C 5 g g g S C C g g F S g g g g g S S g g ",
"S g S g S g g g g g g S g S S g C S C C g C 4 w.w.w.w.:.E } f 4.e.1.K ! ! S.v . 3 C C C g g C C C C g g 4 S C S S C S C C C g 3 ",
"S g g S F g p g C g g g C g C C S C C C g 4 8 w.w.w.4.# N.L.L 4.w.:.X     o k p g C C S S C C g C C g g g g C S C C C C g C C C ",
"g g g g S g g g g g C g g g g C S C C C 5 3 ,.e.w.w.3.& #.L.z 4.w.B E k.9 l W z p g g C C C C C C g g g g C C C C C C g g g C C ",
"g g g S g g g g g g g g C C g g g g C C g 6 4.w.w.q.>.; c B.] 4.w.Z S.&Xs.P.Q.$.h p C g g C C g g g C C g C C g g C C 4 p g g g ",
"g g g S g g S g C g 4 g C C g g g g g g 4 7 e.e.w.4.8 8 < [ l.:.w.H Y.W.U.^./.N.d g C C C C C C g g C S g C C g C C C g g g g 4 ",
"g g g g g S S g g g C C C C g g 4 g g g 5 3.e.e.w.>.8 8 ; . 2 1 2.V Y.).(._.P.! r g r g C C S g 4 g g g g F S S C C F C g g C C ",
"g g g g g g g g g g 4 g g g C g g g g g 5 5.e.e.3.; ;.; # X { { 1 1 S.~.R.*.! 9 g g r g S S C g g g g g g C C C C C S C g C C C ",
"g S S g S S g g g g g g C g C C g S g 4 8 w.5.5.>.;.* & < K ' o.{ E { | ~ l t g g g g g S C C g C S C g g C g g g C S C C C g C ",
"g S S g S g g g g g g g g g g C g C g 3 ;.w.w.4.8 * 6 0.j.b.{.h...o.Q K f u C C C C S C C C g g g C C g C S g g g C C C C C C C ",
"S g S S g g i g g g g S p p g C C C g 4 ;.w.w.>.8 > z.M.U.m.c.*Xm.g.B.V.h.J J Z C C C g g C C C C g g C C F 3 g g g C C C g g g ",
"g r g g g g g g S g S g g C g g S C g 4 6 q.4.;.& [ ).`.`._.D.XX1XXXg.g.c.XX&Xn.J S g g g C S C C C g g C C g g g C S S g g g 3 ",
"g g g g S g S g g g S g g g g S C C C C 6 4.3.8 < A.'.).`.P.$..X3X3X;X*X=X>X2X<X;Xx.g g C S C g S C g C S C g C C S g 3 g g C S ",
"g g g S S g S S g g g g g g C S C C g C 4 H 3.; c T.`.`.).B.l.$X4X4X4X4X4X1X%X,X3X%X7.g C S S g g C g C C C S S C C g C g g g C ",
"g S g S S S S g g g g g g S g C g g g C C 6 >.; ` (.`.'.Q.' n.1X4X4X4X4X2X,X#X2X1XoXj.4 g g C g C C g g g C S C g g g S C C C C ",
"g g S g g S g g p i g g S g S g g 4 g C C 3 7 7 @._.`.`.$.8.%X3X4X4X,X,X<XoX{.%X$X{.j.g g C g g S S r r C g C g g C C g C C S C ",
"S g g g S S F S S S S g g g g S g C S F C C 4 3 F.`.`.`./ 9.|.:X4X<X#X>X=X[.[. XoXj.C S C C g g g C g g C S C g g C C C g g g C ",
"S g g g g S g g g g g g g g i F g S S g C S p 9 Y.'.`./.b 0.[.:X<X X}.:X=X|.|.{.[.9.A g g g g C C g C g g C r p C g C g g g C C ",
"g g g g g g S g S g g S S g g g C g g g g g C v T.`.`.A.f 6.OX2X>X[.j.-X%Xj.[.j.b.' c , t A C i g C C g g g g g g g C S S C g C ",
"g g g i g g g g g g g g g g g g g g g r C g t ) (.'.'.l.L g..X4X;Xj.{.;X[.6.j.{.b.g.%.X.W d g g g C C g C C g g C g C C C C g C ",
"S g p g g S g g g g g g g S g S S C p g C g r } ).).(.k.v.h.j.-XOX0.n.&X0.<.9.7.l.Z.V.=.V.Y s C C C g C C C C C C C C g C g g g ",
"g g F S g S g g p g g r g g S F S C C C A C s | ).'.^.] }.#X@X$X{.x.x.a.<.N Z f X.Z.G.H.%.Q 9 C S C C C g g C g C C g g g g g C ",
"g g g g g S g g g g g g g g g g g g g g C p j V.).).F.P @X4X3X2X-X$X+XXXoXn.D g h j k ^ X.I > g C C C C g C C C C g r g g C C C ",
"g S g g g S g g g g g g g g i C g g g r C p E K.~./.@.h.*X,X*X+Xn.M.z.z.M.x.J S g p , E h s g g C C C C g C C g g g g g g C C C ",
"g S g g g g S g S S g g g g g C C S g g C q O.K.R.P.T 9.v.n.c.E.T.'.].].'.E.@.f C p , h t g g g C C g g g C g C C g g S C g C C ",
"g g g g g g S g C S g g S C g g S S g g t Y G.R.).).S.K D W.).'.].`.`.`.`.'.F.0 g g g g g g g C S g g g g g g C C C C S C g C C ",
"g g g g r g g g g C g g C g C g g g g g d X.I.`.`.R.^.~ [ &.~.).`.`.`.`.`.`./.~ r g g g C g g C g g g g i g g g C C C g g S S C ",
"p g S g g g g g C g S g g S F S g g C g h *.K.!.).S.T.#.*.| $.T.`.`.`.`.`.`._.@.: g g g C C C g g g g C g g g C C g g g g g C F ",
"g g g g S g S g g C F C g C g S C g g g h C.Z.L.R.~ #.| $.Z.X.| F.'.`.`.`.'._.N.s g F g p g g C g S C g g g g g C C C S C C g C ",
"g g S g g g g g g g g g r g C C g g g g d } | L.( 2 | ^ Z.J.J.X.T F._.`.`.`.'.T.x p S g g g g g g g g g g g g g g S C C g S S g ",
"S g g S g g g g g g g g p g g g g g g C g 9 h v > [ Z.G.H.H.J.^ s v F.'.`.`.`.^.b p C g g g g C g C C C C C C g g C C g g C S C ",
"g g g g g r g g g w g g g g C g r g S S C S t r 0 $.H.H.H.J.V.x 9 r T P.).'.'.(.} s S g C C C g g S g g g S C g g g g g g g g g ",
"g g g g g g S g g r C S C C S C g g C g g g g s R -.J.H.H.H.o.d g g 0  .I.R.~.I.$.a g g S C g g r g C C C C g C C C g g g g g i ",
"F g g i g S C g g g g g g C S g C C C C C S t T -.J.J.J.H.C.T A C C e ) J.J.J.J.$.s g g C C C C g g S S g g C C g C C S g g g g ",
"g g g g g S S g g g S S S g C g g C C g g C s | K.G.J.J.Z._ t C M M C j Z.J.J.H.-.x g S C g C S g g g g g S C g g g g C S S g g ",
"g g g g g g S g g g S S C g g C g g C C C g z %.J.H.J.G.) u B B N m B q =.J.J.J.H.U p g C g g C g g g g g C g g g g C g S S g C ",
"g S S g g g g C S g g g S S C g g g g C S C k J.H.H.G._ u B B V B B B u { J.H.H.J.E M g C g g C g g S g g g S C C C C C g g g C ",
"g S g S S g g S S C g g g S C g i g C C A N ) K.H.Z._ u B B B B B B B B c *.J.H.J.~ f Z Z i r C S S S g g g F g g g S g g g g g ",
"g g S S g g g g g 4 g C g g C g S C C Z V 2 $.J.Z._ y B B B B B B B B B u ) Z.H.J.+.f B V Z i C g g g S S C S S g g g g g S F g ",
"F g g g g 4 g g g g g S C S S C S C C H < W Z.J. .f m B B B B B n m N m B f o.H.H.H.Y n B N Z C S g g g g C S g S g F g g S g g ",
"S g g g g g g S C g C S C S S g C C H V < R Z.J.%.z m B B B n B B m B B B n Y Z.H.J.+.a B B V C g g g g g C g S S g S g g g g C ",
"C C C C g g g S S C C g C C S g g g m m m z %.G.Z.j n B B B m B B B B B B B q *.J.J.Z.Y n N B M g g C C C C C C S g g g g g g C ",
"C g S S g r g C C C C g C g g g g i m m B m z x x e B B B B B M B m B B V B n ! $.V.J.$.1 N N i g C C C C C C C g g g S C g g C ",
"S C C g C C S S g C S C g C g 4 M C Z N B 6 m n n m B V B V V B B B B B B B n < a c ! T f B V C C g C C g C C F F g g g g g g C ",
"g S S F S g C g g C F g g g C g C C C Z V B B B B B B B B B B B B m B n n B B B B n y 6 B V Z g C g g g g g 4 g g g S S g g S F ",
"C C C C C r g C C C C g g C C S g g C H V B B B B B B B B B B B B B B B B B B B 6 Z Z B 6 H F S C g g g g g g g g g g F S C S S ",
"C g C C g p g C C g g C S C C C g C C C Z V B B B B B B B B B B B B B B B B B B Z 6 6 H Z S g S C C g g C S g g C C g S S C S g ",
"C g S S g g g C C g C S S S C C C C C S S C Z V V B B B B B B B B B B B B B B B 6 H 6 S S C C C C C g C S S C g S S C g S S g C ",
"C g S S C C C S C C C S C C S C F C C C M i C Z Z Z B V V B B B B V B B B B 6 B Z S S C S 5 4 C C C C g C C g g S F g C g S F F "
};
