/* XPM */
static char *out[] = {
/* columns rows colors chars-per-pixel */
"64 64 191 2 ",
"   c None",
".  c black",
"X  c #2D151D",
"o  c #3D2922",
"O  c #212034",
"+  c #332030",
"@  c #382933",
"#  c #472A39",
"$  c #5F2F38",
"%  c #66353E",
"&  c #282946",
"*  c #2B2C4C",
"=  c #2F3258",
"-  c #313154",
";  c #373256",
":  c #333762",
">  c #353B6A",
",  c #383D6C",
"<  c #393F71",
"1  c #432B44",
"2  c #553442",
"3  c #403254",
"4  c #413258",
"5  c #4B3C5F",
"6  c #523D55",
"7  c #5E3851",
"8  c #5B3D54",
"9  c #543C5D",
"0  c #6D3D4E",
"q  c #713B44",
"w  c #7A3F47",
"e  c #3A4074",
"r  c #3D4276",
"t  c #3C447C",
"y  c #3F467E",
"u  c #53445E",
"i  c #714144",
"p  c #7F4C4B",
"a  c #7C4B4E",
"s  c #7A5244",
"d  c #764B52",
"f  c #765A5A",
"g  c #46426C",
"h  c #4E476C",
"j  c #504269",
"k  c #57506F",
"l  c #41477F",
"z  c #4F4F7C",
"x  c #5C5A7E",
"c  c #715A73",
"v  c #854C4D",
"b  c #824755",
"n  c #8C4950",
"m  c #815559",
"M  c #925555",
"N  c #9A5957",
"B  c #9D625B",
"V  c #9E695F",
"C  c #A6605E",
"Z  c #995E65",
"A  c #845D77",
"S  c #A95D61",
"D  c #B05D62",
"F  c #8D6F66",
"G  c #9E6664",
"H  c #8E7168",
"J  c #936675",
"K  c #91677F",
"L  c #9D6F7A",
"P  c #947878",
"I  c #B16C64",
"U  c #BA6A67",
"Y  c #BD676A",
"T  c #AE7565",
"R  c #A07869",
"E  c #BE766C",
"W  c #CB7173",
"Q  c #908072",
"!  c #A2806F",
"~  c #B48272",
"^  c #B68A78",
"/  c #CA8A76",
"(  c #D28075",
")  c #D38779",
"_  c #D6847C",
"`  c #CB907A",
"'  c #CB927C",
"]  c #E08A7E",
"[  c #404986",
"{  c #434B88",
"}  c #585F82",
"|  c #585D8C",
" . c #454F90",
".. c #4A549A",
"X. c #4C569B",
"o. c #5C628E",
"O. c #5D6597",
"+. c #756980",
"@. c #7B6E87",
"#. c #7F6D85",
"$. c #6F6F96",
"%. c #676A99",
"&. c #646C9A",
"*. c #6B6F9B",
"=. c #6F6F99",
"-. c #4E59A3",
";. c #4E59A4",
":. c #4F5AA5",
">. c #515BA5",
",. c #535FAD",
"<. c #535FAE",
"1. c #5864B8",
"2. c #6A75A0",
"3. c #6A78AC",
"4. c #7678A6",
"5. c #5C69C1",
"6. c #616FCB",
"7. c #897590",
"8. c #7787B2",
"9. c #7F85B6",
"0. c #7D8ABB",
"q. c #898199",
"w. c #8A8E9E",
"e. c #A18888",
"r. c #A2918E",
"t. c #A98F94",
"y. c #8487AD",
"u. c #9283A0",
"i. c #9788A2",
"p. c #838CB2",
"a. c #868CB2",
"s. c #9B90B0",
"d. c #B4ACAE",
"f. c #A2A0B5",
"g. c #B9B1B0",
"h. c #D69683",
"j. c #DF9C85",
"k. c #D79E89",
"l. c #E19182",
"z. c #EA9783",
"x. c #D0B89F",
"c. c #E0A389",
"v. c #E2AB8F",
"b. c #EDAB8F",
"n. c #F5A489",
"m. c #F6AA8D",
"M. c #E5AD90",
"N. c #F8B895",
"B. c #F8B997",
"V. c #F9BF99",
"C. c #E2BBB6",
"Z. c #F9C09B",
"A. c #FAC29D",
"S. c #F2C4A1",
"D. c #FBC8A1",
"F. c #FCCFA5",
"G. c #FCD1A7",
"H. c #FDD7AB",
"J. c #FFE0B1",
"K. c #8C98C8",
"L. c #919DCB",
"P. c #9CA2CA",
"I. c #97A0D3",
"U. c #9BA5D6",
"Y. c #9FACD2",
"T. c #A1A8C6",
"R. c #A4A8C5",
"E. c #ABAEC5",
"W. c #ADA6C8",
"Q. c #A2ACD0",
"!. c #A5AFDA",
"~. c #AAB6D6",
"^. c #AAB4DD",
"/. c #B1BBD7",
"(. c #B6C0D9",
"). c #BDC6DA",
"_. c #B9C3E4",
"`. c #C1C5D9",
"'. c #C3C9E2",
"]. c #C0C9E4",
"[. c #C8CEE5",
"{. c #C3CCEF",
"}. c #CBD1EF",
"|. c #DEE2EC",
" X c #D9E0F6",
".X c #E1E5F7",
"XX c #E8EAF7",
"oX c #E8EFFD",
"OX c #F0F4FE",
"+X c #F7F9FE",
"@X c white",
/* pixels */
"                                                                                                                                ",
"                                                                                                                                ",
"                                                                                                                                ",
"                                                                                                                                ",
"                                                                                                                                ",
"                                                                                                                                ",
"                                                                                                                                ",
"                                                                                                                                ",
"                                                                                                                                ",
"                                                                                                                                ",
"                                                        < ,.6.6.6.5.{                                                           ",
"                                                      X.6.6.6.6.6.6.5...O                                                       ",
"                                                    { 6.6.6.6.6.6.1.1.1. . .e                                                   ",
"                                                    5.6.6.6.6.6.X.5.5.,.,.6.1.*                                                 ",
"                                                  r 6.6.6.6.6.>...,.6.1.6.6.6...                                                ",
"                                                  l 6.6.6.6.6.{ ..6.6.-.6.6.6.:.                                                ",
"                                                  ,.6.6.6.6.>...y 5.6.{ 5.6.5.:.                                                ",
"                                                  :.6.6.6.5.: , ;.:.<.: { 6.:.e                                                 ",
"                                                  :.<.1.,.: & ..: : : F P , ,                                                   ",
"                                                , :.:.:.j ~ f :.:., T s b.X                                                     ",
"                                                ..:.:.:.+ D.m :.:.6 @ . o                                                       ",
"                                                :.:.:. .5 ` m :.:.H C.$.Z.) q                                                   ",
"                                              , :.:.:.t t a Z.y :.Q D.W.H.F.N                                                   ",
"                                              ..:.:. .t t = % 8 :.Q J.J.H./                                                     ",
"                                              :.:.:.t t > # S W 2 G N.V.C                                                       ",
"                                            , :.:. .t - } 4.y.K W Y 0                                                           ",
"                                            , :.:.t ; t.d.d.q.[.7._ M.@.                                                        ",
"                                              :...t a J.J.J.D.R.OXp.A w.oX'.a.                                                  ",
"                                              .. .> ^ J.J.H.l.R.@X@X+XOXXX X@X`.                                                ",
"                                              <  .3 G.J.J.k.#.|.@X@X@X+X X].@X(.O.                                              ",
"                                                [ 9 J.J.J.Z ^.@X@X@X.XoX^.Q.}.L.&.                                              ",
"                                                * V J.J.J.u K.{.+X}._.[.I.K.U.K.                                                ",
"                                                  ! J.J.v.k 8. X[.U./.}.K.U.L.x                                                 ",
"                                                  k.J.J.! c T.+X).0.[.Y.o.L.L.J I n                                             ",
"                                                  A.J.J.L s.%.oXY.2.OX3.| *.u.n.] ] I                                           ",
"                                                  A.J.J.+.!.[./.0.i.*.z g   I n.n.n.U                                           ",
"                                                M A.J.c.=.+X@X+X[.E.f.~.P.      $ D n                                           ",
"                                                ( m.F.i 9._.9.g.x.J.J.J.r.      % q                                             ",
"                                              n m.H.J.v.h e.J.J.J.J.J.J.J.V                                                     ",
"                                              ( D.J.D.J.B B D.J.J.J.J.J.J.v.                                                    ",
"                                              n.m.S.k.D.I n.B c.J.J.J.J.J.H.                                                    ",
"                                              n.( G.i B B n.n.E ' J.J.J.J.J.N                                                   ",
"                                                v p p n.n.n.n.I   ' J.J.J.J.R                                                   ",
"                                                    I n.n.n.n.n     j.H.J.J.h.                                                  ",
"                                                  p z.n.n.n.(       M m.A.B.n.                                                  ",
"                                                  n.n.n.n.n.p         n.n.n.n.                                                  ",
"                                                n n.n.n.n.d         1 z.n.n.n.M                                                 ",
"                                                B n.n.n.d             C n.n.n.B                                                 ",
"                                                ( n.n.d               7 n.n.n.I                                                 ",
"                                              w n.n.b                   b n.n.z.7                                               ",
"                                              M n.n.d                   4 ( n.n.C                                               ",
"                                              7 n.n.B                     B n.n.z.7                                             ",
"                                                1 1 4                     4 B ( n.M                                             ",
"                                                                              4 1 4                                             ",
"                                                                                                                                ",
"                                                                                                                                ",
"                                                                                                                                ",
"                                                                                                                                ",
"                                                                                                                                ",
"                                                                                                                                ",
"                                                                                                                                ",
"                                                                                                                                ",
"                                                                                                                                ",
"                                                                                                                                "
};
