/* XPM */
static char *out[] = {
/* columns rows colors chars-per-pixel */
"64 64 166 2 ",
"   c None",
".  c black",
"X  c #3D2922",
"o  c #39202F",
"O  c #212034",
"+  c #2D2031",
"@  c #202139",
"#  c #332030",
"$  c #382933",
"%  c #5F2F38",
"&  c #66353E",
"*  c #2B2C4C",
"=  c #312944",
"-  c #2D2E50",
";  c #2F3258",
":  c #313154",
">  c #303359",
",  c #333762",
"<  c #3A3A62",
"1  c #353B6A",
"2  c #383D6C",
"3  c #393F71",
"4  c #452C41",
"5  c #432B44",
"6  c #413258",
"7  c #4B3C5F",
"8  c #5E3851",
"9  c #643749",
"0  c #713B44",
"q  c #7A3F47",
"w  c #3D4276",
"e  c #3C447C",
"r  c #3F467E",
"t  c #7F4C4B",
"y  c #7C4B4E",
"u  c #7A5244",
"i  c #664658",
"p  c #764B52",
"a  c #765A5A",
"s  c #45416C",
"d  c #574260",
"f  c #504269",
"g  c #41477F",
"h  c #5D5479",
"j  c #635669",
"k  c #795E61",
"l  c #76536E",
"z  c #625175",
"x  c #854C4D",
"c  c #824755",
"v  c #884950",
"b  c #875B57",
"n  c #925555",
"m  c #9A5957",
"M  c #9D625B",
"N  c #A6605E",
"B  c #88596F",
"V  c #A95D61",
"C  c #926561",
"Z  c #9F7165",
"A  c #936675",
"S  c #947878",
"D  c #B16C64",
"F  c #BD676A",
"G  c #A07869",
"H  c #BE766C",
"J  c #B37B6E",
"K  c #A96571",
"L  c #CB7173",
"P  c #D57D78",
"I  c #A2806F",
"U  c #B48272",
"Y  c #B68A78",
"T  c #C98372",
"R  c #CA8A76",
"E  c #D28075",
"W  c #D38779",
"Q  c #DD8D7B",
"!  c #CB907A",
"~  c #E08A7E",
"^  c #404986",
"/  c #434B88",
"(  c #5E5D89",
")  c #454F90",
"_  c #4A549A",
"`  c #4C569B",
"'  c #756787",
"]  c #7F688B",
"[  c #616790",
"{  c #656593",
"}  c #6F6F96",
"|  c #646C9A",
" . c #7D6E90",
".. c #4E59A3",
"X. c #4F5AA5",
"o. c #515BA5",
"O. c #535FAD",
"+. c #535FAE",
"@. c #5864B8",
"#. c #6A75A0",
"$. c #7678A6",
"%. c #747DAB",
"&. c #5C69C1",
"*. c #616FCB",
"=. c #817C8F",
"-. c #887A95",
";. c #7982AD",
":. c #9E878D",
">. c #8C849A",
",. c #8A899F",
"<. c #A2918E",
"1. c #8290BD",
"2. c #B4ACAE",
"3. c #C08C84",
"4. c #CA9581",
"5. c #E19182",
"6. c #EA9783",
"7. c #CDA893",
"8. c #D0B89F",
"9. c #E0A389",
"0. c #EDA68D",
"q. c #E1AA8D",
"w. c #E2AB8F",
"e. c #EDAB8F",
"r. c #F5A489",
"t. c #E5A892",
"y. c #EEAD91",
"u. c #EFB597",
"i. c #F7B393",
"p. c #F8B895",
"a. c #F9BF99",
"s. c #D8BDA9",
"d. c #E2BBB6",
"f. c #F9C09B",
"g. c #FBC8A1",
"h. c #FCCFA5",
"j. c #FCD1A7",
"k. c #FDD7AB",
"l. c #FFE0B1",
"z. c #999FC0",
"x. c #919DCB",
"c. c #9BA7CF",
"v. c #9BA5D6",
"b. c #ABAEC5",
"n. c #ADA6C8",
"m. c #B0B3C7",
"M. c #A2ACD0",
"N. c #B1BBD7",
"B. c #B1BADD",
"V. c #A6AEE1",
"C. c #B4BDE8",
"Z. c #BDC6DA",
"A. c #B9C3E4",
"S. c #D0CFDA",
"D. c #C3C9E2",
"F. c #C0C9E4",
"G. c #C7D2EB",
"H. c #D6DDEC",
"J. c #D2D6F0",
"K. c #D2DBF6",
"L. c #D9E0F6",
"P. c #E1E5F7",
"I. c #E8EAF7",
"U. c #F0F4FE",
"Y. c #F7F9FE",
"T. c white",
/* pixels */
"                                                                                                                                ",
"                                                                                                                                ",
"                                                                                                                                ",
"                                                                                                                                ",
"                                                                                                                                ",
"                                                                                                                                ",
"                                                                                                                                ",
"                                                                                                                                ",
"                                                                                                                                ",
"                                                          / &.*.*.*.O.3                                                         ",
"                                                      O _ &.*.*.*.*.*.*.`                                                       ",
"                                                  * r ) @.@.@.*.*.*.*.*.*./                                                     ",
"                                                  O.*.O.O.&.&.` *.*.*.*.*.&.                                                    ",
"                                                3 *.*.*.@.*.O.O.o.*.*.*.*.*.w                                                   ",
"                                                2 *.*.*...*.O.O./ *.*.*.*.*.g                                                   ",
"                                                2 &.*.&./ *.*.g 2 &.*.*.*.*.O.                                                  ",
"                                                3 X.*./ 2 +.+.r 2 ^ &.*.*.*.X.                                                  ",
"                                                  r X.k j ) X.g 2 1 , O.@.+.X.                                                  ",
"                                                    + e.u @ ; , 2 C U f X.X.X.                                                  ",
"                                                      X . $ 2 X.2 0.g.# X.X.X.                                                  ",
"                                                  0 W f.} d.2 X.S 0.! 7 X.X.X.2                                                 ",
"                                                  m h.k.n.g.2 X.a f.y e _ X.X.r                                                 ",
"                                                    R k.l.l.2 r v & ; e ) X.X.X.                                                ",
"                                                      N a.p.- d L V = e e X.X.X.                                                ",
"                                                        4 l F L B $.h : e _ X.X.3                                               ",
"                                                        [ 3.F ] z.2.,.#.1 ) X.X.2                                               ",
"                                                    b.H.:.q.>.D.8.l.l.7.< ) X.X.2                                               ",
"                                                  S.Y.P.N.b.G. .g.l.l.l.# e ) X.2                                               ",
"                                                | T.B.Y.T.T.Y.A t.l.l.l.# e ) X.3                                               ",
"                                                v.H.I.T.T.T.T.-.4.l.l.l.# e ) X.                                                ",
"                                                1.M.T.T.T.T.T.c.4.l.l.l.# 1 O >                                                 ",
"                                                s m.T.T.T.T.P.V.J l.l.l.o                                                       ",
"                                                  x.L.Y.T.T.C.V.i l.l.l.                                                        ",
"                                                  ;.K.x.C.Y.F.v.' l.l.l.                                                        ",
"                                                    c.%.v.N.Y.C.' j.l.l.                                                        ",
"                                                    { ( %.A.U.c.s.Y l.l.x                                                       ",
"                                                        z c.Z.J.N.I l.l.M                                                       ",
"                                                        K =.<.<.<.I l.l.9.                                                      ",
"                                                        L I l.l.l.I l.l.g.%                                                     ",
"                                                        P N l.l.I u.l.l.l.D M                                                   ",
"                                                        r.M l.l.I ~ y.l.5.~ M                                                   ",
"                                                        r.H w.l.l.b 6.Q Q D t                                                   ",
"                                                        r.r.I l.l.l.Z x %                                                       ",
"                                                        6.r.N k.l.l.G                                                           ",
"                                                        t 6.M i.k.g.E                                                           ",
"                                                          8 & 6.r.r.r.N                                                         ",
"                                                              D r.r.r.6.M 9                                                     ",
"                                                              n r.r.r.E T n                                                     ",
"                                                              8 r.r.r.M r.M                                                     ",
"                                                              5 r.r.r.q r.p                                                     ",
"                                                              c r.r.r.5 5                                                       ",
"                                                            p r.r.r.r.5                                                         ",
"                                                            p r.r.E M 6                                                         ",
"                                                              5 5 6                                                             ",
"                                                                                                                                ",
"                                                                                                                                ",
"                                                                                                                                ",
"                                                                                                                                ",
"                                                                                                                                ",
"                                                                                                                                ",
"                                                                                                                                ",
"                                                                                                                                ",
"                                                                                                                                ",
"                                                                                                                                "
};
