/* XPM */
static char *out[] = {
/* columns rows colors chars-per-pixel */
"64 64 202 2 ",
"   c #110F18",
".  c #241814",
"X  c #2F243D",
"o  c #372F30",
"O  c #6D473F",
"+  c #262743",
"@  c #312C4A",
"#  c #383644",
"$  c #363A4D",
"%  c #393C49",
"&  c #363955",
"*  c #32345C",
"=  c #353859",
"-  c #35395B",
";  c #363963",
":  c #373A63",
">  c #353A69",
",  c #3A3F6A",
"<  c #343C72",
"1  c #3A3F71",
"2  c #452C41",
"3  c #493A46",
"4  c #503B4B",
"5  c #463C5A",
"6  c #533F57",
"7  c #6E3D47",
"8  c #3D4154",
"9  c #3D415C",
"0  c #3E4361",
"q  c #3E446C",
"w  c #3C4275",
"e  c #3C447B",
"r  c #48404C",
"t  c #57434C",
"y  c #424753",
"u  c #4B4755",
"i  c #454A56",
"p  c #43435D",
"a  c #464D59",
"s  c #494E5A",
"d  c #594555",
"f  c #544C56",
"g  c #4C545F",
"h  c #50525D",
"j  c #62444C",
"k  c #6B464B",
"l  c #76484B",
"z  c #664953",
"x  c #774E58",
"c  c #6B5053",
"v  c #7B5455",
"b  c #444564",
"n  c #454966",
"m  c #494A63",
"M  c #464A69",
"N  c #494D6C",
"B  c #574963",
"V  c #4D5561",
"C  c #4D536B",
"Z  c #515563",
"A  c #515964",
"S  c #52556B",
"D  c #555D69",
"F  c #4A4E73",
"G  c #454A79",
"H  c #544E72",
"J  c #53577A",
"K  c #705A6F",
"L  c #5E647B",
"P  c #7E6578",
"I  c #874C52",
"U  c #825452",
"Y  c #885658",
"T  c #975B59",
"R  c #88645D",
"E  c #95655D",
"W  c #9A635C",
"Q  c #A1645D",
"!  c #8E5B64",
"~  c #A85D63",
"^  c #976663",
"/  c #96796A",
"(  c #AE6562",
")  c #A56D64",
"_  c #AD6D63",
"`  c #A6646C",
"'  c #B36E66",
"]  c #A7786B",
"[  c #A96470",
"{  c #BE7D78",
"}  c #C37C6F",
"|  c #C8786F",
" . c #C76F71",
".. c #C67773",
"X. c #AA8A7B",
"o. c #B38877",
"O. c #C78777",
"+. c #D58577",
"@. c #D8897B",
"#. c #C9967E",
"$. c #DC947E",
"%. c #E0937E",
"&. c #3D4683",
"*. c #3F4884",
"=. c #434983",
"-. c #474B81",
";. c #464E8C",
":. c #454F91",
">. c #465092",
",. c #495395",
"<. c #4A559B",
"1. c #4A569F",
"2. c #5F658A",
"3. c #666588",
"4. c #717288",
"5. c #656995",
"6. c #6C749B",
"7. c #4C57A2",
"8. c #4E59A4",
"9. c #515BA5",
"0. c #535EAB",
"q. c #5460AC",
"w. c #5663B4",
"e. c #5966BB",
"r. c #5B68BE",
"t. c #7E7CAA",
"y. c #5D6AC3",
"u. c #5F6DC8",
"i. c #606ECA",
"p. c #6270CD",
"a. c #8D7A8A",
"s. c #977082",
"d. c #867698",
"f. c #7C84A4",
"g. c #7A84B2",
"h. c #9D898C",
"j. c #B79A81",
"k. c #BB9C82",
"l. c #A1969D",
"z. c #B1A09C",
"x. c #888AA8",
"c. c #928CAB",
"v. c #868BB4",
"b. c #999AB7",
"n. c #A49AA8",
"m. c #C59786",
"M. c #E39581",
"N. c #E49D85",
"B. c #EB9C84",
"V. c #D2A790",
"C. c #DAB996",
"Z. c #E9A489",
"A. c #F2A187",
"S. c #F4A388",
"D. c #F7A88C",
"F. c #F9AB8D",
"G. c #E7B08F",
"H. c #EDB796",
"J. c #E5BA99",
"K. c #F4BB98",
"L. c #CDB0AA",
"P. c #EDC39F",
"I. c #F7C39E",
"U. c #E6C7A3",
"Y. c #F4CCA5",
"T. c #F9CEA5",
"R. c #EDD8AC",
"E. c #F4D3A7",
"W. c #F0D7AB",
"Q. c #FAD4A8",
"!. c #F4DBAE",
"~. c #FBDBAD",
"^. c #FDDFB0",
"/. c #FBE0AF",
"(. c #FCE1B2",
"). c #9099C9",
"_. c #949FCC",
"`. c #9BA4C9",
"'. c #9EA9D8",
"]. c #A1A4C2",
"[. c #B5B6CB",
"{. c #A2ADDE",
"}. c #AAB5D7",
"|. c #ACB8D9",
" X c #B1BCD6",
".X c #ABB4E1",
"XX c #ACB5E5",
"oX c #BEC4DB",
"OX c #C9CAD8",
"+X c #D6D5DD",
"@X c #C7CEEB",
"#X c #CBD3E6",
"$X c #CDD5EA",
"%X c #D2D7E9",
"&X c #CFD7F2",
"*X c #DDE2ED",
"=X c #E5E9F7",
"-X c #EAEDF5",
";X c #EFF2F7",
":X c #EDF0FA",
">X c #F6F8FC",
",X c #FDFDFE",
/* pixels */
"V A g i g V D A g V g g D A g a A g g g A D g g g A g a g g g g g g A A g g D A V A V V s a g i g i s g V V g V g i g D V g V D ",
"V A g g g A V g g A g g g g g g g g g g g A g g g g g g g g g g g g s a D g g g A A V V V V g g g g g g V V V g g s a V g g a A ",
"g Z V V g A g g g g g g s g g g s g g g g A g g g g g g g g g g g s s a A g g g V A V g V V g g V g g V V V g g g g g g g g s g ",
"g g V V g V g g g g g g s g g g s g A A g g s g g g g A g s 8 8 % 8 8 8 g g A A g g g g g g g g V g g g V g g g g V g g V V g V ",
"V g g V V g g g A g g g g g g g g A g g g g g g A g g s n q ,.q.0.0.0.<.q a V V g s a g V V V g V g s a g g g g g D V g A A A V ",
"V g A A g y g A A g g g g g g D g g g g g g g g g g g 0 1.r.i.p.p.p.p.p.r.,.9 8 g g g g V V g g 8 g g V g g a s g g g g g g g D ",
"a g A A g g g g g g g i g g g g g s g g A A g s g s 9 q.i.i.i.i.u.u.u.r.w.<.> & $ a g g V V g g g g g g g V g s g g g g g A A V ",
"g V A V A g g A A g g g g g g A g g g g g g g g g a <.i.i.i.i.i.u.p.r.e.e.r.7.7.;.; a V g g V g A V g g s g g g g g g s g g V A ",
"g A A g g A g A g g g g g g A A g g A g A A g g g q y.i.i.i.i.i.u.0.w.r.y.w.7.y.i.8.& V V V g V A V V g g V V V g g A g g g g A ",
"g g g g g D g g A g D g g g g g g g g g g A g g % ,.i.i.i.i.i.i.r.;.q.r.u.y.w.i.i.y.G i V V V g V V V V g V A V g g A D g g g g ",
"g A A g g A g A A g g g g g a g g g s s g g g a # 7.i.i.i.i.i.i.8.,.<.w.p.w.w.i.i.p.;.$ V V V g V V g g g g V V g g g g g g g A ",
"g D g g g D g g g g g g g g g g g g g g g D A g 8 0.i.i.i.i.i.y.w w.>.y.i.q.q.i.i.i.=.% g g V V V g g g V A V g g g g D A g g g ",
"A g g g s g g g g g D g g g g g D h g g g D g i 0 w.u.i.i.i.u.0.; 8.=.y.u.;.;.i.i.e.=.# g s a V g A V g s g V g g a g A g V A A ",
"A g g g s g g g g A g A g A g D g D g g g g s y , 0.u.i.i.u.w.*.; <.=.w.0.&.& w.y.9.G y g g a g g V g g g g V V g s g g g g g V ",
"g g A A g g a g g A g D g g g g g D D g g g s y q 7.w.y.y.7.1 > ; e 8.7.<.F v G 9.;.- g g g g g V g g g V V A V g g V g V g g V ",
"A A A g g g g g s s g g A A g g g g g g g g g y , 9.7.7.7.6 k 4 * 1 e e ; Y G.P * $ g g a s V V A V g g g A V g g g g g A A g g ",
"A g A A A g g g g g g A g A A g V A V V g A g 8 , 7.7.9.1 ^ H.{ 5 7.1 +   . O ) o g A g g g V V A V g g 8 A A A A V A g g V g 8 ",
"g g g A A g s g V g g V V g V V A V V V g 8 V i =.7.9.9.; R K.G.K 7.9.@ t o o O c g g A A V V g V g g g g g A V V g V g g g V V ",
"A g g g A g g g g g g g g g g V A V V V g s g 8 ,.8.7.8.=.x N.K.k.&.8.5 L.v.L.H.o.z g g V V V V V g g g g V V V V g V s g g V V ",
"g g g g g g g g g g g g V V g g g g V V g g s 8 <.8.8.7.=.5 _ Y.X.< 7.S J.b.L.~.K.Y g g g V V g g g g V g V g g V A g s s g g g ",
"g g g D A g A A g g i g A V g g g g g g g g 8 q 8.8.8.<.e w 2 U l H 7.H E.Y.~.Q.#.z V V V V V V g g A A g g g V V g V g g V g 8 ",
"g g g g g g A g V g g g g g g g 8 g g g g V 8 q 9.8.8.:.e w @ I ( 4 :.B E.Q.J.O.c s i g V V A g s g g g g D A A V V D V g g V V ",
"g g g g V g g g V g 8 g g g g g V V g g A V g e 9.8.7.&.e * 2 !  .~ B 7 M.m.' t a g y g A A V g g g g g g A g V g V A V V g V V ",
"g A V g A g g g g V g g g g g A V A g g g g 0 1.8.7.<.G : = 5.f.4.[  .~ K f f g g g g g A V V g g g V g g g g g g V A V V V V V ",
"g A A V V V g g g g V V g g g V g A g s g g 8 7.7.8.*.e F 6.x.b.d.c.[  .s.3.2.m V g V V V V g g g V V g V A s g g V A g V A g g ",
"V g A A V g i g g g V V s g g g V V g g g g - 7.8.8.*.w 3.z.U./.L.|.d.m.H.h.b.t.L V g g g V V V V g g V V A i g g g V g g g g g ",
"g i g g g g g V V g V g g g g g A V g V g g 8 9.1.7.*.* j.!.(.(.W.z. Xc.h.a.OX=XOX4.g g g V A g V V V g V V V g V V A A V g g 8 ",
"g g g g A g A V V V A V g V V A g g g A D 0 8 q.*.*.w X #.(.(.(.Y.s.].%X%X%X$X;X;X+XL g V A V V A V g V A V g g V A g 8 g g g A ",
"g A V V A V A V g V V g g g V V V g g V V A 0 1.1.*.w + X.(.(.(.P.{ n.;X,X,X,X-XoX;Xf.g V A A g g V g V V A A V g V g A g g g g ",
"g A V g A A A V g s g g V V g V g g g V g V 8 e 1.1.w X k.(.(.(.J.` [.>X,X,X,X-XoX%X}.2.g g g A V V g g g V A V g g g A g A A g ",
"g V V g g A V g g s V V V V V g g i g V V V i 8 q 9 w X k.(.(.(.G.3.#X,X,X,X,X,X*XoX'.2.g g g g A V i i V V V g g V V g g A A g ",
"g g g A A V D A V A V g V g V A g g A A V A g s $ 9 & X k.(.(.(.G.a.@X,X,X,X,X,X;X`.5.D g g g g g V g g V A V g g V V g g g g V ",
"V g V A g V g g V V V V g s s A g A g g g A g g g g a # o.(././.m.d.XX:X,X,X,X,X=X].N m g g V V g V g g g V a s g g V g V g g V ",
"V g g g A g A V V g V V A V g V g A g g g g D A A g g r k.(./.~.! v.{.@X,X,X>X:X&X`.J V g V g s g V V V g g g g g g g A A V g V ",
"V g s s g g V g g g V V V V g g g g g s g g A g g A A r k.(./.E.P {._.&X>X&X.X X$Xg.C g g V V s g V V g g V g g g g V A A V g V ",
"V g s g g g g g g g g g g V V A g A s g A g g g g g A r j././.E.P {.XX:X$X{._.`.`.J V V g V g g V V g g g A A V V V g g g g g g ",
"V g A A V V V s i V g i g A A A A A g A A g g g g g g r m.(.(.V.] {.=X,X Xg.5.).6.a V g V V V g D V g V g g g g g V g g g g V V ",
"V g V V g A g g V g g g g g g g g g g g g g A A D g i l J.(.(.X.z.b.}.$X}.t.2.-.S g V V V g V V V g g A g g V g g g a g g g V g ",
"g A V g g V V g g g V V g s i V g g g a h g g D h s 3 l Y.~.(./ b.oX X[.).3.6 s V V g g V V V V V g V V V V g g g g g g g V V V ",
"g V g g g V A V g A g g V g g V A g g g g g g g g s r ) Q.(.(./ a.l.l.l.x.s.7 h V V V V g g V g A g g g g V g A A g g A V V V V ",
"V g g g g V A V g A g g A V g g A A A g g g A g g s t #.~./.(./ C.!.R.R.X.~ l s Z g Z V V V g V V g g g g g g V V g g A A g g V ",
"g V g g 8 V g g g g g g V g V g g g g g g g A g f c U P./.~.(.o.k.(.(.!.] ~ l h V g g g V V g g V g g g i g g V V g g g g A A A ",
"8 V A g g g g g g A A g g A A A g g A A g g D g r ' } T.~.~.~.Z.E (.(.U.( +.l h V V g V V V V g g g g V g V g V A g g g g g g D ",
"V V g g V V A V g A A g g V A A g g g g A g g g 3 | %.%.K.Y.N.+./ (.(.C.W S.U h A V A V s s g V g A V g g V g g g g A A g g g A ",
"V g V V g g V V g g A A a a A g g g g g g g a a r E O.+.A.@.@.^ C.(.(.#.' F.U h V V V V g g g g g V g g V V g s g V V V g g A g ",
"V V V V g s g g g s g g s g g g g g g A g A g a s f t U _ | o.C.(.(.(.) %.S.U h g V V V g g g V V V V g V V V g g V V g g A A A ",
"V g V g g i g g s i g g g g g g a g A A g A g g g g g u 3 j k.(.~.(.T.W A.S.U s V V A V V V g g g V V g g V V V g g V g g g g g ",
"V g g g g V V g s a A A g A A A g g g g g g g g g g g g s t o.^.(.(.#.' A.%.k u V Z V V A Z g g i g g V V V V V V V V V g V V 8 ",
"A g g i g A g g g g V V g V A V V V V V V V V g V V V V h I M.T.Q.I.) | $.Y f g g V V V V V V V g g A A g g g V g A g A V g g g ",
"V g g g g A A g g V A A V V V g g V V g V V g g a a g a 7 | S.S.F.S.Q Y x s g g V V V A V g V A V g V V g A V g g g V g A A g g ",
"g A g g g g g g g g A V V V g V g g V V V V s g g g f l T A.S.S.A.B.v 5 n N N M C V V A V g g V V g g g g A g g g g V g V A g V ",
"g A A g V g g A A g g g A V V g g g g A A V s V C m x _ ' S.S.S.S.$.d n M n n M M q N C V g g V V V V g g g V V g g A g g g g V ",
"g A g g A g g A V g g g g V V g a g V V V V C C N p T M.( B.S.S.S.| d M n b n M M M M M F m a V V A A g g g D V g V A V g g g V ",
"g g A A V g g g g i V V g V V V A V V V A F M N M p W F.T $.S.A.A.^ b M M n M M M M q M M M N V V V V V A V A A g g g g g A D V ",
"A g g V g i g g g g V A V A A V V V V V C F M M N m U Z.Y | D.A.Z.Y p M N n M N N N N N M M M C g g g g g g A g g V D V g V g g ",
"A g g g g s g A V g V A V V A V V V V C N n M M M M m x t T D.A.A.( m M N M M n M M n N M M M M A g g g g V g A V V A g g g g V ",
"V g V V g g g A A V V V V V A g g g g V q M M M n n N 0 p Y D.A.A.@.x b M n M M n M n M m M n M V g g V g V g A A g g V V g g V ",
"V V A A g i g V V V V V V g g g g a a m M N M M n b n N b Y F.S.S.S.M.z N n n n M M M M M M n q g g V A g A g V V V g A V g g V ",
"A V V V V V A A g V A V g g g i g V V V N q M M M M M F b z W ..M.B.O.d M n b b M M C M C M M N V V V V g V A A A g V V g g g V ",
"V A A A A V V g g V A V g g g g V V V A C M M N N M M M n b b 6 j j 4 b b M M M M M M M M N M C g g g g g g 8 g V V V V V V V D ",
"V V V V V i V V V g V g g V A V g g g g D F M M n M N M M M M M q M M M M M M n M C q M C q C D V g g V g g g g V V V A V V A A ",
"g g V V g s g V V g g V V V V A g g A A V C N N n M N M M M M M M M M M M n M M 0 C M M C q A A V V g g V A g g V V g A A V V V ",
"V g A A g g g g V g g A A A g g g g A D V V V F N M M M n M N n M M M M n n M n C q C q V V V V V g g V A A V g V A V g A A V V ",
"V V A A V g V A A V g A V A A V D g g g g 9 A V S C F M n M N M N N N M M N q b q C C A A 0 0 V V V V V V V V g A D V V V A D D "
};
