/* XPM */
static char *out[] = {
/* columns rows colors chars-per-pixel */
"64 64 161 2 ",
"   c None",
".  c black",
"X  c #321C1C",
"o  c #171523",
"O  c #221825",
"+  c #212034",
"@  c #332030",
"#  c #3E2A3B",
"$  c #472A39",
"%  c #2B2C4C",
"&  c #312944",
"*  c #362E4E",
"=  c #2D2E50",
"-  c #2F3258",
";  c #343150",
":  c #373256",
">  c #303359",
",  c #333762",
"<  c #383A66",
"1  c #353B6A",
"2  c #383D6C",
"3  c #393F71",
"4  c #432B44",
"5  c #4E334B",
"6  c #5D3440",
"7  c #453757",
"8  c #483C52",
"9  c #413258",
"0  c #5E3851",
"q  c #713F49",
"w  c #693D54",
"e  c #3D4276",
"r  c #3C447C",
"t  c #3F467E",
"y  c #4F4F5C",
"u  c #684145",
"i  c #7F4C4B",
"p  c #7B5848",
"a  c #7A4757",
"s  c #534C6E",
"d  c #41477F",
"f  c #53547E",
"g  c #674E67",
"h  c #6B5F7C",
"j  c #854C4D",
"k  c #824755",
"l  c #884950",
"z  c #8C4950",
"x  c #85545C",
"c  c #88515F",
"v  c #8D565C",
"b  c #925555",
"n  c #995656",
"m  c #9A5957",
"M  c #9C5359",
"N  c #A7575C",
"B  c #9D625B",
"V  c #9E695F",
"C  c #88596F",
"Z  c #A95D61",
"A  c #B05D62",
"S  c #836463",
"D  c #8C6862",
"F  c #9D6A6A",
"G  c #9F7063",
"H  c #9F7165",
"J  c #886B76",
"K  c #806579",
"L  c #936675",
"P  c #B16C64",
"I  c #BA6A67",
"U  c #AE7565",
"Y  c #B27368",
"T  c #BE766C",
"R  c #B37B6E",
"E  c #A96571",
"W  c #C67D71",
"Q  c #A2806F",
"!  c #A2887E",
"~  c #B48272",
"^  c #B68A78",
"/  c #C08373",
"(  c #C98372",
")  c #CA8A76",
"_  c #D28075",
"`  c #404986",
"'  c #434B88",
"]  c #585B84",
"[  c #454F90",
"{  c #485091",
"}  c #4A549A",
"|  c #5C628E",
" . c #6B6781",
".. c #6B6F9B",
"X. c #4E59A3",
"o. c #4E59A4",
"O. c #4F5AA5",
"+. c #535FAD",
"@. c #535FAE",
"#. c #5864B8",
"$. c #516DB9",
"%. c #7A7EA2",
"&. c #747DAB",
"*. c #5C69C1",
"=. c #616FCB",
"-. c #817C8F",
";. c #9D7B87",
":. c #7982AD",
">. c #7F85B6",
",. c #988097",
"<. c #A2918E",
"1. c #838CB2",
"2. c #838AB8",
"3. c #9E9FBA",
"4. c #A298A2",
"5. c #A997A8",
"6. c #A2A0B5",
"7. c #CA9581",
"8. c #D69683",
"9. c #EA9783",
"0. c #D0B89F",
"q. c #E2AB8F",
"w. c #F5A489",
"e. c #F6AA8D",
"r. c #EEAD91",
"t. c #EFB395",
"y. c #F7B191",
"u. c #F7B393",
"i. c #F8B997",
"p. c #F9BF99",
"a. c #F9C09B",
"s. c #FAC29D",
"d. c #FBC8A1",
"f. c #FCCFA5",
"g. c #FCD1A7",
"h. c #FDD7AB",
"j. c #FAC9B0",
"k. c #FFE0B1",
"l. c #8893C6",
"z. c #8C98C8",
"x. c #919DCB",
"c. c #9CA3C4",
"v. c #9FACD2",
"b. c #ABAEC5",
"n. c #AAB4DD",
"m. c #B1BBD7",
"M. c #BABBD2",
"N. c #A6AEE1",
"B. c #B4BDE8",
"V. c #B9C0D7",
"C. c #B6C0D9",
"Z. c #C9C2CA",
"A. c #D0CFDA",
"S. c #C3C9E2",
"D. c #C7D2EB",
"F. c #D6DDEC",
"G. c #DEE2EC",
"H. c #D9E0F6",
"J. c #E1E5F7",
"K. c #F7F9FE",
"L. c white",
/* pixels */
"                                                                                                                                ",
"                                                                                                                                ",
"                                                                                                                                ",
"                                                                                                                                ",
"                                                                                                                                ",
"                                                                                                                                ",
"                                                                                                                                ",
"                                                                                                                                ",
"                                                                                                                                ",
"                                                          3 d d d e                                                             ",
"                                                      > +.=.=.=.=.=.*.'                                                         ",
"                                                    > =.=.=.=.=.=.*.#.[ - - %                                                   ",
"                                                    +.=.=.=.=.=.*.*.#.*.o.#.o.                                                  ",
"                                                  3 =.=.=.=.=.=.{ +.=.+.*.=.*.,                                                 ",
"                                                  d =.=.=.=.=.{ } *.=.+.=.=.=.}                                                 ",
"                                                  { =.=.=.=.=.t t =.=.X.=.=.=.}                                                 ",
"                                                  @.=.=.=.=.e O.t @.*.2 +.=.@.2                                                 ",
"                                                  O.*.=.=.o.- 2 #.O.O.8 8 #.O.                                                  ",
"                                                % O.O.O.t $ # O.2 = D y.p.O o                                                   ",
"                                                2 O.O.O.5 d.S O.O.2 X . U                                                       ",
"                                                t O.O.O.5 a.s.t O.2 ;.y p N                                                     ",
"                                                O.O.O.} 1 Y r. .O.2 j.$.f.a.b                                                   ",
"                                              , O.O.O.` r & V q } 2 h.d.k.a.                                                    ",
"                                              t O.O.} r r - l Z * = f.f.8.i                                                     ",
"                                              O.O.O.[ r r 6 C C c A W G i                                                       ",
"                                              O.O.O.r r < s z.l.2.E 7                                                           ",
"                                              O.O.O.r r ; -.0.k.4.M.J 8.f                                                       ",
"                                              O.O.O.r r @ g.k.k.k.5.D.c.v.x.]                                                   ",
"                                              t O.} r r : ^ k.k.k.E m.L.L.G...                                                  ",
"                                              2 [ [ [ r 1 j k.k.k.I b.L.L.L.A.                                                  ",
"                                                [ - t r 1 @ k.k.k.7.G.L.L.L.L.:.                                                ",
"                                                      + / u q.k.k.q.Z.L.L.L.L.n.                                                ",
"                                                        w.F ^ k.k.k.h J.L.L.H.>.                                                ",
"                                                        ( ! x k.k.k.g S.K.B.N.]                                                 ",
"                                                      a ! k.Q g.k.k.R F.C.&.]                                                   ",
"                                                      1.S.C.3.R k.k.g.K %.|                                                     ",
"                                                      v.b.6.V.,.g.k.k.R L                                                       ",
"                                                      0.k.k.k.<.R k.h.u.P m                                                     ",
"                                                      k.k.k.k.k.^ k.d.s.) j                                                     ",
"                                                      k.k.k.k.k.Q r.k.k.h.b                                                     ",
"                                                      k.k.k.k.k.H n t.k.h.B                                                     ",
"                                                      k.k.k.k.g.  b M _ _ b b                                                   ",
"                                                      k.k.k.k.^   i B B j l b                                                   ",
"                                                      k.k.k.k.m   P w.b l (                                                     ",
"                                                    z k.k.k.g.    9.w.w.w._                                                     ",
"                                                    _ a.k.k.~     _ w.w.w.b                                                     ",
"                                                  z w.w.e.i.v     B w.w.w.w                                                     ",
"                                                  B w.w.w.9.4     b w.w.w.4                                                     ",
"                                                  B w.w.w.P       0 w.w.w.0                                                     ",
"                                                  k w.w.w.k       4 w.w.w.T 9                                                   ",
"                                                  4 w.w.w.0       9 P 9.w.w.B                                                   ",
"                                                  4 w.w.w.T 9         0 b B 9                                                   ",
"                                                  4 w.w.w.w.B                                                                   ",
"                                                    4 k B B 9                                                                   ",
"                                                                                                                                ",
"                                                                                                                                ",
"                                                                                                                                ",
"                                                                                                                                ",
"                                                                                                                                ",
"                                                                                                                                ",
"                                                                                                                                ",
"                                                                                                                                ",
"                                                                                                                                ",
"                                                                                                                                "
};
