/* XPM */
static char *out[] = {
/* columns rows colors chars-per-pixel */
"64 64 203 2 ",
"   c #1C1311",
".  c #2A2225",
"X  c #382939",
"o  c #4B2E3A",
"O  c #4E313C",
"+  c #554136",
"@  c #2C2641",
"#  c #362C4B",
"$  c #373A4D",
"%  c #363A55",
"&  c #3A3D56",
"*  c #323258",
"=  c #35395C",
"-  c #3A3D5A",
";  c #353964",
":  c #363A67",
">  c #3A3D68",
",  c #493649",
"<  c #4E364E",
"1  c #573943",
"2  c #423352",
"3  c #4A3C53",
"4  c #413F5C",
"5  c #413D6B",
"6  c #3D414E",
"7  c #3E4252",
"8  c #3D425C",
"9  c #3E4468",
"0  c #3B4174",
"q  c #3C447B",
"w  c #5A454D",
"e  c #414653",
"r  c #4B4652",
"t  c #454A56",
"y  c #4D4A55",
"u  c #41435C",
"i  c #4C435F",
"p  c #464D59",
"a  c #484F5A",
"s  c #5D4254",
"d  c #544B54",
"f  c #584859",
"g  c #4C545F",
"h  c #54535D",
"j  c #6A4A4D",
"k  c #7A484B",
"l  c #624653",
"z  c #6C4654",
"x  c #664A53",
"c  c #794B54",
"v  c #6E5355",
"b  c #775558",
"n  c #745B58",
"m  c #444564",
"M  c #454667",
"N  c #454966",
"B  c #494E63",
"V  c #464A69",
"C  c #494D6C",
"Z  c #4D5561",
"A  c #4D536B",
"S  c #505763",
"D  c #515964",
"F  c #52546C",
"G  c #555D69",
"H  c #464B79",
"J  c #4E5371",
"K  c #545373",
"L  c #545879",
"P  c #6A566D",
"I  c #7A5865",
"U  c #786771",
"Y  c #834D4D",
"T  c #854C53",
"R  c #865657",
"E  c #8C5652",
"W  c #935756",
"Q  c #935C5D",
"!  c #A55A5E",
"~  c #92625E",
"^  c #99645F",
"/  c #88586D",
"(  c #955B67",
")  c #B05F63",
"_  c #8B6964",
"`  c #9C6461",
"'  c #956A64",
"]  c #9C7568",
"[  c #826778",
"{  c #9B7E73",
"}  c #A66A63",
"|  c #A16D69",
" . c #B66E69",
".. c #A97769",
"X. c #B6766C",
"o. c #BC736C",
"O. c #A87D78",
"+. c #C87C71",
"@. c #96857A",
"#. c #AC826F",
"$. c #BE8374",
"%. c #B98C79",
"&. c #BB957E",
"*. c #CC8275",
"=. c #CA8977",
"-. c #D48B79",
";. c #DB8D7C",
":. c #D3937D",
">. c #DB927C",
",. c #E3947F",
"<. c #3F4782",
"1. c #474982",
"2. c #424A84",
"3. c #444D8D",
"4. c #48528D",
"5. c #595B84",
"6. c #464F90",
"7. c #475194",
"8. c #495294",
"9. c #4B559C",
"0. c #5D6187",
"q. c #68688E",
"w. c #7A6B89",
"e. c #76758F",
"r. c #747598",
"t. c #4E59A4",
"y. c #505AA5",
"u. c #525DAB",
"i. c #5460AF",
"p. c #5763B5",
"a. c #5864B7",
"s. c #5966BB",
"d. c #5B68BF",
"f. c #6870A3",
"g. c #5D6BC4",
"h. c #5F6DC9",
"j. c #606ECA",
"k. c #6170CC",
"l. c #85728B",
"z. c #A37F87",
"x. c #8178A1",
"c. c #7882AE",
"v. c #7F83B3",
"b. c #928393",
"n. c #B0938A",
"m. c #BAA592",
"M. c #8C93B7",
"N. c #9190B1",
"B. c #9497B8",
"V. c #A89FB8",
"C. c #A6A2AD",
"Z. c #B5ADA7",
"A. c #C89A83",
"S. c #DB9581",
"D. c #D69B86",
"F. c #E39981",
"G. c #EB9B83",
"H. c #F09F87",
"J. c #C5A387",
"K. c #D8A78C",
"L. c #C3A899",
"P. c #C5B79F",
"I. c #D8BA97",
"U. c #EEA086",
"Y. c #ECA68B",
"T. c #F2A287",
"R. c #F4A388",
"E. c #F4AE8F",
"W. c #EDB292",
"Q. c #E7B896",
"!. c #C6AEAE",
"~. c #E2BAA4",
"^. c #E7C29C",
"/. c #FAC79F",
"(. c #CAC4AC",
"). c #DDC9A5",
"_. c #F2CCA4",
"`. c #F8CFA5",
"'. c #EED8AB",
"]. c #F5D2A6",
"[. c #FBD1A7",
"{. c #F2D7AA",
"}. c #FBD5A9",
"|. c #F6DAAD",
" X c #FCDDAE",
".X c #FDDFB0",
"XX c #FDE1B2",
"oX c #949ECB",
"OX c #9DA5CB",
"+X c #A9B1CE",
"@X c #ADB3CC",
"#X c #A1ABD6",
"$X c #B7C1DD",
"%X c #BCC4DB",
"&X c #BDC3E8",
"*X c #C6C9D8",
"=X c #D8D9E4",
"-X c #CCD2F1",
";X c #D5DBF0",
":X c #DFE2ED",
">X c #E8EBF8",
",X c #F5F6F9",
"<X c #FDFDFD",
/* pixels */
"Z G g t Z g G D Z g g g D D g p Z Z Z Z Z G Z g g g Z t g g g g g g S D g g G S Z D g g g a g p g p p g g g S Z g t g G S g g G ",
"Z S g g g D Z g Z D g g S g g g g g g g g D g g D g g g g g g g g g p g G g g g D D D g g g g g g g g g g D g g g g p g g g a S ",
"g Z g g g D g g g g g g p g g g a g Z Z g D a g Z g Z Z g g g g t p a g D g g S D D g g g Z g g g g g g Z Z g g g g g g g g g g ",
"g g S Z g g g g g g g g a g g g a Z Z Z g Z p g Z g g g a % % & % & u p g D S g g g g g g g g g D g g g g g g g g g g g g g g g ",
"Z g g g g g g S D g g g g g g g g D Z g g g g Z Z g t 9 4.i.a.a.a.p.9.H B a D Z Z Z 8 g Z Z g g g g g p g g g g g G g g D G D g ",
"Z g S G g t g S D g g g g g g G g g g Z Z g Z g g 7 <.a.g.k.h.k.k.k.k.a.3.$ 7 e a Z g g Z Z g Z p g g Z g g e g g g g g g g g G ",
"p g S D g g g g g g g t g g g g g a g Z Z D g a 7 H k.h.k.h.k.k.k.g.s.i.6.: = = 7 a Z g Z Z g g g g g g g g g a g g g g g D D g ",
"g S S Z S g g S D g g g g g g D g a g g g g B p 9 a.h.k.k.k.h.h.g.s.s.s.s.t.i.i.0 7 Z Z g g g g g g g g a g g g g g g p g g D D ",
"g D D g g D g D g g g g g g D D S g g g S S Z p 7.j.j.j.j.j.j.g.8.s.s.k.u.u.h.h.9.% g g Z Z Z Z D Z Z g g g D g g g h g g g g D ",
"g g g g g G g g D h D g g g g g g g S g g D a & p.j.j.j.j.j.j.t.6.t.g.k.p.g.h.j.d.0 7 g Z Z Z g g Z D g g g D D g g G G g g g D ",
"D D g g g D g D D g g D g p t D g g p p g g a - g.j.j.j.j.j.g.3.8.i.h.h.u.g.j.j.g.7.$ g g Z Z g D g g g g g g g g g g g g g g g ",
"g D D g g G g g g g g g g g g g g g g g S G g V g.j.j.j.j.j.y.2.q s.k.h.9.s.j.k.s.3.$ g g Z Z g g g g g g D D g g g g G D g g g ",
"D g g g t g g g g g D g D D g g G g g g g S u 2.g.j.j.j.j.s.> 9.0 u.g.s.0 9.h.g.u.> p Z g g a Z g Z Z g a g g g g t g D g g D D ",
"D g g g g g g g D D D D g g g D S D S g g g & H p.j.j.j.g.9.: <.t.u.u.t.- 5 a.a.9.9 g g g g a g g D g g g g D g g g g g g D g g ",
"g g D D g g t g g g g D D g g D g S S S g g $ H y.p.a.i.H * ; > q q H K ] ] C 0 9 p g g g g g g g g g g g D D g g g g g g g g D ",
"g D D g g g g g g t D g g g g g g g S S g a * 9.t.t.t.1.b b 5 9.6.q n | $.W.j . $ g g g p p g g D D g g g D g g g g g g D D g g ",
"D D D D D g g g g g g D g D D g Z D D g g g 7 t.t.t.9.2 A.K.P 9.y.6., .   E k r g g Z Z g g Z Z D D g g p g g D D g D g g D g 7 ",
"g g g D D g p g g g g Z Z g Z Z D D g g g 6 9 t.t.t.9.# A.E.n.8.y.8.X P X + k d g D Z D Z Z Z g g g g g g g D Z D g g g g g g D ",
"g g g g D g g g g g Z g g g g Z Z Z g Z 8 $ <.u.t.t.9.: ( W.A.5.y.3._ !.f.).W...w g g Z Z Z Z Z Z g g g g g g D g g g g g g g g ",
"D g g g g g g g g g g g Z g Z g g g D Z 7 8 9.t.t.t.6.q 3 +.K.P 9.3.@.~.V.'.|.D.w g Z Z Z Z Z Z g g Z g g D g g g D g p a g g g ",
"g p g G D g D D g g 7 g Z Z g g g g Z Z 7 0 t.t.t.9.<.q : o k c 1.3.@.{.].|.Q.^ t g g g Z Z g g g g D D g g g g Z g D g g g g 7 ",
"D g g g g g D g Z g Z Z Z g Z g 7 g Z D 7 4.t.t.t.3.q q > X ) ! , ; { `._.K.^ d g g a g Z D D Z p g g g g G D D D D D g g g Z D ",
"g g g g g D g g g g 7 g g Z Z g Z Z g 7 8 9.t.t.t.<.> q 2 c / ' T T  .=.#.R d g g g t g D D Z g g g g g g D g Z g g D g g g g D ",
"g D g g D g g g Z Z g g g g Z Z Z D g 7 8 t.t.t.9.<.<.: 2 w.v.v.x.| ( f d d g g g g g g Z Z Z Z g g Z g g g g g g g D g D D g g ",
"g D D g D g a Z Z Z Z Z g g g Z g Z g 7 8 9.t.t.<.<.q 9 L r.C.C.M.N.T [ [ F B g Z Z Z Z Z Z g g Z Z Z g Z D a g g Z D g Z D g Z ",
"D g D D g g 7 Z Z Z Z Z a a g Z Z Z g g 8 9.t.t.<.<.0 * w.P.'.|.L.@XV.l.z.e.q.K Z Z Z Z g Z Z Z Z g g Z Z G 7 g Z g Z g g g g g ",
"D 7 p g g g g g Z g Z g g g Z Z D Z g 7 9 t.t.t.<.q 0 @ %.XXXX X XL.@X&X@X+XoXc.D g g g g Z D Z Z Z Z Z Z Z g g g Z D D g Z a 7 ",
"D g g Z D g D Z g Z D Z g Z Z Z g Z D D 9 <.t.t.<.0 0 * E |. XXX.XD.x.;X,X,X=XOX0.g 7 a Z Z Z Z Z Z Z Z D Z g Z Z D Z 7 a Z Z D ",
"g Z Z Z D Z D D Z Z Z g g Z Z Z Z Z Z g 6 9 t.<.t.<.q ; 1 Q.XX X XS./ =X<X<X<X=Xc.g a D Z Z Z g Z Z g Z Z Z D D Z Z g Z Z g g Z ",
"g D Z Z D D D Z Z 7 g g Z Z g Z g a g g g q <.0 9.<.q q # #.XXXX.XW.l.:X<X<X<X,X%XG g D Z Z Z Z Z Z a g g Z D Z g g g D Z Z Z Z ",
"g D Z g g D Z Z g a Z Z Z Z Z Z g a a Z Z 7 9 6 0 9 ; m @ _ XX X.X~.L.,X<X<X<X<X>Xv.G Z Z Z g g Z Z 7 g Z g Z g g Z Z g Z Z D Z ",
"Z g g Z D Z D D D D Z g Z g Z D Z g D D D Z 6 7 6 8 $ ..R Y ].XX.X_.n.=X<X<X<X<X,X#XL Z Z Z Z Z Z Z Z Z Z D Z g g Z Z Z g g g Z ",
"g g g D D g g g D g g g g g a D Z D Z g Z Z Z Z g g w :.>.j I.XX.XXX] B.>X<X<X,X-Xc.A Z Z g Z Z Z Z g g g Z t p Z g Z Z g Z Z Z ",
"D g g g g g D g g g g D D g g g Z Z Z Z Z g G Z g g w =.| x n.XX.XXX#.q.;X<X>X&X#X0.Z Z Z Z Z p g Z Z g g g g g g Z Z D Z Z g Z ",
"g g a a g g g g g g g g g g g g g g a a g g Z Z g g c } I.m.] '..XXXK.w.%X:X#XoXr.Z g g g Z g p g Z Z Z Z Z g g Z g Z Z Z Z g Z ",
"g g g g g g g g g g g g g D D g Z Z a g Z g g g g h P b.(.(...^.XX.X}.O.*X&Xc.0.B g g g Z Z g g Z Z g g Z Z Z Z Z g Z g g g g Z ",
"D g D G g D g g g g g t g g D G D Z g Z Z Z Z g g G B.=X=X$Xb.%. XXXXXK.[ r.5.L g p g g D D g D G Z Z Z g g Z g Z Z g g g g g Z ",
"g g g g g D g g g g g g g g g g Z Z g g g Z Z G D L #X*X%X%X%Xn.^.XXXX].] I z Z g g g g g g g g Z g Z Z g Z Z Z Z g t g Z g Z Z ",
"g D g g g D g g g g g g g g p Z g g g p g g Z Z Z F C.Z.n.Z.C.U =. X X XK.| ( h S g g g g g S g Z g Z Z g Z Z g g g g g g Z Z Z ",
"g D g g g g D D g D g g g g g Z Z Z g g g g Z Z Z n |.XXXXXXXX).%.Q. XW.U.o.X.1 g g D D g g g g Z Z g g g Z g Z Z g Z Z Z Z Z Z ",
"g g g g a g D D g D g g D g g g D D Z g g g Z g Z n XX XXX.X.XXXJ.&. X[.[.W.Q l t g g g g g g S D g g g g g g g Z Z Z G g Z Z Z ",
"g g g g t g g g g g g Z D g g g g g g g g Z D D S n XX X.X.X.XXXm.} [. X X X-.o r g g g S g g g g g g g p g g g Z Z Z g g Z G Z ",
"p g D g g g g g D g D g g D D D g g D D g g G g g n XX.XXX.X XXX&.k :.[.XXXX,.O d h g g g g g g g g g g g g g D Z g g g g g g G ",
"g g g g g g D D g D D g g g D D Z g g Z g Z Z g g n .X.X.X.X.X`.~ 1 W o.Y.U.+.Y x g G g g g g g g D D g g g g g Z Z Z S Z g g g ",
"Z g Z D g g D g g g h g p g g g g g g g g g p p a n .X.X.X.XXXA.w l $.o.*.*.! T v p S g g g g g g Z g g g g g a g Z g D g Z G g ",
"Z g Z Z g a g g g a g D a g g g g g g D Z D g p a n .X.X.XXXXX' y d E W Y Y W E j a D g g g g S g g D g g Z D g g D g g Z Z D g ",
"g g Z g Z 7 g g a t g g g g g g p g D D g D g g S n .X.X.X.X^.b r c :.-.E Y } } r g G g g g g g g g g g Z D g Z g g g g g g g g ",
"Z Z g g Z D g g g p g D g D G g g g g g g g g g t | XX.X.X.XJ.d y } T.T.,.>.,.E t S g g D D g g t g D g Z Z g g g D g g g g g p ",
"D g a a g D Z g g g Z Z Z Z Z Z Z Z Z Z Z Z Z a z -.[.XX.X'.] h r } T.R.R.R.-.l g Z Z Z Z Z Z Z g g D D g g g g g g Z D g g g g ",
"Z g g g Z Z Z Z g Z D D Z Z Z Z g Z Z g Z Z g y Q H.E./.].Q.v B B b F.R.R.R. .r Z Z g S Z g Z D g g g g g D D g g g g g D D g g ",
"g D g g g Z Z Z g Z Z Z Z Z g Z g g g Z Z g p w *.T.R.R.E.*.f V M l ,.R.T.R.b B B S g S Z g Z S g g g g g D g g Z g g g D D g Z ",
"g D D g Z g g Z Z Z g g Z Z Z g g g Z Z G Z t l F.T.R.R.H.( 4 C C 1 ;.R.R.R.c m C C A Z Z g p Z D g D g g g g D g D D g g g g Z ",
"g D Z Z D g g D D Z g Z Z Z Z g p g Z Z Z A V l F.T.R.R.,.z m M C i o.T.R.R.R m V N C C A a p Z g D D g g g D D g g D D g g g Z ",
"g g D Z Z g Z g g 7 g Z Z Z Z Z D Z S K C C N s -.R.R.R.+.3 C C C 4 ^ T.T.R.o.s 9 C V V C C p Z D g g g D D D D g g g g g Z G g ",
"D g g Z g 7 Z g g g Z D Z Z D Z D Z A C V C V i  .T.R.R.Q m V M m - ^ U.T.R.Y.X.f V V V V C C Z g g g D g g D g g D G g g Z g g ",
"D g Z g g a g D Z Z D Z D Z D g Z Z A V V V V 8 ` Y.T.R.} 4 C M N N s ( *.G.T.:.s N V C V V C Z g g g g g g g D D g D g g g g Z ",
"Z Z Z Z Z g g D D Z Z Z Z D Z g g g B C V N V u ^ Y.T.R.;.R m V V V V m l R Q v 9 N N V V V V Z g g Z Z g Z g D D g g D g g g g ",
"Z Z D D Z 7 g D Z Z Z Z g g g g g 8 N N V C V 8 ` R.R.R.R.>.x m V V V V V m 4 m V N V V V V 9 p g Z Z Z g D g D g g g D g g g D ",
"D Z Z Z Z Z D D Z Z D Z Z g g 7 g Z J 9 V C N N l R o.-.>...i N V C m V C V m M N C A C V C C Z Z g Z Z g Z D D D g D g g g g g ",
"Z D D D D g g g g Z D Z g g g Z Z Z S C C 9 V C V m 3 , < 3 V V V N C m m M C M C 9 C 9 V A A Z Z g g g Z g 7 g g g g D g g D G ",
"Z Z Z Z Z a g D D g D g g g D Z g g Z A C V V V V V C V V V M V V V V V m V V N 9 C C C A A D D Z g g g g g g g g g g D D g D D ",
"g g Z Z g a a g g g g g D D g D g Z Z S A C C V V V V V V V V V N V V V V V V V A 9 9 A A Z Z D Z Z g Z Z D g g Z D g D D D D g ",
"Z g D D g Z g g g g g D D D g g Z Z S S D Z J V V V V V V V C V V V V V V V V V 9 A Z Z Z Z Z Z Z Z g Z D D D g D D g g D D g g ",
"Z Z D D Z Z Z D D g g D Z Z D D G Z Z Z Z p D F Z J V V C V V V V C V V V V m V A A Z Z Z 8 7 Z Z Z Z g Z g g Z D D g D g D G G "
};
