/* XPM */
static char *out[] = {
/* columns rows colors chars-per-pixel */
"64 64 205 2 ",
"   c #191614",
".  c #2F2526",
"X  c #352336",
"o  c #3A2A36",
"O  c #543038",
"+  c #372B45",
"@  c #35384A",
"#  c #393D49",
"$  c #2E2F54",
"%  c #2E3157",
"&  c #343554",
"*  c #363A53",
"=  c #363658",
"-  c #363A59",
";  c #3B3C5A",
":  c #363B66",
">  c #383B68",
",  c #373E70",
"<  c #393F71",
"1  c #44354C",
"2  c #4B3848",
"3  c #503749",
"4  c #5D3B4C",
"5  c #473C56",
"6  c #3D414E",
"7  c #3E4353",
"8  c #3D425C",
"9  c #3C426A",
"0  c #3B4174",
"q  c #3D447B",
"w  c #57424A",
"e  c #444652",
"r  c #4C4756",
"t  c #454B56",
"y  c #43445B",
"u  c #464D59",
"i  c #494F5A",
"p  c #524256",
"a  c #564C56",
"s  c #54435A",
"d  c #4C545F",
"f  c #57535C",
"g  c #65474D",
"h  c #684753",
"j  c #754D55",
"k  c #755151",
"l  c #755255",
"z  c #76565A",
"x  c #7E605A",
"c  c #444563",
"v  c #464966",
"b  c #4A4D63",
"n  c #42446B",
"m  c #4D4268",
"M  c #464A69",
"N  c #494D6C",
"B  c #534266",
"V  c #4D5561",
"C  c #4C526B",
"Z  c #505763",
"A  c #515964",
"S  c #505669",
"D  c #555C69",
"F  c #42497D",
"G  c #44487E",
"H  c #4D5172",
"J  c #585A79",
"K  c #6E5965",
"L  c #5B617D",
"P  c #72616C",
"I  c #814B51",
"U  c #8C5758",
"Y  c #95565C",
"T  c #905D5C",
"R  c #A35B5D",
"E  c #95635D",
"W  c #A6655E",
"Q  c #975962",
"!  c #986662",
"~  c #856979",
"^  c #936E76",
"/  c #AB6664",
"(  c #AA6D64",
")  c #B46D69",
"_  c #A97669",
"`  c #B4776A",
"'  c #BE756C",
"]  c #B47A6C",
"[  c #BC7D6D",
"{  c #AF6973",
"}  c #A37876",
"|  c #B77D76",
" . c #C1756F",
".. c #C37B71",
"X. c #AB8777",
"o. c #B98675",
"O. c #B7917B",
"+. c #C38473",
"@. c #CA8573",
"#. c #C68878",
"$. c #D88C79",
"%. c #CC927A",
"&. c #D0907F",
"*. c #DD927D",
"=. c #E1917F",
"-. c #3F4985",
";. c #444A82",
":. c #444B85",
">. c #444D8B",
",. c #585B86",
"<. c #475190",
"1. c #465194",
"2. c #4A5294",
"3. c #4B559C",
"4. c #5B6182",
"5. c #75658A",
"6. c #6E6D92",
"7. c #6A729D",
"8. c #4D57A1",
"9. c #4E59A4",
"0. c #4F5CA9",
"q. c #505BA6",
"w. c #525DAA",
"e. c #5663B5",
"r. c #5965BA",
"t. c #5B68BF",
"y. c #6E79A4",
"u. c #5D6BC4",
"i. c #5F6DC9",
"p. c #606ECA",
"a. c #6170CD",
"s. c #8E728B",
"d. c #7783AD",
"f. c #7C87B4",
"g. c #978897",
"h. c #A28B8A",
"j. c #B08A8F",
"k. c #BC9385",
"l. c #A4989B",
"z. c #878AB7",
"x. c #9697BB",
"c. c #A79AAA",
"v. c #A89EB5",
"b. c #ABA5AE",
"n. c #A2A2BD",
"m. c #C79A83",
"M. c #D79B85",
"N. c #E79983",
"B. c #CCA68A",
"V. c #D7A58B",
"C. c #CCAB99",
"Z. c #D7AB93",
"A. c #D3B492",
"S. c #D9B795",
"D. c #DBBE99",
"F. c #EEA187",
"G. c #E3A488",
"H. c #ECA489",
"J. c #F2A287",
"K. c #F4A489",
"L. c #F4A98C",
"P. c #ECAF92",
"I. c #E6B898",
"U. c #ECBC9A",
"Y. c #F4B293",
"T. c #F8BD98",
"R. c #E8C39C",
"E. c #F7C39D",
"W. c #CBC1B3",
"Q. c #E1CCA7",
"!. c #E9CAA2",
"~. c #F5C8A3",
"^. c #E4D2A7",
"/. c #EBD9AD",
"(. c #F7D3A8",
"). c #FBD5A9",
"_. c #F6DBAE",
"`. c #FBDCAD",
"'. c #E4D6B0",
"]. c #F4DBB0",
"[. c #FDDFB0",
"{. c #FDE1B2",
"}. c #8C97C3",
"|. c #959EC7",
" X c #95A0CE",
".X c #9BA5D4",
"XX c #A5ABC5",
"oX c #A4AACD",
"OX c #ABB5D6",
"+X c #B3BBE3",
"@X c #D2BEC5",
"#X c #BAC0D6",
"$X c #C4C8DB",
"%X c #D3D1DA",
"&X c #C6CEE8",
"*X c #CCD2E9",
"=X c #D7DAE9",
"-X c #D4DAEC",
";X c #CDD5F1",
":X c #D9E1F3",
">X c #E1E6F4",
",X c #E6ECF7",
"<X c #EDF1F9",
"1X c #F2F4FA",
"2X c #FDFDFD",
/* pixels */
"V D d t d V D A d Z A d D A i u A d d d A D d d d d d u d d d d d d A A d d D A V A d d u u d t d t u d V V V V d t d D Z V V D ",
"V Z d d d A V d d A d d A d d d d d d d d A d d A d d d d d d d A d i i D d d d A D Z V V V d d d d d V V V d d d i u d d i u A ",
"d V d d V A d d d i d d i d d d i d d d d A d d d d d d d d d d i i d i A d d A V A V d V V d d V d d V V V d d d d d d d d i V ",
"d d V Z d d d d d u d d i i d d i d A A d d u d A d d A d i 6 6 6 6 6 d d A A d V V u d d d d d V d d d V d d d V V d d d V V d ",
"V d d d Z d d Z A d d d A d d d d A d d d d d d A d d i 8 F <.2.2.2.>.9 u d A A d d t d V V V d d d u u d d d d V A V d A A A A ",
"V d Z D d e d Z A d d d d d d D d d d d d d d d d d t F w.u.p.p.a.p.p.r.<.8 t d d d V d V V d d t d d V d d u i d d d d d d V A ",
"u d Z Z d d d d d d d t d d d d d u d d A A d d u t :.u.a.p.p.p.p.p.u.t.0., @ 6 u d d d V V d d d V d d d V d u i d d d d A A V ",
"d Z Z Z Z d d A A d d d d d d A d d d d d d d d u q u.p.a.p.p.p.a.u.t.e.e.9.-.q - u V V d d d d V V d d i d d d d d d u d V V A ",
"d A A d A A d A d d A d d d V A Z d d d Z Z d d 5 8.p.p.p.p.p.p.r.e.t.r.t.3.e.u.q.- d d V V d V A d d d d d A d d d A i d d d A ",
"V d d d d D d d d A A d d d d d d d d Z d D d e F p.p.p.p.p.p.p.3.q.r.p.u.0.u.i.i.F u d V A V d d A A d d d A A d V D D d d d d ",
"V A V d d d d A A d d d d i u A d d u u d d d # :.p.p.p.p.p.p.r.>.w.w.a.u.e.i.i.a.3.# V d V Z d A d d d d d d d d V d d d d d A ",
"d A A d d D d d d d d d d d d d d d d d d D d 6 2.p.p.p.p.p.a.:.9.2.e.a.r.0.a.i.a.3.@ V d d d V d d d d d D A d d V d D A d d d ",
"A V V i u A d d d d A d d d d A D V d d V Z d 8 w.p.p.p.p.p.p.< 3.F e.p.w.>.u.i.u.3.@ V V u u V d A d d u d d d d u d A d V A A ",
"A d V d i d i d d A A A A d d A Z A Z d d d t - q.u.p.p.p.u.2.% 3.q q.e.<.& e.i.w.<.* V V d u d d A d d d d A d i d d d d d d V ",
"V V A V d d u d d d V D A d d A V Z Z V d d e - 3.e.u.i.r.1.q = F 3.e.q.-.4 G e.9.9 u V d d V d d d d d d d A d d d d d d d d V ",
"V A A V d d d d d i d d d d d d d d Z Z V d u ; 8.0.q.q.n 1 1 % q : q < K B.~ 9 & t V V u u d V A A d d d D A d d d V d A A d d ",
"A d V A A V d d d d d V V A A V V V V V d V t 6 8.9.9.>.j V.o.1 2.>.$ O . k o.o 7 d V V V d d V A V d d 7 V V A A V A V d V d 7 ",
"V d V V A V 7 d V d d V V V d V A V V d d t d 8 8.9.0., j ~.Y.P 8.w.= o .   g g V V V A A V V d d d d d d d A A V V V d d d d V ",
"V d d V V V d V d d V d d d d V A V V V d d 7 -.9.9.9.-.h M.Y.m.;.0.: } g.h.%._ g i d V V V V d V d d d d V V V V V V d d d V V ",
"V d d V V d V V d d d d V d V d V d V V d A 7 -.9.9.9.1.> / Y.V.> 0.n A.x.c.(.R.! i V d d V A d d d d V d V V d d V V 7 i d d d ",
"V t V A V V A V V d 7 d A V d d d d V d V V 9 3.9.9.8.>.0 3 _ T B q.n D.E._.`.I.x d d d d V V V d d V A d V V V V V V d d d d 7 ",
"V d V d V V V V V d V V d V d d 7 d d d d 7 8 w.9.9.8.q F % O R 4 1.n D.`.!.P.E t i t d d A A d 7 d d d d D A V V V D d d d V V ",
"V V V d d V V V d d 7 d d d d d d V d d A d 9 9.9.9.3.;., + U  .Q m 5 M.R.*.U r i d t d A A V V A d d d d V V V V V A V d d V V ",
"V V V V V V d d V V d d d d d A d A d d V 8 -.9.9.9.>.< & B 5.5.s./ Y U k g a d d d d d A V V d V A V d d V d V d V A V V A d V ",
"V V V A V V d d d V V d i d d V d A d 7 d 6 1.9.9.9.-.9 ,.f.x.x.oXs. .{ P ,.J N d V A V V V d d V V V d V A i d d V V d V V V V ",
"V d V A d V 7 V V d d A i d d d V V V A d 9 3.9.9.9.-.& s.W.'.W.x.n.j.I.j.n.$XXX6.A d d d V V d V d d V V A t d d d V d V V d d ",
"V t d d V d V V V d V d d d V V V V V V 6 q 0.0.8.8.0 X A.{.`._.j.OXXXg.s.OX>X,X#X4.d d d d A V V V V V V V V d d V A V d d d 7 ",
"d d d V A V V V V d A V d V V V V V V V 6 q 0.3.1.1., X A.{.[.{.C.z.:X>X<X<X*X$X&Xd.8 d A A d V V d V V V V V V V A d t d V V V ",
"d V V V A V A V V d V d d d V V V V V V 6 q 0.-.-.q , X A.{.[.{.Z.g.,X2X2X2X2X>X#X}.A A A V V d V V V V V V A V V V V V d d d V ",
"V A V V A V A V d i d d V V d V V i d d 6 q 0.0 % % 0 X A.{.`.{.V.c.1X2X2X2X2X2X#Xd.C A V V V V V V d i d V A V d d d A d V V V ",
"d V V V V V V V d i V V V V d V d 7 d V # q <.6 % & : X A.{.{.{.Z.@X2X2X2X2X2X2X-X4.d V d V d d V V t i d V V d d V d d V V A V ",
"V d d V A V D A V A V d V V V A V V A A 6 6 7 i u V * o A.{.{.{.M.v.<X2X2X2X2X2X%Xd.V V V V V d V V V V V A V d d V V V V d d V ",
"V d V V V V d d V V V V d i i A d A A d d d d d d d d O %.{.{.{.R.^ OX1X2X2X1X*X&Xf.N V V d V V V V d d V V t u V V V d d d d V ",
"V V V d V V V V V d V V A V d V A d d d d d A A d A d d ! _._.{.(.} 6.:X,X+X+X.XOX7.N V d V V t V V V d d d u V d V V A A V d V ",
"d d t d d d V V d d d V V V d d d d d i d d A d d A f a k E.{.{.[.G.s.-X>X X.X}.|.,.i d d V V u V V V d d V d d V d V Z V V d V ",
"V d d d d V V d d d d d d V d A V d i i d d d d d d a X.%.O.{.{.[.(.| x.,X;X}.d.y.H V V V V d d V V u V V Z V V V d V d d d d V ",
"V d A A d V V t t V d 7 d A A D A V d A A d d d d d D v.#Xh.D.{.[.{.P.^ x.}.f.6.C i V V A A A d D V V V d d V d V A d d V d d V ",
"V d d V V A d d V V V V d d d d d V d d d d A A A L |.-X=X%Xh.A.{.(.T.M.s.5.z.c d d V V d d d d V V V V d d V V d d t d d d V V ",
"V V V d V V V d d V V V d i u d d d i i d d d A C ,.n.b.l.l.g.X.B.(.E.Y.N.k.} p Z d d d d d d Z V V V V d V d d d d d d d V V V ",
"V V d d V V V V V V d V d d d d d A d d d d d d d K Q./././.^.^.o.R.{.`.`._.!.} f d A d d d Z d V V d d V V d V V d V V V V V V ",
"V d d d i V V V d A d d A d d d A A A d d d V d d U {.[.[.[.[.[.A.O.I.!.Y.`.).M.w u Z d d Z d d A d d d d d d V V V V A V V V V ",
"d V d d t d V V d d d d A d A d d d d d d d A A f l !.{.[.[.[.[.].A.| U.M.H.Y.*.h d d d d d d d d d d d u V d d V d V d d V A V ",
"7 V V d d d d d d A A A d A D A d d A A d d A A d f O.{.[.{.[.[.`.{.#.*.W W =.) h d d d d Z d d d d d d d d d A V d d d d d V D ",
"V V d V V V A V d d D d d d d A d d d V d V d d d f _ `.[.[.[.[.{.~.( ) W  .W I d d D Z i d d Z d A V d d d d d V V V A V d d A ",
"V d V V d V V d d d A d u d d d d d d d d d u u u i z ^.[.[.[.[.{.B.[ L.K.K.F.E e d Z d d d d d d V d d d d d i d A V V d V A V ",
"V V V V d i d d d i d d i d d d d d A A A A i u d d g D.{.[.[.[._.+.@.K.K.K.J.E e d Z d d d d d d V V d V V V d i V d d d V A V ",
"V d V d d t d d i t d d d d d d t d A A d A d d d d f O._.[.[.[.!.W N.K.K.J.F.U e d D d d d Z d d A V d d A V d V d V d d d d d ",
"d V d d d V V d d u d A d A D d d d d d d d d d d d r X._.`.[.[.S.` J.K.K.K.=.j d Z d d A A d d 7 d d V V V d V V A d d d d d u ",
"A V i i V A V d d d V V V V V V V V V V V Z V d d d l V.[.[.[.(.( ..K.K.K.K.@.2 d V d V V V V V d d A A d d V V V d V A d d d d ",
"V d d d V V V V d V A A V V V V d V V d d V V d u g *.K.E.[.).&.g ! J.K.K.K.+.2 V V d A V d V A A d d d d A V d d d V d A A d d ",
"V V d d d d V V d V V V V V d V d d d V Z d u V f U K.K.L.T.Y.Q 5 j =.K.K.K.@.2 C C V A V d d V d d d d d d d d V d V d A V d V ",
"V A V d V d d V V d V d V V V d d d V Z A V V N 5  .K.K.K.J.] s M 5 ..K.K.K...1 9 N C C V d d d d A d A d d A d d V A d d d d V ",
"d V V V A V d A A V d V V V V d u d d V S C C n h =.K.K.H.] s M N 5 ( L.K.K.@.1 M M M N N b u d d D A d d d A A d V A V d d d V ",
"V V V V V V V d d 7 d V V V V V A V Z A H M c j ' F.K.K.] 5 v M M 5 Q N.K.K.$.3 M M M M M M b V d d d A A A D A d d d V d A A V ",
"A V d V d t d d d d V A V V A V Z Z V C N N p +.J.K.K.` s M M M v n h *.K.K.=.j t N M N N M N V d A d d d d A d d V A V d V V V ",
"V V V d d i d V V d A V A V A V V d C N v v h *.J.N.] s M M M M n N 3 @.K.K.K.@.p M M M N 9 M C d d d d d d d A V V A V d d d V ",
"V d V V d d d A A d V d V V A d V d V M M 9 U L.L.` r M N M v M M M y g T  .@...w M M M M M M b V V d V d V d A A V d V V d d V ",
"V V A A d t V V V d V d V d d d V 7 u M N c 4 E T p v M v M M M M v v M b 5 5 2 v M M M M M N 8 d d V A d A V V V d d A V d d V ",
"A V V V d V A A d V A V d d d t d V A C M v y ; ; M M N M N b N M v n M M N v N M M N C M M N C V d V d d V A A A d V V d d d V ",
"V A A A A V V d d V D V d d d d V d V C N v N N N M M M M M M M N v M M c M v v M C 9 M N N H V d d V d d d 7 i V V V V V d V D ",
"V d V V V t d V V V V V d V A V d d d V H M M M M M C v M M M v M M M M v M M v 9 C C M 9 C D A V d d d V d d d V V V A V V A A ",
"V d V V d i d V V d d V V V V V d d A A C C C M n M N M M M M M M M M M M M M M C 9 9 C D V V A V V d d V A V d V V V V V A V V ",
"V d A A d d d V V d V A A V V V d d A A d d C C N M n N M M M M M M M M N n n M 9 C C d V d V V A d V V V A V V V A V V A A V V ",
"V V A A V V V A V V V A V A A V D A d d d u Z S V S C v N N N M M N N n M C y M C V V V D 8 7 V d V V d V V V V V D V V V A D D "
};
