/* XPM */
static char *out[] = {
/* columns rows colors chars-per-pixel */
"64 64 162 2 ",
"   c None",
".  c black",
"X  c #321C1C",
"o  c #39202F",
"O  c #332030",
"+  c #3D2D35",
"@  c #432C36",
"#  c #472A39",
"$  c #282946",
"%  c #2B2C4C",
"&  c #312944",
"*  c #2B2F55",
"=  c #2F3258",
"-  c #3A3152",
";  c #303359",
":  c #333762",
">  c #353B6A",
",  c #383D6C",
"<  c #393F71",
"1  c #432B44",
"2  c #45334D",
"3  c #4E334B",
"4  c #553442",
"5  c #5B3041",
"6  c #413258",
"7  c #5E3851",
"8  c #693D54",
"9  c #3A4074",
"0  c #3D4276",
"q  c #3C447C",
"w  c #3F467E",
"e  c #5D4A5B",
"r  c #684145",
"t  c #67455E",
"y  c #734B50",
"u  c #764853",
"i  c #764B52",
"p  c #73595D",
"a  c #41477F",
"s  c #5E4B72",
"d  c #53547E",
"f  c #674E67",
"g  c #635669",
"h  c #71516D",
"j  c #715672",
"k  c #7D6862",
"l  c #824755",
"z  c #865251",
"x  c #925555",
"c  c #905657",
"v  c #995656",
"b  c #965E57",
"n  c #9D625B",
"m  c #9E695F",
"M  c #A6605E",
"N  c #88596F",
"B  c #8E7168",
"V  c #8F776C",
"C  c #85617B",
"Z  c #926274",
"A  c #A96F68",
"S  c #B16C64",
"D  c #B27368",
"F  c #B37A6C",
"G  c #B37B6E",
"H  c #A96571",
"J  c #BF7D70",
"K  c #CB7173",
"L  c #C67D71",
"P  c #908072",
"I  c #B48272",
"U  c #B68A78",
"Y  c #C78677",
"T  c #C98372",
"R  c #CA8A76",
"E  c #D28075",
"W  c #D58F7F",
"Q  c #DD8D7B",
"!  c #404986",
"~  c #434B88",
"^  c #585D8C",
"/  c #454F90",
"(  c #485091",
")  c #4A549A",
"_  c #4C569B",
"`  c #767084",
"'  c #656593",
"]  c #6B6F9B",
"[  c #4E59A3",
"{  c #4E59A4",
"}  c #4F5AA5",
"|  c #535FAD",
" . c #535FAE",
".. c #5864B8",
"X. c #6A75A0",
"o. c #7678A6",
"O. c #7078A9",
"+. c #747DAB",
"@. c #5C69C1",
"#. c #616FCB",
"$. c #7D8ABB",
"%. c #A28882",
"&. c #A2918E",
"*. c #AA9698",
"=. c #928FA9",
"-. c #8A91B3",
";. c #8290BD",
":. c #9599BE",
">. c #A596A9",
",. c #A59FBE",
"<. c #A2A0B5",
"1. c #CA9581",
"2. c #D79E89",
"3. c #EA9783",
"4. c #EB9E87",
"5. c #CEA186",
"6. c #C6A78B",
"7. c #D0B090",
"8. c #D0B89F",
"9. c #ECA48B",
"0. c #E2AB8F",
"q. c #F5A489",
"w. c #F6AA8D",
"e. c #E5A892",
"r. c #E3B293",
"t. c #EFB395",
"y. c #EFB597",
"u. c #E4BA99",
"i. c #F7B191",
"p. c #F8B895",
"a. c #F8B997",
"s. c #F0BC9B",
"d. c #F2C4A1",
"f. c #FBC8A1",
"g. c #FCCFA5",
"h. c #FCD1A7",
"j. c #FDD7AB",
"k. c #FFE0B1",
"l. c #8695C0",
"z. c #8893C6",
"x. c #8C98C8",
"c. c #9CA3C4",
"v. c #9CA2CA",
"b. c #9BA5D6",
"n. c #9FACD2",
"m. c #A1A8C6",
"M. c #A4A8C5",
"N. c #B0A4C4",
"B. c #AEBBD9",
"V. c #B1BBD7",
"C. c #A6AEE1",
"Z. c #B9C0D7",
"A. c #B9C3E4",
"S. c #C8CEE5",
"D. c #CBD1EF",
"F. c #D6DDEC",
"G. c #D2D6F0",
"H. c #D2DBF6",
"J. c #D9E0F6",
"K. c #F0F4FE",
"L. c #F7F9FE",
"P. c white",
/* pixels */
"                                                                                                                                ",
"                                                                                                                                ",
"                                                                                                                                ",
"                                                                                                                                ",
"                                                                                                                                ",
"                                                                                                                                ",
"                                                                                                                                ",
"                                                                                                                                ",
"                                                                                                                                ",
"                                                          < a a a 0                                                             ",
"                                                      ; | #.#.#.#.#.@.~                                                         ",
"                                                    = 9 { ..#.#.#.#.#.#._                                                       ",
"                                                % | ..{ @.@...#.#.#.#.#.#.<                                                     ",
"                                                ~ #.#.{ #.@.@.( #.#.#.#.#.|                                                     ",
"                                                ..#.#.| #.#.) ~ #.#.#.#.#.#.                                                    ",
"                                                ..#.#.[ #.#.~ ..a #.#.#.#.#.                                                    ",
"                                                } @.#.:  .@.,  .: @.#.#.#.@.,                                                   ",
"                                                w  .{ + } } | ~ = ! @.#.#. .,                                                   ",
"                                                  * g p.e , : w $ # 2 } } } ,                                                   ",
"                                                    m X . @ } } y y.I w } } ,                                                   ",
"                                                    b k ` # } ) 6.i.G w } } )                                                   ",
"                                                  4.j.>.,.B } , f.9.3 / } } }                                                   ",
"                                                  D j.j.f.P } s z r > ! } } } <                                                 ",
"                                                    J r.g.V } 4 K O q q } } } ,                                                 ",
"                                                      m F c u H N t & q ) } } w                                                 ",
"                                                        h H H v.z.z.] > / } } }                                                 ",
"                                                  M.F.M.e.s.:.-.j.k.*.- / } } }                                                 ",
"                                                +.L.S.A.c.c.A.&.k.k.k.O q } ) } ,                                               ",
"                                                l.S.P.P.P.L.M.e.k.k.k.O q ) / } ,                                               ",
"                                                +.L.P.P.P.P.Z.1.k.k.k.O q = : } ,                                               ",
"                                                o.P.P.P.P.P.L.1.k.k.k.O > %   ~ ,                                               ",
"                                                ;.K.P.P.P.L.N.5.k.k.j.o                                                         ",
"                                                ;.B.D.G.L.A.f j.k.k.0.                                                          ",
"                                                ^ n.C.x.K.m.L k.k.k.m                                                           ",
"                                                d X.$.H.J.C h.k.k.k.G R                                                         ",
"                                                    O.O.=.R k.k.k.%.G.V.'                                                       ",
"                                                    j Z E w.f.k.p <.<.M.b.                                                      ",
"                                                    u.k.k.k.k.A k.k.k.k.8.                                                      ",
"                                                  x h.k.e.d.U 7.k.k.k.k.j.                                                      ",
"                                                  M q.Q W Y k.k.k.k.k.k.0.                                                      ",
"                                                    M M v v f.k.k.k.k.k.m                                                       ",
"                                                    q.q.q.q.I k.k.k.k.k.                                                        ",
"                                                    q.q.q.q.S k.k.k.k.f.                                                        ",
"                                                    3.q.q.q.n f.k.k.k.U                                                         ",
"                                                    S q.q.q.q.G k.k.k.2.                                                        ",
"                                                    n q.q.q.E 5 t.k.j.w.T                                                       ",
"                                                    n q.q.q.x   S a.w.q.q.8                                                     ",
"                                                    n q.q.q.7   6 T q.q.q.x                                                     ",
"                                                    n q.q.3.1     6 T q.q.E 7                                                   ",
"                                                  1 E q.q.S         6 T q.q.q.1                                                 ",
"                                                  x q.q.q.n           6 T q.q.l                                                 ",
"                                                  i n x 7 6             6 T q.n                                                 ",
"                                                                          6 1 1                                                 ",
"                                                                                                                                ",
"                                                                                                                                ",
"                                                                                                                                ",
"                                                                                                                                ",
"                                                                                                                                ",
"                                                                                                                                ",
"                                                                                                                                ",
"                                                                                                                                ",
"                                                                                                                                ",
"                                                                                                                                ",
"                                                                                                                                "
};
