/* XPM */
static char *out[] = {
/* columns rows colors chars-per-pixel */
"64 64 217 2 ",
"   c None",
".  c black",
"X  c #11101A",
"o  c #321C1C",
"O  c #272127",
"+  c #332030",
"@  c #382933",
"#  c #442428",
"$  c #432C36",
"%  c #262642",
"&  c #2F2640",
"*  c #282946",
"=  c #2B2C4C",
"-  c #362E4E",
";  c #2A2D50",
":  c #2C2F54",
">  c #2F3258",
",  c #2E335E",
"<  c #30345F",
"1  c #3A355C",
"2  c #313662",
"3  c #333762",
"4  c #373965",
"5  c #353B6A",
"6  c #353B6C",
"7  c #373C6C",
"8  c #383D6C",
"9  c #353C70",
"0  c #373F74",
"q  c #383E70",
"w  c #393F71",
"e  c #432B44",
"r  c #483244",
"t  c #413258",
"y  c #45395C",
"u  c #45385E",
"i  c #523D55",
"p  c #5E3851",
"a  c #593B55",
"s  c #60394D",
"d  c #713B44",
"f  c #713F49",
"g  c #4A3D69",
"h  c #3A4074",
"j  c #3D4276",
"k  c #3A427A",
"l  c #3C437A",
"z  c #3C447E",
"x  c #494058",
"c  c #5E505F",
"v  c #7F4C4B",
"b  c #7C4B4E",
"n  c #784D4C",
"m  c #7A5244",
"M  c #764B52",
"N  c #73595D",
"B  c #494968",
"V  c #534165",
"C  c #534C6E",
"Z  c #6C536B",
"A  c #615D6F",
"S  c #735062",
"D  c #7A5462",
"F  c #625175",
"G  c #74616D",
"H  c #74697D",
"J  c #884950",
"K  c #925555",
"L  c #9A5957",
"P  c #9D625B",
"I  c #9E695F",
"U  c #A6605E",
"Y  c #875A6B",
"T  c #855C6C",
"R  c #8C6862",
"E  c #9F7165",
"W  c #B46967",
"Q  c #B16C64",
"!  c #A07869",
"~  c #AF7B69",
"^  c #A87D68",
"/  c #B37B6E",
"(  c #C5776D",
")  c #C67D71",
"_  c #D57D78",
"`  c #A2806F",
"'  c #B68A78",
"]  c #C98372",
"[  c #D28075",
"{  c #DD8D7B",
"}  c #CB927C",
"|  c #DE947F",
" . c #E08A7E",
".. c #3E4783",
"X. c #414884",
"o. c #4C4B87",
"O. c #414A88",
"+. c #434B88",
"@. c #434C8C",
"#. c #454E8D",
"$. c #454F90",
"%. c #454F92",
"&. c #475196",
"*. c #485091",
"=. c #485696",
"-. c #4A549A",
";. c #4A549B",
":. c #645F84",
">. c #706487",
",. c #7B6E87",
"<. c #7D778D",
"1. c #616790",
"2. c #656593",
"3. c #6F6F96",
"4. c #676A99",
"5. c #4C57A0",
"6. c #4E59A3",
"7. c #4E59A4",
"8. c #4F5AA5",
"9. c #515BA5",
"0. c #515CA9",
"q. c #535FAD",
"w. c #535FAE",
"e. c #5561B3",
"r. c #5864B8",
"t. c #7579A0",
"y. c #7678A6",
"u. c #7D7EA0",
"i. c #5C69C1",
"p. c #616FCB",
"a. c #7886B9",
"s. c #9B838C",
"d. c #9E828F",
"f. c #8C849A",
"g. c #9C8990",
"h. c #A08284",
"j. c #B68180",
"k. c #A2918E",
"l. c #B69387",
"z. c #A78B9D",
"x. c #AB9E9E",
"c. c #8487AD",
"v. c #928FA5",
"b. c #9592AA",
"n. c #838AB8",
"m. c #8290BD",
"M. c #8D94BD",
"N. c #9396B4",
"B. c #9B9BB5",
"V. c #A298AB",
"C. c #A4A1B1",
"Z. c #A2A0B5",
"A. c #ABA6B2",
"S. c #A8A6B5",
"D. c #C39480",
"F. c #C49F85",
"G. c #CC9F8D",
"H. c #D79E89",
"J. c #EA9783",
"K. c #EB9E87",
"L. c #CEA186",
"P. c #CEA995",
"I. c #CFB099",
"U. c #D0B89F",
"Y. c #E2AB8F",
"T. c #F5A489",
"R. c #F6AA8D",
"E. c #E5A892",
"W. c #EFB597",
"Q. c #F7B393",
"!. c #F8B895",
"~. c #F8B997",
"^. c #F0BC9B",
"/. c #F9BF99",
"(. c #E2BBB6",
"). c #F9C09B",
"_. c #FAC79F",
"`. c #D6C6BE",
"'. c #F2C9A0",
"]. c #FCCFA5",
"[. c #F8C1AA",
"{. c #FCD1A7",
"}. c #FDD7AB",
"|. c #FFE0B1",
" X c #8695C0",
".X c #8C98C8",
"XX c #919DCB",
"oX c #9CA3C4",
"OX c #9BA7CF",
"+X c #9BA5D6",
"@X c #ABAEC5",
"#X c #AEADCC",
"$X c #A5AFDA",
"%X c #AAB4DD",
"&X c #A8B6DC",
"*X c #B3B6D2",
"=X c #B2BBDC",
"-X c #A6AEE1",
";X c #B4BDE8",
":X c #D4BFC8",
">X c #BCC3E2",
",X c #C3C9E2",
"<X c #C3CDE8",
"1X c #C3CCEF",
"2X c #CBD1EF",
"3X c #CFD8EB",
"4X c #D0D3EA",
"5X c #D2D8E9",
"6X c #D9DDEA",
"7X c #D2DBF6",
"8X c #D9E0F6",
"9X c #E1E5F7",
"0X c #E1EAFD",
"qX c #E8EFFD",
"wX c #F0F4FE",
"eX c #F7F9FE",
"rX c white",
/* pixels */
"                                                                                                                                ",
"                                                                                                                                ",
"                                                                                                                                ",
"                                                                                                                                ",
"                                                                                                                                ",
"                                                                                                                                ",
"                                                                                                                                ",
"                                                                                                                                ",
"                                                        +.r.7.h r.q.w                                                           ",
"                                                    4 p.p.9.0.w.#.p.p.9.                                                        ",
"                                                  = p.;.%...i.p.&.%.%.e.*.                                                      ",
"                                                  &.;.i.i.q.p.p.i.6.p.%.i.<                                                     ",
"                                                  r.%.i.i.r.p.p.p.6.p.i.%.&.                                                    ",
"                                                > &.0.r.p.r.p.p.p.z i.p.z -.                                                    ",
"                                                > q p.5.p.6.5.p.p.j %.p.0.5                                                     ",
"                                              % X.i.i., i.k A i.p.;.; 0.p.0.j                                                   ",
"                                                6 %.9 * 9 c F.6 6.k ^ 2 0 0 &                                                   ",
"                                                R : i m X K././.R $ m n * * I                                                   ",
"                                                1 $.r @ . o _.].~ . O # @.O.-                                                   ",
"                                                O.p.g.(.=.a.|.|.S.3.&XD q.O.8                                                   ",
"                                                8 i.Z ~.:X`.|.|.|.#X[.s.0.+.l                                                   ",
"                                              3 +.; +.S {.|.|.|.|.|.} 1 8 8.-.                                                  ",
"                                              8 8.o.Y B f / W.W.Y.U x V o.8.8.                                                  ",
"                                              8 o.L.{.y.T  .J J W [ y.h.L.o.8.                                                  ",
"                                              8 / |.U.6Xh.H.W.E.W.Y.Z.A.|./ 8.                                                  ",
"                                              + {.|.k.7XC.].^.'.].I.<Xc.|.{.g                                                   ",
"                                              b |.|.b.7X<XG.!.) /.V.0X$XU.|.Y                                                   ",
"                                              ' |.U.>XrXrX5X,.z.t.rXrXqXb.|.' 7                                                 ",
"                                              {.|.v.eXrXrXrX1X9X9XrXrXrXoX|.{.u                                                 ",
"                                            L |.|.N.rXrXrXrXeX>XrXrXrXrX9Xk.|.b                                                 ",
"                                            Y.|.|.c.eXrXrXrXeX8XrXrXrXrXwXk.|.Y.                                                ",
"                                          L |.|.{.y.8XwXwXwX2X4XeXrXrXrX=XP.|.|.L                                               ",
"                                          Y.|.|./ C +X3X8X-XXX X;XwXwX8X:./ |.|.Y.                                              ",
"                                        L |.|.{.a y.4.m.+X.X>.F +X%XwXOXy s {.|.|.L                                             ",
"                                        Y.|.|./   M.9XB.4.H W.D.<.y.1.u.>X2./ |.|.Y.                                            ",
"                                      L |.|.{.  E U.x.M.9X9X@XZ.,XeXeX,XZ.N   {.|.|.L                                           ",
"                                    v Q.|.|.'   ` |.|.|.d.*XwX9X9XM.x.U.|.`   ' |.|.Q.v                                         ",
"                                    J.[ T.[ P   ` |.|.|.|.j.n.m.f.|.|.|.|.`   P [ T.[ J.                                        ",
"                                    U ] ( T.d   E |.|.|.|.|.l.G |.|.|.|.|.E   d T.( ] U                                         ",
"                                        v v       |.|.|.|.|.Y.' |.|.|.|.|.      v v                                             ",
"                                                  Y.|.|.|.|.|.E.|.|.|.|.Y.                                                      ",
"                                                  E |.|.|.|.|.E.|.|.|.|.`                                                       ",
"                                                    {.|.|.|.}.E.|.|.|.|.E                                                       ",
"                                                    Q ).|.}.| ' |.|.|.|.                                                        ",
"                                                    P T.T.T.( ` |.|.|.Y.                                                        ",
"                                                    P T.T.T.P ` |.|.|.E                                                         ",
"                                                    p T.T.T.K I |.|.).p                                                         ",
"                                                      Q T._ J P R.~.T.e                                                         ",
"                                                      p T.T.K P ~.~.{ t                                                         ",
"                                                        M P M ! |.|.!                                                           ",
"                                                              I |.|.I                                                           ",
"                                                              t I I t                                                           ",
"                                                                                                                                ",
"                                                                                                                                ",
"                                                                                                                                ",
"                                                                                                                                ",
"                                                                                                                                ",
"                                                                                                                                ",
"                                                                                                                                ",
"                                                                                                                                ",
"                                                                                                                                ",
"                                                                                                                                ",
"                                                                                                                                ",
"                                                                                                                                "
};
