/* XPM */
static char *out[] = {
/* columns rows colors chars-per-pixel */
"64 64 219 2 ",
"   c #17100F",
".  c #1E1415",
"X  c #271818",
"o  c #1E1C26",
"O  c #302226",
"+  c #513538",
"@  c #2A2B49",
"#  c #362F4A",
"$  c #3F3347",
"%  c #33334B",
"&  c #2C2F54",
"*  c #2E3352",
"=  c #323552",
"-  c #363955",
";  c #3C3E53",
":  c #34365A",
">  c #3A3D5A",
",  c #2C3364",
"<  c #373A66",
"1  c #363D73",
"2  c #473A49",
"3  c #573D46",
"4  c #483C56",
"5  c #633B41",
"6  c #413D61",
"7  c #3E4354",
"8  c #3C415C",
"9  c #3F456A",
"0  c #3C4275",
"q  c #3C447C",
"w  c #49434E",
"e  c #52434E",
"r  c #5A434B",
"t  c #424553",
"y  c #4D4651",
"u  c #454A56",
"i  c #4C4B56",
"p  c #41455B",
"a  c #4B435E",
"s  c #464D59",
"d  c #494E5A",
"f  c #574956",
"g  c #47505F",
"h  c #4C535F",
"j  c #694448",
"k  c #74494F",
"l  c #664853",
"z  c #764E53",
"x  c #6D5254",
"c  c #795355",
"v  c #795658",
"b  c #434564",
"n  c #454966",
"m  c #494E65",
"M  c #464A69",
"N  c #494D6B",
"B  c #5D4768",
"V  c #4D5561",
"C  c #4D536B",
"Z  c #505763",
"A  c #515964",
"S  c #555D68",
"D  c #444976",
"F  c #574B74",
"G  c #4C5171",
"H  c #515771",
"J  c #6E5671",
"K  c #715A76",
"L  c #7A6464",
"P  c #7B637C",
"I  c #885758",
"U  c #845B5B",
"Y  c #965C5A",
"T  c #8B645E",
"R  c #98645D",
"E  c #855D66",
"W  c #876669",
"Q  c #996863",
"!  c #967267",
"~  c #947373",
"^  c #A86863",
"/  c #B36C65",
"(  c #A87469",
")  c #A57B6E",
"_  c #B7776A",
"`  c #A97B79",
"'  c #C77A6F",
"]  c #CA7D71",
"[  c #AB8876",
"{  c #B78778",
"}  c #BF977F",
"|  c #C98877",
" . c #D4897A",
".. c #DC8D7C",
"X. c #C4917D",
"o. c #D9937D",
"O. c #3E4682",
"+. c #414A85",
"@. c #4B4A85",
"#. c #434C8C",
"$. c #4C558E",
"%. c #474F92",
"&. c #475196",
"*. c #4A5396",
"=. c #46539C",
"-. c #4B559C",
";. c #5B6293",
":. c #736D8D",
">. c #717196",
",. c #4B56A0",
"<. c #4E59A3",
"1. c #595EA3",
"2. c #525EAD",
"3. c #525FB0",
"4. c #5460AE",
"5. c #5662B4",
"6. c #5765BA",
"7. c #5965BB",
"8. c #5B68BF",
"9. c #6773A9",
"0. c #5D6AC3",
"q. c #5F6DC9",
"w. c #606ECA",
"e. c #6270CE",
"r. c #897186",
"t. c #917B90",
"y. c #7783AF",
"u. c #7D8AB9",
"i. c #91848D",
"p. c #918997",
"a. c #968A96",
"s. c #AB938C",
"d. c #AD908C",
"f. c #A49897",
"g. c #B4A296",
"h. c #8887A9",
"j. c #968EA3",
"k. c #9A96A8",
"l. c #898DB7",
"z. c #8B94BA",
"x. c #9899B7",
"c. c #A39CA6",
"v. c #A19DB2",
"b. c #A4A1AD",
"n. c #B6A5A2",
"m. c #B8ACAA",
"M. c #A7A3B7",
"N. c #D98C81",
"B. c #C59884",
"V. c #D69D85",
"C. c #D79D90",
"Z. c #E69783",
"A. c #EA9D84",
"S. c #C7A78A",
"D. c #D8A78B",
"F. c #C2AD9C",
"G. c #D4B292",
"H. c #D8B897",
"J. c #E7A98C",
"K. c #F2A388",
"L. c #F4A489",
"P. c #E9AE94",
"I. c #E6B795",
"U. c #F6B895",
"Y. c #C6B7A7",
"T. c #D4B9BD",
"R. c #DCC19C",
"E. c #E4C39E",
"W. c #ECC59E",
"Q. c #F8C49D",
"!. c #DDCCAD",
"~. c #E4CCA6",
"^. c #EDCBA3",
"/. c #E8CAA5",
"(. c #F3C3A4",
"). c #F4CBA4",
"_. c #FACDA4",
"`. c #E9D6AB",
"'. c #F4D1A6",
"]. c #F6D3A9",
"[. c #FBD4A9",
"{. c #F5DCAE",
"}. c #FBDDAF",
"|. c #EDC9BD",
" X c #F4DEB1",
".X c #FEDFB0",
"XX c #FDE1B1",
"oX c #F9E4B4",
"OX c #8C98C7",
"+X c #919CCB",
"@X c #98A3CA",
"#X c #99A4D2",
"$X c #A8ABC6",
"%X c #ACB0CA",
"&X c #B6B7CA",
"*X c #A1ABDB",
"=X c #A9B0D0",
"-X c #B7BBD5",
";X c #AAB3E1",
":X c #B4BCE6",
">X c #BCC0D9",
",X c #BCC5E7",
"<X c #C3C4D5",
"1X c #C6CBE3",
"2X c #C4CCEB",
"3X c #CDD3E8",
"4X c #D2D6EC",
"5X c #D8DBE8",
"6X c #CDD7F2",
"7X c #D5DBF3",
"8X c #DFE0E7",
"9X c #DCE2F4",
"0X c #E3E4EC",
"qX c #E5E9F7",
"wX c #EAEFFA",
"eX c #EEF2FC",
"rX c #F2F5FD",
"tX c #F6F8FD",
"yX c #FCFDFE",
/* pixels */
"V A h u V h S A h h h h A A h s A h V V V S V h h V h s g h d g h d V A V V A A V A V h h s h u h u h h V V V h h u h S V h V S ",
"V Z h h h A V V V A h h A V h h h h h h V A V V V h h d u 7 - % @ - - p h h V V Z S V V h h h h h h h h V V V h h h u h V h s V ",
"h V Z h h A h h h h h h h d h h d g V V h V d h h h 7 9 +.4.5.&.0 4.5.*.9 p h V V Z V h V V h h h h h h V V h h h h h h h h h V ",
"h V V V h h V h h d h h s h h h d h V V h h d h h g D 5.q.0.2.5.4.4.6.w.0.$.n h h h h h h h h h V h h h V h h h h h h h V V V h ",
"V h V V V h h Z A h h h h V h h h V V V h h V h u 9 8.6.&.#.q 5.7.#.O.&.2.0.-.7 h h u h V V h h V h d s h h h h V A V h V A A V ",
"V h A A h u h Z Z h h h h h V A V h V V h h h d 8 <.<.&.5.4.-.q.w.5.&.5.-.*.5.0 7 h h h V V h V u h h V h h u h V h h h h V V A ",
"u h Z A h h h h h h h u h h V h h d h V V V h 7 q 5.&.0.8.8.5.w.w.w.-.7.e.-.<.<.8 g h h V V h h h h h h h h h u h h V h V V A V ",
"h Z Z Z V h h Z A h h h h h h A h d h h V V h 8 <.-.4.8.6.0.6.q.w.w.<.8.w.0.#.4.D g V V V h h h V V h h h h h h h h h s h V Z A ",
"h A A h h A h A A h A h h h h A V h V V h V u 9 <.O.0.5.0.0.6.w.w.e.&.<.q.w.%.=.+.t h h V V V V A V h h d h A h h h Z h h h h Z ",
"h h h h h S h h h h A h h h h h h h V V V A t : +.&.w.5.0.0.<.0.w.w.,.9 3.e.3.q 1 ; h h V V V h h A V h h h A A h h S A h h h V ",
"h A A h h A h A A V h V h d s A V h s s V h t * 1 5.0.#.0.6.0 3.w.w.0., +.0.0.#.: 7 h h h V V h A h h h h A h h h h V h h h h V ",
"h S h h h S h h h h h h h h h h h h h h V h % : &.8.-., 2.&.9 q 7.w.0.< & -.6.6.#.% ; h h V h h h h h h h S A h h h h S V h h V ",
"A h h h d h h h h A A h A A h h A V V h V s & &.4.O.0 @ , , L W 1 2.&.8 a 1 q O.O.q ; h h h s h h A h g d h h h h s h V V V V Z ",
"A h h h d h h h h h A A h h h A Z A V V V d 2 6 0 < @ l c 2 B.H.W > t R ( ; % & % $ i h h h h h h A h h h h V V h h h h V V V Z ",
"h h A A h h u h h h h S A h h A V Z V V V s 3 r & # O X   + V.W.U.J.Y .   O 2 q 4 5 d m h h h h h h h h h V A h h h V h V V h V ",
"A A A h h h h h h s A h h h h h V V Z V V s - < #.D 5 f o O ! ^.].g.+ o $ 5 F <.+.& s V u s h V A A h h h S h h h h V V V V h h ",
"A h A A A h h h h h h A V A A h V A V V h h 7 q 2.9.B.T.9.;.v. XoXY.9.*.$XP.:.7.&., g V h h h h A A h h s h h A A h A V h A h s ",
"A h h A A h s h V h h h V h V V A A V V h 7 8 9 &.1.d.(.-XOX|..X.X.X$X#X|.J.:.3.D < u A A V Z h h h h h h h A A h h h h h h h h ",
"h h h h A h h h h h V h h h V V V V V V V h 7 O.q +.B | Q._..X.X.X.X X).J.E @.+.#.1 d V V A Z h A h h h h V A V h V h d h h h h ",
"h h h h A h h h h h h h V h h h h h V V V 7 0 2.#.< =.J B.(..X)._..X[.C.E %.O.6 -.+.u h h h h h h h h h h h h h V A h d g h h h ",
"A s h A h A A h h h 7 h V V V h h h A h V 7 q <.<.-.@.< 5 ^ | D.D.V.^ Y # 4 @.*.2.*.- h h h h h h h A A h h h V A h A h h h h u ",
"h h h h h h A h V h V h V h h h 7 h h h V 7 O.<.-.K W >.K ' / I I Y ] ( :.r.d.K *.-.% h h A S h s h h h h S A A A h S h h h h h ",
"h h h h h h h h h h 7 h V h V h h h h h A 7 O.<.J H.g.x.t.] Z...N.Z.N.` h.f.`.R.K -.= h A A h A h h h h h A h h h h A h h h h h ",
"h A A h A A h h V h h h h h V V h A h s A 7 #.$.` [.d.%Xc.).[.[.(.].].F.@Xf.^.}.[ @.= d A A h h h h h h h h h h h h A h A A h h ",
"A A A h V V h h V h V V h h h V h A h d h 7 O.K I.!.h.1X-Xg.I.P.P.P.F.c.7Xx.n..XS.H ; h h h h h V V V h V A d h h h A h h A h h ",
"h h A A h h 7 h V h V V d d h V A h h h h 7 : ! ~.b.1XqXeX<XM.C.N.m.&X0XrX7X$XF.^.L # h h h h h V h h V V S 7 h h h A h h h h h ",
"A 7 s h V h h V V V V h h h h V A V h h h g 7 } Y.-XrXyXyXyXwXM.j.4XtXyXyXyX9Xv.{.! w h h A A h h V V h V V V h A h A h h h h 7 ",
"V h h A A V V V V V V V h V V A h V h A A h x R.k.wXyXyXyXyXyXeXwXyXyXyXyXyXyX&Xm.[ y h Z A h h V V V V V V h V h A h u h h h A ",
"h V V V A V A A V h V h h h V V V h h V V h [ s.x.tXrXrXyXyXyXyXtXyXyXyXtXeXtX1Xp.R.r A A V V h V V h V V A A V h V h V h h h V ",
"V A V V A V A V h d h h V V h h h h h h h f } f.=X9XeXtXrXyXyXqX4XyXyXtXrXrXqX2Xp.R.x V V V V V V V h h h V A V h V h A V V A V ",
"h V V V V A V V h d V V V V V V h u h h h x ~.f.=X,X,X9X9XtXtX,X#XwXtXwX9X2X2X-Xk.~.[ i h V V h V V d 7 V h V h V V V h h A A h ",
"V h h V A V S V V A V h V V V A h V A A i T {.s.OX#Xu.@X#X,X9X6X1X7X2X:X#Xu.+X@Xp.`.} w V h V V V V V V V A V h h V V h h V h h ",
"h h h A A h h h h A h h h h d A h A A h f | oXs.9.@XOXOX#X;X2X6X6X6X:X*X#XOX+Xl.:.{.E.c u h V V h V h h V V 7 h h h V V h V V V ",
"A h h h h h A h h h h A A h h A h h h d U J.'.a.;.y.OX:X,X9XeXeXqXrXqX7X2X*Xu.>.n.}.{.! 7 h V d h V V V h h h V h h V A V V h V ",
"h h d d h h h h h h h h h h h h h h h e _ L.` z.<X%X@X$X,X8X9X4X-X5X8X1X%Xc.~ E XX}.{.[ y h h s V V V h V V h h h h V V V V h V ",
"h h h h h h h h h h h h h h h Z h A i U o.K.P z.&X5X0X<X%Xl.>.r.p.c.c.n.g.d.` l H.XX{.G.l h h h V V h h V V V V V V V h V h h V ",
"A h A S h h A h h h h s h h A S A h f | K...Q g.F.c.k.-X5X5X$Xt.r.i.i.a.M.&X&Xh.f.{.{.~.W h h V A V V V h h V h V A h V h h h V ",
"h h h h h A h h h h h h h h h h i r _ L.L.A.Q `.oX`.`.c.b.3XeXqX0X0X0X0X5X4X<XOX:.`.}.{.{ f h V V V V V h V V V h h 7 h h V V V ",
"h A h h h A h h h h h h h h u i 5 ^ o.o.K...I ~..X.X.XXX~.b.3XqX4XeX9X>Xx.k.g.d.Y E.}.}.W.v i h V V V V h V V h h h h h h V V V ",
"h A h h h h A A h A h h h h y k / ..] ..Z.^ j /..X.X.X.XXX~.k.x.z.z.M.g.~.'.oXI.k } XXXX[.o.c t V V h h h V h V A h h A V V V V ",
"h h h h h h h A A h h h A A y Y ] / ..| Y r e { {.XXXX}.XXXX~.:.F ` !.{.XXXX}.I.j ) '._.U.]  .U h h h h d V V V V h h A A h h V ",
"h h h h u h h h h h h h h h h y 3 5 R r y d d T W.XXXXXX}.}.oXQ U '.}.}.XX}..XG.x l ..| _ o.' Y w h h h 7 h h V V h h h h A A A ",
"s h A h h h h h A h S h h A S A h y w h h h A e S.XX.XXXXX}.XX^ ! XXXXXX.X}.oX[ w w / I 2 _ R + d h h V V V h V A h h h h h h S ",
"h h h h A h A h h h A h h h h A h h h h V h h i ) }..X.XXX}.XX| [ XXXXXXXX.X{.) w h f y u y y h h A V V h V h V h h A A h h h A ",
"h h A h h h h h h h h h s h h h h h h h h h h u x Q.XX.XXXXXXXW.J.}..X.X.XXXE.v d h h h h h h h h V h h h h h d h V V V h h A h ",
"A h h A h h h h h d h A s h h h d h A Z V Z d u f D.XX.X}.XXXX).J.}..XXX.XXXH.3 h h A A h h h h h V V h V V V h h V V h h A A A ",
"h h h h h u h h d u h h h h A h s h Z A h S h h f T ].XXXX}.XX_. .).XX.X.XXXX.e h A A h h h Z h h V V h V A V V h h V h h h h h ",
"h h h h h A h h h s h A h A A h h h h h h h h h h f D.[.}.XXXX'._ G.XXXX.X.XT d h Z h h A Z h h u h V V h V h h V A V V h V h 7 ",
"A h h s h A h h h h h A h A A h V V V V V V h h h i T )..X.X.XQ._ S.XXXXXX_.c h V V V V h V h h h h A A h h V A h h h A V h h h ",
"A h h h h A A h h A A A h V h h h V V V V V h C V 9 z J.Q.[.Q.L.^ X.Q.[.Q.K.z m m V V A A h V A h h V V h A h h h h V h A A h h ",
"h h h h h h A h h h A h A h h h V V V V C V m N M 4 z A.L.L.L...^ o.L.L.L._ f N N C V A h h h A h h h h h V h h h h h h V A h V ",
"h S h h h h h h A h h h V A V h s V V C H M M M M b l ..L.L.L. .R L.L.L.L.^ 4 M M N N C A h g h V V V V h h A V h A A h h h h V ",
"h A h A A h h A A V h h h V A h u V C N N M M b M N 4 _ L.K.L. .Y L.L.L.Z.I b M M 9 M M G m u g V A A h V h A A h V A h h h h V ",
"A h A A h h h h h 7 h V h V h h A C G N M M M N b N > Q K.U.U. .Y L.Q.U.o.l M M M M M M N N g V V V V V A V A A h h V h h A A V ",
"A h h h h u h h h h h A V V A V A C M M M N M M N N M l J..X}.C.R Q.Q.U.{ a M M N m M N M M C h V h h V h V V h h V S h h V V V ",
"h h A h h d h A V V A V A A A h C M M M M M M M M N M a | }..XH.R _.}.Q.T b N M N M M M M M m h h h h h h V V A A V A h h h h V ",
"h h A h h h h A A V V V V V V V h n M M M M N M M b M M v I.}.D.5 | D.[ f M M M m m m M M 9 m g h h V V V V V V A h h V h h V V ",
"V h A A V 7 h A V V V V h V h h V m b M M M b N n b M M m U ( T w w 2 4 M M M M 9 m 9 N m N m s h V V V V V V V h h h A V h h h ",
"A h A h V V A V h V A V h h h 7 h C N M M N M b M M M N M p 4 > n M M N M M 6 n 9 N C C N G C g V h V V h V h A A h V h h V h V ",
"V A A A S h V V h V A V h V h h h C G N N b M N M M M M M N N M n n M n b M n M N N 9 9 G H V V V h h V h h u h V h V A V h V S ",
"h h A h V u V V V h V V V V V A h h C C N M M M M M M M M M M M M M M M n M M M V 9 A 9 A V V A V h h h h h h h h h h A V V A A ",
"A h h A h u h V V V h V V V V V h h h Z C G M M M M N M M M M M M M M M M M n M 9 9 C A V h V A V V V h V A V h V A h A A A V h ",
"h h A A h V V V V h V A A A V V V h Z A A V C M N M M M M M M M M M M M M M M M h V h h h h h V V V h V A A V h V A V h A A V V ",
"A h A A h V V A V V V A V V A V S Z V h h s Z Z C Z m C N N N m M N N N C m s m V V V h h h u V V V V h h V V V A S V V h A S S "
};
