/* XPM */
static char *out[] = {
/* columns rows colors chars-per-pixel */
"64 64 201 2 ",
"   c None",
".  c black",
"X  c #321C1C",
"o  c #1F1F3A",
"O  c #44202C",
"+  c #442537",
"@  c #432C36",
"#  c #44273A",
"$  c #66353E",
"%  c #262642",
"&  c #2F2640",
"*  c #282946",
"=  c #2C2F54",
"-  c #2F3258",
";  c #2E335E",
":  c #333762",
">  c #333864",
",  c #333866",
"<  c #373965",
"1  c #353B6C",
"2  c #383D6C",
"3  c #383E70",
"4  c #393F71",
"5  c #432B44",
"6  c #413258",
"7  c #5E3851",
"8  c #403E6E",
"9  c #3A4075",
"0  c #3D4276",
"q  c #3A427A",
"w  c #3C437A",
"e  c #3C447E",
"r  c #5F4147",
"t  c #564149",
"y  c #4F4F5C",
"u  c #5B4757",
"i  c #5C4E5B",
"p  c #684145",
"a  c #714144",
"s  c #7F4C4B",
"d  c #714A53",
"f  c #764B52",
"g  c #4C4C6D",
"h  c #544C6B",
"j  c #5D5661",
"k  c #5E4772",
"l  c #5C5A7E",
"z  c #735062",
"x  c #765F6C",
"c  c #925555",
"v  c #9A5957",
"b  c #9C5359",
"n  c #95645F",
"m  c #9D625B",
"M  c #9E695F",
"N  c #A2615B",
"B  c #A6605E",
"V  c #8A5D67",
"C  c #875A6B",
"Z  c #855C6C",
"A  c #9D6A6A",
"S  c #8D776F",
"D  c #9F7165",
"F  c #886B76",
"G  c #8C6B7D",
"H  c #95757F",
"J  c #9D737A",
"K  c #A76662",
"L  c #B46967",
"P  c #B16C64",
"I  c #BA6A67",
"U  c #B37B6E",
"Y  c #C5776D",
"T  c #CB7173",
"R  c #D57D78",
"E  c #A2806F",
"W  c #B68A78",
"Q  c #C98372",
"!  c #C18977",
"~  c #CA8A76",
"^  c #D28075",
"/  c #DD8D7B",
"(  c #CB927C",
")  c #E08A7E",
"_  c #414884",
"`  c #404986",
"'  c #4C4B87",
"]  c #414A88",
"[  c #434B88",
"{  c #454E8D",
"}  c #5E5D89",
"|  c #454F90",
" . c #454F92",
".. c #475196",
"X. c #485091",
"o. c #4A549A",
"O. c #4A549B",
"+. c #4C579F",
"@. c #5C628E",
"#. c #767084",
"$. c #6B6F9B",
"%. c #4C57A0",
"&. c #4E59A3",
"*. c #4E59A4",
"=. c #4F5AA5",
"-. c #515BA5",
";. c #515CA9",
":. c #535FAD",
">. c #5561B3",
",. c #5864B8",
"<. c #516DB9",
"1. c #6A75A0",
"2. c #747DAB",
"3. c #5C69C1",
"4. c #616FCB",
"5. c #817C8F",
"6. c #9D7B87",
"7. c #9D7A89",
"8. c #88769B",
"9. c #9B838C",
"0. c #8C849A",
"q. c #A2918E",
"w. c #A88E92",
"e. c #AB9E9E",
"r. c #8487AD",
"t. c #8C8CAE",
"y. c #9B93A1",
"u. c #9592AA",
"i. c #868CB0",
"p. c #8290BD",
"a. c #8D94BD",
"s. c #9396B4",
"d. c #9B9BB5",
"f. c #A298AB",
"g. c #A2A0B5",
"h. c #ABA6BB",
"j. c #CA9581",
"k. c #CC9F8D",
"l. c #DF9B83",
"z. c #D79E89",
"x. c #EA9783",
"c. c #E29E86",
"v. c #CEA995",
"b. c #D0B89F",
"n. c #E0A389",
"m. c #ECA48B",
"M. c #E2AB8F",
"N. c #F5A489",
"B. c #F6AA8D",
"V. c #E5A892",
"C. c #EFB597",
"Z. c #F7B191",
"A. c #F7B393",
"S. c #F8B997",
"D. c #F0BC9B",
"F. c #F9BF99",
"G. c #F9C09B",
"H. c #FAC29D",
"J. c #F2C4A1",
"K. c #FBC8A1",
"L. c #FCCFA5",
"P. c #FCD1A7",
"I. c #FDD7AB",
"U. c #FAC9B0",
"Y. c #FFE0B1",
"T. c #8893C6",
"R. c #8195C8",
"E. c #8C98C8",
"W. c #919DCB",
"Q. c #819DDC",
"!. c #9CA3C4",
"~. c #9CA2CA",
"^. c #9BA7CF",
"/. c #9BA5D6",
"(. c #9FACD2",
"). c #A4A8C5",
"_. c #A5AFDA",
"`. c #AAB4DD",
"'. c #B1BADD",
"]. c #A6AEE1",
"[. c #B4BDE8",
"{. c #BAC0D8",
"}. c #BCC3E2",
"|. c #B9C3E4",
" X c #D8CEC4",
".X c #C3C9E2",
"XX c #C8CEE5",
"oX c #C3CCEF",
"OX c #D5CFE1",
"+X c #CBD1EF",
"@X c #D2D8E9",
"#X c #D2D6F0",
"$X c #D2DBF6",
"%X c #D9E0F6",
"&X c #E1E5F7",
"*X c #E8EAF7",
"=X c #E1EAFD",
"-X c #E8EFFD",
";X c #F0F4FE",
":X c #F7F9FE",
">X c white",
/* pixels */
"                                                                                                                                ",
"                                                                                                                                ",
"                                                                                                                                ",
"                                                                                                                                ",
"                                                                                                                                ",
"                                                                                                                                ",
"                                                                                                                                ",
"                                                                                                                                ",
"                                                            2 : * 2 4                                                           ",
"                                                        X.3.4.3.*.4.4.:.<                                                       ",
"                                                      -.4.O.9 %.,.1 O.>.4.<                                                     ",
"                                                    3 >. .3.+.4.4.:.:.;. .:.                                                    ",
"                                                    :. .4.,.,.4.4.4.&.4.;.>.3                                                   ",
"                                                  > :.O.,.4.,.4.4.4...4.4.e &.                                                  ",
"                                                  - e 3.,.4.:.3.4.4.3 ;.4. .`                                                   ",
"                                                  = _ 4.q 4... .4.4.{ 1 4.3.3                                                   ",
"                                                % _ ,. .=  .; j %.4. .= q O.O.0                                                 ",
"                                                  1 q , t u i F.i - u ! - - - &                                                 ",
"                                                  r - @ . . N F.F.m.X . X 3 3 p                                                 ",
"                                                  ] ,.G 6.o y I.Y.S y #.K o. .2                                                 ",
"                                                  w 3.9.U.Q.R.Y.Y. X<.OXH.&._ 2                                                 ",
"                                                  =._ 8 ~ K.I.Y.Y.Y.L.S.z ..w 2                                                 ",
"                                                > =.[ [ ' U P.J.C.Y.M.z =.2 =.|                                                 ",
"                                                2 =.=.k h V b D E B L g d k =.=.                                                ",
"                                                2 =.x Y.t.Z ^ R T ) Y t.q.Y.x =.                                                ",
"                                                2 ' M.D.).e.Y.Y.Y.Y.Y.).7.Y.M.'                                                 ",
"                                                2 C Y.0.$X{.w.m.c.k.f.=X~.b.Y.k                                                 ",
"                                                > W e.-X:X>X>Xh.7.@X>X>X;X!.Y.D                                                 ",
"                                                  P.).>X>X>X>X:X;X>X>X>X>X:Xe.W                                                 ",
"                                                v q.XX;X;X>X>X>X:X>X>X:X;X:X$.P.                                                ",
"                                                W q.oX&X>X;X>X&X'.:X>X;X*X+Xs.Y.                                                ",
"                                                P.q.(.^.`.`.%X&XXX;XoX`.p.(.r.Y.D                                               ",
"                                              v Y.q.p.E.E.].[.+X+XoX]./.T.W.@.Y.M.                                              ",
"                                              / A.5.2.1.+X$X:X;X&X;X-X%X_.l b.Y.Y.                                              ",
"                                            v N.J |.>X:Xd.a.g.d.i.d.d.e.v.m M.Y.Y.v                                             ",
"                                            / N.A q.e.r..X;X}.8.H q.q.u.d.r.5.Y.Y.W                                             ",
"                                          Q N.N.m Y.Y.Y.b.u.:X>X:X>X>X:X.Xd.} Y.Y.P.                                            ",
"                                      O I x.^ N.$ Y.Y.Y.Y.Y.y.#X'.#Xa.e.b.Y.m M.Y.Y.(                                           ",
"                                      ) / Y N.c   M.Y.Y.Y.Y.Y.5.@.F Y.Y.Y.Y.m E Y.P.^ Q                                         ",
"                                        O m       v Y.Y.Y.Y.Y.j.n Y.Y.Y.Y.Y.v   N.B N.Y a                                       ",
"                                                    P.Y.Y.Y.Y.j.E Y.Y.Y.Y.Y.    m   s a                                         ",
"                                                    W Y.Y.Y.Y.P.z.Y.Y.Y.Y.M.                                                    ",
"                                                    v Y.Y.Y.Y.Y.V.Y.Y.Y.Y.E                                                     ",
"                                                      M.Y.Y.Y.Y.^ Y.Y.Y.Y.v                                                     ",
"                                                      v I.Y.Y.I.m Y.Y.Y.I.                                                      ",
"                                                      # A.I.Y.S.m G.Y.I.A.                                                      ",
"                                                      5 N.N.N.N.B N.N.N.P                                                       ",
"                                                      6 ^ N.N.N.m N.N.N.m                                                       ",
"                                                        m N.N.N.m B.Z.N.7                                                       ",
"                                                        7 G.Y.G.M F.F.l.6                                                       ",
"                                                        6 n.Y.Y.M I.I.M                                                         ",
"                                                          f K.G.+ M M 6                                                         ",
"                                                            5 5                                                                 ",
"                                                                                                                                ",
"                                                                                                                                ",
"                                                                                                                                ",
"                                                                                                                                ",
"                                                                                                                                ",
"                                                                                                                                ",
"                                                                                                                                ",
"                                                                                                                                ",
"                                                                                                                                ",
"                                                                                                                                ",
"                                                                                                                                "
};
