/* XPM */
static char *out[] = {
/* columns rows colors chars-per-pixel */
"64 64 215 2 ",
"   c #1A171C",
".  c #231819",
"X  c #331E21",
"o  c #3B2B2E",
"O  c #583939",
"+  c #272B4F",
"@  c #33354A",
"#  c #393749",
"$  c #36384E",
"%  c #2E3259",
"&  c #373957",
"*  c #2F3563",
"=  c #363966",
"-  c #363A67",
";  c #383F73",
":  c #46364A",
">  c #5E3E45",
",  c #453C57",
"<  c #593F56",
"1  c #613D4A",
"2  c #4D3E64",
"3  c #3D4255",
"4  c #3D426F",
"5  c #3B4174",
"6  c #3D447C",
"7  c #4B424E",
"8  c #544149",
"9  c #5B454D",
"0  c #414554",
"q  c #454B56",
"w  c #464D59",
"e  c #4D4A58",
"r  c #494E5A",
"t  c #524B55",
"y  c #574956",
"u  c #4C545F",
"i  c #545159",
"p  c #68484A",
"a  c #78464A",
"s  c #664B56",
"d  c #6A4B54",
"f  c #774D55",
"g  c #675157",
"h  c #745456",
"j  c #7A635D",
"k  c #434564",
"l  c #454A66",
"z  c #494D66",
"x  c #464A69",
"c  c #494D6C",
"v  c #544A62",
"b  c #4D5561",
"n  c #4D536B",
"m  c #505763",
"M  c #515964",
"N  c #505769",
"B  c #555D68",
"V  c #454978",
"C  c #4D5271",
"Z  c #545576",
"A  c #6C536E",
"S  c #796773",
"D  c #865758",
"F  c #965758",
"G  c #8A635E",
"H  c #94645C",
"J  c #A5635F",
"K  c #865C66",
"L  c #856262",
"P  c #986A66",
"I  c #99756C",
"U  c #8C6D73",
"Y  c #9A737B",
"T  c #A96962",
"R  c #B06F6E",
"E  c #A6766A",
"W  c #BC756B",
"Q  c #B8796D",
"!  c #A87C76",
"~  c #B97F72",
"^  c #C5746E",
"/  c #C87972",
"(  c #B2806F",
")  c #A98674",
"_  c #BA8A78",
"`  c #B7927B",
"'  c #C68878",
"]  c #D68C7A",
"[  c #DA897A",
"{  c #DD917D",
"}  c #E38F7E",
"|  c #E0927F",
" . c #3E4786",
".. c #434B85",
"X. c #474A84",
"o. c #434C8A",
"O. c #4B528D",
"+. c #5A5181",
"@. c #444F91",
"#. c #4C4E90",
"$. c #475195",
"%. c #495295",
"&. c #4B559B",
"*. c #5B5F98",
"=. c #596292",
"-. c #716383",
";. c #626893",
":. c #6E759E",
">. c #78759A",
",. c #4D57A0",
"<. c #4E59A4",
"1. c #515BA4",
"2. c #525EAC",
"3. c #5561AE",
"4. c #5662B4",
"5. c #5966BB",
"6. c #5966BC",
"7. c #6B76A4",
"8. c #757EA3",
"9. c #727DAE",
"0. c #5D6BC4",
"q. c #5F6DC8",
"w. c #606ECB",
"e. c #6270CC",
"r. c #957582",
"t. c #867794",
"y. c #A37B83",
"u. c #7E85A7",
"i. c #7B8AB7",
"p. c #898292",
"a. c #9B8C97",
"s. c #98929A",
"d. c #A98A88",
"f. c #AD988E",
"g. c #A48E98",
"h. c #A79495",
"j. c #B49890",
"k. c #BFA186",
"l. c #BAA79A",
"z. c #8F89A8",
"x. c #8D8CAF",
"c. c #9996AC",
"v. c #9899B5",
"b. c #A69FAC",
"n. c #A5A2AD",
"m. c #BAADA5",
"M. c #A8A6BA",
"N. c #B2ADBB",
"B. c #C78D81",
"V. c #C49B83",
"C. c #CB9B87",
"Z. c #D69B84",
"A. c #D59289",
"S. c #E59382",
"D. c #EA9D84",
"F. c #CCA58A",
"G. c #D6A98C",
"H. c #C7AB95",
"J. c #D7AA95",
"K. c #C8B69C",
"L. c #DCB597",
"P. c #E5A387",
"I. c #F3A489",
"U. c #F5A489",
"Y. c #E1AF94",
"T. c #E8B998",
"R. c #F6B392",
"E. c #F5BB98",
"W. c #C9B9A2",
"Q. c #E5C59F",
"!. c #F4C59E",
"~. c #D9C5A4",
"^. c #E8CBA6",
"/. c #F6CBA3",
"(. c #EAD6AA",
"). c #F4D4A9",
"_. c #FCD5AA",
"`. c #F5DBAE",
"'. c #FBDCAE",
"]. c #FDDFB0",
"[. c #F7E4B3",
"{. c #FDE1B1",
"}. c #818DC0",
"|. c #8794C8",
" X c #969EC8",
".X c #99A3CF",
"XX c #A4A8C6",
"oX c #B6B5C8",
"OX c #A1ABD9",
"+X c #B5BBD8",
"@X c #AFB8E5",
"#X c #B1B9E3",
"$X c #C1BCCB",
"%X c #BCC0D6",
"&X c #BDC5E5",
"*X c #BEC6EA",
"=X c #C4C9DD",
"-X c #E0C3C2",
";X c #C3CAE7",
":X c #C7D0EC",
">X c #CCD4EC",
",X c #D4D8EB",
"<X c #CBD3F1",
"1X c #D5DBF3",
"2X c #DEE1EF",
"3X c #DEE3F5",
"4X c #E4E6EC",
"5X c #E1E5F5",
"6X c #E9ECF7",
"7X c #E4EAFA",
"8X c #EEF0F6",
"9X c #EEF2FA",
"0X c #F2F5FC",
"qX c #F5F8FD",
"wX c #FDFDFE",
/* pixels */
"b M u q u M B M u u u u B B u w M u u u M B M u u u M q u u u u b u u B u u B u m M u u r r u q u w r u b b b b u w b B b u b B ",
"b m u u u M u u M M u u u u u u u u u u u M u u u u u u u u u u u u r w B u u u M M m u u b u u u u u u b b b u u r q b u u r b ",
"u m m u u M u u u u u u r u u u r u u u u M r u u u u b b u w 3 3 3 $ 3 w u u u m M u u b b u b b u u u b b u u u u r u u u u u ",
"u u b b u u u u u w u u r w u u r u M M u u r u u u u M w w 6  .5 % 5 ..V l u M u u u u u u u u M b r u b u u u u b b u u b b b ",
"b u u m u u u m M u u u u M u u u M u u u u u M M u u 3 C 3.q.q.6.<.6.q.q.3...q m u w u u u u u u u r w u u u u b M b b b M M b ",
"b u M M u q u M u u u u u u u M u u u u u u u u u u q ..0.6.3.6 $.4.&.6 3.5.6.O.3 b u u M M m u q u u b u u q r b u u u b b b M ",
"q u m M u u u u u u u w u u u u u w u M u M u r r u 4 6.<.$.<. .5.q.6. .$.&.&.6.4 w u u u u u u u u u u u b u w r u b u b b M b ",
"u m m m u u u M M u u u u u u M u u u u u u u u r 3 $.&.<.6.w.2.q.q.q.2.3.q.1.&.<.3 u u u u u u b b u u r b u u u u u w u b b M ",
"u M b b b M u M M u M u u u u M M u u M u M u u b 5 2.$.6.0.0.4.q.q.e.4.<.w.0.$.2.6 b b u u u u M b b u u u M u u u M u u u u M ",
"b b b u u B u u u u M u u u u u u u u u u B u u 3 o.<.$.0.4.q.4.0.q.e.4.&.q.q.,.&.@.3 b m m m u u M b u u u M M u b M B b u u u ",
"b M b u u b u M M M u u u r r M u u r w u u u q @ ;  .4.0.4.e.4.6.q.e.4.; 2.q.4. .6 @ r u u m u M u u u u u b b u b b b u u u b ",
"b M b u u B u u u u u u u u u u u u u u u B u u @ %  .q.<.,.e.&.&.e.q.q.; 6 0.q.o.* @ b u u u u u u u u b M b u u u u M b u u b ",
"M b b u r M u u u u M u u u u M M u u u u m u # & o.5.0.6 ..4.; 4 4.w.q.; * &.0.4.% # u u r q u u M u u r b u u u r b b b b M M ",
"b u u u r u r u u M M M M u u M M M M u u u q & o.4.2. .* % ; v S ; 3.3.c , - @.5.<.- 0 u u u u u M u u u u b b u r u u u b u b ",
"b b M b u u r u u M M M M u u M m M m m u u w , & 2 ; = h y : C.F.t & i ' ( , 2 5 o.V @ q u u u u u u u b b M b u u u u b u u b ",
"b M M u u u u u r w u u u u u u u u u M u u e @ d # + : X . X ' E.G.F.Q O X . : % & f 0 q u u u M M u u u M b u u u b b b M u u ",
"M b b M M b u u u u u b b b M u b M b b u b q 3 % = #.< O #   O T._.!.p   : o % <.4 # u u u u M M b u u 3 M b M M b M u u u u q ",
"b u b b M b w u b u u b b b u b M b b b u q 3 3 ; <.,.Y A.XX*.8.^.{.(.z.;. Xd.,.4.4 # u M M u u u u u u u u M b u b M u u u u u ",
"b u u b b u r u b u b b b u u b M b b b u u 3 4 V <.&.K T.-X|.oX].].].$X|.$XJ.2.$.6 $ u u u u u b u u u u b b b b b b w u u u b ",
"b u u b b u b b u u r u b b u b u u b b u b 3 O.,.; #.X.P R.(.`.].].].'./.E.P o.6 $.3 u u u M u u u b b u b b b b b u w r u u u ",
"b w b M M b b b b u 3 u b b u u u u b b b b 3 &.1.o.= ,.X.U L._._./._.'.T.P V - O.$.$ b u u u u u u b b b b b b b b b u u u u 3 ",
"b u u u b b M b u u b b b u b u 3 u b b u 3 4 1.1.1.$.+.2 , 1 Q Z.F.Z.~ d < A #.<.$.@ b u u B u 3 u u u b B M b b b B b u u b M ",
"b b u b b b b u b u 3 u u b u u b b b b 3 3  .1.1.#.A ! g.v.Y / F F F Y :.Y G.! +.%.@ r M M u u b b b u u b b b u b M b b b u b ",
"b b b b b b u u u b u u u u u b u M M 3 b 3 &.1.1.Z ^ g.;XN.! ] A.A./ y.=Xg.(.(.U o.$ b M M M u b b b b u b u u u b M b b b u b ",
"b b M b M u u u u u b b u u u M u b u r u @ $.<.&.Z g.+X;Xh./.`.'./.^.c.3XM.C.].` # u u u u u u u b b u u M r u u b b u b b b b ",
"b u b M u u q u u u b b r r u b b b u b u 3 $.<.=.%X6XwX8X$Xf.T.C.r.M.>X3X<Xz.~.Q.8 r u u u M u b u u b u B q u b u b u b u u u ",
"b q u u b u u u b u b u u b u u b b b b u u 4 O. X0XwXwXwX0X;Xs.t.=X5X0X0XqX>Xz.Q.G u u u M M u b b u u b b u u u b M b u b u 3 ",
"b u u b M b b b b u M b u u u M b b b b B M 3 =.&XqXwXwXwXwXwX5X,XwXwXwXwXwXqX=Xm.` 8 u B u u u M b u b M b u b b b b q r b b b ",
"u b b b M b M M b u M u u u u M b b u u b b 3 Z +X6XqXwXwXwXwXqXqXwXwXwXwXwXwX4Xv.K.8 b b M M u u b u b b b M M u b u b b b u b ",
"b M b b M b M b u r u u M u u u u r u u b b u Z OX7X0XqXqXqX6X3XqXwXwX9X0X5X8X6Xu.` g M u u b u b b u u u b M b u b u M b b b b ",
"u b b b b M b b u w u b u M u u b 3 u u b b b N 9.@X*X6XwX0X7X1X1X0X7X6X7X1X&X*X:.f.H r u b u u M M q q b b b b b b b u b b M b ",
"b u u b M b B b M M u u u u M M u b B B b M u b 7.x.|.*X>X3X:X5X;X#X@X&X>X.X|.OXu.l.` q b b u u u b u u b b b u u u b b u u u b ",
"b u b M u b u u M u u u u u r M m M m u n N i s -.7.i.|.OX:X*X*X9X*X#X.Xi.i. X}.=.l.k.7 u u b u b u u u u u q r u u b u b u u b ",
"b u b u b u M b u u u M M u u M u u u u u b y T B.S -.-.>.oX1X:X5X8X<X,X=Xi.i.9.p.^.Q.h q u u q u m m u u u u u u u u M M b u b ",
"b u r r u u b b u u u u u u u u u u u q u u h { / K y.y.J.H.n.v.x.N.M.M.N.M.U S ^.[.(.j q u b u u m u u u M u u b u b M M b u b ",
"b u r u u b u u u u u u u M u u m u r u u y T P.U |.$X+XXXc.K.H.D d.K.K.f.f.Y j (.'.`.) t u u u u m u u u M u M b b u u u u u u ",
"b u M M u M u r r M u q u u B B M u u u u h | ] 8.,X4X4X1X=XXXs.B.L.l.s.M.oXoX>.~.`.[.F.i u u u B m u u u u u u M M u u u u u b ",
"b u b b u M u u u u u u u u u u u m u u 9 Q I.' S s.a.a.b.XX>X;XM.c.+X1X9X2X%X>.K.{.'.Q.G u M u u u u M m u u M u u 3 u u u b b ",
"b b b u u M u u u u u u u r r M u u r 9 Q I.{ Q ` [.'.{.`.l.c.2XqX9XwX7X+Xv.m.j.' `.'.{._ i u u u u u m u M u u u u u u u b M u ",
"b b u u u u M u M M u u u u u u u m r D { W ^ W ` {.'.'.].].C.a.#X+XXXx.W.^.[.L.E (.].'.!.D u u M u u u u u u u b u u M M b u b ",
"b u u u u b M b u M u u M M u u M M i F ' } ^ F ( {.{.].].].'.f.:.7.j.^.{.{.'.P.E ^.G.).T.' g u b u u u w b b b M u b M b u b b ",
"u b u u 3 u u u u u u u u u u u u u p | ^ ' J W J /.{.].].].'.^.s ) `.].].]._.D.H G.F.Q.` | ( t u u u u q u u b b u b u u M M b ",
"3 b b b b u u u u u B u u B B M u u g J a 9 p p > G.{.].{.].{.^.a Z.].].].{.!.P.f D J I P.F H 8 u u u b b b u b M u u u u u b B ",
"b b b u b b M b u u B M u u u M u u u t r r u w u E {.'.{.].].`.R k.].].].].R.{ d t i i p t t u u b b u u b b b u u b M b b b b ",
"b u b b u u b b u u u u w u u u u u u u u u r r w h ).].].{.].{.F.F.].].]./.I.R t u u u i u u u u b u u b u u w u b b b u b M b ",
"b b b b u r u b u r u u r u u u u u u M u M r r w g C.].].].{.{.T.S./.]._.R.D.H q u B u u u u M u b b u b b b u r b b u u b M b ",
"b u b u u q u u r q u u u u u u r u M M u M u u u i L (.].].].{.T.S.U.R.R.U.[ 9 u u B u u u u u u b b u b b b b b b b u u u u u ",
"b b u u u b b u u w u M u M B u u u u u u u u u u u s C.].].].{.T.S.U.U.U.U.W : u u u u B u u u q u b b b b b b b b b u u u u w ",
"M u r r u M b b u r b b u b M b b b b b b b b u b b w I `.].].{.T.S.U.U.U.U.f b b b b b b b b b u u M M u M u M u u b M u u u u ",
"b u u u b b b b b b M M b b b u u b b b u b b b z l 4 I (.].].{.Y./ U.U.U.} s x n N b M b u b M u u b u u u u u u u u u M M u u ",
"b b u u u u b b u b b b b b u b b b b b M M x c x x 0 I `.].].].!.W D.U.U.T k x x c n N b b u b u u u u u M u u u u u u b M u M ",
"b M b b b u b b b b b u b b b u r u u M C n 4 l x x l d T.].].].(.P [ S.^ y x x x x 4 c n b u b b b b u u u M u u M M u u u u u ",
"b b b b M b u M M b b b b b b u w b b C c x x l x x z : V.[.].].(.P / [ F , x x l x 4 z x n w b b M M u u u B M u b M b u u u b ",
"b b b b b b u b u 3 u b b b b b M b n c x x x x x x x 4 P '.].].(.E { } D k x x x x x l z 4 l b b b u M M u M M u u b b u M M u ",
"M b b b u q b b u u b M b b M b M b c x x c x c x c x x s /._./.T.J Z.Y.D k x c c c x c c x x n b u u b b M u u u b M b u b b b ",
"b u b u r r u b b b b b M M b b b b z x x x x x x x x x y ~ R.I.I.W D s e l x x z x l c l z 4 b u u u b u u u M b b M u u u b b ",
"b u b b u u u M M b b b b b b b u u x x x x x x x x x x k s ] /.[.F., k x x x x l x x x x x c b b b u b u u u M M u u b b b b b ",
"b u M M u r u b b b b b u u u u b r c l x x x x k k x x x k g ) ) I w c c x x x x x x x x x n 3 u u b M u M u u b b u M b r u b ",
"M b b u u u M M u b M b u u u q r b b C x x x x x x x c c c x , 3 3 x x x x k k 4 b n b x C n b b u b u u b M B M u b b u b u b ",
"u M M B M b u u u b M b u u u u b b b N C x x x z x x x x x x c x x x x k x x x z z 4 4 C N b b u u b u u u 3 r b b b b b u b B ",
"b b b M b r u b b u b u u b M b u u u u n n c x x x c x x x x x x x x x k x l x 4 b 4 M M b u M b u u u b u u u u b b M b b M M ",
"b u b b u r u u b u b b b b b b u u M M b b n c x x c x x x x x x x x x x x x x 4 n M M u u b M b b b u b M b u b b b b b M b b ",
"u u M M u u b b b u b M M M b b u u m m m u u b b n z z c x x x x x l x c z z c b b u u u u u u M u u b b M b u b M b u M M b b ",
"b u M M b u b b M b b M b b M b B m u u u w M m b M u u n b n b b n n b n b w r b b b u u u r u b b b u b b b b M B b b b M B B "
};
