/* XPM */
static char *out[] = {
/* columns rows colors chars-per-pixel */
"64 64 226 2 ",
"   c None",
".  c black",
"X  c #11101A",
"o  c #191018",
"O  c #321C1C",
"+  c #272127",
"@  c #39202F",
"#  c #382933",
"$  c #432C36",
"%  c #472A39",
"&  c #6D353F",
"*  c #262642",
"=  c #2F2640",
"-  c #282946",
";  c #2B2C4C",
":  c #2A2D50",
">  c #2F3258",
",  c #2E335E",
"<  c #303359",
"1  c #31355E",
"2  c #30345F",
"3  c #3A355C",
"4  c #373965",
"5  c #353B6A",
"6  c #333A6C",
"7  c #353B6C",
"8  c #383D6C",
"9  c #353C70",
"0  c #373F74",
"q  c #383E70",
"w  c #393F71",
"e  c #432B44",
"r  c #492C45",
"t  c #483244",
"y  c #413258",
"u  c #523955",
"i  c #523D55",
"p  c #5E3851",
"a  c #593B55",
"s  c #4A3D69",
"d  c #3A4074",
"f  c #3D4276",
"g  c #3A427A",
"h  c #3C437A",
"j  c #3C447E",
"k  c #3F467E",
"l  c #5F4147",
"z  c #5B4757",
"x  c #5C4E5B",
"c  c #5E505F",
"v  c #7F4C4B",
"b  c #7C4B4E",
"n  c #7A5244",
"m  c #6E4A57",
"M  c #775356",
"N  c #534C6E",
"B  c #454378",
"V  c #41477F",
"C  c #635669",
"Z  c #735062",
"A  c #745666",
"S  c #854C4D",
"D  c #884950",
"F  c #85545C",
"G  c #8D565C",
"H  c #925555",
"J  c #9A5957",
"K  c #9C5359",
"L  c #9D625B",
"P  c #A6605E",
"I  c #805D74",
"U  c #8C6862",
"Y  c #8D6F66",
"T  c #9D6A6A",
"R  c #8F776C",
"E  c #9F7165",
"W  c #886B76",
"Q  c #95757F",
"!  c #9D737A",
"~  c #AD6E61",
"^  c #B46967",
"/  c #B16C64",
"(  c #BA6A67",
")  c #A07869",
"_  c #AF7B69",
"`  c #BE766C",
"'  c #B37B6E",
"]  c #B17573",
"[  c #C5776D",
"{  c #A2806F",
"}  c #AB8273",
"|  c #B68A78",
" . c #C78677",
".. c #C98372",
"X. c #D28075",
"o. c #D38779",
"O. c #DD8D7B",
"+. c #CB927C",
"@. c #E08A7E",
"#. c #3E4783",
"$. c #414884",
"%. c #4C4B87",
"&. c #414A88",
"*. c #434B88",
"=. c #454E8D",
"-. c #51558A",
";. c #585D8C",
":. c #454F90",
">. c #454F92",
",. c #475196",
"<. c #485091",
"1. c #485296",
"2. c #485696",
"3. c #4A549A",
"4. c #4A549B",
"5. c #5C628E",
"6. c #7D778D",
"7. c #6F6F96",
"8. c #676A99",
"9. c #616A9C",
"0. c #6F729E",
"q. c #4C57A0",
"w. c #4E59A3",
"e. c #4E59A4",
"r. c #4F5AA5",
"t. c #515BA5",
"y. c #515CA9",
"u. c #535FAD",
"i. c #535FAE",
"p. c #5561B3",
"a. c #5864B8",
"s. c #6A78AC",
"d. c #6E7DAE",
"f. c #7678A6",
"g. c #5C69C1",
"h. c #616FCB",
"j. c #806E89",
"k. c #7982AD",
"l. c #7382B0",
"z. c #7F85B6",
"x. c #7C8DB5",
"c. c #7886B9",
"v. c #9B838C",
"b. c #998B9B",
"n. c #A08284",
"m. c #A6808A",
"M. c #B48A81",
"N. c #A2918E",
"B. c #B69387",
"V. c #A98F94",
"C. c #AB9E9E",
"Z. c #8487AD",
"A. c #9283A0",
"S. c #9592AA",
"D. c #8290BD",
"F. c #8D94BD",
"G. c #9B90B0",
"H. c #9B9BB5",
"J. c #9599BE",
"K. c #A8A6B5",
"L. c #C18D86",
"P. c #CA9581",
"I. c #CC9F8D",
"U. c #D79E89",
"Y. c #C39C90",
"T. c #EA9783",
"R. c #EB9E87",
"E. c #CEA995",
"W. c #D0B090",
"Q. c #D0B89F",
"!. c #E2AB8F",
"~. c #F5A489",
"^. c #F6AA8D",
"/. c #E5A892",
"(. c #E3B293",
"). c #EFB597",
"_. c #E4BF97",
"`. c #F8B997",
"'. c #F9BF99",
"]. c #E2BBB6",
"[. c #F9C09B",
"{. c #FAC29D",
"}. c #FAC79F",
"|. c #D6C6BE",
" X c #F2C4A1",
".X c #FBC8A1",
"XX c #FCCFA5",
"oX c #F8C1AA",
"OX c #FCD1A7",
"+X c #FDD7AB",
"@X c #FFE0B1",
"#X c #8794C0",
"$X c #8695C0",
"%X c #8893C6",
"&X c #8C98C8",
"*X c #919DCB",
"=X c #97A0D3",
"-X c #9FACD2",
";X c #A4A8C5",
":X c #ADAEC1",
">X c #ABAEC5",
",X c #A4A7CB",
"<X c #AEADCC",
"1X c #A5AFDA",
"2X c #ABB1D1",
"3X c #AAB4DD",
"4X c #A8B6DC",
"5X c #B1BBD7",
"6X c #B4BEE1",
"7X c #B4BDE8",
"8X c #D4BFC8",
"9X c #C1C5D9",
"0X c #C9CAD9",
"qX c #C8CEE5",
"wX c #C3CCEF",
"eX c #CAD2E9",
"rX c #CBD1EF",
"tX c #D9DDEA",
"yX c #D2DBF6",
"uX c #D9E0F6",
"iX c #E1E5F7",
"pX c #E1EAFD",
"aX c #E8EFFD",
"sX c #F0F4FE",
"dX c #F7F9FE",
"fX c white",
/* pixels */
"                                                                                                                                ",
"                                                                                                                                ",
"                                                                                                                                ",
"                                                                                                                                ",
"                                                                                                                                ",
"                                                                                                                                ",
"                                                                                                                                ",
"                                                                                                                                ",
"                                                                                                                                ",
"                                                            *.a.e.d a.u.w                                                       ",
"                                                        4 h.h.t.y.i.=.h.h.t.                                                    ",
"                                                      ; h.4.>.#.g.h.,.>.>.p.<.                                                  ",
"                                                      ,.4.g.g.u.h.h.g.w.h.>.g.2                                                 ",
"                                                      a.>.g.g.a.h.h.h.w.h.g.>.,.                                                ",
"                                                    > ,.y.a.h.a.h.h.h.j g.h.j 3.                                                ",
"                                                    > q h.q.h.w.y.h.h.f >.h.y.5                                                 ",
"                                                  * h g.g., g.g 7 g.h.V 6 y.h.7                                                 ",
"                                                  < q.q.9 - 6 x R g w.C c 0 >.a.$.                                              ",
"                                                  @ z : i n X R.'.Y U ~ n $ > : l                                               ",
"                                                  > = :.t # . O }.XX_ . + o 1.&.                                                ",
"                                                  q >.u.} ].2.c.@X@XK.7.4XI h.h                                                 ",
"                                                  3.h w.Z `.8X|.@X@X@X<XoXv.y.*.                                                ",
"                                                2 r.*.1 r.Z OX@X@X@X@X@X+.3 8 r.                                                ",
"                                                h r.r.r.%.s % ' ).).!.b u %.r.r.                                                ",
"                                                3.r.r.m M.>XA.@.D D ^ z.! (.A r.                                                ",
"                                                r.r.%.] G.0XB.U.)./.W fXV.+X!.B                                                 ",
"                                                r.r.0.9XsXeXI.XX_.Y.:XpX2XY.@X%                                                 ",
"                                                k -.uXfXfXfXtXb.j.eXsXsXsX,XQ.E                                                 ",
"                                                  f.sXfXfXfXfXdXiXfXfXfXfXfXS.!.                                                ",
"                                                  f.uXsXfXfXfXdXdXfXfXfXfXfX5XQ.                                                ",
"                                                  5.1XuXfXdXdXrXdXfXsXaXuXiX-XN.                                                ",
"                                                  ;.$X$XrXiXuXiX3XwX7XpX=X&X*XN.E                                               ",
"                                                  F 9.l.%X7XwX7XdX7X3Xx.d.=Xs.N.|                                               ",
"                                                  T.] ! ! m.;XyXiXdXyXdX#X8.6.@XOX                                              ",
"                                                P ~.N Z.Z.C.@XN.a N.N.N.Q.L OX@X@X                                              ",
"                                                T.! qXfXfXiXF.C.o.@XN.S.H.Z.N.@X@XE                                             ",
"                                              ` ~.T N.N.N.S.6XiX>X>XiXfXiXJ.n.@X@X!.                                            ",
"                                            ` ~.[ H @X@X@X@XL.9XiXfXiXF.C.@X/ @X@X@XJ                                           ",
"                                            X.[ X.H @X@X@X@X@XQ D.k.V.@X@X+XL @X X X!.                                          ",
"                                          L [ ~.( / !.@X@X@X@X@Xa E.@X@X@X{.` W.P.@X ...                                        ",
"                                          v S       E @X@X@X@X@X& .X@X@X@X`./ v J +./ L                                         ",
"                                                      @X@X@X@X@XE @X@X@X+X~.J                                                   ",
"                                                      !.@X@X@X@XU.[.@X@X`.~.                                                    ",
"                                                      J @X@X@X@X/.~.`.`.~./                                                     ",
"                                                        !.@X@X@X/.~.~.~.~.J                                                     ",
"                                                        { @X@X@XU.~.~.~.~.r                                                     ",
"                                                        { @X@X@X!.O.~.~./                                                       ",
"                                                        G @X@X@X@XH ~.@.p                                                       ",
"                                                        e OX@X@X@XD @.K                                                         ",
"                                                          | @X@X@XL ~.L                                                         ",
"                                                          G .X^.~.P ) M                                                         ",
"                                                          y ..[.+XE                                                             ",
"                                                            y E { M                                                             ",
"                                                                                                                                ",
"                                                                                                                                ",
"                                                                                                                                ",
"                                                                                                                                ",
"                                                                                                                                ",
"                                                                                                                                ",
"                                                                                                                                ",
"                                                                                                                                ",
"                                                                                                                                ",
"                                                                                                                                ",
"                                                                                                                                "
};
