/* XPM */
static char *out[] = {
/* columns rows colors chars-per-pixel */
"64 64 214 2 ",
"   c #100C0E",
".  c #2A1716",
"X  c #2B1D21",
"o  c #41262A",
"O  c #452F3A",
"+  c #51383B",
"@  c #633C37",
"#  c #63443D",
"$  c #2F2D46",
"%  c #39384C",
"&  c #2A2F57",
"*  c #2D325B",
"=  c #333553",
"-  c #31355C",
";  c #393D5A",
":  c #2E3562",
">  c #363A64",
",  c #3B3D63",
"<  c #353B6A",
"1  c #383D6A",
"2  c #353D72",
"3  c #393F71",
"4  c #483947",
"5  c #543C46",
"6  c #4C3B55",
"7  c #4B3F5C",
"8  c #503C51",
"9  c #663F4D",
"0  c #473D64",
"q  c #3E4356",
"w  c #3D4267",
"e  c #3C4274",
"r  c #37417E",
"t  c #3C447C",
"y  c #49444F",
"u  c #58434B",
"i  c #414654",
"p  c #454A56",
"a  c #4C4855",
"s  c #43435C",
"d  c #464D59",
"f  c #494E5A",
"g  c #5B4252",
"h  c #554B53",
"j  c #4C535F",
"k  c #55505A",
"l  c #65444B",
"z  c #77464B",
"x  c #7B5247",
"c  c #694A55",
"v  c #724C52",
"b  c #685358",
"n  c #785957",
"m  c #434564",
"M  c #454967",
"N  c #4C4B64",
"B  c #444469",
"V  c #464A69",
"C  c #494D6B",
"Z  c #4D5561",
"A  c #4D526B",
"S  c #505763",
"D  c #515964",
"F  c #50576A",
"G  c #555D69",
"H  c #474A74",
"J  c #574E74",
"K  c #4E5371",
"L  c #775867",
"P  c #706175",
"I  c #855657",
"U  c #965B5C",
"Y  c #A55F5F",
"T  c #94645C",
"R  c #AB605F",
"E  c #855766",
"W  c #B15F63",
"Q  c #886567",
"!  c #9A6965",
"~  c #9B7166",
"^  c #9B726D",
"/  c #8F6C73",
"(  c #A76863",
")  c #B56866",
"_  c #A6756A",
"`  c #B9766A",
"'  c #BB7B6D",
"]  c #A77A77",
"[  c #C17A6D",
"{  c #CA7872",
"}  c #D27A76",
"|  c #A98B78",
" . c #B58577",
".. c #B6927D",
"X. c #BF957F",
"o. c #C88576",
"O. c #D58678",
"+. c #DB8B7B",
"@. c #DC977F",
"#. c #E18F7E",
"$. c #3E4783",
"%. c #3F4886",
"&. c #424984",
"*. c #434C8B",
"=. c #484C89",
"-. c #4A5081",
";. c #575D85",
":. c #464F92",
">. c #475194",
",. c #4A5294",
"<. c #4A559B",
"1. c #4B559C",
"2. c #766787",
"3. c #676E97",
"4. c #797799",
"5. c #4B57A1",
"6. c #4E59A4",
"7. c #515BA4",
"8. c #525EAD",
"9. c #5662B4",
"0. c #5966BB",
"q. c #5C72B4",
"w. c #797BA3",
"e. c #5D6AC3",
"r. c #5F6EC9",
"t. c #606ECA",
"y. c #6270CE",
"u. c #887887",
"i. c #8C7E9A",
"p. c #AC7F81",
"a. c #7281B6",
"s. c #7C8AB9",
"d. c #8D8497",
"f. c #9D8A96",
"g. c #B78985",
"h. c #AC998F",
"j. c #BB9D89",
"k. c #A98790",
"l. c #A99998",
"z. c #B89D96",
"x. c #B6A69C",
"c. c #8889AA",
"v. c #9388A6",
"b. c #9995AB",
"n. c #848CB7",
"m. c #8792BD",
"M. c #9B99B5",
"N. c #A08EA1",
"B. c #A79BA6",
"V. c #B3A6A5",
"C. c #A8A3B4",
"Z. c #C79684",
"A. c #D49B86",
"S. c #E29A86",
"D. c #EB9A83",
"F. c #F19F86",
"G. c #D6A78B",
"H. c #DBAF90",
"J. c #DAB898",
"K. c #E5A58A",
"L. c #F2A187",
"P. c #F4A489",
"I. c #E1AF93",
"U. c #E9BC99",
"Y. c #F4B998",
"T. c #D4BEA2",
"R. c #D4BDB1",
"E. c #EBC49E",
"W. c #F3C59E",
"Q. c #D9C6A4",
"!. c #D5C9B1",
"~. c #E9C7A2",
"^. c #ECCDA4",
"/. c #F6C8A1",
"(. c #F3CCA5",
"). c #EDD6A9",
"_. c #EDD5AA",
"`. c #F8D4A9",
"'. c #F4DBAE",
"]. c #FBDDAE",
"[. c #EEC6B3",
"{. c #F5DEB0",
"}. c #FDDFB0",
"|. c #FBE1AE",
" X c #FDE2B2",
".X c #FAE4B3",
"XX c #848FC1",
"oX c #8A98C2",
"OX c #929ECA",
"+X c #9BA3C8",
"@X c #98A6D0",
"#X c #A3A7C7",
"$X c #B7B7C8",
"%X c #A4ADDD",
"&X c #AEB4D1",
"*X c #ABB5DC",
"=X c #AFB8E3",
"-X c #B4BCE5",
";X c #BCC5E6",
":X c #CCC9D3",
">X c #C5CCE8",
",X c #CCD2E4",
"<X c #D4DBED",
"1X c #DADCE8",
"2X c #CED6F1",
"3X c #D2DAF3",
"4X c #DDE0EF",
"5X c #DCE4F8",
"6X c #E4E5ED",
"7X c #E5E9F8",
"8X c #E9EEFA",
"9X c #EDF1FB",
"0X c #F3F5FC",
"qX c #FCFDFE",
/* pixels */
"Z G j p j D G D j j j j G G j f j D j j D G j j j j j d j j j j j j D G Z Z G Z Z D Z j d d j i j d d j j Z j j j p j G D j j G ",
"Z S j j j D j j D D j j j j j j j j j j j D j j D j j j j j j j j j f f D Z Z Z S G Z Z Z Z j j j j j j j D D j j j p j j j d S ",
"j S j j j D j j j j j j f f j j d j j D j D j j j j j j j j d f i p i Z S Z Z Z Z S Z j Z Z j j j j j S D j j j j j j j j j j j ",
"j j j S j j j j j f j j f f j j j j j j j j d j j j j D q w , = $ ; w q p S Z Z j j j j j j Z j D j j j j j j j j j j j j S j j ",
"j j j S j j j j G j j j j D j j j D j j Z j j S D j q e <.q.0.6.&.0.0.6.t p S S j j p j j Z j j j j j p j j j j j G j j D G D j ",
"S j D D j p j D j j j j j j j G j j j D j j j j j d H e.e.0.<.8.9.1.8.r.r.1.q j j j Z j S Z Z j p j j Z j j d d j j j j j j j G ",
"d j S D j j j j j j j p j j j j j d j j S D j d q e 0.8.<.:.t 9.0.:.$.,.6.0.<.q j j j j Z Z Z j j j j j j S j f j j j j j D D j ",
"j j S S D j j D D j j f j j j G j j j j j j j j q 1.6.1.0.0.6.r.t.0.,.0.8.,.8.e d Z Z Z j j j j Z j j j d j j j j j j d j j D D ",
"j D Z Z D D j D j j j j j D j D j j S D j D Z q t 9.<.e.0.e.9.t.r.t.1.e.y.5.8.1.q j Z Z Z Z j Z D Z j j f j D j j j j j j j j G ",
"Z Z Z j Z D j j D j G j j j j j j j j j j D Z q 1.<.6.0.e.e.0.t.r.y.1.0.t.e.%.8.H j j j Z Z Z j j Z D Z j j D D j j G G j j j j ",
"j D Z j Z j j D D j j j j f d D j j f d j j f = <.%.9.0.e.e.9.t.t.y.,.,.e.t.>.>.< p Z j Z Z Z j D j j j j j j D j j j j j j j j ",
"Z D D j Z D Z j j j j j j j j j j j j j S G f % e >.r.8.e.e.>.0.t.t.8.: 8.t.8.e * q j j j j Z j Z j j j j G D j j j j G G j j j ",
"D D j j d D j j j D D j j D j j G j j j j S i = > 9.0.r 9.9.e 1.t.t.0.: t e.e.<.- q j Z j d d j j D Z j d D j j j d j D j j D D ",
"Z j j j f j f j j j D D D j j D S D S j j p $ 1 5.8.,.& %.%.m V 5.t.0.- & &.6.6.&.; % j j j j j j Z j j j j j j f j j j j j j j ",
"Z Z Z D j j d j j j j G D j j D j D S j j j % 2 1.r : % 6 & ~ ..q r 2 L L < < 1 2 = d j j j Z j Z Z j j j j G j j j j j j j j D ",
"j D D j j j j j j d D j j j j j j j S S j d 4 8 = & 4 + # + G.Y.j.Q v x l O $ & 4 u j j d d j Z D Z j j j G j j j j j j D D j j ",
"D Z D D Z Z j j j j j D Z Z D j Z Z Z Z j q q y > > o X   . ' W.W.H.@   . o 0 >.a h D j j j j Z D Z Z j d Z j D D Z D Z j Z j p ",
"Z j j D D Z d j Z j j j Z Z Z Z D D j j j q t * 1.6.Q k.C N d._.|.h.P i i.c =.8.q q j D D j D j j j j j j j Z Z Z Z Z Z j j j j ",
"Z j j j D j d j j j j j j j j Z Z Z Z Z q w t e 9.H  .[.@Xq.$X}.|.!.s.y.:Xu.5.:.w q j D D j Z j Z j j j j Z Z Z Z Z Z d j j j Z ",
"Z j j Z Z j Z Z j j j j Z Z Z j Z Z Z d q %.<.t 5.*.E S.[.R.}.}. X X[.R.Y.u.5.&.w q D j j j D j j j Z Z j Z j j Z Z Z d d j j j ",
"j d Z D D Z D Z Z j p j Z D j j j Z D q e 5.6.<.2 r 1.L K.]. X`.].}.].W.] 0 3 ,.e q j j j j j Z j j Z Z Z Z Z j Z j Z j j j j d ",
"Z Z j j j j D j Z j j j j j j j q j Z q %.6.6.6.:.:.J 0 v  .U.Y.Y.W.Z.v N =.,.6.e q q j j D D j d j j j Z G D D D Z G Z j j j j ",
"Z j j j Z Z Z j j j q j j j j j j j q w 5.6.6.5.0 L / m.P ) Y ! ^ ( v J ^ Q ,.6.w q p j D D D j j j j j j Z Z Z j j D Z Z j j Z ",
"j D Z j D j j j j j j j j Z j D j D q e 6.6.6.%.6 { C.#Xp.+.O.) W E C.#Xj.E.P >.q f j j D D j j j Z Z j j Z j j j Z D Z Z Z j Z ",
"Z D D j D j j j j j j Z j j j Z j D q w 1.7.,.r 7 k.&Xb.J.Y./.(.J.N.6X:Xj.}.g.0 q f j j D j j j j Z Z j j D j j j Z D j Z D j j ",
"Z j D D j j d j j j j D d j j j Z Z Z w <.7.*.e a.:X9X,Xz.U.).J.B.1X0X>Xf._.U.L % f j j j j j j Z j j Z Z D p j j j Z j j j j j ",
"j p f j j j j j Z j j j j j j j D Z j q ,.8.e 4.6XqXqX0X:Xb.d.M.<X8X8X3XM.T.'.^ 4 j j j j j D D Z Z Z j Z Z j j j j D j Z j j q ",
"j j j D D j D Z Z Z D Z j Z Z D Z Z Z Z s <.a.6XqXqXqXqXqX8X2X5XqXqXqX0X*Xz.{.Z.h f p j D D j j D Z j Z D j Z j D D j p j j Z Z ",
"j D j D D j D Z Z Z Z j j j Z Z Z Z j j q -.+X0XqXqXqXqXqX7X5X0XqXqXqXqX<XN.^.Q.h p f D D D D j j j j Z Z D D Z j Z j Z j j j Z ",
"j D Z j D D D D j d Z j Z Z j Z Z d j j j 3.;X0XqXqXqXqX8X>X9XqXqXqXqXqXqXb.T.}.| h j D j j Z Z Z Z j j j Z D Z Z j Z D j Z D Z ",
"j D j j j D Z Z f d Z Z Z Z j Z j q j j F m.9X9XqXqXqXqX>X;XqXqXqX0X7X9XqXM.T..X..f j j j j j j D Z d d j Z Z j j Z Z j j D D j ",
"j j j D D Z D D D D Z Z Z j Z D Z Z D S ;.s.;X;X9XqX0X7X7X3X7X0X7X8X-X>X3Xv.~..XX.b D D Z j Z j j j j j Z D Z j j Z Z j j j j Z ",
"Z j Z D Z j j j D j j j j j p G Z D Z f J w.a.oX-X>X-X*X5X>X=X;X-X*Xn.+Xm.h.'.].'.n j S j j j j j j j j j j d j j j j j j j j Z ",
"Z j Z j Z Z D Z j j j D D j j D Z Z Z j A ;.a.OX%X%X>Xm.3X8X-X%X%XoXa.m.w.f..X]..Xn j j j S j d j D D j j j j j j j j G D j j Z ",
"Z j f f j j Z j j j j D j j j j Z j j j S f L u.u.c.&Xs.@X7X9X;X>X3XXXa./ | '.}. X_ h j j j S j j j j j j D j j j j Z D D D j Z ",
"Z j f j j Z j j j j j j j j j j Z Z d j Z k ( _ ] !.x.l.x.C.M.v.c.M.4.g.S.` ^..X|.G.4 j j j j j D S j j j D j D j j Z j j j j j ",
"Z j D D j D j f f j j d j j G G Z Z Z Z S l O.] u.N.d.V.T.T.g.E T.T.T.U.Z.U J. X|.J.y j Z D j Z G j j D j j j j j D j j j j j j ",
"Z j j Z j G j j j j j j j j j j Z Z j Z d I S.i.,X1X<X;XM.C.f.g.Q.Q.B.C.3.8 J. X|.J.5 j j Z Z Z j j j D j j Z j j j p j j j j Z ",
"j D Z j j j j j j j j D j j f D Z j d d 4 _ K.2.M.l.C.+X3X6X,X&XC.&X,X1Xc.E (.`.|.W.I f j Z Z Z j j D j j Z j j j j j j j D D j ",
"j Z j Z j j D D j D j j j j f j Z D Z d l o.o.Q Q.'._.T.N.&X4X>X4X6X1X$X/  .~.K.`.`.~ y j j Z j D j j j j j j D D j j D Z j Z Z ",
"Z j j j f Z Z Z D j j j j D j j S S j p I O.R T ).].}..X'.x.c.n.n.c.f. .[ G.@.J./.W._ y j j j Z Z j j j d j Z Z j j Z D D j D j ",
"j Z j j p Z Z Z j j j D j j D j j j j y I O.[ ` G. X}.}. X'.h.N L A.Y.L.I | _ E.I.K.' + j j j j Z j j j d Z j Z D j Z j j Z D Z ",
"p Z Z j j j j j j j G j j D G j S j j u ` Y Y U  .'.}.}.]. XG.z +.P.F.D.o.` _ ..o.+.[ 5 j j j j j j j Z j Z j Z D j j j j j D G ",
"j j j j Z Z D Z j j G D j D j D j j j h ( v y + x (.}.}.}. X(.U @.P.P.P.P.L.I h l ) [ l p j j j Z D Z j j Z j Z j j j D Z j j Z ",
"Z j Z D j Z Z j j j j j d j j j j j j j y d d d u G..X}. X}..X~ L.P.P.P.L.#.l j j u n h f j j j j Z j j j j Z d j Z Z Z j Z D Z ",
"Z j Z Z j f Z j j f j j f j j j j j j j j Z d d a ~ `. X}. X.XO.L.P.P.P.P.O.u j j f f j j j j D j Z Z Z j Z Z j j Z Z j j Z D Z ",
"Z j Z j Z q j j f p j j j j j j d j D G j G j j j b H.}.}.}. XK.#.P.P.P.P.Y y f j j G j j j j j j Z Z j Z D Z j j j Z j j j j j ",
"j Z j j j Z Z j j f j D j S G j j j j j j j j j j a ..}.}.}. XY.#.P.P.P.P.T y f j D j j D D j j q j Z j Z Z j Z j D Z j j j j d ",
"D Z f d j D Z j j j j j j Z D j j S S j S S j j F f Q ).].}. X/.} F.F.F.O.b j j j Z j j j Z j j j j D D j j j Z Z j Z D j j j j ",
"Z j j j Z Z D j j Z D D Z Z Z j j j j j j S A V V m Q ).}.}. XE.W +.D.S.U N M A D Z j G D j j G D j j Z j D Z j j j Z j D D j j ",
"Z D j j j j Z Z j j D D D j j Z j j A Z F A V V V 6 ..}.}.}.].E.W { { W 8 C V V C A K D j j j D j j j j j D j j Z j Z j Z D j Z ",
"j D Z Z Z j j j D j j j Z D Z j j j A K C V w V V a j.}.}.}. XG.W } ) l B V M M C w C F Z j j j Z j D j j j Z D j Z D j j j j Z ",
"j Z Z Z D j j D D j j j j D D j d A C V V V V V V m ^ '.].]. X_ D.D.U 0 V w M C V V V C K d d j Z D D j j j D D j Z Z Z j j Z Z ",
"Z Z D Z Z j j j j p j j j j j j F A C V V V V V M M b ~.].}..X! O.S.c 0 V V M M V V V w V C q j Z Z D j D j D D j Z Z Z j D D Z ",
"D Z j Z j p j j j j j D j D D j D C V V V C V V V V c J. X]..Xn 9 9 0 V C M V C C V V A C A j j j Z j D j j j j j Z D Z j Z Z Z ",
"Z Z Z j j f j D Z j Z D D D D j j V V V V V V V V V 7  .].]..Xn ; m V V C V V V V V V C w Z j j j j j j j D D Z Z Z D Z j j j Z ",
"j j Z D j f j D D j D j Z D D j Z V V V V V V V M M ; ! _.}..Xn B V M V V V V V w A V V w F j j j j Z j j Z j D D j j Z j j j Z ",
"Z j D D j d j D Z Z j j j j j j D M w V V C V V M B V g H.}.].n w V V V C V V V A w V V V F j q j j D D j D j D Z j j D Z j j Z ",
"D Z D j j Z D D j j D j j j j q Z A C V V V V V M M V 7 ! .. .l M M V V V V m m w A A e K D Z j j j Z Z j j Z D D j Z j Z j j Z ",
"Z D D D D Z Z j j D D D j j j j Z Z A H C V V V V V N C s s s m V V V M m V M V A A w K G D Z j j j j Z j j q j Z Z Z D Z j Z G ",
"Z Z Z Z Z d j Z Z j D j j Z D Z j j Z Z K C V V V V H V V V V V V V V V M M V M q D G Z D Z j D Z j j j j j j j j j Z D Z Z D D ",
"Z j Z Z j f j j Z j j j D Z j D j Z Z Z Z A A V V V V V V V V V V V V V M V C V Z D D Z j j Z D D j j j Z D j j Z D j D D D D j ",
"Z j D D j j j j j j j D D D Z j Z Z Z D D j j Z A N A C V V M M V V V A M Z A j j j j j j j j j D Z j D D D D j D D j j D D j Z ",
"Z Z D D Z j j D D D j D Z D D Z G Z Z Z Z p S S Z D S Z Z Z S A Z F D D j j d d j j j j j j d Z j j j j Z j j Z D D Z j j D G G "
};
