/* XPM */
static char *out[] = {
/* columns rows colors chars-per-pixel */
"64 64 217 2 ",
"   c None",
".  c black",
"X  c #321C1C",
"o  c #1F1F3A",
"O  c #332030",
"+  c #432C36",
"@  c #6D353F",
"#  c #262642",
"$  c #2F2640",
"%  c #282946",
"&  c #3E2F4C",
"*  c #2C2F54",
"=  c #352F52",
"-  c #2F3258",
";  c #2E335E",
":  c #30345F",
">  c #313662",
",  c #333762",
"<  c #333864",
"1  c #333866",
"2  c #373965",
"3  c #353B6C",
"4  c #383D6C",
"5  c #3C3F6C",
"6  c #383E70",
"7  c #393F71",
"8  c #432B44",
"9  c #45314C",
"0  c #413258",
"q  c #5E3851",
"w  c #593B55",
"e  c #643749",
"r  c #713F49",
"t  c #693D54",
"y  c #403E6E",
"u  c #3A4075",
"i  c #3D4276",
"p  c #3A427A",
"a  c #3C437A",
"s  c #3C447C",
"d  c #3C447E",
"f  c #3F467E",
"g  c #5F4147",
"h  c #564149",
"j  c #4B435D",
"k  c #4F4F5C",
"l  c #5B4757",
"z  c #5C4E5B",
"x  c #7F4C4B",
"c  c #764B52",
"v  c #7C545E",
"b  c #5D5661",
"n  c #5E4772",
"m  c #6A5067",
"M  c #735062",
"N  c #715263",
"B  c #675677",
"V  c #7A5F73",
"C  c #854C4D",
"Z  c #85545C",
"A  c #8D565C",
"S  c #925555",
"D  c #995656",
"F  c #9A5957",
"G  c #9C5359",
"H  c #9D625B",
"J  c #9E695F",
"K  c #A2615B",
"L  c #A6605E",
"P  c #8A5D67",
"I  c #845D77",
"U  c #A95D61",
"Y  c #B05D62",
"T  c #9D6A6A",
"R  c #8D776F",
"E  c #967166",
"W  c #9F7165",
"Q  c #8C6B7D",
"!  c #B46967",
"~  c #B16C64",
"^  c #BA6A67",
"/  c #A07869",
"(  c #BE766C",
")  c #B37A6C",
"_  c #B37B6E",
"`  c #B47276",
"'  c #C5776D",
"]  c #CB7173",
"[  c #C87470",
"{  c #D57D78",
"}  c #A2806F",
"|  c #B68A78",
" . c #C98372",
".. c #C18977",
"X. c #CA8A76",
"o. c #D28075",
"O. c #D58F7F",
"+. c #DD8D7B",
"@. c #E08A7E",
"#. c #414884",
"$. c #404986",
"%. c #4C4B87",
"&. c #414A88",
"*. c #434B88",
"=. c #434C8C",
"-. c #454E8D",
";. c #515482",
":. c #5E5D89",
">. c #454F90",
",. c #454F92",
"<. c #475196",
"1. c #485091",
"2. c #4A549A",
"3. c #4A549B",
"4. c #4C579F",
"5. c #5C628E",
"6. c #767084",
"7. c #686A90",
"8. c #6A6C94",
"9. c #646C9A",
"0. c #656F9E",
"q. c #6B6F9B",
"w. c #4C57A0",
"e. c #4E59A3",
"r. c #4E59A4",
"t. c #4F5AA5",
"y. c #515BA5",
"u. c #515CA9",
"i. c #535FAD",
"p. c #535FAE",
"a. c #5561B3",
"s. c #5864B8",
"d. c #516DB9",
"f. c #6E7DAE",
"g. c #7579A0",
"h. c #747DAB",
"j. c #5C69C1",
"k. c #616FCB",
"l. c #9D7B87",
"z. c #9D7A89",
"x. c #7382B0",
"c. c #7985B9",
"v. c #9F8082",
"b. c #9B838C",
"n. c #9E878D",
"m. c #A08284",
"M. c #A18888",
"N. c #A2918E",
"B. c #A98F94",
"V. c #AB9E9E",
"C. c #8487AD",
"Z. c #9283A0",
"A. c #9592AA",
"S. c #8290BD",
"D. c #8D94BD",
"F. c #9B9BB5",
"G. c #9299BF",
"H. c #AA9EAC",
"J. c #A2A0B5",
"K. c #C98B81",
"L. c #D79E89",
"P. c #EA9783",
"I. c #CDA893",
"U. c #CFB099",
"Y. c #D0B89F",
"T. c #ECA48B",
"R. c #E2AB8F",
"E. c #F5A489",
"W. c #F6AA8D",
"Q. c #E5A892",
"!. c #EEAD91",
"~. c #EFB597",
"^. c #F8B997",
"/. c #F9BF99",
"(. c #FAC79F",
"). c #F2C4A1",
"_. c #FBC8A1",
"`. c #FCCFA5",
"'. c #FCD1A7",
"]. c #FDD7AB",
"[. c #FAC9B0",
"{. c #FFE0B1",
"}. c #8E93C3",
"|. c #8195C8",
" X c #919DCB",
".X c #819DDC",
"XX c #9CA3C4",
"oX c #9EA7CE",
"OX c #9BA5D6",
"+X c #9FACD2",
"@X c #A4A8C5",
"#X c #ABB1D1",
"$X c #AAB4DD",
"%X c #B1BADD",
"&X c #A6AEE1",
"*X c #B4BEE1",
"=X c #B4BDE8",
"-X c #B9C0D7",
";X c #BAC0D8",
":X c #BCC3E2",
">X c #BCC2E8",
",X c #D8CEC4",
"<X c #D0CFDA",
"1X c #C3C9E2",
"2X c #C0C9E4",
"3X c #C3CCEF",
"4X c #D5CFE1",
"5X c #CBD1EF",
"6X c #D2D6F0",
"7X c #D2DBF6",
"8X c #D9E0F6",
"9X c #E1E5F7",
"0X c #E1EAFD",
"qX c #E8EFFD",
"wX c #F0F4FE",
"eX c #F7F9FE",
"rX c white",
/* pixels */
"                                                                                                                                ",
"                                                                                                                                ",
"                                                                                                                                ",
"                                                                                                                                ",
"                                                                                                                                ",
"                                                                                                                                ",
"                                                                                                                                ",
"                                                                                                                                ",
"                                                                                                                                ",
"                                                            4 , % 4 7                                                           ",
"                                                        1.j.k.j.r.k.k.i.2                                                       ",
"                                                      y.k.3.u w.s.3 3.a.k.2                                                     ",
"                                                    6 a.,.j.4.k.k.i.i.u.,.i.                                                    ",
"                                                    i.,.k.s.s.k.k.k.e.k.u.a.6                                                   ",
"                                                  < i.3.s.k.s.k.k.k.<.k.k.d e.                                                  ",
"                                                  - d j.s.k.i.j.k.k.6 u.k.,.$.                                                  ",
"                                                  * #.k.p k.<.,.k.k.-.3 k.j.6                                                   ",
"                                                # #.s.,.* ,.; b w.k.,.* p 3.3.i                                                 ",
"                                                  3 p 1 h l z /.z - l ..- - - $                                                 ",
"                                                = g - + . . K /./.T.X . X 6 6 x                                                 ",
"                                                s > s.Q l.o k ].{.R k 6.r 2.&.                                                  ",
"                                              1 $.a e.E [..X|.{.{.,Xd.4Xb.s.a                                                   ",
"                                              >.t.a <.%.X._.].{.{.{.`.^.m #.t.                                                  ",
"                                            : t.t.t.4 t.& _ '.).~.{.R.M *.*.t.                                                  ",
"                                            =.t.t.2.y Z }.P G W } L j v M t.2.                                                  ",
"                                            t.t.t.d H Z.@XO.o.{ ] I 6Xm.{.n a                                                   ",
"                                            =.t.>.d V *XXX(.].{.Y.<XrXz.{._ 4                                                   ",
"                                            f p.d 7.eXrXrXH.v.n.;X0X0XD.'.'.O                                                   ",
"                                              i.8.eXrXrXrXrXqX7XeXrXeX7XN.{.F                                                   ",
"                                              5 oXrXrXrXrXrX5XrXrXrXrXeXZ.{.|                                                   ",
"                                              9.9XwXrXrXrX2X9XrXrXrXrXrXF.{.'.                                                  ",
"                                              c.0X9XrXrXwX7XqXrXwXqX>XeXC.{.{.                                                  ",
"                                              f.x. X5X5X$X0X&X3X=X$XS.OXB.{.{.W                                                 ",
"                                              ;.h.+X&X7XS.wX8X&X$XS.x.D.N.{.{.}                                                 ",
"                                                H N m.A.g.D.rX8X5X8X0.K.W {.{.R.                                                ",
"                                                o.T M.N.Y.{.N.w N.N.U.W.~ {.{.{.                                                ",
"                                                E.C.eXeX1XC.V.` {.Y.V.q.9 {.{.{.                                                ",
"                                              S E.:.V.V.D.9XeX:XJ.1XeX#XZ ].'.{.F                                               ",
"                                              o.[ } {.{.{.V.G.%X6X-XF.K.| L.].].H                                               ",
"                                              E.' L {.{.{.{.Y.5.B I.W.H _.) {.!.~                                               ",
"                                            C ^ ! S '.{.{.{.{.@ +.E.E. .H L {.' '                                               ",
"                                            x x     | {.{.{.{.W E.E.E.E.E.    D +.                                              ",
"                                                    F {.{.{.{.| E.E.E.E.P.                                                      ",
"                                                      R.{.{.{.Q.E.E.E.E.~                                                       ",
"                                                      W {.{.{.'.@.E.E.E.H                                                       ",
"                                                      e {.{.{.{.[ E.E.P.t                                                       ",
"                                                      A {.{.{.{.Y { @.G                                                         ",
"                                                      } {.{.{.'.Y ] U 0                                                         ",
"                                                      A {.{.{.| P.P.q                                                           ",
"                                                      8 ].{.{.} P.( 0                                                           ",
"                                                      0 R.{.{.} 8 0                                                             ",
"                                                        J {.{.}                                                                 ",
"                                                        q ].{./                                                                 ",
"                                                        0 J / c                                                                 ",
"                                                                                                                                ",
"                                                                                                                                ",
"                                                                                                                                ",
"                                                                                                                                ",
"                                                                                                                                ",
"                                                                                                                                ",
"                                                                                                                                ",
"                                                                                                                                ",
"                                                                                                                                ",
"                                                                                                                                "
};
