/* XPM */
static char *out[] = {
/* columns rows colors chars-per-pixel */
"64 64 212 2 ",
"   c None",
".  c black",
"X  c #11101A",
"o  c #321C1C",
"O  c #272127",
"+  c #382933",
"@  c #442428",
"#  c #45212D",
"$  c #442537",
"%  c #432C36",
"&  c #6D353F",
"*  c #262642",
"=  c #2F2640",
"-  c #282946",
";  c #2B2C4C",
":  c #362E4E",
">  c #2A2D50",
",  c #2C2F54",
"<  c #2F3258",
"1  c #2E335E",
"2  c #31355E",
"3  c #30345F",
"4  c #3A355C",
"5  c #313662",
"6  c #333762",
"7  c #373965",
"8  c #353B6A",
"9  c #353B6C",
"0  c #383D6C",
"q  c #353C70",
"w  c #373F74",
"e  c #383E70",
"r  c #393F71",
"t  c #432B44",
"y  c #492C45",
"u  c #483244",
"i  c #593345",
"p  c #453757",
"a  c #413258",
"s  c #523D55",
"d  c #5E3851",
"f  c #593B55",
"g  c #60394D",
"h  c #713B44",
"j  c #713F49",
"k  c #573F63",
"l  c #3A4074",
"z  c #3D4276",
"x  c #3A427A",
"c  c #3C437A",
"v  c #3C447E",
"b  c #494058",
"n  c #5E505F",
"m  c #784D4C",
"M  c #7A5244",
"N  c #684955",
"B  c #764B52",
"V  c #494968",
"C  c #4F4F7C",
"Z  c #5E4772",
"A  c #615D6F",
"S  c #735062",
"D  c #76536E",
"F  c #765F6C",
"G  c #645971",
"H  c #884950",
"J  c #8D565C",
"K  c #925555",
"L  c #995656",
"P  c #9A5957",
"I  c #9D625B",
"U  c #9E695F",
"Y  c #A6605E",
"T  c #855C6C",
"R  c #925B63",
"E  c #8C6862",
"W  c #9F7063",
"Q  c #9F7165",
"!  c #B46967",
"~  c #B16C64",
"^  c #AF7B69",
"/  c #A87D68",
"(  c #B27368",
")  c #BE766C",
"_  c #B37B6E",
"`  c #CB7173",
"'  c #C67D71",
"]  c #B68A78",
"[  c #C98372",
"{  c #D28075",
"}  c #DD8D7B",
"|  c #CB927C",
" . c #E08A7E",
".. c #3E4783",
"X. c #414884",
"o. c #4C4B87",
"O. c #414A88",
"+. c #434B88",
"@. c #434C8C",
"#. c #454E8D",
"$. c #5E5D89",
"%. c #454F90",
"&. c #454F92",
"*. c #475196",
"=. c #485091",
"-. c #485296",
";. c #485696",
":. c #4A549A",
">. c #4A549B",
",. c #715F82",
"<. c #5C628E",
"1. c #7B6E87",
"2. c #7F688B",
"3. c #6F6F96",
"4. c #676A99",
"5. c #6B6F9B",
"6. c #4C57A0",
"7. c #4E59A3",
"8. c #4E59A4",
"9. c #4F5AA5",
"0. c #515BA5",
"q. c #515CA9",
"w. c #535FAD",
"e. c #535FAE",
"r. c #5561B3",
"t. c #5864B8",
"y. c #7579A0",
"u. c #7678A6",
"i. c #747DAB",
"p. c #5C69C1",
"a. c #616FCB",
"s. c #7982AD",
"d. c #7C8DB5",
"f. c #7886B9",
"g. c #90809B",
"h. c #A08284",
"j. c #A2918E",
"k. c #A78B9D",
"l. c #AB9E9E",
"z. c #8487AD",
"x. c #9785A2",
"c. c #9592AA",
"v. c #838AB8",
"b. c #8290BD",
"n. c #9396B4",
"m. c #A298A2",
"M. c #A298AB",
"N. c #A4A1B1",
"B. c #A2A0B5",
"V. c #ABA6B2",
"C. c #A8A6B5",
"Z. c #C49F85",
"A. c #CC9F8D",
"S. c #D79E89",
"D. c #EA9783",
"F. c #EB9E87",
"G. c #CFB099",
"H. c #D0B89F",
"J. c #E0A389",
"K. c #E3A08C",
"L. c #E2AB8F",
"P. c #F5A489",
"I. c #F6AA8D",
"U. c #E5A892",
"Y. c #EFB597",
"T. c #F8B895",
"R. c #F8B997",
"E. c #F0BC9B",
"W. c #F9BF99",
"Q. c #E2BBB6",
"!. c #F9C09B",
"~. c #FAC29D",
"^. c #FAC79F",
"/. c #D6C6BE",
"(. c #F2C4A1",
"). c #F2C9A0",
"_. c #FBC8A1",
"`. c #FCCFA5",
"'. c #F8C1AA",
"]. c #FCD1A7",
"[. c #FDD7AB",
"{. c #FFE0B1",
"}. c #919DCB",
"|. c #9CA2CA",
" X c #9BA5D6",
".X c #ABAEC5",
"XX c #AEADCC",
"oX c #A3ACD5",
"OX c #A5AFDA",
"+X c #AAB4DD",
"@X c #A8B6DC",
"#X c #A6AEE1",
"$X c #B4BEE1",
"%X c #B4BDE8",
"&X c #D4BFC8",
"*X c #B9C0DD",
"=X c #BCC3E2",
"-X c #C9CAD9",
";X c #C3C9E2",
":X c #C3CDE8",
">X c #C3CCEF",
",X c #C8CEEA",
"<X c #CFD8EB",
"1X c #D2D8E9",
"2X c #D9DDEA",
"3X c #D2DBF6",
"4X c #D9E0F6",
"5X c #E1E5F7",
"6X c #E1EAFD",
"7X c #F0F4FE",
"8X c #F7F9FE",
"9X c white",
/* pixels */
"                                                                                                                                ",
"                                                                                                                                ",
"                                                                                                                                ",
"                                                                                                                                ",
"                                                                                                                                ",
"                                                                                                                                ",
"                                                                                                                                ",
"                                                                                                                                ",
"                                                                                                                                ",
"                                                          +.t.8.l t.w.r                                                         ",
"                                                      7 a.a.0.q.e.#.a.a.0.                                                      ",
"                                                    ; a.>.&...p.a.*.&.&.r.=.                                                    ",
"                                                    *.>.p.p.w.a.a.p.7.a.&.p.3                                                   ",
"                                                    t.&.p.p.t.a.a.a.7.a.p.&.*.                                                  ",
"                                                  < *.q.t.a.t.a.a.a.v p.a.v :.                                                  ",
"                                                  < e a.6.a.7.6.a.a.z &.a.q.8                                                   ",
"                                                * X.p.p.1 p.x A p.a.>.> q.a.q.z                                                 ",
"                                                  9 &.q - q n Z.9 7.x / 5 w w =                                                 ",
"                                                  E , s M X F.W.W.E % M m - - U                                                 ",
"                                                  4 %.u + . o ^.`.^ . O @ @.O.:                                                 ",
"                                                  c p.G Q.;.f.{.{.C.3.@XJ.7.>.0                                                 ",
"                                                  9.=.:.R.&X/.{.{.{.XX'.| 7.0 c                                                 ",
"                                                6 9.-.6 S ].{.{.{.{.{.| o.2 2 :.                                                ",
"                                                0 9.9.Z V j _ Y.Y.L.Y b N Z 9.9.                                                ",
"                                                0 9.F ~.u.T  .H H ! { u.h.].F 9.                                                ",
"                                                0 Z ].H.2Xh.S.Y.U.Y.L.B.V.{.].Z                                                 ",
"                                                0 Q {.j.3XN.`.E.).`.G.:Xz.{.{.Q                                                 ",
"                                                : L.{.c.3X:XA.T.' W.M.6XOXH.{.L.                                                ",
"                                                k {.H.$X8X9X1X1.k.y.9X9X8Xc.{.{.                                                ",
"                                              6 Q {.l.7X9X9X9X>X5X5X9X9X9X*XH.{.Q                                               ",
"                                                L.{.z.9X9X9X9X8X=X9X9X9X9X7Xj.{.L.                                              ",
"                                              P {.{.n.9X9X9X9X8X4X9X9X9X9X4Xj.{.{.P                                             ",
"                                              L.{.{.g.7X9X9X9X5X,X5X7X7X7X%Xh.{.{.L.                                            ",
"                                            P {.{.].i oX7X7X4X Xd.#X%X7X+Xs.i ].{.{.P                                           ",
"                                            L.{.{._ p 4.<X<X#Xi.D i. X}.i.4.$._ {.{.L.                                          ",
"                                          P {.{.].g |..X<.5.4.H.! H.C z.-X=X,.  ].{.{.P                                         ",
"                                          L.{.{._   m..X5X9X5X.XB.;X7X=Xc.j.].  _ {.{.L.                                        ",
"                                        [ ].{.{.    {.{.j.c.=X8X4X5Xx.H.{.{.{.    {.{.].[                                       ",
"                                      K } D.{ P.    {.{.{.{.H.v.b.2.(.{.{.{.{.    P.{ D.} K                                     ",
"                                      h } ~ } )     ].{.{.{.{.H.f {.{.{.{.{.].    ) } ~ } h                                     ",
"                                            I       ] {.{.{.{.{.L {.{.{.{.{.]       I                                           ",
"                                                    P {.{.{.{.{.U.{.{.{.{.{.P                                                   ",
"                                                      {.{.{.{.{.U.{.{.{.{.].                                                    ",
"                                                      ].{.{.{.{.K.{.{.{.{._                                                     ",
"                                                      ] {.{.{.{.L !.{.[.I.                                                      ",
"                                                      R {.{.{.{.& P.P.P.P.y                                                     ",
"                                                      t ].{.{.{.# P.P.P.P.t                                                     ",
"                                                        ( [.{._.# D.P.P.~                                                       ",
"                                                        I I.R.P.# ` D.P.d                                                       ",
"                                                        J I.~.I.# D.P.~                                                         ",
"                                                        t [.{.[.$ I I a                                                         ",
"                                                        t _.{._.t                                                               ",
"                                                          B W B                                                                 ",
"                                                                                                                                ",
"                                                                                                                                ",
"                                                                                                                                ",
"                                                                                                                                ",
"                                                                                                                                ",
"                                                                                                                                ",
"                                                                                                                                ",
"                                                                                                                                ",
"                                                                                                                                ",
"                                                                                                                                ",
"                                                                                                                                "
};
