/* XPM */
static char *out[] = {
/* columns rows colors chars-per-pixel */
"64 64 210 2 ",
"   c #181419",
".  c #26191A",
"X  c #241F28",
"o  c #3C2D2F",
"O  c #492D2A",
"+  c #4E3636",
"@  c #5B3239",
"#  c #623B3C",
"$  c #33354B",
"%  c #39354C",
"&  c #3A3D4D",
"*  c #2D2F53",
"=  c #2D3155",
"-  c #353559",
";  c #363A5E",
":  c #373B62",
">  c #373A64",
",  c #363B6B",
"<  c #393E71",
"1  c #473C4A",
"2  c #573E46",
"3  c #553D4B",
"4  c #443A56",
"5  c #543E54",
"6  c #6A3F42",
"7  c #433E63",
"8  c #3D4253",
"9  c #3F4459",
"0  c #3F4566",
"q  c #394075",
"w  c #3D447C",
"e  c #4C424C",
"r  c #59444B",
"t  c #434554",
"y  c #454B56",
"u  c #4D4B55",
"i  c #484559",
"p  c #464D59",
"a  c #494F5A",
"s  c #564755",
"d  c #524D54",
"f  c #5B4D5B",
"g  c #4C535F",
"h  c #5B5259",
"j  c #67464D",
"k  c #73494A",
"l  c #644D52",
"z  c #694A55",
"x  c #754C51",
"c  c #6D545D",
"v  c #7A5658",
"b  c #434665",
"n  c #454966",
"m  c #494866",
"M  c #464A69",
"N  c #494D6C",
"B  c #4D5561",
"V  c #4D536B",
"C  c #505764",
"Z  c #515964",
"A  c #53556A",
"S  c #555D68",
"D  c #474976",
"F  c #534B75",
"G  c #4D5271",
"H  c #525573",
"J  c #56537B",
"K  c #6D536D",
"L  c #745967",
"P  c #7E6273",
"I  c #804D57",
"U  c #835A5A",
"Y  c #8A5C5B",
"T  c #965B5A",
"R  c #A0565C",
"E  c #88635C",
"W  c #93605E",
"Q  c #845E6B",
"!  c #8A6762",
"~  c #976965",
"^  c #9C746B",
"/  c #8E7476",
"(  c #A86965",
")  c #B06A65",
"_  c #A4766B",
"`  c #AA796C",
"'  c #B7756B",
"]  c #B17D76",
"[  c #C27A6E",
"{  c #C87E71",
"}  c #A88676",
"|  c #B98C79",
" . c #BE937E",
".. c #C98576",
"X. c #D48879",
"o. c #D1987E",
"O. c #E3957F",
"+. c #3E4785",
"@. c #444983",
"#. c #434A84",
"$. c #434C8B",
"%. c #504D89",
"&. c #4C518B",
"*. c #565786",
"=. c #454F91",
"-. c #465194",
";. c #4A5295",
":. c #4A559C",
">. c #5D6390",
",. c #67638A",
"<. c #736886",
"1. c #6F6D98",
"2. c #6D739C",
"3. c #7A7898",
"4. c #4E59A3",
"5. c #4E5AA8",
"6. c #505BA6",
"7. c #525EAC",
"8. c #5663B5",
"9. c #5664B9",
"0. c #5966BB",
"q. c #5B68BE",
"w. c #757AA5",
"e. c #5D6AC3",
"r. c #5F6DC8",
"t. c #606ECA",
"y. c #6270CD",
"u. c #8B7991",
"i. c #817EA4",
"p. c #7F86A8",
"a. c #998A8F",
"s. c #958795",
"d. c #AF9290",
"f. c #B8A186",
"g. c #B7A899",
"h. c #8889A9",
"j. c #8D8DAD",
"k. c #9893A4",
"l. c #9898B6",
"z. c #A39BA5",
"x. c #B4AAAD",
"c. c #A7A5BB",
"v. c #C59983",
"b. c #D99984",
"n. c #E69984",
"m. c #F09F86",
"M. c #C9A589",
"N. c #D5A68A",
"B. c #DDAA8C",
"V. c #C5A898",
"C. c #D3AB96",
"Z. c #D9AE92",
"A. c #CAB59B",
"S. c #DEB798",
"D. c #E7A88D",
"F. c #F2A187",
"G. c #F4A489",
"H. c #F6AB8D",
"J. c #E8B18F",
"K. c #E5AC93",
"L. c #E8B796",
"P. c #F6B694",
"I. c #F5BD99",
"U. c #D4AFAA",
"Y. c #CBBAA1",
"T. c #D5BFA4",
"R. c #E8C49E",
"E. c #EAC49E",
"W. c #F7C59D",
"Q. c #DAC5A6",
"!. c #CCC4B4",
"~. c #ECCBA3",
"^. c #E9CBA6",
"/. c #F5CCA4",
"(. c #EBD3AA",
"). c #F8D2A7",
"_. c #F5D5AA",
"`. c #FAD4A9",
"'. c #F5DBAE",
"]. c #FBDCAE",
"[. c #EBCABF",
"{. c #F4DEB1",
"}. c #FDDFB0",
"|. c #F3E2B2",
" X c #FDE1B1",
".X c #8994C5",
"XX c #969DC8",
"oX c #9FA9D9",
"OX c #A6A9C5",
"+X c #ACB5D9",
"@X c #B0B6D3",
"#X c #ABB5E2",
"$X c #B4BDE4",
"%X c #CABECD",
"&X c #BDC0D6",
"*X c #BEC4DD",
"=X c #BBC4E2",
"-X c #C6C9DB",
";X c #CBCFE8",
":X c #CAD1EB",
">X c #D6D8E7",
",X c #CED5F0",
"<X c #D4DCF3",
"1X c #DDE3F5",
"2X c #E1E2ED",
"3X c #E9EDF8",
"4X c #EFF3FA",
"5X c #F2F5FC",
"6X c #F6F9FD",
"7X c #FDFDFE",
/* pixels */
"B Z g y g g S Z g Z g g S Z g a B B B B B S B g g B B y p B g B B g Z Z g g S Z B Z B g p a p y g p p g B B B B g y g S C g B S ",
"B C g g g Z g g g Z g g B g g g g g B g B Z B g B g g g g g g g g g a a S g g g Z Z Z B B B g g B g g g B B B g g g y g g g p B ",
"g g C g g Z g g g g g g a g g g p g B B g B g g B B B B g p 8 8 & 8 8 a g g g g B Z B g B B g g B g g B B B g g g g g g g g g g ",
"g g C B g g g g g a g g a g g g p g B B g g p g B B g p 0 D #.q = w +.w y g g Z B B p g g g B g B g g g B g B g g g g g B B g B ",
"B g g B g g g Z Z g g g g g g g g B B B B p B B B p y &.8.r.e.8.:.e.t.e.6.M B B B B y g B B g g B g p p g g g g B S g g B Z Z C ",
"B g Z Z g y g Z Z g g g g g g S B B B B B B B B g 9 ;.y.8.4.w 4.8.$.$.7.q.q.w y p B B g B B g B y g g B g g y p g g g g g B B Z ",
"y g C Z g g g g g g g y g g g g B p p B B Z B y 8 w q.:.;.:.-.e.t.8.#.:.-.7.8.; p B g g B B g g g g B g g B g p g g g g g C Z B ",
"g C C C C g g Z Z g g g g g g Z B p g g g B B y ; 5.:.7.q.r.7.r.r.r.:.q.q.-.7.$.8 g B B B g g g B B g g p B g g g g g a g g C Z ",
"g Z g Z g Z g Z g g g g g g Z Z B g B B B B g p #.7.-.t.9.r.9.r.r.t.4.0.y.9.-.7.b n B g B B B B Z g Z g g g Z g g g Z g g g g Z ",
"g Z g g g S g g g Z S g g g g g g g B g B Z g 8 :.-.:.9.q.r.9.r.t.t.:.7.t.t.$.4.D b g g B B B g g Z g g g g Z Z g g Z S g g g g ",
"g Z g g g g g Z Z g g g g g a g g B p p B g g $ $.#.9.9.e.e.7.r.r.y.:.w 9.t.5.+., 8 g g g B B B Z g g g g g Z g g g g g g g g B ",
"g S Z g g S g g g g g g g g g g g g g g B Z y $ : ;.r.:.9.r.+.-.r.r.q.: =.t.e.< = & g g g B g g g g g g g Z g g g g g S Z g g B ",
"Z Z g g a g g g g g S g g g g g Z B B B g B $ > :.e.9., 4.7.G G 9.y.r., - 5.e.9.$.: & g g g p B g Z g g a g g g p a g Z g B Z Z ",
"g g g g a g g g g g Z Z g Z g Z B Z B B g g & < 7.:.w * > q / / w 9.7.N f , $.$.$.: i g g g p B g Z g g g g Z g g g g g g B g B ",
"g g Z g g g p g g Z g S g g g Z B Z B B g g e j = , 7 v % f B.J./ A 4 f o.x = = u 2 d g a g B g B g g g g g Z g g g B g g g g B ",
"Z S Z g g g g g a a g g Z Z g g B B B B g g d k - = o O   + b.W.W.N.T . o O % < f j g C p p g B Z B g g g S Z g g g g g Z Z g g ",
"Z g Z Z Z g g g g g g Z g Z Z g B Z Z g g g 8 8 w #.3 2 X . v E.).M.+   1 6 7 4.w $ B B B g B B Z B g g p g g Z Z g Z g g Z g 9 ",
"Z g g g S g 9 g B g g g g B B B Z Z B g g y 8 0 :.8.P U.w.>.k.'. X!.h.;.l.K.1.0.-.0 9 B B B g B B g g g g g Z B B B g g g B g g ",
"g g g Z Z g g g g g B g g g g B Z g g B B g 8 w @.7.*.L.%X.X-X]. X|.OXXX[.H.,.0.w : B B B B B B B g g g g B Z B g B g a g g g B ",
"g g g g B g g B g g g g B B g g g g Z g g 9 9 :.$.:.&.] ~.^.`.].}. X_./.K.Q 7 @.q w 8 g B B B g g g B B g g g g B Z g a a g g g ",
"B p B Z Z g Z B B g 8 g B B g g g g g g B 9 9 5.6.$.> 4 ] L.`././._._.Z.Y D @.- +.-.$ g B B B g g g B Z g g B g g g Z g g g g p ",
"B g g B g B Z B B g B B B B g g p g g g g g 9 5.7.%.K F s ) | b.N.b.' T m L Q %.4.;.$ g B B Z B p g B g g S Z Z Z g S B g g g g ",
"B g g g B B g g g g 8 g g g g g g g g g g g 0 5.%./ v.i.<.[ ' T T T { ( 2.u.L.f.*.;.$ g Z Z B B g g g g g B B B g g Z g g g g B ",
"g Z B g Z g g g B g g g B g B B g B g g g 9 q +.~ (.Q.@Xu...b.n.X.b.b.] j.x.(.].} D $ g Z B g g g g B g g B g g g B Z g Z Z g B ",
"B Z B Z Z g g g g g B B g g g B g Z g g g g ; J B.{.d.:Xc.^.`.].`.`.`.U.@Xl.Y. XR.c 8 B B B g g g B B g g Z a g g B Z g B B B B ",
"g g B Z g g 9 g B g B B a g g g g g g g g n ; P ^.'.z.=X-Xd.W.D.B.P.I.z.<Xj.T. X|.! o g g B B B B g g B B Z a g g g B B B g g g ",
"B y a g g g g g B g B B g g g g Z g g g B a % } {.Q.l.,X2Xc.C.D.[ K.g.&X3X$Xz.}. Xo.+ g g B Z B B B B g B g g B g g Z B g B g 8 ",
"B g B B Z g Z B g B Z B g B g Z g g g Z Z n 5 M.|.g.=X5X6X3Xl.a.d.u.&X6X6X5XOXT. X~.l y B B B B Z g g B Z B g g Z Z g 9 a B B B ",
"g B B B Z B Z Z B B B g g g g Z B g g g y 9 L ).'.h.3X7X7X7X>X+X;X@X4X7X7X7X:Xk.'.'.} y B B B g g B g B B B Z Z g B g B B g g B ",
"B Z B B Z Z Z B g a B g B B g B g g g g p $ ^  XA.OX6X7X7X7X6X<X=X3X7X7X7X7X4Xl.Q.|.| r B B B B B B g g g B Z B g B g Z B B B B ",
"g B B g g Z B g a a B B B B g B g a g g B j Z. Xa.;X7X7X7X7X7X5X:X7X7X7X7X7X4Xc.Y. XR.v a B g B B B a 9 B B B B g B B g B B Z B ",
"B g g B Z B S Z B Z B B B g B Z g g Z Z y _ _. Xa.-X7X7X7X7X7X3X,X6X7X7X6X7X4Xj.A.|.|. .h g g B B g B B B Z g g g B B B g g g B ",
"g g g g g g g g g Z g g g a a Z g S B g l Z. X Xg.OX6X7X7X7X6X1X;X<X5X5X5X4X,Xh.A.}.}.E.v g B g B g g g g g y g g g B g g g B B ",
"g g Z g g g Z Z g g g Z Z g g g g g g u ^ _.}. X..<.:X4X5X6X<X$XOXoX$X<X4X:XoX>._ _.}.}.| f B y g C B g g g g g g g g Z Z B g g ",
"Z g g a g g g g g g g g Z g g g g g a l N. X XE.v 4 .X3X5X,X#Xh.2..XoX#X+XXX2.7 j L. X].W.v a p g B B g B C g g g g B Z C B g B ",
"g g a g g Z g g g g g g g g Z g Z g d ~ _. X{. .f J >.OX=XoX.X3.v u.j.h.w.w.l.XXF ` ]. X}. .s g B B B g g C B B B B g g g g g B ",
"g g Z S g g g a g g g y g g S S Z g l J. X}.E.U ,.-X@X3.2.3.3.V.) C.<.w.OX-X$Xh.c l S.].].R.U u S B g g g g g g g B g g g g B B ",
"Z g g g g S Z g g g g g g g g g g u _ ].}.{. .r L c.-X-X>X2X*Xc.k.OX:X>X=XOXs.g.| d _ ].].'. .h g g B C B g B B g g y g g g g B ",
"g Z g g g g g g g g g g g a y g u Y L.}.}.W.E 8 } g.g.k.c.-X3X6X4X6X>Xz.z.Q. X Xf.d c S. X XR.W d B B B g B B g g g g g g B Z g ",
"g g g g g g S g g S g g Z g a a v O.n.I.J.D.r t } |.|.(.Q.x.l.=X+X+Xu.Z.'. X}.|.f.d d | J.P.D.F.W e g B g B g B Z g g Z Z B g B ",
"Z g g g g B Z B g Z g g Z g g d T X.O.O...X.r 1 } '.'.}.}.|.A.p.2.u.C.}.}.}.}.}.f.d d ` ..X.O...' 1 g g g g g B B g B Z Z g g g ",
"g g g g 9 g g g g g g g g Z g a j [ ( ' O.W e t ^ _.}.}. X}. XV.z A. X}.}.}.].}.} d u I O...( [ I u g g p g g g Z g B g g Z Z Z ",
"y g Z g g g g g g Z Z g g S S g e j e v E d Z g j R. X X].]. X~.T E.}.}.}.}.{.(.E g g d Y W e r e d g g g g g Z Z g g g g g B S ",
"g g g g B g Z Z g g S Z g g g Z g a g g d g g g r v. X]. X X X).b.}.}.}.}.}.}.S.l g Z B u u g g g g Z g g g g g g g g Z Z g g B ",
"B g B B g g B B g g g g y g Z g g g g g B g p p p !  X X}.}. X).D.}.}.}.}.}.{.| u g B g g g g g g g g g g g g p g Z g Z g Z Z g ",
"B B B B g a g B g a g g a g g g a g Z C B C g p g v  X X X}. X).D.}.}.}.}.}._.! t g C B g g g B g g Z g g g Z g g Z g g g g Z g ",
"B g B g g y g g a y g g g g g g a g C C g S g g g v /.}.}.}. X).b.}.}.}.}.}.b.r g B Z B B B B g g g g g g Z g Z g g g g g g g g ",
"B B g g g B B g g a g Z g Z Z g g g g g g g g g B h v. X}.}. X~.( K.`.}.`.P.T p B C B B Z C g g y g Z g Z g g g g B g g g g g p ",
"Z g a p g Z B B g g B B g B Z B B B B B B B g g g u ^ {. X]. X~.k X.H.P.H.G.k B g B B B B B B B g g Z S g g Z g Z g g S g g g g ",
"B g g g B B B B g B Z Z B B B g B B B B g B g V n n c ~. X]. X~.# ..G.F.G.G.x m V V B Z B B B Z g g g g g Z g g g g g g Z Z g g ",
"B B g g g g B B g B B B B B g B B B B B B V n V M b s N.]. X XR.# ' G.G.G.n.z m M N V V B B B B g g g g g g g g g g Z g Z g g g ",
"B Z B B B g B B B g B g B B B g p B B B H V 0 M M n b ~ W.].].J.@ ) F.G.G.) m M M M N 0 V V a B g Z g g g g Z g g g g Z g Z g g ",
"B B B B Z B g Z Z g B g B B B g p B B G V M M n n M 4 Y G.I.P.n.@ R X.m.n.z n M M M M M N N p B g S Z g g g S g g g Z g g g g g ",
"B B B B B B g g g 8 g B B B B B Z B V V b M M N M M b Y m.H.H.O.@ ) O.m.' i M N n M M M N 0 M B g g g Z S g S Z g g g g g Z S Z ",
"Z B g B g y g B g g B Z B Z Z B Z B N N N N M M N N M 5 v.`.].D.@ ' n.X.l M M N N N M N N M 0 B Z g g g g g Z g g Z S g g g g g ",
"B B B g g a g B Z g B Z B B Z g B B M 0 N b M M M M M % M.}.}.E.3 s j 3 0 M M M n M M M N 0 N B g g g g g g g Z Z g Z Z g g g g ",
"g g Z B g g g Z Z g Z g g Z Z g g g M M M M M M M b b 4 |  X XN.3 M b M M M M M M M M M M M M B g g B g g B g Z Z g g Z g g g B ",
"B g Z Z g y g Z g g Z g g g g g g p N n M M M M b b b M l _ ` c b M M M N M m M M M M M M M V 9 g g B Z g Z g B g g g Z g g g B ",
"Z B B g g g S B g g Z g g g g 8 g B B G M M M M N M M N b 4 4 b M M M M M M b b M M N G M V V B B g Z g g B Z Z S g g g g g g B ",
"g Z Z Z S B g g g Z S g g B g g g B B V G M M M N M M M M N D M M M M b b b M M N N 0 0 G H B B B g g g g g 9 g g g B Z g g Z S ",
"B B Z Z Z y g B B g B g B g Z B g g g B B G N b M M N M M M M M M M M M b M M M V 0 N V Z B B Z B g g g g g g g g g g S B g Z Z ",
"g g B g g a g g B g g B B Z B Z g B B Z B B V V M M N M M M M M M M M M M M M M 0 V B B g g B Z B B B g g B g g g Z g Z Z Z Z g ",
"g g Z Z g g g g B g g Z Z Z g g B g Z Z Z B B B B V n n M M M M M M M M N M n N B B g g g g B B Z B g B Z S g g Z Z g g Z Z g Z ",
"B g Z Z g B B Z Z B g Z B Z Z B S B B B g 9 B Z B Z g B V B V B B V B B V B y g g B g g g g 9 B g B B g B B g g Z S g g g Z S S "
};
