/* XPM */
static char *out[] = {
/* columns rows colors chars-per-pixel */
"64 64 219 2 ",
"   c None",
".  c black",
"X  c #11101A",
"o  c #321C1C",
"O  c #261E33",
"+  c #272127",
"@  c #39202F",
"#  c #382933",
"$  c #45312F",
"%  c #432C36",
"&  c #472A39",
"*  c #6D353F",
"=  c #272847",
"-  c #282946",
";  c #2B2C4C",
":  c #2A2D50",
">  c #2C2F54",
",  c #2F3258",
"<  c #31355E",
"1  c #30345F",
"2  c #3A355C",
"3  c #333866",
"4  c #373965",
"5  c #353B6A",
"6  c #353B6C",
"7  c #383D6C",
"8  c #373F74",
"9  c #383E70",
"0  c #393F71",
"q  c #432B44",
"w  c #492C45",
"e  c #483244",
"r  c #413258",
"t  c #523955",
"y  c #5E3851",
"u  c #593B55",
"i  c #4A3D69",
"p  c #3A4074",
"a  c #3D4276",
"s  c #394178",
"d  c #3A427A",
"f  c #3C437A",
"g  c #3C447E",
"h  c #3F467E",
"j  c #564149",
"k  c #5C4E5B",
"l  c #684145",
"z  c #7F4C4B",
"x  c #7C4B4E",
"c  c #7A5244",
"v  c #6E4A57",
"b  c #775356",
"n  c #534C6E",
"m  c #454378",
"M  c #735062",
"N  c #745666",
"B  c #854C4D",
"V  c #884950",
"C  c #815559",
"Z  c #85545C",
"A  c #8D565C",
"S  c #825C5D",
"D  c #925555",
"F  c #9A5957",
"G  c #9C5359",
"H  c #9D625B",
"J  c #A6605E",
"K  c #805D74",
"L  c #9D6A6A",
"P  c #8F776C",
"I  c #9F7165",
"U  c #886B76",
"Y  c #917674",
"T  c #95757F",
"R  c #9D737A",
"E  c #B46967",
"W  c #B16C64",
"Q  c #BA6A67",
"!  c #A07869",
"~  c #AF7B69",
"^  c #BE766C",
"/  c #B37B6E",
"(  c #B17573",
")  c #C5776D",
"_  c #A2806F",
"`  c #B68A78",
"'  c #C78677",
"]  c #C98372",
"[  c #D28075",
"{  c #D38779",
"}  c #DD8D7B",
"|  c #CB927C",
" . c #E08A7E",
".. c #3E4782",
"X. c #3E4783",
"o. c #414884",
"O. c #4C4B87",
"+. c #414A88",
"@. c #434B88",
"#. c #454E8D",
"$. c #51558A",
"%. c #585D8C",
"&. c #454F92",
"*. c #475196",
"=. c #485091",
"-. c #485696",
";. c #4A549A",
":. c #4A549B",
">. c #5C628E",
",. c #7D778D",
"<. c #6F6F96",
"1. c #676A99",
"2. c #616A9C",
"3. c #6F729E",
"4. c #4E59A3",
"5. c #4E59A4",
"6. c #4F5AA5",
"7. c #515BA5",
"8. c #515CA9",
"9. c #535FAD",
"0. c #535FAE",
"q. c #5561B3",
"w. c #5864B8",
"e. c #6A78AC",
"r. c #6E7DAE",
"t. c #7678A6",
"y. c #5C69C1",
"u. c #616FCB",
"i. c #806E89",
"p. c #7982AD",
"a. c #7382B0",
"s. c #7F85B6",
"d. c #7C8DB5",
"f. c #7886B9",
"g. c #9B838C",
"h. c #998B9B",
"j. c #A08284",
"k. c #A6808A",
"l. c #B48A81",
"z. c #A2918E",
"x. c #B69387",
"c. c #A98F94",
"v. c #AB9E9E",
"b. c #8487AD",
"n. c #9283A0",
"m. c #9592AA",
"M. c #8290BD",
"N. c #8D94BD",
"B. c #9B90B0",
"V. c #9B9BB5",
"C. c #9599BE",
"Z. c #A8A6B5",
"A. c #C18D86",
"S. c #CA9581",
"D. c #CC9F8D",
"F. c #D79E89",
"G. c #C39C90",
"H. c #EA9783",
"J. c #CEA995",
"K. c #D0B090",
"L. c #D0B89F",
"P. c #E0A389",
"I. c #E2AB8F",
"U. c #F5A489",
"Y. c #F6AA8D",
"T. c #E5A892",
"R. c #E3B293",
"E. c #EFB597",
"W. c #E4BF97",
"Q. c #F8B895",
"!. c #F8B997",
"~. c #F9BF99",
"^. c #E2BBB6",
"/. c #F9C09B",
"(. c #FAC29D",
"). c #FAC79F",
"_. c #D6C6BE",
"`. c #F2C4A1",
"'. c #FBC8A1",
"]. c #FCCFA5",
"[. c #F8C1AA",
"{. c #FCD1A7",
"}. c #FDD7AB",
"|. c #FFE0B1",
" X c #8794C0",
".X c #8695C0",
"XX c #8893C6",
"oX c #8C98C8",
"OX c #919DCB",
"+X c #97A0D3",
"@X c #9FACD2",
"#X c #A4A8C5",
"$X c #ADAEC1",
"%X c #ABAEC5",
"&X c #A4A7CB",
"*X c #AEADCC",
"=X c #A5AFDA",
"-X c #ABB1D1",
";X c #AAB4DD",
":X c #A8B6DC",
">X c #B1BBD7",
",X c #B4BEE1",
"<X c #B4BDE8",
"1X c #D4BFC8",
"2X c #C1C5D9",
"3X c #C9CAD9",
"4X c #C8CEE5",
"5X c #C3CCEF",
"6X c #CAD2E9",
"7X c #CBD1EF",
"8X c #D9DDEA",
"9X c #D2DBF6",
"0X c #D9E0F6",
"qX c #E1E5F7",
"wX c #E1EAFD",
"eX c #E8EFFD",
"rX c #F0F4FE",
"tX c #F7F9FE",
"yX c white",
/* pixels */
"                                                                                                                                ",
"                                                                                                                                ",
"                                                                                                                                ",
"                                                                                                                                ",
"                                                                                                                                ",
"                                                                                                                                ",
"                                                                                                                                ",
"                                                                                                                                ",
"                                                                                                                                ",
"                                                      0 9.w.p 5.w.@.                                                            ",
"                                                    7.u.u.#.0.8.7.u.u.4                                                         ",
"                                                  =.q.&.:.&.u.y.g &.:.u.;                                                       ",
"                                                1 y.&.y.u.9.u.u.;.u.y.:.*.                                                      ",
"                                                *.&.y.w.u.w.u.u.4.u.u.&.w.                                                      ",
"                                                ;.g u.w.u.w.u.u.:.5.u.8.*.,                                                     ",
"                                                5 8.y.8.u...y.u.y.: y.u.8.-                                                     ",
"                                                o.u.&.o.8.: &.u.u.: X.y.u.8.a                                                   ",
"                                              : &.d s : 8 P Y o.4.d k 3 8 8 =                                                   ",
"                                              l - > % $ % Q.~.~.C X c S , j @                                                   ",
"                                                > h O + . ~ ].).o . # e ;.6 ,                                                   ",
"                                                +.u.K :X<.Z.|.|.f.-.^.P.4.:.9                                                   ",
"                                                @.8.g.[.*X|.|.|._.1X!.M 4.f ;.                                                  ",
"                                                6.7 2 | |.|.|.|.|.{.M 6.< @.6.1                                                 ",
"                                                6.6.O.t x I.E.E./ & i O.6.6.6.f                                                 ",
"                                                6.N R.R s.E V V  .n.%Xl.v 6.6.;.                                                ",
"                                                m I.}.c.yXU T.E.F.x.3XB.( O.6.6.                                                ",
"                                                & |.G.-XwX$XG.W.].D.6XrX2X3.6.6.                                                ",
"                                                I L.&XrXrXrX6Xi.h.8XyXyXyX0X$.h                                                 ",
"                                                I.m.yXyXyXyXyXqXtXyXyXyXyXrXt.                                                  ",
"                                                L.>XyXyXyXyXyXtXtXyXyXyXrX0Xt.                                                  ",
"                                                z.@XqX0XeXrXyXtX7XtXtXyX0X=X>.                                                  ",
"                                              I z.OXoX+XwX<X5X;XqX0XqX7X.X.X%.                                                  ",
"                                              ` z.e.+Xr.d.;X<XtX<X5X<XXXa.2.Z                                                   ",
"                                              {.|.,.1. XtX9XtXqX9X#Xk.R R ( H.                                                  ",
"                                              |.|.{.H L.z.z.z.u z.|.v.b.b.n U.J                                                 ",
"                                            I |.|.z.b.V.m.z.|.{ v.N.qXyXyX4XR H.                                                ",
"                                            I.|.|.j.C.qXyXqX%X%XqX,Xm.z.z.z.L U.^                                               ",
"                                          F |.|.|.W |.v.N.qXyXqX2XA.|.|.|.|.D ) U.^                                             ",
"                                          I.`.`.|.H }.|.|.c.p.M.T |.|.|.|.|.D [ ) [                                             ",
"                                        ] ' |.S.K.^ (.|.|.|.J.u |.|.|.|.|.I.W Q U.) H                                           ",
"                                        H W | F z W !.|.|.|.'.* |.|.|.|.|.I       B z                                           ",
"                                                  F U.}.|.|.|.I |.|.|.|.|.                                                      ",
"                                                    U.!.|.|./.F.|.|.|.|.I.                                                      ",
"                                                    W U.!.!.U.T.|.|.|.|.F                                                       ",
"                                                    F U.U.U.U.T.|.|.|.I.                                                        ",
"                                                    w U.U.U.U.F.|.|.|._                                                         ",
"                                                      W U.U.} I.|.|.|._                                                         ",
"                                                      y  .U.D |.|.|.|.A                                                         ",
"                                                        G  .V |.|.|.{.q                                                         ",
"                                                        H U.H |.|.|.`                                                           ",
"                                                        b ! J U.Y.'.A                                                           ",
"                                                            I }./.] r                                                           ",
"                                                            b _ I r                                                             ",
"                                                                                                                                ",
"                                                                                                                                ",
"                                                                                                                                ",
"                                                                                                                                ",
"                                                                                                                                ",
"                                                                                                                                ",
"                                                                                                                                ",
"                                                                                                                                ",
"                                                                                                                                ",
"                                                                                                                                ",
"                                                                                                                                "
};
