/* XPM */
static char *out[] = {
/* columns rows colors chars-per-pixel */
"64 64 218 2 ",
"   c #120B0C",
".  c #251D24",
"X  c #2C202D",
"o  c #362428",
"O  c #46333F",
"+  c #68403B",
"@  c #2F2E4A",
"#  c #34344B",
"$  c #383748",
"%  c #35384B",
"&  c #2A2F5B",
"*  c #2C315A",
"=  c #353757",
"-  c #3B3B5A",
";  c #2D3260",
":  c #363963",
">  c #353B6B",
",  c #393E6A",
"<  c #393E70",
"1  c #493848",
"2  c #473C56",
"3  c #573F57",
"4  c #3D404B",
"5  c #3F445A",
"6  c #3E4364",
"7  c #3C436B",
"8  c #3D4372",
"9  c #3D447C",
"0  c #4B434E",
"q  c #55444C",
"w  c #424652",
"e  c #4D4452",
"r  c #454B56",
"t  c #4B4A55",
"y  c #40455C",
"u  c #4A435D",
"i  c #464D59",
"p  c #494F5A",
"a  c #544B54",
"s  c #564956",
"d  c #4C545F",
"f  c #51535D",
"g  c #67474C",
"h  c #754A48",
"j  c #664955",
"k  c #754C52",
"l  c #6D5255",
"z  c #655259",
"x  c #7B5657",
"c  c #7E615D",
"v  c #434665",
"b  c #454667",
"n  c #454967",
"m  c #494E65",
"M  c #464A69",
"N  c #494D6C",
"B  c #574668",
"V  c #4D5561",
"C  c #4D536B",
"Z  c #505763",
"A  c #515964",
"S  c #555D68",
"D  c #464978",
"F  c #584B75",
"G  c #4E5373",
"H  c #6A566A",
"J  c #74606D",
"K  c #77697C",
"L  c #8C4E52",
"P  c #875959",
"I  c #935A5A",
"U  c #A35D5C",
"Y  c #8A655E",
"T  c #9A655E",
"R  c #875C66",
"E  c #975E69",
"W  c #8B686F",
"Q  c #976763",
"!  c #9A766B",
"~  c #A96864",
"^  c #B26A65",
"/  c #A87A6D",
"(  c #B5766C",
")  c #A67979",
"_  c #BA7F71",
"`  c #C87570",
"'  c #C57F72",
"]  c #CD7D73",
"[  c #9F8373",
"{  c #A5816E",
"}  c #AA8476",
"|  c #B98778",
" . c #B8947D",
".. c #C48576",
"X. c #D58978",
"o. c #C3927E",
"O. c #DC917D",
"+. c #E1917E",
"@. c #3E4783",
"#. c #414985",
"$. c #454E8D",
"%. c #4F4D8A",
"&. c #515189",
"*. c #585788",
"=. c #464F91",
"-. c #475195",
";. c #4B5294",
":. c #4A549B",
">. c #585F95",
",. c #5C6083",
"<. c #68668A",
"1. c #766A84",
"2. c #77758C",
"3. c #666C97",
"4. c #77779A",
"5. c #4C57A0",
"6. c #4E59A4",
"7. c #525EAC",
"8. c #5460AF",
"9. c #5662B4",
"0. c #5966BB",
"q. c #777CA5",
"w. c #6C7CB3",
"e. c #5D6BC4",
"r. c #5F6DC8",
"t. c #606ECA",
"y. c #6A7FC1",
"u. c #6270CD",
"i. c #6371D0",
"p. c #8E798B",
"a. c #AA7F83",
"s. c #7882AA",
"d. c #7986B7",
"f. c #9B878F",
"g. c #9B929D",
"h. c #A18686",
"j. c #B28986",
"k. c #B99787",
"l. c #A68D96",
"z. c #AB9895",
"x. c #B6A39D",
"c. c #8887A6",
"v. c #948DA7",
"b. c #9C94A6",
"n. c #9B9EBB",
"m. c #A69BA7",
"M. c #A7A1AB",
"N. c #B6AFA3",
"B. c #A8A5B8",
"V. c #B2A7B1",
"C. c #CA9A85",
"Z. c #D59D84",
"A. c #E69682",
"S. c #EB9D85",
"D. c #C8A387",
"F. c #DBA58A",
"G. c #C6A899",
"H. c #D5AD90",
"J. c #C8B297",
"K. c #D8B696",
"L. c #E8A58B",
"P. c #F2A488",
"I. c #F4A489",
"U. c #E3B495",
"Y. c #E9B596",
"T. c #F7B594",
"R. c #F7BC98",
"E. c #C8BBA2",
"W. c #D2BDA3",
"Q. c #E7C39D",
"!. c #F8C49D",
"~. c #D8C7A7",
"^. c #DCC4B3",
"/. c #E4CBA5",
"(. c #F2CCA4",
"). c #F9CAA4",
"_. c #EAD4AA",
"`. c #F5D3A8",
"'. c #FAD4A9",
"]. c #F4DBAE",
"[. c #FCDCAE",
"{. c #E6D2B2",
"}. c #F5DBB1",
"|. c #FDDFB0",
" X c #F9E0AF",
".X c #F5E0B2",
"XX c #FDE1B1",
"oX c #8997C3",
"OX c #939CC9",
"+X c #939ED4",
"@X c #98A4CB",
"#X c #A8ABC8",
"$X c #ACB0CD",
"%X c #B1B1CC",
"&X c #B5B6CC",
"*X c #A4ADDC",
"=X c #B4BCDA",
"-X c #ADB6E3",
";X c #BEC3DD",
":X c #BBC3E6",
">X c #CAC5D3",
",X c #C6C6DC",
"<X c #C3CBE6",
"1X c #CED4E8",
"2X c #CCD2EC",
"3X c #D5DAEA",
"4X c #C5CDF0",
"5X c #CCD4F1",
"6X c #D4D9F2",
"7X c #DDE2F4",
"8X c #E1E5F3",
"9X c #E7EBF6",
"0X c #EAEDF8",
"qX c #EDF1FC",
"wX c #F2F3F6",
"eX c #F2F4FB",
"rX c #F6F9FD",
"tX c #FCFDFE",
/* pixels */
"V A d r d d S A d d d d A A d i Z V d V V S V d d V V r d d d d d d A S d d S V d A d d d p d r d r p d d A d d d i d S d d d S ",
"V Z d d d A d Z d A d d Z d d d d d d d V A V d V d d d d d d d d d p p S d d V A S A d d d d d d d d d d A d d d d i d d d p A ",
"d Z Z d Z A d d d d d d p p d d p d V V d V d d V d d p 4 5 r 5 4 p d d A d V d d A d d d Z d d A d d d A d d d d d d d d d d d ",
"d d V V d d d d d d d d p d d d p d V V d d i d d d i 7 8 6 @ 6 8 7 i p d A A V d d d d d d d d A d d d d d d d d d d d d A d d ",
"V d d Z d d d Z A d d d d A d d d Z V d d V V V d 6 =.0.r.0.=.9.r.0.:.6 i d S V d d i d d d d d d d p i d d d d A S d d Z A S d ",
"V d A A d r d Z d d d d d d d A V d d V d d d i 8 0.e.0.$.:.9.:.$.0.e.e.8 p d d d A d d A A A d i p d A d d i p d d d d d d d A ",
"r d Z A d d d d d d d r d d d A d i p V V Z p - 9.8.:.:.9 9.r.0.9 -.-.7.0.6 p V d d d d d d d d d d d d d d d i i d d d d A A A ",
"d Z Z Z d d d A A d d d d d d A d d d d d V 5 $.6.:.9.r.6.0.t.t.6.8.0.:.6.:.5 d d d A d d d d d d d d d p d d d d d d i d d d A ",
"A A d A A d d A A d d d d d A A V d V V V V 7 7.-.0.0.e.9.r.r.u.9.6.i.e.-.9.7 d d V Z d d d d d A V d d d d A d d d A d d d d A ",
"d d d d d S A d d d A d d d d d d d V d V p $.6.=.e.0.r.9.r.r.u.9.:.t.t.:.:.$.y d V d d d A A d d V A d d d A A d d S A d d d d ",
"d A d d d d d d A d A d d p i A d V i i V $ 9 =.6.e.0.r.9.e.r.u.9.9 9.t.7.$.9 % V Z V d d A d d A d d d d d d d d d A d d d d d ",
"d S A d d S d d d d d d d d d d d d d d V % : 9 e.0.7.t.:.5.r.r.e.7 @.r.r.9.> @ p d d d d d d d d d d d d S A d d d d S A d d d ",
"A A d d p d d d d d A d d d d d A V V d V # * 8.r.@.=.e.9 & 9.r.r.@.* 6.t.u.6.8 - 5 A d d d i d d A d d p d d d d p d A d d A A ",
"d d d d p d d d d A A A A d d A Z A V V i # $.0.:.> > @.6 H D 0.e.:.* : =.:.-.$.7 r d f d d d d d A d d d d A d d p d d d A d d ",
"d d A d d d p d d d d S d d d A V Z V V w # : < > : 2 ; z F.k.K 9 > J c u ; > = $ d d d d d d d d d d d d d A d d d d d d d d A ",
"d S A d d d d d d p d d A A d d d V Z V e g # & 1 o o . ..R.R.R.! o o h l * # g $ d d d i i d d A A d d d S d d d d d d A A d d ",
"S d A A A d d d d d d A d A S d d A d d d 4 X 9 : X .   + Y.'.R.h   . o 1 #.#., 4 d V V d d V V A A d d 5 V V A A V A V d V d 5 ",
"V d d A A d p d d d d d d d d d A A A d d $ 7 6.6.W c.F <./.XX`.2.*.p.a...*.9.< 5 5 V A A V V d d d d d d d V V V V V d d d d d ",
"d d d d V d d d d d d d d d d A A d d d V 4 9 ;.6.G.>Xy.#X}.|.|.$Xw.,X).) %.8.9 9 5 d V V V V V V d d d d A A d V V V p d d d d ",
"V d d V V d d d d d d d A d d d d d A d V 4 @.9 -.) !.^.}.}.|.|.{.^.!._ F :.#.=.@.5 d d V V V V d d d d d d d d V V V p d d d d ",
"V p V A A V A V d d r d A A d d d d V d V 4 @.@.: B ) (.[.[.'.|.|.(.| *.:.> D 5.5.6 5 V V V V d d d d A d d d d d d d d d d d r ",
"V d d d d d A d d d d d d d d d 5 d d d 5 4 @.8.;.&.s L C.U.L.Y.C.P 2 F =.:.5.6.6.8 5 V V V A d p d A d d S A A A A S A d d d d ",
"d V V d V V d d d d 5 d d d d d d d d V V % :.:.K | E *.E I Q I ^ R 4.K ! H @.6.0.@.4 5 A A V d d d d d d d d A d d A d d d d d ",
"d A V V V d V d d d d d d d d d d A d p V % -.J U.].l.$Xl.^ ` ] ] ^ V.1Xz.| >.6.7.@.4 V A V V d d d d d d A d d d d A d A A d d ",
"V A A V V V d d d d d d d d d A d A d p d d - / ].U.m.3Xb.K.`.'.(.Q.z.;X#Xl.H ;.6.5.4 V V V d V d A V d d A p d d d A d d A d d ",
"d d V A V d i d d d V V p d d d d d d d d d O D._.f.$X0X:XV.k.K.(.K.V.8XrX3Xn.>.6.6.5 5 V V V V d d d V A A p p d d A d d d d d ",
"d i p V V d d d V d V d d d d d A A d d d d l /.l.=XqXeXqX3X$Xp.p.%X9XtXtXtXeXOX;.9 5 V d V A V V d V d d d d V A d A d d d d 5 ",
"V d d V A V V V V V A V d d d A d d d A Z t / ~.$XeXtXtXtXtXeX,X<XrXtXtXtXtXtX<X,.5 5 d V V V V A V d V A V d d d A d r d d d d ",
"d V V V A V A A V V V d d d V A d d d d A 0 D.M.1XtXtXtXtXtXtXqXtXtXtXtXtXrXqX=X,.5 d A V V V d d V d V V V A A d V V V V V V V ",
"V A V V A A A V d p d d V V d d d d d d d g z.s.9XrX0XrXrXtXtXrX9X0XtXtXtXeXeX-X,.d d V V V V V V V p d d V A V d d V A V d d V ",
"d V V V d A V V p p d V V V V V d i d d d P k.3.<X2X6X9XqXqXtX0X5X0XqXtXrX5X4Xc.G V V V V V d d V V p p V V V d V V V d d A A d ",
"V d d V A V S V V S V d V d V A d d A A w / J.3.*XOX*X3X5X:X4X:X7X5X0X8X2X+XoXd.A d V V V V V V V d V d V A d d d V V A d d d d ",
"d d d A A d d d d A d d d p i S d S d d e  .J.>.oX+Xd.n.@X*X-X7X6X-X4X*X+XoXw.<.s p Z V p V V V V V V d d V r p d V V d d d d V ",
"A d d d d d A d d d d A A d d d d d d p j J./.2.w.y.s.;X2X2X9XqX4X7X<Xq.3.<.<.j.~ 0 V V V Z V i p Z V d d V d d d d V A Z Z d d ",
"d d p p d d d d d d d d A d d d d d p r z /. X~.K 1.M.&X&X&X>X#X$X#Xx.D.) ) R ] +.k d d d V d p d V V d V V d d V d V Z Z V d V ",
"d d d d d d d d d d d d d d d A A d i r Y _.|.].! | N.z.z.z.h.j l.J.N.M.OXn.q.W S.~ s V V V d d V V V d V V V V V V d d d d d V ",
"A d A S d A d d d d d r d A A S A A d a | |. X/.1.v.M.M.N.E.Q.' x.M.$X6X0XwX8Xp.o.+.k V A A d d A V V V d d d d d A V d d d V V ",
"d d d d d A d d d d d d d d d d d d d z K.XX.X~.4.:X9X7X,X#Xb.b.$X4X;XB.g.f.b.<.| I.^ q d d d d V V V V V d V V d d r d d d d V ",
"d A d d d A d d d d d d d p p d d d t ! [.|.}.F.} M.n.1X9XeX9X9X9X#Xl.~.]._..Xk.( +.L.( a f d d V V V V d V V d d d p d d V Z d ",
"d A d d d d A A d A d d d d d d A A g U.XX}.].{ H.].~.b.#X,X1X2X%Xh.].XX}.]..Xk.U ^ X.O.I t d d V V d d d V d V A d d A Z V V V ",
"d d d d d d A A A d d d d A d d d f { Y.`.K.(.{ O. XXX XW.z.w.s.p.`.}.|.|.|.XX .L ] X.] I a d d A d d d d V d V d V V A V d V V ",
"d d d d r d d d d d A d d d d d t T L.o._.Z.K.Q +.'.XX X[._.a.s K.XX|.|.XX|.[.( ^ ^ O.` O.g d d d d d d i d d d V d V d d A A V ",
"p d d d d d d d d d A A d A A A q / ^ O.C._ / h +.'.|.|.[.[.L.h Q.|.|.XX|.XXQ.h x g h L ..h d d d d d d d d d A A d d d d d A S ",
"d d d d A d A d d d S d d A d A t q q Y z a q g O.T.[.|.[.|.K.I /.|.|.XX|.XXo.a d i d 0 q t d d d A V d d d d d d d V A V d d d ",
"d d V d d d A d d d A d i d d d d d d t p d t e ~ L.).|.[.|.J.o.].|.|.|.|.[.Y f d d d d d d d d d d d d d d d p p A d V d V A d ",
"d d A A d p d d d p d d p d d d d d d Z d Z i w P A.R.[.XX'.L.L.|.|.|.|.|.U.l f d d A A d d d A d V V V V V V d d V V d d A A V ",
"V d d d d i d d p r d d d d d d i d Z A d S d d g X.I.T.!.T.A.T.|.|.|.|.]./ t p f A A d d d d d d V V d d A V V d V V d d d d d ",
"d V d d d V d d d i d A d A S d d d d d d d d d 0 ' I.I.I.I.+.Y.|.|.|.|.U.l w p d A d d A A d d r d V d V V d d V A V V d d p i ",
"A d p p d A V V d d V V V V A V V V V V V V V V p x S.I.I.I.+.Y.XX|.[..X} u p V d d d d V V V V d d A A d d V V V V V A d V d d ",
"A d d p V V V V d V A A V V V d d V V V V V V C M j +.I.I.P.+.F.XX|.[..X} 2 C V C A d A V d V A d d d A d A V d d d V V A V d V ",
"V V d d d V V V d V V V V V d d V V V V V C N M b v ~ I.P.P...K.XX[.|..X[ - M N C C C Z V d d V d d d d d V d d d d V d V V d V ",
"d A A V V d d V V d V d A V V d d V V C N N v n M n j ] P.+.U _.XXXXXX(.R 5 M M n m N m V d d d d A d d d d A V d V V V V d d V ",
"V V V V A d V A A d d V d V V d i V C N M M M n M M v I ] ] Y /.[.[.XXK.e v b M M M n N C d r d d S A d d d S V d V V V V V V V ",
"V V V A V V d d d r d d d V V V A C N N M M M N M M b k A.A.T /.XXXX|.| u M n M n M M n N m i V d d d A A V A A V d V d d V A V ",
"A V d V d r d d d d V A V A A V C G M M M M M M M N b x L.L.Q Q.).|.[.x M M M M N N M M M C V d V d d V d V V d d V S V d V V V ",
"V d V d d p d V d d V A V V A V V M M M M M M n M M n s R Q ^ P.I.T.Z.j M M M M N M M M n 7 V d d d d V d V V A V V V V d d d V ",
"d d V A V p d A A d A d d A A d V n n M M M n M n b M M v 2 | '.).L.P b m M M M m N m N n m d p d d d V d V d A A d d V d d d V ",
"A d A A d 5 d A A d V d d d d d V n n n M M M n n b M M N e ! J.D.Y v M N b M M 7 N M 7 7 C d i d d A A d A d d V d d A V d d V ",
"A d A d A d A A d d A V d d d 4 V C N M M n M n M n M N M M b e 3 u n M M M v v m N C C G A V d d d V V d V A A A d V d d d d V ",
"d A A A A d d d d V S d d d d A d V G N N n M N M M M M M M M M M n M n u M b M 7 m 7 7 G S V d d d d d d d 5 d V V V A V d V S ",
"d V A V A r d A V d A d d d A V d V V C N M n M M M m M M M n M n n M M n n M n 6 V G C V V V A V d d d d d d d d d d S A d A A ",
"V d V V d p d d V d d d A A d A d d V Z C C N b M M M M M M M M n M M M M M n n C V A V d d V A A d d d V V d d d A d A A A A d ",
"d d A A d d d d d d d A A A d d d d A A Z d V C N m N M n M N M M M M M n n N V V V d d d d A d A V d V A S d d A A d d A A d V ",
"A d A A d V V A A V d A V V A A S Z V V d r Z Z Z A Z C V n C M V C C C V d i m d V d d d d 5 V d V V d V V d d A S V d d A S S "
};
