/* XPM */
static char *out[] = {
/* columns rows colors chars-per-pixel */
"64 64 218 2 ",
"   c #120C0E",
".  c #221715",
"X  c #33211D",
"o  c #1D1A21",
"O  c #372A32",
"+  c #442828",
"@  c #69313C",
"#  c #2D2E4B",
"$  c #332D45",
"%  c #2F3149",
"&  c #373449",
"*  c #383C4A",
"=  c #2B2F54",
"-  c #2E3157",
";  c #323453",
":  c #3A3E54",
">  c #303358",
",  c #363A5B",
"<  c #323761",
"1  c #393B69",
"2  c #363D72",
"3  c #483746",
"4  c #573945",
"5  c #443C57",
"6  c #663947",
"7  c #3E434E",
"8  c #3E4257",
"9  c #3B416B",
"0  c #3C4174",
"q  c #3D447C",
"w  c #4C444C",
"e  c #51444F",
"r  c #5F454D",
"t  c #424653",
"y  c #4A4452",
"u  c #454A56",
"i  c #4D4A55",
"p  c #43435D",
"a  c #4C425C",
"s  c #464D59",
"d  c #494F5A",
"f  c #5C4A53",
"g  c #4C545F",
"h  c #50545F",
"j  c #67474D",
"k  c #73494D",
"l  c #684A57",
"z  c #675357",
"x  c #765255",
"c  c #775A5B",
"v  c #434564",
"b  c #454966",
"n  c #494D63",
"m  c #4B4568",
"M  c #464A69",
"N  c #494D6C",
"B  c #534F6C",
"V  c #4D5561",
"C  c #4C526A",
"Z  c #505762",
"A  c #515964",
"S  c #555D69",
"D  c #444779",
"F  c #564A78",
"G  c #4D5272",
"H  c #6A576C",
"J  c #715A70",
"K  c #7C657C",
"L  c #865154",
"P  c #9A5559",
"I  c #A65B5C",
"U  c #85655E",
"Y  c #99625E",
"T  c #AB615F",
"R  c #AF5E62",
"E  c #8A6D63",
"W  c #8E696B",
"Q  c #966A64",
"!  c #937268",
"~  c #8C6872",
"^  c #916976",
"/  c #8D7577",
"(  c #99767A",
")  c #A86A64",
"_  c #B86968",
"`  c #A9776B",
"'  c #B9716A",
"]  c #AA7A74",
"[  c #BE7D71",
"{  c #C36B6E",
"}  c #C5756E",
"|  c #C86E71",
" . c #C77972",
".. c #D27976",
"X. c #AA8B7C",
"o. c #B88677",
"O. c #BA937D",
"+. c #CA8577",
"@. c #C48D7B",
"#. c #DB887B",
"$. c #D8917E",
"%. c #3E4683",
"&. c #424983",
"*. c #434C8B",
"=. c #5B5585",
"-. c #464F91",
";. c #475195",
":. c #4A5393",
">. c #4A559A",
",. c #4A549B",
"<. c #655B8C",
"1. c #5C679C",
"2. c #706B8F",
"3. c #716F95",
"4. c #787696",
"5. c #4E5AA5",
"6. c #4F5AA5",
"7. c #515CA7",
"8. c #525DAB",
"9. c #535FB1",
"0. c #5860AF",
"q. c #5662B4",
"w. c #5864B7",
"e. c #5966BC",
"r. c #5B68BF",
"t. c #6974A3",
"y. c #757BA7",
"u. c #5D6AC3",
"i. c #5F6DC9",
"p. c #606ECA",
"a. c #6271CE",
"s. c #85768D",
"d. c #7781AD",
"f. c #7A87B7",
"g. c #97898E",
"h. c #8A859B",
"j. c #988A96",
"k. c #AD898C",
"l. c #BB9782",
"z. c #A89B9B",
"x. c #B59B93",
"c. c #BAA288",
"v. c #B6A59C",
"b. c #8782A1",
"n. c #988DA1",
"m. c #9D95A6",
"M. c #858DB8",
"N. c #9495B6",
"B. c #A39AA6",
"V. c #A09FB8",
"C. c #ADA3B1",
"Z. c #A6A5B8",
"A. c #DC8F80",
"S. c #C79982",
"D. c #D59D84",
"F. c #E59984",
"G. c #D8A68A",
"H. c #CDAB93",
"J. c #D5AF90",
"K. c #C8B59F",
"L. c #E7A88E",
"P. c #F2A388",
"I. c #E1AB93",
"U. c #E7BA98",
"Y. c #F8BB98",
"T. c #C7B8A4",
"R. c #D2BCA0",
"E. c #E3BFB9",
"W. c #D7C19D",
"Q. c #E5C29C",
"!. c #ECC59F",
"~. c #F3C49D",
"^. c #FAC29B",
"/. c #DCCCA7",
"(. c #E7C9A3",
"). c #F5C9A3",
"_. c #E8D3A9",
"`. c #FAD1A7",
"'. c #F3D5AA",
"]. c #FBD6AA",
"[. c #F5DBAE",
"{. c #FBDDAF",
"}. c #EACDB7",
"|. c #F3DFB3",
" X c #FDDFB0",
".X c #FEE1AF",
"XX c #FCE2B2",
"oX c #9098C2",
"OX c #949ED1",
"+X c #98A2CC",
"@X c #9CA7D4",
"#X c #AAA9C4",
"$X c #AFB1C9",
"%X c #B4B4C9",
"&X c #A4ADD7",
"*X c #A7B1DB",
"=X c #ABB4DC",
"-X c #B7BBD8",
";X c #A5ADE0",
":X c #B6BCE5",
">X c #CDBCC5",
",X c #BFC4DD",
"<X c #BAC3E5",
"1X c #C6C9D9",
"2X c #D0D0DE",
"3X c #C6CCE7",
"4X c #CBD0EC",
"5X c #D2D9EC",
"6X c #D8DBEA",
"7X c #CFD6F2",
"8X c #D7DDF3",
"9X c #DDE5F8",
"0X c #E7EBF5",
"qX c #E6EAF6",
"wX c #E9EDF9",
"eX c #F3F5FB",
"rX c #F7F9FE",
"tX c #FDFDFE",
/* pixels */
"V A g u g V S A g V g g S S g u V V V V V S V g g V V u s V V V V g A S g g S V V A g g d d g t g u d V V V V V g u g S V g V S ",
"V A g g g A V g h A g g V V g g g g V g V A V V V V g g g V g V g g d d S g V V A S V V V V g g g g g g V V V g g d u V V g d V ",
"g Z V V g A g g g g g g g d g g s g V V g V d g V V g V s V s V s s g d A V V g V A V g V V g V V g g V V V g g g g s g g g g g ",
"g g V V V g g g g d g g s d g g d g V V g g s g V g g V n : 7 7 % 7 8 g g V A V g g g g g g g g V g g g V g V g V V V V g V V g ",
"V g V V V g g V A g g g h V g h g V V V g g V V V g d 8 D >.:., 0 >.:.9 s g A h g g u g g V g g V g d u g V g g V A V g V A A V ",
"V g A A g t g A V g V g g g V A V V V V V V V V g 8 D 8.p.i.w.6.q.e.i.r.>.9 g g g V g g V V V g u g g V g g u s V V g g V V V A ",
"s g A A g g g g V g g u g g V V g u d V V V V u 7 D r.e.7.%.%.w.8.0 >.8.i.7.8 g g V g g V V V g g g g g g V g d d g V g V V A V ",
"g V Z V A g g A A g g d g g g A g g g V g V V d , q.5.:.8.>.8.p.i.>.>.>.;.w.*.8 g V V V g V g g V V V g d g g g g g g d g V V A ",
"g A A g g A g A V V V V g g V A V g V g V A g t -.8.;.e.i.w.w.p.p.w.7.i.w.;.q.9 s g V V V V V V A V V g d g A g g g V g g V g V ",
"g g g g g S g g g V A g g g g g g g V V g A g 9 7.;.w.e.u.e.e.p.p.u.7.i.i.5.5.-.s V g V V V V g V V V g V g A A g g A S V g V V ",
"g A A g g A g A A V V g g s s A g g d d V V d 9 5.%.u.w.p.e.e.p.p.e.;.r.i.8.%.5., g V g g V V g V V g g g V V V g V V V g g g V ",
"g S g g g S g g g g g g g g g g g g g g V A t < %.5.i.w.p.w.q.p.p.r.q ;.i.u.*.%.; s g g g g V V V g g g g S V g V g g A V g g V ",
"A g g g s g g g g V A g A A g g A V g V g g * = q e.q.>.i.6.2 q.p.p.*.< w.a.5.1 % 7 g g g g d g g A V g d A V g d d g V V g V A ",
"A g g g g g g g g V A A g g g A A A V g g & > *.e.u.%.9 w.&.H >.u.a.,.= q w.u.6.D ; d g g g d g g V g g d g V g g d V g V V V V ",
"g g A A g g s g g V V S V V g A V A Z g g d & *.6.%.0 = 2 m l.B >.8.%.c a 0 q q 9 8 g g g g g g V V g g g V V V g g V g V V V V ",
"A A A g g g g g d s V g V g g g g g A Z g g j Z = < z j # o.^.S./ p ; ` ` 5 = ; z w d g d d g g A V g g g S V V g V V V V V g g ",
"A g A A A g g g g g g V V A A g V V V V g V w r - $ + .   P Y.Y.U.@.O . X + 0 0 l & g V g g V g V V g g s g g A A g A g g g g s ",
"A g g g S g 8 g V g g g V V V V A V V g g 7 7 N ;.F k 5 o + l.|.).U o O H k ,.:.D = s V A A V g V V g g g g A V V V g g g g g g ",
"g g g A A g g g g g V g g g g V A V V V V 8 , %.e.1.I.>X1.M.v.XX[.Z.t.y.E.k.0.7.&.> u V g V g g V g g g g V V g g V g g g g g g ",
"g g g g V g V V g g g g V V g g V V V V V V 8 %.8.=.S.}.#X$XXXXX|.}.oX>X~.] 9.-.q < g g g h A g g g V V g V g g V A g s g g g g ",
"g s V A V V V V V g 7 V V V g g g V V V V g , >.%.D H D.`.[. X X.X{.'.~.[ m *.2 *.2 8 V g g V g g g V V V V g g g g g g g g g 8 ",
"V g V g V V A V V g V V V g g g 8 s g g V g , 6.&.1 F k S.(.[.Y.).[.U.] 5 9 1 ,.-.0 # g g g S g s g g V g S S A A A S A g g A g ",
"V V g V V V V g g g 7 g V g g g g g g V V g , 6.F ( [ H m R @.S.@.o.T H 4.W =.5.5.*.; g A A g g g g g g g V V V g g A g g g g g ",
"g A V V V g g V V V g V g g V A g S g s V s , =.x.'./.n.4.} ) P P { } s.%XT.X.F 5.5.9 7 A A A g g V g g g V g g g g A g A A g g ",
"g V A V A g d g g g V V V V V V g A g d g g O X.{.{.R.Z.$X] L.A.F.L.G.j.,Xm.(.~ ,.7.&.* h h g g g g A g g A g g g V A g A V g g ",
"V g A A g g s g g g g A 7 d V V g g g g g g z !.XX'.k.3X9XB.[. X.X`.J.%X8X$XT.S.F 7.&.& g g g A V g g g g A u g g g V g g g g g ",
"V u d g g g g g V g g g V g g V A g g g g w o..XXX(.N.9XqX,Xx.L.^.U.B.0XtXwX$Xx.^ ,.&.* g g A g g A g g A g g g g g A g g V g 8 ",
"V g g V A g A A V V A V g g V A V V g A h z U..XXXB.7XrXrXwX%X#XC.B.6XtXtXtXeXZ.^ <.,., A A g g A g g A A g g g A A g u g g V V ",
"g V V V A V A g g V V g V g V V g A g g u ` [..XR.%XeXtXtXtXeX6X-XeXtXtXtXtXtX0Xb.K 9.D 7 V V g g V g V A V A A g V g A g g g V ",
"g A V V A A A A g d g g V V g V g g g g f S.|..Xz.2XtXtXtXtXtXeX1XrXtXtXtXtXtXeX-Xl D 0 7 g V V V g d g g g A g g g g A g V A V ",
"g A V g g A g g d d V V V V V V g s g d z /..X_.h.6XtXtXtXtXtXrXqX9XtXtXtXtXtXtX5X2.7 7 V V g g V V d d g A V g g V V g g A A g ",
"V g g V A V S A A A V g V g V A g g g g z _..X/.d.3XtXtXtXtXtXrX8X5XrXtXtXtXrX0X<XM.i A V V V V V g V g V A V g g V g V g g g g ",
"V g V V g V g g g V V V g d d A g A A i E _.{.'.g.+XwXeXrXrXtXrX5X<X8XwXrXtXwXwX4XoXD y V s V V V V V V g V u d V g V g g g V V ",
"V g g g V g A V V g V V A V g V h g g i O.XX{.'./ t.*X=X5X9X8X4XqXqX@X=X4X4X:X<X;Xy.B r V V V s d V V g g g g g g g V A A V g g ",
"g g d d g g V V g g g V V V V g g h s w c.XX{.W.r J y.f.+X<X*X;X:XeX*Xf.OX@X;X@XM.y.^ L t V V s g V V g V V g g V g V V V V g V ",
"A g g g g V g g g g g g g V V V g h g f H. X[.l.3 ] j.y.+X7X8X*Xf.3XqX@Xt.f.y.3.s.k.D.) i V V V V V g V V V V V V V V g V g g V ",
"g g A A V g V d d V g u g V A S A V g U ].XX|.! B b.v.g.4.N.1Xg.K V.V.N.3.<.h.2.@.P.P.+.f g h g A V V V g g V g V V g g g g g V ",
"g g g A V A V g g g g g g g g V h g d E XX X{.o.<.1X4X$X4.2.K.o.] v.s.3.#X1X6XN.o.P.P.F.x g g g V V V V g V V V V g u g g V V V ",
"g A g g g V V g g g V V g d u V g g u E XXXXXXU.Y n.%X2X6X3XZ.Z.Z.Z.,X5X5X$XN.z.' P.$.P.) f h g V V V V g V V g g g g g g V V V ",
"g A g g g g A V V A g g V g g V h A g E XX{.].`.o.o.K.m.#X3XrX0XeX0X5X$Xm.K.W._.) $...$.$.x h g V V g g g V g V V g g A V g V V ",
"g g g g d A A V A g g g A g g g A A g E .X`.!.L.L.o.].[.K.h.&X&X=XoXm.T.[.{.XX(.) $.#.' $.' w h V g g g d g g V V V V A V V V V ",
"g g g g 7 A g g g g V V V g V g g g u E '.$.Q.$._ ` [..X X/.v.1.4.H.'.XX.X{.XXG.P } {  .) U w h g g g g s g V g V V V g g V S V ",
"7 A g g g g g g g V A A g A S A g g A f O.G.o.$.P G.XX XXX{.(.x l.XXXX X.XXX[.` L ' +.$.+.@ g g g V V V g g g A V g g V g g V S ",
"A V g g V g A A g g S g g V V A g g g g f Y k j P L.{. X{.XX].' !. X X X.XXX!.k j ' #.' x d g g g A V g g V g g V V V V V g g V ",
"V V V V g g V g g g g g d d V V g g g g d i w 7 3 D.{. X X XXX@.(. X XXX{.XXG.e i f r w i g g A g V g g g g g d d V V V g V A g ",
"V g V V g d V g g g g g d d g V d g V A g A d d 3 o.{..X X XXX@.!.XX XXX{.XXQ g g g g g g g g g g V V g V V V g g A g g g A A V ",
"g g V g A 7 g g g u g g g V V g s g A A g S V g y ) ). X X X]. .!.XX{. X X].U i h h A h h h g g g V V g g A V g V g V g g g g g ",
"V V g g V V V g g 8 V A V A A g V V g g g g g g d k A.^.^.Y.P.R !. X X XXXJ.j g g A g h A h g g u g V V V V g V V A V g g g g u ",
"A g g s g A g g g g g g g A A g V V V V V V V V V f _ #...#...R (. X X X'.` h g V V V V V V V V g g A A g g g A g g g A g g g g ",
"V g g g g A A g g g A A A g g g g V V g V V V V n v L _ | | ..I G.XX X X_.c N C n A V A V V V A g g g A g A g g g g A g A A g g ",
"g A g g g g A g g g A A g g g g g g V V A A N n M m 5 P R | I @ ) XX X X[.] a M N C n A V g V A g g g g g A g g g g g g A g g g ",
"g A V g g g g A A g g g A A A g g g V C G N 9 b M m B 6 R { I @ ` XX{..XXXO.5 M M M M C C g s V g A g g g g A g g A A g g g g A ",
"g A V V A g g A A g g g g A V g s g V G N M M M b m b 4 R | _ 6 Q XXXXXX'.W v M M M 9 C G V s V g S A g g g S g g V A V g g g g ",
"g g V A V g g g d u g g g g g g A A G M M M M M M M M p 6 L 6 5 c XX{..X(.l v m M M b M 9 N s V g g g A A V S A g g g g g A S A ",
"A g g V g 7 g g g g g A g A A V A C N M M b M M M N N M v p v 9 c XX{.XXl.a M N N N M N N M C g g g V V g V V g g V S V g V g g ",
"A g V g g g g A A g A V A A A V A n M M M b M M M M M M M M M v c Y.).'.! 8 M M b N b M b b n g g g g g g V g A A V A g g g g g ",
"V V V V g g g A A g A g g A V g g n M M M M M M b b b M M M n v x Y.).U.l M M M b N b n N b n g g g V V g V V V A g g V g g V V ",
"V g A A g s g V g g A g g g g g g n M M M b M M b b M M n M M 9 c ].XXJ.3 N M M N n N 9 9 N C 8 g V V V g A V V g g g A V g g V ",
"A V V g g g A A g g A g g g g u g V G N b M M M M M M N M N N 9 f Q ! L a M 9 v N 9 C C C G V V V g V V g V A S A g V g g g g V ",
"V V A S A V V g g A S g g g g g g g C G N M M N M b M M M M M M b 5 p p v M b b N C 9 9 G S V V g g V g g g 7 g V V V A V g V S ",
"V V V V V s g V A g V g g g A V g g V V C C M M M M N M M M M M M M N M v M M M 9 C C C A V V A V V g g g g g g g g g S V V A V ",
"V V V V g d g g g g g V V A V V V V V V V C M M M M N M M M M M M M M M M M M M A 9 V V g V V A V V g g V V g g g V g A A A V V ",
"V g A A g V g g V g g A A A V g V V V A A V V C C M b M M M N M N M v M M M M C g V g V g g A V V g V V A S V g A A V g A A V V ",
"V V A A g V V A A V g A V A A V S V V V V u A A V A V A C n C n n C C C C V s s V V V A A 8 7 V V V V g V g V g A S V g V A S S "
};
