/* XPM */
static char *out[] = {
/* columns rows colors chars-per-pixel */
"64 64 224 2 ",
"   c None",
".  c black",
"X  c #321C1C",
"o  c #1F1F3A",
"O  c #212034",
"+  c #2D2031",
"@  c #6D353F",
"#  c #282946",
"$  c #312944",
"%  c #362E4E",
"&  c #2A2D50",
"*  c #2C2F54",
"=  c #2F3258",
"-  c #2E335E",
";  c #303359",
":  c #31355E",
">  c #313662",
",  c #333762",
"<  c #333864",
"1  c #373965",
"2  c #353B6C",
"3  c #383D6C",
"4  c #353C70",
"5  c #383E70",
"6  c #393F71",
"7  c #432B44",
"8  c #483244",
"9  c #45314C",
"0  c #5B3041",
"q  c #453A51",
"w  c #413258",
"e  c #453E5E",
"r  c #5E3851",
"t  c #5E3D50",
"y  c #643749",
"u  c #713B44",
"i  c #413D6A",
"p  c #403E6E",
"a  c #3A4075",
"s  c #394178",
"d  c #3C437A",
"f  c #3C447C",
"g  c #3C447E",
"h  c #4F4F5C",
"j  c #5B4757",
"k  c #5D4A5B",
"l  c #5E505F",
"z  c #684145",
"x  c #694849",
"c  c #714144",
"v  c #7F4C4B",
"b  c #7C4B4E",
"n  c #634755",
"m  c #714A53",
"M  c #5E4772",
"N  c #7B4F67",
"B  c #62576D",
"V  c #735062",
"C  c #8C4950",
"Z  c #8E4950",
"A  c #85545C",
"S  c #8D565C",
"D  c #925555",
"F  c #995656",
"G  c #9A5957",
"H  c #9C5359",
"J  c #A25359",
"K  c #9D625B",
"L  c #9E695F",
"P  c #A2615B",
"I  c #A6605E",
"U  c #8A5D67",
"Y  c #B05D62",
"T  c #9D6A6A",
"R  c #8D776F",
"E  c #9F7165",
"W  c #886B76",
"Q  c #8E6A7C",
"!  c #906F70",
"~  c #95757F",
"^  c #9D737A",
"/  c #A76662",
"(  c #B16C64",
")  c #BA6A67",
"_  c #BD676A",
"`  c #B37B6E",
"'  c #CB7173",
"]  c #C87470",
"[  c #C67D71",
"{  c #D57D78",
"}  c #A2806F",
"|  c #B68A78",
" . c #C08474",
".. c #C78475",
"X. c #C98372",
"o. c #C18977",
"O. c #CA8A76",
"+. c #C88C7B",
"@. c #D28075",
"#. c #D38779",
"$. c #DD8D7B",
"%. c #C3977F",
"&. c #E08A7E",
"*. c #414884",
"=. c #404986",
"-. c #404987",
";. c #4C4B87",
":. c #414A88",
">. c #434B88",
",. c #454F90",
"<. c #454F92",
"1. c #475196",
"2. c #485091",
"3. c #485092",
"4. c #4A549A",
"5. c #4A549B",
"6. c #4C579F",
"7. c #675285",
"8. c #5C628E",
"9. c #706487",
"0. c #767084",
"q. c #7D778D",
"w. c #676A99",
"e. c #4C57A0",
"r. c #4E59A3",
"t. c #4E59A4",
"y. c #4F5AA5",
"u. c #515BA5",
"i. c #515CA9",
"p. c #535FAD",
"a. c #5561B3",
"s. c #5864B8",
"d. c #516DB9",
"f. c #6E7DAE",
"g. c #7678A6",
"h. c #7078A9",
"j. c #5C69C1",
"k. c #616FCB",
"l. c #8F6E81",
"z. c #817C8F",
"x. c #8C7C8A",
"c. c #917986",
"v. c #9D7B87",
"b. c #897590",
"n. c #7F85B6",
"m. c #7985B9",
"M. c #7D8ABB",
"N. c #948680",
"B. c #9B838C",
"V. c #998B9B",
"C. c #A08284",
"Z. c #A6808A",
"A. c #A7878E",
"S. c #A2918E",
"D. c #AB9E9E",
"F. c #8487AD",
"G. c #8C8CAE",
"H. c #9B93A1",
"J. c #8290BD",
"K. c #8D94BD",
"L. c #9B9BB5",
"P. c #A4A1B1",
"I. c #B3AEBE",
"U. c #C98B81",
"Y. c #CA9581",
"T. c #CC9F8D",
"R. c #EB9E87",
"E. c #CEA186",
"W. c #D0B090",
"Q. c #D0B89F",
"!. c #ECA48B",
"~. c #E2AB8F",
"^. c #F5A489",
"/. c #EEAD91",
"(. c #EFB597",
"). c #F7B191",
"_. c #F7B393",
"`. c #F8B997",
"'. c #F9BF99",
"]. c #F9C09B",
"[. c #FAC29D",
"{. c #FACC9D",
"}. c #F2C4A1",
"|. c #FBC8A1",
" X c #FCCFA5",
".X c #FCD1A7",
"XX c #FDD7AB",
"oX c #FAC9B0",
"OX c #FFE0B1",
"+X c #8C99C2",
"@X c #8195C8",
"#X c #8C98C8",
"$X c #919DCB",
"%X c #819DDC",
"&X c #A4A8C5",
"*X c #ABAEC5",
"=X c #A4A7CB",
"-X c #A5AFDA",
";X c #AAB4DD",
":X c #B3B6D2",
">X c #B4BBD5",
",X c #B1BADD",
"<X c #A6AEE1",
"1X c #B4BDE8",
"2X c #B9C0D7",
"3X c #BCC3E2",
"4X c #D8CEC4",
"5X c #C3C9E2",
"6X c #C8CEE5",
"7X c #C3CCEF",
"8X c #D5CFE1",
"9X c #C7D2EB",
"0X c #CBD1EF",
"qX c #CFD8EB",
"wX c #D9DDEA",
"eX c #D2DBF6",
"rX c #D9E0F6",
"tX c #E1E5F7",
"yX c #E8EAF7",
"uX c #E1EAFD",
"iX c #E8EFFD",
"pX c #F0F4FE",
"aX c #F7F9FE",
"sX c white",
/* pixels */
"                                                                                                                                ",
"                                                                                                                                ",
"                                                                                                                                ",
"                                                                                                                                ",
"                                                                                                                                ",
"                                                                                                                                ",
"                                                                                                                                ",
"                                                                                                                                ",
"                                                                                                                                ",
"                                                          6 3 # , 3                                                             ",
"                                                      1 p.k.k.t.j.k.j.2.                                                        ",
"                                                    1 k.a.5.2 s.e.a 5.k.u.                                                      ",
"                                                    p.<.i.k.6.k.k.,.j.<.a.5                                                     ",
"                                                  5 a.i.s.k.s.k.k.r.k.k.<.p.                                                    ",
"                                                  r.g k.s.k.s.k.k.6.j.k.5.p.<                                                   ",
"                                                  =.<.k.s.k.t.k.k.i.5 k.j.g =                                                   ",
"                                                O 5 j.i.5.j.> i.k.k.& i.k.3.*                                                   ",
"                                                2 j.i.g : -.N.2 j.j.q - <.5.5.;                                                 ",
"                                                x & 4 k j k '.%.B * ! o.= = l                                                   ",
"                                                z = # X . X !.'.'.P . . 8 ,.n $                                                 ",
"                                                3 <.1./ 0.h R OXXXh o v.l.s.:.=                                                 ",
"                                                3 *.r.[.8Xd.4XOXOX@X%XoXB.j.d =                                                 ",
"                                                3 d 1.V `. XOXOXOXXX|.O.p *.,.s                                                 ",
"                                                3 y.3 M z ~.OX(.}..X` e i >.4.f                                                 ",
"                                                3 ;.| _.w.t I } E H U G.E.;.y.4.                                                ",
"                                                % W.OXXX*XQ &.' { @.W 5XQ.` y.y.,                                               ",
"                                                b OXOXA.rX&XOXOXOX XP.eXP..XM y.3                                               ",
"                                                ~.OXOXK.uXuXV.!.{.T.wXsXaXH.` y.3                                               ",
"                                              G OXOXD.iXsXsXyX-X=XwXsXsXsXaXb.7.1.                                              ",
"                                              | OXOXL.sXsXsXsXaX>XsXsXsXsXsX3Xm s.,                                             ",
"                                              .XOXQ.2XsXsXsXsXaXrXaXsXsXsXsXpX9.+                                               ",
"                                              OXOXS.;XsXsXsXsXaX6XtXsXsXsXpX7X#X                                                ",
"                                            G OXOX[.h.rXtXpXsXaXyX9X0XaXsXrXeXJ.9                                               ",
"                                            } OXOX|   J.J.qX;X<XtX0XJ.<X<X<X$Xm.N                                               ",
"                                            | OXOXG K q.m.1XtX1X+XpX;Xf.M.g.w.Z.^.                                              ",
"                                            .XOXOX9 g.D.S.w.I.x.c.F.F.q.q.g.U.^.^.D                                             ",
"                                            OXOXOXA :XaX5XF.D.C.~ D.F.5XpX3X^ ^.^.@.                                            ",
"                                            OXOXOX~.T D.K.tXaXaXsXaXtXK.D.Q.E ^.] ^.C                                           ",
"                                            OXXX/.XX) OXOXq.-X,X0Xn.D.OXOXOXE ^.@.$.@.                                          ",
"                                            .X#.XX( K OXOXOXQ.8.z..XOXOXOXOXF ) ) X.K                                           ",
"                                            v `.D &...OXOXOXOXD .XOXOXOXOX~.c ) $.^.u                                           ",
"                                                     .OXOXOXOX+.OXOXOXOXOXE   G D                                               ",
"                                                    L OXOXOXOXY.OXOXOXOXOX                                                      ",
"                                                    C |.OXOXOX[ OXOXOXOX.X                                                      ",
"                                                      { ).).R.Y OXOXOXOX`                                                       ",
"                                                      H ' ' ' Y OXOXOXOXy                                                       ",
"                                                      r J ' _ @ Y.OXOXOXS                                                       ",
"                                                        Z _ Y @ Y.OXOXOXE                                                       ",
"                                                        0 _ _ 0 | OXOXOXr                                                       ",
"                                                          7 7   } OXOX~.w                                                       ",
"                                                                E |.OXE                                                         ",
"                                                                E [.XXr                                                         ",
"                                                                L XX].7                                                         ",
"                                                                w 7 7                                                           ",
"                                                                                                                                ",
"                                                                                                                                ",
"                                                                                                                                ",
"                                                                                                                                ",
"                                                                                                                                ",
"                                                                                                                                ",
"                                                                                                                                ",
"                                                                                                                                ",
"                                                                                                                                ",
"                                                                                                                                "
};
