/* XPM */
static char *out[] = {
/* columns rows colors chars-per-pixel */
"64 64 136 2 ",
"   c #434A53",
".  c #434B54",
"X  c #444A54",
"o  c #444B55",
"O  c #454B55",
"+  c #454B56",
"@  c #454B57",
"#  c #444C55",
"$  c #454C55",
"%  c #444C56",
"&  c #454C56",
"*  c #454D56",
"=  c #454C57",
"-  c #444D57",
";  c #454D57",
":  c #464C56",
">  c #464D57",
",  c #474D57",
"<  c #454E57",
"1  c #464E57",
"2  c #454C58",
"3  c #444D58",
"4  c #454D58",
"5  c #454D59",
"6  c #464C58",
"7  c #464D58",
"8  c #464D59",
"9  c #474D59",
"0  c #454E59",
"q  c #464E58",
"w  c #474E58",
"e  c #464F58",
"r  c #474F58",
"t  c #464E59",
"y  c #474E59",
"u  c #474F59",
"i  c #464E5A",
"p  c #474E5A",
"a  c #474F5A",
"s  c #474F5B",
"d  c #484E58",
"f  c #484E59",
"g  c #484F59",
"h  c #484F5A",
"j  c #484F5B",
"k  c #475059",
"l  c #47505A",
"z  c #47505B",
"x  c #485059",
"c  c #495059",
"v  c #48505A",
"b  c #49505A",
"n  c #48515A",
"m  c #49515A",
"M  c #48505B",
"N  c #49505B",
"B  c #48515B",
"V  c #49515B",
"C  c #4A515B",
"Z  c #49525B",
"A  c #4A525B",
"S  c #48505C",
"D  c #49505C",
"F  c #48515C",
"G  c #49515C",
"H  c #49515D",
"J  c #4A515C",
"K  c #4A515D",
"L  c #49525C",
"P  c #49525D",
"I  c #4A525C",
"U  c #4A535C",
"Y  c #4A525D",
"T  c #4B525D",
"R  c #4A535D",
"E  c #4B535D",
"W  c #4A525E",
"Q  c #4A535E",
"!  c #4B535E",
"~  c #4B535F",
"^  c #4C535E",
"/  c #4B545D",
"(  c #4B545E",
")  c #4B545F",
"_  c #4B555F",
"`  c #4C545D",
"'  c #4C545E",
"]  c #4C545F",
"[  c #4C555F",
"{  c #4D555F",
"}  c #4B5560",
"|  c #4C5460",
" . c #4D5460",
".. c #4C5560",
"X. c #4D5560",
"o. c #4D5561",
"O. c #4C5660",
"+. c #4D5660",
"@. c #4C5661",
"#. c #4D5661",
"$. c #4D5761",
"%. c #4E5660",
"&. c #4E5661",
"*. c #4E5761",
"=. c #4F5761",
"-. c #4D5762",
";. c #4E5662",
":. c #4E5762",
">. c #4F5762",
",. c #4F5763",
"<. c #4E5862",
"1. c #4E5863",
"2. c #4F5863",
"3. c #4F5963",
"4. c #4F5964",
"5. c #505863",
"6. c #505864",
"7. c #505964",
"8. c #515964",
"9. c #515965",
"0. c #505A64",
"q. c #505A65",
"w. c #515A65",
"e. c #525A65",
"r. c #515B66",
"t. c #525A66",
"y. c #525B66",
"u. c #535B66",
"i. c #535B67",
"p. c #535C67",
"a. c #545C67",
"s. c #545C68",
"d. c #555D68",
"f. c #555D69",
"g. c #555E69",
"h. c #565E69",
/* pixels */
";.t.h d &.&.d.:.&.X.&.o.u.2.| a 2.;...#.&.h.&.&.o.&.~ 8 ! o.o.X.X.o.8.u.&.#.d.6.,.7.;.X.N M ] O E 3 a #.X.&.X.&.I o ~ u.5.X.;.d.",
"#.2.] ! &.>.,.] &.#.X.X.2.#.| ! ..X.| X.#.e.X.&.&.o.] ~ ] | X...] ..V b e.#.>.:.9.t.7.X.o.X.| T ] Q ~ X...5.X.o.] I i ..X.Q z ;.",
"o.#.,.&.o.&.#.] W F X...V R ..! 7 | #.:.#.;.a ! X.o.X.,.X.| #.>.a Q E T 2.>.#...>.:.:.X.#.X.X.X.>.o...&.2.:.X.o.| X.W | | | Q X.",
"X...&.X.X.X.X.| ! S X.] V E ] ! w o.#.$.| X.v ( X.X.] -.&.X.X.>.s ! | ] X.-.5.X.X.) H ~ X.) X.X.&.| ~ Q :.X.] X.| 2.X.X.X.;.:.o.",
"&.X.;.&.| E o.5.5.X.X.X.>.&.X.&.o.7.&.o.X.X.X.,.#.&.X.;.,.+.! X.&.o.#.;.o.X.u.2.X.) 9 ] &.X.&.X.~ X.A g ] X.! ] #.u.#.X.;.8.w.,.",
") | e.8.E % ] :.>.| ..! | X.X.2...) ] X.X.#.| ] ) X.X.5.X.m y ..2.&.8.w.X.| &.| X.X.X.| >.@.X.] i ) { { X.X.u M ! o.X.X.] o.&.7.",
"7 ~ i.e.o.] #.o.&.X.X.o J o.o.#.o.7 G #.#.9.o.f v &.X.&.X.X.| X.#.#.&.&.&.o.w.:.#.X.&.X.&...&.X.| X.o.#.X.&.] f ; &.X.&.X.,.t.>.",
"! 5.,.&.>.| X.2.5.] ] A ( | ..>.X.! E X.| &.| E U #.>.#.a M | | >.X.] | ( 1 ..] | | 5.| X.] | X.>...| I e ] ] ( Z X.] M G X.&.5.",
";.5.:.&.5.6.&.5.2.X.>.X.o.X.o.>.o.#.o.&.o.9.o.o...&.>.&.G I o.X.>.&.X.X.X.v X...o.X.5.X.>.#.#.o.>.:.;.! v #.>.>...&.5.X.] o.o.2.",
"....X.] &.8.#...X...1.| | R L X.| X.' [ X.e.| R U ] I ] &.#.] | | X.X.| X.] W ! X.X.X.| &.&.&.| X.<.$.| | X.2.>.] #.9.e.&...] X.",
"&.2.;.X.X.X.&.>.5.X.X.X.X.: O 5.X.&.r u X.&.X.d x ] & ] u.e.X.X.X.5.:.X.#.] 6 M &.5.&.X.#.>.8.&.5.#.o.#.X.&...X.] &.o.&.X.X.X.&.",
"#.w.>.] &.u.&.| X.| o.] ..| ] ..X.X.) X.X.s.o.X.| X...X.] $.>.X.X...| | X.X.X.] ] ] X.] X.~ X.| | ] | | ] s.;.X.] [ X.y.>.X.X.X.",
"2.>.#.P c =.&.| o.&.e...:.o.X.&.w.&.] o.#.t.o.o.X.,.X.o...X.&.X.X.;.#.#.2.2.&.V N ..2.X.o.P j X.X.:.:.! a 5.o.o.E w ] ,.#.#.2.5.",
"&.X.>.O.A ' a Y ;.:.2.w.,.X.X.2.,.u.>.o...&.w I &.8.#.w.6.-.#.,.X.X.V M &.#.5.` T | &.| X.! Y ....X.X.' P X.$.:.' A ] X.| X.&.;.",
"X.X.5.>.X.] 5 I &.O.X.u.,.| X.2...u.2.o.| X.& N #.3.] u.8.-.&.6.| X.S 1 X.X.6.&.X.] X.| X.! X...X.| | X.] &.>.:.| X.X.X.| o...X.",
">.8.>.#.&.X.o.| V w X.#.o.&.&.X.X.;.#.:...o.| X...] 1 ( X.#.&...X.8.2.#.o.&.! ! X.X.;...D M o.X.2.X...] ! u.;.;.#.o.o.o.&.>.| ~ ",
"8.;.2.5.5...o.| ] ' X.3.>.9.u.X.X.8.#.X...o.| X.] ..( X.X.,.9.X.| o.>.2.;.w.> k X.X.8.X...( X.X.2.X...Y - o...8.w.X.2.&.X.X.! 7 ",
";.o.o.5.a.] 7 ! #.X.&.#.&.&.&.>.s.>.X.#.] 2 ! f x &.#.8.&.&.&.X.7.;.5.8.&.#.X.X.>.6.:.8.r.>.&.o.#.o.o.o.| &.,.5.&.&.o.&.X.X.X.X.",
"..| | X.,.] G E | ] ..) ] ] ) X.>.X...#.! G ! G Z ) k _ | Y G ] &.| X.X.X.#...~ ..X...o.&.O.:.] ] ) ] ] ) ..X.X.) -.' x Y | | ..",
"X.Y :.2.>.X.>.X.o.! N X.;.#.X.X.X.#.#.:.X.#.X.o.| | v ] ..W G | X.o.X.X.#.-.Y Y o.X.,.X.o.#.2.X.X.X.#.;.X.#.| o.O.2.X.v Y o.| P ",
"| i >.e.5.X.6.X.X.L o | >.o.| ] / X.] X.| X.X.X.| X...X.] ..X.X.X.X.| ] X...t S X.| ,...X.| &...) ] o.>...&.X.&.| X.X.X.] X.! 0 ",
"&.X.X.X.X.#.9.&.#.X.&.X.#.o.X.R . ] ..&.X.&.6.>.X.#.X.o.X.-.7.#.X.X.X.X.;.2.:.X.&.! @ ) &.6.d.| 8 ~ o.#.X.g.e.e.,.>.s.>.X.X.X.&.",
"X.X.X.] X.| #.| X.L O ] X.| ] ] E X.) &.,.X.| X.k : R : Y ..>.t...>.&.] X.X.X.| X.W   E 7.,.&.| ! ] | X.] &.X.o.| &.5.&.] X...X.",
"&.7.:.o.,.X.#.| o.! N X.o.X.X.>.o.t.E J &.&.X.o.! ^ ] G ] X.&.5.X.&.#.X.o.X.5.&.o.] ' [ 6.>.&.X.X.:.>.o.X.X.X.o.| &.6.&.>.8.X.#.",
"o.>.8.>.#.) F Q ..] X.@.P E | #...6./ I ] X.] X.@.$.] X.| #.>.&.| ..H P 5...&.:.>.| ;.} o...| ....#.#.| ] 6.P Q ] ..&.#.:.>.X.X.",
"&.] w.9.&.] 8 ! &.X.&.2.J I X.o.&.&.| X.X.&.] X.| X.] o.X.5.u.9.X.o.M M a.&.&.5.e.X.&.X.#.X.&.o.o.X.X.#.X.s.G Y | X.&.&.X.o.X.| ",
"] 1 Y X.o.| X.] X.| #.X...] | #.2.o.] o.&.X.t Y ] ] 1 ( X...o.X.X.X.X.] o.| o.X.X.] ( { X.#.5...X.| | X.X.#.] | ] &.2.[ ] X.R 8 ",
"#.] ..#.5.o.7.#.o.&.8.X.o.X.X.2.#.&.] 5.u.&.( X.X.o.( X.X.X.:.7.X.e.5.X.#.o.7.;.o.! O ' >.-.&.o.,.X.X.>.7.&...#.#.7.+., G X.X.] ",
"o.:.&.>.t.&.a.&.X.| &.] X.| | o.X.X.| #.:.8.X.X.| #.>.o.w l X.X.X.&.>.>.] a X.-.>.] W 9.5.&.5.X.o.| | X.X.8.9.5.| &...5.X.X...X.",
"#.1.#.&.8.:.e.o.E V X.| #.X...X.X.V Z ..| <.X.X...#.*.#.l V X.| G ~ $.-.| M ] @.#.| X.5.>...<.X.#...] ! | <.5.>.| o.X.8.&.#.>.o.",
"#.:.o.X.:.>.5.X.! V X...:.o.X.&.X.q Y >.X.&...X.&.5.X.o.&.#.X...a ) X...o.#.#.@.#...X.&.#.] X.X.;.X.! G ] &...o.| o...X...&.6.&.",
"X.X.X.&.5.&.p.&.6.6.X.X.X.| ..5.X...>.8.O.w.X.X.6.p.X.X.5.<...X.X.,.;.X.#.2.#.@.,.| X.5.;.] X.| ..] X.| X.8.X.X.| X...X.] X.X.X.",
"X...5.>.X.X.o.| X.| X.X.X.t < 5.X.7.&.X...w.o.o.| o.X.X.X.| #.6.X...| X.&.t.;.| X.] X.X.X.| X.] | | X.X.X.X.t G ] X...o.| o...X.",
"o.X.#.X.X.X.,.X.o.] X.2.9.' Y &.X.;.| o.X.;.6.>.#.,.X.>.#.X.X.#...X.X...&.>.&...Y y X...X.o.:.a ) :.:.X...X.Y ( ] o.X.9.5.>.X.o.",
"o.| b v | | ;.X.X...X.&.,.#...X.X.X.G Y | X.>.;.X.>.8.>.b V Y w [ X...X.,.X.o...! m X.| X.X.$.K ] #.#.X.| >...X.] o.X.5.:.&.X.o.",
"X.] g v X...X.! ~ | X.W ] X.o.&.X.X.S G X.X.] X.| &.9.&.w l I < ' ..&.>.5...:.X.] ! X.| #...X.X.&.| | X.] 8.O.X.| &...X.] X...X.",
"&.o.t.8.#.o.&.a G X.X.o J 2.8.p.8.&.| >.5.&.X.;.#.&.X.#.X.X.;.7.#.o.8.i.5.#.a.5.Y t #.X.,.;.&.&.t.#.o.&.X.#.X.&.#.3.' X.X.X.X.&.",
"X...&.X.o.:.o.! ] | X.E ] | ] #.X.X.~ | X.X.| 8.,.X.] X.X.X...X.2.#.X.X.X.| &...] ~ X.X.X.] X.X.o.| #.:.X.X.| X.] ] * Y ] X.| X.",
"&.2.;.X.&.#.&.X.&.X.&.X.#.w + o.o.&.x h X.&.X.7.>. .y ] 6.<.o.X.#.#.o.X.&.X.&.$.5.X.&.X.#...&.o.o.X.#.&.X.&.X.&.| #.( X.X.;.5.&.",
"X.#.X.| X.X.5.X.o.X.X.| o.n k X.&.7.E L | X.| &.o.| M ] &.O...| | ....! v ! X.@.&.| ;.| X.] | ..o.| | X.] X.) X...| X.5.o.X.#.X.",
"#.X.X.! J X.e.o.>.:.X.X.:.o.X.&.2.y.:.o.X.&.&.&.;.5.X.o.X.X.! G { X.X.! f ] #.X.o.X.5.X.o.] &.o.>.X.X.] N X.X.>.&.#.X.9.&.&.>.&.",
"! ] X.G > ] X.| X.| X.] X.X.#.X.| X.] o.| o.5.:.>.u.X.X.] ..I $ ] ..| ] X.| X.| X.] X.| #.] X.| | ] | G o X.] X.| X.| X.] ;.9.&.",
"6 &.:.X.X.X.&.| #.&.8.X.#.y.a.8.&.&.:.2.X.;.p.8.o.>.5.;.X.6.t.X.X.X.X.&.8.#.&.-.5.X.&.X.5.>.&.o.o.X.o.o.X.&.X.5.>.&.X.X.X.X.>.h.",
"] | X.| X.X.6.O.X.:.a.] ..X.#.1.X.X.] X.| X.X.X.] X.....] X.&.5.X...8.9.X.X.X.5.8.X.a.X.M n X.....<.>.X.| X.| X.] X...5.o.X.X.&.",
"#.X.>.&.#.X.>...o.#.9.] C E o.:.o.&.| o.X.o.h h Y #.X.o.X.X.#.;.X.X.>.2.o.X.#.;.2.o.9.o.! W &.X.X.:.;.X.X.#...T H 2.#.>.#.&.6.&.",
"| ] &.X.! v ] ) Y n | ( m U ) ! n ] X.:.| 5.v a Z X.>.X.| | ] ' v R :.>.| ) G P ] ..6.| | ) ..] ] O.X.] ) >.| Y B #.] | ) o.>.X.",
"&...X.X.( % ] ] h * &.#.&.&.&.( ; X.6.9.&.d.&.&.| ;.i.>.X.&.&.{ # J e.u.&...4 M &.&.d.&.&.X.o.o.X.4.6.&.X.8.&.X.| #.X.&.X.X.| X.",
"#.X.] ] o.X.o.| N > X.3.:.e.u.X.X.&.] X...&.| X...o.X.2.o.5.e.o.X.X.X.X.X.] + g :.2.#.X.9.5.o.] : ] X.#...o.| o.#.4.X.#.| X.! 7 ",
"5.#.z M &.>.#...] R o.#.#.6.8.X.X.5.X.X...5.X.X...o...#.X.#.5.e.X.X.X.X.X.| ! ( #.#.o...&.X.o...E ] >.8.X.o.] X...&...2.&.X.| ~ ",
"o.X.] ] X.X.4.X.X.O.4.u.,.X.......#.] X.| o.| X.k + ] X.] @.:.&.] ..6.e.#.<.#.| :.1.o.e.6.) &.u.&.| ..X.| 1.X...] X.X.X.8.e.] X.",
"o.:.o.| X.X.5.X.X.X.6.w.2.X.| ....o.] &.:.X.Y ] v w ] >.#.#.:.&.X.X.5.8.#.:.#.| &.>.o.8.>.] &.w.&.| ..X.| 6.X.X.| X.| X.2.7.X.X.",
"&.w.:.X.:...#.;.>.| #.X.:.:.#.] V X.] 6.u.o.l Q | #.o.e.&.X.o.,.X.&.X.....G X.X.o.X.#.X.X.Y J X.X.,.>.X.X.#.;.;.| #.&.&.X.X.X.#.",
"o.2.&.O.2...X.e.8.| X.] X.1.7.Y . ] ) >.7.X.] ..] X.X.o.| | ..X.X.2.;.] ! # ! | X.] X.| X.k X | | u.w.X.] o.9.5.| #.5.&.] X...X.",
"&.X.5.>.X.X.&.X.b * X.o.#.o.o.>.a.>.:.2.X.&.X.5.:.&.X.#.X.X.X.X.X.X.X.X.&.X.&.X.o.X.&.o.&.F = o.o.X.o.>.w.&.e.9.| &.X.X.X.,.y.;.",
"5.X.X.| E 1 ] ] ! I X.9.;.5.8.#.0.X.] X.} ,.X.#.:.8.....| ..] | t Y ..X.8.X.X.:.8.;.X.8.>.E I | ] ] ] ..O.X.#.&.) X.8.&.] X.&.X.",
",.&.o.X.] N X.5.5.X.5.5.6.e.u.#.:.&.| o.X.2.o.o.:.7.X.#.>.#.o.X.G ( X.&.8.#.&.:.6.;.#.5.>...X.o.X...X.o.X.o.X.5.,.&.6.;.X.o.o.&.",
"| | #.X.) Y ] 7.6...>.| #.>.;.....! ! X.} &.| | ! ! ] | ;.#.| | ] ] ] | ;.| | | | | | | X.] ] Q ] ] ..X.| &.] ,.2.X.| #.| | | X.",
";.#.e.7.] t &.2.2.X.;.X.#.X.X.] X.7 V X.O.q.#.#.F 8 | ;.X.&.&.X.X.o.o.>.a.#.] ) #.X.>.X.&.X.X.7 ( X.&.2.X.0.#.;.&.X.#.4.>.o.o.&.",
"7.#.&.X.X...i.&.X.X.8.] X.| ~ > ' ) ! X.X.#.X.X.] ] #.u.#.>.8.X.....| X.o.] & k X.#.s.X.,.#.X.! ] ] X.X...X.] 7.8.X...&.X.X.X.o.",
">.2.t.t.t.#.2.X.o.;.d.X.o.X.X.! X.&.| >.5.X.X.2.&.&.X.>.o.o.;.X.X.X.| ~ p ) ! ( X.o.>.X.8.5.&.X.X.X.X.o.X.X.j ! #.&.#.3.&.X.;.i.",
"X.#.>.>.%.u ] o.#.X.>.] X.&.<.&.X.X.) #.o.X.] o.X.&.6.&.] | ..] ] ..&.X.Y ] X.| X.] >.| >.X.#.8.#.] | X.] X.Y ! ] X...w.&.&.7.5.",
"o.X.>.&.! w ] ;.:...X.#.:.2.1.>.X.X.o.>.&.X.X.X...&.9.;.X.X.o.X.X.X.:.,.X.X.o...X.X.7.X.o.| &.e.>.....X.&.,.X.o.X.,.o.w.5.7.8.&.",
"o.X.e.5.X.] o.| o.] X.4.w.>.#.o.;.o.>.e.>.! X.X.X.&.X.o...$.>.X...&.o...X.| ~ ) X...X...X.! E X.>.X.X.#.2.y.&.o.&.a.o.o.,.9.>.>.",
"&.o.8.>.&.X.&.5.2.X.&.0.2.6.9.>.a.:.X.&.] 2 :.>.&.8.#.&.X.-.5.o.o.t.6.X.&...8 S #.X.&.X.#.G 6 o.#.X.X.#.#.;.X.&.>.f.&.&.o.5.a.h."
};
