/* XPM */
static char *out[] = {
/* columns rows colors chars-per-pixel */
"64 64 237 2 ",
"   c #1C6B12",
".  c #1C6C12",
"X  c #1C6D12",
"o  c #1C6E12",
"O  c #1D6F12",
"+  c #1D7012",
"@  c #1D7112",
"#  c #1D7212",
"$  c #1D7312",
"%  c #1D7313",
"&  c #1D7512",
"*  c #1D7413",
"=  c #1E7413",
"-  c #1E7513",
";  c #1D7612",
":  c #1D7712",
">  c #1E7712",
",  c #1E7613",
"<  c #1E7713",
"1  c #1E7812",
"2  c #1E7912",
"3  c #1E7813",
"4  c #1E7913",
"5  c #1E7A12",
"6  c #1E7B12",
"7  c #1E7A13",
"8  c #1E7B13",
"9  c #1F7B13",
"0  c #1E7C12",
"q  c #1E7D12",
"w  c #1E7C13",
"e  c #1F7C13",
"r  c #1E7D13",
"t  c #1F7D13",
"y  c #1E7E12",
"u  c #1E7F12",
"i  c #1F7E13",
"p  c #1F7F13",
"a  c #207F14",
"s  c #1F8012",
"d  c #1F8112",
"f  c #1E8013",
"g  c #1F8013",
"h  c #1F8113",
"j  c #1F8212",
"k  c #1F8312",
"l  c #1F8213",
"z  c #1F8313",
"x  c #1F8412",
"c  c #1F8413",
"v  c #1F8513",
"b  c #208213",
"n  c #208313",
"m  c #208512",
"M  c #208413",
"N  c #208513",
"B  c #208612",
"V  c #208712",
"C  c #208613",
"Z  c #208713",
"A  c #208114",
"S  c #208214",
"D  c #208314",
"F  c #208414",
"G  c #208514",
"H  c #208614",
"J  c #208813",
"K  c #218813",
"L  c #208913",
"P  c #218913",
"I  c #208A13",
"U  c #218A13",
"Y  c #208B13",
"T  c #218B13",
"R  c #208C13",
"E  c #218C13",
"W  c #218D13",
"Q  c #218E13",
"!  c #218F13",
"~  c #208814",
"^  c #218814",
"/  c #208914",
"(  c #218914",
")  c #218B14",
"_  c #218C14",
"`  c #218D14",
"'  c #228D14",
"]  c #218E14",
"[  c #218F14",
"{  c #228E14",
"}  c #228F14",
"|  c #219013",
" . c #219113",
".. c #219213",
"X. c #219313",
"o. c #229213",
"O. c #229313",
"+. c #229413",
"@. c #229513",
"#. c #229613",
"$. c #229713",
"%. c #219014",
"&. c #219114",
"*. c #229114",
"=. c #229115",
"-. c #229214",
";. c #229314",
":. c #229414",
">. c #229514",
",. c #229614",
"<. c #229714",
"1. c #229813",
"2. c #229913",
"3. c #239A13",
"4. c #229814",
"5. c #239814",
"6. c #229914",
"7. c #239914",
"8. c #239A14",
"9. c #239B14",
"0. c #249915",
"q. c #239C14",
"w. c #239D14",
"e. c #239E14",
"r. c #239F14",
"t. c #239F15",
"y. c #249F14",
"u. c #249E15",
"i. c #249F15",
"p. c #23A014",
"a. c #23A114",
"s. c #24A014",
"d. c #24A114",
"f. c #24A015",
"g. c #24A115",
"h. c #25A115",
"j. c #24A214",
"k. c #24A314",
"l. c #24A215",
"z. c #25A215",
"x. c #24A315",
"c. c #25A315",
"v. c #24A414",
"b. c #24A514",
"n. c #24A415",
"m. c #25A415",
"M. c #24A515",
"N. c #25A515",
"B. c #24A614",
"V. c #25A614",
"C. c #24A714",
"Z. c #25A714",
"A. c #24A615",
"S. c #25A615",
"D. c #24A715",
"F. c #25A715",
"G. c #25A416",
"H. c #25A516",
"J. c #26A416",
"K. c #26A516",
"L. c #26A616",
"P. c #26A716",
"I. c #25A814",
"U. c #25A914",
"Y. c #25A815",
"T. c #25A915",
"R. c #26A915",
"E. c #25AB14",
"W. c #25AA15",
"Q. c #25AB15",
"!. c #26AA15",
"~. c #26AB15",
"^. c #26A816",
"/. c #26A916",
"(. c #26A917",
"). c #26AA16",
"_. c #26AB16",
"`. c #27AB16",
"'. c #26AC15",
"]. c #26AD15",
"[. c #26AE15",
"{. c #26AF15",
"}. c #26AC16",
"|. c #27AC16",
" X c #27AD17",
".X c #26AE16",
"XX c #27AE16",
"oX c #27AF16",
"OX c #27AE17",
"+X c #26B015",
"@X c #26B115",
"#X c #26B215",
"$X c #27B016",
"%X c #27B116",
"&X c #27B017",
"*X c #27B117",
"=X c #27B216",
"-X c #27B316",
";X c #27B217",
":X c #27B317",
">X c #27B416",
",X c #27B516",
"<X c #27B417",
"1X c #28B017",
"2X c #28B117",
"3X c #28B217",
"4X c #28B317",
"5X c #28B516",
"6X c #28B417",
"7X c #28B517",
"8X c #28B716",
"9X c #28B617",
"0X c #28B717",
"qX c #28B817",
"wX c #29B817",
"eX c #28B917",
"rX c #28BB16",
"tX c #28BA17",
"yX c #29BD17",
"uX c #29BF17",
"iX c #29BA18",
"pX c #29BB18",
"aX c #29BD18",
"sX c #2ABF18",
"dX c #2AC018",
"fX c #2AC118",
"gX c #2BC318",
"hX c #2BC518",
"jX c #2BC419",
"kX c #2BC618",
"lX c #2BC819",
"zX c #2CC819",
"xX c #2CC919",
"cX c #2CCB1A",
"vX c #2DCC1A",
"bX c #2DCD1A",
"nX c #2DCE1A",
/* pixels */
"{.{.{.{.{.{.b.> @ t k.{.T.N y.[.> b.{.{.{.{.{.{.{.{.{.{.T.Z ).e T.d.j T.>X3 2 k.9X%XU T.T.N x.hX4 j.[.{.{.{.{.{.{.{.{.{.{.{.{.{.",
"{.{.].k.{.{.E.8.v.B.].{.].5.Q s.b.].{.{.{.{.{.{.{.{.{.{.e.Z f.7XU #.J W.r.0 R x n z e.[.[.w.J [.;XO.Z.{.{.].Z.[.{.{.{.{.{.{.{.{.",
"{.].a.P b.E.r.0 b.].{.{.W.W c.i [.V.v.v.[.I.].{.{.{.].b.K o.Q +XoXL 3.v.d 5 v y.@.Z y.[.[.9.s T.-XF.].{.{.b.L p.{.{.{.{.{.{.{.{.",
"{.k.P iX> 8.0 . > b.{.{.T.U 3X- T.6 @ @ T.Z k.{.{.{.b.> pX} d.[.Q.k 6.> T.T.W.[.4 ^.=.W.T.5 : T.{.{.{.{.{.j.2 @ {.{.{.{.{.{.{.{.",
"[.y.) bX. h ).* dXT s.[.@ D.'.# > j.,XfX@ t ).e T.[.b.> vXZ +.> bX~ j.{.4 j.[.{.8 3XL k.9 4XU T.{.{.{.{.{.j.C dX4 j.[.{.T.d e.[.",
"W.Z w.%X0 r.N.t Y._.:.s.t v.r.w #.B M Z p.Z f.7XU e.j.v._.5 k d.6XE k.k.3X;.w.j.A.l.w s S._.W W.{.].Z.[.{.b.L l.P.-.y.[.T.6 C s.",
"p.V q.p j.e.! y.Z '.}.Z k.v.! y.6 +.s.j.[.e.| +XoXz Z Q.7 y q.[.U s.b.Z >X/.N d W.h r e.Q.-.y.[.{.b.L p.{.].s.N D G.W W.r.p 0.U ",
"> d.k.@ T.N y.[.T.[.+XT.{.[.Q.[.. 0 k.{.{.[.Q.[.Q.j e.[.@ p.[.{.T.[.[.T.{.v.j k.T.d e.[.[.Q.[.{.{.j.2 @ {.{.[.T.- 3XU T.@ o i pX",
"dXU k.{.> b.{.{.{.{.{.{.{.{.{.{.* ).E v.T.j v.tXT.d.d k.{.{.{.{.= `.J T.T.T.W.[.{.{.{.{.{.[.Q.[.{.j.N iX> d.k.@ +X!.8 @ W.,X4X4 ",
"#XU.].{.b.].{.{.k.].{.{.{.{.].k.w j.T.0 e.L k.b.6 7.0 N k.].].k.g &XZ w.k N T s.{.{.{.{.[.y.&.l.{.b.l 7 j. .,.w [.9.0 O.k c I j.",
"{.{.{.{.{.{.{.{.0 r.].{.{.].a.P <.! y.# K 2.k.Z 6 7.n XXP a.v.t N._.i s 4.f.f.e #XU.].{.W.W H.G [.Z.e.@ {.).%.y.Q.Z 5 d j.j.v.[.",
"{.{.{.{.{.{.{.{.. 0 k.{.{.k.P iXA k.k.@ iXP j.T.T.d.k Q.iXP 6.@ {.k.j k.@ $ # . dXU k.{.T.U 3X, T.] 2X- {.{.Q.[.[.W.T.T.{.{.{.{.",
"{.[.d.> @ w e.T.* ).E v.[.y.) bX@ v.{.{.Q.oXT v.{.[.d.> @X6XT T.T.6 @ @ {.{.b.> '.<XE v.T.{.Y.# > T.;X4 {.{.{.{.T.[.{.{.[.Q.[.{.",
"{.Z.Q #.4.+.Z v i j.'.E e.N w.%Xg r.W.k.j ~ L.0 [.y.! ,.{.+XT.[.[.V.v.v.{.{.].b.Z '.'.0 Z w.l 1 v.w.| j.{.{.].k.U j.].{.W.L v.{.",
"{.].s.N j C @.s.e.Q m.<X> s q.p 6XI @.0 +.E 1X- W.W c.i [.V.v.v.{.{.{.{.{.{.{.{.k.[.T.6 k.j.Z e.W.L w.b.{.{.B.t 7X*.v.b.[.n j.{.",
"{.{.[.T.T.e.w # 3 ,.C '.@ p.k.@ bXt O . > n..X$ T.U 3X- T.6 @ @ {.{.{.{.{.{.{.{.{.{.[.T.{.[.Q.[.T.Z /.7 {.{.v.@ bX/ 6.> cX~ j.{.",
"{.{.[.T.{.{.{.{.{.j.2 % T.d.j T.oXZ 6.@ dXT ,.> @ D.'.# > j.,XfX@ v.{.{.[.s.C M.{.[.p.@ {.{.{.{.. t n.hX4 s.W.[.XX< 5 T.iXP k.{.",
"{.].s.N k.].{.{.[.8.h $XU #.J W.w w.q.w Y._.O.,.t v.w.+ #.B M Z w e.].{.W.E L.F [.y.L o k.].].k.p ).,.{.%Xl Z Q.< f w.[.P a.].{.",
"{.b.L e.t B.{.{.p.y y M.$X .1.].5 #.W y.Z '.}.Z k.v.L : N w.j.j.s.| s.[.W.%.2X< d.;.^.% P a.v.t v..XY.[.M.B q.[.5 w.].{.k.].{.{.",
"{.j.j T.@ v.{.{.@ > +.> -X$XU T.k.x y.[.T.[.+XT.{.[.W.T.T.[.{.{.@X$XU T.[.[..X$ > F.9X= iXP 6.@ T.Z v.{.> d.[.{.T.[.{.{.{.{.{.{.",
"{.k.m k.W.d +.> bX~ j.{.{.{.{.{.{.{.{.{.{.{.{.{.[.y.x k.{.{.v.@ 8 Q.7X* > 6.2 @ {.k.Z T.'.<XE v.T.N #.> {.{.{.{.T.[.{.{.{.{.{.{.",
"{.].r.5 ,XH y p.6XE b.{.{.{.{.{.{.{.{.{.{.].Z.[.W.Z +.5 {.].e.w sXW.C.t b.k.L p.{.].I.[.Z '..XZ ].$.Y d.{.{.].k.U s.].{.{.{.{.{.",
"{.{.V.6 rXoX_ W.g r.].{.{.{.{.{.b.].{.{.[.s.| j.T.j 7.6 b.k.L e.$Xo.v.k.{.].Z.[.{.{.{.{.k.[.+Xv.W.C @.].{.{.B.t 6XE k.b.v.B.].{.",
"{.{.[.T.+X@XQ.[.@ v.{.{.{.{.{.{.> b.{.{.T.U L.4 T.j d.T.> 6.j T.3 d.[.{.{.{.{.{.{.{.{.{.{.{.{.{.T.: 5 T.{.{.v.@ bX~ 6.> @ t k.{.",
"{.[.Q.[.{.{.v.@ gXC @.4 . 6 e.T.. e s.[.k.` 3X- {.j.M 5X= 2 j.{.> b.[.T.@ @ 5 k.T.y.C v.T.e.w # % i ).e T.d.j T.>X3 2 k.9X%XU T.",
"{.v.Z e.{.].e.w zXp C 6XO E Z v # z.:.s.5 y.S.t {.b.E >XwXN j.{.b.E.s.N 4.4.+.x c N N.0 > J ,.s.K.J f.7XU #.J W.r.0 R x M R s.[.",
"{.j.0 M b.k.L e.oXJ q.%X: c @.s.@ l./.t 6 q.J >.{.].F.+XF.I y.[.[.w.Z e.1 5 k #.q.] 1X- 0 f.N c U 1.| +X$X| e.[.d 5 v y.j.b.].{.",
"{.j.N iX> 6.j T.3 d.v.3 T.e.w # . e 8.# T.d.2 @ {.{.{.{.4 ^.=.W.T.5 : T.  > +.> 3 n..X$ Q.~.c k.T.].Q.[.@XQ.[.{.T.T.W.[.{.{.{.{.",
"{.k.m k.dXT s.[.@ @.N T.{.j.Z gX@ k.W.T.T.[.{.{.4 j.[.{.8 3XL k.9 4XU T.* ).E v.> 6.j T.k.m k.{.{.{.{.{.{.[.Q.[.{.{.{.{.[.Q.[.{.",
"{.].a.m Y.!.;.Q.o C 5.].[.q.` xX+ O.J v U s.W.k.3X;.w.j.A.l.w s S._.W W.w j.'.E 8.d.L e.m a.].{.{.{.{.{.{.v.Z e.{.{.{.{.s.| y.[.",
"{.{.E.8.U k.b.[.# f.;.j.W.J r.yXX l @.s.L.| r.Z >X/.N d W.h r e.Q.-.y.[.y.| ~.7XZ b.s.N k.].{.{.{.{.{.{.{.j.0 M b.].{.{.i c.W W.",
"{.{.b.> iXP k.{.# W.3X4 T.j j.+X@ @.w # 4 j.].T.{.v.j k.T.d e.[.[.Q.[.{.[.Q.[.@XT.[.[.T.{.{.{.{.{.{.{.{.{.j.N iX> b.{.{.- 3XU T.",
"{.[.d.> vXZ +.> $ i n.hX> v.d.> . 0 k.{.{.{.v.@ iXN j.{.T.J `.= v.C y.T.{.{.{.{.[.s.C v.{.{.{.{.{.[.d.> T.e.c n.dXT >.@ . @ > T.",
"k.j.V p.0X0 d #.g.g. .{.b.j.V p.6 $.W.{.{.].e.w 4 5 j.{.e.[ &X- Z m.l ; k.].{.{.W.E N.0 {.{.{.{.k.v.Q #.j L 8.} >XR.l > # f.%.W.",
"P $.Z W.d.0 R K w I y.[.{.v.V p.p.L b.{.{.b.L e.. p e.[.w r.Y.0 v.N.p . P a.].{.r.Z OX- {.{.].b.P r.w.N 4.8.a.c.B.v.h w.5 x.=X-X",
"iXK y.[.@ X t iX@ p.[.{.{.[.d.> >XM j.{.{.j.j T.% K.U T.@ 6.C v.T.C >.@ iXP k.{.@ w l.$ {.{.b.> iXP j.T.@ @ # # > 6.j T.k.C T.kX",
"{.{.{.{.{.{.{.{.[.Q.[.{.{.{.b.> qXaX] T.T.Z k.{.> S.7Xe T.j.m k.> b.b.> v.6 ; k.  X 6 v.{.[.d.> vXZ +.> $ i s.[.{.{.{.{.{.{.{.{.",
"{.{.{.{.{.{.{.{.W.Z q.[.{.{.E.8.` n.Z.[.[.I.].{.#.! W.9XZ B.r.5 b.].].b.0 c.e & 9 e g.E k.j.V p.0X0 d #.g.g.| Q.{.{.{.{.{.{.{.{.",
"{.{.{.{.v.v.V.[.T.6 C j.{.{.B.t 7X*.S.{.{.{.].b.K 2.Q.>Xk.].v.@ b.].].b.i &Xg & oXl i.<XP $.Z W.d.0 R x 8 M w.[.b.].{.{.{.{.{.{.",
"{.{.{.{.@ @ 6 T.T.C K.4 {.{.v.@ bX/ j.{.{.{.b.> iXP k.{.{.{.v.@ > b.b.> Q.'.c k.9X4 5 '.iXK y.[.@ X 2 k.  1 j.{.> b.{.{.{.{.{.{.",
"{.{.b.> T.T.p.> $ t x.hX4 @.d T.oX7 ; k.{.{.v.@ >XM j.{.{.{.v.@ dXT ,.> T.j d.T.> b.{.{.T.T.W.[.T.> @ . bX~ 4.@ jX{ n.{.{.{.{.{.",
"{.{.].b.j j m #.f.9.! {.%Xg s W.w ..5 N k.W.e.w W.s 5.j.j.j.q.w Y._.O.,.y.I ,.N b.].].k.j j Z y.w.l i.b 6XU +.w zXL j.{.{.{.{.{.",
"{.].I.[.j.j.w.N w I 4.].[.Z 3.v.6 7.n XXP $.Z e.p.u s j n 6 q @.Z '.}.Z i c.T e.v.v.r.m 4.4.+.x n z l.<X' ! c e.oXI v.{.{.{.{.{.",
"{.k.Z T.{.{.[.T.% K.U T.[.Q.v.> T.d.k Q.iXt : T.> p.T.T.oXi o @ T.[.+XT.- 3XU T.@ @ 5 k.@ @ 5 k.5X^.J '.iXt : T.3 d.[.{.{.{.{.{.",
"{.j.2 % T.[.[.T.7  XZ k.T.[.v.@ 4 j.v.> T.J |.a @ @ @ @ > 6.C dX7 B.{.{.+X!.8 @ W.8X0X7 {.{.b.> @ i `.= v.C s.[.> b.{.{.{.{.{.{.",
"{.j.n $XU s.v.6 <.( & s 5 9.6.+ 3X;.w.v.e.[ *X, v.v.v.v.8.d.L l.9X+X{.{.[.w.v @.k W Y.B.[.Z.E.b.@.` &X- Z m.L e.b.].{.{.k.].{.{.",
"{.v.J M.$X;.$.5 i h.g O.7 5 g 4 Q.).;.j.6 4.S.0 {.{.].b.P r.w.N >X+X{.{.Q.! $.N j.b.[.B.Q.o.s.[.w r.Y.0 v.l.e M Z.].{.{.t B.{.{.",
"{.[.d.> -X$XL k.- 3Xg @ iXZ F.5X< Q.3X4 . @ 6 v.{.{.b.> iXP j.T.{.{.{.{.[.Q.].T.{.>X9X7 @X$XU T.@ 6.C v.T.6 7 iXS Z.{.{.@ v.{.{.",
"{.{.v.@ 4 j.k.@ +XS.c T.oXw @ @ v.C ,.> T.> 6 v.{.[.d.> vXZ +.> $ i <.7 @ v.{.{.{.[.{.hX[.+X7Xe * ).E v.> 8._ bX@ @.) nX@ v.{.{.",
"{.{.v.@ 3X;.,.w W.y ; w.Z r.v.v.0 N.I p.w.p 7.T k.j.V p.0X0 d #.g.u.(  X@ j.F.-Xk.v...{.s.;.m.7Xw j.'.E 6.d.B.%XX v j.eXt B.{.{.",
"{.{.V.6 Q.).-.,.W.0 @ M 8.E.].b.i &XZ r.d r ` P.P $.Z W.d.0 R x w l 0 J + X.Y tXP r.j.v.J ^.[ {.y.| ~.7X2 L e.p 5 w.V.T k.].{.{.",
"{.{.[.T.< Q.3X4 [.e.M iX> b.b.> Q.'.w @ W.,X4X9 iXK y.[.@ X 2 k.@ r.T.T.. O : Q.iXP 8.> Q.'.N T.[.Q.[.@X@ p.k.@ T.[.[.T.{.{.{.{.",
"[.Q.[.{.{.{.[.T.4 ,.x k.dXT ,.> [.e.s k.@ @ 6 T.T.[.{.{.{.{.{.{.T.6 @ @ W.-X!.3 @X:Xt @ T.d e.[.{.{.{.{.[.Q.[.{.{.[.Q.[.{.{.{.{.",
"W.Z q.[.{.{.V.6 wXL +.5 F.l.! d.Q.Z 6 d v.v.V.[.5 w.].{.{.{.].k.d.7.6.k.k c L d.[.y.Z p.W.s 0 e.{.{.{.{.s.*.d.[.[.q.Z W.{.{.{.{.",
"T.6 C j.{.].r.5 lXN ..5 N ` 7.].[.j.9.d.[.I.].{.o J s.[.v.v.r.m M M d p.j.j.v.[.j.Q <.k.[.8.5 M b.].{.{.i H.-.Q.j.Z 6 T.{.{.{.{.",
"T.C K.4 {.k.m k.qX4 2 k.9X%XU T.{.k.Z T.T.Z k.{.% K.U T.@ @ 5 k.9XoXe @ {.{.{.{.4 ^.^ # {.j.N iX> b.{.{.- 3X) T.7  XJ T.{.{.{.{.",
"T.N x.hX4 ,.N T.k.s +.> @ 2 j.{.v.8 1 T.T.> 6 v.> S.7Xe k.5 @ @     7 dX4 j.].T.8 3XL k.@ # 6 v.dXT >.@ +XS.7 @ '.:XT T.[.y.x k.",
"j.w.| {.;X .s.[.d 6 k #.d.d s.k.L (.C T.T.c g.E #.! W.9X2 ..4.4.1 7 h l.3X;.,.5 A.m.M d 4.t.q.N =Xg.p > W.s 0 @.T x.Z.[.W.Z $.U ",
"P r.v.[.-XF.].{.d.9.6.w >XW $.m 9.).E W.W.J s.).K 2.Q.>Xo p 0 d 4.t.q.N >X/.l ; W.I 9.j.k v L y.W.M p @.W.Z O.w 7X*.v.b.[.h q.:X",
"iXP k.{.{.{.{.{.T.Z 6.@ uXiXT k.# t s.[.[.y.w * iXP k.{.% J.N k.@ # 6 v.{.v.j k.T.j j.{.T.T.W.[.T.C K.4 [.Q.k.@ bX/ 6.> cXe 5 '.",
"@X6XT T.T.T.W.[.T.> 6 v.{.{.v.@ gXe 6 v.{.[.d.> vXZ e.[.$ b $X@X{.{.{.{.T.[.{.{.{.{.{.{.[.Q.[.{.T.N x.hX4 s.W.[.XX< 5 T.iXP 8.> ",
"{.+XZ.j.j j Z y.w.l g.E k.W.e.w zX( g.E k.j.V p.0X0 z y.g.z.:.Q.{.{.].k.U s.W.k.{.{.{.{.W.Z q.[.[.s.| {.%Xl Z Q.< f w.[.P a.E.b.",
"{.{.I.Z 4.4.+.x n z l.<XP $.Z e.oXL g.<XP $.Z W.d.0 R x N E y.[.{.{.B.t 6XI $.P b.].{.{.T.6 C j.{.].Z.[.[.Z q.[.5 w.].{.k.].{.{.",
"{.{.[.T.@ @ 5 k.5X^.J '.iXt : T.3 ,.C '.iXK y.[.@ X 2 k.T.W.[.{.{.{.v.@ bXt t iX> b.{.{.T.C K.4 {.{.{.{.[.Q.[.{.T.[.{.{.{.{.{.{."
};
