/* XPM */
static char *out[] = {
/* columns rows colors chars-per-pixel */
"64 64 35 1 ",
"  c #151515",
". c #181817",
"X c #1D1C1C",
"o c #20201F",
"O c #201F20",
"+ c #242424",
"@ c #282727",
"# c #282827",
"$ c #2C2C2B",
"% c #302F2F",
"& c #30302F",
"* c #333333",
"= c #383737",
"- c #383837",
"; c #3B3B3B",
": c #40403F",
"> c #403F40",
", c #444443",
"< c #484747",
"1 c #484847",
"2 c #484748",
"3 c #4B4B4B",
"4 c #50504F",
"5 c #504F50",
"6 c #545353",
"7 c #585857",
"8 c #585758",
"9 c #5C5C5C",
"0 c #60605F",
"q c #646363",
"w c #686867",
"e c #6B6B6B",
"r c #70706F",
"t c #737373",
"y c #7B7B7B",
/* pixels */
"$*,%$##o*&&*%;*3&&*&&;,-&&&2-$&$#$OX++$>##$#&-;$#X$2+&+#$-$+$#2*",
";=6=&X$#*$&*$-%2*-*-->,-;$*,*$$$+#+OX+&3$&$*$-,*#+O,$#+$;&+#$*3#",
"*-6=-*+$*;-;$-;>-;3;>>,;&*&3*#&&**$X$**6*&$$#;>-+++3$*O&$&$+-&3$",
"26t366116923676r66060w6q949965,;,6;;,3,93,,>*3335;*8;;9,3826>,0*",
"$#$+&$$o+$$$;-$#$#6,,*$,$O+O&$+#+X.X#$X$O+-XOO&&,X+XX+3X.OO2+XX$",
"*o$o@#$+O$%%>#%+++,>$+$*#++++###O.XXOXX+.+;+$&+$,$$+$$,XXXO,#$O&",
"$$$++&*+$$;*,#*$+$,**+$-&O$$#$**+XX.&+.#+O;++$$$2-*$$$3+XXO,$$+*",
"6,7<,3q>3367r,2843e33328620,,685,,-30;;6>,e,,6;;e536;;e;,2*q;-66",
";>4q,,,*,8>,,>,6;;,$;,;&-*3;;*;$:;#$;*;6;*-**6-&&#$3**&+&-+#&*5*",
"&**3-$$O$;#&#*;,$*$++*;*$*,**+++++XXX$*;*+#+$3*++#X>X+++$$O+#O,O",
"***1*$+O#*#***&,;&$++*$+#$,$*+$+$. XX$&-&&+*$2;#X++>+XXO**OOX+,#",
">-1t139>,038q69r;&**;,****e86q636;*43;5w**>,,t,>2;;q$$>*36;>**0-",
">**-$-3$*&-,0&*,;*93;&*2;$,$$3*-+$O;&++*$$2***-&e;;;&>e$*$*e3;,,",
"*#$+O&$O$#*->+*O+&;*++#$*X+&+*+&+.XO+O.+X+*#+&+#1$$#*$3$+++5**$&",
">O$$#$#++$&$-$$O+O*&++*+$X+++*X$$.XOX+O#.+*++$&#,$&O$&6$++#5-$+*",
"2>,->,;&;;;;13,,*;9;;,35,*,;,,***;&-;>*,;;,*+-*;6;23>2e>;;;w2;>2",
";1q,,3;-35>>;,,5&*>*&**&&$>,;*-*>,-$-,>q2;*-&3>*&##6**-&32;,;;8&",
"*;3*-$$+*$**$;*;++&#+++$#+$**$$$+#++O$&5**$*$,-&O$O,+$$+*;$*$#,+",
"**3&*+$O$*$*$**,++++$&+++#-*&+$+O+XOO#&2-*#*$2-$+X+,#$$+*;&**$2$",
"5,w2,35;,635823r5,3,,5,63396,,3,,3&>6>>q2>6,,q3,8,,e;;7>6629,>e2",
";&-#&->#**,,3*-,&*,$&&+**$;&*$,;$$++2$+&$$2#*$&$6;**$$7$O+&0$&;*",
"$O$X+++++$**&#&+o+$X#+++++++++$$+XO $+ +OX;O$$O$>$$+*$3+XX$4#*+*",
"$O$+&##OO$$$*$+#OX*Xo++++.+O++##+XX.#$O$OO;O++$$>&#O$$3++++3$$O$",
"99960962362333;3-*9*,5*6;&,;,,2,55239q8999q95q627,,3;,q->;-0>;2>",
"239665;*,6->-;;3&*&&**&#&$3;;$>*>,-&,,>q,,2>-9;**$$9*$$*33***;0*",
"&--,*##+$-&&#*-;&*&$$#$$*&>$;##&+*+O+$$3*$##$,*$+$+,++X+;*XXX+,+",
"*--,*o#o+&$*$-&>&&#$#+$#$*,$*#&$O#O+X#$,&&+*#,*&X++,$X+X**X+X#,#",
">*,6;;,*;825535q;>*&;;&*,>05362322&>-&-9$&&-*9**;$$6$X$X;;+$O#6*",
"6*;>$;9*;,,9e338>28>;*;25;533e53;;$3;#$;$*,-*;->9;;,$+3$*&*6#&,>",
">+$$X$&X##&;;+&$+$&#+X+#$+#*+;&*#+XO#.X+X+*+###$;*+$$O;$$+$,+$*#",
">+O&+#+X+#$&-+&++#&#$O*$#++$#;#$+X.XXXXX $#+$+$*$$++++;+X+$,+$+$",
"-#$##*$o+##&*;-+$#,$*$*,*+$*;*$+OX.O$+XOO$+OX#$3*;*-**q****q***;",
"237q553>3q,,565q,363693333q363,>65;>3,,q2;--*9->;;,9>>3>38;3;,q3",
"***3-**+$;$-#*;-$&*>-&--*&;-*#$$#$OX$$+,&$++$,*++++2+#$$;;&++$,+",
"***2-+++$$+*$-*;*$-**$&&*$,$-#$$+#X+.$$,&$+&$,-$O$+,O++$;-#$#O,+",
"*$*7>;;$*2-,,;>5*$$****$$*5;>;;--*+&&**3+$+&$5*$$$+3$X+O->$$O+3$",
",;66>3e;,569y33e3,823,,53,q63e062,*65--9;*6>3931e329;>q*33>e3;9,",
"*#$$+**+#$-*,#*$#*,;$+$;;+&*$*--$#++#+X##+*$#&*$7-&&&&6+OO+8-$&*",
"*+#++$+++#*$-#$+#*-*$+*&;+$$$&**+XOOXOX+.#;$*&$&3$&+&&5$+++5*&O*",
"*$$#**+++#**--&$$*,***;,;$$+;-*&$+++#&+$+$*$+$;*3*;$&*9*#$&9;$#;",
",2q256,;36>3363q,59358287>30734,26,;22,q3:>,*61;3;,9,38,95>6,>0,",
"*;5$--+#-**-$;;>#*;;$$*-;#$5>******+&**4*$$$&>>*$*+3$$-*;,&&#+,+",
"*;5**+$+$#&*$-$3#$$$$$***$$,-&**$##+X$&,$&+&#>;*+++,$$$*>,$#++>#",
"-*8**$*#-**-*;;6**&--;--**-5;*--**+##&&2&$#$#3-$*#$6#*-;,3;*$+6&",
"5,6;,86;3369936t6593>3,638wq68e933;;q,;2,;8*;3>;q52q--q35630&-93",
"##$O$$++#$;>$$#$+#*+##++$+$$$#;;&++ -#.$+X;.X+o#,*$+$+3$++$3O$+$",
"$+$+#++++#**+$+#+O$+++#+++++$+*&$OO ++X+OO;X+#o+>#$O$$2$$##3#$+&",
"*$*$;;$+#*$***+#O+,++#$;$X++&***$#+O&*$&$+;+++$$,*$++#2$$++,+#+$",
"eryert059q3853,6;-,*,3;2,*3333839q58erqyeereqt036230239,53-6,2w3",
"-;,**;$+**$*$-**$&+#O+#+$&&;*$;***$+***3-$&&$,*#+++3#+O+;;XXX$5+",
"*->*&X+X$$$*+**;&;&$XO$$-&-*-$$*+$++X$$2&$$$$;*$X$X;+XX+*-OXX+,+",
"**;*&++X+$$-*-&>&$oX.X+O#&*;*$*&$&+++$$>**+*$,$+XX+,+X+O**O+X#2$",
",*92;26;,969e69e,63;353532qq89q986;36;;e;*3,,q3,8,,e-;8,q8,8,>w3",
"$++++$*O$+;-,$$;+$,;*$*;&O-$&#3>$&++>$+*$$;++$$+6*&&$;r&*&&e>$*-",
"#O+XO++OO+*$;+&+++$;&##&+++#$+;*$+#X*$X$O+;++$++;#$O+$9***>6$*+&",
"$O#+$++OO$$$**+$XX+$$XXOX.#+&$&&&++O$$#$O$$++$&$>+&X#&9O$+O5*$O*",
";,6;23>;,,>24747259,36;66;,4662>;,;*33;,,-;-$>>,8,58>3e,63,q3396",
"*;6*;*#*;;*;$***$$++$#+$O#+>;*;;-3;$;>>9;-**&,,*#+O3&$*&,,;$+$3#",
"**3$$X++++&&$*$-#++++O+$$+#***&&+$+++$&2*&$*$*,&O$+>+#$+;;;*#+,$",
"**3**$&+**-;-;;,*+$+#+##$#$;*&**$$+++$*3&$$*$,,$#X#,#&$$**$*$$,*",
"5,9*;76;338q0559,,q>,,6e636936e636,,e2>93,q3598,q2>w;,9233,8,;e3",
"$#*+$$++#$;>$$$#XX*#++$;#oO+#+--&++.-$X$$+;#$$$&3;*&$&5$++$3&#$*",
"$X$X#+OO+#**$$#$+X$&$#$*+O+X#+&&+XX ++X+X+-+$&+$;$*+$+;$++>,+$+*",
"++$O*#O++$$$$*+#X.$$#O##+.XX$$#$++OX+$+$++*+OO&&,#-O$+;+$$&*$$+;"
};
