/* XPM */
static char *out[] = {
/* columns rows colors chars-per-pixel */
"64 64 214 2 ",
"   c None",
".  c #5B470F",
"X  c #5D4B0F",
"o  c #57460D",
"O  c #544D11",
"+  c #5D4D11",
"@  c #4C541B",
"#  c #4C5D1B",
"$  c #4E5517",
"%  c #545415",
"&  c #5B5414",
"*  c #5A5B16",
"=  c #56561A",
"-  c #5E5619",
";  c #545B19",
":  c #5B5C1A",
">  c #515C17",
",  c #5B500F",
"<  c #624A0F",
"1  c #6D530F",
"2  c #65520F",
"3  c #70530F",
"4  c #644C10",
"5  c #6C4E12",
"6  c #635413",
"7  c #6C5312",
"8  c #635C15",
"9  c #685914",
"0  c #635A18",
"q  c #735311",
"w  c #74541E",
"e  c #765715",
"r  c #4E611C",
"t  c #55611C",
"y  c #5B621C",
"u  c #62631E",
"i  c #6A621D",
"p  c #545B23",
"a  c #5B5D24",
"s  c #5B5F2B",
"d  c #4A5C21",
"f  c #764E23",
"g  c #794F23",
"h  c #665827",
"j  c #695827",
"k  c #655D2A",
"l  c #6B5C29",
"z  c #655726",
"x  c #7B5622",
"c  c #735728",
"v  c #7E5629",
"b  c #745A28",
"n  c #7D5829",
"m  c #775620",
"M  c #4E6422",
"N  c #4C6729",
"B  c #526423",
"V  c #5B6224",
"C  c #556922",
"Z  c #5B6D24",
"A  c #54662B",
"S  c #5B652B",
"D  c #546D2C",
"F  c #5B6B2B",
"G  c #5C732D",
"H  c #58712C",
"J  c #5C7531",
"K  c #5E7A34",
"L  c #5B7235",
"P  c #506F32",
"I  c #656523",
"U  c #6B6424",
"Y  c #636A26",
"T  c #6A6A27",
"R  c #62642A",
"E  c #636E2A",
"W  c #6B6D2A",
"Q  c #6A6428",
"!  c #726E2D",
"~  c #706228",
"^  c #64732C",
"/  c #6A742D",
"(  c #626B35",
")  c #6B6B35",
"_  c #7B6C38",
"`  c #647532",
"'  c #6B7433",
"]  c #647A35",
"[  c #6D733A",
"{  c #647D3A",
"}  c #6C7A3C",
"|  c #6C7932",
" . c #727535",
".. c #73733D",
"X. c #7B743C",
"o. c #727D3A",
"O. c #7B7A3C",
"+. c #7A7836",
"@. c #75742E",
"#. c #367E5B",
"$. c #2C7C62",
"%. c #247D6E",
"&. c #227A67",
"*. c #327E70",
"=. c #4B7B5A",
"-. c #457959",
";. c #557D5B",
":. c #767B40",
">. c #815627",
",. c #825728",
"<. c #835A2A",
"1. c #895C2B",
"2. c #8D612F",
"3. c #8E6331",
"4. c #936532",
"5. c #956A36",
"6. c #946E3A",
"7. c #986F39",
"8. c #837D3A",
"9. c #86773A",
"0. c #96713C",
"q. c #9B733D",
"w. c #997A3F",
"e. c #A3783E",
"r. c #876E43",
"t. c #847542",
"y. c #8D7143",
"u. c #887D44",
"i. c #9D7640",
"p. c #9E7943",
"a. c #937A49",
"s. c #977448",
"d. c #A57C43",
"f. c #A97E44",
"g. c #A67E49",
"h. c #A8764C",
"j. c #B77954",
"k. c #AF7C50",
"l. c #C27F5D",
"z. c #658134",
"x. c #6B8135",
"c. c #66823B",
"v. c #6D833C",
"b. c #6E893C",
"n. c #74833D",
"m. c #7B843E",
"M. c #73893D",
"N. c #788C3E",
"B. c #78903E",
"V. c #38815D",
"C. c #358264",
"Z. c #398467",
"A. c #36846B",
"S. c #2B8573",
"D. c #3D8272",
"F. c #308A75",
"G. c #57805D",
"H. c #58805C",
"J. c #728441",
"K. c #7C8542",
"L. c #758C41",
"P. c #7C8B43",
"I. c #7D9443",
"U. c #7F9945",
"Y. c #468472",
"T. c #478874",
"R. c #838442",
"E. c #848B43",
"W. c #8B8C43",
"Q. c #888A49",
"!. c #938146",
"~. c #928C46",
"^. c #9B8449",
"/. c #9C8C49",
"(. c #94894C",
"). c #849444",
"_. c #8B9446",
"`. c #859B45",
"'. c #8A9C46",
"]. c #8A9748",
"[. c #929345",
"{. c #97914B",
"}. c #AD8246",
"|. c #A7804A",
" X c #AB824A",
".X c #B2864C",
"XX c #B4884E",
"oX c #B78B50",
"OX c #B88C52",
"+X c #B28156",
"@X c #06A4C4",
"#X c #03A7CD",
"$X c #06ADCC",
"%X c #01ABD3",
"&X c #00ADDA",
"*X c #03B2D6",
"=X c #01B3DC",
"-X c #0BB3DC",
";X c #01BADE",
":X c #12B7DE",
">X c #15B9DF",
",X c #04BCE1",
"<X c #05B7E0",
"1X c #15BAE0",
"2X c #1CBCE2",
"3X c #23BFE5",
"4X c #03C3E3",
"5X c #02C9E5",
"6X c #0DC2E1",
"7X c #13C6E4",
"8X c #1BC8E4",
"9X c #00D0E7",
"0X c #22C0E3",
"qX c #20CDE8",
/* pixels */
"                                                                                                                                ",
"                                                                                                                                ",
"                                                                                                                                ",
"                                                                                                                                ",
"0X0X3X3X3X0X3X3X3X3X3X3X0X0X0X0X3X3X3X3X0X0X0X0X0X0X3X3X3X0X3X3X3X3X3X3X0X3X3X3X3X3X3X3X0X0X0X0X3X2X>X3X>X0X0X>X2X2X>X3X3X0X3X0X",
"2X2X>X3X3X3X3X3X3X3X3X3X3X3X3X3X3X3X3X3X3X3X3X0X3X3X3X3X3X2X2X1X>X>X>X1X>X1X2X>X>X3X0X3X3X3X3X2X:X-X-X=X=X&X&X&X&X%X-X=X-X:X>X0X",
"&X=X-X-X:X>X2X3X3X3X3X3X3X3X3X3X3X3X3X3X3X3X0X2X2X>X-X-X-X&X&X-X-X&X%X&X&X&X&X&X&X-X-X>X>X3X3X3X2X>X2X>X>X:X>X6X7X7X7X7X8X8XqXqX",
"&X&X&X&X%X&X&X=X&X-X:X>X>X>X2X2X2X1X1X-X-X-X&X&X&X&X&X&X%X&X&X&X&X&X&X&X&X&X&X&X&X&X&X&X&X&X&X&X=X-X:X>X8X8X8X8X8X0X2X8X0X0X0X0X",
"=X=X&X&X&X&X&X&X&X&X&X&X&X&X&X&X&X&X&X&X&X&X&X&X&X&X=X=X=X;X=X&X&X&X&X&X&X&X&X&X&X&X&X&X&X&X&X&X&X*X=X=X&X&X&X&X&X-X-X-X-X-X&X&X",
"5X5X5X4X4X;X<X=X=X=X=X&X&X&X&X&X&X&X&X=X=X;X;X=X=X;X=X=X=X=X<X<X;X;X;X;X;X;X&X&X&X&X&X&X&X;X;X;X=X=X&X&X&X&X&X&X&X%X&X&X&X&X&X&X",
"=X=X;X;X;X;X,X,X;X;X;X;X,X,X,X,X,X,X,X,X4X,X;X&X&X&X&X&X&X&X&X&X&X;X5X5X5X4X;X&X*X&X;X;X4X4X5X4X;X=X=X&X&X&X&X&X&X&X&X&X&X&X&X&X",
"&X&X&X&X&X&X&X&X&X=X=X=X=X;X;X,X4X4X4X4X4X4X;X&X&X=X&X&X&X&X<X<X<X4X4X4X4X;X&X=X=X=X=X;X4X4X,X;X=X&X&X&X&X=X,X,X<X,X,X,X;X=X=X&X",
"*X&X&X&X&X&X&X&X&X&X&X&X&X&X&X&X&X&X&X&X&X&X&X=X;X;X,X4X4X4X6X4X4X4X4X,X,X<X<X<X;X;X,X4X,X6X,X<X=X&X&X&X&X&X&X&X4X6X,X6X4X;X=X=X",
"&X=X=X=X<X<X,X,X<X,X<X;X=X&X&X&X&X&X&X&X&X&X&X&X&X&X;X,X,X,X,X,X;X;X=X&X&X&X&X&X&X&X&X&X=X<X<X=X;X;X;X;X<X<X<X,X,X,X,X,X<X,X,X,X",
"&X=X&X=X&X=X=X&X=X&X&X&X=X&X=X=X=X=X&X&X&X=X&X=X=X=X;X<X<X-X=X=X&X&X-X&X=X=X-X&X&X&X=X&X&X&X&X&X&X%X&X=X<X<X<X,X,X<X,X,X,X<X<X1X",
"&X&X&X&X&X&X&X&X&X&X&X&X&X&X&X%X=X&X=X=X=X;X=X<X-X;X-X;X<X=X=X&X=X=X&X=X=X&X=X=X=X=X<X=X<X<X=X<X=X=X&X&X&X&X&X&X&X<X&X=X<X=X;X;X",
"&X&X&X&X&X&X&X&X&X&X&X&X&X&X&X&X&X&X&X&X&X&X;X=X<X&X&X&X&X&X&X&X&X&X&X&X&X&X&X&X&X&X&X&X&X=X=X4X<X<X,X,X,X;X;X&X=X&X&X&X&X&X&X&X",
"&X&X&X&X&X&X&X&X&X&X&X&X&X&X&X*X&X=X=X=X=X&X&X&X&X&X&X&X&X&X&X&X&X&X&X&X&X&X&X&X&X&X&X&X&X&X&X=X4X,X4X,X,X,X,X,X,X,X;X;X;X*X=X=X",
"%X#X$X=X=X=X=X&X*X$X%X&X=X=X=X;X=X@X%X&X&X&X%X%X@X%X&X&X&X&X%X#X#X&X%X&X%X%X@X%X&X&X&X&X%X@X;X;X<X;X-X*X#X*X=X<X=X*X*X*X$X=X;X;X",
"C.$.C.F.S.T.T.Z.C.C.A.S.D.Y.T.Z.&.V.A.%.*.T.#.$.#.S.%.D.Y.Z.$.#.*.%.*.Y.*.$.#.A.%.*.Y.A.C.V.F.S.D.Y.C.$.#.S.%.Y.Y.Y.C.C.C.S.*.Y.",
"] t.a.).' = 7 E t.y.Q.K.@ 9 e E ( k.I.n.a e ` _ s.].v.p 9 Y X.t.~.P.a - Y X.h.E.m.a 9 R [ s.].c.p 0 J y.s.Q.K.@ 9 I X.r.(.I.R - ",
"b.[.!.L...B y ] `.^.R.:.P , u b.'.h.L...p V z.].p.L.:.A y J )./.R.J.( M z.`.g.K.o.F B z.`.d.L.:.S C x.'.^.P.:.N - ^ I./.u.n.L % ",
"w.I.'.`.n.M C 9.I.).`.P.D > i R.I.[.`.N.A D 8.I.'.`.M.S B +.E.).'.I.` A 8.I._.'.P.D N m.I.'.`.M.F G w.I.].`.P.N ; +.R._.'.I.] @ ",
"+.P.~.L.R.F * T Q.E._.K.] = * 9.L.~.R.R.F > W P.{.P.n.' : y Q.E.W.M.O.# W K.E.~.P.^ # T Q.[.P.n.[ > ! P.R.W.E.` > I K.L./.P.o.: ",
"I E E ] D & 1 u T E ' J = 7 9 i G ! E H - 2 y Y ! J J = 1 y T ^ ` ] @ 8 u Y E ' G : 6 y Y ! G ] > 6 u ^ E | H & 6 8 Y H ! J t 6 ",
"5 X & t . 5 5 5 X + * % . 5 5 5 X 4 t O 4 q 5 4 4 C O < 5 q < < * % . 5 5 X + * ; < 5 5 4 6 C O . 5 5 + + ; O 4 5 5 < X 8 ; . 5 ",
"w x w w w w w w x w w w m x x x x m m m x w x x w w w w w w w w w m m x x x w w w w w x w w w m x x m x x w x w w x w x m w x x ",
"g g g g g g >.f g g f f f x f f x f f f g f f x g g g >.<.<.2.n ,.1.n n <.,.v 1.<.<.<.<.1.v ,.1.v v 1.v n <.<.n 1.1.,.,.<.,.,.n ",
">.v 1.1.x v 1.v v >.>.x g 1.g f 1.v x ,.1.v ,.1.>.v 1.1.n 1.5.<.<.5.<.<.2.2.n <.4.1.,.2.1.<.,.4.v x 4.>.n 2.2.n <.3.2.n 3.2.<.<.",
"5.0.d.f.i.q..Xi.i.e.d.i.7.}.7.6.}.7.i.f.f.i.i.}.q.i.d.d.i.i.}.q.q.}.e.i.f.}.w.w.f.d.i.|.e.0.q.}.6.7.}.0.q.e.f.i.w. Xi.q. Xe.6.2.",
"q. X.XXXg.|.OXf.|.}..Xf.d.OXd.d.OXd.g. XoXg. XOX}. XoX.X|.}.OX X|.OX|.|. XXX}. XOX}.|.oX.Xd.e.OXd.d.OXf.d..XXX X}.OX X|.XX.Xq.3.",
"7.g..XXXg.|.OXg. X.X Xg.d.OXd.d.OXf.d..XoXg. XOX X X.X.X|.|.OX|. XOX}.|.XXoX X XOX X|.XX Xg.d.OXd.d.oXf.|. X.X X XXX X|.XX.Xq.3.",
"q.g..XXX|.|.oX|.|..X.Xd.f.oXf.d.OXf.|. XOXg.}.OX X XoXXX X}.OX|.|.OX}.|.XXXX|. XoX X|.XX Xg.d.OXd.d.oXd.g. XXX X|.OX X|.XX.X0.3.",
"q.g.XXXXg.}.oX|.}. X Xg.d.oXd.e.OXf.|. XOX|.|.OX X X X.X|.}.OXf.|.OX X X.XXX|. XoX X XXX.Xg.d.OXd.d.OXd.d..XXXg. XOX X|.XX|.6.2.",
"5.6.d.e.q.q.f.q.i.d.e.0.5. X6.6.}.0.q.d.f.i.i.}.p.p.f.f.i.d..Xq.q..Xe.i.|.}.p.d.}.d.d.f.d.i.q..X7.q..Xq.i.d.d.i.q.}.q.0.e.q.3.1.",
">.<.3.2.v <.4.<.<.1.1.,.x 4.v v 4.>.<.1.4.<.,.4.<.<.3.3.n ,.4.,.,.5.,.,.2.2.n 2.4.<.<.2.1.<.v 4.v >.2.>.n 1.2.,.<.4.1.,.2.3.v g ",
">.>.1.>.n ,.1.>.v ,.1.>.v 1.v v 1.>.>.>.<.,.,.1.<.,.1.,.>.>.1.>.,.1.>.,.<.,.<.<.1.,.,.,.,.,.>.1.>.v 1.>.>.>.1.>.>.1.>.v 1.,.>.>.",
"R s R l z n n Q p R k z n v n h z F l j n n Q S S l z n ,.~ V R l h c n Q a F h j b n Q k S b h c v I p R l z n n b V Q s j c n ",
"B _ } L.D 4 q y y.( L.] 4 7 7 B R u.M.G - q I ) ..B.K 6 3 * ..) L.c.= 7 * 9...M.c.- q : R [ L.] + 7 B s...L.K + 1 8 _ ( J.b.V 5 ",
"L.{.k.N.s.d ; x.'.k.!.u.P O 9 M.].l.E.t.p : x._.j.E.:.s ; ] ). X^.:.) # | ).l.u.u.s > z.].+X).o.k M n.].k.R.a.N % ^ U.|.h.K.) $ ",
"8.`.`.I.n.B C +.U.).U.M.H $ i n.U.).U.J.A C n.I.'.I.M.F t | E.`.`.L.] C n.I.).U.N.G M x.I.).U.b.F H +.U.).).L.D @ | B.].).I.] $ ",
"+.P.E.I.P.D > T E.P.).P.{ % 9 8.L.W.I.P.F t W P.W.L.L.` ; V W.B.E.L.J.r W P.E.W.L.] r T Q.W.I.M.` t @.P.P.).P.J % I m.M.[.L.b.; ",
"^ ' X.J.G & 6 Z | ' u.{ > 4 0 / J 9.[ J & , Z ] 9.} ] % 2 t o.' X.c.> % F ^  .9.{ ; + Z ' 9.| c.= * E ]  .:.J & , u | ^ y.{ V + ",
"q 8 8 t = 1 q 3 9 * * : 4 e q 3 8 8 y ; 3 q 1 9 9 B * 5 q 1 1 u y * & q q 8 0 y t 7 3 7 9 9 C * 6 3 q 8 0 y ; 5 3 3 9 y 8 t - q ",
"G.G.G.=.G.H.H.;.;.;.=.=.;.;.;.;.;.;.=.=.;.;.G.;.;.=.=.;.;.;.;.;.=.=.;.H.H.H.H.G.=.G.;.H.H.H.-.=.;.;.;.;.;.=.=.;.;.;.;.;.;.-.;.;.",
";X-X;X-X*X;X-X*X*X%X%X%X%X%X%X%X%X%X%X%X%X%X%X%X%X%X%X%X%X%X%X%X&X*X=X-X=X*X%X*X*X%X%X%X*X&X%X*X%X%X%X%X%X%X%X%X%X%X%X%X%X%X%X#X",
";X,X,X,X1X<X;X;X;X=X;X;X&X&X&X&X&X&X%X&X&X&X&X&X&X&X&X&X&X&X=X<X;X1X,X,X;X&X&X&X&X&X&X&X&X&X&X&X=X=X;X-X=X<X<X<X;X;X;X<X;X;X=X&X",
"4X1X,X,X4X4X4X-X&X&X&X&X=X=X;X<X<X=X;X=X&X&X&X&X&X&X&X&X;X<X4X,X,X,X4X,X;X&X&X&X&X&X&X&X&X&X&X&X%X&X&X=X;X;X<X<X;X=X&X&X&X&X&X&X",
",X,X4X4X,X4X,X,X=X&X&X&X&X&X&X&X&X;X,X4X,X<X;X;X;X;X,X4X4X4X4X,X,X,X,X<X,X<X;X=X=X=X;X<X=X=X=X=X&X&X&X&X&X&X&X&X&X&X&X&X&X&X&X&X",
";X=X;X<X;X;X<X,X;X;X=X&X=X=X;X;X;X4X4X,X;X=X=X&X&X=X4X4X4X4X<X;X=X&X=X&X&X&X&X&X=X<X4X4X4X4X4X,X,X,X;X=X*X&X&X&X&X&X&X&X&X&X&X&X",
"&X&X&X&X&X&X=X&X&X&X&X&X&X&X=X,X4X5X4X,X;X;X=X;X<X,X5X5X4X;X&X&X&X&X&X&X&X&X&X&X&X<X5X4X4X5X,X,X4X,X,X4X4X4X4X,X;X,X;X;X=X&X&X%X",
"&X&X&X&X&X&X&X&X&X&X&X&X&X&X&X4X,X;X=X&X&X&X&X&X;X;X4X5X5X;X=X&X&X&X&X&X&X&X&X=X4X,X<X&X&X&X&X&X&X&X&X&X=X=X=X<X4X5X4X5X5X5X5X4X",
"&X&X&X&X&X&X&X&X&X&X&X&X=X=X;X=X&X&X&X&X&X&X&X&X&X&X&X&X=X;X,X4X,X;X;X=X;X;X=X=X&X&X&X&X&X&X&X&X&X&X&X&X&X&X&X&X&X&X=X<X4X4X5X4X",
"%X&X&X&X&X&X&X&X&X=X=X=X=X=X&X&X&X&X&X&X&X&X&X&X&X&X&X&X&X&X&X=X=X;X;X=X=X=X&X=X=X&X&X&X&X&X&X&X&X&X&X&X&X&X&X&X&X&X&X&X&X&X&X;X",
"=X=X&X&X&X=X;X;X;X;X&X&X&X&X&X&X&X&X&X&X&X&X&X&X&X=X=X=X=X&X=X=X&X=X&X=X&X=X=X=X&X;X;X;X-X;X;X=X&X&X&X&X&X&X&X&X&X&X&X&X&X&X&X&X",
",X,X4X4X4X4X;X=X&X=X&X&X&X&X&X&X&X&X&X&X=X&X=X&X&X&X&X&X&X&X&X&X&X&X&X&X&X&X&X&X&X&X&X&X=X;X,X,X,X,X;X;X;X=X=X&X&X&X&X&X&X&X&X&X",
"&X&X&X=X&X&X&X&X&X&X&X&X=X=X=X=X=X=X&X&X%X&X&X&X&X&X&X&X&X&X&X&X&X&X&X&X&X&X&X&X&X&X&X=X&X;X4X;X4X,X;X4X,X,X4X4X,X,X;X;X;X;X=X=X",
"&X&X;X;X<X=X=X=X=X;X=X=X=X=X;X;X=X&X&X&X&X&X&X&X&X&X&X&X&X&X&X&X&X&X&X&X&X&X&X&X=X*X=X;X4X4X;X=X=X&X*X&X&X&X%X&X&X&X=X=X=X=X=X=X",
"&X*X=X=X,X;X;X;X;X;X=X=X=X;X;X;X;X;X;X;X=X=X=X=X&X&X=X&X%X&X&X&X&X=X=X;X;X;X;X4X4X4X4X5X5X5X5X5X4X4X4X4X4X4X4X;X,X=X&X&X%X&X&X=X",
"&X&X&X&X=X,X;X;X&X&X%X&X&X&X=X=X=X;X,X;X,X;X;X;X;X;X,X;X;X4X5X4X5X4X=X*X&X=X*X=X=X=X=X=X=X*X4X9X9X5X5X4X;X;X=X=X=X&X&X&X&X&X&X&X",
"                                                                                                                                ",
"                                                                                                                                ",
"                                                                                                                                ",
"                                                                                                                                "
};
