/* XPM */
static char *out[] = {
/* columns rows colors chars-per-pixel */
"64 64 39 1 ",
"  c None",
". c #171714",
"X c #191917",
"o c #1D1E1B",
"O c #1F201E",
"+ c #20211F",
"@ c #242523",
"# c #272826",
"$ c #282927",
"% c #2C2D2B",
"& c #2F302E",
"* c #30312F",
"= c #2F3130",
"- c #343432",
"; c #373836",
": c #383937",
"> c #3C3D3A",
", c #3F403E",
"< c #40413F",
"1 c #444442",
"2 c #474846",
"3 c #484947",
"4 c #4B4C4A",
"5 c #4F504E",
"6 c #50514F",
"7 c #545452",
"8 c #575856",
"9 c #595957",
"0 c #5B5C5A",
"q c #60605E",
"w c #636462",
"e c #676966",
"r c #696967",
"t c #6C6D6B",
"y c #6F706E",
"u c #71716F",
"i c #737471",
"p c #787876",
"a c #7A7B79",
/* pixels */
"                                                                ",
"                                                                ",
"                                                                ",
"                                                                ",
"                                                                ",
"                                                                ",
"                                                                ",
"                                                                ",
"                                                                ",
"                                                                ",
"                                                                ",
"&$#>#&>$@;>>,>:>%$$&%->>-;>,,:$2-*$*oo#<*%->-$O&*%#>$%;=@>3;:>1;",
">%%>-=>&$&:-;;,<>&-:;;11>2,3<--4;&%>%%-3:%$>:&#--**>&>>&%>3--:4>",
">,;%=,#@#1-@%:;%-&$&%->==331;<#$-%@@+%%#%-@+%:@@@%%+%%@##1*#$>-$",
"%%$$#>&%;&#-&*@@#$@$--$$#%>=*;#++%#o.@oOO*@%#:&%-%@X#$&%%>$-#>@@",
":-,>>5%:1>,>:>&&&<*:,3-;-1>><<--&1*#+1$%%1;--4>>&3---&&>3>-,*2-%",
"1->4>%&4=>36:<1811>311<3<>*,:%><::-*%*<1:-*,>$$>%@@>@#&>%-,3>,16",
":*:5:%@1%$14<=>3-@$-%::>>%%:%%-*-:@ooo%-*%;,:@@>@@$<@@@&O%>1>--3",
"346t43,w368i764p0p0ryari3:18><4uwi941q3t460y0q4q,65y54<3<40r3,5w",
"-->>17%@;4*=%>%$$=$$:-%%@:=+$*+%@#*O+@o@@&#&#;-@%5*@&:$#-,&%$*&@",
";>:>45&%:4;#%>@:%%$%:=%@+=%#=%o@$O$#+O@$@*%@&>;%%6*@::--*>>%%>@-",
"><3944>1->,---1>:=%>%->>%1,,<<%2,-#:$%:2<*%,,>-1<4>3>1-::>1:--<<",
"*%-4>:::%#1>>-->%%$%*%::@%$%$%@;-$@&oO$2***<>##%*&@<%&$&%*1>>*-3",
">14t3>,7-;11>136>:*1:**1==,9>>;7&%&2%:<q2,,01>-4,>>9>:-,**81*>16",
"-*-->1%%1-%%-%%$*%$%>>**%%@+@@@%@,*+O-$##-$$$>;$$>$O%-%%><**--*@",
"%%*%-1%%>-;%%$@%%++%=%%+@@+@$+oo+$$+o@@&+-$$%;=$=,@o%&--&-*%$-$*",
"><37,617,146988094>6><<>=>:1:>$1,>-4;3587847,>:314>61324><969q9q",
"%%-<+o$;$%,%$%:>-%%--%--%%@%@=%>*$%&@#&,-##--#@%$o#>@o$%@*<:$%-1",
"%%*:++%,$$1*-*-<%$@%**::-$@%@$->;*%@X@#>$$$;*@+=$O+>@o#%#$>>-**<",
"<:><><-31w3146>1>7<60r703411<41q9064>3&1;>12>7,>-;=:-%%,<543<3<3",
"%#$%;>%$;2**%:$$@%o$*:$%@$$o@$@%#*$+.+.OO$@#$:%#$=$@%%%$*-$*$*+$",
"%%%*-4*%;1-@$-$$%$o@%%%@@$$@-@@+*@#XX+ooo#XO$>=$%1-$--%%*:*#@&@#",
"1->6<>>0<<27,<495<,6<<463<3q343641><-><5>;=3>:;6>>>0,;14>,14>139",
"*$%,*$+,$$,<-&;<-$+%*$,-::::*:*>-%#Ooo%-%$*--@$;@#%<%@+%#%:,;=;1",
">>>6---6,:20<,,046,46747,::<::>0453>-1<5**-6<>:3=%%7>*->*:16:=:9",
"-*%&>9%%-5*&%,%%$,$$,,*-%<:+&4%*%>*@@-O@@-%%=1:%*8$+%1%%-,==%>%#",
"--%-,5&@*2*&$:+%++++*&$$$-%+*:$+%-%Ooo+@+=$**:*$*6%+%:%%%;%%#-+%",
",>13<6:<:2-&-,<<<,-<-,<<-5<5,6*53>-1-:,1<:=>;<:>;7>1>,;>->>-;:1<",
"%%-1-*&,*#,&--::-%&&**:,%:-%-,&,>&--$%&<%%$:-@%**=*2=@+%%%1;*--1",
":->2-&*<@&<*:-<:&$$%&*:<%%--;*$4--%-O+&>-@%>=$@***;6;%@-@%2;-=>>",
",>:-:6-;5<<;:,*&:<,,5q4762**-60q5p01&7-*%3%%*74<-4>>1>:<06:;1>>-",
"%$@@%<*@**%%++++%+%+**+$+$@$$%+@#>&O+$@+o%o+@*$$=1*%%*=*%=%%%$++",
">>>>,7125<5<777494<<<<<<&-@&$2*,3513>693473<141>18>->>><17445954",
"&%>>++*<%:<*%:<<<&,-<&::*$O#@$*:;-*>&%>1>*%>:%@-%+$1+X%-%;1>%;>3",
"#$=-@+=>%+<%;*%<%++%%%;;**#O**&:;%%*@o%>*%*-*+$$$+$,@X@%%$<::*-1",
"*%>1%=%3*;<,:**<-;-<<<<5*&+:*&%7:>:1$%%3$$$:%*%*===3%*%>%;<:%**4",
"1<>$=6=*<<*-**%%+%+%,-*%$--&*-@%%>>%+-$*@*$$$**$%8=%*:-%->%%$;$%",
":*%%*6%#%<;*+-+*+++++*%+++&+++o+$-%++$%$+%+%%%$@$6$@$-@$%-*%+-@%",
"11403431:>,1415741181255:>-7*1:q751w567w51,41,>3363w1114>,0,2200",
"*%11%&&%*$>-&&:;%#&#*%-*$@##@&$;-&-*%#-1:&%>-#%%%=$3<#$=$-1-;;1>",
"--11-&-:&-:-:::,:-*<,,14&&$%--&4::-,@&-3%&-<;*$;---3:-%>=-7--;2,",
"1;;**3%&>%*&-%%%%$#-,>*&$*$$&,@&%<>*+-$&%:%*=>;;=3=$-*%:>>--;--$",
";*-%%:#@&%$&@@@#$++%&*%#O+&#$&oO@*%@O@@#O*#&%-%$$>%@:%#%$>=-$=$$",
"                                                                ",
"                                                                ",
"                                                                ",
"                                                                ",
"                                                                ",
"                                                                ",
"                                                                ",
"                                                                ",
"                                                                ",
"                                                                ",
"                                                                "
};
