/* XPM */
static char *out[] = {
/* columns rows colors chars-per-pixel */
"64 64 243 2 ",
"   c #150F0E",
".  c #15110E",
"X  c #1B140D",
"o  c #151313",
"O  c #1A1514",
"+  c #1D1A15",
"@  c #191619",
"#  c #1C1A1B",
"$  c #261C15",
"%  c #221D1C",
"&  c #27221C",
"*  c #342619",
"=  c #1E1E21",
"-  c #221F21",
";  c #1F2124",
":  c #242324",
">  c #2A2524",
",  c #28272A",
"<  c #2C2A2C",
"1  c #342B24",
"2  c #322D2C",
"3  c #34322C",
"4  c #39332B",
"5  c #252931",
"6  c #2B2D32",
"7  c #322E31",
"8  c #342F3C",
"9  c #2C3135",
"0  c #343334",
"q  c #393837",
"w  c #34353A",
"e  c #3B363B",
"r  c #3C3A3C",
"t  c #482E1A",
"y  c #743F1F",
"u  c #473528",
"i  c #533A2E",
"p  c #443B39",
"a  c #6A3D24",
"s  c #58422B",
"d  c #48423B",
"f  c #594538",
"g  c #774627",
"h  c #714E36",
"j  c #78693D",
"k  c #2E3948",
"l  c #373844",
"z  c #3C3E42",
"x  c #433D43",
"c  c #3D4247",
"v  c #394353",
"b  c #434344",
"n  c #4B4544",
"m  c #43454A",
"M  c #4B4748",
"N  c #45494C",
"B  c #4C4A4C",
"V  c #594C46",
"C  c #524C4C",
"Z  c #4C514C",
"A  c #59544B",
"S  c #484853",
"D  c #4B4D52",
"F  c #534C53",
"G  c #544B55",
"H  c #4D5154",
"J  c #4A545B",
"K  c #535254",
"L  c #5A5454",
"P  c #54555A",
"I  c #58585A",
"U  c #5D5B5C",
"Y  c #67564A",
"T  c #6F584E",
"R  c #655B55",
"E  c #635B5C",
"W  c #5C615A",
"Q  c #6B674F",
"!  c #786A47",
"~  c #68645A",
"^  c #756958",
"/  c #787B5D",
"(  c #5B4D66",
")  c #4A5763",
"_  c #5B5D62",
"`  c #585865",
"'  c #5D5572",
"]  c #645E62",
"[  c #65586A",
"{  c #655C73",
"}  c #5B6268",
"|  c #596779",
" . c #5F7375",
".. c #656263",
"X. c #6B6564",
"o. c #69686A",
"O. c #766967",
"+. c #736B6B",
"@. c #797569",
"#. c #696A74",
"$. c #746C73",
"%. c #766C76",
"&. c #66777A",
"*. c #6B747B",
"=. c #747273",
"-. c #7B7474",
";. c #777779",
":. c #7C747B",
">. c #7D7A7C",
",. c #974B19",
"<. c #AF541A",
"1. c #89532C",
"2. c #986439",
"3. c #AC662D",
"4. c #A8763E",
"5. c #C95414",
"6. c #CF6D29",
"7. c #835A42",
"8. c #906C50",
"9. c #8A725D",
"0. c #977659",
"q. c #A97A48",
"w. c #A67B55",
"e. c #866C63",
"r. c #897668",
"t. c #957B68",
"y. c #857875",
"u. c #837B7C",
"i. c #8C7D7C",
"p. c #957E73",
"a. c #7C816A",
"s. c #AC824C",
"d. c #AC8457",
"f. c #B68C51",
"g. c #99816C",
"h. c #888279",
"j. c #8C837D",
"k. c #9B8372",
"l. c #96887B",
"z. c #97917E",
"x. c #A88767",
"c. c #B18F69",
"v. c #B89868",
"b. c #A48B76",
"n. c #AA9477",
"m. c #B69978",
"M. c #B8A06F",
"N. c #BBA377",
"B. c #C19F72",
"V. c #C0A274",
"C. c #5A7185",
"Z. c #6A7986",
"A. c #6D738A",
"S. c #737C83",
"D. c #7A7A87",
"F. c #7D7A94",
"G. c #847D83",
"H. c #887E87",
"J. c #817D96",
"K. c #798586",
"L. c #7D848C",
"P. c #6C8296",
"I. c #788998",
"U. c #7C99A7",
"Y. c #858383",
"T. c #8B8484",
"R. c #84848B",
"E. c #8A848B",
"W. c #848B8C",
"Q. c #8C8A88",
"!. c #938A83",
"~. c #9C8C83",
"^. c #968989",
"/. c #948C8C",
"(. c #89928D",
"). c #9B9486",
"_. c #94928D",
"`. c #9B938D",
"'. c #878696",
"]. c #8C8B93",
"[. c #8C8C9B",
"{. c #948D96",
"}. c #8A9395",
"|. c #889499",
" X c #949393",
".X c #9B9493",
"XX c #989798",
"oX c #9C9C9B",
"OX c #A28F84",
"+X c #A69689",
"@X c #B59C89",
"#X c #A39B95",
"$X c #A89A97",
"%X c #A49D9A",
"&X c #B29D95",
"*X c #9DA19B",
"=X c #BAA78A",
"-X c #A4A39C",
";X c #A8A598",
":X c #AAA39C",
">X c #B7A797",
",X c #B4A892",
"<X c #878BA1",
"1X c #8E8AA3",
"2X c #918EA2",
"3X c #8B99A4",
"4X c #9797A6",
"5X c #9C9DA4",
"6X c #A49DA4",
"7X c #97A2AA",
"8X c #92A5B0",
"9X c #A5A3A3",
"0X c #ABA5A3",
"qX c #AAA8A9",
"wX c #B3AAA4",
"eX c #B6A9A5",
"rX c #B4ADAA",
"tX c #B9B2A8",
"yX c #BBB3AC",
"uX c #A9ACB2",
"iX c #B5AFB2",
"pX c #B5B3B5",
"aX c #BCB5B2",
"sX c #BBB9B7",
"dX c #C3AD89",
"fX c #C0AD96",
"gX c #C4B59B",
"hX c #C5B8A8",
"jX c #C3BBB5",
"kX c #C6BAB5",
"lX c #C3BDBB",
"zX c #CDC2AA",
"xX c #C6C1BD",
"cX c #CAC3B8",
"vX c #CAC4BC",
"bX c #D2C8BA",
"nX c #B8B8C0",
"mX c #C7BFC0",
"MX c #CBC8C3",
"NX c #CAC8C6",
"BX c #D4CDC7",
"VX c #D7D1CB",
"CX c #D8D6D4",
/* pixels */
"..o.o.;.>.Q.9XaX9X_.R.>.H *.*.S.Z.*.K.S.L.|.|.XX}./././.Q.>.z D |.I.K.Z.*._ K.(.(.U.a.K.v a.5X9X:X$X$X#XoX~ , c K.&.P.a.C.C. . .",
"lXlXlXlXlXaXoXY.W.W.W.&.` 7X7X8X8X3X3X7XqXpXaXyX0X#X`.`.^.#.z m #.*.*.*._ D K.|.(.(.I.a.v  .9X0X0X$X-X#X.X=., w C.a.C.a.a.C. . .",
"tXtX:X%X XY.L.W.(.}.}.I J |.|.|.|.3X3X4X3X3X7X7XXX(.Q.h.;.K z z Z o.=.o.c H K.(.U.(.K.K.) } 9XqX:X:X%X#X_.u., 6 Z.a.C. . .a. . .",
" X X X(.W.W.(.(.}.|.L.N P o.} o.o._ P H D H H D N m P ..>./.%XaXMXVXMXaXZ K L.(.(.(.I.P.} W qXqX0X-X#X`._.T.< 5  .&.K.K.P.P.a.P.",
"/. X XXXXX(.(.(.}.|.*.N 5XCXCXCXBXBXmX$X;.M c Q.0XaXyXeX0X$X+X#X+X;XtX.XB K K.(.I.(.K.a. .K qX-X%XXX X_._.Q.0 5 } &.&.&. . . . .",
"oX*X-X7X*XoX3XXX|.(.} N 7XkXeX+X+XOX^.^.-.B M yX$X`.~.~.~.~.z.~.~.~.).h.b } K.K.K.K.K.K...K oXXX XQ.E.Y.=.I < 5 Z H m c k z z q ",
"oX7X*XoXoX*XXX|.(.W.S N 6X`.+X&XeXyX:X!.y.K Z VXMX&X~.~.~.l.OXOXOX+X+X!.w #.K.a.a.K.&.} w r b q 0 0 6 6 6 < , < 9 c M P U ] W H ",
"I P K Z N H J } #.} m N u..X%XoX/.^.`.T.-.B b T.i.j.j.j.y.y.y.y.u.h.Q.;.9 W J J c c r w Z =.W.*X9X0X9X-X%Xm P qXuXoX XE.D.>.>.>.",
"X.=.=.y.T./.%X0XqX7X%XG...L B m Z v c r Z Z H B z r r d M M K P I I U M w w c _ } 6 r xXvXxXxXsXyX;X0X0X0Xr P %XQ.>.D.:.:.>.:.;.",
"+X$X>XeXhXkXBXVXVXVXVXeX^.!.$.N K.|.} c MXCXCXCXCXVXMXpXqX9XXXK r b } ..R.uXCXCXMXw 9 xXxXcXxXtX-X;X-X0XoX2 S D.>.>.>.-.#.] L S ",
"!.~.+X&X&X&X>XeXhXkXBXbXwX^.~ H *X3X| c sXVXVXBXBXMXxXaXaXaXpX..z I VXCXCXCXNXnX4XS < 0XcXxXjXqX-X;X9XoX=.: M U I I I I I I I P ",
"@.~.n.+X&X>XhXkXbXbXkXhX>X~.M *.7X3X*.c XXMXMXvXxXyX:X;XoX_.Q.} r H NXNXuX'.F.F.D.#., h.yXcXtX9XqXqXoX].z : S ` ..#.#.#.&.#.o.' ",
"E ~.~.~.OX&X,XeXhX>X>X+Xl.O.M |.3X|.K.c K.MXvXvXjXtX,X;X,X;X X..w N NXNX4XF.F.F.F.[., L hXhXtX9XqX*X(.&.; 5 N P _ _ I I K P P P ",
"b C K C C M M M M M C C C M U |.|.I.K.c a.xXsXtXwX;X;X;X;XoX XK q K NXNX1XF.F.F.J.uXz 7 >XhXwXqX9X|.K.q - : < 7 0 0 0 7 < , ; ; ",
"_.j.Y.B c ~ XXpXlXqXW...M b m m S Z N N H Z b b r c c Z N m c w w o.NXpXJ.F.F.J.1X6X%.: z.gXwXqXoXW.} ; : M rX0X%X].D.{ ` ( J = ",
"VXVXjXC ;.BXVXVXxX5XL.D.U (.qXpXxXNXBXlX9XXX_.(.W c K.uX7X7XI.` w oXsX'.J.'.<X1X2X4X5X, ~ gXwX*X].K.6 = 8 0X0X%X/.D.{ { { { { 5 ",
"VXhX&XF qXNXrXR.K.R.'.L.D Y.*X-X-X%X.XQ.>.=.o.} K r } S.K.L.K.` G mXJ.J.1X1X4X4X4X4X9Xe d gX-XXXL.I ; ; Y.qX:XXXD.{ ' ' ' ( { , ",
"bX,X>XC 5X;.;.L.|.|.3XL.m r r d M M n d A R ~ T Y d w w w w w 9 G.2XJ.4X4XuX6X4X4X4X6X` 1 tX;X(.;., ; Z iX:X$XT.$.[ [ #.%.D.%., ",
"hXfX&XM o.}.[.3X3X4X3X*.r yXvXbXvXBXbXbXcXfXN.m.b.M q _.pXY.M 0 H.H.2XeXuX6X4X[.2X6X5X;.& ).T.o.c = ; R.XX.X/.>.-.%.+.] L z , = ",
">X&X&XM N oX7X5X3X3X|.P I VXVXVXVXbXVXbXzXdXm.m.g.q K BX0X-.B 0 -.H.H.2X6X2XH.H.J.[.(.} & < & : & ; , 3 > % : > : < 7 r x N P ` ",
"&X=X$XM z ;.|.3X3X|.L.r `.VXVXcXhXgXtX=Xm.m.m.c.Q 2 `.VXrX-.M 7 e p M B C M M x x e < : 0 M ] >. X7XXX>.z < }. X(.L.L.K.K.K.*.*.",
"&X&X$Xm r P K.L.W.I.` q _.#X~.y.h.r.g.g.b.b.k.r.p 0 vXBX#X-.M M G L L I G J D M p > =.lXNXuX5XD.#._ ` _ m w qX5X(.K.*.*.*.*.&.o.",
"@X&XOXp r z m m N m r q r r r r q 0 0 q 3 4 4 4 0 L BXjX$X:.r NXCXCXCXBXBXVXNXNXqX> u.NXqXL.D.A.*.*.*.#.x : K K H H H P J J H D ",
"+X@Xj.>.sXpXpXpXpXpXpXiX7XR.D.D.#.0 q n @.).>X>Xd y.BXeX$Xu.w mXsXG.$.$.>.u.>.;.=.: ] nXI.K.I.I.D.A.' q , e D L U U U M q ; ; # ",
"y.y.R $.rX5X4X4XXX3XXX3X2X[.'.'._ ..bXbXzXzXdXOX3 wXhX0X6Xi.8 H.'.E.|.5XuXiXpXqXP.; w 3XK.P.S.Z.#.z x  XaXjXjXjXaXjXaXsX{.%.G @ ",
"e e w U qX4X[.2X<X<X[.[.'.'.I.R.r -XzXzXhXhXdXt.3 vX&X$X^.y.0 p m N S N m z l 9 5 ; ; J o. .} N 5 ..aXkXkX Xy.:.+.+.$.%.%.%.G # ",
"D.%.m B 9X[.2X2X[.[.[.[.].E.R.*.r bXzXzXhXgX@X^ x kX~.^.~.y.p , 6 ) ` } Z.C.Z.P.P.P.C.k ; ; ; < o.aXhXrX$XH.i.i.i.i.y.y.:.+.P # ",
"F.D.D p *X[.[.{.6X0XeX0X0X%X].I +.bXzXtX=Xn.n.V E fX+XOX+X^.x , 6 Z.P.I.8X8X8XU.U.P.C.C.) k ; 9 ] -.y.y.i.i.i.i.i.i.y.y.+.[ G @ ",
"S.;.K 0 XXXXoX0X&X0X$X6X&X$X Xq ;XbX=Xn.b.g.t.3 O.@X@X@X&X&Xn > 6 Z.P.U.U.8XU.U.U.P.| a.| v 6 - L X.O.O.+.+.O.O.O.O.+.X.] ] L @ ",
"P K z 9 L W ~ ..] ] ] ~ ] ] B 3 Z A A V V n u > Y t.b.n.n.b.n : 6 &.U.U.U.I.P. .} v v ) J l 8 - p C x x r 3 < > & : : & - - - @ ",
"c b d Z K W H d 7 7 K I E ~ o.;.h.!.`.#X:XwXwX0Xy.> : : > > - : ; v c c 9 ; ; 9 p p p r 0 q 4 4 4 1 * % + + n -.~.z.k.g.Y @ 7 C ",
"_.XX*X-X-X;X*X_.E < XXbXrX0X;X-X-X-X-X$X;X,XwXtX$Xp : ~ -.-.-.=.=.=. .| ) & (.,X=X=X=XfX=XdXdX=XdX@Xm.b.d + .X!.E Y Y Y p O +.0X",
"a.*X*X;X*X;X;X-Xh.0 o.NX;X X*X-X;X*X*X*X*XoX-X;X:XK , sXMXvXMXMXxXpXI.A.C.5 :.>XdXdXdXV.V.V.V.B.B.B.v.n.4 : U H H H F D z O y.:X",
"K.z.*X*X*X;XoX`.Q.b q a.=.@.;.W.(._.*X*X*X*XoX_._.I 3 xXvXxXxXnX7XZ.A.F.C.9 M ).>XdXdXdXdXV.V.v.v.c.c.! + 9 _ I H H m z 0 O i.#X",
"K Z n d q 4 7 7 2 , > z =.a.a.Y.z.z._.).+Xz.).Q.T.n r sXsXNXpX|.Z.A.U.I.| 6 x $.^.&X>XdXgXdXdXV.c.x.x.1 # # = = = # : - # @ G.H.",
"9 Z H W +.-.%.%.+.=.U 0 I (.).,XN.N.M.M.n.n.~.!.Y.3 K sXsX7X<X<X3X3X4XP.| 6 e +.:.H.E.{.#X&X>Xm.x.w.T $ T.%XH.H.G.;.o.o.l - %.D.",
"c Y.].6XeXkXkXkXyXjX>.B < l.gXgX=XN.n.x.g.l.OX).h.& o.pXrX3X7X7XuX8X8XZ.| 5 p %.y.G.J.[.{.{.{.{.l.r.> d kXsX%X.X{.^.D.%.p < { %.",
"Z R..X6X6XkXkXiXyXpXo.P , ^ hXgX+Xl.h.h.!.`.#X$X..% h.qX6X7X7XuXuXuX8XZ.| 5 p %.y.G.H.H.[.].[.'.H.] O !.jXwX{.{.{.H.%.%.l p ( { ",
"J H.E.{.6XeXiXrXrX6XI L 0 d +Xl.h.l.z.!.`..X#XoXq % #.;.;.S.R.[.4X8X7XF.| < e :.G.G.H.H.H.J.H.H.G.7 2 aXjXQ.H.:.%.%.{ o.l x ( { ",
"G %.G.J.H.J..X6XeXG.l K e > ^ X.X.o.~ o...~ R n + = : , 6 9 r b P ' #.C.o., r :.%.G.:.:.:.:.-.-.M @ -.iX Xr < - - % - - % x ( ' ",
"6 x b x x b M F C w - < < > < > , : = % % & 9 r n F L E E G x : # # # # ; # # 3 0 2 7 < < > - # @ + < : % + q n G E X.0 @ S ( [ ",
": > X.X.X.U C q 0 < % rXcXkXlXlXcXcXaX+.+ *XMXvXmXlXjX0X$X6X/.M # r =.=.y.u.+.+ < ..+.-.u.T.!.G.+.L C r % + ;XtX#Xu.u.7 @ F ( ( ",
": ~ vXvXmX.XO.O.C C % l.,X>X>XgXhXlXvXl.& `.xXaX0X/.O.E E E L p # W yXrXrXwX-.@ =.mXjXyXeX%X#X#X$X.Xh.U ; > wXyX/.G.h.< @ G ( ( ",
"- #XlXcX$Xe.y.e.L p % i.e.r.t.k.=XhXkX>X& X.Y.u.u.u.%.%.+.] V p O d >.>.u.i.V @ -X%X;.#.#.%.+.#.$.$.=.P + d tXjXT.G.G.> @ G ( ( ",
"2 jXkXkXi.r.y.O.G 7 p kXkXhXOXw.c.@XhXfXd I u.T.T.T.G.u.%.T x 8 O r i.^././.7 - %X..` L I ] ......$.#.b o +.tXyXG.G.y.< @ x ( ' ",
"G kXeX.XH.i.O.G M > X.hXfXw.w.w.w.d.c.m.9.4 u.T.E.H.i.-.[ V V p o 0 %.H.^./.% > o.o.-.t.t.t.t.r.e.O.O., o `.yX;XG.H.%.- @ x x x ",
"$.).OX^.H.y.G x x = !.>X@Xw.d.w.w.c.c.n.b.& =.y.u.y.$.E x i p > o < %.-.G.O.@ 2 !.@Xn.n.x.c.x.d.t.0.^ O % +X$XOX^.J.{ < @ 8 > 7 ",
"y.H.H.H.H.L x x 7 @ i Y V i f f i t * * & O % - % $ O @ % 4 e p 7 % e x x 7 O - Y A A V V V A Y Y V 4 O > x x V x x x %         ",
"% > > - # & 2 p C d + p A R ^ @.h.g.h.z.z.=X=XQ . + X.:XmXmXmXy.$.L O 6 +.+.~ W Z d d d 3 * & + X q -.`.6XeX>X>X&X+Xp.e.e.h h O ",
"] E U O.y.+X,X&Xn.r.4 hXgX=X=X=XdXgXgXN.N.M.v.! . >.cXxXmXkX.X[ [ [ 5 : _.oX(.a.a.a.a.a.a.a.a.A + K yXyXyXgX>X+Xl.x.w.w.0.8.8.+ ",
"U ] i.>X>X>Xn.g.t.t.* @XN.M.v.v.M.V.N.f.f.v.c.Q o #XlXlXkX6X[ [ [ [ r o z K W W Q a.j a.a.a.a.Q & d tX).i.O.Y i f f h Y h h h & ",
"] ~.;XOXl.i.r.t.t.r.1 Q v.f.f.f.f.f.f.f.v.! u + o j.lXpX2XJ.{ { [ [ m o 3 b Z W Z a.a./ a.a.a./ 3 p @.O.i./..X.X`.X.u u i u u & ",
"y.i.y.@.e.@.O.r.9.r.3 * s.s.f.f.f.v.d.h & . . + . R qX2X1X1XJ.A.%.{ ( O 6 Z A / a.a.d q p 4 1 3 + % n M V C M p > @ @ @ % : > , ",
"-.r.e.r.g.k.b.t.T 4 + o & u s s i * X o 3 R !.Q.. 2 rX2X1X1X1XJ.A.A.{ @ & 1 & + . + 3 d d M d V f V $ O K p p p G $.%.y.:.%.%.%.",
"A T ^ ^ T d * X * u s s 4 * $ X o o R ;XhXhX>Xb.o o %X4X1X1X1X1XJ.J.D.- @ 1 u s h g.,X;X>X>X@XOXl.k.& # #XO.O.X.y.H.D.e.T G G x ",
"% @ O O X o & ! 2.<.3.4.v.c.x.w.u X `.yXtXm.w.0.$ . ;.9X1X1X1X1XJ.J.J.x o i s s h j z.N.&X&XOXp.k.t.$ @ /././.G.y.x i 2.6.* @ O ",
"x , o o o * t.q.,.,.3.4.s.d.f.c.u X @.hX>Xw.q.w.$   L 6X2X1X1X1XJ.J.J.( O * i i a 7.e.0.e.H.i.T i * O @ $ @ @ t * t 6.5.3.1.f f ",
"x l o o 4 x.8.,.,.,.<.4.s.s.s.q.t . R tX>Xq.q.w.*   7 %X%X'.[.1X1X1XJ.{ -     $ $ $ O O X X     y.H.H.H.i.y.-.O.8.6.<.6.q.h 1.g ",
"( l o 1 b.x.2.1.,.,.3.s.s.s.s.2.$ X d tX=Xq.q.q.u   O -.-.%.$...A.A.H.%.< O p OXp.p.t.t.t.Y u O +Xy.T T T T R Y 6.5.6.t 1.g g g ",
"( l & k.c.q.d.s.2.3.4.4.s.s.q.g X . & >Xn.8.h h &         $ + % % % @ @   * e.t.t.t.p.p.t.i i @ i.T Y Y T Y L 5.2.6.u   1.* $ $ ",
"( l 1 p.q.q.q.q.4.4.q.q.d.w.1.g   . o < $ X . + 4 C ~ R n q 4 3 - O   * Y r.t.t.t.p.p.p.p.f u % X.V V V G G f 5.<.x @ X @ @ # # ",
"' l * 7.q.4.4.4.4.4.s.q.s.2.,.s   o   @ 1 Z h._.`.).h.@./ Q / 9.^ 1 O V e.t.e.0.0.p.p.p.p.i * - G G G G G S V V v l @ x ] [ ] L ",
"' 8 $ a a 1.2.4.4.4.4.2.1.1.1.t . o $ d Q z.).).r.Q Q ! Q j ! 2.7.s X V e.e.0.e.p.p.p.p.e.x - - x S x ( v k k k k - % G R [ E G ",
"' x O i a y y g g y y y y y y t . o 3 d Q h.z.^ Q Q Q j Q j j j j d   V 0.8.e.0.w.p.p.[ f i @ = ( S S k k k k 5 = o > L E E R V "
};
